<svg xmlns="http://www.w3.org/2000/svg" width="932" height="932" viewBox="0 0 932 932"><g fill="none" fill-rule="evenodd"><path stroke="#FFF" stroke-width="5" d="M555.262694,257.53513 C592.497986,242.922967 635.399518,243.529811 672.187476,259.238551 C696.130535,269.34197 717.416214,285.604323 733.520265,305.986826 C745.17227,320.68416 754.134941,337.505447 759.785205,355.38605 C766.697592,377.157906 768.646693,400.457519 765.616533,423.086409 C761.132534,457.394383 744.597125,489.908442 719.679514,513.900069 C706.55237,526.606529 691.177901,536.992077 674.466753,544.380668 C654.437872,553.265076 632.502493,557.768497 610.599067,557.598155 C591.278466,557.486367 571.846032,554.201958 553.947317,546.792074 C545.836712,543.475725 538.247997,539.057476 530.552774,534.900063 C495.868355,515.678015 461.737779,495.476501 427.293004,475.828598 C408.494294,465.038487 389.503869,454.530506 369.842442,445.374615 C359.686878,440.658267 349.376877,436.213401 338.715399,432.769296 C333.587025,431.177661 328.362795,429.70846 322.989452,429.330514 C304.382457,428.516065 285.732858,435.186025 271.476726,447.078037 C256.986276,459.028603 246.820061,476.030879 242.985763,494.401216 C239.156791,512.36699 241.446719,531.599683 249.615903,548.074964 C257.715857,564.619445 271.540631,578.26811 288.187874,586.178374 C306.257003,594.871147 327.53203,596.531983 346.77275,590.910692 C369.570845,584.405751 389.029907,567.477999 398.802041,545.903101 C399.49967,555.958611 398.695533,566.338836 394.79733,575.728947 C391.559478,583.68712 386.095604,590.628563 379.48144,596.063542 C373.325262,601.14719 366.274414,605.033121 358.962621,608.189774 C369.150138,606.257455 379.108661,602.877228 388.145888,597.756317 C403.541659,589.239209 414.991298,575.579898 428.464595,564.571536 C434.892369,559.312222 441.889963,554.792832 449.031342,550.571541 C456.705263,546.174584 464.661431,542.097019 473.198069,539.669643 C467.212305,573.136553 449.681043,604.335783 424.395979,627.049844 C410.949309,639.181399 395.372475,648.95478 378.57612,655.74185 C341.207692,670.971503 297.869476,670.737283 260.671462,655.113714 C229.68288,642.290143 203.156995,619.081025 186.243481,590.138829 C175.459518,571.789785 168.541806,551.183708 166.076139,530.050635 C162.960772,503.706156 166.624657,476.557875 176.870753,452.071191 C188.629266,423.693253 209.078855,399.030903 234.715396,382.113798 C250.66501,371.547262 268.590352,363.956389 287.293205,359.932056 C305.809668,355.875784 325.039737,355.412666 343.790518,358.010384 C357.194584,359.900117 370.385634,363.546504 382.687339,369.231673 C390.063037,372.707718 397.140512,376.774636 404.297868,380.66589 C441.889963,401.596682 478.880286,423.592112 516.33392,444.773094 C534.062222,454.759403 552.083422,464.287917 570.711719,472.49628 C580.77675,476.834681 590.980243,481.024034 601.673674,483.541904 C609.869485,485.548747 618.454052,484.792854 626.660514,483.243805 C643.392964,479.895517 658.730155,470.61187 669.918849,457.793623 C681.634759,444.474996 688.957203,427.376902 690.490922,409.709227 C691.955411,393.611894 688.58975,377.099351 680.819971,362.913044 C672.033039,346.693277 657.638446,333.587578 640.645051,326.390622 C621.856991,318.320662 600.038772,317.671233 580.77675,324.527504 C559.879827,331.825601 542.327264,347.96552 533.199505,368.113803 C532.49655,358.106201 533.290037,347.789855 537.140311,338.431683 C540.362186,330.446894 545.804759,323.462866 552.440224,318.011917 C558.585752,312.917622 565.631274,309.015722 572.943067,305.864392 C562.499931,307.791388 552.312415,311.34728 543.1101,316.675796 C529.168167,324.586059 518.426808,336.696322 506.391373,347.044608 C498.658872,353.75183 490.047678,359.367798 481.180865,364.451446 C474.055461,368.422548 466.685089,372.122166 458.803476,374.325968 C464.826519,340.640807 482.549496,309.249943 508.111481,286.503942 C521.925604,274.138166 537.976401,264.258322 555.262694,257.53513 Z"/><path stroke="#FFF" stroke-width="5" d="M507.062147,606.114731 C514.784856,607.821271 521.830696,612.135618 527.12307,617.985851 C529.47879,620.673652 531.615992,623.548105 533.742535,626.422559 C528.913843,628.187761 524.090481,629.968963 519.25646,631.734165 C517.167224,629.217018 515.120626,626.593213 512.423807,624.689354 C506.422585,620.172356 498.316139,619.015108 491.131728,620.897635 C485.114517,622.513515 479.950055,626.662541 476.603015,631.867489 C472.946853,637.557734 472.088774,644.783865 473.655701,651.306048 C475.17466,657.513588 479.406428,662.846526 484.720121,666.286271 C491.77129,670.787271 501.15153,671.149911 508.671711,667.60884 C513.04205,665.635653 516.335794,662.057251 519.25646,658.361525 C524.090481,660.062732 528.908514,661.811936 533.742535,663.529142 C530.331539,668.168798 527.000487,673.005773 522.384983,676.546844 C509.076767,687.463368 488.344304,687.831341 474.599055,677.506773 C467.387995,672.141837 461.663917,664.531734 459.372153,655.769717 C457.480116,648.522254 457.538743,640.746831 459.585341,633.542031 C462.287489,624.166726 468.858987,616.172652 477.002741,610.94104 C485.818035,605.304124 496.930422,603.896229 507.062147,606.114731 Z M662.720838,607.677282 C667.267057,609.549143 671.269648,612.546254 674.712622,616.028663 C674.701963,614.348787 674.707293,612.674245 674.712622,611.005035 C679.562633,610.994369 684.412644,610.994369 689.267984,611.005035 C689.273314,635.051253 689.273314,659.102803 689.267984,683.149021 C684.412644,683.154354 679.562633,683.159687 674.712622,683.149021 C674.701963,680.141244 674.707293,677.1388 674.712622,674.136356 C669.079149,680.023919 661.484352,684.247606 653.265982,684.850228 C644.024314,685.580841 634.473524,683.111691 627.033288,677.50144 C619.987448,672.259162 614.375293,664.862377 612.019574,656.329676 C608.832424,644.730535 610.633856,631.547512 617.95151,621.830899 C624.043336,613.548846 633.210389,607.341306 643.470027,605.80542 C649.897623,604.77083 656.676979,605.101473 662.720838,607.677282 Z M743.875905,608.093251 C751.007019,610.029107 756.448625,615.900672 759.268026,622.561512 C761.38391,627.473148 762.087428,632.875414 761.991494,638.197686 C761.991494,653.151245 761.980835,668.104803 761.996824,683.058361 C757.162802,683.111691 752.328781,683.07436 747.500089,683.07436 C747.489429,667.592841 747.516078,652.111322 747.489429,636.629802 C747.558715,631.744831 744.851237,627.126507 740.885953,624.385377 C735.0766,620.177688 726.325262,620.908301 721.304702,626.033254 C720.046897,627.419818 718.463982,628.817048 718.042937,630.699575 C718.005629,648.159615 718.042937,665.619654 718.026948,683.079693 C713.171607,683.085026 708.321597,683.085026 703.471586,683.079693 C703.466257,659.054807 703.466257,635.029921 703.471586,611.005035 C708.321597,610.994369 713.171607,610.994369 718.026948,611.005035 C718.026948,613.788829 718.042937,616.577955 718.010959,619.367082 C719.583215,615.223389 722.322671,611.335677 726.351911,609.282496 C731.718901,606.546699 738.151827,606.573363 743.875905,608.093251 Z M557.102531,571.007999 C557.102531,586.921487 557.12385,602.834974 557.091872,618.748461 C559.506218,614.178133 563.15172,609.954446 568.150962,608.194577 C573.20883,606.424041 578.868952,606.861342 583.868194,608.631878 C591.436342,611.437003 596.65943,618.561808 598.84993,626.129247 C600.837901,632.635432 600.19301,639.504256 600.299603,646.202426 C600.294273,658.494848 600.304933,670.787271 600.294273,683.079693 C595.465582,683.085026 590.63689,683.085026 585.813528,683.079693 C585.797539,667.768828 585.808198,652.457963 585.808198,637.147097 C585.898803,632.902079 584.571712,628.539735 581.656376,625.393302 C578.506534,622.065549 573.560589,621.350935 569.200909,621.766904 C563.743315,622.310864 559.330338,626.529218 557.161158,631.36086 C557.033245,648.596915 557.145168,665.843637 557.102531,683.079693 C552.25252,683.085026 547.40251,683.085026 542.552499,683.079693 C542.54184,645.722462 542.54717,608.365231 542.54717,571.007999 C547.39718,570.997334 552.25252,570.997334 557.102531,571.007999 Z M647.813718,620.295013 C635.646054,621.185614 625.210537,632.358119 625.370427,644.613211 C624.842789,655.337749 632.384288,665.566324 642.478706,668.856747 C647.088881,670.328638 652.114771,670.424631 656.804891,669.26205 C662.886058,667.726164 668.146454,663.609136 671.525473,658.372191 C673.486796,655.23109 675.005755,651.588694 674.717952,647.812974 C674.494105,644.154578 675.288228,640.341527 673.929159,636.837787 C672.053111,631.36086 668.077168,626.710538 663.18985,623.670763 C658.632972,620.838973 653.122081,619.804383 647.813718,620.295013 Z"/></g></svg>