<svg xmlns="http://www.w3.org/2000/svg" width="932" height="932" viewBox="0 0 932 932"><g fill="none" fill-rule="evenodd" stroke="#000" stroke-width="3" transform="translate(55 390)"><path d="M71.8638662 58.3387788C72.0444026 50.4426028 74.2349146 45.875561 81.8415287 45.875561 87.9396589 45.875561 90.4431009 49.4530698 90.4431009 54.9695809 90.4431009 61.9162876 88.930605 63.2423276 80.6700462 65.4297045 73.0634321 67.4568269 62.9293034 69.1354219 56.1531583 72.8691701 49.4050967 76.5788901 45 85.5006477 45 96.181115 45 115.879478 53.9626463 124 69.3363515 124 78.4795342 124 87.0811064 119.276719 90.8081871 111.168217L91.173272 111.168217C91.2775769 114.721697 91.6426681 118.443438 92.6576856 121.62834L119 121.62834C115.818542 117.598136 115.818542 108.788552 115.818542 101.893917L115.818542 54.9695809C115.818542 35.7519569 105.840879 28 83.3540258 28 72.0444026 28 64.2572521 29.5063201 57.8702633 33.8690536 51.4351317 38.2638205 47.7361346 45.875561 47.5515861 58.3387788L71.8638662 58.3387788ZM71.3703986 93.4649306C71.3703986 88.3770866 72.7224187 85.5006477 75.5909468 83.3573495 78.1184602 81.326212 81.8415287 81.1459319 90.4431009 76.5788901 90.4431009 80.2846075 90.3147195 85.0479524 90.3147195 92.6196292 90.3147195 101.701629 85.0470594 105.106875 79.3180274 105.106875 74.2349146 105.106875 71.3703986 100.724116 71.3703986 93.4649306M173.859193 121.644815 200 121.644815 200 2 172.853012 2 172.853012 40.8883462 172.514968 40.8883462C168.024937 31.1493481 159.784597 28.6668574 152.268071 28.6668574 129.976998 28.6668574 126 48.924599 126 77.0873254 126 110.92317 135.683991 124 153.946364 124 165.98076 124 171.536626 116.79919 173.525125 110.573076L173.859193 110.573076 173.859193 121.644815ZM173.370023 76.9082976C173.370023 94.4886215 171.66389 104.215683 163.658193 104.215683 153.429354 104.215683 153.067448 90.3312464 153.067448 75.7466229 153.067448 59.3001377 153.584458 48.4193513 163.475251 48.4193513 172.697909 48.4193513 173.370023 60.8079311 173.370023 76.9082976M284 121.64466 257.834851 121.64466 257.834851 110.922308 257.496133 110.922308C253.642685 118.97104 245.748507 124 235.706444 124 220.228913 124 212 116.297409 212 98.8432524L212 31 239.197256 31 239.197256 92.8355564C239.197256 99.3604711 242.070402 103.183916 247.091429 103.183916 252.271865 103.183916 256.826661 99.1933691 256.826661 90.3290267L256.826661 31 284 31 284 121.64466Z"/><polygon points="297 1 324 1 324 121 297 121"/><path d="M343.249715 49.6716374 332 49.6716374 332 30.8002194 343.249715 30.8002194 343.249715 4 370.432182 4 370.432182 30.8002194 383 30.8002194 383 49.6716374 370.432182 49.6716374 370.432182 95.7074835C370.432182 102.079341 372.76177 104.104564 379.145233 104.104564 380.308031 104.104564 381.837189 103.948471 383 103.792378L383 121.987376C377.803233 122.663796 372.57859 123 367.401729 123 348.629662 123 343.249715 119.637959 343.249715 98.3851074L343.249715 49.6716374ZM440.036741 92.6196292C440.243033 96.6778766 440.552465 100.215334 441.889382 102.919498 443.412748 105.459418 445.888229 107.138 450.267926 107.138 456.603404 107.138 459.951653 103.039689 459.951653 97.8476897 459.951653 93.6211701 457.944284 89.5869509 449.59351 86.7145145 427.357846 79.1388351 416.67044 74.7440682 416.67044 55.5024035 416.67044 37.2743 429.369166 28 451.112925 28 476.490546 28 483.865412 40.4632178 483.865412 53.6315206L483.865412 56.7002474 459.777095 56.7002474 459.777095 54.9695809C459.777095 47.0734049 456.603404 44.8980483 450.910596 44.8980483 443.722192 44.8980483 441.714823 48.399445 441.714823 53.2909859 441.714823 69.4879644 485 58.7273698 485 94.1539926 485 112.522313 472.785265 124 450.446448 124 426.199451 124 416 114.89396 416 96.6778766L416 92.6196292 440.036741 92.6196292Z"/><polygon points="488 31 515.317 31 524.139 98.111 524.451 98.111 534.73 31 564.103 31 573.729 98.111 574.042 98.111 583.7 31 610 31 590.278 122 559.396 122 549.457 54.865 549.12 54.865 538.452 122 507.101 122"/><path d="M618 0 645 0 645 20.7893513 618 20.7893513 618 0ZM618 30.350466 645 30.350466 645 121 618 121 618 30.350466ZM657 30.339828 683.209336 30.339828 683.209336 41.0520751 683.57258 41.0520751C687.412569 32.9860496 695.344037 28 705.403056 28 713.30657 28 723.756774 29.4962112 727.772403 41.8917037 734.206991 31.3585268 740.218451 28 750.329366 28 765.781138 28 774 35.6999335 774 53.121258L774 121 746.752817 121 746.752817 59.1538739C746.752817 52.6278302 743.92672 48.767924 738.869257 48.767924 733.660132 48.767924 729.097644 52.8108762 729.097644 61.6886752L729.097644 121 701.874414 121 701.874414 59.1538739C701.874414 52.6278302 699.028352 48.767924 693.9669 48.767924 688.781717 48.767924 684.223217 52.8108762 684.223217 61.6886752L684.223217 121 657 121 657 30.339828Z"/><polygon points="0 1 43 1 43 19.841 25.472 19.841 25.472 133.183 43 133.183 43 152 0 152"/><polygon points="781 133.183 798.116 133.183 798.116 19.841 781 19.841 781 1 823 1 823 152 781 152"/></g></svg>