<svg xmlns="http://www.w3.org/2000/svg" width="932" height="932" viewBox="0 0 932 932"><g fill="none" fill-rule="evenodd"><circle cx="465" cy="466" r="137" stroke="#FFF" stroke-width="5"/><path stroke="#FFF" stroke-width="5" d="M626.899233,414.002676 C680.733603,439.332135 718,494.064051 718,557.5 C718,645.037133 647.037133,716 559.5,716 C497.884406,716 444.480472,680.841706 418.255381,629.492301 C433.108561,633.731023 448.789306,636 465,636 C558.888407,636 635,559.888407 635,466 C635,448.161203 632.252372,430.964148 627.157233,414.808955 Z"/><path stroke="#FFF" stroke-width="5" d="M421.899233,215.002676 C475.733603,240.332135 513,295.064051 513,358.5 C513,446.037133 442.037133,517 354.5,517 C292.884406,517 239.480472,481.841706 213.255381,430.492301 C228.108561,434.731023 243.789306,437 260,437 C353.888407,437 430,360.888407 430,267 C430,249.161203 427.252372,231.964148 422.157233,215.808955 Z" transform="rotate(180 363.128 366.002)"/></g></svg>