<svg xmlns="http://www.w3.org/2000/svg" width="932" height="932" viewBox="0 0 932 932"><g fill="none" fill-rule="evenodd"><polygon stroke="#FFF" stroke-width="5" points="181 181 751 181 751 751 181 751"/><path stroke="#FFF" stroke-width="5" d="M305,329.100586 C322.476002,328.892589 339.971991,329.071667 357.451324,329.071667 L458.387503,329.070555 L509.384159,329.063881 C521.995352,329.064993 534.682054,328.705725 547.236614,330.137235 C571.038755,332.850098 593.864825,342.664897 609.015579,361.916319 C621.829981,378.200166 626.609286,399.771814 624.244063,420.174451 C622.079828,438.839699 612.787721,454.760941 598.142215,466.395438 C599.729024,467.150679 601.252539,468.046068 602.753845,468.959254 C618.711884,478.663937 629.00116,494.255943 633.267445,512.2972 C638.383212,533.926686 636.71201,558.951978 624.871458,578.074375 C622.533996,581.57251 619.98444,584.849301 617.027356,587.846908 C604.038616,601.011909 586.034048,607.811305 568.217144,611.325012 C549.149891,615.086758 529.993804,614.977754 510.657826,614.976642 L465.366577,614.972193 L305.013325,615 L305,329.100586 Z"/><path stroke="#FFF" stroke-width="5" d="M366.187737 385.878141C366.124393 385.071863 365.978812 384.843587 366.463339 384.175625 370.518474 383.983333 374.598057 384.185745 378.657637 384.189119L401.53931 384.16213 472.39915 384.166629 515.725414 384.167753C524.150181 384.163255 533.051697 383.540274 541.395339 384.724388 547.773091 385.629623 554.226412 388.020342 559.017228 392.493663 564.275901 397.403296 566.71965 404.111029 566.980806 411.260696 567.248629 418.610527 564.708196 425.330629 559.706234 430.652959 552.277191 438.559425 542.305494 441.695698 531.731472 441.884616 517.300126 442.141006 502.817661 441.890239 488.380759 441.889114L402.735069 441.889114C390.640788 441.890239 378.508723 441.669834 366.42111 441.905982 365.854347 441.144685 365.948807 391.305051 366.187737 385.878141ZM365.22032 499.694301 365.174766 498.619152C366.003632 498.015911 366.990271 498.01925 368.003577 498.004781 370.497953 497.968052 372.991218 498.155035 375.486705 498.153922L401.43266 498.113854 482.445993 498.121645 519.613862 498.107176C528.980271 498.097159 538.681116 497.649737 547.956417 499.12445 556.30841 500.452248 564.808177 503.569736 569.876927 510.725155 574.744571 517.596761 575.851208 527.982079 574.419025 536.103575 573.340165 542.212782 570.154697 547.08323 565.08817 550.62922 558.253913 555.410629 549.616372 557.269324 541.468818 558.215366 532.826832 559.220397 524.138182 558.9722 515.453976 558.974426L481.492685 558.976652 365.472535 558.992234C364.720334 557.705616 365.050325 505.900339 365.22032 499.694301Z"/></g></svg>