<svg xmlns="http://www.w3.org/2000/svg" width="932" height="932" viewBox="0 0 932 932"><path fill="none" stroke="#FFF" stroke-width="5" d="M693,465.190899 C693,608.784624 576.59384,725.190691 433,725.190691 C289.40616,725.190691 173,608.784624 173,465.190899 C173,343.256197 256.9436,240.944198 370.19024,212.847581 L370.19024,385.739123 L316.57616,385.739123 L316.57616,465.190899 L370.19024,465.190899 L370.19024,499.426632 C370.19024,587.922241 410.23856,628.939808 497.12016,628.939808 C513.59168,628.939808 542.01384,625.710611 553.64104,622.480373 L553.64104,550.456271 C547.504,551.10211 536.84608,551.42555 523.60376,551.42555 C480.97104,551.42555 464.49848,535.276443 464.49848,493.289597 L464.49848,465.190899 L549.42384,465.190899 L534.83472,385.739123 L464.49848,385.739123 L464.49848,207.095346 C593.23592,222.644373 693,332.260285 693,465.190899" transform="matrix(1 0 0 -1 0 932.286)"/></svg>