<svg xmlns="http://www.w3.org/2000/svg" width="932" height="932" viewBox="0 0 932 932"><path fill="none" stroke="#FFF" stroke-width="5" d="M532.95198,428.645787 C541.125499,435.318257 545.652033,446.088292 546.680791,456.406913 C547.916871,468.821404 545.703864,482.578205 537.564898,492.453104 C532.09442,499.091672 523.799962,503.709083 515.210228,504.536412 C507.875421,505.984984 498.578906,503.911246 492.221026,500.091499 C483.521348,494.863519 478.065006,486.402033 475.657242,476.667769 C472.57568,464.217021 473.601297,448.532139 480.343979,437.384148 C486.015497,428.009633 493.862327,423.862941 504.250424,421.293841 C514.728047,420.253048 524.580562,421.811648 532.95198,428.645787 Z M222,422.071579 L221.96037,503.241164 C220.372115,504.54756 212.583262,503.779138 210.20088,503.740913 C209.781714,492.397526 210.15058,480.878905 210.138386,469.517743 C210.123143,453.693284 209.857926,437.823679 210.220695,422.004568 C214.14713,421.989467 218.073565,422.011804 222,422.071579 Z M251.672371,422.056904 C251.769265,422.203906 251.853656,422.351537 251.920856,422.514121 C252.306179,423.427944 252.504002,438.008214 252.513412,453.723347 L252.513571,455.778553 L252.513571,455.778553 L252.511593,457.840451 L252.511593,457.840451 L252.507476,459.902861 C252.465992,476.387711 252.219225,492.328474 251.766139,493.486912 C263.826236,493.179372 275.959784,493.28923 288.021444,493.491791 C288.365259,493.992447 288.571548,494.484132 288.666879,495.084888 C289.088834,497.75815 289.381077,501.55423 287.79015,503.785857 C280.087129,504.1137 272.327846,503.942932 264.618574,503.948913 C256.487346,503.955051 248.318611,504.118893 240.193634,503.825362 C240.165504,476.606248 239.751363,449.316624 240.228016,422.104908 C244.027173,421.913207 247.868526,422.039434 251.672371,422.056904 Z M195,422.308435 L194.952424,432.536705 L156.613397,432.563172 C156.429121,440.895293 156.571372,449.255141 156.574385,457.590414 L191.22249,457.673122 L191.197117,466.189565 L191.11148,467.737551 C190.480468,468.298745 184.003238,468.456448 176.790108,468.463138 L175.845512,468.463175 L175.845512,468.463175 L174.895089,468.461623 C174.73634,468.461239 174.577452,468.460794 174.41848,468.460291 L173.464042,468.456591 C173.304939,468.455864 173.145855,468.455084 172.986844,468.454254 L172.034061,468.448685 C165.059509,468.403694 158.428092,468.270754 156.612128,468.270823 C156.39439,480.146487 156.539496,492.049877 156.522369,503.929007 C152.439899,504.046059 148.343949,503.983043 144.259735,503.983201 C144.134135,476.735278 143.699928,449.34746 144.34442,422.11214 C153.796758,421.929709 163.273993,422.045816 172.729027,422.046604 C180.134183,422.047234 187.611813,421.835815 195,422.308435 Z M594.820835,422.120561 C595.183344,422.426774 595.484116,422.76855 595.708903,423.188059 C598.558318,428.49848 601.51696,439.521679 603.767998,445.690472 L615.960328,479.70609 C616.600259,481.469096 617.260967,483.228671 617.926795,484.988288 L619.260639,488.508606 C620.81393,492.61811 622.338268,496.740452 623.634752,500.919765 C623.959269,501.969166 624.158728,502.791189 623.835794,503.873006 C619.587,504.087796 615.29863,503.967419 611.043504,503.957191 C611.113157,503.766162 611.168562,503.57828 611.19389,503.376708 C611.512075,500.956429 605.186374,484.312976 603.687265,482.289074 L594.721106,482.315195 C587.066733,482.36964 579.413416,482.32558 571.761154,482.183017 C571.818142,482.324479 571.865632,482.464053 571.892543,482.61417 C572.027619,483.358064 570.723066,487.683761 569.16409,492.265835 L568.8781,493.101024 L568.588086,493.937422 C566.984845,498.532789 565.270842,502.98145 564.631284,503.957978 C560.097549,504.072532 555.536902,503.910142 551,503.849403 C551.227953,503.661678 551.43691,503.459162 551.637952,503.24453 C552.758722,502.048316 580.690903,424.977344 580.61017,422.217492 C585.281627,421.811516 590.128799,422.093182 594.820835,422.120561 Z M449.76855,426.337939 C454.309628,429.276851 457.014183,433.603919 458.103539,438.850821 C459.130109,443.798443 458.721992,449.517751 455.862039,453.824553 C452.964414,458.186183 448.170618,459.856181 443.293629,460.866505 C447.654194,461.717686 451.903312,463.151558 455.301664,466.135087 C459.390675,469.725503 461.60863,474.809332 461.914717,480.198883 C462.071685,482.949587 462.222374,486.972191 460.308937,489.116165 C460.330912,489.316785 460.345039,489.516462 460.345039,489.718496 C460.335621,491.985324 457.684435,495.113231 456.122606,496.673099 C447.636928,505.148296 434.235019,503.954318 423.251983,503.928711 L403,503.85283 C403.411256,503.249872 403.552527,502.544325 403.569793,501.82244 C403.957503,485.3875 403.555666,468.857827 403.561945,452.412989 C403.566654,442.775393 404.349923,431.700782 403.455207,422.249509 C409.244178,422.053131 415.048847,422.109845 420.842528,422.10089 C422.680788,422.098082 424.594634,422.053745 426.545972,422.02479 L427.613827,422.010864 C435.290153,421.926894 443.433555,422.236085 449.76855,426.337939 Z M749.435304,423.357374 C758.123098,426.045931 764.725444,431.442199 768.992277,439.563431 C774.894755,450.796329 775.325685,466.924824 771.614028,478.908176 C770.261475,483.270968 767.078257,490.81634 762.838161,493.049972 C762.706051,493.549535 762.523614,493.878779 762.152448,494.24617 C749.735697,506.57871 724.326573,503.793912 708,503.592884 C708.43093,502.945794 708.59764,502.378324 708.646395,501.608876 C709.434335,489.506331 708.72975,475.351714 708.728177,463.053365 C708.726604,449.302862 709.439053,435.119594 708.583485,421.414363 C718.741787,420.801147 740.124707,420.476652 749.435304,423.357374 Z M317.985569,422.091807 C318.214812,422.30608 318.39852,422.544932 318.569667,422.806156 C320.372206,425.555314 321.452473,429.486126 322.716449,432.544877 C326.509946,441.605801 330.184634,450.715094 333.740514,459.872756 C336.899668,467.804492 340.733989,475.653196 343.436228,483.744534 C343.778522,484.765325 343.905705,485.645264 343.682742,486.711116 C344.06429,486.442171 344.425426,486.123282 344.714335,485.753976 C345.66486,484.539287 351.840016,469.856763 357.890059,455.006039 L358.600929,453.258921 C364.159833,439.579652 369.434306,426.200483 370.237221,423.530746 C370.380105,423.054461 370.364404,422.51027 370.309448,422.020592 L384.993547,422.046274 C385.238491,422.427869 385.437901,422.850744 385.536821,423.294415 C386.395696,427.115412 385.701687,441.752326 385.704828,446.638702 C385.714249,464.853192 386.401977,483.362308 385.645162,501.546863 C385.607478,502.474225 385.491287,503.166201 384.976275,503.964369 C381.153469,503.995565 377.330662,503.990576 373.507856,503.949402 C373.719827,503.635239 373.881553,503.319029 373.961631,502.944366 C374.238449,501.639671 374.351236,494.687852 374.360038,486.824241 L374.360382,485.166663 C374.359753,484.240175 374.357774,483.305827 374.35454,482.371062 L374.350063,481.249621 C374.31037,472.470897 374.163129,463.918505 373.986753,461.776007 C373.928658,461.064179 373.856431,458.838415 373.944359,458.373001 C374.539448,455.235315 373.202722,443.871216 373.179693,444.23506 C373.105111,445.469259 367.474139,460.02649 361.659851,474.454467 L360.961601,476.184343 C355.374059,490.004612 349.815646,503.209856 349.040115,503.898354 C345.87625,503.664544 342.560081,503.853294 339.378945,503.841005 C339.477865,503.507621 339.484145,503.104598 339.444891,502.75861 C339.305147,501.524332 318.632473,450.336335 316.635235,446.159896 C316.08725,445.014952 315.189011,445.405191 315.27391,445.843213 C316.212863,450.716827 315.48117,461.075208 315.48274,466.396275 C315.485881,478.123326 316.135925,490.264429 315.385391,501.950201 C315.336716,502.704569 315.1797,503.266248 314.766749,503.907965 C310.844499,504.048188 306.92382,503.996983 303,503.956492 C303.012561,503.931913 303.026693,503.907808 303.039254,503.882757 C303.059666,503.841162 303.076938,503.797993 303.09892,503.756556 C303.719194,502.514477 303.920546,485.680352 303.931321,467.537915 L303.931163,464.124363 C303.930657,463.363939 303.929844,462.602793 303.928742,461.841959 L303.924583,459.561426 C303.887126,442.47994 303.711438,426.07937 303.585668,422.129147 C308.377784,421.897385 313.190313,422.037451 317.985569,422.091807 Z M681.337833,425.603807 C686.746292,428.408813 690.47069,433.294559 692.280311,439.045881 C694.422663,445.856158 693.965942,453.940097 690.621361,460.295237 C687.865338,465.530569 683.594758,468.938139 677.99796,470.67133 C678.115671,470.767 678.230244,470.864238 678.341678,470.967593 C679.091077,471.665374 682.871257,478.201843 686.742812,485.252716 L687.248074,486.174875 L688.00474,487.563309 C690.100767,491.421893 692.129414,495.261478 693.618827,498.227376 L693.965691,498.921979 C695.197793,501.404141 695.983081,503.156769 696,503.597418 C692.661697,503.67411 689.218237,504.195118 685.889351,503.92097 C683.186691,503.698263 682.579298,503.296136 680.874833,501.282052 C680.874833,501.173208 680.876403,501.064207 680.870125,500.95552 C680.814997,500.086128 677.588687,493.734472 674.106134,487.282411 L673.732156,486.59098 L673.732156,486.59098 L673.278786,485.756574 C669.875649,479.508866 666.447676,473.566682 665.663345,472.856836 L648.278113,472.869539 C648.428784,473.190739 648.549112,473.523021 648.639096,473.866387 C648.901993,474.879849 649.029691,479.610641 649.03332,485.019408 L649.033023,485.778214 C649.032289,486.28661 649.030486,486.79965 649.027623,487.314886 L649.021357,488.240373 L649.018115,488.622571 L649.018115,488.622571 L649.006092,489.768574 C648.925175,496.506903 648.665927,502.959482 648.248293,503.679913 C644.17233,503.790796 640.079102,503.73308 636,503.746882 C636.420623,503.105738 636.61524,502.490158 636.659185,501.730132 C637.409401,488.675755 636.693714,475.159027 636.704701,462.063089 C636.715687,448.936568 637.472181,435.356007 636.610531,422.277478 C641.463392,422.001604 646.407282,422.161263 651.26956,422.144168 C660.981559,422.109978 672.43726,420.987191 681.337833,425.603807 Z M415.072925,467.64038 C415.509139,468.557294 415.757143,473.573806 415.824424,478.920094 L415.83248,479.650824 C415.833636,479.772835 415.834699,479.894927 415.835669,480.017058 L415.841363,480.973726 C415.863494,486.549581 415.691745,491.962615 415.334504,492.990493 C415.242555,493.252738 415.128411,493.498207 415,493.74336 C422.558057,493.74523 438.954957,495.271148 445.155179,490.859803 L445.438273,490.648644 L445.752168,490.03505 C447.736997,488.923554 448.911724,487.013928 449.52366,484.860573 C450.44315,481.618196 450.018282,477.612981 448.363201,474.666401 C446.460809,471.278737 443.080892,469.083125 439.385496,468.073393 C434.764268,466.810438 419.735371,466.656604 415.072925,467.64038 Z M506.475313,432.193049 C499.759959,433.866727 494.385469,437.092818 490.737875,443.203836 C485.445318,452.075347 484.961599,465.077546 487.444799,474.897507 C489.080307,481.362512 492.828742,487.510733 498.645985,490.961152 C503.199569,493.66117 508.703261,494.445133 513.909157,493.772305 C520.033649,492.85726 525.034713,489.820036 528.729576,484.805965 C534.783164,476.591925 535.890835,465.34177 534.41289,455.485397 C533.322551,448.216798 529.975903,440.815376 523.972735,436.35429 C518.70854,432.441282 512.820394,431.542384 506.475313,432.193049 Z M720.483955,432.268773 C720.783849,434.396594 720.955538,446.354612 720.963308,459.063361 L720.96337,460.761513 L720.96147,462.46378 L720.957589,464.165379 C720.953562,465.569039 720.947489,466.967124 720.939324,468.347512 L720.933569,469.265015 C720.854719,481.155018 720.617874,491.513406 720.191995,492.449312 C720.169781,492.496279 720.15074,492.543876 720.128526,492.590685 C720.076163,492.70227 720.069816,492.706525 720,492.826148 C730.499447,492.851365 745.00382,494.573366 753.102532,486.616634 C753.510324,486.21537 753.840365,485.920332 753.959371,485.338766 C757.377205,483.374682 759.403469,478.486378 760.395181,474.822199 C762.96887,465.308321 762.716579,452.493861 757.65171,443.769273 C754.444912,438.24566 749.568866,434.89291 743.459924,433.291004 C736.256133,431.402098 727.889262,432.091939 720.483955,432.268773 Z M587.347121,438 C587.241142,438.822214 586.448359,441.423024 585.308959,444.842836 L585.040023,445.646125 C584.140743,448.319792 583.058681,451.418508 581.940385,454.528892 L581.660141,455.306492 C581.426116,455.954296 581.191049,456.601111 580.956264,457.243199 L580.674743,458.011197 C578.09693,465.025994 575.617436,471.28795 575,471.821913 C579.226971,471.974409 583.455547,472.028968 587.685728,471.98559 C591.761851,471.970838 595.919817,471.781226 599.986311,471.9536 C600.197004,470.610712 597.944932,463.605368 595.34307,456.289019 L594.830133,454.855075 C594.772775,454.695637 594.715316,454.536217 594.657778,454.37687 L594.311786,453.422102 C591.819031,446.567736 589.260989,440.053971 588.382195,438.299118 L588.332452,438.201413 L587.347121,438 Z M648.100382,432.564618 C648.493619,433.560702 648.718606,439.633649 648.768448,445.943472 L648.774491,446.86799 L648.776207,447.237989 L648.776207,447.237989 L648.778435,447.977129 C648.790785,454.374319 648.622064,460.480642 648.265072,461.240499 C648.191354,461.398104 648.100382,461.537643 648,461.679362 C654.855803,461.757385 670.448009,463.305084 675.558099,458.825042 C675.730632,458.673979 675.846699,458.4804 675.942376,458.275608 C678.19,457.083764 679.510655,455.039892 680.249407,452.658541 C681.48066,448.688844 681.235978,443.342913 679.226762,439.650737 C677.454385,436.396021 674.359785,434.237839 670.826011,433.210297 C665.50104,431.662909 653.561811,431.776285 648.100382,432.564618 Z M416.026792,432.099393 C414.219956,438.079085 417.449975,452.466547 415,456.758305 C421.226024,456.818229 437.619681,458.132993 441.900371,453.941573 C442.138098,453.709826 442.323823,453.444065 442.457545,453.144291 C444.563663,452.035621 445.786263,450.096069 446.459647,447.897621 C447.382965,444.880678 447.148952,440.890862 445.557025,438.109589 C444.003305,435.391646 441.220618,433.748461 438.19755,432.939566 C431.105518,431.041048 423.263689,432.712568 416.026792,432.099393 Z"/></svg>