<svg xmlns="http://www.w3.org/2000/svg" width="932" height="932" viewBox="0 0 932 932"><g fill="none" fill-rule="evenodd"><line x1="175.261" x2="175.261" y1="378.325" y2="378.586" stroke="red" stroke-width=".5"/><g fill-rule="nonzero" stroke="#FFF" stroke-width="5" transform="translate(274 181)"><polyline points="305.308 570 342.845 396.363 346 317.726 338.879 265.77 318.969 225.639 309.813 211.77 304 209.204 316.498 201"/><polyline points="239 570 295.824 462.261 343 389"/><polyline points="300 330 286.871 363.093 198.939 496.54 149 570"/><polyline points="339 267.284 283.473 289.412 257.924 310 199 282.799 266.785 254.271 319.949 228"/><polyline points="308 215 193 266.753 210.342 275"/><polyline points="256 239 255.114 220.682 217.017 234.716 193.525 227.994 208.466 197.977 185.658 204.727 158 184.267 181.746 161"/><polyline points="283.281 104.144 274.695 171.629 263 223 290.297 192.695 310.52 122.031 312 102"/><polyline points="276 156 268.494 121.002 276 82 264 117.443"/><polyline points="302.013 209.029 282 208.04 299.589 188.775 314.665 143 315.774 211 334.354 183.771 346 152.126"/><polyline points="353.053 124.901 347.59 196.137 348.328 217 365.456 162.095 369.295 203.716 374.424 175.968 376.53 140.103 381.846 189.4 386 132.797 381.846 64.126 348.328 16.861 303.997 0 241.425 12.009 202.297 34.206 180.618 66.308 167.532 107.484 158 139.955 161.941 145.933 173.356 106.264 178.672 130.657 181.92 121.949 198.901 96.315 198.901 108.96"/><polyline points="181 123 193.961 62.668 196 60"/><line x1="205" x2="198" y1="79" y2="96"/><polyline points="201 101.208 232.368 58.194 213.459 104.466 223.681 136 242.336 107.895 239.697 89.109 246 51"/><polyline points="243.984 109 245.901 121.739 246.056 122.765 261.673 115.883 269 153.997 262.191 174.127 239.839 185 224 165.947 224 148.594 243.539 124.566"/><polyline points="198.758 111.493 213 142.339 206.976 170.047 192.311 176 176 154.98 183.708 129.844 197.143 110"/><polyline points="232 301 166.296 408.041 100 570"/><polyline points="168.304 410.76 39.438 466 17 420.208 68.661 302 145.344 341.353 108.307 382.26 56.445 417.204 120.028 379.319 226 308.032"/><polyline points="102.041 315 176 306.492 169.315 268.633 106.109 300.771 119.791 250.472 98.676 222 86.643 244.003 27.164 276.961 24 295.05 82.027 269.674 72.705 298.412"/><polyline points="27 275 109.746 236.236 126.368 214.018 145.998 206 165.792 215.97 173 233.288 159.908 251.565 141.903 260.116 122.985 252.449 79.302 268.501"/><polyline points="44.626 189 41 175 53 187.07"/><line x1="52" x2="45" y1="172" y2="170"/><line x1="43" x2="64" y1="167.5" y2="167.5"/><line x1="44" x2="57" y1="165" y2="153"/><polyline points="50 154 40 163 42.665 157.782"/><line x1="38.341" x2="38.659" y1="160" y2="138"/><line x1="38" x2="40" y1="176" y2="185"/><polyline points="23.597 187 33 176.077 31.657 175 13 189"/><line x1="34" x2="32" y1="159" y2="151"/><line x1="33" x2="26" y1="163" y2="151"/><line x1="30" y1="168" y2="164"/><polyline points="165.105 242.803 142.073 210 130.411 212.648 157.917 250.026 148.748 256 122.709 221.915 112 237.213 162.318 213.863 167.532 219.856 118.435 246.334 127.99 253.718 172 230.006"/></g></g></svg>