<svg xmlns="http://www.w3.org/2000/svg" width="932" height="932" viewBox="0 0 932 932"><path fill="none" stroke="#FFF" stroke-width="5" d="M317.765639,262.323048 C322.848504,262.043516 327.93424,261.945392 333.022848,262.028677 C338.112413,262.111005 343.192886,262.374742 348.264266,262.819888 C353.33469,263.265033 358.383102,263.889673 363.409502,264.693807 C368.434944,265.498898 373.425933,266.481569 378.382469,267.641819 C434.234651,280.911465 478.56497,317.29709 505.852234,367.407558 C516.468254,386.903498 524.447138,408.103915 533.14524,428.526045 L572.841548,520.928215 C580.818995,539.370165 588.209296,558.716766 598.789427,575.834767 C610.034226,594.025426 624.89809,606.686227 646.03969,611.555545 C670.287858,617.139968 698.86139,614.483454 720.104915,601.027135 C734.815174,591.709233 745.699645,577.483242 749.521125,560.37242 C753.298103,543.45976 750.724131,524.064337 737.739424,511.673495 C724.710215,499.241009 704.908,493.260263 688.236756,487.560964 C649.284072,474.246803 597.498852,458.171304 574.281422,421.397972 C559.904215,398.62375 557.729331,367.716288 563.676886,341.81456 C569.30431,317.307142 583.556622,296.172779 605.011176,282.850003 C631.46294,266.425567 668.278064,262.182324 698.361813,269.195521 C722.792297,274.889077 742.796928,288.980088 757.695246,308.972868 C761.610038,314.225586 765.008026,319.811445 768.482099,325.358533 C753.879508,332.509581 739.351566,340.059824 725.034653,347.768023 C717.083046,335.499236 704.797461,324.521372 691.007401,319.439533 C675.813357,313.837878 657.094994,314.135121 642.364638,321.043493 C641.616229,321.387164 640.87739,321.749503 640.148122,322.13051 C639.417897,322.511516 638.69772,322.910232 637.987593,323.326659 C637.277466,323.743085 636.578344,324.177222 635.890229,324.629069 C635.201157,325.080915 634.524526,325.549515 633.860337,326.034867 C633.195191,326.520219 632.542486,327.021846 631.902223,327.539746 C631.26196,328.057647 630.635096,328.590864 630.02163,329.139398 C629.408164,329.68889 628.809054,330.25322 628.2243,330.832387 C627.638588,331.411555 627.067711,332.004604 626.511668,332.611534 C625.956582,333.219421 625.41633,333.84071 624.890912,334.475401 C624.366452,335.110093 623.858261,335.757229 623.36634,336.416811 C622.873462,337.076392 622.397332,337.747939 621.93795,338.431453 C621.479526,339.114967 621.03785,339.809969 620.612922,340.516458 C620.188951,341.221989 619.782685,341.937573 619.394125,342.663208 C619.005565,343.388843 618.635188,344.124051 618.282996,344.868833 C617.930803,345.613614 617.597752,346.366532 617.283841,347.127587 C616.968973,347.888643 616.673725,348.656878 616.398096,349.432293 C612.05694,361.705387 611.973678,377.057165 617.67288,388.923885 C628.354936,411.166804 659.400515,419.117678 681.034515,426.08636 C692.762143,429.758572 704.42517,433.626552 716.023597,437.6903 C747.631919,448.989818 781.172514,465.150038 796.164143,497.164621 C808.425324,523.347796 808.992373,560.323598 799.152995,587.384141 C787.84216,618.495508 764.023226,640.866227 734.499349,654.55948 C698.17806,671.40465 651.793444,671.871335 614.467258,658.202494 C557.452266,634.851018 540.364708,582.705804 517.60953,530.451458 L479.493782,443.148359 L466.89955,414.228257 C358.530008,249.387727 229.540839,356.488568 228.662559,357.307061 C227.784183,358.125555 226.915952,358.954579 226.057865,359.794133 C225.199779,360.633687 203.174348,390.68201 195.370747,416.306599 C187.567147,441.931189 187.075944,496.460046 188.064571,497.164621 C189.053198,497.869195 203.945247,602.553553 307.844433,605.883529 C411.743618,609.213505 455.108757,541.827081 455.707867,540.796067 C456.307934,539.765052 456.89556,538.727336 457.470744,537.68292 C458.045928,536.637545 458.608192,535.58547 459.157536,534.526694 C462.11624,542.85666 466.155926,551.053082 469.660146,559.184887 C474.871256,571.275615 479.845496,583.560197 485.435596,595.475739 C476.960006,605.099499 468.429865,614.191956 458.63786,622.510434 C456.614667,624.222091 406.965104,662.129197 333.022848,662.129197 C259.080592,662.129197 215.118498,638.82757 195.370747,625.191558 C175.622996,611.555545 135.043805,563.371234 131.038307,492.938245 C127.03281,422.505257 148.707085,369.741124 164.542944,346.366532 C180.378803,322.99194 223.398611,264.693807 317.765639,262.323048 Z"/></svg>