<svg xmlns="http://www.w3.org/2000/svg" width="932" height="932" viewBox="0 0 932 932"><path d="M563.109756 273.053094C589.930455 273.053094 605.31938 291.020322 605.31938 321.696075L605.31938 328.269451 581.356625 328.269451 581.356625 323.229863C581.356625 305.262636 574.981213 295.840797 562.889914 295.840797 556.954186 295.621685 551.458141 298.68926 548.600198 303.947961 545.962096 309.206661 545.082729 313.588912 545.082729 326.516551L545.082729 374.502194C544.643045 383.047583 545.522413 391.812084 547.720831 400.13836 548.82004 403.64416 551.018457 406.711736 553.876401 408.683748 556.734344 410.874874 560.251813 411.970436 563.989123 411.751324 576.520105 411.751324 582.01615 402.548598 582.01615 380.637345L582.01615 366.614143 562.230389 366.614143 562.230389 346.674903 605.978906 346.674903 605.978906 432.567014 593.667765 432.567014 589.270929 419.20115C583.335201 429.499439 572.12327 435.415477 560.251813 434.977252 546.841463 435.415477 534.530323 428.403876 528.154911 416.571799 523.09855 406.492623 521.339815 396.413447 521.339815 374.721307L521.339815 331.337027C521.339815 306.358198 523.09855 297.374585 530.353329 287.733634 538.267633 277.87357 550.578774 272.395757 563.109756 273.053094ZM363.273566 273.053094C378.222808 273.053094 389.874423 278.311795 396.909361 288.171859 403.284773 297.155472 405.703032 307.672874 405.703032 325.420988L405.703032 382.609358C405.703032 400.357472 403.064931 410.874874 396.909361 419.858487 389.874423 429.718551 378.222808 434.977252 363.273566 434.977252 348.324324 434.977252 336.672709 429.718551 329.637772 419.858487 323.26236 410.874874 320.8441 400.357472 320.8441 382.609358L320.8441 325.420988C320.8441 307.672874 323.482202 297.155472 329.637772 288.171859 336.672709 278.311795 348.324324 273.053094 363.273566 273.053094ZM445.714239 275.463332 445.714239 385.896046C445.714239 404.52061 450.550758 411.970436 462.861898 411.970436 475.173039 411.970436 479.789717 404.52061 479.789717 385.896046L479.789717 275.463332 503.752472 275.463332 503.752472 381.95202C503.752472 401.672148 501.334212 411.751324 494.9588 420.734937 487.044496 430.375889 475.173039 435.634589 462.861898 434.758139 450.330916 435.415477 438.459459 430.156776 430.545155 420.734937 423.730059 411.532211 421.751483 401.672148 421.751483 381.95202L421.751483 275.463332 445.714239 275.463332ZM651.046473 275.682445 651.046473 342.94999 685.341793 342.94999 685.341793 275.682445 709.304548 275.682445 709.304548 432.786126 685.341793 432.786126 685.341793 365.299468 651.266315 365.080356 651.266315 432.567014 627.083718 432.567014 627.083718 275.682445 651.046473 275.682445ZM244.998682 275.463332 244.998682 342.730878 279.294001 342.730878 279.294001 275.463332 303.256757 275.463332 303.256757 432.567014 279.294001 432.567014 279.294001 365.080356 244.998682 365.080356 244.998682 432.567014 221.035926 432.567014 221.035926 275.463332 244.998682 275.463332ZM209.164469 275.24422 209.164469 297.593697 182.563612 297.593697 182.563612 432.347901 158.381015 432.347901 158.381015 297.593697 132 297.593697 132 275.24422 209.164469 275.24422ZM799 275.463332 799 297.81281 772.399143 297.81281 772.399143 432.347901 748.216546 432.347901 748.216546 297.81281 721.835531 297.81281 721.835531 275.463332 799 275.463332ZM354.690476 298.298113C352.047619 299.830189 349.625 302.018868 348.083333 304.426415 345.660714 309.022642 345 313.4 345 325.875472L345 382.124528C345 394.6 345.660714 398.539623 348.083333 403.573585 349.625 406.2 352.047619 408.388679 354.690476 409.701887 360.196429 412.766038 366.803571 412.766038 372.309524 409.701887 374.952381 408.169811 377.375 405.981132 378.916667 403.573585 381.519481 398.615895 381.986147 394.93192 381.999691 382.695399L382 325.875472C382 313.181132 381.559524 309.460377 378.916667 304.426415 377.375 301.8 374.952381 299.611321 372.309524 298.298113 366.803571 295.233962 360.196429 295.233962 354.690476 298.298113ZM748.560487 484.293654C777.466714 484.293654 794.052255 503.676479 794.052255 536.769108L794.052255 543.860386 768.226199 543.860386 768.226199 538.42374C768.226199 519.040914 761.355047 508.876749 748.32355 508.876749 741.926271 508.640373 736.002863 511.949636 732.922691 517.622658 730.079456 523.295681 729.131711 528.023199 729.131711 541.969378L729.131711 593.735705C728.657838 602.954366 729.605583 612.409403 731.974946 621.391688 733.159628 625.173703 735.528991 628.482966 738.609162 630.610349 741.689334 632.974108 745.480315 634.155988 749.508232 633.919612 763.013601 633.919612 768.937008 623.991823 768.937008 600.354231L768.937008 585.226172 747.612742 585.226172 747.612742 563.715963 795 563.715963 795 656.375324 781.731568 656.375324 776.992842 641.956393C770.358626 653.066061 758.511811 659.448211 745.480315 658.975459 731.027201 659.448211 717.758769 651.884182 710.887616 639.119882 705.438082 628.24659 703.542591 617.373297 703.542591 593.972081L703.542591 547.169649C703.542591 520.222794 705.675018 510.531381 713.256979 500.13084 721.786686 489.493924 735.055118 483.584526 748.560487 484.293654ZM642.649964 484.293654C658.761632 484.293654 671.319256 489.966676 678.901217 500.603592 685.772369 510.295005 688.378669 521.641049 688.378669 540.787499L688.378669 602.481614C688.378669 621.628064 685.535433 632.974108 678.901217 642.665521 671.319256 653.302437 658.761632 658.975459 642.649964 658.975459 626.538296 658.975459 613.980673 653.302437 606.398712 642.665521 599.527559 632.974108 596.92126 621.628064 596.92126 602.481614L596.92126 540.787499C596.92126 521.641049 599.764495 510.295005 606.398712 500.603592 613.980673 489.966676 626.538296 484.293654 642.649964 484.293654ZM178.017895 484.057278C206.687187 484.057278 223.509664 503.440103 223.509664 536.532732L223.509664 547.878776 197.920544 547.878776 197.920544 538.42374C197.920544 518.804538 191.049392 508.876749 178.254832 508.876749 171.857552 508.403997 165.934145 511.71326 162.853973 517.149907 159.585646 522.739502 158.847526 527.640673 158.826523 540.897426L158.826056 597.990472C158.352183 606.5 159.299928 615.009538 161.669291 623.046319 163.090909 626.355582 165.223336 629.192093 168.303508 631.083101 171.146743 632.974108 174.700787 633.919612 178.254832 633.919612 191.7602 633.919612 198.394417 623.046319 198.394417 600.826983L198.394417 590.426442 224.457409 590.426442 224.457409 602.71799C224.457409 639.592634 208.582677 658.739083 178.491768 658.739083 161.669291 658.739083 148.400859 652.120558 141.055834 639.82901 134.722527 629.532475 133.033645 619.699284 133.000501 595.191985L133 546.933273C133 519.986418 134.89549 510.531381 142.714388 499.894464 151.244094 489.257548 164.512527 483.34815 178.017895 484.057278ZM412.110952 486.657413 412.110952 510.767757 383.204724 510.767757 383.441661 656.138948 357.615605 656.138948 357.615605 510.767757 328.946314 510.767757 328.946314 486.657413 412.110952 486.657413ZM551.666428 486.657413 551.666428 632.028604 587.680744 632.028604 587.680744 656.138948 525.840372 656.138948 525.840372 486.657413 551.666428 486.657413ZM299.092341 486.657413 332.97423 656.138948 306.437366 656.138948 301.461704 628.955717 261.893343 628.955717 257.154617 656.138948 231.565497 656.138948 263.788833 486.657413 299.092341 486.657413ZM476.320687 486.657413 510.202577 656.138948 483.665712 656.138948 478.453114 628.955717 438.884753 628.955717 434.146027 656.138948 408.793844 656.138948 441.01718 486.657413 476.320687 486.657413ZM634.47619 511.476415C631.619048 513.127358 629 515.485849 627.333333 518.080189 624.714286 523.033019 624 527.75 624 541.193396L624 601.806604C624 615.25 624.714286 619.495283 627.333333 624.919811 629 627.75 631.619048 630.108491 634.47619 631.523585 640.428571 634.825472 647.571429 634.825472 653.52381 631.523585 656.380952 629.872642 659 627.514151 660.666667 624.919811 663.482993 619.572776 663.985909 615.600693 663.999703 602.386969L664 541.193396C664 527.514151 663.52381 523.504717 660.666667 518.080189 659 515.25 656.380952 512.891509 653.52381 511.476415 647.571429 508.174528 640.428571 508.174528 634.47619 511.476415ZM281.379845 520 266 604 297 604 281.379845 520ZM459.379845 520 444 604 475 604 459.379845 520Z"/></svg>