<svg xmlns="http://www.w3.org/2000/svg" width="932" height="932" viewBox="0 0 932 932"><path fill="none" stroke="#FFF" stroke-linejoin="round" stroke-width="5" d="M708.550268,371.038948 C708.921998,375.790943 708.921998,380.542945 708.921998,385.338745 C708.921998,531.468254 583.031276,700 352.834652,700 L352.834652,699.912437 C284.833848,700 218.245588,682.787701 161,650.33394 C170.887876,651.385088 180.825313,651.910662 190.787532,651.932549 C247.140974,651.973601 301.8836,635.26771 346.217974,604.500128 C292.664828,603.602285 245.703638,572.747124 229.298198,527.701723 C248.057901,530.898923 267.387577,530.241972 285.800318,525.796546 C227.414776,515.372804 185.409912,470.042646 185.409912,417.398367 L185.409912,415.996845 C202.806624,424.559234 222.284977,429.311228 242.209421,429.83681 C187.218966,397.361129 170.268331,332.716392 203.47573,282.174375 C267.015855,351.264539 360.764784,393.266094 461.403019,397.71152 C451.316887,359.301337 465.095474,319.051659 497.608989,292.050649 C548.014828,250.180495 627.291277,252.326556 674.673781,296.846449 C702.701805,291.963062 729.565095,282.875132 754.148478,269.998744 C744.805806,295.59824 725.253103,317.343577 699.133257,331.161589 C723.939666,328.577567 748.176115,322.708724 771,313.752196 C754.198046,336.001198 733.03454,355.381469 708.550268,371.039006 L708.550268,371.038948 Z"/></svg>