<svg xmlns="http://www.w3.org/2000/svg" width="64" height="64" viewBox="0 0 64 64" fill="none">
  <rect width="64" height="64" rx="8" fill="#121212"/>
  <path d="M32 10C26 10 20 16 20 25C20 30 23 35 28 38C25 41 22 45 22 52C22 58 27 62 32 62C37 62 42 58 42 52C42 46 39 41 34 41C32 41 30 42 28 43C27 39 30 35 34 32C39 36 44 34 44 27C44 17 38 10 32 10ZM32 18C35 18 36 21 36 25C36 29 35 32 32 32C29 32 28 29 28 25C28 21 29 18 32 18ZM32 47C34 47 36 48 36 51C36 54 34 55 32 55C30 55 28 54 28 51C28 48 30 47 32 47Z" fill="#f5f5f5"/>
</svg> 