<?xml version="1.0" encoding="UTF-8"?>
<!DOCTYPE svg PUBLIC "-//W3C//DTD SVG 1.1//EN" "http://www.w3.org/Graphics/SVG/1.1/DTD/svg11.dtd">
<!-- Creator: CorelDRAW 2020 (64-Bit) -->
<svg xmlns="http://www.w3.org/2000/svg" xml:space="preserve" width="104.893mm" height="80mm" version="1.1" style="shape-rendering:geometricPrecision; text-rendering:geometricPrecision; image-rendering:optimizeQuality; fill-rule:evenodd; clip-rule:evenodd"
viewBox="0 0 34.0453 25.9657"
 xmlns:xlink="http://www.w3.org/1999/xlink"
 xmlns:xodm="http://www.corel.com/coreldraw/odm/2003">
 <defs>
  <style type="text/css">
   <![CDATA[
    .fil1 {fill:#FEFEFE}
    .fil0 {fill:#2B2A29}
   ]]>
  </style>
 </defs>
 <g id="Слой_x0020_1">
  <metadata id="CorelCorpID_0Corel-Layer"/>
  <path class="fil0" d="M6.6754 0.0238c2.3389,0.2214 5.0709,1.9004 6.2576,3.9463 0.1192,0.2055 0.1854,0.4007 0.3091,0.587l0.3081 -0.329c0.3763,-0.376 0.6839,-0.9531 0.9438,-0.6585 0.4995,0.5663 -0.0156,2.3208 -0.3351,2.9249 -0.13,0.246 -0.147,0.1326 -0.126,0.4721 0.0291,0.4699 -0.1528,1.018 -0.4969,1.3443 -0.1038,0.0984 -0.2216,0.1575 -0.3469,0.2534 -0.0957,0.0733 -0.2683,0.366 -0.3205,0.4954 0.4101,-0.0717 0.9096,0.1074 0.6166,0.5425 -0.1749,0.2597 -0.5787,0.271 -0.9823,0.2659 -0.128,0.198 -0.104,0.2101 -0.3085,0.3508 -0.4174,0.2872 -0.9649,0.4013 -1.4967,0.4125 0.57,0.661 0.7658,0.4058 1.1897,1.5131 0.2186,0.5712 0.4775,1.4396 0.5736,2.0885 0.1226,0.8279 0.2762,0.5333 0.3564,0.9791 0.0403,0.2238 -0.0094,0.3857 -0.0782,0.5693 -0.1123,0.2997 -0.0377,0.2546 0.0273,0.5341 0.0861,0.3708 0.0846,0.8723 0.0292,1.2471 -0.0811,0.5486 -0.2506,0.6684 -0.5663,1.0051 -0.1119,0.1193 -0.153,0.0867 -0.0745,0.2672 0.1121,0.4147 -0.1131,0.4657 -0.1836,0.7419 0.1169,0.3632 0.4432,0.1526 0.2154,0.8124 0.1969,0.1045 0.3608,0.1158 0.7949,0.3234 0.208,0.0994 0.5541,0.2407 0.6869,0.4438 0.0233,0.0357 0.054,0.0457 0.3458,0.1661 0.2228,0.092 0.4113,0.2201 0.5738,0.3444 0.8254,0.6308 0.7647,1.1513 0.9555,1.3414 0.308,0.3069 0.039,0.7196 -0.1879,0.8931 -1.1724,0.8959 -3.0521,0.2883 -4.5411,-0.0155 -0.29,-0.0592 -1.2849,-0.3595 -1.4478,-0.352 -0.2908,0.4902 -0.7224,0.8785 -1.0783,1.1817 -0.901,0.7678 -1.9445,1.2188 -3.1951,1.2431 -0.8621,0.0168 -2.4274,0.0835 -2.3676,-0.9746 0.0144,-0.2551 0.065,-0.2636 0.1571,-0.4093 0.1375,-0.2175 0.0135,-0.7629 0.9895,-1.7681 0.3164,-0.3656 0.5438,-0.7846 0.9203,-1.0788 0.5893,-0.4605 0.7583,-0.6411 1.4427,-1.0206 -0.0867,-0.3134 -0.1699,-0.4555 -0.1185,-0.8459 0.0235,-0.1782 0.076,-0.2442 0.1165,-0.3783 0.0408,-0.1348 0.015,-0.2579 0.0526,-0.4102 0.1603,-0.6487 0.8798,-0.5907 1.1823,-0.6031l0.4989 -1.5066c-0.7916,0.02 -1.122,-0.1141 -1.5078,-0.6937 -0.0867,-0.1303 -0.1455,-0.2029 -0.155,-0.4049 -0.008,-0.1692 -0.0391,-0.3699 -0.0227,-0.5277 0.0242,-0.2326 0.0675,-0.2365 0.1624,-0.3778 0.0581,-0.0866 0.1151,-0.2948 0.1563,-0.4115 0.1346,-0.2069 0.1189,-0.2037 0.1806,-0.3743 -0.2254,-0.009 -0.3775,-0.2446 -0.5015,-0.4088 -0.0791,0.2006 -0.3239,0.5226 -0.5457,0.6431 -0.3397,-0.5387 0.3006,-2.2055 0.2932,-2.4576 -0.0064,-0.2134 0.0093,-0.3927 0.1747,-0.5328 0.106,-0.0898 0.5091,-0.3981 0.6291,-0.4497 -1.1311,0.3066 -2.8963,1.2476 -3.6805,2.1809 -0.1676,0.1995 -0.2863,0.4457 -0.3882,0.4217 -0.1919,-0.1255 -0.264,-1.4092 -0.2657,-1.7282 -0.0048,-0.887 0.3451,-2.3298 0.7357,-3.1299 0.3898,-0.7984 0.7929,-1.0205 0.8808,-1.2144 -0.3892,-0.3737 -1.5432,-0.2995 -2.1339,-0.2187 -0.2916,0.0399 -1.9084,0.4851 -1.951,0.4386 -0.1717,-0.3571 0.4933,-1.6827 0.6409,-1.9586 0.6196,-1.1586 1.4742,-2.0537 2.7004,-2.563 1.0142,-0.4213 1.2883,-0.3291 2.2073,-0.4066 -0.3158,-0.4756 -1.2656,-1.5515 -1.7351,-1.8811 -0.297,-0.2085 -0.4378,-0.3476 0.3624,-0.6195 0.7169,-0.2437 1.708,-0.3367 2.4715,-0.2645zm3.1432 18.0959c0.2514,-0.9793 0.1316,-0.6202 -0.1283,-0.9846 -0.0599,-0.0841 -0.114,-0.1916 -0.1819,-0.2902 -0.0644,0.1604 -0.4464,1.505 -0.5272,1.7639 0.1268,-0.1506 0.1548,-0.2235 0.3559,-0.3332 0.1436,-0.0784 0.292,-0.1188 0.4815,-0.1559zm-1.0864 -13.9147c-0.154,0.0421 -0.1745,0.0587 -0.0766,-0.0278 0.6477,-0.979 2.1241,0.1291 2.6081,0.8203 0.2394,0.342 0.3346,0.4909 0.2581,0.5178 -0.0248,-0.1825 -1.0245,-1.3242 -1.7458,-1.5418 -0.3934,-0.1187 -0.8828,-0.0322 -1.0438,0.2315zm5.2482 2.3886c0.3248,-0.5285 0.6799,-2.0631 0.5257,-2.6808 -0.0361,-0.1444 -0.065,-0.2908 -0.2234,-0.3049 -0.1935,0.1816 -0.7724,1.028 -1.0037,1.048 0.0962,0.6968 0.0857,0.6104 0.0497,1.2927 -0.0366,-1.0613 -0.3594,-1.7975 -1.0481,-2.6358 -2.0213,-2.4602 -5.4249,-3.9607 -8.4938,-2.7285 0.2066,0.2332 3.1311,1.485 2.9341,2.4984 -1.3531,-0.1053 -2.3068,-0.1334 -3.5875,0.4587 -1.7365,0.8028 -2.5338,2.2004 -2.9526,3.9973 0.5264,-0.1393 1.0941,-0.5813 1.9422,-0.7807 1.2188,-0.2865 2.618,-0.3517 2.8019,0.1389 -1.0481,1.2339 -1.5426,1.2555 -2.015,3.1476 -0.2028,0.8123 -0.4122,2.4522 -0.0574,3.2072 0.5145,-1.7259 2.6349,-3.7948 4.341,-4.2992 -0.029,-0.539 -0.0012,-1.5369 0.725,-1.5438 0.2874,-0.0027 0.3606,0.098 0.5659,0.1567 -0.1169,-0.8332 -0.1988,-1.4829 0.0819,-2.2456 0.6186,-1.6805 2.8562,-0.7353 2.9285,1.7886 0.0111,0.3874 -0.1117,1.374 0.3448,1.6264 0.4642,-0.0135 0.5722,-0.7591 0.4675,-1.2239 0.0118,-0.0922 -0.0364,-0.0643 0.0447,-0.0678 0.2236,0.3725 0.1161,0.7155 0.0075,1.0881 0.638,-0.2908 0.5061,-1.2919 0.8683,-1.3293 0.193,-0.0198 0.209,0.1627 0.181,0.2373 -0.0047,-0.0664 -0.0614,-0.1067 -0.1556,-0.1132 -0.0644,-0.0044 -0.0663,-0.0107 -0.0845,0.0451 -0.0881,0.2689 0.0446,0.1496 0.071,0.4445 0.0203,0.2266 -0.0329,0.4076 -0.0553,0.6282 0.4918,-0.1437 1.0139,-1.3849 0.5545,-1.9711 -0.1468,-0.2912 -0.3689,-0.1234 -0.5528,-0.0022 0.0258,-0.1487 0.0804,-0.1588 0.1462,-0.2513 0.106,-0.1252 0.5752,0.0009 0.6484,0.3744zm-5.8745 10.4399c-0.2358,0.7004 -0.465,1.4759 -0.7184,2.1514 -0.1324,0.3531 -0.1299,0.3495 -0.03,0.3892 0.0704,0.028 0.7254,0.1209 0.8594,0.1469 0.4258,-1.1236 0.8982,-2.2528 1.1753,-3.4197 0.1728,-0.1312 0.5447,-0.5243 0.6017,-0.583 0.1621,-0.1668 0.2955,-0.4219 0.3635,-0.5959 0.0187,-0.0478 0.036,-0.0908 0.0521,-0.1398l-0.1605 -0.0687c0.1799,-0.0963 0.6078,-0.2912 0.6714,-0.1055l-0.1314 0.0245c-0.078,0.1703 0.0184,-0.0588 0.0266,0.4699 0.0031,0.1953 0.0037,0.3935 -0.0144,0.5872 -0.0737,0.7898 -0.1261,1.3506 -0.2538,2.1444 -0.0423,0.2627 -0.177,0.8317 -0.1563,1.0545 0.2045,0.0559 0.4416,0.1508 0.6248,0.0859l0.0542 -0.0344c0,-0.1517 0.0414,-0.3135 0.0547,-0.4845 0.045,-0.5799 0.2119,-2.1239 0.2861,-3.0096 0.0546,-0.6511 0.1422,-1.2918 0.1193,-1.9483 -0.0569,0.0386 -0.0201,0.0125 -0.0677,0.057 -0.2797,0.2611 -0.5805,0.32 -0.9481,0.1181 -0.6774,-0.372 -1.1435,-1.3593 -1.2057,-2.1007 -0.0333,-0.398 -0.026,-0.7547 0.3192,-1.0124 0.1431,-0.1068 0.2873,-0.1449 0.5034,-0.1731 -0.481,-0.1518 -0.7328,-0.1884 -1.2992,-0.184 0.1494,0.3627 0.0171,0.4909 -0.2217,0.6825 -0.134,0.1076 -0.4,0.2929 -0.6147,0.3742 -0.1582,0.0251 -0.5328,0.229 -0.6517,0.3022 -0.1688,0.104 -0.2652,0.1424 -0.1844,0.3782 0.313,-0.0928 0.2153,-0.1015 0.4543,-0.0979l0.3621 -0.4707c0.0122,0.3385 0.0433,0.4945 0.198,0.5998 0.0871,0.0593 0.1982,0.156 0.2497,0.2504 0.0345,0.0632 0.0631,0.1778 0.0754,0.4292 0.6837,0.047 0.8282,-0.0068 0.7451,0.7324 0.5068,0.108 0.7404,0.5642 0.8421,1.0943 0.0876,0.2973 0.1158,0.5327 -0.1056,0.8158 -0.1738,0.2223 -0.9437,0.9317 -1.2058,1.1593 -0.3039,0.2639 -0.5701,0.1999 -0.6688,0.3807zm-2.3343 -2.7594c0.1157,-0.0922 0.2085,-0.2615 0.3154,-0.4125 0.2567,-0.3624 0.4152,-0.6937 0.4029,-0.7829 -0.0118,-0.0856 -0.246,-0.4037 -0.3065,-0.5971 -0.0172,-0.055 -0.0906,-0.3657 -0.0974,-0.4274 -0.0609,0.2374 -0.0892,0.3647 -0.1728,0.6872 -0.101,0.3896 -0.2454,1.1698 -0.1417,1.5327zm4.2138 -10.9585c-0.1243,0.0698 -0.5482,0.1401 -0.7326,0.2159 -0.1928,0.0793 -0.4753,0.2905 -0.6566,0.2933 -0.0339,-0.2776 -0.3376,-2.3879 0.273,-1.9055 0.69,0.5451 0.9659,1.311 1.1162,1.3963zm-1.9347 0.7836c-0.5401,-0.0933 -0.8826,0.1423 -0.4507,-1.9722 0.0483,-0.2364 0.1275,-0.2471 0.1468,-0.3049 0.0177,-0.4414 0.1886,-0.8943 0.713,-0.7266 0.7449,0.2383 1.9702,1.7545 2.1069,2.4507 -0.129,-0.0705 -0.6602,-1.3126 -1.7379,-2.1154 -1.2489,-0.9302 -0.975,0.9623 -0.8582,1.8812 0.0345,0.2719 0.1377,0.5498 0.0801,0.7871zm6.7378 17.9455c-0.2466,-0.2527 -0.6108,-0.5287 -0.913,-0.6482 -0.515,-0.2034 -1.343,-0.1632 -1.8254,0.0904 -0.416,0.2186 -0.5372,0.3955 -0.7222,0.8027 -0.1805,0.3972 -0.3956,0.9766 -0.3036,1.1402 0.0896,0.0914 1.659,0.369 2.6364,0.4005 0.6967,0.0224 1.2661,-0.0574 1.7039,-0.5989 -0.0119,-0.4642 -0.2398,-0.8421 -0.5762,-1.1866zm-8.4942 -1.2324c-0.2398,0.082 -0.197,0.1314 -0.2273,0.1408 0.4513,0.1405 0.9827,0.2251 1.3385,0.5502 0.2739,0.2504 0.4281,0.4137 0.6265,0.7493 0.2637,0.4461 0.3892,0.8563 0.395,1.4855 0.1585,-0.0325 0.8072,-0.6753 0.8569,-0.8201 0.0461,-0.1342 -0.0485,-0.7168 -0.1083,-1.1394 -0.0154,-0.1084 0.0268,-0.2525 0.0564,-0.361 0.0214,0.1289 0.1132,0.6695 0.181,0.7496 0.0708,-0.289 0.1469,-0.5493 0.2748,-0.7843 0.2107,-0.3872 0.3751,-0.4533 0.471,-0.57 -0.1172,-0.0687 -0.3626,-0.075 -0.4882,-0.1003 -0.1666,-0.0335 -0.2225,-0.1068 -0.3823,-0.1547 0.056,0.606 -0.0678,0.5608 -0.0678,0.745 -0.3637,0.1365 -0.7218,0.2256 -1.1609,0.1866 -0.5128,-0.0455 -1.3377,-0.4004 -1.7652,-0.6772zm-0.481 2.2477c-0.2869,-0.1954 -0.7841,-0.4643 -1.2333,-0.4912 -0.4194,0.0154 -0.4889,0.1401 -0.679,0.3718 -0.4403,0.5365 -0.974,1.1307 -0.9045,1.9101 0.1133,0.2434 0.5061,0.4628 0.7511,0.516 0.6432,0.1397 1.678,-0.0239 2.3239,-0.2394 0.3284,-0.1095 0.7199,-0.2621 0.8332,-0.3586 -0.0204,-0.2868 -0.1562,-0.5845 -0.2712,-0.8489 -0.1211,-0.2785 -0.2882,-0.4972 -0.8201,-0.8597zm5.08 0.1104c0.0186,-0.2354 0.1655,-0.713 0.2739,-0.9428 0.3736,-0.7928 1.0656,-1.1382 1.9435,-1.087 0.2599,0.0323 0.391,0.081 0.4957,0.0255 -0.1488,-0.1255 -0.5953,-0.3816 -0.9374,-0.4975 -0.2968,-0.1007 -0.4833,-0.2142 -0.7701,-0.0452 -0.3144,0.1852 -0.8293,0.2348 -1.1887,0.2182 -0.3147,-0.0145 -0.3275,-0.0962 -0.5306,0.1123 -0.4904,0.5033 -0.7564,1.5335 -0.723,2.2142 -0.0352,-0.0086 -0.0699,-0.0167 -0.104,-0.0238 0.0013,-0.019 0.0024,-0.0385 0.0033,-0.0588 -0.1654,0.0644 -0.2179,0.2188 -0.3348,0.3468 -0.4513,0.4942 -1.1418,0.983 -1.7206,1.3188 -0.9189,0.4795 -3.4129,1.3155 -4.275,0.4254l-0.1951 -0.2083c0.0152,0.3333 0.0974,0.5618 0.4203,0.6891 0.6554,0.2584 2.1566,0.208 2.8563,0.0117 1.1381,-0.2733 1.9663,-0.9009 2.7161,-1.6562 0.3356,-0.338 0.4867,-0.4211 0.5254,-0.8184l0.088 0.2324c0.49,0.2629 3.8383,0.9032 4.6786,0.7851 0.7519,-0.1057 1.6624,-0.3956 1.3979,-1.0968 -0.0769,0.1235 -0.1112,0.2039 -0.1371,0.2634 -0.1401,0.3208 -0.9492,0.568 -1.2799,0.5671 -1.4945,0.066 -2.2018,-0.2192 -3.4165,-0.439 -0.3432,-0.0621 -0.7141,-0.1971 -1.0549,-0.2937 0.1582,0.0113 0.3068,-0.0124 0.4571,0.034 0.2298,0.071 0.4695,0.1279 0.7724,0.1408l0.0394 -0.2171zm-4.7013 -2.0994c-0.1332,-0.0233 -0.2272,-0.0484 -0.3087,-0.0297 -0.0438,0.0101 -0.2949,0.2043 -0.4053,0.2618 -0.3487,0.2483 -1.1472,0.834 -1.2389,1.2126 0.2591,0.0134 0.4265,-0.1113 1.033,0.0975 0.7183,0.2472 1.5941,0.9965 1.6829,1.804l0.0177 0.3122c0.2302,-0.0781 0.7703,-0.4581 0.9741,-0.6041 0.1229,-0.088 0.3751,-0.1973 0.3826,-0.3776 0.0218,-0.5226 -0.2886,-1.3126 -0.6044,-1.7156 -0.4149,-0.5296 -0.8628,-0.8421 -1.5329,-0.9611zm5.4764 -2.7305c0.1068,0.0766 0.2062,0.1164 0.3107,0.2025 0.2201,-0.0545 0.4717,-0.3737 0.5508,-0.5708 0.2246,-0.5589 0.1807,-1.7779 0.0491,-1.9275 -0.0963,-0.0576 -0.1781,-0.0702 -0.2881,-0.1339l-0.6333 -0.4171c0.0932,0.0152 0.2422,0.0207 0.2935,0.0512 0.1837,0.1092 0.4545,0.3476 0.6565,0.3493 0.026,-0.1983 -0.0831,-0.5153 -0.259,-0.6363 0.0221,-0.0888 0.0523,0.0003 0.1435,0.0958 0.0587,0.0615 0.1111,0.1184 0.1794,0.1958l0.0295 -0.1773c-0.0199,-0.3416 -0.1222,-0.4668 -0.373,-0.5942 -0.1572,-0.0798 -0.5606,-0.2832 -0.6881,-0.3195l-0.0554 0.7597c-0.0215,0.3012 -0.0562,0.5861 -0.0918,0.8965 -0.0922,0.8068 -0.2292,1.9966 -0.2113,2.1416l0.2756 0.0418c0.1077,-0.1091 0.1055,-0.2298 0.2254,-0.3151 -0.0353,0.2298 -0.0701,0.2078 -0.1141,0.3575zm-1.4131 -2.7622c-0.2542,0.2161 -0.5228,0.4391 -0.6262,0.7602 -0.0847,0.2629 -0.0742,0.2949 0.0515,0.5246 0.0717,0.131 0.1859,0.2824 0.3019,0.3814l0.2728 -1.6662zm1.8417 -6.8148c-0.0603,0.0202 -0.0911,0.0288 -0.1389,0.0531l-0.0926 0.0601 0.1631 0.0753 0.0683 -0.1886zm-3.3386 -3.4563c-0.1237,0.1212 -0.2887,1.154 -0.2346,1.8801 0.033,0.444 0.1749,0.6382 0.4421,0.966 0.3,-0.6138 0.2315,-0.7769 0.7789,-1.6562 0.2521,-0.4049 0.5689,0.0404 0.2768,1.0564 -0.1028,0.3578 -0.2697,0.7706 -0.4545,0.9826 0.6154,0.1158 1.2929,-0.0095 1.8965,0.1912 0.0565,0.0153 0.1269,0.0285 0.1925,0.0359 -0.2742,-0.4615 -0.3492,-0.6753 -0.3146,-1.372 0.1257,-2.5256 -2.1418,-3.6799 -2.5832,-2.0841zm4.358 2.8132c0.0195,-0.1439 -0.0059,-0.2969 -0.0148,-0.4426 -0.1193,0.1941 -0.114,0.4171 -0.3013,0.624 -0.076,0.3954 -0.0958,0.4246 -0.2941,0.7798l0.2261 -0.0142c0.1869,-0.3118 0.334,-0.5773 0.384,-0.947zm-0.6077 1.0925c-0.1101,0.0255 -0.9711,0.1768 -0.4087,0.3623 0.1944,0.0641 1.3376,0.254 1.3214,-0.2043 -0.0132,-0.3728 -0.6732,-0.1945 -0.9127,-0.158zm-5.0269 4.2068c-0.2369,0.1371 -0.626,0.2319 -0.898,0.0082l0.1512 -0.03c-0.0989,-0.0807 -0.1196,-0.1043 -0.182,-0.2253 -0.0802,0.0823 -0.4977,0.9533 0.7315,0.9335 -0.0826,0.113 -0.0102,0.0135 -0.2512,0.1372 0.0959,0.0512 0.2416,0.0974 0.3036,0.1032 -0.0822,0.1421 -0.1681,0.2974 -0.2466,0.4583 -0.1581,0.3213 -0.2537,0.567 -0.0693,0.9387 0.1065,0.2148 0.3751,0.5517 0.5762,0.6017 -0.0909,0.0961 -0.237,-0.0272 -0.3493,-0.1121 -0.1004,0.0772 -0.0355,0.06 -0.106,0.1488l-0.0879 -0.2311c-0.0353,-0.1932 -0.2985,-0.3892 -0.2765,-0.7269 0.0236,-0.3591 0.2017,-0.5524 0.2968,-0.7199 0.0342,-0.0602 0.1097,-0.2018 0.1287,-0.2284 -0.2355,-0.2183 -0.2595,-0.1575 -0.3265,-0.1264 0,0 0.005,0.105 0.1241,0.1622 -0.2486,-0.0293 -0.3466,0.0573 -0.4275,0.3257l0.3036 0.0209c-0.0798,0.0362 -0.2721,0.0797 -0.3282,0.1303 -0.0437,0.0395 -0.0714,0.089 -0.1055,0.1811 -0.0484,0.1308 -0.0691,0.2653 -0.0453,0.4149 0.1067,-0.0555 0.1969,-0.081 0.3176,-0.0676 -0.0522,0.0315 -0.0979,0.1087 -0.1433,0.1295 -0.1078,0.0492 -0.1078,0.0458 -0.1204,0.0931 -0.1486,0.22 0.1598,0.5696 0.3128,0.718 0.3926,0.3811 1.0145,0.4869 1.5552,0.3064 0.7007,-0.2339 0.5576,-1.028 1.1087,-1.1318 -0.1013,0.1574 -0.1096,0.0691 -0.1792,0.2629 0.1236,-0.0452 0.2227,-0.1278 0.3301,-0.203 0.3201,-0.2243 0.5233,-0.2245 0.3861,-0.9503 -0.1017,-0.5377 -0.3248,-0.9528 -0.7747,-1.0874 -0.2635,0.3215 -0.3997,0.419 -0.7871,0.65 -0.4226,0.2519 -0.6656,0.1177 -0.8846,0.0612 0.3785,0.013 0.7643,-0.1281 0.9886,-0.2673 0.0986,-0.0612 0.428,-0.3598 0.4883,-0.4351 0.1124,-0.1404 0.2176,-0.3718 0.1312,-0.5575 -0.0757,-0.1626 -0.4555,-0.1704 -0.6784,-0.1682 -0.0446,0.1105 -0.2019,0.3314 -0.3261,0.3335 0.4533,-0.3191 0.2735,-0.8395 -0.1327,-1.0449 -0.2198,-0.1112 -0.5777,-0.0689 -0.7535,0.0394 0.0538,0.1383 0.4716,0.4935 0.5306,0.564l0.1642 -0.1896c-0.0528,0.3476 -0.1068,0.5817 -0.4492,0.7798zm2.4537 6.5527c0.145,-0.0179 0.236,0.0978 0.481,0.0921 0.2403,-0.0055 0.4862,-0.0771 0.5796,-0.0287 -0.2527,0.1651 -0.8366,0.129 -1.0606,-0.0635zm-1.1206 -0.5803c-0.0131,0.2113 0.1348,0.2228 0.002,0.276 -0.1007,0.463 -1.3264,0.0423 -1.6872,0.0001 -0.1048,-0.1921 -0.2488,-0.2101 -0.1987,-0.4652 0.0224,-0.1143 0.1349,-0.217 0.2188,-0.1073 -0.144,0.1338 -0.2072,0.2276 0.0089,0.3573l0.2834 -0.8698c-1.8363,-0.0298 -0.7997,1.4688 -0.7497,1.6285 -0.2293,-0.1538 -0.2223,-0.42 -0.415,-0.591 -0.0352,0.3863 -0.0935,0.7731 0.1267,1.082 0.1707,0.2395 0.7004,0.3697 1.0039,0.4927 0.3322,0.1346 0.9108,0.1781 1.2183,0.1513 0.6536,-0.0569 0.5715,-0.3766 0.5248,-1.0244l-0.5783 0.1171c0.0593,-0.0316 0.0844,-0.0418 0.1465,-0.0604 0.6085,-0.1823 1.4712,-0.8792 0.4906,-1.3383 0.1293,0.0266 0.2398,0.034 0.3555,0.1094 0.1944,0.1268 0.2792,0.4672 0.1669,0.6825 -0.0997,0.1913 -0.421,0.3903 -0.4664,0.4856 0.5138,0.7317 3.5807,0.3214 2.7513,-0.4602 -0.071,-0.0669 -0.1183,-0.1368 -0.1746,-0.2005l-0.4153 0.1142c0.0448,-0.0928 0.496,-0.3009 0.6083,-0.6377 0.1327,-0.3978 -0.4248,-0.7341 -0.7878,-0.7463l-0.0633 0.7767c0.2934,-0.0533 0.0675,-0.0923 0.1959,-0.2989 0.0916,0.1722 0.0556,0.1882 0.1771,0.1533 0.0025,0.1095 -0.0497,0.1675 -0.144,0.2182 -0.3233,0.0279 -0.3941,0.1814 -0.8786,0.0531 -0.1649,-0.0437 -0.8911,-0.343 -1.0339,-0.5112 -0.0309,-0.0389 -0.0645,-0.0797 -0.1009,-0.1527 0.2071,0.0639 0.0852,0.0205 0.2445,-0.0506 -0.0045,0.1497 -0.0218,0.1241 0.0463,0.1953l0.0973 -0.5301c-0.2719,0.0384 -0.4993,0.1677 -0.6079,0.3874 -0.0376,0.076 -0.1093,0.2416 -0.1216,0.3494 -0.0411,-0.0153 -0.0845,-0.0303 -0.1307,-0.0448l-0.113 0.4593zm0.979 -16.101c-0.0212,-0.1499 -0.1551,-0.3688 -0.2552,-0.489 -0.1428,-0.1712 -0.6484,-0.8256 -0.8426,-0.8478 -0.1654,0.2705 -0.0888,1.4627 0,1.7931 0.1474,-0.0524 0.2903,-0.1775 0.4659,-0.256 0.1946,-0.087 0.4245,-0.1283 0.6319,-0.2003zm2.5585 11.3512c-0.0016,-0.3854 -0.3681,-2.2739 -0.6791,-2.5135 0.0167,0.7514 0.0014,1.4785 -0.0206,2.2267l0.6997 0.2868zm-2.5182 -1.7124c0.2105,0.346 0.5968,0.8725 1.087,0.9592 0.8413,0.0653 0.7892,-2.0765 0.328,-2.6051 -0.1866,-0.2137 -0.4414,-0.3764 -0.72,-0.533 -0.4106,-0.2309 -0.9233,0.075 -1.0315,0.3861 -0.213,0.599 0.0204,1.2732 0.3365,1.7928zm-2.7802 0.5163c0.4344,-0.1797 0.4177,-0.128 0.6871,-0.4658l-0.4928 -0.4329c-0.1454,-0.1475 -0.2778,-0.3697 -0.2432,-0.6802 0.0963,-0.1962 2.1142,-0.9863 1.759,-1.33 -0.127,-0.1229 -2.6739,0.5474 -2.6317,1.2685 0.0313,0.535 0.5216,1.5557 0.9216,1.6405zm1.9309 -4.3161c0.1051,0.0747 0.5229,0.368 0.5608,0.4416 -1.7109,-1.0142 -1.0726,-0.7753 -1.4852,-1.2883 -0.0915,0.0988 -0.0319,0.0775 -0.1524,0.1462 -0.009,-0.5763 0.6182,-0.2235 0.6751,0.0444 -0.1698,-0.0404 -0.1591,-0.1592 -0.3773,-0.2292 0.0953,0.3085 0.5845,0.7724 0.779,0.8853zm2.7403 1.2017c0.267,-0.1064 0.5025,-0.2775 0.6462,-0.4328 -0.0586,-0.0752 -0.3749,-0.196 -0.4816,-0.2446 -0.0845,-0.2348 -0.213,-0.4118 0.2158,-0.4665 -0.5229,-0.8153 -2.8152,-0.0743 -3.3467,-1.0864 -0.1595,-0.3035 -0.6269,-0.7151 -1.004,-0.5592 -0.3374,0.1394 -0.5171,0.6874 -0.4643,1.0322 0.1243,0.8121 0.9871,1.8732 1.5913,1.7255 0.7325,-0.179 1.2776,0.167 1.6416,0.2252 0.2406,0.0384 0.988,-0.1082 1.2017,-0.1933z"/>
  <path class="fil0" d="M25.038 0.0238c2.3389,0.2214 5.0709,1.9004 6.2576,3.9463 0.1192,0.2055 0.1854,0.4007 0.3091,0.587l0.3081 -0.329c0.3763,-0.376 0.6839,-0.9531 0.9438,-0.6585 0.4995,0.5663 -0.0156,2.3208 -0.3351,2.9249 -0.13,0.246 -0.147,0.1326 -0.126,0.4721 0.0291,0.4699 -0.1528,1.018 -0.4969,1.3443 -0.1038,0.0984 -0.2216,0.1575 -0.3469,0.2534 -0.0957,0.0733 -0.2683,0.366 -0.3205,0.4954 0.4101,-0.0717 0.9096,0.1074 0.6166,0.5425 -0.1749,0.2597 -0.5787,0.271 -0.9823,0.2659 -0.128,0.198 -0.104,0.2101 -0.3085,0.3508 -0.4174,0.2872 -0.9649,0.4013 -1.4967,0.4125 0.57,0.661 0.7658,0.4058 1.1897,1.5131 0.2186,0.5712 0.4775,1.4396 0.5736,2.0885 0.1226,0.8279 0.2762,0.5333 0.3564,0.9791 0.0403,0.2238 -0.0094,0.3857 -0.0782,0.5693 -0.1123,0.2997 -0.0377,0.2546 0.0273,0.5341 0.0861,0.3708 0.0846,0.8723 0.0292,1.2471 -0.0811,0.5486 -0.2506,0.6684 -0.5663,1.0051 -0.1119,0.1193 -0.153,0.0867 -0.0745,0.2672 0.1121,0.4147 -0.1131,0.4657 -0.1836,0.7419 0.1169,0.3632 0.4432,0.1526 0.2154,0.8124 0.1969,0.1045 0.3608,0.1158 0.7949,0.3234 0.208,0.0994 0.5541,0.2407 0.6869,0.4438 0.0233,0.0357 0.054,0.0457 0.3458,0.1661 0.2228,0.092 0.4113,0.2201 0.5738,0.3444 0.8254,0.6308 0.7647,1.1513 0.9555,1.3414 0.308,0.3069 0.039,0.7196 -0.1879,0.8931 -1.1724,0.8959 -3.0521,0.2883 -4.5411,-0.0155 -0.29,-0.0592 -1.2849,-0.3595 -1.4478,-0.352 -0.2908,0.4902 -0.7224,0.8785 -1.0783,1.1817 -0.901,0.7678 -1.9445,1.2188 -3.1951,1.2431 -0.8621,0.0168 -2.4274,0.0835 -2.3676,-0.9746 0.0144,-0.2551 0.065,-0.2636 0.1571,-0.4093 0.1375,-0.2175 0.0135,-0.7629 0.9895,-1.7681 0.3164,-0.3656 0.5438,-0.7846 0.9203,-1.0788 0.5893,-0.4605 0.7583,-0.6411 1.4427,-1.0206 -0.0867,-0.3134 -0.1699,-0.4555 -0.1185,-0.8459 0.0235,-0.1782 0.076,-0.2442 0.1165,-0.3783 0.0408,-0.1348 0.015,-0.2579 0.0526,-0.4102 0.1603,-0.6487 0.8798,-0.5907 1.1823,-0.6031l0.4989 -1.5066c-0.7916,0.02 -1.122,-0.1141 -1.5078,-0.6937 -0.0867,-0.1303 -0.1455,-0.2029 -0.155,-0.4049 -0.008,-0.1692 -0.0391,-0.3699 -0.0227,-0.5277 0.0242,-0.2326 0.0675,-0.2365 0.1624,-0.3778 0.0581,-0.0866 0.1151,-0.2948 0.1563,-0.4115 0.1346,-0.2069 0.1189,-0.2037 0.1806,-0.3743 -0.2254,-0.009 -0.3775,-0.2446 -0.5015,-0.4088 -0.0791,0.2006 -0.3239,0.5226 -0.5457,0.6431 -0.3397,-0.5387 0.3006,-2.2055 0.2932,-2.4576 -0.0064,-0.2134 0.0093,-0.3927 0.1747,-0.5328 0.106,-0.0898 0.5091,-0.3981 0.6291,-0.4497 -1.1311,0.3066 -2.8963,1.2476 -3.6805,2.1809 -0.1676,0.1995 -0.2863,0.4457 -0.3882,0.4217 -0.1919,-0.1255 -0.264,-1.4092 -0.2657,-1.7282 -0.0048,-0.887 0.3451,-2.3298 0.7357,-3.1299 0.3898,-0.7984 0.7929,-1.0205 0.8808,-1.2144 -0.3892,-0.3737 -1.5432,-0.2995 -2.1339,-0.2187 -0.2916,0.0399 -1.9084,0.4851 -1.951,0.4386 -0.1717,-0.3571 0.4933,-1.6827 0.6409,-1.9586 0.6196,-1.1586 1.4742,-2.0537 2.7004,-2.563 1.0142,-0.4213 1.2883,-0.3291 2.2073,-0.4066 -0.3158,-0.4756 -1.2656,-1.5515 -1.7351,-1.8811 -0.297,-0.2085 -0.4378,-0.3476 0.3624,-0.6195 0.7169,-0.2437 1.708,-0.3367 2.4715,-0.2645zm3.1432 18.0959c0.2514,-0.9793 0.1316,-0.6202 -0.1283,-0.9846 -0.0599,-0.0841 -0.114,-0.1916 -0.1819,-0.2902 -0.0644,0.1604 -0.4464,1.505 -0.5272,1.7639 0.1268,-0.1506 0.1548,-0.2235 0.3559,-0.3332 0.1436,-0.0784 0.292,-0.1188 0.4815,-0.1559z"/>
  <path class="fil1" d="M27.0948 4.2051c-0.154,0.0421 -0.1745,0.0587 -0.0766,-0.0278 0.6477,-0.979 2.1241,0.1291 2.6081,0.8203 0.2394,0.342 0.3346,0.4909 0.2581,0.5178 -0.0248,-0.1825 -1.0245,-1.3242 -1.7458,-1.5418 -0.3934,-0.1187 -0.8828,-0.0322 -1.0438,0.2315zm5.2482 2.3886c0.3248,-0.5285 0.6799,-2.0631 0.5257,-2.6808 -0.0361,-0.1444 -0.065,-0.2908 -0.2234,-0.3049 -0.1935,0.1816 -0.7724,1.028 -1.0037,1.048 0.0962,0.6968 0.0857,0.6104 0.0497,1.2927 -0.0366,-1.0613 -0.3594,-1.7975 -1.0481,-2.6358 -2.0213,-2.4602 -5.4249,-3.9607 -8.4938,-2.7285 0.2066,0.2332 3.1311,1.485 2.9341,2.4984 -1.3531,-0.1053 -2.3068,-0.1334 -3.5875,0.4587 -1.7365,0.8028 -2.5338,2.2004 -2.9526,3.9973 0.5264,-0.1393 1.0941,-0.5813 1.9422,-0.7807 1.2188,-0.2865 2.618,-0.3517 2.8019,0.1389 -1.0481,1.2339 -1.5426,1.2555 -2.015,3.1476 -0.2028,0.8123 -0.4122,2.4522 -0.0574,3.2072 0.5145,-1.7259 2.6349,-3.7948 4.341,-4.2992 -0.029,-0.539 -0.0012,-1.5369 0.725,-1.5438 0.2874,-0.0027 0.3606,0.098 0.5659,0.1567 -0.1169,-0.8332 -0.1988,-1.4829 0.0819,-2.2456 0.6186,-1.6805 2.8562,-0.7353 2.9285,1.7886 0.0111,0.3874 -0.1117,1.374 0.3448,1.6264 0.4642,-0.0135 0.5722,-0.7591 0.4675,-1.2239 0.0118,-0.0922 -0.0364,-0.0643 0.0447,-0.0678 0.2236,0.3725 0.1161,0.7155 0.0075,1.0881 0.638,-0.2908 0.5061,-1.2919 0.8683,-1.3293 0.193,-0.0198 0.209,0.1627 0.181,0.2373 -0.0047,-0.0664 -0.0614,-0.1067 -0.1556,-0.1132 -0.0644,-0.0044 -0.0663,-0.0107 -0.0845,0.0451 -0.0881,0.2689 0.0446,0.1496 0.071,0.4445 0.0203,0.2266 -0.0329,0.4076 -0.0553,0.6282 0.4918,-0.1437 1.0139,-1.3849 0.5545,-1.9711 -0.1468,-0.2912 -0.3689,-0.1234 -0.5528,-0.0022 0.0258,-0.1487 0.0804,-0.1588 0.1462,-0.2513 0.106,-0.1252 0.5752,0.0009 0.6484,0.3744zm-5.8745 10.4399c-0.2358,0.7004 -0.465,1.4759 -0.7184,2.1514 -0.1324,0.3531 -0.1299,0.3495 -0.03,0.3892 0.0704,0.028 0.7254,0.1209 0.8594,0.1469 0.4258,-1.1236 0.8982,-2.2528 1.1753,-3.4197 0.1728,-0.1312 0.5447,-0.5243 0.6017,-0.583 0.1621,-0.1668 0.2955,-0.4219 0.3635,-0.5959 0.0187,-0.0478 0.036,-0.0908 0.0521,-0.1398l-0.1605 -0.0687c0.1799,-0.0963 0.6078,-0.2912 0.6714,-0.1055l-0.1314 0.0245c-0.078,0.1703 0.0184,-0.0588 0.0266,0.4699 0.0031,0.1953 0.0037,0.3935 -0.0144,0.5872 -0.0737,0.7898 -0.1261,1.3506 -0.2538,2.1444 -0.0423,0.2627 -0.177,0.8317 -0.1563,1.0545 0.2045,0.0559 0.4416,0.1508 0.6248,0.0859l0.0542 -0.0344c0,-0.1517 0.0414,-0.3135 0.0547,-0.4845 0.045,-0.5799 0.2119,-2.1239 0.2861,-3.0096 0.0546,-0.6511 0.1422,-1.2918 0.1193,-1.9483 -0.0569,0.0386 -0.0201,0.0125 -0.0677,0.057 -0.2797,0.2611 -0.5805,0.32 -0.9481,0.1181 -0.6774,-0.372 -1.1435,-1.3593 -1.2057,-2.1007 -0.0333,-0.398 -0.026,-0.7547 0.3192,-1.0124 0.1431,-0.1068 0.2873,-0.1449 0.5034,-0.1731 -0.481,-0.1518 -0.7328,-0.1884 -1.2992,-0.184 0.1494,0.3627 0.0171,0.4909 -0.2217,0.6825 -0.134,0.1076 -0.4,0.2929 -0.6147,0.3742 -0.1582,0.0251 -0.5328,0.229 -0.6517,0.3022 -0.1688,0.104 -0.2652,0.1424 -0.1844,0.3782 0.313,-0.0928 0.2153,-0.1015 0.4543,-0.0979l0.3621 -0.4707c0.0122,0.3385 0.0433,0.4945 0.198,0.5998 0.0871,0.0593 0.1982,0.156 0.2497,0.2504 0.0345,0.0632 0.0631,0.1778 0.0754,0.4292 0.6837,0.047 0.8282,-0.0068 0.7451,0.7324 0.5068,0.108 0.7404,0.5642 0.8421,1.0943 0.0876,0.2973 0.1158,0.5327 -0.1056,0.8158 -0.1738,0.2223 -0.9437,0.9317 -1.2058,1.1593 -0.3039,0.2639 -0.5701,0.1999 -0.6688,0.3807zm-2.3343 -2.7594c0.1157,-0.0922 0.2085,-0.2615 0.3154,-0.4125 0.2567,-0.3624 0.4152,-0.6937 0.4029,-0.7829 -0.0118,-0.0856 -0.246,-0.4037 -0.3065,-0.5971 -0.0172,-0.055 -0.0906,-0.3657 -0.0974,-0.4274 -0.0609,0.2374 -0.0892,0.3647 -0.1728,0.6872 -0.101,0.3896 -0.2454,1.1698 -0.1417,1.5327zm4.2138 -10.9585c-0.1243,0.0698 -0.5482,0.1401 -0.7326,0.2159 -0.1928,0.0793 -0.4753,0.2905 -0.6566,0.2933 -0.0339,-0.2776 -0.3376,-2.3879 0.273,-1.9055 0.69,0.5451 0.9659,1.311 1.1162,1.3963zm-1.9347 0.7836c-0.5401,-0.0933 -0.8826,0.1423 -0.4507,-1.9722 0.0483,-0.2364 0.1275,-0.2471 0.1468,-0.3049 0.0177,-0.4414 0.1886,-0.8943 0.713,-0.7266 0.7449,0.2383 1.9702,1.7545 2.1069,2.4507 -0.129,-0.0705 -0.6602,-1.3126 -1.7379,-2.1154 -1.2489,-0.9302 -0.975,0.9623 -0.8582,1.8812 0.0345,0.2719 0.1377,0.5498 0.0801,0.7871zm6.7378 17.9455c-0.2466,-0.2527 -0.6108,-0.5287 -0.913,-0.6482 -0.515,-0.2034 -1.343,-0.1632 -1.8254,0.0904 -0.416,0.2186 -0.5372,0.3955 -0.7222,0.8027 -0.1805,0.3972 -0.3956,0.9766 -0.3036,1.1402 0.0896,0.0914 1.659,0.369 2.6364,0.4005 0.6967,0.0224 1.2661,-0.0574 1.7039,-0.5989 -0.0119,-0.4642 -0.2398,-0.8421 -0.5762,-1.1866zm-8.4942 -1.2324c-0.2398,0.082 -0.197,0.1314 -0.2273,0.1408 0.4513,0.1405 0.9827,0.2251 1.3385,0.5502 0.2739,0.2504 0.4281,0.4137 0.6265,0.7493 0.2637,0.4461 0.3892,0.8563 0.395,1.4855 0.1585,-0.0325 0.8072,-0.6753 0.8569,-0.8201 0.0461,-0.1342 -0.0485,-0.7168 -0.1083,-1.1394 -0.0154,-0.1084 0.0268,-0.2525 0.0564,-0.361 0.0214,0.1289 0.1132,0.6695 0.181,0.7496 0.0708,-0.289 0.1469,-0.5493 0.2748,-0.7843 0.2107,-0.3872 0.3751,-0.4533 0.471,-0.57 -0.1172,-0.0687 -0.3626,-0.075 -0.4882,-0.1003 -0.1666,-0.0335 -0.2225,-0.1068 -0.3823,-0.1547 0.056,0.606 -0.0678,0.5608 -0.0678,0.745 -0.3637,0.1365 -0.7218,0.2256 -1.1609,0.1866 -0.5128,-0.0455 -1.3377,-0.4004 -1.7652,-0.6772zm-0.481 2.2477c-0.2869,-0.1954 -0.7841,-0.4643 -1.2333,-0.4912 -0.4194,0.0154 -0.4889,0.1401 -0.679,0.3718 -0.4403,0.5365 -0.974,1.1307 -0.9045,1.9101 0.1133,0.2434 0.5061,0.4628 0.7511,0.516 0.6432,0.1397 1.678,-0.0239 2.3239,-0.2394 0.3284,-0.1095 0.7199,-0.2621 0.8332,-0.3586 -0.0204,-0.2868 -0.1562,-0.5845 -0.2712,-0.8489 -0.1211,-0.2785 -0.2882,-0.4972 -0.8201,-0.8597zm5.08 0.1104c0.0186,-0.2354 0.1655,-0.713 0.2739,-0.9428 0.3736,-0.7928 1.0656,-1.1382 1.9435,-1.087 0.2599,0.0323 0.391,0.081 0.4957,0.0255 -0.1488,-0.1255 -0.5953,-0.3816 -0.9374,-0.4975 -0.2968,-0.1007 -0.4833,-0.2142 -0.7701,-0.0452 -0.3144,0.1852 -0.8293,0.2348 -1.1887,0.2182 -0.3147,-0.0145 -0.3275,-0.0962 -0.5306,0.1123 -0.4904,0.5033 -0.7564,1.5335 -0.723,2.2142 -0.0352,-0.0086 -0.0699,-0.0167 -0.104,-0.0238 0.0013,-0.019 0.0024,-0.0385 0.0033,-0.0588 -0.1654,0.0644 -0.2179,0.2188 -0.3348,0.3468 -0.4513,0.4942 -1.1418,0.983 -1.7206,1.3188 -0.9189,0.4795 -3.4129,1.3155 -4.275,0.4254l-0.1951 -0.2083c0.0152,0.3333 0.0974,0.5618 0.4203,0.6891 0.6554,0.2584 2.1566,0.208 2.8563,0.0117 1.1381,-0.2733 1.9663,-0.9009 2.7161,-1.6562 0.3356,-0.338 0.4867,-0.4211 0.5254,-0.8184l0.088 0.2324c0.49,0.2629 3.8383,0.9032 4.6786,0.7851 0.7519,-0.1057 1.6624,-0.3956 1.3979,-1.0968 -0.0769,0.1235 -0.1112,0.2039 -0.1371,0.2634 -0.1401,0.3208 -0.9492,0.568 -1.2799,0.5671 -1.4945,0.066 -2.2018,-0.2192 -3.4165,-0.439 -0.3432,-0.0621 -0.7141,-0.1971 -1.0549,-0.2937 0.1582,0.0113 0.3068,-0.0124 0.4571,0.034 0.2298,0.071 0.4695,0.1279 0.7724,0.1408l0.0394 -0.2171zm-4.7013 -2.0994c-0.1332,-0.0233 -0.2272,-0.0484 -0.3087,-0.0297 -0.0438,0.0101 -0.2949,0.2043 -0.4053,0.2618 -0.3487,0.2483 -1.1472,0.834 -1.2389,1.2126 0.2591,0.0134 0.4265,-0.1113 1.033,0.0975 0.7183,0.2472 1.5941,0.9965 1.6829,1.804l0.0177 0.3122c0.2302,-0.0781 0.7703,-0.4581 0.9741,-0.6041 0.1229,-0.088 0.3751,-0.1973 0.3826,-0.3776 0.0218,-0.5226 -0.2886,-1.3126 -0.6044,-1.7156 -0.4149,-0.5296 -0.8628,-0.8421 -1.5329,-0.9611zm5.4764 -2.7305c0.1068,0.0766 0.2062,0.1164 0.3107,0.2025 0.2201,-0.0545 0.4717,-0.3737 0.5508,-0.5708 0.2246,-0.5589 0.1807,-1.7779 0.0491,-1.9275 -0.0963,-0.0576 -0.1781,-0.0702 -0.2881,-0.1339l-0.6333 -0.4171c0.0932,0.0152 0.2422,0.0207 0.2935,0.0512 0.1837,0.1092 0.4545,0.3476 0.6565,0.3493 0.026,-0.1983 -0.0831,-0.5153 -0.259,-0.6363 0.0221,-0.0888 0.0523,0.0003 0.1435,0.0958 0.0587,0.0615 0.1111,0.1184 0.1794,0.1958l0.0295 -0.1773c-0.0199,-0.3416 -0.1222,-0.4668 -0.373,-0.5942 -0.1572,-0.0798 -0.5606,-0.2832 -0.6881,-0.3195l-0.0554 0.7597c-0.0215,0.3012 -0.0562,0.5861 -0.0918,0.8965 -0.0922,0.8068 -0.2292,1.9966 -0.2113,2.1416l0.2756 0.0418c0.1077,-0.1091 0.1055,-0.2298 0.2254,-0.3151 -0.0353,0.2298 -0.0701,0.2078 -0.1141,0.3575zm-1.4131 -2.7622c-0.2542,0.2161 -0.5228,0.4391 -0.6262,0.7602 -0.0847,0.2629 -0.0742,0.2949 0.0515,0.5246 0.0717,0.131 0.1859,0.2824 0.3019,0.3814l0.2728 -1.6662zm1.8417 -6.8148c-0.0603,0.0202 -0.0911,0.0288 -0.1389,0.0531l-0.0926 0.0601 0.1631 0.0753 0.0683 -0.1886zm-3.3386 -3.4563c-0.1237,0.1212 -0.2887,1.154 -0.2346,1.8801 0.033,0.444 0.1749,0.6382 0.4421,0.966 0.3,-0.6138 0.2315,-0.7769 0.7789,-1.6562 0.2521,-0.4049 0.5689,0.0404 0.2768,1.0564 -0.1028,0.3578 -0.2697,0.7706 -0.4545,0.9826 0.6154,0.1158 1.2929,-0.0095 1.8965,0.1912 0.0565,0.0153 0.1269,0.0285 0.1925,0.0359 -0.2742,-0.4615 -0.3492,-0.6753 -0.3146,-1.372 0.1257,-2.5256 -2.1418,-3.6799 -2.5832,-2.0841zm4.358 2.8132c0.0195,-0.1439 -0.0059,-0.2969 -0.0148,-0.4426 -0.1193,0.1941 -0.114,0.4171 -0.3013,0.624 -0.076,0.3954 -0.0958,0.4246 -0.2941,0.7798l0.2261 -0.0142c0.1869,-0.3118 0.334,-0.5773 0.384,-0.947zm-0.6077 1.0925c-0.1101,0.0255 -0.9711,0.1768 -0.4087,0.3623 0.1944,0.0641 1.3376,0.254 1.3214,-0.2043 -0.0132,-0.3728 -0.6732,-0.1945 -0.9127,-0.158zm-5.0269 4.2068c-0.2369,0.1371 -0.626,0.2319 -0.898,0.0082l0.1512 -0.03c-0.0989,-0.0807 -0.1196,-0.1043 -0.182,-0.2253 -0.0802,0.0823 -0.4977,0.9533 0.7315,0.9335 -0.0826,0.113 -0.0102,0.0135 -0.2512,0.1372 0.0959,0.0512 0.2416,0.0974 0.3036,0.1032 -0.0822,0.1421 -0.1681,0.2974 -0.2466,0.4583 -0.1581,0.3213 -0.2537,0.567 -0.0693,0.9387 0.1065,0.2148 0.3751,0.5517 0.5762,0.6017 -0.0909,0.0961 -0.237,-0.0272 -0.3493,-0.1121 -0.1004,0.0772 -0.0355,0.06 -0.106,0.1488l-0.0879 -0.2311c-0.0353,-0.1932 -0.2985,-0.3892 -0.2765,-0.7269 0.0236,-0.3591 0.2017,-0.5524 0.2968,-0.7199 0.0342,-0.0602 0.1097,-0.2018 0.1287,-0.2284 -0.2355,-0.2183 -0.2595,-0.1575 -0.3265,-0.1264 0,0 0.005,0.105 0.1241,0.1622 -0.2486,-0.0293 -0.3466,0.0573 -0.4275,0.3257l0.3036 0.0209c-0.0798,0.0362 -0.2721,0.0797 -0.3282,0.1303 -0.0437,0.0395 -0.0714,0.089 -0.1055,0.1811 -0.0484,0.1308 -0.0691,0.2653 -0.0453,0.4149 0.1067,-0.0555 0.1969,-0.081 0.3176,-0.0676 -0.0522,0.0315 -0.0979,0.1087 -0.1433,0.1295 -0.1078,0.0492 -0.1078,0.0458 -0.1204,0.0931 -0.1486,0.22 0.1598,0.5696 0.3128,0.718 0.3926,0.3811 1.0145,0.4869 1.5552,0.3064 0.7007,-0.2339 0.5576,-1.028 1.1087,-1.1318 -0.1013,0.1574 -0.1096,0.0691 -0.1792,0.2629 0.1236,-0.0452 0.2227,-0.1278 0.3301,-0.203 0.3201,-0.2243 0.5233,-0.2245 0.3861,-0.9503 -0.1017,-0.5377 -0.3248,-0.9528 -0.7747,-1.0874 -0.2635,0.3215 -0.3997,0.419 -0.7871,0.65 -0.4226,0.2519 -0.6656,0.1177 -0.8846,0.0612 0.3785,0.013 0.7643,-0.1281 0.9886,-0.2673 0.0986,-0.0612 0.428,-0.3598 0.4883,-0.4351 0.1124,-0.1404 0.2176,-0.3718 0.1312,-0.5575 -0.0757,-0.1626 -0.4555,-0.1704 -0.6784,-0.1682 -0.0446,0.1105 -0.2019,0.3314 -0.3261,0.3335 0.4533,-0.3191 0.2735,-0.8395 -0.1327,-1.0449 -0.2198,-0.1112 -0.5777,-0.0689 -0.7535,0.0394 0.0538,0.1383 0.4716,0.4935 0.5306,0.564l0.1642 -0.1896c-0.0528,0.3476 -0.1068,0.5817 -0.4492,0.7798zm2.4537 6.5527c0.145,-0.0179 0.236,0.0978 0.481,0.0921 0.2403,-0.0055 0.4862,-0.0771 0.5796,-0.0287 -0.2527,0.1651 -0.8366,0.129 -1.0606,-0.0635zm-1.1206 -0.5803c-0.0131,0.2113 0.1348,0.2228 0.002,0.276 -0.1007,0.463 -1.3264,0.0423 -1.6872,0.0001 -0.1048,-0.1921 -0.2488,-0.2101 -0.1987,-0.4652 0.0224,-0.1143 0.1349,-0.217 0.2188,-0.1073 -0.144,0.1338 -0.2072,0.2276 0.0089,0.3573l0.2834 -0.8698c-1.8363,-0.0298 -0.7997,1.4688 -0.7497,1.6285 -0.2293,-0.1538 -0.2223,-0.42 -0.415,-0.591 -0.0352,0.3863 -0.0935,0.7731 0.1267,1.082 0.1707,0.2395 0.7004,0.3697 1.0039,0.4927 0.3322,0.1346 0.9108,0.1781 1.2183,0.1513 0.6536,-0.0569 0.5715,-0.3766 0.5248,-1.0244l-0.5783 0.1171c0.0593,-0.0316 0.0844,-0.0418 0.1465,-0.0604 0.6085,-0.1823 1.4712,-0.8792 0.4906,-1.3383 0.1293,0.0266 0.2398,0.034 0.3555,0.1094 0.1944,0.1268 0.2792,0.4672 0.1669,0.6825 -0.0997,0.1913 -0.421,0.3903 -0.4664,0.4856 0.5138,0.7317 3.5807,0.3214 2.7513,-0.4602 -0.071,-0.0669 -0.1183,-0.1368 -0.1746,-0.2005l-0.4153 0.1142c0.0448,-0.0928 0.496,-0.3009 0.6083,-0.6377 0.1327,-0.3978 -0.4248,-0.7341 -0.7878,-0.7463l-0.0633 0.7767c0.2934,-0.0533 0.0675,-0.0923 0.1959,-0.2989 0.0916,0.1722 0.0556,0.1882 0.1771,0.1533 0.0025,0.1095 -0.0497,0.1675 -0.144,0.2182 -0.3233,0.0279 -0.3941,0.1814 -0.8786,0.0531 -0.1649,-0.0437 -0.8911,-0.343 -1.0339,-0.5112 -0.0309,-0.0389 -0.0645,-0.0797 -0.1009,-0.1527 0.2071,0.0639 0.0852,0.0205 0.2445,-0.0506 -0.0045,0.1497 -0.0218,0.1241 0.0463,0.1953l0.0973 -0.5301c-0.2719,0.0384 -0.4993,0.1677 -0.6079,0.3874 -0.0376,0.076 -0.1093,0.2416 -0.1216,0.3494 -0.0411,-0.0153 -0.0845,-0.0303 -0.1307,-0.0448l-0.113 0.4593zm0.979 -16.101c-0.0212,-0.1499 -0.1551,-0.3688 -0.2552,-0.489 -0.1428,-0.1712 -0.6484,-0.8256 -0.8426,-0.8478 -0.1654,0.2705 -0.0888,1.4627 0,1.7931 0.1474,-0.0524 0.2903,-0.1775 0.4659,-0.256 0.1946,-0.087 0.4245,-0.1283 0.6319,-0.2003zm2.5585 11.3512c-0.0016,-0.3854 -0.3681,-2.2739 -0.6791,-2.5135 0.0167,0.7514 0.0014,1.4785 -0.0206,2.2267l0.6997 0.2868zm-2.5182 -1.7124c0.2105,0.346 0.5968,0.8725 1.087,0.9592 0.8413,0.0653 0.7892,-2.0765 0.328,-2.6051 -0.1866,-0.2137 -0.4414,-0.3764 -0.72,-0.533 -0.4106,-0.2309 -0.9233,0.075 -1.0315,0.3861 -0.213,0.599 0.0204,1.2732 0.3365,1.7928zm-2.7802 0.5163c0.4344,-0.1797 0.4177,-0.128 0.6871,-0.4658l-0.4928 -0.4329c-0.1454,-0.1475 -0.2778,-0.3697 -0.2432,-0.6802 0.0963,-0.1962 2.1142,-0.9863 1.759,-1.33 -0.127,-0.1229 -2.6739,0.5474 -2.6317,1.2685 0.0313,0.535 0.5216,1.5557 0.9216,1.6405zm1.9309 -4.3161c0.1051,0.0747 0.5229,0.368 0.5608,0.4416 -1.7109,-1.0142 -1.0726,-0.7753 -1.4852,-1.2883 -0.0915,0.0988 -0.0319,0.0775 -0.1524,0.1462 -0.009,-0.5763 0.6182,-0.2235 0.6751,0.0444 -0.1698,-0.0404 -0.1591,-0.1592 -0.3773,-0.2292 0.0953,0.3085 0.5845,0.7724 0.779,0.8853zm2.7403 1.2017c0.267,-0.1064 0.5025,-0.2775 0.6462,-0.4328 -0.0586,-0.0752 -0.3749,-0.196 -0.4816,-0.2446 -0.0845,-0.2348 -0.213,-0.4118 0.2158,-0.4665 -0.5229,-0.8153 -2.8152,-0.0743 -3.3467,-1.0864 -0.1595,-0.3035 -0.6269,-0.7151 -1.004,-0.5592 -0.3374,0.1394 -0.5171,0.6874 -0.4643,1.0322 0.1243,0.8121 0.9871,1.8732 1.5913,1.7255 0.7325,-0.179 1.2776,0.167 1.6416,0.2252 0.2406,0.0384 0.988,-0.1082 1.2017,-0.1933z"/>
 </g>
</svg>
