<?xml version="1.0" encoding="UTF-8"?>
<!DOCTYPE svg PUBLIC "-//W3C//DTD SVG 1.1//EN" "http://www.w3.org/Graphics/SVG/1.1/DTD/svg11.dtd">
<!-- Creator: CorelDRAW 2020 (64-Bit) -->
<svg xmlns="http://www.w3.org/2000/svg" xml:space="preserve" width="117.707mm" height="80.0001mm" version="1.1" style="shape-rendering:geometricPrecision; text-rendering:geometricPrecision; image-rendering:optimizeQuality; fill-rule:evenodd; clip-rule:evenodd"
viewBox="0 0 43.3499 29.4631"
 xmlns:xlink="http://www.w3.org/1999/xlink"
 xmlns:xodm="http://www.corel.com/coreldraw/odm/2003">
 <defs>
  <style type="text/css">
   <![CDATA[
    .fil1 {fill:#FEFEFE}
    .fil0 {fill:#2B2A29}
   ]]>
  </style>
 </defs>
 <g id="Слой_x0020_1">
  <metadata id="CorelCorpID_0Corel-Layer"/>
  <path class="fil0" d="M18.7781 11.4894c-0.192,1.1949 -0.5132,0.7053 -0.7637,0.4343 -0.347,-0.3755 -0.7207,-0.703 -1.1295,-1.01 -0.191,-0.1436 -1.8337,-1.2671 -1.9753,-0.8664 -0.0224,0.0633 0.7628,3.0147 -0.0691,5.1036 -0.5545,1.3923 -0.8029,-0.0881 -1.2071,-0.3587 -0.163,0.6995 -0.1011,0.4444 0.3413,0.8391 0.1439,0.1284 0.2416,0.2744 0.3965,0.3782 0.9303,-1.3473 1.2557,-1.8101 1.9797,-3.2585 0.2426,-0.4854 0.4361,-0.8361 1.0452,-0.8361 0.8205,0 1.5602,1.7857 0.2317,3.5517 -0.5725,0.7612 -0.9775,1.2059 -1.6086,1.9326 -0.098,0.1124 -0.1218,0.0682 -0.1355,0.2333 0.5891,0.0491 0.8484,0.6787 0.8484,1.328 0,0.5089 0.0299,1.036 -0.5902,1.1804 0.0412,0.177 0.1476,0.3644 0.1476,0.5533 0,1.9271 -2.0023,1.6855 -3.1855,1.1198 -0.399,-0.1907 -0.616,-0.4319 -0.7247,-0.8984 -0.3027,0 -0.4501,-0.0369 -0.7378,-0.0369 0.0182,0.2183 0.0769,0.32 0.1278,0.5362 0.0702,0.2985 -0.1057,0.6127 -0.1647,0.8656 0.3073,0.388 0.3035,0.2737 0.5421,0.8228 0.1364,0.3139 0.5697,0.3326 0.7704,0.5576 0.2666,0.299 0.4401,1.0052 0.6303,1.3986 0.4342,0.8983 -0.1689,1.0536 -0.12,1.3359 0.0479,0.2757 0.3343,0.6365 0.3877,1.163 0.0535,0.5279 0.299,0.5811 -0.0487,1.1631 -0.5956,0.9971 -4.4933,0.8154 -5.6251,0.453 -2.1491,-0.6882 -0.9559,-1.8542 -1.2348,-2.028 -0.2081,-0.1296 -6.0819,0.7121 -6.0244,-0.9517 0.0027,-0.0782 0.0435,-0.1949 0.0871,-0.2737 0.2714,-0.491 -0.1325,-0.9817 1.6244,-1.7326 1.2349,-0.5278 -0.1253,-0.2102 1.2765,-0.9736 0.3512,-0.1913 0.4483,-0.5613 0.9086,-0.567 0.4562,-0.0057 0.2891,0.0141 0.5917,-0.146 -0.0746,-0.8969 0.0844,-0.4856 0.2297,-1.0413l-0.1928 -0.1761c-0.1231,0.0825 -0.256,0.2213 -0.4426,0.2213 -0.4902,0 -1.069,-0.232 -1.4387,-0.4795l0.0738 0.5902c0,0.6948 -0.7729,1.114 -1.587,0.0376 -0.3615,-0.478 -0.3312,-0.6689 -0.3312,-1.2918 -0.1243,0.0898 -0.0538,-0.0191 -0.0455,0.1495 0.0453,0.9153 -0.7204,1.4271 -1.1562,0.757 -0.8074,-1.2415 -0.524,-2.3893 0.3157,-3.4893 0.5518,-0.7231 0.8412,-0.7305 1.6237,-1.106 -0.2244,-0.9631 0.2995,-0.5578 0.5547,-0.8471 0.0994,-0.1127 -0.0959,-0.4425 0.5308,-0.5759 1.0299,-0.2193 0.2616,0.4821 1.4312,-0.8558 0.349,-0.3992 0.5566,-0.5858 0.7238,-0.864 0.0883,-0.1469 0.1332,-0.3446 0.2521,-0.5579 0.4914,-0.8821 0.83,-1.0323 1.0447,-1.353 -0.6366,-0.1846 -1.3944,-0.4778 -1.9026,-0.8943 -0.4611,-0.3778 -0.9511,-0.938 -1.0599,-1.4208 -0.0166,-0.0735 0.051,-0.4795 -0.1704,-0.6387 -0.0402,-0.0289 -0.9249,-0.1483 -0.9249,-0.6982 0,-0.6163 0.4367,-0.397 0.7747,-0.3688 -0.0911,-1.0945 -0.1441,-0.524 -0.2747,-1.1639 -0.1332,-0.6531 0.098,-0.6361 -0.1681,-1.1599 -0.2595,-0.5109 -0.5901,-1.4511 -0.5901,-2.2134 0,-1.4728 2.1922,0.5533 2.988,0.5533 0.2712,0 0.5507,-0.5897 1.2072,-0.9692 0.1451,-0.0839 0.1363,-0.0925 0.1957,-0.247 0.2365,-0.6161 1.3698,-2.3988 1.9171,-2.3988 0.6332,0 1.1333,1.8338 1.2911,1.8813 0.2369,0.0713 2.8829,-0.5385 6.5873,0.938 1.124,0.448 2.4093,1.1841 3.2714,2.0405 0.8732,0.8676 -0.5195,0.6119 -1.7413,0.6754 -0.3664,0.0297 -1.7357,0.1952 -1.7357,0.4776 0,0.1577 0.3867,0.4706 0.4957,0.611 1.0237,1.3189 1.9363,3.1522 1.661,4.8656zm-10.0508 5.885c0.1595,0.0426 0.3496,0.2219 0.664,0.2951 -0.0642,0.0875 -0.295,0.1996 -0.4058,0.2582l-0.2582 -0.5534zm0.7378 -0.5902c0.1385,-0.0115 0.1727,-0.0534 0.2582,-0.1107 0,0.1964 0.0333,0.2064 0.0369,0.3689 -0.1062,-0.0711 -0.2247,-0.153 -0.2951,-0.2582zm-0.1476 -0.1475c-0.0889,-0.0652 -0.2559,-0.3072 -0.3316,-0.4062 -0.5393,-0.706 -0.7127,-0.623 -0.306,-1.043 0.0993,-0.1026 0.0857,-0.1329 0.2688,-0.137 0.0171,0.2058 0.3572,1.0612 0.3689,1.5862zm-2.5822 -0.2951c0.2465,0.0575 0.3019,0.2932 0.3957,0.5265 0.0884,0.2562 0.5752,1.9382 0.6003,2.2401 -0.2642,-0.0705 -0.8055,-2.3402 -0.996,-2.7666zm-0.9464 3.3758c0.0391,-0.0618 0.065,-0.1365 0.0651,-0.2768 0.0003,-0.3758 -0.2617,-0.6194 -0.6294,-0.6302 -0.3946,-0.0115 -0.3077,0.0558 -0.555,0.1134 0.0392,-0.1683 0.0738,-0.2268 0.0738,-0.4426 0.6159,-0.0513 0.5854,-0.852 0.6736,-0.9864 0.106,-0.1616 0.0446,0.0114 0.2118,-0.3785 0.0084,0.3785 0.5165,2.0926 0.5165,2.4715 -0.1438,0.0885 -0.3568,0.1942 -0.4688,0.3125 -0.1281,0.1355 -0.3371,0.3029 -0.3796,0.4622 -0.1206,-0.0322 -0.1598,-0.0926 -0.2213,-0.1844 0.1637,-0.0382 0.6148,-0.3046 0.7136,-0.4606zm-2.3995 4.3223l0.33 -0.0737 -0.0604 -0.1906 0.268 0.0742c0.2231,-0.6261 0.9476,-0.5761 1.1439,-0.978 -0.4574,-0.144 -0.6496,0.2486 -1.3792,0.6785 -0.2,0.1179 -0.2778,0.1715 -0.3023,0.4896zm9.3887 1.1547c0.0709,0.6006 0.4235,0.1256 0.4815,0.3778l-0.3204 -0.0013c-0.0003,0.1385 0.0937,0.2655 0.1776,0.3628l0.111 0.2171c0.301,-0.0785 0.2981,-0.5806 0.1802,-0.8773 -0.0905,-0.2279 -0.252,-0.6363 -0.363,-0.836 -0.0909,-0.3796 -0.218,-0.7838 -0.6657,-0.7766 -0.0832,0.2055 -0.1001,0.3971 -0.0344,0.5616 0.1675,0.4197 0.3367,0.1543 0.4333,0.972zm-2.1585 -2.3145c0.374,0.0459 0.6504,0.1171 0.9977,0.1765l0.3056 0.1023c0.031,-0.2112 -0.1493,-0.2869 -0.3279,-0.5365 -0.0826,-0.1156 -0.1412,-0.231 -0.1822,-0.1879 -0.1203,0.1262 -0.687,0.3932 -0.7933,0.4456zm-3.2237 -0.1655c-0.2264,-0.0401 -0.6087,-0.0622 -0.8356,-0.0162 0.0462,0.0905 0.0124,0.0461 0.1387,0.0966 0.3245,0.1299 0.4849,0.2421 0.6003,0.2882 0.0111,0.0154 0.5801,0.5036 0.7105,0.4749 0.0171,-0.049 0.0204,-0.1203 0.0194,-0.1609 0.0311,0.0495 0.0838,0.1242 0.0919,0.1807 0.1028,-0.0314 0.6077,-0.2663 0.6673,-0.3749 -0.1592,-0.0828 -0.4827,-0.1015 -0.6803,-0.0645 -0.0155,0.0557 -0.0717,0.1197 -0.093,0.1764 -0.014,-0.0592 -0.0334,-0.1221 -0.0432,-0.2021 -0.5289,-0.1553 -0.3375,-0.2769 -0.5761,-0.3985zm-0.873 1.8027c-0.2245,-0.2313 -0.737,-0.4526 -1.1411,-0.5878 -0.6073,-0.2031 -0.8238,-0.1674 -1.4135,0.0104 -0.6125,0.1834 -1.5222,0.4532 -2.0522,0.8015 -0.3715,0.2441 -0.9502,0.8922 -0.5019,1.3115 0.2069,0.1935 0.6567,0.3053 1.0018,0.365 0.8996,0.1557 1.7222,0.0491 2.6118,0.0748 0.5134,0.014 1.6788,-0.0271 2.0437,-0.2771 0.0225,-0.1384 0.0174,-0.6164 -0.0585,-0.7037 0.0168,-0.359 -0.317,-0.8635 -0.4901,-0.9946zm5.8573 0.6232c-0.3668,-0.2911 -1.2228,-0.3109 -1.7484,-0.2784 -0.9551,0.0545 -2.2004,0.1651 -2.8908,1.2321 -0.4632,0.7156 -0.9544,1.4701 0.1673,2.0962 1.1607,0.6479 3.9396,0.5085 5.1796,0.0735 0.474,-0.1662 0.5806,-0.4217 0.4205,-0.9905 -0.1317,-0.4682 -0.75,-1.9008 -1.1282,-2.1329zm-3.6075 -15.465c0.6317,0.0509 0.9274,0.0006 0.9978,-0.6207 0.0619,-0.5465 0.0159,-1.115 -0.1577,-1.6346 -0.1347,-0.0005 -0.1943,0.0582 -0.2504,0.1437 -0.1642,0.2506 -0.3532,0.436 -0.5529,0.6588 -0.1484,0.1655 -0.2911,0.3304 -0.3966,0.4752 -0.0467,0.0636 -0.0875,0.1508 -0.1179,0.2499 0.0043,-0.0313 0.0053,-0.0611 0.0021,-0.0883 -0.1021,0.0157 -0.6464,0.2984 -0.7323,0.3629 0.0295,0.1669 0.3576,0.3435 0.5496,0.2582 0.0264,-0.1014 0.1005,-0.2511 0.1464,-0.3926 -0.0256,0.1384 -0.0302,0.2882 -0.0037,0.4249 0.1468,0.1068 0.3376,0.1493 0.5156,0.1625zm1.543 15.099c2.0719,-0.1516 2.0645,0.3589 2.3547,0.5196 0.0728,-0.1521 -0.0225,-0.3537 -0.09,-0.52 -0.1436,-0.3539 -0.4751,-0.5482 -0.6407,-0.7264 -0.1043,-0.1124 -0.2539,-0.2107 -0.3183,-0.3123 0.3014,0.0896 0.3158,0.2227 0.4998,0.3737 0.1138,-0.1752 0.134,-0.5202 0.0026,-0.6874 -0.0895,-0.1139 -0.3579,-0.2065 -0.5461,-0.2672 -0.6645,-0.2143 -1.4631,-0.2252 -2.1587,-0.0145 -0.1362,0.0412 -1.118,0.4861 -1.1202,0.486 -0.1418,0.0512 -0.2468,0.1323 -0.3218,0.2435 0.008,-0.0232 0.0141,-0.0477 0.0176,-0.0739 -0.2513,-0.1776 -0.5237,-0.5454 -0.9469,-0.7438 -0.1925,-0.1906 -1.1197,-0.4655 -1.3988,-0.3828 -0.1267,0.0375 -0.5135,0.412 -1.0116,0.6484 -0.2045,0.097 -0.411,0.2092 -0.4139,0.4326 0.2409,-0.011 0.3175,-0.1046 0.6463,-0.097 0.418,0.0642 1.407,0.4925 1.6768,0.7731 0.4821,0.501 0.5053,0.721 0.5988,1.359 0.0131,0.2646 0.008,0.448 0.2385,0.4625 0.0775,-0.0774 0.1734,-0.9232 0.2494,-1.1914 0.0386,-0.2744 0.044,-0.4391 0.0625,-0.7113 0.0376,-0.1472 0.1386,-0.2412 0.2136,-0.3483 -0.0661,0.1588 -0.0923,0.3611 -0.0905,0.6071 0.0039,0.5357 -0.1913,0.8143 -0.1667,1.3799 0.0853,-0.0509 0.1544,-0.1441 0.2129,-0.2124 0.6152,-0.7177 1.5005,-0.9851 2.4509,-0.9969zm-5.5571 -16.9251c-0.0078,-0.0365 -0.0139,-0.1103 -0.0136,-0.1671 0.0004,-0.0569 0.0071,-0.0968 0.019,-0.1113 0.0119,-0.0145 0.0288,-0.0037 0.046,0.025 0.0173,0.0288 0.0348,0.0754 0.047,0.1144 0.0122,0.0389 0.0189,0.07 0.0243,0.0941 0.0054,0.024 0.0095,0.041 0.0115,0.0494 0.002,0.0084 0.002,0.0084 -0.0162,0.0122 -0.0183,0.0037 -0.0691,0.0183 -0.0921,0.0223 -0.023,0.0041 -0.0183,-0.0024 -0.026,-0.0389zm2.3888 19.7684c-0.0613,0.1095 -0.1021,0.3427 -0.0652,0.5106 0.0917,0.417 0.6438,0.6548 1.0036,0.7751 0.6678,0.2231 1.3431,0.2881 2.0432,0.3207 0.7013,0.0328 2.5905,-0.0442 3.1806,-0.4018 0.1693,-0.1025 0.5782,-0.4334 0.3607,-0.7642 -0.1981,0.0004 -0.0717,0.0024 -0.1171,0.0647 -0.4628,0.4369 -2.261,0.6331 -3.0552,0.6368 -0.7311,0.0035 -1.8594,-0.0429 -2.6006,-0.4427 -0.413,-0.2228 -0.6007,-0.5537 -0.7501,-0.6993zm-5.9673 -1.2099c0.1842,0.3424 0.7515,0.4494 1.102,0.5142 0.9028,0.1669 2.6853,0.1041 3.6404,0.0597 1.1275,-0.0524 1.265,0.0362 1.4029,-0.5321 -0.6399,0 -1.2678,0.1077 -1.9173,0.1198 -0.9647,0.018 -1.9954,0.0757 -2.9447,-0.0562 -0.8357,-0.116 -1.0182,-0.2542 -1.2802,-0.5151 -0.0609,0.1653 -0.0967,0.2357 -0.0031,0.4098zm14.1292 -8.5247c-0.7958,0.1019 -1.8555,0.3662 -2.4076,0.7517 -0.1644,0.1148 -0.2619,0.3786 -0.2816,0.66 -0.0017,-0.0155 -0.0048,-0.0296 -0.0095,-0.0421 -0.1152,0.0337 -0.1858,0.173 -0.3455,0.2775 0.2067,-0.2045 0.3251,-0.7776 0.0952,-1.103 -0.4177,-0.5913 -1.553,-0.6458 -2.2409,-0.595 -1.0316,0.0762 -1.4492,0.4086 -1.1593,1.5232 0.1225,0.4711 0.2943,0.5464 0.8373,0.5935 0.592,0.0513 1.8391,0.0473 2.3596,-0.3244 -0.1774,0.2137 -0.5768,0.3602 -1.2216,0.42 -0.2631,0.0244 -0.4871,-0.0257 -0.5871,0.1705 0.0885,0.1593 0.3718,0.2421 0.5935,0.3065 0.3032,0.1034 0.5699,0.161 0.9196,0.1794 0.4166,0.022 0.6945,-0.0165 0.7235,-0.4167 0.221,-0.1148 0.0894,-0.1908 0.0048,-0.3517 -0.0639,-0.1216 0.0058,-0.3517 0.0267,-0.523 0.0009,0.1585 0.0266,0.3171 0.079,0.4527 0.1642,0.4247 0.7958,0.4101 1.1964,0.4122 0.447,0.0024 1.1386,-0.035 1.6928,-0.1797 -0.0867,0.0787 -0.1302,0.163 -0.2723,0.176 -0.4805,0.0438 -1.2869,0.2316 -2.2177,0.0056 -0.2473,-0.0601 -0.2968,-0.0591 -0.4105,0.1319 -0.1042,0.1752 -0.1259,0.3493 -0.0801,0.5764 0.1733,0.8581 1.7201,1.0694 2.4738,1.0039 0.7041,-0.0611 1.1422,-0.7614 0.986,-1.4337 -0.052,-0.2237 -0.092,-0.4614 -0.279,-0.5194 0.2853,-0.0959 0.5135,-0.2275 0.6193,-0.4064 0.1964,-0.3324 0.1051,-0.9543 -0.0459,-1.2892 -0.1858,-0.4123 -0.493,-0.528 -1.049,-0.4568zm-10.978 -1.388c-0.1759,0.0218 -0.3906,-0.0294 -0.5093,-0.1163 0.1033,-0.032 0.0998,0.0197 0.2064,-0.0596 -0.214,-0.1903 -0.6887,-0.3195 -0.9703,-0.2951 -0.3334,0.0289 -0.6045,0.2126 -0.3847,0.6884 0.1198,-0.0083 0.2363,-0.036 0.3358,-0.1125 -0.1784,-0.1335 -0.1913,-0.2455 0.0316,-0.1716 0.19,0.0631 0.4,0.1911 0.4,0.1911 -0.2445,-0.0752 -0.3777,0.0693 -0.5709,0.1339 -0.3432,0.1146 -0.6192,0.2123 -0.9325,0.3593 -0.5835,0.2739 -0.9954,0.7398 -1.2967,1.2878 -0.3652,0.6646 -0.5899,1.1918 -0.3209,2.0317 0.558,1.7423 1.1208,0.5024 1.1505,0.3323 0.0432,-0.6897 -0.186,-0.2753 -0.5418,-0.4979 -0.5309,-0.332 -0.081,-0.9159 0.1248,-1.1599 0.7467,-0.8851 0.4038,-1.4073 0.8755,-1.4769 -0.1077,0.4682 -0.5109,1.1993 -0.7529,1.5261 -0.1298,0.1752 -0.4194,0.4449 -0.3183,0.7772 0.087,0.2861 0.4854,0.3647 0.8002,0.2215 0.5247,-0.2388 0.5421,-1.1007 0.9787,-1.3101 0.2569,-0.1233 0.7222,-0.0433 1.0129,-0.1296 0.3989,-0.1184 0.3045,-0.4542 0.5604,-0.5486 -0.1125,0.6915 -0.5761,0.6769 -0.9795,0.6894 -0.2852,0.0088 -0.4878,0.0259 -0.6492,0.193 -0.0994,0.1028 -0.308,0.4115 -0.2343,0.5763 0.03,0.0338 0.0844,0.0526 0.1569,0.059 -0.1049,0.0205 -0.2194,0.0571 -0.3083,0.0586 -0.2333,0.2841 -0.3203,0.2824 -0.3279,0.8045 0.0015,0.7186 0.0374,0.7214 0.4841,1.1751 0.1402,0.1424 0.2509,0.3017 0.4861,0.3661 0.3777,0.1033 0.5834,-0.2553 0.5944,-0.5799 0.0042,-0.1248 -0.0647,-0.4524 -0.1368,-0.5522 -0.1893,-0.2618 -0.6838,-0.3531 -0.7554,-0.5051l0.4304 0.1458 -0.205 -0.8574c-0.0179,-0.0316 -0.0445,-0.0503 -0.0769,-0.0601 0.2628,-0.0286 0.6263,-0.1373 0.9532,-0.2707l-0.5092 0.2965c-0.0174,0.3913 0.2565,0.8904 0.4698,1.0988 0.295,0.2882 0.7365,0.4195 1.1492,0.4707 0.8877,0.11 0.5628,-1.0025 -0.1998,-1.0897 -0.1373,-0.0157 -0.2241,0.0088 -0.3402,0.0522 -0.0758,0.0236 -0.2026,0.0878 -0.2742,0.0521 0.12,-0.1391 0.1879,-0.0928 0.3066,-0.1844 -0.0521,-0.2117 -0.2385,-0.6561 -0.402,-0.7832 0.1943,-0.09 0.3621,-0.1854 0.4678,-0.2717l-0.295 0.3171c0.0172,0.1426 0.1809,0.7294 0.5423,0.7095 0.2492,-0.0137 0.8141,-0.243 0.9475,-0.3544 0.5096,-0.4256 -0.3196,-1.1544 -0.989,-0.437l-0.1882 0.1677c0.0893,-0.1728 0.1447,-0.3873 0.1037,-0.4821 -0.0153,-0.0352 -0.0261,-0.0166 -0.0104,-0.0476 0.1291,-0.255 0.0764,-0.9385 -0.0279,-1.1955 -0.2286,-0.3329 -0.4544,-0.6835 -0.7428,-0.9442 0.0264,0.0075 0.0675,0.0357 0.1052,0.0668l0.6509 0.6415c0.1618,0.1487 0.3101,0.2557 0.3119,0.5594 -0.1713,-0.0433 -0.061,-0.0397 -0.1824,-0.0764 0.0003,0.1445 0.0017,0.1956 0.0801,0.303 0.3123,0.0015 0.5876,-0.3781 0.5794,-0.7187 -0.0092,-0.3799 -0.4627,-0.5929 -0.4743,-0.8312 0.4243,0.199 0.2466,0.3789 0.5025,0.5355 0.3386,-0.1119 0.2034,-0.5438 0.0474,-0.7838 -1.028,-1.5812 -2.0796,-1.1206 -2.0739,-0.585 0.2796,0.0463 1.0344,0.3594 1.1348,0.6008zm1.2436 3.7898c-0.314,0.4674 -0.2961,1.2027 1.0497,1.2548 0.213,0.0089 0.2977,-0.0495 0.3886,0.1141 -0.2608,0.1268 -0.8402,-0.0936 -1.133,-0.1484 -0.087,0.1203 -0.2973,0.3675 -0.3097,0.598 -0.0208,0.3854 0.3318,0.4365 0.6262,0.483 0.3427,0.0541 0.9002,-0.0267 1.2106,-0.0137 0.0506,-0.8133 0.1272,-0.4811 0.2702,-0.9071l-0.3885 -0.1548c-0.0493,-0.152 -0.7849,-0.596 0.2482,-1.2311 0.0562,-0.0346 0.1161,-0.057 0.1762,-0.0764 -0.1836,0.1046 -0.4628,0.3886 -0.5409,0.6419 -0.2633,0.8542 1.6061,0.7864 1.5449,1.3469 -0.2522,-0.0691 -0.4563,-0.4682 -0.9442,-0.4574 -0.164,0.252 -0.3768,0.7119 -0.1322,1.0414 0.3425,0.4614 1.639,0.2796 2.5147,0.0891 1.6306,-0.3548 1.849,-1.7659 0.9268,-1.5227 -0.2125,0.0811 -0.3821,0.1763 -0.5989,0.2597 -0.203,0.0781 -0.5061,0.1229 -0.5801,0.31 0.2491,0.3691 0.6311,0.0212 0.7984,-0.0244 -0.3414,0.6417 -1.0579,0.1785 -1.0881,-0.0621 0.1522,-0.1492 0.5546,-0.2274 0.8071,-0.3041 0.1351,-0.0318 0.904,-0.3258 0.9693,-0.4199 0.0516,-0.0744 0.0684,-0.1825 -0.0003,-0.2423 -0.061,-0.0533 -0.2712,-0.1222 -0.3545,-0.1376 -0.3732,-0.1107 -0.6839,-0.2101 -0.8248,-0.4673 -0.3146,-0.0252 -0.3673,0.0126 -0.4932,0.1817 -0.542,0.3446 -1.3863,0.573 -2.1023,0.2954 0.012,-0.1998 0.1701,-0.2224 0.2773,-0.27 -0.0611,0.0602 -0.097,0.1397 -0.097,0.2015 0.1195,0.0686 0.2086,0.0719 0.3606,0.0139l-0.0853 -0.303c-0.0356,0.0036 -0.0687,0.0141 -0.0987,0.0295 0.0875,-0.1208 -0.0193,-0.235 -0.1286,-0.2407 0.0628,-0.0208 0.1232,-0.0454 0.1769,-0.0847 -0.0046,-0.1341 -0.059,-0.4105 -0.098,-0.5366 -0.0582,-0.1879 -0.139,-0.1893 -0.3329,-0.1993l0.1169 0.4561 0.1371 -0.1484c0.0562,0.3037 -0.026,0.3467 -0.2054,0.4727 -0.1535,0.1078 -0.2929,0.2133 -0.4805,0.2935 -0.3354,0.1433 -0.9401,0.25 -1.2351,0.0573 0.1177,-0.246 0.0896,-0.2086 0.3185,-0.3578 -0.0664,0.0741 -0.116,0.1795 -0.1434,0.2842 0.1185,0.0809 0.2096,0.0869 0.3445,0.0455 0.0233,-0.0624 0.0137,-0.0876 -0.0029,-0.1518 -0.0175,-0.068 -0.0589,-0.2105 -0.0937,-0.2584 -0.0127,0.0059 -0.0252,0.0129 -0.0372,0.021 0.0353,-0.0481 0.0259,-0.1819 -0.0057,-0.3078 -0.1868,-0.0296 -0.6119,0.3645 -0.7276,0.5367zm5.2737 -2.5606c0.5885,0.041 1.4181,0.1849 1.6708,0.6906 0.048,0.0961 0.0477,0.1767 0.1254,0.2561 0.6372,-0.7538 2.6939,-0.8696 2.8471,-1.023l1.0734 -1.2158c0.6335,-0.7201 1.5189,-1.6484 1.5888,-2.7084 0.0467,-0.7074 -0.3152,-1.7359 -1.0687,-1.4185 -0.4243,0.1787 -0.832,1.1362 -1.0486,1.5705 -0.1592,0.3191 -1.4863,2.4966 -1.8126,2.7614 -0.0813,0.066 -0.1769,0.0985 -0.2741,0.1376 0.1366,-0.1379 0.2336,-0.3789 0.2982,-0.4745 -0.095,-0.2812 -0.6582,-0.8148 -0.7714,-0.6434 -0.1177,0.0914 -0.1281,0.438 -0.1334,0.5864 -0.0201,0.5672 0.3347,0.5882 0.7119,0.7844 0.1341,0.0632 0.1743,0.0704 0.2334,0.1921 -0.2606,0.0082 -1.1178,-0.2333 -1.115,-0.9139 0.0054,-1.3379 1.192,-3.9641 0.0761,-5.1137 -0.457,-0.4708 -1.0858,-0.055 -1.2924,0.3381 -0.3523,0.6702 -0.2716,2.7727 -0.3829,3.7133 -0.1205,1.0177 -0.2848,1.0778 -0.4245,1.6678 0.3965,-0.0268 1.3425,-0.2708 1.6505,0.032 -0.8551,-0.0175 -1.6121,-0.1726 -2.2445,0.4524 -0.0717,0.0709 -0.1097,0.0978 -0.1255,0.176 -0.0686,-0.1725 -0.0294,-0.1572 0.1126,-0.3167 0.1066,-0.1198 0.2169,-0.1797 0.3331,-0.2772 0.201,-0.1687 0.5403,-1.1833 0.5026,-1.5004 -0.3667,-0.0233 -0.9244,0.321 -1.1041,0.4941 -0.2808,0.2704 -0.4359,0.8758 -0.2562,1.0977 0.2064,-0.0553 0.3965,-0.3191 0.5614,-0.4479 0.0943,-0.0671 0.1943,-0.1206 0.338,-0.058l-0.32 0.2459c-0.1268,0.0867 -0.223,0.1553 -0.3484,0.2426 -0.2267,0.1577 -0.416,0.5589 -0.1742,0.6395 0.0034,0.0011 0.7293,0.0301 0.7733,0.0331zm-7.5664 -9.8899c0.0645,-0.0488 0.2321,-0.0578 0.318,-0.0692 -0.4333,-0.2575 -0.6639,0.0434 -0.5377,0.261 0.0716,0.1234 0.1353,0.2148 0.3544,0.3253 0.054,0.0272 -0.0656,-0.0996 -0.1593,-0.2065 -0.0895,-0.1021 -0.0921,-0.2224 0.0246,-0.3107zm0.781 0.6724c0.0051,0.1497 0.0982,0.3815 0.18,0.4615 0.2078,-0.0201 0.2913,-0.277 0.2686,-0.4677 -0.0531,0.0087 -0.3012,0.0067 -0.4485,0.0062zm0.4358 -0.5586c-0.0024,-0.166 -0.006,-0.5725 -0.0235,-0.6898 -0.0217,-0.1449 -0.1085,-0.3351 -0.1568,-0.4889 -0.0617,-0.196 -0.0552,-0.5008 -0.2022,-0.6396 -0.1833,0.0547 -0.2041,0.3192 -0.2246,0.4847 -0.0498,0.3818 -0.0751,0.6952 -0.0245,1.0884 0.2049,0.103 0.3977,0.2272 0.6317,0.2454zm3.3005 -0.9874c0.0963,-0.1556 -0.0047,-0.595 -0.0526,-0.6237 -0.0598,-0.0028 -0.1257,0.0805 -0.1236,0.2664 0,0.1091 0.0852,0.3128 0.1763,0.3573zm-2.7145 0.8236c0.4266,-0.1777 0.7129,-0.2447 1.219,-0.159 0.3117,0.0528 0.7242,0.2039 1.0298,0.0571 0.3285,-0.1578 -0.1011,-0.3357 -0.0949,-1.3378 0.0086,-1.413 1.0711,-1.8103 0.9155,0.7523 0.4153,-0.2082 0.4998,-1.558 0.5141,-2.0753 -0.0211,-1.3119 -1.1051,-1.5739 -1.8224,-1.1864 -1.2639,0.6828 -1.049,3.04 -1.4775,3.4667 -0.0585,0.0904 -0.1834,0.1 -0.3564,0.1866 0.0535,0.1555 0.0193,0.2366 0.0729,0.2958zm2.8594 -5.3546l-0.0925 0.1996c0.2059,0.032 0.3969,0.1195 0.5345,0.2214 0.2326,0.1723 0.1172,0.1987 0.5067,0.2469l0.5517 0.1434c0.0217,-0.1458 -0.015,-0.1907 -0.0644,-0.3144 -0.0208,-0.0521 -0.0424,-0.1195 -0.06,-0.1608 -0.1463,-0.3448 -0.345,-1.0951 -0.5929,-1.3123 -0.2402,0.0071 -0.3034,0.1811 -0.4346,0.363 -0.1632,0.2263 -0.2219,0.3969 -0.3485,0.6133zm-2.5218 13.9348c-0.0561,-0.6232 0.013,-1.336 0.0924,-1.8457 0.027,-0.1731 0.2114,-0.4386 0.2998,-0.6209 -0.0796,0.4656 -0.0079,0.8748 0.4019,0.8937 0.297,0.0137 0.7908,-0.2334 1.0214,-0.4111 0.3626,-0.2793 0.7877,-0.8054 0.9863,-1.0506 0.305,-0.3766 1.013,-1.3378 0.5579,-1.8014 -0.175,-0.1783 -0.4572,-0.2024 -0.7293,-0.1531 -0.0839,0.0152 -0.1299,0.025 -0.2132,0.0546 0.1543,-0.0963 0.3243,-0.203 0.5652,-0.2389 0.3934,-0.0586 0.837,-0.0658 1.133,-0.045 0.5373,0.0253 1.0329,-0.6677 1.2969,-1.0704 0.746,-1.1378 0.6456,-2.894 -0.2202,-3.5526 -0.5507,-0.4189 -1.3567,-0.2781 -1.7897,0.1036 -0.3267,0.2869 -0.7477,0.7409 -1.0798,0.9492 -0.3457,0.2169 -0.5898,0.2501 -0.7917,0.2319 -0.1861,-0.0168 -0.669,-0.1385 -0.9963,-0.1626 -0.418,-0.0308 -0.4772,0.0337 -0.8626,0.2258 0.268,0.3431 0.1132,0.5393 -0.4651,0.6219 -0.1781,0.3718 -0.0147,0.4203 -0.3058,0.5665 -0.2722,0.1366 -0.1228,0.3411 -0.0036,0.5485 0.5459,0.9497 1.9353,1.8471 2.9893,1.8445 0.1211,-0.0003 0.2139,0.0477 0.3285,0.0413 -0.1823,0.0798 -0.3238,0.1897 -0.4937,0.3207 -0.5462,0.4211 -1.0034,1.057 -1.2111,1.5856 -0.0438,0.1113 -0.1008,0.2695 -0.1153,0.4184 -0.0119,0.0071 -0.0181,-0.0492 -0.0346,-0.0356 -0.2929,0.2426 -1.2716,1.4594 -1.4175,1.6279 0.3118,0.1795 0.8962,0.6627 1.057,0.9539zm4.5602 -3.5978c0.206,0.5772 0.3752,1.0184 0.484,1.6231 0.0912,0.5067 0.1543,1.019 0.2158,1.1512 0.0978,-0.0262 0.6867,-0.2045 0.7361,-0.2849 0.0483,-0.0929 0.0805,-1.018 0.0792,-1.1366 -0.0094,-0.8411 -0.2561,-1.1764 -0.7292,-1.8848 -0.1141,-0.1709 -0.8437,-1.1764 -1.0746,-0.5694 -0.1299,0.1641 0.2138,0.8911 0.2887,1.1014zm-0.2287 -2.5511c-0.1686,0.246 -0.43,0.1844 -0.5739,-0.0337 0.2937,0.1142 0.2484,0.1177 0.5739,0.0337zm-3.1529 -0.7833c0.1287,-0.0838 0.428,-0.1408 0.5862,-0.2 1.0476,-0.3913 1.5018,-0.9173 2.1277,-1.7833 0.3402,-0.4708 0.6866,-0.4368 0.8781,0.006 -0.1397,-0.0677 -0.2177,-0.177 -0.4405,-0.1586 -0.004,0.5738 0.641,2.3642 -0.4714,2.4788 -0.8465,0.0872 -1.8388,-0.4289 -1.9955,-0.4386 -0.2302,-0.0143 -0.4311,0.1158 -0.6847,0.0958zm0.6363 -6.8987c0.049,0.1012 0.3656,0.0918 0.4547,0.0422 0.1578,-0.088 0.6459,-1.2605 1.0353,-1.3616 0.2483,0.1469 0.4042,0.7136 0.5256,1.0258 0.0748,0.1922 0.4218,0.9704 0.4078,1.0799 -0.0777,0.0592 -0.1158,0.0543 -0.2152,0.0271 -0.133,-0.0364 -0.4556,-0.2149 -0.6669,-0.1331 0.3278,0.5401 0.406,0.9065 0.3432,1.6971l-0.0695 -0.3025c0.0958,-0.9549 -0.5738,-1.8841 -1.4681,-1.8902 -0.5343,-0.0036 -0.8962,0.2531 -1.1565,0.5154 -0.1382,0.1393 -0.3299,0.3364 -0.48,0.5616 -0.1535,0.2303 -0.3178,0.62 -0.3991,0.8857 -0.0232,0.076 -0.0425,0.1509 -0.0608,0.2314l-0.0261 -0.2483c0.1107,-0.2124 0.2273,-0.5547 0.2586,-0.8074 -0.3316,0.1034 -0.7267,0.4654 -0.963,0.7572 -0.11,0.1359 -0.2658,0.2888 -0.2967,0.4543 -0.0369,0.1976 0.0389,0.4824 0.0485,0.7182 -0.0717,-0.3265 -0.1299,-1.1377 -0.6467,-0.8006 -0.4521,0.2949 -0.3292,1.239 -0.1678,1.6649 0.2297,0.0161 0.0262,-0.2676 0.2421,-0.5975 0.0854,-0.1304 0.0925,-0.0842 0.1021,-0.1841 -0.0883,-0.0362 -0.1339,-0.0445 -0.2271,-0.0924 0.3042,-0.1918 0.2674,0.0354 0.4267,0.2095 0.0277,0.2329 0.0526,0.4483 0.1104,0.6772 0.0949,0.3762 0.4481,0.8961 0.8854,0.6139 0.2402,-0.1549 0.2958,-0.534 0.3202,-0.8569 0.1445,-0.897 0.1299,-1.8989 1.0939,-2.5946 1.0862,-0.7839 2.1944,0.0544 2.1355,1.3885 -0.0315,0.7139 -0.2054,1.1742 -0.2019,1.3203l0.0247 0.1259c0.1794,-0.0273 0.4055,-0.4642 1.1519,-0.4976 1.3816,-0.0619 1.7749,1.493 1.6755,2.5996 -0.1085,1.2087 -1.0802,2.0385 -1.3617,2.3965 0.3824,0.0614 1.1364,-0.5453 1.3453,-0.721 0.6016,-0.506 0.7501,-1.0368 1.0852,-1.3812 -0.2212,0.8611 -1.0457,1.5994 -1.7651,2.0652 -0.1458,0.0945 -0.1506,0.0713 -0.2056,0.1662 0.0265,0.0547 0.8394,0.7167 1.0684,1.0631l0.0487 -0.2948c0.0752,-1.1186 1.3114,-1.8187 1.9264,-0.7109 0.2617,0.4714 0.3625,0.9817 0.304,1.5857l-0.206 1.2374c-0.0629,0.2888 0.0711,0.3635 0.2426,0.5985 0.0764,0.1048 0.3224,0.5822 0.4631,0.5674 0.1701,-0.018 0.3417,-0.4683 0.3894,-0.6234 0.3004,-0.9751 0.3183,-2.4157 0.1837,-3.4077 -0.1579,-1.1635 -0.4811,-2.2204 -1.199,-3.1606 -0.0788,-0.1032 -0.3603,-0.3771 -0.365,-0.4092 0.2523,-0.0301 0.3525,0.0045 0.7437,0.1363 1.3313,0.4486 1.2787,1.0143 1.6773,2.1546 0.4076,0.1941 1.3579,0.8511 1.8555,1.2741 0.3052,0.2594 0.6281,0.5257 0.7411,0.5509 0.4933,-1.2201 -0.1459,-3.0497 -0.7146,-4.0285 -0.5873,-1.0108 -1.3862,-1.9109 -2.4165,-2.4794 -0.9113,-0.5028 -1.9067,-0.8192 -2.2733,-1.0925 0.3435,-0.1894 0.92,-0.1036 1.2989,-0.0476 0.7148,0.1057 1.5889,0.362 2.2086,0.7071 0.2517,0.1402 0.6686,0.5041 0.8295,0.5701 0.8932,-0.17 1.577,-0.1476 2.404,-0.1974 0.4509,-0.0329 0.0262,-0.3797 -0.0995,-0.4819 -1.8634,-1.5136 -4.2457,-2.5032 -6.6443,-2.7133 -0.9273,-0.0812 -1.8422,-0.1194 -2.7757,0.0607l0.1099 0.251c0.3045,-0.0621 0.5757,-0.0387 0.8408,-0.0795 -0.2208,0.3296 -0.4659,0.4707 -0.3886,1.0472 -0.1187,-0.0685 -0.2726,-0.4086 -0.3417,-0.5429 -0.2905,-0.5655 -0.5542,-1.1021 -0.8282,-1.6824 -0.1458,-0.3087 -0.4368,-1.0061 -0.8195,-0.7775 -0.194,0.1159 -0.7621,0.7497 -1.1376,1.3061 -0.0576,0.0854 -0.4593,0.7858 -0.421,0.865zm-0.2205 15.4085c-0.1479,-0.4372 -0.2768,-0.8805 -0.41,-1.3223 -0.0671,-0.2224 -0.0198,-0.3958 -0.0474,-0.4698l-0.2879 -0.1232c0.1734,-0.0137 0.4664,0.0594 0.6135,0.1288 0.6003,0.2834 1.0747,3.5499 1.3439,4.1356 0.2651,0.6309 0.8668,0.3936 1.3377,0.137 0.083,-0.2835 0.0749,-0.3732 -0.2467,-0.4448 -0.3258,-0.1601 -0.4001,-0.261 -0.4851,-0.6491 -0.0478,-0.2182 -0.078,-0.445 -0.0653,-0.6775 0.0436,-0.7408 0.1403,-0.255 -0.1892,-1.1748 -0.1331,-0.3714 -0.2774,-0.7537 -0.3911,-1.1567 -0.0797,-0.2826 -0.0987,-0.4931 -0.0743,-0.6587 0.0135,0.4783 0.4169,1.3098 0.7995,1.5983 0.1741,0.1313 0.6695,0.3884 0.9448,0.3564l0.0337 -0.2491c-0.0633,-0.0926 -0.3382,-0.2798 -0.4526,-0.3788 -0.3069,-0.2657 -1.0996,-1.3605 -1.3,-1.4409 0.1147,-0.3733 0.4883,-0.4935 0.8277,-0.8196 0.3952,-0.3797 0.602,-0.7606 0.9242,-1.148 -0.1535,0.3625 -0.5251,0.9849 -0.837,1.1911l0.2518 0.7624c0.0465,0.2052 0.1495,0.8448 0.2318,0.9489 0.2297,-0.0503 0.3955,-0.414 0.5137,-0.6274 0.2029,-0.3664 0.3019,-0.6163 0.3638,-1.0228 -0.0664,-1.2137 -0.7258,-2.1553 -0.8405,-2.9901 0.0097,-0.2931 0.1056,-0.4507 0.392,-0.4424 0.1802,0.0224 0.3536,0.1396 0.4432,0.2489 0.3515,0.4506 0.5727,0.7056 0.9076,1.2095 0.1453,0.2187 0.2339,0.412 0.2925,0.1467 0.0156,-0.4949 -0.1293,-0.5949 -0.352,-0.8602 -0.1818,-0.2164 -0.3916,-0.3963 -0.6291,-0.5869 -0.3903,-0.3133 -0.8971,-0.3779 -1.4498,-0.3599 -0.1503,0.0049 -0.6257,0.0257 -0.6692,0.1126 0.3768,0.1235 0.379,0.124 0.5342,0.4467 -0.0018,0.6511 -0.3934,1.1689 -0.7528,1.6372 -0.4588,0.5981 -1.3502,1.6678 -2.1667,1.519 -0.409,-0.0745 -0.2654,-0.2853 -0.4233,-0.4025 -0.1851,0.2646 -0.1778,1.2341 -0.1276,1.5776 0.0535,0.3661 0.9412,3.9089 1.0634,4.2552 0.3916,0.0073 0.7558,-0.1593 1.0034,-0.4657 -0.1201,-0.6068 -0.4223,-1.3424 -0.6248,-1.9408zm-3.4907 -12.5669c0.1239,-0.3572 0.2598,-0.8042 0.8845,-0.4726 0.0902,-0.1764 0.2749,-0.3437 0.408,-0.4745 0.1194,-0.1174 0.6379,-0.475 0.4328,-0.653 -0.3296,-0.1718 -0.6563,-0.361 -0.9851,-0.5387 -0.2947,-0.1592 -1.2334,-0.7536 -1.3732,-0.257 -0.1141,0.4049 0.2938,2.1232 0.633,2.3957z"/>
  <path class="fil0" d="M41.7563 11.4894c-0.192,1.1949 -0.5132,0.7053 -0.7637,0.4343 -0.347,-0.3755 -0.7207,-0.703 -1.1295,-1.01 -0.191,-0.1436 -1.8337,-1.2671 -1.9753,-0.8664 -0.0224,0.0633 0.7628,3.0147 -0.0691,5.1036 -0.5545,1.3923 -0.8029,-0.0881 -1.2071,-0.3587 -0.163,0.6995 -0.1011,0.4444 0.3413,0.8391 0.1439,0.1284 0.2416,0.2744 0.3965,0.3782 0.9303,-1.3473 1.2557,-1.8101 1.9797,-3.2585 0.2426,-0.4854 0.4361,-0.8361 1.0452,-0.8361 0.8205,0 1.5602,1.7857 0.2317,3.5517 -0.5725,0.7612 -0.9775,1.2059 -1.6086,1.9326 -0.098,0.1124 -0.1218,0.0682 -0.1355,0.2333 0.5891,0.0491 0.8484,0.6787 0.8484,1.328 0,0.5089 0.0299,1.036 -0.5902,1.1804 0.0412,0.177 0.1476,0.3644 0.1476,0.5533 0,1.9271 -2.0023,1.6855 -3.1855,1.1198 -0.399,-0.1907 -0.616,-0.4319 -0.7247,-0.8984 -0.3027,0 -0.4501,-0.0369 -0.7378,-0.0369 0.0182,0.2183 0.0769,0.32 0.1278,0.5362 0.0702,0.2985 -0.1057,0.6127 -0.1647,0.8656 0.3073,0.388 0.3035,0.2737 0.5421,0.8228 0.1364,0.3139 0.5697,0.3326 0.7704,0.5576 0.2666,0.299 0.4401,1.0052 0.6303,1.3986 0.4342,0.8983 -0.1689,1.0536 -0.12,1.3359 0.0479,0.2757 0.3343,0.6365 0.3877,1.163 0.0535,0.5279 0.299,0.5811 -0.0487,1.1631 -0.5956,0.9971 -4.4933,0.8154 -5.6251,0.453 -2.1491,-0.6882 -0.9559,-1.8542 -1.2348,-2.028 -0.2081,-0.1296 -6.0819,0.7121 -6.0244,-0.9517 0.0027,-0.0782 0.0435,-0.1949 0.0871,-0.2737 0.2714,-0.491 -0.1325,-0.9817 1.6244,-1.7326 1.2349,-0.5278 -0.1253,-0.2102 1.2765,-0.9736 0.3512,-0.1913 0.4483,-0.5613 0.9086,-0.567 0.4562,-0.0057 0.2891,0.0141 0.5917,-0.146 -0.0746,-0.8969 0.0844,-0.4856 0.2297,-1.0413l-0.1928 -0.1761c-0.1231,0.0825 -0.256,0.2213 -0.4426,0.2213 -0.4902,0 -1.069,-0.232 -1.4387,-0.4795l0.0738 0.5902c0,0.6948 -0.7729,1.114 -1.587,0.0376 -0.3615,-0.478 -0.3312,-0.6689 -0.3312,-1.2918 -0.1243,0.0898 -0.0538,-0.0191 -0.0455,0.1495 0.0453,0.9153 -0.7204,1.4271 -1.1562,0.757 -0.8074,-1.2415 -0.524,-2.3893 0.3157,-3.4893 0.5518,-0.7231 0.8412,-0.7305 1.6237,-1.106 -0.2244,-0.9631 0.2995,-0.5578 0.5547,-0.8471 0.0994,-0.1127 -0.0959,-0.4425 0.5308,-0.5759 1.0299,-0.2193 0.2616,0.4821 1.4312,-0.8558 0.349,-0.3992 0.5566,-0.5858 0.7238,-0.864 0.0883,-0.1469 0.1332,-0.3446 0.2521,-0.5579 0.4914,-0.8821 0.83,-1.0323 1.0447,-1.353 -0.6366,-0.1846 -1.3944,-0.4778 -1.9026,-0.8943 -0.4611,-0.3778 -0.9511,-0.938 -1.0599,-1.4208 -0.0166,-0.0735 0.051,-0.4795 -0.1704,-0.6387 -0.0402,-0.0289 -0.9249,-0.1483 -0.9249,-0.6982 0,-0.6163 0.4367,-0.397 0.7747,-0.3688 -0.0911,-1.0945 -0.1441,-0.524 -0.2747,-1.1639 -0.1332,-0.6531 0.098,-0.6361 -0.1681,-1.1599 -0.2595,-0.5109 -0.5901,-1.4511 -0.5901,-2.2134 0,-1.4728 2.1922,0.5533 2.988,0.5533 0.2712,0 0.5507,-0.5897 1.2072,-0.9692 0.1451,-0.0839 0.1363,-0.0925 0.1957,-0.247 0.2365,-0.6161 1.3698,-2.3988 1.9171,-2.3988 0.6332,0 1.1333,1.8338 1.2911,1.8813 0.2369,0.0713 2.8829,-0.5385 6.5873,0.938 1.124,0.448 2.4093,1.1841 3.2714,2.0405 0.8732,0.8676 -0.5195,0.6119 -1.7413,0.6754 -0.3664,0.0297 -1.7357,0.1952 -1.7357,0.4776 0,0.1577 0.3867,0.4706 0.4957,0.611 1.0237,1.3189 1.9363,3.1522 1.661,4.8656zm-10.0508 5.885c0.1595,0.0426 0.3496,0.2219 0.664,0.2951 -0.0642,0.0875 -0.295,0.1996 -0.4058,0.2582l-0.2582 -0.5534zm0.7378 -0.5902c0.1385,-0.0115 0.1727,-0.0534 0.2582,-0.1107 0,0.1964 0.0333,0.2064 0.0369,0.3689 -0.1062,-0.0711 -0.2247,-0.153 -0.2951,-0.2582zm-0.1476 -0.1475c-0.0889,-0.0652 -0.2559,-0.3072 -0.3316,-0.4062 -0.5393,-0.706 -0.7127,-0.623 -0.306,-1.043 0.0993,-0.1026 0.0857,-0.1329 0.2688,-0.137 0.0171,0.2058 0.3572,1.0612 0.3689,1.5862zm-2.5822 -0.2951c0.2465,0.0575 0.3019,0.2932 0.3957,0.5265 0.0884,0.2562 0.5752,1.9382 0.6003,2.2401 -0.2642,-0.0705 -0.8055,-2.3402 -0.996,-2.7666z"/>
  <path class="fil1" d="M28.7671 19.7173c0.0391,-0.0618 0.065,-0.1365 0.0651,-0.2768 0.0003,-0.3758 -0.2617,-0.6194 -0.6294,-0.6302 -0.3946,-0.0115 -0.3077,0.0558 -0.555,0.1134 0.0392,-0.1683 0.0738,-0.2268 0.0738,-0.4426 0.6159,-0.0513 0.5854,-0.852 0.6736,-0.9864 0.106,-0.1616 0.0446,0.0114 0.2118,-0.3785 0.0084,0.3785 0.5165,2.0926 0.5165,2.4715 -0.1438,0.0885 -0.3568,0.1942 -0.4688,0.3125 -0.1281,0.1355 -0.3371,0.3029 -0.3796,0.4622 -0.1206,-0.0322 -0.1598,-0.0926 -0.2213,-0.1844 0.1637,-0.0382 0.6148,-0.3046 0.7136,-0.4606zm-2.3995 4.3223l0.33 -0.0737 -0.0604 -0.1906 0.268 0.0742c0.2231,-0.6261 0.9476,-0.5761 1.1439,-0.978 -0.4574,-0.144 -0.6496,0.2486 -1.3792,0.6785 -0.2,0.1179 -0.2778,0.1715 -0.3023,0.4896zm9.3887 1.1547c0.0709,0.6006 0.4235,0.1256 0.4815,0.3778l-0.3204 -0.0013c-0.0003,0.1385 0.0937,0.2655 0.1776,0.3628l0.111 0.2171c0.301,-0.0785 0.2981,-0.5806 0.1802,-0.8773 -0.0905,-0.2279 -0.252,-0.6363 -0.363,-0.836 -0.0909,-0.3796 -0.218,-0.7838 -0.6657,-0.7766 -0.0832,0.2055 -0.1001,0.3971 -0.0344,0.5616 0.1675,0.4197 0.3367,0.1543 0.4333,0.972zm-2.1585 -2.3145c0.374,0.0459 0.6504,0.1171 0.9977,0.1765l0.3056 0.1023c0.031,-0.2112 -0.1493,-0.2869 -0.3279,-0.5365 -0.0826,-0.1156 -0.1412,-0.231 -0.1822,-0.1879 -0.1203,0.1262 -0.687,0.3932 -0.7933,0.4456zm-3.2237 -0.1655c-0.2264,-0.0401 -0.6087,-0.0622 -0.8356,-0.0162 0.0462,0.0905 0.0124,0.0461 0.1387,0.0966 0.3245,0.1299 0.4849,0.2421 0.6003,0.2882 0.0111,0.0154 0.5801,0.5036 0.7105,0.4749 0.0171,-0.049 0.0204,-0.1203 0.0194,-0.1609 0.0311,0.0495 0.0838,0.1242 0.0919,0.1807 0.1028,-0.0314 0.6077,-0.2663 0.6673,-0.3749 -0.1592,-0.0828 -0.4827,-0.1015 -0.6803,-0.0645 -0.0155,0.0557 -0.0717,0.1197 -0.093,0.1764 -0.014,-0.0592 -0.0334,-0.1221 -0.0432,-0.2021 -0.5289,-0.1553 -0.3375,-0.2769 -0.5761,-0.3985zm-0.873 1.8027c-0.2245,-0.2313 -0.737,-0.4526 -1.1411,-0.5878 -0.6073,-0.2031 -0.8238,-0.1674 -1.4135,0.0104 -0.6125,0.1834 -1.5222,0.4532 -2.0522,0.8015 -0.3715,0.2441 -0.9502,0.8922 -0.5019,1.3115 0.2069,0.1935 0.6567,0.3053 1.0018,0.365 0.8996,0.1557 1.7222,0.0491 2.6118,0.0748 0.5134,0.014 1.6788,-0.0271 2.0437,-0.2771 0.0225,-0.1384 0.0174,-0.6164 -0.0585,-0.7037 0.0168,-0.359 -0.317,-0.8635 -0.4901,-0.9946zm5.8573 0.6232c-0.3668,-0.2911 -1.2228,-0.3109 -1.7484,-0.2784 -0.9551,0.0545 -2.2004,0.1651 -2.8908,1.2321 -0.4632,0.7156 -0.9544,1.4701 0.1673,2.0962 1.1607,0.6479 3.9396,0.5085 5.1796,0.0735 0.474,-0.1662 0.5806,-0.4217 0.4205,-0.9905 -0.1317,-0.4682 -0.75,-1.9008 -1.1282,-2.1329zm-3.6075 -15.465c0.6317,0.0509 0.9274,0.0006 0.9978,-0.6207 0.0619,-0.5465 0.0159,-1.115 -0.1577,-1.6346 -0.1347,-0.0005 -0.1943,0.0582 -0.2504,0.1437 -0.1642,0.2506 -0.3532,0.436 -0.5529,0.6588 -0.1484,0.1655 -0.2911,0.3304 -0.3966,0.4752 -0.0467,0.0636 -0.0875,0.1508 -0.1179,0.2499 0.0043,-0.0313 0.0053,-0.0611 0.0021,-0.0883 -0.1021,0.0157 -0.6464,0.2984 -0.7323,0.3629 0.0295,0.1669 0.3576,0.3435 0.5496,0.2582 0.0264,-0.1014 0.1005,-0.2511 0.1464,-0.3926 -0.0256,0.1384 -0.0302,0.2882 -0.0037,0.4249 0.1468,0.1068 0.3376,0.1493 0.5156,0.1625zm1.543 15.099c2.0719,-0.1516 2.0645,0.3589 2.3547,0.5196 0.0728,-0.1521 -0.0225,-0.3537 -0.09,-0.52 -0.1436,-0.3539 -0.4751,-0.5482 -0.6407,-0.7264 -0.1043,-0.1124 -0.2539,-0.2107 -0.3183,-0.3123 0.3014,0.0896 0.3158,0.2227 0.4998,0.3737 0.1138,-0.1752 0.134,-0.5202 0.0026,-0.6874 -0.0895,-0.1139 -0.3579,-0.2065 -0.5461,-0.2672 -0.6645,-0.2143 -1.4631,-0.2252 -2.1587,-0.0145 -0.1362,0.0412 -1.118,0.4861 -1.1202,0.486 -0.1418,0.0512 -0.2468,0.1323 -0.3218,0.2435 0.008,-0.0232 0.0141,-0.0477 0.0176,-0.0739 -0.2513,-0.1776 -0.5237,-0.5454 -0.9469,-0.7438 -0.1925,-0.1906 -1.1197,-0.4655 -1.3988,-0.3828 -0.1267,0.0375 -0.5135,0.412 -1.0116,0.6484 -0.2045,0.097 -0.411,0.2092 -0.4139,0.4326 0.2409,-0.011 0.3175,-0.1046 0.6463,-0.097 0.418,0.0642 1.407,0.4925 1.6768,0.7731 0.4821,0.501 0.5053,0.721 0.5988,1.359 0.0131,0.2646 0.008,0.448 0.2385,0.4625 0.0775,-0.0774 0.1734,-0.9232 0.2494,-1.1914 0.0386,-0.2744 0.044,-0.4391 0.0625,-0.7113 0.0376,-0.1472 0.1386,-0.2412 0.2136,-0.3483 -0.0661,0.1588 -0.0923,0.3611 -0.0905,0.6071 0.0039,0.5357 -0.1913,0.8143 -0.1667,1.3799 0.0853,-0.0509 0.1544,-0.1441 0.2129,-0.2124 0.6152,-0.7177 1.5005,-0.9851 2.4509,-0.9969zm-5.5571 -16.9251c-0.0078,-0.0365 -0.0139,-0.1103 -0.0136,-0.1671 0.0004,-0.0569 0.0071,-0.0968 0.019,-0.1113 0.0119,-0.0145 0.0288,-0.0037 0.046,0.025 0.0173,0.0288 0.0348,0.0754 0.047,0.1144 0.0122,0.0389 0.0189,0.07 0.0243,0.0941 0.0054,0.024 0.0095,0.041 0.0115,0.0494 0.002,0.0084 0.002,0.0084 -0.0162,0.0122 -0.0183,0.0037 -0.0691,0.0183 -0.0921,0.0223 -0.023,0.0041 -0.0183,-0.0024 -0.026,-0.0389zm2.3888 19.7684c-0.0613,0.1095 -0.1021,0.3427 -0.0652,0.5106 0.0917,0.417 0.6438,0.6548 1.0036,0.7751 0.6678,0.2231 1.3431,0.2881 2.0432,0.3207 0.7013,0.0328 2.5905,-0.0442 3.1806,-0.4018 0.1693,-0.1025 0.5782,-0.4334 0.3607,-0.7642 -0.1981,0.0004 -0.0717,0.0024 -0.1171,0.0647 -0.4628,0.4369 -2.261,0.6331 -3.0552,0.6368 -0.7311,0.0035 -1.8594,-0.0429 -2.6006,-0.4427 -0.413,-0.2228 -0.6007,-0.5537 -0.7501,-0.6993zm-5.9673 -1.2099c0.1842,0.3424 0.7515,0.4494 1.102,0.5142 0.9028,0.1669 2.6853,0.1041 3.6404,0.0597 1.1275,-0.0524 1.265,0.0362 1.4029,-0.5321 -0.6399,0 -1.2678,0.1077 -1.9173,0.1198 -0.9647,0.018 -1.9954,0.0757 -2.9447,-0.0562 -0.8357,-0.116 -1.0182,-0.2542 -1.2802,-0.5151 -0.0609,0.1653 -0.0967,0.2357 -0.0031,0.4098zm14.1292 -8.5247c-0.7958,0.1019 -1.8555,0.3662 -2.4076,0.7517 -0.1644,0.1148 -0.2619,0.3786 -0.2816,0.66 -0.0017,-0.0155 -0.0048,-0.0296 -0.0095,-0.0421 -0.1152,0.0337 -0.1858,0.173 -0.3455,0.2775 0.2067,-0.2045 0.3251,-0.7776 0.0952,-1.103 -0.4177,-0.5913 -1.553,-0.6458 -2.2409,-0.595 -1.0316,0.0762 -1.4492,0.4086 -1.1593,1.5232 0.1225,0.4711 0.2943,0.5464 0.8373,0.5935 0.592,0.0513 1.8391,0.0473 2.3596,-0.3244 -0.1774,0.2137 -0.5768,0.3602 -1.2216,0.42 -0.2631,0.0244 -0.4871,-0.0257 -0.5871,0.1705 0.0885,0.1593 0.3718,0.2421 0.5935,0.3065 0.3032,0.1034 0.5699,0.161 0.9196,0.1794 0.4166,0.022 0.6945,-0.0165 0.7235,-0.4167 0.221,-0.1148 0.0894,-0.1908 0.0048,-0.3517 -0.0639,-0.1216 0.0058,-0.3517 0.0267,-0.523 0.0009,0.1585 0.0266,0.3171 0.079,0.4527 0.1642,0.4247 0.7958,0.4101 1.1964,0.4122 0.447,0.0024 1.1386,-0.035 1.6928,-0.1797 -0.0867,0.0787 -0.1302,0.163 -0.2723,0.176 -0.4805,0.0438 -1.2869,0.2316 -2.2177,0.0056 -0.2473,-0.0601 -0.2968,-0.0591 -0.4105,0.1319 -0.1042,0.1752 -0.1259,0.3493 -0.0801,0.5764 0.1733,0.8581 1.7201,1.0694 2.4738,1.0039 0.7041,-0.0611 1.1422,-0.7614 0.986,-1.4337 -0.052,-0.2237 -0.092,-0.4614 -0.279,-0.5194 0.2853,-0.0959 0.5135,-0.2275 0.6193,-0.4064 0.1964,-0.3324 0.1051,-0.9543 -0.0459,-1.2892 -0.1858,-0.4123 -0.493,-0.528 -1.049,-0.4568zm-10.978 -1.388c-0.1759,0.0218 -0.3906,-0.0294 -0.5093,-0.1163 0.1033,-0.032 0.0998,0.0197 0.2064,-0.0596 -0.214,-0.1903 -0.6887,-0.3195 -0.9703,-0.2951 -0.3334,0.0289 -0.6045,0.2126 -0.3847,0.6884 0.1198,-0.0083 0.2363,-0.036 0.3358,-0.1125 -0.1784,-0.1335 -0.1913,-0.2455 0.0316,-0.1716 0.19,0.0631 0.4,0.1911 0.4,0.1911 -0.2445,-0.0752 -0.3777,0.0693 -0.5709,0.1339 -0.3432,0.1146 -0.6192,0.2123 -0.9325,0.3593 -0.5835,0.2739 -0.9954,0.7398 -1.2967,1.2878 -0.3652,0.6646 -0.5899,1.1918 -0.3209,2.0317 0.558,1.7423 1.1208,0.5024 1.1505,0.3323 0.0432,-0.6897 -0.186,-0.2753 -0.5418,-0.4979 -0.5309,-0.332 -0.081,-0.9159 0.1248,-1.1599 0.7467,-0.8851 0.4038,-1.4073 0.8755,-1.4769 -0.1077,0.4682 -0.5109,1.1993 -0.7529,1.5261 -0.1298,0.1752 -0.4194,0.4449 -0.3183,0.7772 0.087,0.2861 0.4854,0.3647 0.8002,0.2215 0.5247,-0.2388 0.5421,-1.1007 0.9787,-1.3101 0.2569,-0.1233 0.7222,-0.0433 1.0129,-0.1296 0.3989,-0.1184 0.3045,-0.4542 0.5604,-0.5486 -0.1125,0.6915 -0.5761,0.6769 -0.9795,0.6894 -0.2852,0.0088 -0.4878,0.0259 -0.6492,0.193 -0.0994,0.1028 -0.308,0.4115 -0.2343,0.5763 0.03,0.0338 0.0844,0.0526 0.1569,0.059 -0.1049,0.0205 -0.2194,0.0571 -0.3083,0.0586 -0.2333,0.2841 -0.3203,0.2824 -0.3279,0.8045 0.0015,0.7186 0.0374,0.7214 0.4841,1.1751 0.1402,0.1424 0.2509,0.3017 0.4861,0.3661 0.3777,0.1033 0.5834,-0.2553 0.5944,-0.5799 0.0042,-0.1248 -0.0647,-0.4524 -0.1368,-0.5522 -0.1893,-0.2618 -0.6838,-0.3531 -0.7554,-0.5051l0.4304 0.1458 -0.205 -0.8574c-0.0179,-0.0316 -0.0445,-0.0503 -0.0769,-0.0601 0.2628,-0.0286 0.6263,-0.1373 0.9532,-0.2707l-0.5092 0.2965c-0.0174,0.3913 0.2565,0.8904 0.4698,1.0988 0.295,0.2882 0.7365,0.4195 1.1492,0.4707 0.8877,0.11 0.5628,-1.0025 -0.1998,-1.0897 -0.1373,-0.0157 -0.2241,0.0088 -0.3402,0.0522 -0.0758,0.0236 -0.2026,0.0878 -0.2742,0.0521 0.12,-0.1391 0.1879,-0.0928 0.3066,-0.1844 -0.0521,-0.2117 -0.2385,-0.6561 -0.402,-0.7832 0.1943,-0.09 0.3621,-0.1854 0.4678,-0.2717l-0.295 0.3171c0.0172,0.1426 0.1809,0.7294 0.5423,0.7095 0.2492,-0.0137 0.8141,-0.243 0.9475,-0.3544 0.5096,-0.4256 -0.3196,-1.1544 -0.989,-0.437l-0.1882 0.1677c0.0893,-0.1728 0.1447,-0.3873 0.1037,-0.4821 -0.0153,-0.0352 -0.0261,-0.0166 -0.0104,-0.0476 0.1291,-0.255 0.0764,-0.9385 -0.0279,-1.1955 -0.2286,-0.3329 -0.4544,-0.6835 -0.7428,-0.9442 0.0264,0.0075 0.0675,0.0357 0.1052,0.0668l0.6509 0.6415c0.1618,0.1487 0.3101,0.2557 0.3119,0.5594 -0.1713,-0.0433 -0.061,-0.0397 -0.1824,-0.0764 0.0003,0.1445 0.0017,0.1956 0.0801,0.303 0.3123,0.0015 0.5876,-0.3781 0.5794,-0.7187 -0.0092,-0.3799 -0.4627,-0.5929 -0.4743,-0.8312 0.4243,0.199 0.2466,0.3789 0.5025,0.5355 0.3386,-0.1119 0.2034,-0.5438 0.0474,-0.7838 -1.028,-1.5812 -2.0796,-1.1206 -2.0739,-0.585 0.2796,0.0463 1.0344,0.3594 1.1348,0.6008zm1.2436 3.7898c-0.314,0.4674 -0.2961,1.2027 1.0497,1.2548 0.213,0.0089 0.2977,-0.0495 0.3886,0.1141 -0.2608,0.1268 -0.8402,-0.0936 -1.133,-0.1484 -0.087,0.1203 -0.2973,0.3675 -0.3097,0.598 -0.0208,0.3854 0.3318,0.4365 0.6262,0.483 0.3427,0.0541 0.9002,-0.0267 1.2106,-0.0137 0.0506,-0.8133 0.1272,-0.4811 0.2702,-0.9071l-0.3885 -0.1548c-0.0493,-0.152 -0.7849,-0.596 0.2482,-1.2311 0.0562,-0.0346 0.1161,-0.057 0.1762,-0.0764 -0.1836,0.1046 -0.4628,0.3886 -0.5409,0.6419 -0.2633,0.8542 1.6061,0.7864 1.5449,1.3469 -0.2522,-0.0691 -0.4563,-0.4682 -0.9442,-0.4574 -0.164,0.252 -0.3768,0.7119 -0.1322,1.0414 0.3425,0.4614 1.639,0.2796 2.5147,0.0891 1.6306,-0.3548 1.849,-1.7659 0.9268,-1.5227 -0.2125,0.0811 -0.3821,0.1763 -0.5989,0.2597 -0.203,0.0781 -0.5061,0.1229 -0.5801,0.31 0.2491,0.3691 0.6311,0.0212 0.7984,-0.0244 -0.3414,0.6417 -1.0579,0.1785 -1.0881,-0.0621 0.1522,-0.1492 0.5546,-0.2274 0.8071,-0.3041 0.1351,-0.0318 0.904,-0.3258 0.9693,-0.4199 0.0516,-0.0744 0.0684,-0.1825 -0.0003,-0.2423 -0.061,-0.0533 -0.2712,-0.1222 -0.3545,-0.1376 -0.3732,-0.1107 -0.6839,-0.2101 -0.8248,-0.4673 -0.3146,-0.0252 -0.3673,0.0126 -0.4932,0.1817 -0.542,0.3446 -1.3863,0.573 -2.1023,0.2954 0.012,-0.1998 0.1701,-0.2224 0.2773,-0.27 -0.0611,0.0602 -0.097,0.1397 -0.097,0.2015 0.1195,0.0686 0.2086,0.0719 0.3606,0.0139l-0.0853 -0.303c-0.0356,0.0036 -0.0687,0.0141 -0.0987,0.0295 0.0875,-0.1208 -0.0193,-0.235 -0.1286,-0.2407 0.0628,-0.0208 0.1232,-0.0454 0.1769,-0.0847 -0.0046,-0.1341 -0.059,-0.4105 -0.098,-0.5366 -0.0582,-0.1879 -0.139,-0.1893 -0.3329,-0.1993l0.1169 0.4561 0.1371 -0.1484c0.0562,0.3037 -0.026,0.3467 -0.2054,0.4727 -0.1535,0.1078 -0.2929,0.2133 -0.4805,0.2935 -0.3354,0.1433 -0.9401,0.25 -1.2351,0.0573 0.1177,-0.246 0.0896,-0.2086 0.3185,-0.3578 -0.0664,0.0741 -0.116,0.1795 -0.1434,0.2842 0.1185,0.0809 0.2096,0.0869 0.3445,0.0455 0.0233,-0.0624 0.0137,-0.0876 -0.0029,-0.1518 -0.0175,-0.068 -0.0589,-0.2105 -0.0937,-0.2584 -0.0127,0.0059 -0.0252,0.0129 -0.0372,0.021 0.0353,-0.0481 0.0259,-0.1819 -0.0057,-0.3078 -0.1868,-0.0296 -0.6119,0.3645 -0.7276,0.5367zm5.2737 -2.5606c0.5885,0.041 1.4181,0.1849 1.6708,0.6906 0.048,0.0961 0.0477,0.1767 0.1254,0.2561 0.6372,-0.7538 2.6939,-0.8696 2.8471,-1.023l1.0734 -1.2158c0.6335,-0.7201 1.5189,-1.6484 1.5888,-2.7084 0.0467,-0.7074 -0.3152,-1.7359 -1.0687,-1.4185 -0.4243,0.1787 -0.832,1.1362 -1.0486,1.5705 -0.1592,0.3191 -1.4863,2.4966 -1.8126,2.7614 -0.0813,0.066 -0.1769,0.0985 -0.2741,0.1376 0.1366,-0.1379 0.2336,-0.3789 0.2982,-0.4745 -0.095,-0.2812 -0.6582,-0.8148 -0.7714,-0.6434 -0.1177,0.0914 -0.1281,0.438 -0.1334,0.5864 -0.0201,0.5672 0.3347,0.5882 0.7119,0.7844 0.1341,0.0632 0.1743,0.0704 0.2334,0.1921 -0.2606,0.0082 -1.1178,-0.2333 -1.115,-0.9139 0.0054,-1.3379 1.192,-3.9641 0.0761,-5.1137 -0.457,-0.4708 -1.0858,-0.055 -1.2924,0.3381 -0.3523,0.6702 -0.2716,2.7727 -0.3829,3.7133 -0.1205,1.0177 -0.2848,1.0778 -0.4245,1.6678 0.3965,-0.0268 1.3425,-0.2708 1.6505,0.032 -0.8551,-0.0175 -1.6121,-0.1726 -2.2445,0.4524 -0.0717,0.0709 -0.1097,0.0978 -0.1255,0.176 -0.0686,-0.1725 -0.0294,-0.1572 0.1126,-0.3167 0.1066,-0.1198 0.2169,-0.1797 0.3331,-0.2772 0.201,-0.1687 0.5403,-1.1833 0.5026,-1.5004 -0.3667,-0.0233 -0.9244,0.321 -1.1041,0.4941 -0.2808,0.2704 -0.4359,0.8758 -0.2562,1.0977 0.2064,-0.0553 0.3965,-0.3191 0.5614,-0.4479 0.0943,-0.0671 0.1943,-0.1206 0.338,-0.058l-0.32 0.2459c-0.1268,0.0867 -0.223,0.1553 -0.3484,0.2426 -0.2267,0.1577 -0.416,0.5589 -0.1742,0.6395 0.0034,0.0011 0.7293,0.0301 0.7733,0.0331zm-7.5664 -9.8899c0.0645,-0.0488 0.2321,-0.0578 0.318,-0.0692 -0.4333,-0.2575 -0.6639,0.0434 -0.5377,0.261 0.0716,0.1234 0.1353,0.2148 0.3544,0.3253 0.054,0.0272 -0.0656,-0.0996 -0.1593,-0.2065 -0.0895,-0.1021 -0.0921,-0.2224 0.0246,-0.3107zm0.781 0.6724c0.0051,0.1497 0.0982,0.3815 0.18,0.4615 0.2078,-0.0201 0.2913,-0.277 0.2686,-0.4677 -0.0531,0.0087 -0.3012,0.0067 -0.4485,0.0062zm0.4358 -0.5586c-0.0024,-0.166 -0.006,-0.5725 -0.0235,-0.6898 -0.0217,-0.1449 -0.1085,-0.3351 -0.1568,-0.4889 -0.0617,-0.196 -0.0552,-0.5008 -0.2022,-0.6396 -0.1833,0.0547 -0.2041,0.3192 -0.2246,0.4847 -0.0498,0.3818 -0.0751,0.6952 -0.0245,1.0884 0.2049,0.103 0.3977,0.2272 0.6317,0.2454zm3.3005 -0.9874c0.0963,-0.1556 -0.0047,-0.595 -0.0526,-0.6237 -0.0598,-0.0028 -0.1257,0.0805 -0.1236,0.2664 0,0.1091 0.0852,0.3128 0.1763,0.3573zm-2.7145 0.8236c0.4266,-0.1777 0.7129,-0.2447 1.219,-0.159 0.3117,0.0528 0.7242,0.2039 1.0298,0.0571 0.3285,-0.1578 -0.1011,-0.3357 -0.0949,-1.3378 0.0086,-1.413 1.0711,-1.8103 0.9155,0.7523 0.4153,-0.2082 0.4998,-1.558 0.5141,-2.0753 -0.0211,-1.3119 -1.1051,-1.5739 -1.8224,-1.1864 -1.2639,0.6828 -1.049,3.04 -1.4775,3.4667 -0.0585,0.0904 -0.1834,0.1 -0.3564,0.1866 0.0535,0.1555 0.0193,0.2366 0.0729,0.2958zm2.8594 -5.3546l-0.0925 0.1996c0.2059,0.032 0.3969,0.1195 0.5345,0.2214 0.2326,0.1723 0.1172,0.1987 0.5067,0.2469l0.5517 0.1434c0.0217,-0.1458 -0.015,-0.1907 -0.0644,-0.3144 -0.0208,-0.0521 -0.0424,-0.1195 -0.06,-0.1608 -0.1463,-0.3448 -0.345,-1.0951 -0.5929,-1.3123 -0.2402,0.0071 -0.3034,0.1811 -0.4346,0.363 -0.1632,0.2263 -0.2219,0.3969 -0.3485,0.6133zm-2.5218 13.9348c-0.0561,-0.6232 0.013,-1.336 0.0924,-1.8457 0.027,-0.1731 0.2114,-0.4386 0.2998,-0.6209 -0.0796,0.4656 -0.0079,0.8748 0.4019,0.8937 0.297,0.0137 0.7908,-0.2334 1.0214,-0.4111 0.3626,-0.2793 0.7877,-0.8054 0.9863,-1.0506 0.305,-0.3766 1.013,-1.3378 0.5579,-1.8014 -0.175,-0.1783 -0.4572,-0.2024 -0.7293,-0.1531 -0.0839,0.0152 -0.1299,0.025 -0.2132,0.0546 0.1543,-0.0963 0.3243,-0.203 0.5652,-0.2389 0.3934,-0.0586 0.837,-0.0658 1.133,-0.045 0.5373,0.0253 1.0329,-0.6677 1.2969,-1.0704 0.746,-1.1378 0.6456,-2.894 -0.2202,-3.5526 -0.5507,-0.4189 -1.3567,-0.2781 -1.7897,0.1036 -0.3267,0.2869 -0.7477,0.7409 -1.0798,0.9492 -0.3457,0.2169 -0.5898,0.2501 -0.7917,0.2319 -0.1861,-0.0168 -0.669,-0.1385 -0.9963,-0.1626 -0.418,-0.0308 -0.4772,0.0337 -0.8626,0.2258 0.268,0.3431 0.1132,0.5393 -0.4651,0.6219 -0.1781,0.3718 -0.0147,0.4203 -0.3058,0.5665 -0.2722,0.1366 -0.1228,0.3411 -0.0036,0.5485 0.5459,0.9497 1.9353,1.8471 2.9893,1.8445 0.1211,-0.0003 0.2139,0.0477 0.3285,0.0413 -0.1823,0.0798 -0.3238,0.1897 -0.4937,0.3207 -0.5462,0.4211 -1.0034,1.057 -1.2111,1.5856 -0.0438,0.1113 -0.1008,0.2695 -0.1153,0.4184 -0.0119,0.0071 -0.0181,-0.0492 -0.0346,-0.0356 -0.2929,0.2426 -1.2716,1.4594 -1.4175,1.6279 0.3118,0.1795 0.8962,0.6627 1.057,0.9539zm4.5602 -3.5978c0.206,0.5772 0.3752,1.0184 0.484,1.6231 0.0912,0.5067 0.1543,1.019 0.2158,1.1512 0.0978,-0.0262 0.6867,-0.2045 0.7361,-0.2849 0.0483,-0.0929 0.0805,-1.018 0.0792,-1.1366 -0.0094,-0.8411 -0.2561,-1.1764 -0.7292,-1.8848 -0.1141,-0.1709 -0.8437,-1.1764 -1.0746,-0.5694 -0.1299,0.1641 0.2138,0.8911 0.2887,1.1014zm-0.2287 -2.5511c-0.1686,0.246 -0.43,0.1844 -0.5739,-0.0337 0.2937,0.1142 0.2484,0.1177 0.5739,0.0337zm-3.1529 -0.7833c0.1287,-0.0838 0.428,-0.1408 0.5862,-0.2 1.0476,-0.3913 1.5018,-0.9173 2.1277,-1.7833 0.3402,-0.4708 0.6866,-0.4368 0.8781,0.006 -0.1397,-0.0677 -0.2177,-0.177 -0.4405,-0.1586 -0.004,0.5738 0.641,2.3642 -0.4714,2.4788 -0.8465,0.0872 -1.8388,-0.4289 -1.9955,-0.4386 -0.2302,-0.0143 -0.4311,0.1158 -0.6847,0.0958zm0.6363 -6.8987c0.049,0.1012 0.3656,0.0918 0.4547,0.0422 0.1578,-0.088 0.6459,-1.2605 1.0353,-1.3616 0.2483,0.1469 0.4042,0.7136 0.5256,1.0258 0.0748,0.1922 0.4218,0.9704 0.4078,1.0799 -0.0777,0.0592 -0.1158,0.0543 -0.2152,0.0271 -0.133,-0.0364 -0.4556,-0.2149 -0.6669,-0.1331 0.3278,0.5401 0.406,0.9065 0.3432,1.6971l-0.0695 -0.3025c0.0958,-0.9549 -0.5738,-1.8841 -1.4681,-1.8902 -0.5343,-0.0036 -0.8962,0.2531 -1.1565,0.5154 -0.1382,0.1393 -0.3299,0.3364 -0.48,0.5616 -0.1535,0.2303 -0.3178,0.62 -0.3991,0.8857 -0.0232,0.076 -0.0425,0.1509 -0.0608,0.2314l-0.0261 -0.2483c0.1107,-0.2124 0.2273,-0.5547 0.2586,-0.8074 -0.3316,0.1034 -0.7267,0.4654 -0.963,0.7572 -0.11,0.1359 -0.2658,0.2888 -0.2967,0.4543 -0.0369,0.1976 0.0389,0.4824 0.0485,0.7182 -0.0717,-0.3265 -0.1299,-1.1377 -0.6467,-0.8006 -0.4521,0.2949 -0.3292,1.239 -0.1678,1.6649 0.2297,0.0161 0.0262,-0.2676 0.2421,-0.5975 0.0854,-0.1304 0.0925,-0.0842 0.1021,-0.1841 -0.0883,-0.0362 -0.1339,-0.0445 -0.2271,-0.0924 0.3042,-0.1918 0.2674,0.0354 0.4267,0.2095 0.0277,0.2329 0.0526,0.4483 0.1104,0.6772 0.0949,0.3762 0.4481,0.8961 0.8854,0.6139 0.2402,-0.1549 0.2958,-0.534 0.3202,-0.8569 0.1445,-0.897 0.1299,-1.8989 1.0939,-2.5946 1.0862,-0.7839 2.1944,0.0544 2.1355,1.3885 -0.0315,0.7139 -0.2054,1.1742 -0.2019,1.3203l0.0247 0.1259c0.1794,-0.0273 0.4055,-0.4642 1.1519,-0.4976 1.3816,-0.0619 1.7749,1.493 1.6755,2.5996 -0.1085,1.2087 -1.0802,2.0385 -1.3617,2.3965 0.3824,0.0614 1.1364,-0.5453 1.3453,-0.721 0.6016,-0.506 0.7501,-1.0368 1.0852,-1.3812 -0.2212,0.8611 -1.0457,1.5994 -1.7651,2.0652 -0.1458,0.0945 -0.1506,0.0713 -0.2056,0.1662 0.0265,0.0547 0.8394,0.7167 1.0684,1.0631l0.0487 -0.2948c0.0752,-1.1186 1.3114,-1.8187 1.9264,-0.7109 0.2617,0.4714 0.3625,0.9817 0.304,1.5857l-0.206 1.2374c-0.0629,0.2888 0.0711,0.3635 0.2426,0.5985 0.0764,0.1048 0.3224,0.5822 0.4631,0.5674 0.1701,-0.018 0.3417,-0.4683 0.3894,-0.6234 0.3004,-0.9751 0.3183,-2.4157 0.1837,-3.4077 -0.1579,-1.1635 -0.4811,-2.2204 -1.199,-3.1606 -0.0788,-0.1032 -0.3603,-0.3771 -0.365,-0.4092 0.2523,-0.0301 0.3525,0.0045 0.7437,0.1363 1.3313,0.4486 1.2787,1.0143 1.6773,2.1546 0.4076,0.1941 1.3579,0.8511 1.8555,1.2741 0.3052,0.2594 0.6281,0.5257 0.7411,0.5509 0.4933,-1.2201 -0.1459,-3.0497 -0.7146,-4.0285 -0.5873,-1.0108 -1.3862,-1.9109 -2.4165,-2.4794 -0.9113,-0.5028 -1.9067,-0.8192 -2.2733,-1.0925 0.3435,-0.1894 0.92,-0.1036 1.2989,-0.0476 0.7148,0.1057 1.5889,0.362 2.2086,0.7071 0.2517,0.1402 0.6686,0.5041 0.8295,0.5701 0.8932,-0.17 1.577,-0.1476 2.404,-0.1974 0.4509,-0.0329 0.0262,-0.3797 -0.0995,-0.4819 -1.8634,-1.5136 -4.2457,-2.5032 -6.6443,-2.7133 -0.9273,-0.0812 -1.8422,-0.1194 -2.7757,0.0607l0.1099 0.251c0.3045,-0.0621 0.5757,-0.0387 0.8408,-0.0795 -0.2208,0.3296 -0.4659,0.4707 -0.3886,1.0472 -0.1187,-0.0685 -0.2726,-0.4086 -0.3417,-0.5429 -0.2905,-0.5655 -0.5542,-1.1021 -0.8282,-1.6824 -0.1458,-0.3087 -0.4368,-1.0061 -0.8195,-0.7775 -0.194,0.1159 -0.7621,0.7497 -1.1376,1.3061 -0.0576,0.0854 -0.4593,0.7858 -0.421,0.865zm-0.2205 15.4085c-0.1479,-0.4372 -0.2768,-0.8805 -0.41,-1.3223 -0.0671,-0.2224 -0.0198,-0.3958 -0.0474,-0.4698l-0.2879 -0.1232c0.1734,-0.0137 0.4664,0.0594 0.6135,0.1288 0.6003,0.2834 1.0747,3.5499 1.3439,4.1356 0.2651,0.6309 0.8668,0.3936 1.3377,0.137 0.083,-0.2835 0.0749,-0.3732 -0.2467,-0.4448 -0.3258,-0.1601 -0.4001,-0.261 -0.4851,-0.6491 -0.0478,-0.2182 -0.078,-0.445 -0.0653,-0.6775 0.0436,-0.7408 0.1403,-0.255 -0.1892,-1.1748 -0.1331,-0.3714 -0.2774,-0.7537 -0.3911,-1.1567 -0.0797,-0.2826 -0.0987,-0.4931 -0.0743,-0.6587 0.0135,0.4783 0.4169,1.3098 0.7995,1.5983 0.1741,0.1313 0.6695,0.3884 0.9448,0.3564l0.0337 -0.2491c-0.0633,-0.0926 -0.3382,-0.2798 -0.4526,-0.3788 -0.3069,-0.2657 -1.0996,-1.3605 -1.3,-1.4409 0.1147,-0.3733 0.4883,-0.4935 0.8277,-0.8196 0.3952,-0.3797 0.602,-0.7606 0.9242,-1.148 -0.1535,0.3625 -0.5251,0.9849 -0.837,1.1911l0.2518 0.7624c0.0465,0.2052 0.1495,0.8448 0.2318,0.9489 0.2297,-0.0503 0.3955,-0.414 0.5137,-0.6274 0.2029,-0.3664 0.3019,-0.6163 0.3638,-1.0228 -0.0664,-1.2137 -0.7258,-2.1553 -0.8405,-2.9901 0.0097,-0.2931 0.1056,-0.4507 0.392,-0.4424 0.1802,0.0224 0.3536,0.1396 0.4432,0.2489 0.3515,0.4506 0.5727,0.7056 0.9076,1.2095 0.1453,0.2187 0.2339,0.412 0.2925,0.1467 0.0156,-0.4949 -0.1293,-0.5949 -0.352,-0.8602 -0.1818,-0.2164 -0.3916,-0.3963 -0.6291,-0.5869 -0.3903,-0.3133 -0.8971,-0.3779 -1.4498,-0.3599 -0.1503,0.0049 -0.6257,0.0257 -0.6692,0.1126 0.3768,0.1235 0.379,0.124 0.5342,0.4467 -0.0018,0.6511 -0.3934,1.1689 -0.7528,1.6372 -0.4588,0.5981 -1.3502,1.6678 -2.1667,1.519 -0.409,-0.0745 -0.2654,-0.2853 -0.4233,-0.4025 -0.1851,0.2646 -0.1778,1.2341 -0.1276,1.5776 0.0535,0.3661 0.9412,3.9089 1.0634,4.2552 0.3916,0.0073 0.7558,-0.1593 1.0034,-0.4657 -0.1201,-0.6068 -0.4223,-1.3424 -0.6248,-1.9408zm-3.4907 -12.5669c0.1239,-0.3572 0.2598,-0.8042 0.8845,-0.4726 0.0902,-0.1764 0.2749,-0.3437 0.408,-0.4745 0.1194,-0.1174 0.6379,-0.475 0.4328,-0.653 -0.3296,-0.1718 -0.6563,-0.361 -0.9851,-0.5387 -0.2947,-0.1592 -1.2334,-0.7536 -1.3732,-0.257 -0.1141,0.4049 0.2938,2.1232 0.633,2.3957z"/>
 </g>
</svg>
