<?xml version="1.0" encoding="UTF-8"?>
<!DOCTYPE svg PUBLIC "-//W3C//DTD SVG 1.1//EN" "http://www.w3.org/Graphics/SVG/1.1/DTD/svg11.dtd">
<!-- Creator: CorelDRAW 2020 (64-Bit) -->
<svg xmlns="http://www.w3.org/2000/svg" xml:space="preserve" width="158.656mm" height="80mm" version="1.1" style="shape-rendering:geometricPrecision; text-rendering:geometricPrecision; image-rendering:optimizeQuality; fill-rule:evenodd; clip-rule:evenodd"
viewBox="0 0 85.1871 42.9544"
 xmlns:xlink="http://www.w3.org/1999/xlink"
 xmlns:xodm="http://www.corel.com/coreldraw/odm/2003">
 <defs>
  <style type="text/css">
   <![CDATA[
    .fil1 {fill:#FEFEFE}
    .fil0 {fill:#2B2A29}
   ]]>
  </style>
 </defs>
 <g id="Слой_x0020_1">
  <metadata id="CorelCorpID_0Corel-Layer"/>
  <path class="fil0" d="M38.5189 9.4453c2.2523,2.0833 2.7818,4.4553 2.389,4.3995 -0.8556,-0.1218 -2.8035,-1.0017 -4.4959,-1.0719 -1.2094,-0.0501 -1.9585,-0.0347 -3.1858,0 0.4796,0.7163 2.3036,1.3385 3.7774,5.6907 0.8199,2.4212 0.667,5.1025 0.0747,4.3615 -0.7951,-0.9946 -3.0288,-2.6646 -4.1993,-3.2441 -0.3893,-0.1928 -0.7774,-0.457 -1.201,-0.5557 0,1.129 -0.0236,0.8573 0.5062,1.8758 0.4269,-0.2049 1.1608,-0.1576 1.4962,0.1413 0.5906,0.5264 0.2605,0.891 0.2605,1.4367 0.0458,0.0122 1.345,0.6777 0.7741,1.7566 0.4918,0.1146 1.5654,1.2199 1.578,1.7864 0.1148,-0.0841 0.6897,-1.1435 1.5101,-0.1703 0.1716,0.2036 0.2938,0.4106 0.377,0.6651 0.7518,2.2992 0.1935,1.861 -0.0535,3.0062 -0.1433,0.6645 -0.4917,1.4415 -1.2977,1.4415 0.7458,0.6475 1.6078,0.3819 1.6078,1.9949 0,0.4351 -0.3967,0.7145 -0.8039,0.7145 -0.8231,0 -2.0345,-0.8608 -2.6131,-1.3766 -0.4592,-0.4093 -0.3535,-0.3503 -0.9598,-0.3503 0.0471,0.5659 1.1193,1.0695 1.4764,1.5605 0.4311,0.5927 0.5842,1.6848 -0.7023,1.6848 -1.3189,0 -2.2201,-1.2113 -2.501,-1.3993 -0.1198,1.4399 -1.4887,3.5721 -1.4887,3.7217 0,0.5168 0.3706,0.2724 -0.3866,1.7272 -0.4349,0.8355 -1.7677,2.8852 -2.8857,2.8522 -0.6008,-0.0178 -0.3899,-0.1648 -0.9725,0.0781 -2.3292,0.9711 -4.1814,0.9103 -6.631,0.5018 -1.7356,-0.2894 -3.764,-0.7034 -4.9861,-1.9214 -2.0785,-2.0714 0.6215,-3.6946 2.5766,-4.197 3.1479,-0.8089 2.163,0.4989 3.7111,-1.4695 0.0914,-0.1163 0.2781,-0.2927 0.3146,-0.4297 -0.1516,0.0353 -0.3405,0.1291 -0.5021,0.1826 -2.2887,0.7576 -5.1454,0.9677 -7.5309,0.3772 -0.3656,-0.0905 -0.7196,-0.259 -0.9885,-0.3216 0.2886,1.2386 0.8775,5.0913 -1.2803,5.0913 -2.9599,0 -1.1292,-7.8775 -3.4835,-8.426 -0.0444,0.5326 -0.1909,1.16 -0.2464,1.7485 -0.1504,1.5959 0.1665,4.7055 -1.685,5.5499 -0.5665,0.2584 -1.7925,0.4812 -2.3342,0.0042 -1.0984,-0.9674 0.5313,-3.1592 0.9194,-4.8429 0.1325,-0.5747 0.2145,-1.2696 0.1579,-1.8914 -0.0117,-0.129 -0.0541,-0.2594 -0.057,-0.3896 -0.8567,0.9852 -1.2541,1.4589 -2.8285,1.4589 -0.8262,0 -1.6071,-0.0666 -1.7157,-1.0254 -0.1716,-1.5146 1.9423,-1.9302 2.7348,-2.8384 0.6851,-0.7852 0.6468,-1.6585 1.3583,-2.542 0.9791,-1.2157 0.7509,-0.2451 2.0305,-2.4356 0.1993,-0.3311 0.4477,-0.6473 0.8025,-0.835 -0.1662,-2.4934 2.0445,-1.8255 3.3645,-2.7094 0,-0.2656 -0.0893,-0.4521 -0.0893,-0.7145 0,-0.9075 0.9849,-1.578 1.9056,-1.578 0.7174,0 1.3489,0.0929 2.012,0.2805 0.8816,0.2495 0.8505,-0.024 1.9353,-0.4717 0.1966,-0.0811 1.1578,-0.5328 1.3524,-0.702 -1.3213,-0.0294 -2.9732,-1.2803 -2.9774,-1.2803 -0.105,0 -1.1438,0.7225 -2.0154,0.2885 -0.1538,-0.0766 -0.3368,-0.2142 -0.3368,-0.4076 0,-0.8229 0.5616,-0.7193 1.1999,-0.9736 0.0811,-0.0323 0.1118,-0.048 0.1995,-0.0685 -0.315,-0.401 -0.5852,-0.9097 -0.9757,-1.2276 -0.5447,-0.4434 -1.0743,-0.828 -1.442,-1.4461 -0.2708,-0.4553 -0.3637,-0.3882 -0.8182,-0.6407 -0.7937,-0.4408 -3.8616,-2.5279 -2.116,-2.7521 0.5265,-0.0677 1.0797,0.028 1.5988,-0.009 0.7601,-0.0541 1.6001,-0.1473 2.3537,-0.1473 0.0344,-0.413 0.2861,-0.7189 0.4346,-1.0838 0.1629,-0.4 0.1473,-1.394 0.8973,-2.1397 0.4171,-0.4146 0.2282,-0.345 0.2774,-1.1815 0.0419,-0.7137 0.8162,-4.5569 1.5169,-4.5569 0.7484,0 2.1134,2.0296 2.4414,2.6499 0.415,-0.0966 1.8398,-1.1037 5.1932,-1.7143 3.1698,-0.5772 6.9573,-0.1616 9.833,1.2772 0.6566,0.3285 2.4808,1.1124 2.4808,1.896 -1.5061,0 -3.3291,0.3887 -4.7455,0.8817 -0.1712,0.0595 -0.4171,0.1305 -0.5542,0.2497 1.4911,0.3474 2.2859,0.4521 3.7915,1.1213 1.879,0.8351 3.3162,1.7871 4.8657,3.0839zm-12.7659 12.0811c0.1097,-0.0735 0.542,-0.6684 0.7443,-0.8039 0.0075,0.09 0.4845,1.1284 0.6468,2.4199 0.0576,0.4583 0.0698,1.4642 0.9485,0.2473 0.4403,-0.6098 1.0385,-1.7973 1.0546,-2.5183 0.1231,0.1416 0.2731,0.595 0.306,0.7658 0.2034,1.0553 -0.9611,1.1686 -0.9611,2.152 0,0.9736 0.5385,0.755 0.7359,1.052 0.1579,0.2376 -0.2986,0.6769 0.2765,1.0619 -0.1514,0.286 -0.2506,0.8387 -0.4466,1.1314 -0.7284,0 -0.943,-0.4756 -1.61,-0.6826 -0.7842,-0.2434 -1.2398,0.3542 -1.6353,0.5635 -0.541,-0.3623 -0.438,-1.2927 -1.8348,-1.738 -0.2442,-0.0779 -0.2025,-0.0752 -0.361,-0.2345 -0.3185,-0.32 -0.4901,-0.2637 0.0277,-1.0292 0.0854,-0.1263 0.3689,-0.5062 0.5007,-0.5413 0.1358,0.5829 0.8803,1.2349 1.3611,1.6164 1.2852,1.0201 4.8201,2.1587 3.0202,0.7016 -1.7097,-1.384 -1.7837,-1.4705 -2.65,-3.7812 -0.0434,-0.1157 -0.0794,-0.2841 -0.1234,-0.3827zm-8.9024 4.8531c0,0.6912 0.667,0.7146 1.2803,0.7146 -0.0884,0.1843 -0.0233,0.6948 -0.1194,0.7441 -0.0396,0.0203 -0.8933,0.1063 -1.1911,0.1785 -0.1386,0.0336 -0.258,0.0898 -0.4164,0.0898 -0.0652,-0.2802 -0.3755,-0.6292 -0.6251,-0.7445 -0.6993,-0.3232 -0.672,-0.0892 -1.1018,-0.0892 -0.0087,-0.1044 -0.0526,-0.251 -0.0893,-0.3275 0.7382,-0.1719 0.827,-1.1872 0.9527,-1.7269 1.0121,-0.0842 1.0872,-0.1972 1.6376,-0.5657l0.3873 0.1782c-0.0385,0.1645 -0.7148,1.1498 -0.7148,1.5487zm2.2926 -3.3049c-0.2983,-0.0695 -0.586,-0.2035 -0.7145,-0.4466 0.2322,-0.4389 3.0128,-0.8128 3.4587,-0.6602 0.7157,0.2448 -0.1399,1.1966 -0.1836,1.2259 -0.2367,-1.0158 -0.9191,-1.2887 -1.8343,-0.6731 -0.3369,0.2266 -0.5577,0.441 -0.7263,0.554zm-0.655 -2.4713c0.6252,-0.5061 2.2317,-1.9212 2.6201,-2.501 0.2893,0.1937 0.9825,1.3801 0.9825,1.6375 0,0.4735 -0.2684,0.4203 -0.6304,0.4713l-2.9722 0.3922zm-3.0122 -20.0941c0.2657,0.115 0.7698,0.7703 0.957,1.0106 0.4713,0.605 2.8407,4.2841 2.7639,3.7929 -0.1838,-0.3224 -0.3419,-0.6591 -0.5359,-0.9899 -0.2702,-0.4606 -0.5379,-0.9107 -0.8022,-1.3756 0.1724,-0.068 0.4001,-0.2075 0.5917,-0.3044 2.4606,-1.2445 5.483,-1.7381 8.2457,-1.558 2.0172,0.1315 6.1901,1.0009 7.4476,2.5474 -0.0112,0.0082 -3.5827,0.5955 -4.6015,1.2893 -0.3408,0.1436 -0.3015,0.2343 -0.7324,0.1783 -0.8073,-0.1049 -1.9398,-0.1809 -2.7295,-0.1544 -0.8743,0.0294 -1.8191,0.2305 -2.6785,0.413 1.1928,0.0949 2.6455,-0.3704 4.8982,-0.0752 1.9919,0.2611 3.9141,0.7773 5.7299,1.6393 2.0967,0.9953 4.3445,2.6696 5.6544,4.5729 0.2954,0.4293 0.8004,1.2786 0.8276,1.7485 -1.1454,-0.281 -2.1333,-0.5651 -3.2579,-0.7169 -0.8844,-0.1194 -1.9826,-0.1885 -2.8666,-0.1594 -0.403,0.0132 -0.8478,0.0539 -1.2515,0.0497 -0.77,-0.0038 -2.026,-1.3249 -4.5277,-2.0227 -0.3345,-0.0933 -1.1809,-0.3521 -1.5204,-0.2725 0.1776,0.1496 1.5272,0.4566 1.8876,0.5885 0.5952,0.2629 1.9291,0.838 2.8154,1.3924 0.4191,0.2622 0.9842,0.7429 1.4984,1.2356 0.7003,0.6711 1.3845,1.4679 1.9028,2.2919 0.784,1.2461 2.4975,5.4112 1.9889,6.7779 -0.2619,-0.356 -1.5189,-1.3352 -2.3826,-1.9833 -1.1497,-0.8627 -1.7293,-1.1359 -3.0615,-1.7915 -0.236,-0.1161 -0.1143,-0.2171 -0.3096,-1.2064 -0.2238,-1.1342 -0.7484,-2.2043 -1.5112,-3.0687 -1.6038,-1.8172 -3.0083,-1.9851 -5.311,-2.0776 -0.0142,-0.1112 0.0783,-0.3746 0.1007,-0.5217 0.0706,-0.4661 0.0447,-1.3748 -0.2295,-1.6631 -0.0876,0.2839 0.1471,1.4671 -0.1238,2.0792 -0.1365,0.3085 -0.3792,0.2729 -0.6947,0.4382 -0.2419,0.1268 -0.4889,0.4414 -0.6116,0.4933 0.1365,-0.933 0.3343,-1.5152 0.0441,-2.4965 -0.2369,-0.8009 -0.5793,-1.312 -1.1099,-1.6865 -0.5824,-0.4112 -1.4233,-0.5698 -2.2008,-0.2773 -1.0326,0.3886 -1.2156,1.2792 -1.3509,1.4427 -0.0911,-0.1966 -0.146,-1.0573 -0.6638,-2.0124 -0.3132,-0.5778 -0.8171,-1.2438 -1.4046,-1.5601 -0.8409,-0.4527 -1.7608,-0.1743 -2.3534,0.5244 -0.4782,0.5638 -0.5443,1.3437 -0.3655,2.1875 0.165,0.7783 0.6949,1.8193 1.0247,2.5942 0.1495,0.3512 0.6132,1.5247 0.0375,1.6944 -0.6265,0.1847 -1.4106,-1.1071 -1.4613,-1.1128 -0.1341,0.252 0.5593,0.9964 0.7121,1.1952 -0.3538,0.0115 -0.7528,-0.2833 -0.9306,-0.453 -0.1488,-0.142 -0.9876,-1.0542 -1.0985,-1.0797 -0.2441,-0.0563 -0.1883,0.2954 -0.1937,0.4642 0.1003,-0.0292 0.1845,-0.089 0.2925,-0.0652 0.2621,0.0577 0.2793,0.3267 0.3267,0.547 0.0445,0.2065 0.1384,0.3597 0.1995,0.5256 -0.2953,-0.1572 -1.1882,-0.8969 -1.3045,-1.2495 -0.1749,-0.3114 -0.2465,-0.8846 0.109,-1.0879 0.3251,-0.1859 1.0152,0.3832 1.1732,0.4874 -0.0513,-0.1618 -0.272,-0.3738 -0.3716,-0.4738 -0.0818,-0.082 -0.1063,-0.1697 -0.1099,-0.2913 -0.3323,-0.0273 -0.6796,-0.1499 -0.9551,0.1102 -0.2772,0.335 -0.1926,0.2983 -0.1851,0.7685 -0.7109,-0.0839 -2.8581,-1.8979 -2.8867,-2.268 0.0717,-0.0766 0.0926,-0.0812 0.2321,-0.1121 1.2407,-0.0867 2.5063,-0.1056 3.7536,-0.1598 -0.0615,0.4486 0.0348,0.8267 0.0777,1.2526 0.1293,-0.5276 0.1087,-0.9451 0.3219,-1.561 0.0781,-0.2256 0.0949,-0.34 0.2333,-0.3925l0.0892 0.4523 0.1927 0.7033c0.1015,0.3517 0.4354,1.1549 0.6811,1.2984 -0.1114,-0.4354 -0.399,-0.9764 -0.5581,-1.4307 -0.2367,-0.6762 -0.2938,-1.7748 -0.047,-2.4754 0.3604,-1.0228 1.5512,-2.3124 2.9524,-1.6214 0.767,0.3783 1.3871,1.4785 1.5866,1.5789 0.1466,-0.2599 -0.3833,-0.8828 -0.6855,-1.1707 -0.6195,-0.5901 -0.5723,-0.4014 -1.127,-0.7368 1.0207,-0.2702 1.6627,0.0019 2.0524,-0.069 0.0111,-0.431 -1.8998,-3.1654 -2.2432,-3.62 -0.5419,-0.3617 -0.9085,2.1731 -0.9374,2.4924 -0.0351,0.3871 -0.0133,0.7603 -0.0383,1.129 -0.0283,0.0175 -0.5629,0.2027 -0.6203,0.2206 -0.0155,-1.0313 0.2332,-2.2913 0.5309,-3.2824 0.0871,-0.29 0.5071,-1.7375 1.0089,-1.5203zm11.9218 14.8762c-0.251,-0.5817 -0.9345,-1.4604 -1.4527,-1.6247 0.1296,0.1676 0.2647,0.3453 0.4161,0.4877 1.088,1.0234 1.1295,2.5651 0.89,3.9442 -0.2342,1.1978 -1.0549,2.4228 -1.9426,3.2462 -1.34,1.416 -3.3599,3.7265 -3.0704,5.7777 0.1503,1.0647 1.0057,1.6714 2.0801,1.8646 0.1874,0.0221 0.4992,0.0689 0.6225,0.1604 0.1487,0.6243 -0.1757,1.5435 -0.4378,2.107 -0.4273,0.0429 -1.4076,-0.4067 -1.8134,-0.6552 -0.5892,-0.3608 -1.093,-0.8317 -1.4999,-1.3884 -1.0841,-1.4843 -1.0102,-3.5994 0.1319,-5.0264 0.4259,-0.5322 1.557,-1.6487 1.0986,-2.3678 -0.2274,-0.3565 -0.6185,-0.5093 -1.0635,-0.4635 0.1155,0.0899 0.2388,0.0921 0.3343,0.1685 -0.0733,0.0485 -1.4071,0.161 -1.6396,0.193 -0.4967,0.0683 -1.0569,0.1533 -1.5097,0.3087 -0.2287,0.0785 -0.438,0.2095 -0.4864,0.4329 -0.1312,0.6061 1.5011,1.0939 1.5789,1.1003 0.1791,0.0557 0.4368,0.201 0.5821,0.2882 0.0265,0.2894 -0.7248,1.1548 -0.9381,1.2673 -0.1157,0.061 -1.7712,-0.7196 -1.8632,-0.8213 0.2958,-0.5716 0.3305,-1.2256 0.27,-1.8771 -0.0521,-0.5595 -0.152,-0.7912 -0.2702,-1.2788 1.0765,-0.4613 2.3102,-0.525 3.471,-0.6533 0.9132,-0.1009 0.9514,-0.2112 1.2353,0.1464 0.2519,0.3173 0.918,0.1994 1.2458,-0.0039 1.3573,-0.8416 1.6758,-4.1129 0.5375,-5.2333 -0.1304,-0.1284 -0.2936,-0.1993 -0.4292,-0.3299 0.1524,-0.2672 0.3532,-0.6189 0.4202,-1.0226 0.1036,-0.6249 -0.1258,-0.6489 -0.5646,-0.8829 0.0725,-0.1867 0.4266,-0.4177 0.6861,-0.5161 0.6869,-0.2604 1.3894,-0.2266 2.1004,-0.1165 0.821,0.1691 1.4072,0.285 2.172,0.7167 2.2769,1.2852 2.8966,3.3452 3.0134,5.7819 0.0252,0.5815 -0.711,3.595 -1.2413,3.5702 -0.1555,-1.289 -1.1902,-3.4283 -2.0977,-4.3761 0.3958,0.5951 0.897,2.1345 0.8479,2.5862 -0.0578,0.5325 -0.7192,2.415 -1.2128,2.5745 -0.2832,-0.134 -0.2591,-1.0713 -0.2981,-1.3582 -0.0635,-0.4675 -0.3268,-1.1061 -0.4898,-1.5538 -0.0934,-0.2565 -0.1283,-0.22 -0.0192,-0.4636 0.7045,-1.5727 1.4384,-2.78 0.606,-4.709zm-1.8453 6.3144c0.0786,0.5172 0.5887,1.9639 0.8931,2.4093 0.3741,0.5475 0.9155,1.001 1.4319,1.3963 0.1416,0.1085 0.5709,0.3578 0.538,0.5583 -0.5625,-0.0234 -1.5366,-0.5204 -1.9806,-0.8214 -0.6195,-0.4199 -1.2305,-0.9446 -1.5001,-1.2903 -0.2326,-0.2982 -0.4795,-0.5954 -0.6458,-0.937 0.1558,-0.3982 0.8734,-1.1208 1.2635,-1.3153zm5.6335 14.3371c-0.0783,0.1938 -0.4429,0.9053 -0.5501,1.0161 -0.0396,-0.0537 -0.2321,-0.6051 -0.1968,-0.6691 0.3141,-0.5695 0.42,-0.709 0.746,-1.3469 0.6987,-1.3678 0.7511,-2.2693 0.7637,-3.7834 0.2398,0.383 0.198,1.4822 0.1243,1.9762 -0.1473,0.987 -0.498,1.8966 -0.8871,2.807zm4.9045 -8.743c0.1065,-0.1451 0.2095,-0.2352 0.308,-0.2825 -0.0317,0.0033 -0.065,0.0053 -0.1001,0.0056 0.0396,-0.3263 0.1472,-0.9222 0.4708,-1.1139 0.2606,-0.1544 0.4977,-0.1388 0.7138,0.0902 0.3965,0.4202 0.6337,1.3036 0.6701,1.9059 0.0193,0.3198 -0.0221,0.8757 -0.2282,1.0411 -0.0784,-0.233 -0.1285,-0.494 -0.2096,-0.7375 -0.1408,-0.4232 -0.3471,-0.9497 -0.6307,-1.2749 -0.1484,-0.1181 -0.2706,-0.0215 -0.4867,0.043 0.3162,0.0239 0.5696,0.4615 0.7183,0.8272 0.3537,0.8694 0.8066,2.3746 -0.3537,2.8247 -0.5707,0.2214 -1.0334,-0.3028 -1.3191,-0.7852 0.2616,0.5491 0.5046,1.048 1.1353,1.4154 0.4904,0.2856 1.2807,0.658 1.2667,1.3488 -0.0076,0.3749 -0.1838,0.74 -0.5344,0.7711 -0.6329,0.0562 -1.6823,-0.7236 -2.1563,-1.1128 -0.2491,-0.2046 -0.4694,-0.3416 -0.6373,-0.6107 0.3917,-0.4152 0.4199,-0.6269 0.2224,-1.1621 -0.3893,-0.6388 -1.052,-0.8229 -1.3423,-1.1374 -0.3085,0.0881 -0.6404,0.1413 -0.9335,0.0368 0.0411,-0.0961 0.1279,-0.1928 0.2012,-0.249l0.6145 -0.6289c0.1869,-0.2015 0.3124,-0.5024 0.3302,-0.8864 0.02,-0.4348 -0.2262,-1.6392 -0.4416,-1.9699 -0.1469,0.6922 0.2204,1.3706 0.0703,2.1314 -0.0626,0.3176 -0.2193,0.4641 -0.3724,0.6684 -0.1137,0.1517 -0.334,0.4803 -0.4652,0.5832 -0.3064,0.0008 -0.5879,-0.4096 -0.9575,-0.4568 0.0681,0.2342 0.5282,0.4297 0.6576,0.646l0.0846 0.1148c0.0815,0.2307 -0.1882,0.5908 -0.2661,0.9053 0.2006,-0.0111 0.3019,0.0237 0.3655,-0.1681 0.2488,-0.7491 1.889,-0.2175 2.226,0.476 0.2121,0.4365 -0.1825,1.0388 -0.6029,1.1048 -0.2714,0.0426 -0.6449,-0.0531 -0.8347,-0.0918 -0.1676,-0.0241 -0.4537,-0.0618 -0.6838,-0.1242 0.1867,0.1361 0.3832,0.3106 0.5437,0.3601 0.5386,0.1662 0.5628,0.3094 0.8899,0.7179 0.1956,0.2441 0.4001,0.3944 0.6537,0.5726 0.3989,0.2802 0.7472,0.533 0.6749,1.2035 -0.0984,0.9128 -1.3732,0.3939 -1.8726,0.1378 -0.3002,-0.1539 -0.9113,-0.6502 -1.06,-0.9759 0.0755,-1.1113 -0.0469,-2.1981 -0.4431,-3.2384 -0.2621,-0.6307 -0.8144,-1.6287 -1.3576,-2.0655 -0.2415,-0.194 -0.5082,-0.3881 -0.7524,-0.5877 -0.151,-0.1234 -0.2394,-0.1493 -0.2804,-0.3718 -0.0693,-0.376 0.0814,-0.9303 0.3058,-1.2329 1.2108,0.3197 1.9695,0.4588 3.0606,-0.2755 0.32,-0.2153 0.6994,-0.6736 1.0071,-1.0653 -0.5958,0.6497 -1.5775,1.2188 -2.1471,1.3561 -0.4402,0.1061 -1.6413,0.0672 -2.039,-0.2531 -0.2686,-0.2163 -0.242,-0.5496 -0.2321,-0.959 0.3644,-0.033 0.7256,0.0879 1.1366,0.0148 -0.068,-0.0474 -0.7946,-0.2212 -1.0062,-0.2948 -0.9608,-0.3347 -1.0502,-0.6606 -0.5133,-1.3691 0.1003,-0.1324 0.445,-0.5858 0.6145,-0.6467 -0.0162,0.2196 -0.2239,0.6182 -0.1201,0.7834 0.4285,0.6824 2.6874,-0.1393 3.2564,-1.0312 0.4352,-0.6822 -0.536,-0.8574 -0.6981,-0.9925 0.3201,-0.2073 1.0997,-0.1031 1.268,0.3124 0.1831,0.4522 -0.3012,1.1667 -0.4218,1.8845 -0.0369,0.2198 -0.0265,0.6566 0.2882,0.7003 0.3144,-0.2301 0.0095,-0.9834 0.2084,-1.3472 0.2647,0.0732 0.7373,0.2917 0.85,0.5485 0.126,0.287 0.0445,0.6083 -0.1581,0.9261 0.0403,-0.0516 0.9709,0.6631 1.0666,0.754 1.3956,1.3241 0.4454,3.6199 -1.215,4.1783 -0.0515,0.0173 -0.1053,0.036 -0.161,0.0553 0.4262,-0.0723 1.0746,-0.1828 1.2254,-0.2906 0.0808,0.1195 0.1517,0.2386 0.2164,0.3568 -0.1005,-0.2524 -0.1244,-0.4864 0.1407,-0.6743 0.5222,0.6793 0.4443,0.6532 0.6016,1.3772 0.0352,-0.0781 0.038,-0.1306 0.0794,-0.2053 0.2973,-0.0193 0.3312,0.1922 0.4984,0.1966 0.1575,-0.3185 -0.3469,-0.3243 -0.6329,-0.774 -0.35,-0.5503 -0.3636,-1.4037 0.0252,-1.9333zm-21.1237 1.4333c-0.0781,-0.3334 -0.1283,-0.88 0.1798,-1.0149 0.3332,-0.1459 0.7098,0.2686 0.8123,0.4223 0.2036,0.3053 0.264,0.5754 0.2672,1.0142 0.0075,0.9947 0.3259,2.5354 -0.3359,3.3562 -0.2735,0.3391 -0.8011,0.5725 -1.1725,0.53 -0.3354,-0.0384 -0.4933,-0.4404 -0.5882,-0.7345l-0.3219 -0.6808c-0.0838,-0.0578 -0.1213,-0.2187 -0.2619,-0.2602 -0.0617,0.1206 0.3551,1.1977 0.4153,1.4514 0.2146,0.9039 -0.4681,1.3043 -1.2116,1.24 -0.7242,-0.0627 -0.9873,-0.9146 -1.2338,-1.5328 -0.1185,-0.2971 -0.1037,-0.9309 -0.4596,-1.0633 -0.44,-0.1638 -0.0077,0.4615 0.0515,0.5484 0.1026,0.1506 0.1606,0.3409 0.2323,0.5439 0.4148,1.1754 0.9675,1.9407 1.1191,3.525 0.3176,3.3205 -1.2654,4.2258 -2.1042,2.817 -1.1209,-1.8826 -0.5464,-6.1305 -1.8524,-7.4368 -0.7142,-0.7143 -1.6852,-0.5192 -2.0805,0.1019 0.1142,-0.0525 0.6886,-0.4637 1.1011,-0.1133 -0.0192,0.189 -0.0888,0.4342 -0.1228,0.6429 -0.1522,0.932 -0.1001,1.295 -0.111,2.2155 -0.0192,1.6193 -0.2948,3.5625 -1.9482,4.2113 -0.9431,0.3701 -1.7922,0.2066 -1.7715,-0.9663 0.0136,-0.7753 0.5119,-1.6952 0.8006,-2.2974 0.9774,-2.0385 0.183,-4.5946 0.7457,-6.8754 0.126,-0.5107 0.4757,-0.7813 0.4747,-1.0303 -0.1752,0.039 -0.8237,0.5904 -0.8734,0.7353 0.0924,0.2323 0.2028,0.1162 0.1315,0.4742 -0.3423,1.7195 0.1981,2.3977 -0.9937,3.5311 -1.0398,0.9889 -3.6096,1.1039 -3.3842,-0.3427 0.1858,-1.1922 2.1353,-1.4342 2.7113,-2.4738 0.3077,-0.5555 0.5126,-1.2271 0.8358,-1.7546 0.3407,-0.5561 0.7925,-0.9465 1.2229,-1.3381 0.5284,-0.4808 0.6835,-0.9512 1.0968,-1.4932 0.5113,-0.6704 1.4722,-1.538 2.3588,-1.8007 -0.4692,0.0673 -0.9242,0.2147 -1.432,0.4353 -0.0852,-1.4064 1.144,-1.4854 2.2115,-1.8671 0.4476,-0.1601 1.064,-0.3667 1.4551,-0.5702 0.3414,-0.1777 0.9293,-0.6259 1.0651,-0.9702 -0.3578,0.2196 -0.6607,0.7556 -1.3629,0.6296 -0.4476,-0.9537 0.7471,-1.6101 1.6134,-1.6616 1.3355,-0.0794 3.0614,0.5895 3.804,1.2785 0.7916,0.7344 1.524,1.8978 1.4076,3.0599 -0.1006,1.0035 -0.7856,1.6892 -1.8813,1.6862 -0.0971,-0.0297 -0.2201,-1.1943 -0.2562,-1.3781 -0.0434,-0.1777 -0.4901,-1.1638 -0.2107,-1.3327 0.145,-0.0877 0.4241,-0.0617 0.7966,0.242l0.257 0.1371c-0.1101,-0.1721 -1.971,-2.0699 -1.7269,-0.7734 0.1099,0.5279 0.1757,1.0245 0.4034,1.5163 0.2045,0.4419 0.4495,0.8365 0.4812,1.4309 0.0376,0.7055 -0.1772,1.634 -0.8868,1.8602 -0.099,-0.3865 -0.3809,-0.6172 -0.4264,-0.7915 0.1291,0.033 0.3705,0.2183 0.511,0.2907 -0.1346,-0.2757 -0.4071,-0.6257 -0.5884,-0.8802 -0.7842,-1.1008 -1.9928,-1.9127 -3.3201,-2.2168 -0.1959,-0.0449 -0.3815,-0.0804 -0.5595,-0.1071 1.5229,0.362 2.9962,1.678 3.6588,3.0209 0.5675,1.1501 0.8398,1.0734 1.0413,2.8248 0.045,0.3915 0.0697,0.7878 0.0876,1.1836 0.0094,0.2095 0.0137,0.4258 0.0295,0.6293 0.0198,0.2545 0.0193,0.4226 0.1751,0.4658 0.1143,-0.1966 0.053,-0.5633 0.057,-0.8235 0.1254,0.0712 0.2164,0.1609 0.3423,0.2273 -0.0813,-0.2042 -0.1959,-0.4134 -0.2921,-0.6185 -0.1624,-0.3462 -0.1095,-0.6993 -0.1835,-1.0792zm13.9948 9.8517c0.2035,-0.3392 0.3284,-0.4044 0.2164,-0.8685 -0.0563,-0.279 -0.1253,-0.4767 -0.222,-0.7118 -0.4458,0.027 -1.4165,1.5627 -1.4308,2.0038 -0.0076,0.2352 0.1529,0.9156 0.4309,0.971 0.2052,-0.1164 0.8223,-1.1029 1.0054,-1.3945zm-10.7919 2.1701c0.4354,0.1691 0.6214,0.3119 0.9522,0.5681 0.0885,0.0686 0.2177,0.1371 0.188,0.2926 -0.1968,0.0629 -0.7605,-0.0311 -1.241,-0.1338 -0.2193,-0.0469 -0.6877,-0.2029 -0.7435,-0.1799 0.4897,0.1747 0.9621,0.3455 1.4014,0.4721 0.4032,0.0658 0.8065,0.1417 1.1854,0.2478 0.2507,0.0702 0.8117,0.2498 0.9947,0.451 -1.1424,-0.0719 -4.2602,-0.7827 -5.2083,-1.5207 0.1418,0.0349 0.2787,-0.0117 0.4226,-0.0193 -0.6217,-0.2254 -1.1916,-0.5611 -1.4731,-1.186 -0.1026,-0.2277 -0.0489,-0.8968 0.2745,-1.1769 0.3769,-0.3265 1.0191,-0.1104 1.4447,0.046 0.9536,0.3505 1.5568,0.8433 2.3392,1.4551 1.2866,1.0062 2.5222,2.1516 4.2478,2.2765 1.6293,0.0484 2.0158,-0.2965 3.3941,-0.9484 0.0682,0.0702 0.1892,0.2848 0.2486,0.3793l-0.4222 0.1664c-2.3097,1.147 -4.4658,0.9982 -6.4614,-0.3838 -1.0303,-0.7135 -2.5208,-1.9978 -3.7065,-2.3536 -0.4596,-0.1379 -0.9467,-0.2899 -1.2538,0.1478 0.0902,-0.0522 0.2186,-0.0883 0.3759,-0.1144 0.3568,-0.0591 0.8287,0.092 1.1546,0.2315 0.4315,0.1847 0.8539,0.4713 1.251,0.7232 1.0638,0.6748 0.6822,0.4385 -0.3019,0.2 -0.518,-0.1256 -0.9539,-0.1758 -1.4287,-0.2787 -0.3309,-0.0717 -0.5005,-0.1253 -0.8412,-0.1283 0.1885,0.0604 0.3854,0.1369 0.6009,0.1905 0.8522,0.2121 1.7772,0.2539 2.6059,0.5758zm8.748 -4.1534c-0.2981,0.2782 -0.813,0.9588 -1.2878,0.832 -0.5299,-0.2873 -1.3437,-1.1359 -2.3135,-1.4665 -1.2017,-0.4097 -1.9431,-0.0287 -2.2287,-0.0886 0.0449,-0.3556 1.2986,-1.805 1.6243,-2.1462 -0.2057,0.1244 -0.4658,0.2323 -0.6431,0.2889 -0.9976,0.3372 -1.8625,0.6484 -2.8973,0.9112 -1.6987,0.4312 -4.8811,0.2928 -6.2131,-0.4396 0.1938,-0.0473 0.8195,-0.3188 0.8311,-0.3201 0.2339,-0.0248 2.1887,0.469 2.9512,0.4559 1.5434,-0.0086 2.5484,-0.1936 4.0275,-0.6827 0.0941,-0.0393 0.2424,-0.1233 0.4174,-0.2218 -0.5761,0.1814 -2.0008,0.4784 -2.309,0.5015 -0.0112,-0.4576 0.1569,-0.9365 0.2015,-1.3953 0.0874,-0.8982 -0.607,-1.9569 -1.2185,-2.5709 -0.3522,-0.3537 -0.7387,-0.6355 -1.3041,-0.8953l-0.0053 -0.3617c0.0255,-0.0061 1.7609,-0.725 1.8318,-0.7009 0.055,0.0187 0.2696,0.1426 0.5161,0.2818 -0.6061,-0.4893 -0.9345,-1.3905 -0.3475,-1.4507l0.9835 0.0483c0.2093,0.0258 0.1889,0.0476 0.2586,-0.004 -0.1252,-0.0568 -0.3823,-0.1758 -0.4427,-0.2851 0.1649,-0.1205 0.4017,-0.1987 0.487,-0.3573 -0.21,-0.1007 -0.8561,0.1422 -1.1128,0.1809 -0.8936,0.1348 -1.8519,0.1954 -1.3245,-0.9714 0.0775,-0.1715 0.3757,-0.7376 0.4928,-0.8341 0.1899,0.0391 0.1959,0.0176 0.0926,0.1634 -0.9024,1.2738 0.4734,0.9024 1.1773,0.4683 1.726,-1.0645 2.0317,-3.041 0.8444,-2.4604 -0.4184,0.2046 -0.3301,0.3776 -0.5878,0.2078 0.1741,-0.3287 0.9579,-0.7717 1.3672,-0.7228 0.3595,0.043 0.4897,0.3854 0.632,0.7693 0.1267,0.3416 0.1397,0.2649 -0.0507,0.51 -0.3868,0.4979 -0.7577,1.1917 -0.9748,1.898 -0.3395,1.1042 -0.1642,1.4049 0.0265,2.4565 0.1095,0.6036 -0.6798,0.729 -1.1076,0.611 0.1811,0.0959 0.3414,0.1731 0.4283,0.1944 0.2724,0.0668 0.8356,0.5172 1.052,0.7337 0.8626,0.8632 1.7365,2.6626 0.8015,3.7622 0.294,-0.1525 0.6029,-0.2887 0.8381,-0.3106 0.1946,-0.018 0.6117,-0.0243 0.5457,0.318 0.1808,-0.1035 0.3096,-0.0452 0.6328,-0.0477 0.2199,-0.0017 0.6273,-0.1326 0.8318,-0.0241l-0.0695 -0.0862c0.0521,-0.1392 1.7627,-0.5269 1.9665,-0.545 -0.1622,-0.1588 -0.463,-0.246 -0.6813,-0.2055 -0.5318,0.0987 -1.242,0.6709 -2.1979,0.5177 -0.5541,-0.0889 -0.8864,-0.4034 -1.09,-0.7888 -0.0752,-0.1424 -0.2382,-0.6406 -0.2596,-1.018 -0.0461,-0.8167 0.364,-0.6424 0.4931,-0.4458 0.1519,0.2314 0.203,0.6188 0.2728,0.7494 0.2017,0.3775 0.4091,0.5784 0.9861,0.509 0.9995,-0.4201 1.2405,-1.4473 1.2848,-2.4545 0.0198,-0.5233 0.009,-1.2887 -0.1668,-1.7373 -0.4097,-1.0457 -1.1758,-0.2503 -1.5673,0.2516 -0.2749,0.3522 -0.4998,0.204 -0.5492,-0.0181 -0.1011,-0.4545 0.8181,-1.219 1.2575,-1.3995 0.4841,-0.2046 0.7319,-0.2216 1.0516,0.1102 0.6044,0.6272 0.9099,2.9734 1.202,3.1222 0.3715,0.1552 0.4671,-0.6924 0.5213,-0.9929 0.0173,-0.1541 0.1365,-0.8089 0.0601,-0.9023 -0.0089,0.0933 -0.1597,0.3778 -0.2097,0.5246 -0.063,0.1849 -0.1017,0.3755 -0.2494,0.4737 -0.3062,-0.0729 -0.7272,-1.2715 -0.4997,-1.6671 0.2173,-0.3782 1.0137,-0.7047 1.6021,-0.4839 1.1897,0.4467 2.1345,3.23 1.3555,4.8997 -0.1306,0.28 -0.2661,0.4825 -0.4222,0.7093 -0.5366,0.7797 -2.0407,1.5212 -3.1532,1.2258 -0.1719,-0.0457 -0.5697,-0.1192 -0.8109,-0.2341 0.2955,0.3549 0.7334,0.5022 1.1836,0.5267 0.9789,0.0531 1.2208,-0.3594 1.6936,0.0072 0.2313,0.1433 0.7803,0.443 0.7558,0.7563 -0.1085,0.3113 -1.0927,1.5815 -1.2842,1.7602zm-4.5066 -9.4042c0.2712,-0.0619 0.6972,-0.7333 0.8246,-1.0364 0.212,-0.5043 0.1891,-1.1869 -0.222,-1.3606 -0.2856,0.3624 -0.5995,1.77 -0.6026,2.397zm-2.6866 -13.8161c0.2645,-0.1209 0.869,-0.5585 1.0078,-0.7216 -0.0763,-0.0729 -0.1514,-0.108 -0.2369,-0.1688 0.2942,-0.0301 0.6697,0.1221 0.833,-0.4411l-0.6312 -0.1203c0.1968,-0.0268 0.6323,-0.0501 0.7742,-0.1333 0.1112,-0.2302 0.1203,-0.5413 -0.128,-0.595 -0.1976,-0.0427 -0.5575,0.0237 -0.7759,0.0164l0.8073 -0.2837c-0.0648,-0.5635 -0.832,-0.6489 -1.2158,-0.3615 -0.0064,0.5342 0.0002,1.239 -0.1127,1.7418 -0.0878,0.391 -0.5671,1.0798 -0.5956,1.2239l0.2736 -0.1568zm-3.4127 -0.0416c0.2717,-0.0913 1.3081,-0.4128 1.3651,-0.7766 0.0171,-0.1092 -0.0507,-0.1619 -0.111,-0.2314 -0.1616,-0.1864 -0.6067,-0.8742 -0.713,-1.0735 -0.1465,-0.2743 -0.9176,-2.2585 0.0837,-1.781 0.7426,0.3541 1.0606,1.4888 1.2539,1.6119 0.4477,-0.939 -0.5712,-3.0855 -1.2934,-3.8053 -1.351,-1.3465 -2.948,-0.4031 -3.0848,1.2369 -0.1161,1.3928 1.1578,3.3551 1.394,4.1756 0.0782,0.2717 0.0652,0.5545 -0.0635,0.787 -0.2125,0.3837 -0.3392,0.2079 -0.5829,0.3674 0.0319,0.1132 0.1572,0.2526 0.2362,0.3273 0.2686,-0.2317 0.3772,-0.3721 0.7203,-0.5284 0.2578,-0.1175 0.531,-0.2074 0.7952,-0.3099zm1.7499 -1.4652c0.0371,-0.2004 -0.2303,-0.5799 -0.3871,-0.6088 -0.0787,0.278 0.2418,0.5835 0.3871,0.6088zm-3.418 2.6009c-0.0218,-0.148 -0.2226,-0.335 -0.3434,-0.3803 0.0038,0.1472 0.1794,0.4182 0.3434,0.3803zm-0.8782 0.6126c0.1783,0.0419 0.4394,-0.1361 0.5345,-0.225 -0.0546,-0.0949 -0.441,-0.4781 -0.5979,-0.6921 -0.1249,-0.1703 -0.164,-0.2953 -0.2573,-0.4591 -0.0895,-0.1573 -0.1919,-0.1489 -0.3904,-0.2928 -0.1463,-0.106 -0.4211,-0.4159 -0.5091,-0.4552 0.1071,0.3516 0.839,2.0345 1.2202,2.1243zm-1.0384 0.706c0.1837,0.084 0.9485,-0.0502 1.0313,-0.3467 -0.2877,-0.0677 -0.9795,0.1437 -1.0313,0.3467zm12.287 21.5607l0.7104 0.6426c-0.0847,0.1945 -0.2867,0.358 -0.2379,0.6807 0.0986,0.6533 0.5563,1.545 0.6181,2.1963 0.0255,0.2682 0.1656,0.4903 -0.509,0.7396 -5.0362,1.8611 -6.1389,-2.4152 -9.4375,-3.3072 -0.218,-0.059 -0.6092,-0.0902 -0.7564,-0.1967 -0.0279,-0.4583 2.0556,-1.0858 2.4562,-1.1887 1.7205,-0.4415 3.593,-0.3922 5.3147,0.0549 0.2466,0.064 0.545,0.1816 0.7621,0.2209 -0.2381,-0.2563 -1.2724,-0.6398 -1.7176,-0.7554 -0.2055,-0.0534 -0.4778,-0.0825 -0.6605,-0.1362 0.0621,-0.2312 0.7483,-0.1837 1.0038,-0.1427 1.3758,0.2207 1.6154,0.579 2.4536,1.1918zm5.7747 -8.532c1.0215,1.4178 1.1268,3.0186 0.6885,4.7137 -0.1859,0.7192 -0.7208,2.0834 -1.1688,2.5822 -1.2833,-2.8873 -1.2224,-1.0046 -2.3051,-1.9345 -0.1526,-0.056 -0.4152,-0.3534 -0.6278,-0.4301 0.069,-0.0854 0.1496,-0.0991 0.2465,-0.1409 1.6683,-0.7197 2.1736,-2.9359 1.7464,-4.4733 -0.1092,-0.3929 -0.6274,-1.3331 -0.8174,-1.6913 0.9466,0.3041 1.5707,0.4483 2.2378,1.3742zm-12.112 4.934c-0.0639,0.2203 -0.2345,0.5386 -0.4739,0.5929 -0.8759,0.1986 -3.2983,-0.0498 -4.1329,-0.4078l0.1196 -0.2221c0.1337,-0.2335 0.1393,-0.3157 0.4501,-0.3632 0.7358,-0.1233 1.4232,-0.437 1.6889,-1.207 0.4045,-1.1718 0.1928,-1.2761 0.2508,-2.4285 0.5162,0.1907 1.3183,0.9132 1.7943,1.5343 0.5127,0.6692 0.5309,1.7167 0.3032,2.5014zm3.2166 -3.3876c0.2633,0.3111 0.0687,0.1621 0.0559,0.9365 -0.1261,-0.2256 -0.2043,-0.4715 -0.3243,-0.7063 -0.4566,-0.8929 -1.5248,-1.5974 -1.5372,-1.6238 0.0731,-0.0711 0.3422,-0.2062 0.4548,-0.2378 0.4166,0.5662 0.9105,1.1113 1.3507,1.6314zm1.6691 -3.4739c-0.2903,0.2903 -0.665,0.7643 -0.9059,0.9854 -0.1197,-0.1689 -0.0962,-0.4801 0.0132,-0.6345 0.186,-0.2626 0.5035,-0.5399 0.6246,-0.883 0.0174,-0.1428 0.2169,-0.7221 0.2676,-0.9413 0.4133,0.0948 1.3449,0.6177 1.5309,1.0824 -0.6367,-0.1708 -1.0744,-0.0149 -1.5305,0.3909zm-4.4795 -15.8779c0.1613,-0.5192 2.19,-1.7609 2.6747,0.0083 0.4175,1.524 -2.1339,2.4723 -2.4351,2.7662 -0.2284,0.2228 -0.9702,0.9695 -1.1467,1.0597 0.097,-0.1059 0.2233,-0.2687 0.3235,-0.3939 0.7986,-0.9969 1.4087,-1.5359 1.3963,-3.0781 -0.0077,-0.9639 -0.2832,-0.542 -0.8128,-0.3622zm2.7605 6.2481c0.4761,-0.5774 0.8173,-1.1208 1.1357,-1.7994 -0.8088,1.1527 -2.1051,2.6285 -3.1365,3.5499 -0.5787,0.517 -1.8623,1.6857 -2.5453,1.9893 -0.8711,-1.2434 -0.8783,-1.0405 -2.1142,-1.8544 1.6736,-0.6524 3.8101,-1.905 5.2022,-3.0158 0.7925,-0.6322 1.4925,-1.3357 2.208,-2.0498 0.9713,-0.9737 1.259,-0.263 0.9935,0.2991 -0.0554,0.202 -0.3218,0.6503 -0.4532,0.8535 0.8211,0.3963 1.217,1.3512 1.2765,2.2175 0.0699,1.0157 -0.3599,3.0901 -1.545,3.2378 -0.2439,0.0353 -0.4671,-0.0492 -0.5897,-0.1773 -0.3405,-0.3563 0.3568,-0.5649 -0.0797,-1.3215 -0.1861,-0.3226 -0.42,-0.6236 -0.6651,-0.9006 -0.1179,-0.1332 -0.2345,-0.2902 -0.2311,-0.3761 -0.0042,-0.0891 0.3326,-0.3959 0.5439,-0.652zm9.1843 4.1776c0.0713,-0.3551 0.2648,-0.7145 0.3437,-1.1364 0.1251,0.0939 0.2522,0.4038 0.3274,0.5507 0.232,0.5562 0.3717,1.1615 0.5354,1.7426 -0.3886,0.2795 -0.8459,0.4727 -1.3004,0.6189 -0.07,-0.1045 -0.0898,-0.5934 -0.1112,-0.7734 -0.045,-0.3777 0.0781,-0.6667 0.2052,-1.0023zm-16.1388 -6.9106c0.2564,-0.0502 0.552,-0.1059 0.5811,0.2499 0.0427,0.5236 -0.7956,1.0837 -0.8088,1.2745 -0.02,0.2873 0.8629,0.7839 1.085,0.8762 0.709,0.2945 2.0097,0.5695 2.4624,0.2878 0.4235,-0.1424 1.6678,-1.0847 2.0225,-1.3648 0.9066,-0.716 2.3796,-1.8628 2.7098,-3.0022 0.3422,-1.2064 0.06,-2.7075 -0.8994,-3.5452 -1.1344,-0.9906 -2.8809,-0.633 -3.3948,0.8033 -0.2638,0.7374 -0.3843,1.7591 -0.6499,2.2946 -0.4785,0.9535 -1.8317,1.0158 -2.4871,1.3919 -0.2134,0.1225 -0.6503,0.4822 -0.6209,0.734zm0.5029 -12.7104c0.2526,0.0479 0.7103,0.83 0.8769,1.0884 0.2338,0.3625 1.0317,1.5811 1.1552,1.9682 -1.1183,-0.0535 -1.7522,0.0169 -2.6974,0.2061 -0.0057,-0.3321 -0.0049,-0.6347 0.0241,-0.9667 0.0477,-0.5476 0.3188,-1.9564 0.6413,-2.296zm13.7484 34.9688c0.0624,0.3505 0.3077,0.9985 0.2432,1.3531 -0.0753,0.4146 -0.8852,1.6683 -1.2025,1.9537 -0.3857,0.3469 -0.5861,0.2281 -0.7971,-0.3655 -0.4779,-1.3446 1.6353,-3.4904 1.9408,-3.3132 0.1266,0.0735 0.1862,0.4028 0.1865,0.6001 -0.1543,-0.0582 -0.212,-0.163 -0.3709,-0.2282zm-12.6575 -8.3872l0.0824 0.4496c0.3459,-0.0769 1.2046,-0.4121 1.5189,-0.5873 0.1163,-0.0649 0.0413,-0.1929 -0.1481,-0.1783 -0.9985,0.0439 -0.8131,0.2116 -1.4533,0.316zm10.1341 13.0174c0.3381,0.3943 1.2546,0.4055 1.6782,-0.0483 0.8069,-0.7607 2.2659,-2.5581 2.1898,-3.823 -0.0235,-0.39 -0.2703,-1.0375 -0.5022,-1.5807 -0.2342,-0.5488 -0.4452,-1.2944 -1.1912,-1.2099 -0.2085,0.0236 -2.7795,3.4059 -2.858,3.6255 -0.1556,0.4356 0.3206,2.6132 0.6834,3.0364z"/>
  <path class="fil0" d="M82.6795 9.4453c2.2523,2.0833 2.7818,4.4553 2.389,4.3995 -0.8556,-0.1218 -2.8035,-1.0017 -4.4959,-1.0719 -1.2094,-0.0501 -1.9585,-0.0347 -3.1858,0 0.4796,0.7163 2.3036,1.3385 3.7774,5.6907 0.8199,2.4212 0.667,5.1025 0.0747,4.3615 -0.7951,-0.9946 -3.0288,-2.6646 -4.1993,-3.2441 -0.3893,-0.1928 -0.7774,-0.457 -1.201,-0.5557 0,1.129 -0.0236,0.8573 0.5062,1.8758 0.4269,-0.2049 1.1608,-0.1576 1.4962,0.1413 0.5906,0.5264 0.2605,0.891 0.2605,1.4367 0.0458,0.0122 1.345,0.6777 0.7741,1.7566 0.4918,0.1146 1.5654,1.2199 1.578,1.7864 0.1148,-0.0841 0.6897,-1.1435 1.5101,-0.1703 0.1716,0.2036 0.2938,0.4106 0.377,0.6651 0.7518,2.2992 0.1935,1.861 -0.0535,3.0062 -0.1433,0.6645 -0.4917,1.4415 -1.2977,1.4415 0.7458,0.6475 1.6078,0.3819 1.6078,1.9949 0,0.4351 -0.3967,0.7145 -0.8039,0.7145 -0.8231,0 -2.0345,-0.8608 -2.6131,-1.3766 -0.4592,-0.4093 -0.3535,-0.3503 -0.9598,-0.3503 0.0471,0.5659 1.1193,1.0695 1.4764,1.5605 0.4311,0.5927 0.5842,1.6848 -0.7023,1.6848 -1.3189,0 -2.2201,-1.2113 -2.501,-1.3993 -0.1198,1.4399 -1.4887,3.5721 -1.4887,3.7217 0,0.5168 0.3706,0.2724 -0.3866,1.7272 -0.4349,0.8355 -1.7677,2.8852 -2.8857,2.8522 -0.6008,-0.0178 -0.3899,-0.1648 -0.9725,0.0781 -2.3292,0.9711 -4.1814,0.9103 -6.631,0.5018 -1.7356,-0.2894 -3.764,-0.7034 -4.9861,-1.9214 -2.0785,-2.0714 0.6215,-3.6946 2.5766,-4.197 3.1479,-0.8089 2.163,0.4989 3.7111,-1.4695 0.0914,-0.1163 0.2781,-0.2927 0.3146,-0.4297 -0.1516,0.0353 -0.3405,0.1291 -0.5021,0.1826 -2.2887,0.7576 -5.1454,0.9677 -7.5309,0.3772 -0.3656,-0.0905 -0.7196,-0.259 -0.9885,-0.3216 0.2886,1.2386 0.8775,5.0913 -1.2803,5.0913 -2.9599,0 -1.1292,-7.8775 -3.4835,-8.426 -0.0444,0.5326 -0.1909,1.16 -0.2464,1.7485 -0.1504,1.5959 0.1665,4.7055 -1.685,5.5499 -0.5665,0.2584 -1.7925,0.4812 -2.3342,0.0042 -1.0984,-0.9674 0.5313,-3.1592 0.9194,-4.8429 0.1325,-0.5747 0.2145,-1.2696 0.1579,-1.8914 -0.0117,-0.129 -0.0541,-0.2594 -0.057,-0.3896 -0.8567,0.9852 -1.2541,1.4589 -2.8285,1.4589 -0.8262,0 -1.6071,-0.0666 -1.7157,-1.0254 -0.1716,-1.5146 1.9423,-1.9302 2.7348,-2.8384 0.6851,-0.7852 0.6468,-1.6585 1.3583,-2.542 0.9791,-1.2157 0.7509,-0.2451 2.0305,-2.4356 0.1993,-0.3311 0.4477,-0.6473 0.8025,-0.835 -0.1662,-2.4934 2.0445,-1.8255 3.3645,-2.7094 0,-0.2656 -0.0893,-0.4521 -0.0893,-0.7145 0,-0.9075 0.9849,-1.578 1.9056,-1.578 0.7174,0 1.3489,0.0929 2.012,0.2805 0.8816,0.2495 0.8505,-0.024 1.9353,-0.4717 0.1966,-0.0811 1.1578,-0.5328 1.3524,-0.702 -1.3213,-0.0294 -2.9732,-1.2803 -2.9774,-1.2803 -0.105,0 -1.1438,0.7225 -2.0154,0.2885 -0.1538,-0.0766 -0.3368,-0.2142 -0.3368,-0.4076 0,-0.8229 0.5616,-0.7193 1.1999,-0.9736 0.0811,-0.0323 0.1118,-0.048 0.1995,-0.0685 -0.315,-0.401 -0.5852,-0.9097 -0.9757,-1.2276 -0.5447,-0.4434 -1.0743,-0.828 -1.442,-1.4461 -0.2708,-0.4553 -0.3637,-0.3882 -0.8182,-0.6407 -0.7937,-0.4408 -3.8616,-2.5279 -2.116,-2.7521 0.5265,-0.0677 1.0797,0.028 1.5988,-0.009 0.7601,-0.0541 1.6001,-0.1473 2.3537,-0.1473 0.0344,-0.413 0.2861,-0.7189 0.4346,-1.0838 0.1629,-0.4 0.1473,-1.394 0.8973,-2.1397 0.4171,-0.4146 0.2282,-0.345 0.2774,-1.1815 0.0419,-0.7137 0.8162,-4.5569 1.5169,-4.5569 0.7484,0 2.1134,2.0296 2.4414,2.6499 0.415,-0.0966 1.8398,-1.1037 5.1932,-1.7143 3.1698,-0.5772 6.9573,-0.1616 9.833,1.2772 0.6566,0.3285 2.4808,1.1124 2.4808,1.896 -1.5061,0 -3.3291,0.3887 -4.7455,0.8817 -0.1712,0.0595 -0.4171,0.1305 -0.5542,0.2497 1.4911,0.3474 2.2859,0.4521 3.7915,1.1213 1.879,0.8351 3.3162,1.7871 4.8657,3.0839zm-12.7659 12.0811c0.1097,-0.0735 0.542,-0.6684 0.7443,-0.8039 0.0075,0.09 0.4845,1.1284 0.6468,2.4199 0.0576,0.4583 0.0698,1.4642 0.9485,0.2473 0.4403,-0.6098 1.0385,-1.7973 1.0546,-2.5183 0.1231,0.1416 0.2731,0.595 0.306,0.7658 0.2034,1.0553 -0.9611,1.1686 -0.9611,2.152 0,0.9736 0.5385,0.755 0.7359,1.052 0.1579,0.2376 -0.2986,0.6769 0.2765,1.0619 -0.1514,0.286 -0.2506,0.8387 -0.4466,1.1314 -0.7284,0 -0.943,-0.4756 -1.61,-0.6826 -0.7842,-0.2434 -1.2398,0.3542 -1.6353,0.5635 -0.541,-0.3623 -0.438,-1.2927 -1.8348,-1.738 -0.2442,-0.0779 -0.2025,-0.0752 -0.361,-0.2345 -0.3185,-0.32 -0.4901,-0.2637 0.0277,-1.0292 0.0854,-0.1263 0.3689,-0.5062 0.5007,-0.5413 0.1358,0.5829 0.8803,1.2349 1.3611,1.6164 1.2852,1.0201 4.8201,2.1587 3.0202,0.7016 -1.7097,-1.384 -1.7837,-1.4705 -2.65,-3.7812 -0.0434,-0.1157 -0.0794,-0.2841 -0.1234,-0.3827zm-6.6098 1.5482c-0.2983,-0.0695 -0.586,-0.2035 -0.7145,-0.4466 0.2322,-0.4389 3.0128,-0.8128 3.4587,-0.6602 0.7157,0.2448 -0.1399,1.1966 -0.1836,1.2259 -0.2367,-1.0158 -0.9191,-1.2887 -1.8343,-0.6731 -0.3369,0.2266 -0.5577,0.441 -0.7263,0.554zm-2.2926 3.3049c0,0.6912 0.667,0.7146 1.2803,0.7146 -0.0884,0.1843 -0.0233,0.6948 -0.1194,0.7441 -0.0396,0.0203 -0.8933,0.1063 -1.1911,0.1785 -0.1386,0.0336 -0.258,0.0898 -0.4164,0.0898 -0.0652,-0.2802 -0.3755,-0.6292 -0.6251,-0.7445 -0.6993,-0.3232 -0.672,-0.0892 -1.1018,-0.0892 -0.0087,-0.1044 -0.0526,-0.251 -0.0893,-0.3275 0.7382,-0.1719 0.827,-1.1872 0.9527,-1.7269 1.0121,-0.0842 1.0872,-0.1972 1.6376,-0.5657l0.3873 0.1782c-0.0385,0.1645 -0.7148,1.1498 -0.7148,1.5487zm1.6376 -5.7761c0.6252,-0.5061 2.2317,-1.9212 2.6201,-2.501 0.2893,0.1937 0.9825,1.3801 0.9825,1.6375 0,0.4735 -0.2684,0.4203 -0.6304,0.4713l-2.9722 0.3922z"/>
  <path class="fil1" d="M59.6366 0.5093c0.2657,0.115 0.7698,0.7703 0.957,1.0106 0.4713,0.605 2.8407,4.2841 2.7639,3.7929 -0.1838,-0.3224 -0.3419,-0.6591 -0.5359,-0.9899 -0.2702,-0.4606 -0.5379,-0.9107 -0.8022,-1.3756 0.1724,-0.068 0.4001,-0.2075 0.5917,-0.3044 2.4606,-1.2445 5.483,-1.7381 8.2457,-1.558 2.0172,0.1315 6.1901,1.0009 7.4476,2.5474 -0.0112,0.0082 -3.5827,0.5955 -4.6015,1.2893 -0.3408,0.1436 -0.3015,0.2343 -0.7324,0.1783 -0.8073,-0.1049 -1.9398,-0.1809 -2.7295,-0.1544 -0.8743,0.0294 -1.8191,0.2305 -2.6785,0.413 1.1928,0.0949 2.6455,-0.3704 4.8982,-0.0752 1.9919,0.2611 3.9141,0.7773 5.7299,1.6393 2.0967,0.9953 4.3445,2.6696 5.6544,4.5729 0.2954,0.4293 0.8004,1.2786 0.8276,1.7485 -1.1454,-0.281 -2.1333,-0.5651 -3.2579,-0.7169 -0.8844,-0.1194 -1.9826,-0.1885 -2.8666,-0.1594 -0.403,0.0132 -0.8478,0.0539 -1.2515,0.0497 -0.77,-0.0038 -2.026,-1.3249 -4.5277,-2.0227 -0.3345,-0.0933 -1.1809,-0.3521 -1.5204,-0.2725 0.1776,0.1496 1.5272,0.4566 1.8876,0.5885 0.5952,0.2629 1.9291,0.838 2.8154,1.3924 0.4191,0.2622 0.9842,0.7429 1.4984,1.2356 0.7003,0.6711 1.3845,1.4679 1.9028,2.2919 0.784,1.2461 2.4975,5.4112 1.9889,6.7779 -0.2619,-0.356 -1.5189,-1.3352 -2.3826,-1.9833 -1.1497,-0.8627 -1.7293,-1.1359 -3.0615,-1.7915 -0.236,-0.1161 -0.1143,-0.2171 -0.3096,-1.2064 -0.2238,-1.1342 -0.7484,-2.2043 -1.5112,-3.0687 -1.6038,-1.8172 -3.0083,-1.9851 -5.311,-2.0776 -0.0142,-0.1112 0.0783,-0.3746 0.1007,-0.5217 0.0706,-0.4661 0.0447,-1.3748 -0.2295,-1.6631 -0.0876,0.2839 0.1471,1.4671 -0.1238,2.0792 -0.1365,0.3085 -0.3792,0.2729 -0.6947,0.4382 -0.2419,0.1268 -0.4889,0.4414 -0.6116,0.4933 0.1365,-0.933 0.3343,-1.5152 0.0441,-2.4965 -0.2369,-0.8009 -0.5793,-1.312 -1.1099,-1.6865 -0.5824,-0.4112 -1.4233,-0.5698 -2.2008,-0.2773 -1.0326,0.3886 -1.2156,1.2792 -1.3509,1.4427 -0.0911,-0.1966 -0.146,-1.0573 -0.6638,-2.0124 -0.3132,-0.5778 -0.8171,-1.2438 -1.4046,-1.5601 -0.8409,-0.4527 -1.7608,-0.1743 -2.3534,0.5244 -0.4782,0.5638 -0.5443,1.3437 -0.3655,2.1875 0.165,0.7783 0.6949,1.8193 1.0247,2.5942 0.1495,0.3512 0.6132,1.5247 0.0375,1.6944 -0.6265,0.1847 -1.4106,-1.1071 -1.4613,-1.1128 -0.1341,0.252 0.5593,0.9964 0.7121,1.1952 -0.3538,0.0115 -0.7528,-0.2833 -0.9306,-0.453 -0.1488,-0.142 -0.9876,-1.0542 -1.0985,-1.0797 -0.2441,-0.0563 -0.1883,0.2954 -0.1937,0.4642 0.1003,-0.0292 0.1845,-0.089 0.2925,-0.0652 0.2621,0.0577 0.2793,0.3267 0.3267,0.547 0.0445,0.2065 0.1384,0.3597 0.1995,0.5256 -0.2953,-0.1572 -1.1882,-0.8969 -1.3045,-1.2495 -0.1749,-0.3114 -0.2465,-0.8846 0.109,-1.0879 0.3251,-0.1859 1.0152,0.3832 1.1732,0.4874 -0.0513,-0.1618 -0.272,-0.3738 -0.3716,-0.4738 -0.0818,-0.082 -0.1063,-0.1697 -0.1099,-0.2913 -0.3323,-0.0273 -0.6796,-0.1499 -0.9551,0.1102 -0.2772,0.335 -0.1926,0.2983 -0.1851,0.7685 -0.7109,-0.0839 -2.8581,-1.8979 -2.8867,-2.268 0.0717,-0.0766 0.0926,-0.0812 0.2321,-0.1121 1.2407,-0.0867 2.5063,-0.1056 3.7536,-0.1598 -0.0615,0.4486 0.0348,0.8267 0.0777,1.2526 0.1293,-0.5276 0.1087,-0.9451 0.3219,-1.561 0.0781,-0.2256 0.0949,-0.34 0.2333,-0.3925l0.0892 0.4523 0.1927 0.7033c0.1015,0.3517 0.4354,1.1549 0.6811,1.2984 -0.1114,-0.4354 -0.399,-0.9764 -0.5581,-1.4307 -0.2367,-0.6762 -0.2938,-1.7748 -0.047,-2.4754 0.3604,-1.0228 1.5512,-2.3124 2.9524,-1.6214 0.767,0.3783 1.3871,1.4785 1.5866,1.5789 0.1466,-0.2599 -0.3833,-0.8828 -0.6855,-1.1707 -0.6195,-0.5901 -0.5723,-0.4014 -1.127,-0.7368 1.0207,-0.2702 1.6627,0.0019 2.0524,-0.069 0.0111,-0.431 -1.8998,-3.1654 -2.2432,-3.62 -0.5419,-0.3617 -0.9085,2.1731 -0.9374,2.4924 -0.0351,0.3871 -0.0133,0.7603 -0.0383,1.129 -0.0283,0.0175 -0.5629,0.2027 -0.6203,0.2206 -0.0155,-1.0313 0.2332,-2.2913 0.5309,-3.2824 0.0871,-0.29 0.5071,-1.7375 1.0089,-1.5203zm11.9218 14.8762c-0.251,-0.5817 -0.9345,-1.4604 -1.4527,-1.6247 0.1296,0.1676 0.2647,0.3453 0.4161,0.4877 1.088,1.0234 1.1295,2.5651 0.89,3.9442 -0.2342,1.1978 -1.0549,2.4228 -1.9426,3.2462 -1.34,1.416 -3.3599,3.7265 -3.0704,5.7777 0.1503,1.0647 1.0057,1.6714 2.0801,1.8646 0.1874,0.0221 0.4992,0.0689 0.6225,0.1604 0.1487,0.6243 -0.1757,1.5435 -0.4378,2.107 -0.4273,0.0429 -1.4076,-0.4067 -1.8134,-0.6552 -0.5892,-0.3608 -1.093,-0.8317 -1.4999,-1.3884 -1.0841,-1.4843 -1.0102,-3.5994 0.1319,-5.0264 0.4259,-0.5322 1.557,-1.6487 1.0986,-2.3678 -0.2274,-0.3565 -0.6185,-0.5093 -1.0635,-0.4635 0.1155,0.0899 0.2388,0.0921 0.3343,0.1685 -0.0733,0.0485 -1.4071,0.161 -1.6396,0.193 -0.4967,0.0683 -1.0569,0.1533 -1.5097,0.3087 -0.2287,0.0785 -0.438,0.2095 -0.4864,0.4329 -0.1312,0.6061 1.5011,1.0939 1.5789,1.1003 0.1791,0.0557 0.4368,0.201 0.5821,0.2882 0.0265,0.2894 -0.7248,1.1548 -0.9381,1.2673 -0.1157,0.061 -1.7712,-0.7196 -1.8632,-0.8213 0.2958,-0.5716 0.3305,-1.2256 0.27,-1.8771 -0.0521,-0.5595 -0.152,-0.7912 -0.2702,-1.2788 1.0765,-0.4613 2.3102,-0.525 3.471,-0.6533 0.9132,-0.1009 0.9514,-0.2112 1.2353,0.1464 0.2519,0.3173 0.918,0.1994 1.2458,-0.0039 1.3573,-0.8416 1.6758,-4.1129 0.5375,-5.2333 -0.1304,-0.1284 -0.2936,-0.1993 -0.4292,-0.3299 0.1524,-0.2672 0.3532,-0.6189 0.4202,-1.0226 0.1036,-0.6249 -0.1258,-0.6489 -0.5646,-0.8829 0.0725,-0.1867 0.4266,-0.4177 0.6861,-0.5161 0.6869,-0.2604 1.3894,-0.2266 2.1004,-0.1165 0.821,0.1691 1.4072,0.285 2.172,0.7167 2.2769,1.2852 2.8966,3.3452 3.0134,5.7819 0.0252,0.5815 -0.711,3.595 -1.2413,3.5702 -0.1555,-1.289 -1.1902,-3.4283 -2.0977,-4.3761 0.3958,0.5951 0.897,2.1345 0.8479,2.5862 -0.0578,0.5325 -0.7192,2.415 -1.2128,2.5745 -0.2832,-0.134 -0.2591,-1.0713 -0.2981,-1.3582 -0.0635,-0.4675 -0.3268,-1.1061 -0.4898,-1.5538 -0.0934,-0.2565 -0.1283,-0.22 -0.0192,-0.4636 0.7045,-1.5727 1.4384,-2.78 0.606,-4.709zm-1.8453 6.3144c0.0786,0.5172 0.5887,1.9639 0.8931,2.4093 0.3741,0.5475 0.9155,1.001 1.4319,1.3963 0.1416,0.1085 0.5709,0.3578 0.538,0.5583 -0.5625,-0.0234 -1.5366,-0.5204 -1.9806,-0.8214 -0.6195,-0.4199 -1.2305,-0.9446 -1.5001,-1.2903 -0.2326,-0.2982 -0.4795,-0.5954 -0.6458,-0.937 0.1558,-0.3982 0.8734,-1.1208 1.2635,-1.3153zm5.6335 14.3371c-0.0783,0.1938 -0.4429,0.9053 -0.5501,1.0161 -0.0396,-0.0537 -0.2321,-0.6051 -0.1968,-0.6691 0.3141,-0.5695 0.42,-0.709 0.746,-1.3469 0.6987,-1.3678 0.7511,-2.2693 0.7637,-3.7834 0.2398,0.383 0.198,1.4822 0.1243,1.9762 -0.1473,0.987 -0.498,1.8966 -0.8871,2.807zm4.9045 -8.743c0.1065,-0.1451 0.2095,-0.2352 0.308,-0.2825 -0.0317,0.0033 -0.065,0.0053 -0.1001,0.0056 0.0396,-0.3263 0.1472,-0.9222 0.4708,-1.1139 0.2606,-0.1544 0.4977,-0.1388 0.7138,0.0902 0.3965,0.4202 0.6337,1.3036 0.6701,1.9059 0.0193,0.3198 -0.0221,0.8757 -0.2282,1.0411 -0.0784,-0.233 -0.1285,-0.494 -0.2096,-0.7375 -0.1408,-0.4232 -0.3471,-0.9497 -0.6307,-1.2749 -0.1484,-0.1181 -0.2706,-0.0215 -0.4867,0.043 0.3162,0.0239 0.5696,0.4615 0.7183,0.8272 0.3537,0.8694 0.8066,2.3746 -0.3537,2.8247 -0.5707,0.2214 -1.0334,-0.3028 -1.3191,-0.7852 0.2616,0.5491 0.5046,1.048 1.1353,1.4154 0.4904,0.2856 1.2807,0.658 1.2667,1.3488 -0.0076,0.3749 -0.1838,0.74 -0.5344,0.7711 -0.6329,0.0562 -1.6823,-0.7236 -2.1563,-1.1128 -0.2491,-0.2046 -0.4694,-0.3416 -0.6373,-0.6107 0.3917,-0.4152 0.4199,-0.6269 0.2224,-1.1621 -0.3893,-0.6388 -1.052,-0.8229 -1.3423,-1.1374 -0.3085,0.0881 -0.6404,0.1413 -0.9335,0.0368 0.0411,-0.0961 0.1279,-0.1928 0.2012,-0.249l0.6145 -0.6289c0.1869,-0.2015 0.3124,-0.5024 0.3302,-0.8864 0.02,-0.4348 -0.2262,-1.6392 -0.4416,-1.9699 -0.1469,0.6922 0.2204,1.3706 0.0703,2.1314 -0.0626,0.3176 -0.2193,0.4641 -0.3724,0.6684 -0.1137,0.1517 -0.334,0.4803 -0.4652,0.5832 -0.3064,0.0008 -0.5879,-0.4096 -0.9575,-0.4568 0.0681,0.2342 0.5282,0.4297 0.6576,0.646l0.0846 0.1148c0.0815,0.2307 -0.1882,0.5908 -0.2661,0.9053 0.2006,-0.0111 0.3019,0.0237 0.3655,-0.1681 0.2488,-0.7491 1.889,-0.2175 2.226,0.476 0.2121,0.4365 -0.1825,1.0388 -0.6029,1.1048 -0.2714,0.0426 -0.6449,-0.0531 -0.8347,-0.0918 -0.1676,-0.0241 -0.4537,-0.0618 -0.6838,-0.1242 0.1867,0.1361 0.3832,0.3106 0.5437,0.3601 0.5386,0.1662 0.5628,0.3094 0.8899,0.7179 0.1956,0.2441 0.4001,0.3944 0.6537,0.5726 0.3989,0.2802 0.7472,0.533 0.6749,1.2035 -0.0984,0.9128 -1.3732,0.3939 -1.8726,0.1378 -0.3002,-0.1539 -0.9113,-0.6502 -1.06,-0.9759 0.0755,-1.1113 -0.0469,-2.1981 -0.4431,-3.2384 -0.2621,-0.6307 -0.8144,-1.6287 -1.3576,-2.0655 -0.2415,-0.194 -0.5082,-0.3881 -0.7524,-0.5877 -0.151,-0.1234 -0.2394,-0.1493 -0.2804,-0.3718 -0.0693,-0.376 0.0814,-0.9303 0.3058,-1.2329 1.2108,0.3197 1.9695,0.4588 3.0606,-0.2755 0.32,-0.2153 0.6994,-0.6736 1.0071,-1.0653 -0.5958,0.6497 -1.5775,1.2188 -2.1471,1.3561 -0.4402,0.1061 -1.6413,0.0672 -2.039,-0.2531 -0.2686,-0.2163 -0.242,-0.5496 -0.2321,-0.959 0.3644,-0.033 0.7256,0.0879 1.1366,0.0148 -0.068,-0.0474 -0.7946,-0.2212 -1.0062,-0.2948 -0.9608,-0.3347 -1.0502,-0.6606 -0.5133,-1.3691 0.1003,-0.1324 0.445,-0.5858 0.6145,-0.6467 -0.0162,0.2196 -0.2239,0.6182 -0.1201,0.7834 0.4285,0.6824 2.6874,-0.1393 3.2564,-1.0312 0.4352,-0.6822 -0.536,-0.8574 -0.6981,-0.9925 0.3201,-0.2073 1.0997,-0.1031 1.268,0.3124 0.1831,0.4522 -0.3012,1.1667 -0.4218,1.8845 -0.0369,0.2198 -0.0265,0.6566 0.2882,0.7003 0.3144,-0.2301 0.0095,-0.9834 0.2084,-1.3472 0.2647,0.0732 0.7373,0.2917 0.85,0.5485 0.126,0.287 0.0445,0.6083 -0.1581,0.9261 0.0403,-0.0516 0.9709,0.6631 1.0666,0.754 1.3956,1.3241 0.4454,3.6199 -1.215,4.1783 -0.0515,0.0173 -0.1053,0.036 -0.161,0.0553 0.4262,-0.0723 1.0746,-0.1828 1.2254,-0.2906 0.0808,0.1195 0.1517,0.2386 0.2164,0.3568 -0.1005,-0.2524 -0.1244,-0.4864 0.1407,-0.6743 0.5222,0.6793 0.4443,0.6532 0.6016,1.3772 0.0352,-0.0781 0.038,-0.1306 0.0794,-0.2053 0.2973,-0.0193 0.3312,0.1922 0.4984,0.1966 0.1575,-0.3185 -0.3469,-0.3243 -0.6329,-0.774 -0.35,-0.5503 -0.3636,-1.4037 0.0252,-1.9333zm-21.1237 1.4333c-0.0781,-0.3334 -0.1283,-0.88 0.1798,-1.0149 0.3332,-0.1459 0.7098,0.2686 0.8123,0.4223 0.2036,0.3053 0.264,0.5754 0.2672,1.0142 0.0075,0.9947 0.3259,2.5354 -0.3359,3.3562 -0.2735,0.3391 -0.8011,0.5725 -1.1725,0.53 -0.3354,-0.0384 -0.4933,-0.4404 -0.5882,-0.7345l-0.3219 -0.6808c-0.0838,-0.0578 -0.1213,-0.2187 -0.2619,-0.2602 -0.0617,0.1206 0.3551,1.1977 0.4153,1.4514 0.2146,0.9039 -0.4681,1.3043 -1.2116,1.24 -0.7242,-0.0627 -0.9873,-0.9146 -1.2338,-1.5328 -0.1185,-0.2971 -0.1037,-0.9309 -0.4596,-1.0633 -0.44,-0.1638 -0.0077,0.4615 0.0515,0.5484 0.1026,0.1506 0.1606,0.3409 0.2323,0.5439 0.4148,1.1754 0.9675,1.9407 1.1191,3.525 0.3176,3.3205 -1.2654,4.2258 -2.1042,2.817 -1.1209,-1.8826 -0.5464,-6.1305 -1.8524,-7.4368 -0.7142,-0.7143 -1.6852,-0.5192 -2.0805,0.1019 0.1142,-0.0525 0.6886,-0.4637 1.1011,-0.1133 -0.0192,0.189 -0.0888,0.4342 -0.1228,0.6429 -0.1522,0.932 -0.1001,1.295 -0.111,2.2155 -0.0192,1.6193 -0.2948,3.5625 -1.9482,4.2113 -0.9431,0.3701 -1.7922,0.2066 -1.7715,-0.9663 0.0136,-0.7753 0.5119,-1.6952 0.8006,-2.2974 0.9774,-2.0385 0.183,-4.5946 0.7457,-6.8754 0.126,-0.5107 0.4757,-0.7813 0.4747,-1.0303 -0.1752,0.039 -0.8237,0.5904 -0.8734,0.7353 0.0924,0.2323 0.2028,0.1162 0.1315,0.4742 -0.3423,1.7195 0.1981,2.3977 -0.9937,3.5311 -1.0398,0.9889 -3.6096,1.1039 -3.3842,-0.3427 0.1858,-1.1922 2.1353,-1.4342 2.7113,-2.4738 0.3077,-0.5555 0.5126,-1.2271 0.8358,-1.7546 0.3407,-0.5561 0.7925,-0.9465 1.2229,-1.3381 0.5284,-0.4808 0.6835,-0.9512 1.0968,-1.4932 0.5113,-0.6704 1.4722,-1.538 2.3588,-1.8007 -0.4692,0.0673 -0.9242,0.2147 -1.432,0.4353 -0.0852,-1.4064 1.144,-1.4854 2.2115,-1.8671 0.4476,-0.1601 1.064,-0.3667 1.4551,-0.5702 0.3414,-0.1777 0.9293,-0.6259 1.0651,-0.9702 -0.3578,0.2196 -0.6607,0.7556 -1.3629,0.6296 -0.4476,-0.9537 0.7471,-1.6101 1.6134,-1.6616 1.3355,-0.0794 3.0614,0.5895 3.804,1.2785 0.7916,0.7344 1.524,1.8978 1.4076,3.0599 -0.1006,1.0035 -0.7856,1.6892 -1.8813,1.6862 -0.0971,-0.0297 -0.2201,-1.1943 -0.2562,-1.3781 -0.0434,-0.1777 -0.4901,-1.1638 -0.2107,-1.3327 0.145,-0.0877 0.4241,-0.0617 0.7966,0.242l0.257 0.1371c-0.1101,-0.1721 -1.971,-2.0699 -1.7269,-0.7734 0.1099,0.5279 0.1757,1.0245 0.4034,1.5163 0.2045,0.4419 0.4495,0.8365 0.4812,1.4309 0.0376,0.7055 -0.1772,1.634 -0.8868,1.8602 -0.099,-0.3865 -0.3809,-0.6172 -0.4264,-0.7915 0.1291,0.033 0.3705,0.2183 0.511,0.2907 -0.1346,-0.2757 -0.4071,-0.6257 -0.5884,-0.8802 -0.7842,-1.1008 -1.9928,-1.9127 -3.3201,-2.2168 -0.1959,-0.0449 -0.3815,-0.0804 -0.5595,-0.1071 1.5229,0.362 2.9962,1.678 3.6588,3.0209 0.5675,1.1501 0.8398,1.0734 1.0413,2.8248 0.045,0.3915 0.0697,0.7878 0.0876,1.1836 0.0094,0.2095 0.0137,0.4258 0.0295,0.6293 0.0198,0.2545 0.0193,0.4226 0.1751,0.4658 0.1143,-0.1966 0.053,-0.5633 0.057,-0.8235 0.1254,0.0712 0.2164,0.1609 0.3423,0.2273 -0.0813,-0.2042 -0.1959,-0.4134 -0.2921,-0.6185 -0.1624,-0.3462 -0.1095,-0.6993 -0.1835,-1.0792zm13.9948 9.8517c0.2035,-0.3392 0.3284,-0.4044 0.2164,-0.8685 -0.0563,-0.279 -0.1253,-0.4767 -0.222,-0.7118 -0.4458,0.027 -1.4165,1.5627 -1.4308,2.0038 -0.0076,0.2352 0.1529,0.9156 0.4309,0.971 0.2052,-0.1164 0.8223,-1.1029 1.0054,-1.3945zm-10.7919 2.1701c0.4354,0.1691 0.6214,0.3119 0.9522,0.5681 0.0885,0.0686 0.2177,0.1371 0.188,0.2926 -0.1968,0.0629 -0.7605,-0.0311 -1.241,-0.1338 -0.2193,-0.0469 -0.6877,-0.2029 -0.7435,-0.1799 0.4897,0.1747 0.9621,0.3455 1.4014,0.4721 0.4032,0.0658 0.8065,0.1417 1.1854,0.2478 0.2507,0.0702 0.8117,0.2498 0.9947,0.451 -1.1424,-0.0719 -4.2602,-0.7827 -5.2083,-1.5207 0.1418,0.0349 0.2787,-0.0117 0.4226,-0.0193 -0.6217,-0.2254 -1.1916,-0.5611 -1.4731,-1.186 -0.1026,-0.2277 -0.0489,-0.8968 0.2745,-1.1769 0.3769,-0.3265 1.0191,-0.1104 1.4447,0.046 0.9536,0.3505 1.5568,0.8433 2.3392,1.4551 1.2866,1.0062 2.5222,2.1516 4.2478,2.2765 1.6293,0.0484 2.0158,-0.2965 3.3941,-0.9484 0.0682,0.0702 0.1892,0.2848 0.2486,0.3793l-0.4222 0.1664c-2.3097,1.147 -4.4658,0.9982 -6.4614,-0.3838 -1.0303,-0.7135 -2.5208,-1.9978 -3.7065,-2.3536 -0.4596,-0.1379 -0.9467,-0.2899 -1.2538,0.1478 0.0902,-0.0522 0.2186,-0.0883 0.3759,-0.1144 0.3568,-0.0591 0.8287,0.092 1.1546,0.2315 0.4315,0.1847 0.8539,0.4713 1.251,0.7232 1.0638,0.6748 0.6822,0.4385 -0.3019,0.2 -0.518,-0.1256 -0.9539,-0.1758 -1.4287,-0.2787 -0.3309,-0.0717 -0.5005,-0.1253 -0.8412,-0.1283 0.1885,0.0604 0.3854,0.1369 0.6009,0.1905 0.8522,0.2121 1.7772,0.2539 2.6059,0.5758zm8.748 -4.1534c-0.2981,0.2782 -0.813,0.9588 -1.2878,0.832 -0.5299,-0.2873 -1.3437,-1.1359 -2.3135,-1.4665 -1.2017,-0.4097 -1.9431,-0.0287 -2.2287,-0.0886 0.0449,-0.3556 1.2986,-1.805 1.6243,-2.1462 -0.2057,0.1244 -0.4658,0.2323 -0.6431,0.2889 -0.9976,0.3372 -1.8625,0.6484 -2.8973,0.9112 -1.6987,0.4312 -4.8811,0.2928 -6.2131,-0.4396 0.1938,-0.0473 0.8195,-0.3188 0.8311,-0.3201 0.2339,-0.0248 2.1887,0.469 2.9512,0.4559 1.5434,-0.0086 2.5484,-0.1936 4.0275,-0.6827 0.0941,-0.0393 0.2424,-0.1233 0.4174,-0.2218 -0.5761,0.1814 -2.0008,0.4784 -2.309,0.5015 -0.0112,-0.4576 0.1569,-0.9365 0.2015,-1.3953 0.0874,-0.8982 -0.607,-1.9569 -1.2185,-2.5709 -0.3522,-0.3537 -0.7387,-0.6355 -1.3041,-0.8953l-0.0053 -0.3617c0.0255,-0.0061 1.7609,-0.725 1.8318,-0.7009 0.055,0.0187 0.2696,0.1426 0.5161,0.2818 -0.6061,-0.4893 -0.9345,-1.3905 -0.3475,-1.4507l0.9835 0.0483c0.2093,0.0258 0.1889,0.0476 0.2586,-0.004 -0.1252,-0.0568 -0.3823,-0.1758 -0.4427,-0.2851 0.1649,-0.1205 0.4017,-0.1987 0.487,-0.3573 -0.21,-0.1007 -0.8561,0.1422 -1.1128,0.1809 -0.8936,0.1348 -1.8519,0.1954 -1.3245,-0.9714 0.0775,-0.1715 0.3757,-0.7376 0.4928,-0.8341 0.1899,0.0391 0.1959,0.0176 0.0926,0.1634 -0.9024,1.2738 0.4734,0.9024 1.1773,0.4683 1.726,-1.0645 2.0317,-3.041 0.8444,-2.4604 -0.4184,0.2046 -0.3301,0.3776 -0.5878,0.2078 0.1741,-0.3287 0.9579,-0.7717 1.3672,-0.7228 0.3595,0.043 0.4897,0.3854 0.632,0.7693 0.1267,0.3416 0.1397,0.2649 -0.0507,0.51 -0.3868,0.4979 -0.7577,1.1917 -0.9748,1.898 -0.3395,1.1042 -0.1642,1.4049 0.0265,2.4565 0.1095,0.6036 -0.6798,0.729 -1.1076,0.611 0.1811,0.0959 0.3414,0.1731 0.4283,0.1944 0.2724,0.0668 0.8356,0.5172 1.052,0.7337 0.8626,0.8632 1.7365,2.6626 0.8015,3.7622 0.294,-0.1525 0.6029,-0.2887 0.8381,-0.3106 0.1946,-0.018 0.6117,-0.0243 0.5457,0.318 0.1808,-0.1035 0.3096,-0.0452 0.6328,-0.0477 0.2199,-0.0017 0.6273,-0.1326 0.8318,-0.0241l-0.0695 -0.0862c0.0521,-0.1392 1.7627,-0.5269 1.9665,-0.545 -0.1622,-0.1588 -0.463,-0.246 -0.6813,-0.2055 -0.5318,0.0987 -1.242,0.6709 -2.1979,0.5177 -0.5541,-0.0889 -0.8864,-0.4034 -1.09,-0.7888 -0.0752,-0.1424 -0.2382,-0.6406 -0.2596,-1.018 -0.0461,-0.8167 0.364,-0.6424 0.4931,-0.4458 0.1519,0.2314 0.203,0.6188 0.2728,0.7494 0.2017,0.3775 0.4091,0.5784 0.9861,0.509 0.9995,-0.4201 1.2405,-1.4473 1.2848,-2.4545 0.0198,-0.5233 0.009,-1.2887 -0.1668,-1.7373 -0.4097,-1.0457 -1.1758,-0.2503 -1.5673,0.2516 -0.2749,0.3522 -0.4998,0.204 -0.5492,-0.0181 -0.1011,-0.4545 0.8181,-1.219 1.2575,-1.3995 0.4841,-0.2046 0.7319,-0.2216 1.0516,0.1102 0.6044,0.6272 0.9099,2.9734 1.202,3.1222 0.3715,0.1552 0.4671,-0.6924 0.5213,-0.9929 0.0173,-0.1541 0.1365,-0.8089 0.0601,-0.9023 -0.0089,0.0933 -0.1597,0.3778 -0.2097,0.5246 -0.063,0.1849 -0.1017,0.3755 -0.2494,0.4737 -0.3062,-0.0729 -0.7272,-1.2715 -0.4997,-1.6671 0.2173,-0.3782 1.0137,-0.7047 1.6021,-0.4839 1.1897,0.4467 2.1345,3.23 1.3555,4.8997 -0.1306,0.28 -0.2661,0.4825 -0.4222,0.7093 -0.5366,0.7797 -2.0407,1.5212 -3.1532,1.2258 -0.1719,-0.0457 -0.5697,-0.1192 -0.8109,-0.2341 0.2955,0.3549 0.7334,0.5022 1.1836,0.5267 0.9789,0.0531 1.2208,-0.3594 1.6936,0.0072 0.2313,0.1433 0.7803,0.443 0.7558,0.7563 -0.1085,0.3113 -1.0927,1.5815 -1.2842,1.7602zm-4.5066 -9.4042c0.2712,-0.0619 0.6972,-0.7333 0.8246,-1.0364 0.212,-0.5043 0.1891,-1.1869 -0.222,-1.3606 -0.2856,0.3624 -0.5995,1.77 -0.6026,2.397zm-2.6866 -13.8161c0.2645,-0.1209 0.869,-0.5585 1.0078,-0.7216 -0.0763,-0.0729 -0.1514,-0.108 -0.2369,-0.1688 0.2942,-0.0301 0.6697,0.1221 0.833,-0.4411l-0.6312 -0.1203c0.1968,-0.0268 0.6323,-0.0501 0.7742,-0.1333 0.1112,-0.2302 0.1203,-0.5413 -0.128,-0.595 -0.1976,-0.0427 -0.5575,0.0237 -0.7759,0.0164l0.8073 -0.2837c-0.0648,-0.5635 -0.832,-0.6489 -1.2158,-0.3615 -0.0064,0.5342 0.0002,1.239 -0.1127,1.7418 -0.0878,0.391 -0.5671,1.0798 -0.5956,1.2239l0.2736 -0.1568zm-3.4127 -0.0416c0.2717,-0.0913 1.3081,-0.4128 1.3651,-0.7766 0.0171,-0.1092 -0.0507,-0.1619 -0.111,-0.2314 -0.1616,-0.1864 -0.6067,-0.8742 -0.713,-1.0735 -0.1465,-0.2743 -0.9176,-2.2585 0.0837,-1.781 0.7426,0.3541 1.0606,1.4888 1.2539,1.6119 0.4477,-0.939 -0.5712,-3.0855 -1.2934,-3.8053 -1.351,-1.3465 -2.948,-0.4031 -3.0848,1.2369 -0.1161,1.3928 1.1578,3.3551 1.394,4.1756 0.0782,0.2717 0.0652,0.5545 -0.0635,0.787 -0.2125,0.3837 -0.3392,0.2079 -0.5829,0.3674 0.0319,0.1132 0.1572,0.2526 0.2362,0.3273 0.2686,-0.2317 0.3772,-0.3721 0.7203,-0.5284 0.2578,-0.1175 0.531,-0.2074 0.7952,-0.3099zm1.7499 -1.4652c0.0371,-0.2004 -0.2303,-0.5799 -0.3871,-0.6088 -0.0787,0.278 0.2418,0.5835 0.3871,0.6088zm-3.418 2.6009c-0.0218,-0.148 -0.2226,-0.335 -0.3434,-0.3803 0.0038,0.1472 0.1794,0.4182 0.3434,0.3803zm-0.8782 0.6126c0.1783,0.0419 0.4394,-0.1361 0.5345,-0.225 -0.0546,-0.0949 -0.441,-0.4781 -0.5979,-0.6921 -0.1249,-0.1703 -0.164,-0.2953 -0.2573,-0.4591 -0.0895,-0.1573 -0.1919,-0.1489 -0.3904,-0.2928 -0.1463,-0.106 -0.4211,-0.4159 -0.5091,-0.4552 0.1071,0.3516 0.839,2.0345 1.2202,2.1243zm-1.0384 0.706c0.1837,0.084 0.9485,-0.0502 1.0313,-0.3467 -0.2877,-0.0677 -0.9795,0.1437 -1.0313,0.3467zm12.287 21.5607l0.7104 0.6426c-0.0847,0.1945 -0.2867,0.358 -0.2379,0.6807 0.0986,0.6533 0.5563,1.545 0.6181,2.1963 0.0255,0.2682 0.1656,0.4903 -0.509,0.7396 -5.0362,1.8611 -6.1389,-2.4152 -9.4375,-3.3072 -0.218,-0.059 -0.6092,-0.0902 -0.7564,-0.1967 -0.0279,-0.4583 2.0556,-1.0858 2.4562,-1.1887 1.7205,-0.4415 3.593,-0.3922 5.3147,0.0549 0.2466,0.064 0.545,0.1816 0.7621,0.2209 -0.2381,-0.2563 -1.2724,-0.6398 -1.7176,-0.7554 -0.2055,-0.0534 -0.4778,-0.0825 -0.6605,-0.1362 0.0621,-0.2312 0.7483,-0.1837 1.0038,-0.1427 1.3758,0.2207 1.6154,0.579 2.4536,1.1918zm5.7747 -8.532c1.0215,1.4178 1.1268,3.0186 0.6885,4.7137 -0.1859,0.7192 -0.7208,2.0834 -1.1688,2.5822 -1.2833,-2.8873 -1.2224,-1.0046 -2.3051,-1.9345 -0.1526,-0.056 -0.4152,-0.3534 -0.6278,-0.4301 0.069,-0.0854 0.1496,-0.0991 0.2465,-0.1409 1.6683,-0.7197 2.1736,-2.9359 1.7464,-4.4733 -0.1092,-0.3929 -0.6274,-1.3331 -0.8174,-1.6913 0.9466,0.3041 1.5707,0.4483 2.2378,1.3742zm-12.112 4.934c-0.0639,0.2203 -0.2345,0.5386 -0.4739,0.5929 -0.8759,0.1986 -3.2983,-0.0498 -4.1329,-0.4078l0.1196 -0.2221c0.1337,-0.2335 0.1393,-0.3157 0.4501,-0.3632 0.7358,-0.1233 1.4232,-0.437 1.6889,-1.207 0.4045,-1.1718 0.1928,-1.2761 0.2508,-2.4285 0.5162,0.1907 1.3183,0.9132 1.7943,1.5343 0.5127,0.6692 0.5309,1.7167 0.3032,2.5014zm3.2166 -3.3876c0.2633,0.3111 0.0687,0.1621 0.0559,0.9365 -0.1261,-0.2256 -0.2043,-0.4715 -0.3243,-0.7063 -0.4566,-0.8929 -1.5248,-1.5974 -1.5372,-1.6238 0.0731,-0.0711 0.3422,-0.2062 0.4548,-0.2378 0.4166,0.5662 0.9105,1.1113 1.3507,1.6314zm1.6691 -3.4739c-0.2903,0.2903 -0.665,0.7643 -0.9059,0.9854 -0.1197,-0.1689 -0.0962,-0.4801 0.0132,-0.6345 0.186,-0.2626 0.5035,-0.5399 0.6246,-0.883 0.0174,-0.1428 0.2169,-0.7221 0.2676,-0.9413 0.4133,0.0948 1.3449,0.6177 1.5309,1.0824 -0.6367,-0.1708 -1.0744,-0.0149 -1.5305,0.3909zm-4.4795 -15.8779c0.1613,-0.5192 2.19,-1.7609 2.6747,0.0083 0.4175,1.524 -2.1339,2.4723 -2.4351,2.7662 -0.2284,0.2228 -0.9702,0.9695 -1.1467,1.0597 0.097,-0.1059 0.2233,-0.2687 0.3235,-0.3939 0.7986,-0.9969 1.4087,-1.5359 1.3963,-3.0781 -0.0077,-0.9639 -0.2832,-0.542 -0.8128,-0.3622zm2.7605 6.2481c0.4761,-0.5774 0.8173,-1.1208 1.1357,-1.7994 -0.8088,1.1527 -2.1051,2.6285 -3.1365,3.5499 -0.5787,0.517 -1.8623,1.6857 -2.5453,1.9893 -0.8711,-1.2434 -0.8783,-1.0405 -2.1142,-1.8544 1.6736,-0.6524 3.8101,-1.905 5.2022,-3.0158 0.7925,-0.6322 1.4925,-1.3357 2.208,-2.0498 0.9713,-0.9737 1.259,-0.263 0.9935,0.2991 -0.0554,0.202 -0.3218,0.6503 -0.4532,0.8535 0.8211,0.3963 1.217,1.3512 1.2765,2.2175 0.0699,1.0157 -0.3599,3.0901 -1.545,3.2378 -0.2439,0.0353 -0.4671,-0.0492 -0.5897,-0.1773 -0.3405,-0.3563 0.3568,-0.5649 -0.0797,-1.3215 -0.1861,-0.3226 -0.42,-0.6236 -0.6651,-0.9006 -0.1179,-0.1332 -0.2345,-0.2902 -0.2311,-0.3761 -0.0042,-0.0891 0.3326,-0.3959 0.5439,-0.652zm9.1843 4.1776c0.0713,-0.3551 0.2648,-0.7145 0.3437,-1.1364 0.1251,0.0939 0.2522,0.4038 0.3274,0.5507 0.232,0.5562 0.3717,1.1615 0.5354,1.7426 -0.3886,0.2795 -0.8459,0.4727 -1.3004,0.6189 -0.07,-0.1045 -0.0898,-0.5934 -0.1112,-0.7734 -0.045,-0.3777 0.0781,-0.6667 0.2052,-1.0023zm-16.1388 -6.9106c0.2564,-0.0502 0.552,-0.1059 0.5811,0.2499 0.0427,0.5236 -0.7956,1.0837 -0.8088,1.2745 -0.02,0.2873 0.8629,0.7839 1.085,0.8762 0.709,0.2945 2.0097,0.5695 2.4624,0.2878 0.4235,-0.1424 1.6678,-1.0847 2.0225,-1.3648 0.9066,-0.716 2.3796,-1.8628 2.7098,-3.0022 0.3422,-1.2064 0.06,-2.7075 -0.8994,-3.5452 -1.1344,-0.9906 -2.8809,-0.633 -3.3948,0.8033 -0.2638,0.7374 -0.3843,1.7591 -0.6499,2.2946 -0.4785,0.9535 -1.8317,1.0158 -2.4871,1.3919 -0.2134,0.1225 -0.6503,0.4822 -0.6209,0.734zm0.5029 -12.7104c0.2526,0.0479 0.7103,0.83 0.8769,1.0884 0.2338,0.3625 1.0317,1.5811 1.1552,1.9682 -1.1183,-0.0535 -1.7522,0.0169 -2.6974,0.2061 -0.0057,-0.3321 -0.0049,-0.6347 0.0241,-0.9667 0.0477,-0.5476 0.3188,-1.9564 0.6413,-2.296zm13.7484 34.9688c0.0624,0.3505 0.3077,0.9985 0.2432,1.3531 -0.0753,0.4146 -0.8852,1.6683 -1.2025,1.9537 -0.3857,0.3469 -0.5861,0.2281 -0.7971,-0.3655 -0.4779,-1.3446 1.6353,-3.4904 1.9408,-3.3132 0.1266,0.0735 0.1862,0.4028 0.1865,0.6001 -0.1543,-0.0582 -0.212,-0.163 -0.3709,-0.2282zm-12.6575 -8.3872l0.0824 0.4496c0.3459,-0.0769 1.2046,-0.4121 1.5189,-0.5873 0.1163,-0.0649 0.0413,-0.1929 -0.1481,-0.1783 -0.9985,0.0439 -0.8131,0.2116 -1.4533,0.316zm10.1341 13.0174c0.3381,0.3943 1.2546,0.4055 1.6782,-0.0483 0.8069,-0.7607 2.2659,-2.5581 2.1898,-3.823 -0.0235,-0.39 -0.2703,-1.0375 -0.5022,-1.5807 -0.2342,-0.5488 -0.4452,-1.2944 -1.1912,-1.2099 -0.2085,0.0236 -2.7795,3.4059 -2.858,3.6255 -0.1556,0.4356 0.3206,2.6132 0.6834,3.0364z"/>
 </g>
</svg>
