<?xml version="1.0" encoding="UTF-8"?>
<!DOCTYPE svg PUBLIC "-//W3C//DTD SVG 1.1//EN" "http://www.w3.org/Graphics/SVG/1.1/DTD/svg11.dtd">
<!-- Creator: CorelDRAW 2020 (64-Bit) -->
<svg xmlns="http://www.w3.org/2000/svg" xml:space="preserve" width="129.062mm" height="79.9999mm" version="1.1" style="shape-rendering:geometricPrecision; text-rendering:geometricPrecision; image-rendering:optimizeQuality; fill-rule:evenodd; clip-rule:evenodd"
viewBox="0 0 52.7736 32.712"
 xmlns:xlink="http://www.w3.org/1999/xlink"
 xmlns:xodm="http://www.corel.com/coreldraw/odm/2003">
 <defs>
  <style type="text/css">
   <![CDATA[
    .fil1 {fill:#FEFEFE}
    .fil0 {fill:#2B2A29}
   ]]>
  </style>
 </defs>
 <g id="Слой_x0020_1">
  <metadata id="CorelCorpID_0Corel-Layer"/>
  <path class="fil0" d="M14.0711 0.1289c3.436,-0.463 6.8043,0.3038 9.5063,2.5805 1.1533,0.9718 -0.8572,0.5203 -2.6227,1.2929 -0.238,0.1041 -0.9994,0.4656 -1.1043,0.6089 0.4853,0.6631 2.7325,1.3492 3.9931,6.7504 0.3301,1.4146 -1.9087,-1.1145 -5.0018,-1.1145 -0.002,0 1.026,3.2606 -0.21,6.963 -0.3176,0.9513 -0.7075,-0.3197 -0.9428,-0.5906 0,0.2752 -0.109,0.7366 -0.2242,0.9767 1.3398,0.6434 0.0024,1.3023 -0.1441,1.5211 0.7072,1.056 -0.4153,1.1607 -1.1216,1.5683 -0.3007,0.1735 -0.711,0.1523 -0.9919,0.1289 -0.1185,0.5089 -0.8079,1.1102 -1.2195,0.515 -0.3447,-0.4983 -0.0484,-1.0864 -0.2074,-1.5859 -0.327,-1.0271 -0.703,-1.0178 -0.2963,-2.2374 0.254,-0.7617 -0.2998,-0.9372 0.106,-1.5431 -0.3523,-0.6657 -0.0912,-1.3921 0.5764,-1.7452 -0.2098,-0.4371 -0.4841,-0.8606 -0.8966,-1.1368 0.0351,1.5752 -0.0552,3.48 -1.4022,4.5219 -0.9209,0.7123 -0.5671,-0.4474 -0.5671,-1.1435 -0.6663,0.3525 -1.1954,1.3995 -1.1369,-0.0161 0.0134,-0.2545 0.0481,-0.5064 0.0481,-0.7685 -1.1461,0.2668 -0.2211,1.5494 0.4004,1.9853 0.2328,0.1633 1.2007,0.6039 1.2007,0.9608 0,0.6533 -2.2247,-0.4953 -2.4177,-0.6244 0.0127,0.5704 0.5158,1.4952 1.0087,1.8253 0.3487,-0.0931 0.6572,-0.7216 1.409,-0.3843 1.0923,0.4901 0.4236,1.1061 1.182,1.1877 1.0081,0.1084 0.5187,0.6832 0.9655,1.0039 1.4439,1.0359 2.0474,4.2654 2.0474,5.8301 0,0.0002 -0.2154,0.6587 -0.2241,1.6812 -0.0325,3.8007 -2.8098,4.0872 -3.446,3.0617 -0.6138,-0.9893 -0.9844,-0.5753 -1.2706,-2.54 -0.0244,-0.1674 -0.0313,-0.9712 -0.0674,-1.0534 -0.4037,-0.9197 0.0945,-2.5798 -0.2926,-3.2779 -0.171,-0.3084 0.0127,-0.7414 -0.1526,-0.9522 -0.1575,-0.2008 -0.2688,-0.3534 -0.3956,-0.581 -0.5452,-0.9784 -1.2852,0.0664 -0.7316,-2.3106 -0.0122,0.0049 -0.1687,0.4822 -0.3523,1.0219 -0.469,1.3792 -0.5191,1.5384 -1.4702,2.6377 -1.0614,1.2268 -2.6822,2.7792 -3.0469,1.626 -0.1346,-0.4257 -0.9854,-0.9706 0.0545,-3.3116 0.2293,-0.5162 0.6871,-1.4027 0.7319,-1.9419 -0.4167,-0.0971 -0.2718,-0.7888 -0.6429,-0.9262 -1.8449,-0.6829 0.0187,-1.7385 -0.4262,-2.2797 -0.8035,-0.9776 -0.6141,-2.3139 1.1425,-2.821 1.4132,-0.4079 1.733,0.0693 2.0721,-1.3863 -1.7365,0 -1.142,-0.7862 -2.2537,0.196 -1.011,0.8932 -1.5964,-0.3453 -2.0333,-0.6643 -0.1192,-0.0871 -0.7258,0.1076 -1.0494,-0.8559 -0.0027,-0.0078 -1.5262,-0.5727 -2.0517,-1.887 -0.2719,-0.68 0.0893,-1.0612 0.0871,-1.6722 -0.002,-0.5507 0.1367,-1.2016 0.8166,-1.2168 0.0524,-0.6291 0.5468,-1.1968 1.2168,-1.0408 0.0713,-0.8545 1.3905,-1.5048 1.7866,-0.5537 0.0945,0.2271 0.2014,0.6487 0.2788,0.8099 1.7896,0 1.6043,2.199 1.29,2.8605 -0.2414,0.5081 1.3642,0.2591 1.0221,1.6131 -0.2616,1.0354 0.4453,0.8901 1.3545,0.8901 0.0885,-0.3802 0.9239,-1.1013 1.2969,-1.2009l0 -0.032c-0.3868,-0.1032 -1.3852,-1.1679 -1.5037,-1.1702 -2.0052,-0.039 -1.8836,-1.6001 -0.6792,-1.034 0.1648,0.0775 0.353,0.1237 0.5177,0.2028 0,-0.3195 0.1179,-0.1342 -0.018,-0.5423 -0.2813,-0.8441 -0.1863,-2.1619 -0.362,-2.552 -0.1292,-0.2868 -0.1483,-0.5978 -0.1483,-0.9405 0,-1.6132 0.4024,-0.5076 -0.0093,-1.8641 -0.2269,-0.7476 -0.5269,-2.3383 -0.0924,-3.153 0.3754,-0.7037 2.2977,1.3616 2.8556,1.5106 1.3089,-0.876 2.6747,-1.4667 4.2598,-1.6803zm-8.3587 17.2753c-0.7044,-0.4716 2.4977,-2.5083 2.4977,1.425 -0.3374,-0.0281 -0.4286,-0.6553 -1.1208,-0.8166 0,-1.1473 -0.6542,-0.7767 -1.377,-0.6084zm7.0388 -5.2688c1.1517,2.9797 -0.9785,5.6349 -1.2672,5.4053 -0.0928,-0.0738 0.0381,-1.4695 0.0329,-1.6896 -0.0085,-0.3588 -0.074,-0.5893 -0.1141,-0.7746 -0.0141,0.1689 -0.0369,0.4071 -0.028,0.7105 0.0091,0.3081 -0.2805,0.5822 -0.3695,0.627 -0.0403,0.0747 -0.5034,0.5112 -0.6603,0.487 -0.0382,-0.083 0.0186,-1.424 0.1553,-1.5456 0.6318,-0.5622 0.5973,-0.4701 1.1635,-1.0789 0.1977,-0.2126 0.9917,-1.2818 0.8469,-1.555 -0.0291,0.0043 -0.7514,1.321 -0.9618,1.5528 -0.7911,0.8721 -1.8704,1.2415 -2.2818,2.0302 0.0741,-0.0507 0.1814,0.1449 0.2077,0.1872 0.7691,1.2344 0.7361,1.0935 1.8167,1.8499 0.0616,0.0432 0.3184,0.1908 0.3121,0.271 -0.3583,0.0314 -1.3589,-0.2956 -1.6444,-0.4908 -0.2759,-0.1886 -0.6821,-0.3971 -0.7404,-0.7372 -0.0547,-0.3192 -0.0693,-0.6525 -0.004,-0.9682 -0.0481,0.1147 -0.0828,0.2382 -0.1011,0.3731 -0.2168,1.5933 1.0988,3.737 2.4639,4.2426 -0.0004,0.4774 -0.4093,1.599 -0.9964,1.0771 -1.2349,-1.0978 -1.9245,-2.2363 -2.2352,-3.9107 -0.1955,-1.0536 0.064,-1.1045 -0.7069,-1.7601 -0.1544,-0.1313 -0.491,-0.4224 -0.8164,-0.4055 0.0434,0.0334 0.1594,0.1335 0.1862,0.1698 -1.8683,0.2314 -2.2844,0.9996 -0.8508,2.0376 0.0075,0.4466 -0.5034,0.8726 -0.8696,1.0542 -0.2312,-0.316 -0.8151,-0.9817 -0.9789,-1.2906 -0.2966,-0.5589 -0.3382,-1.5126 0.1897,-1.8935 0.777,-0.5605 2.449,-0.494 2.9746,-1.0738l0.2343 0.4069c1.5341,0.1522 2.5787,-1.9699 3.2068,-2.3161 0.479,-0.264 1.1155,-0.5262 0.7813,-1.1855 0.2843,-0.0067 0.6263,-0.049 0.9074,-0.0358 0.0278,0.0531 0.0949,0.1226 0.1477,0.2289zm1.5586 -1.0238c0.5785,0.0696 1.3796,-1.2856 1.5721,-1.507 -0.2977,1.0443 0.2614,1.1129 -0.7989,2.4238 -0.311,0.3844 -0.0531,0.4331 0.1302,0.8218 0.4136,0.8772 0.3669,0.6128 1.0755,1.3426 1.9756,2.0348 2.0235,4.8446 2.5946,0.899 0.3238,-2.2372 0.1775,-4.8558 -1.3768,-6.6206 1.2538,0.0996 2.3421,0.4699 2.7991,1.6656 1.1954,0.3963 2.1268,0.7449 3.2539,1.3249 0.0276,-0.9365 -1.2157,-3.6739 -1.7841,-4.5089 -0.1788,-0.4112 -1.126,-1.4393 -1.561,-1.7441 -0.7229,-0.5066 -1.863,-1.0417 -2.2953,-1.2079 0.0783,-0.0058 0.5996,-0.3954 1.3791,-0.5184 0.8987,-0.1419 1.5134,0.2016 1.6668,0.2041 0.8863,-0.1926 1.5556,-0.4772 2.5181,-0.6083 -0.2938,-0.6472 -2.3174,-1.6714 -3.3863,-2.117 -2.8334,-1.1814 -6.0258,-0.8659 -8.8285,0.2188 -0.9363,0.3624 -2.7896,1.6325 -3.1041,2.6627 0.3086,0.2298 0.4307,1.2246 0.2735,1.4653 -0.1426,-2.646 -1.622,-0.617 -1.073,0.7889 0.121,0.0146 0.1354,-0.5651 0.3027,-0.8937 0.0661,-0.1298 0.1154,-0.1804 -0.0709,-0.2056 0.6695,-0.7463 0.3736,3.411 0.9296,3.5284 0.0818,-0.0926 0.0764,-0.6022 0.0954,-0.7626 0.0101,-0.1421 0.0997,-0.3058 0.1434,-0.4276 -0.2889,1.6664 0.2608,1.9929 0.7823,1.8475 0.45,-0.1255 0.8924,-0.8174 1.1978,-1.2012 0.6212,-0.7807 1.696,-2.1277 2.9698,-1.7022 1.054,0.3521 1.0505,1.623 0.7106,2.6148 -0.0996,0.2906 -0.3075,0.8085 -0.7117,1.3238 1.1029,-0.0032 0.6472,0.6496 0.5962,0.893zm-5.8911 -9.9496c1.7627,1.5063 1.0264,0.3766 -0.4029,2.5984 -0.0513,0.0798 -0.4087,0.2646 -0.5102,0.3595 -0.4322,-0.4883 -1.1645,-4.7002 0.3175,-3.4767 0.1881,0.1553 0.4482,0.3261 0.5956,0.5188zm2.1102 5.8926c0.9429,-1.0709 2.3895,-2.6243 3.9829,-1.908 0.9883,0.4443 0.9536,1.8672 0.6304,2.7382 0.0525,-0.6315 0.1784,-1.2667 -0.0551,-1.8566 -0.487,-1.2296 -2.0058,-0.8695 -2.8102,-0.4121 -0.6099,0.3468 -1.2256,1.1088 -1.748,1.4384zm6.0808 -2.4638c-0.0483,-1.0168 1.2597,-3.2709 0.5896,-3.394 -1.4235,-0.2616 -2.9796,1.1539 -3.7328,1.1666 0.1341,-0.2813 2.1498,-1.3427 3.3428,-1.408 0.8905,-0.0489 0.8157,0.3375 0.6756,0.9881 0.5594,0.2374 1.5041,-0.6445 -0.2595,1.9325 -0.3444,0.5032 -0.5736,1.0516 -0.7305,1.6299 -0.024,-0.2778 0.071,-0.6378 0.1149,-0.915zm-0.8573 -2.538c1.7061,-0.5221 0.7058,0.5774 0.3427,2.3597 -0.0272,0.1332 -0.0376,0.3386 -0.1224,0.4162 -0.0431,-0.0061 -0.886,-1.1742 -1.0797,-1.3603l-0.7677 -0.6622c0.4132,-0.2911 1.14,-0.6126 1.6271,-0.7534zm-8.8872 17.498c0.0803,-0.09 0.2841,-0.3104 0.2971,-0.4409 -0.465,0.4486 -0.2051,-0.4733 -0.2129,-0.8857 0.1484,-0.0015 0.6937,0.2143 0.7894,0.5629 0.1197,0.4363 -0.6314,1.7972 -0.9531,2.1082 -0.1304,0.1261 -0.3411,0.281 -0.5734,0.3835 0.0312,0.0845 0.1069,0.2949 0.1577,0.3642 0.1801,0.2459 0.4919,0.5356 0.7186,0.7332 0.3387,0.2951 0.6823,0.4948 1.06,0.7388 -0.0163,0.1528 -0.0697,0.4282 -0.1806,0.6841 0.1589,-0.29 0.2924,-0.582 0.3902,-0.8663 0.0829,-0.2408 0.3973,-1.143 0.3901,-1.3491 -0.0051,-0.4253 -0.1646,-0.9056 0.0462,-1.374 0.0555,0.0307 0.5367,0.895 0.5012,1.0133 -0.1927,0.6411 -0.5387,1.9103 -0.8774,2.5057 -0.3817,0.671 -2.304,3.1491 -3.299,3.196 -0.182,0.0085 -0.3947,-0.0466 -0.3659,-0.2488 0.1717,-0.0555 0.2249,0.3326 1.2265,-0.4706 0.6107,-0.4897 1.2732,-1.2388 1.7711,-2.0361 -0.1716,0.2287 -0.3668,0.3903 -0.4593,0.4184 -0.2587,0.0786 -0.9715,-0.565 -1.2168,-0.798 -0.2322,-0.2204 -0.4153,-0.4329 -0.5577,-0.7949 -0.2924,-0.7431 -0.1786,-0.7869 0.0535,-1.4401 0.2206,-0.0268 0.3602,-0.1337 0.47,-0.2117 -0.1182,0.0358 -0.2381,0.0542 -0.3528,0.0452 -0.4224,-0.033 -0.5121,-0.5273 -0.5403,-0.8786l0.7768 -0.1018c-0.1883,-0.0997 -1.1379,0.0361 -1.5744,-0.2602 -0.5797,-0.3935 0.2316,-1.698 0.3826,-1.3889 0.2938,0.2648 -0.1138,0.2901 -0.0426,0.7267 0.1546,0.086 0.5446,-0.0386 0.6972,-0.1011 0.4532,-0.1858 0.6105,-0.4831 0.8036,-0.9419 0.0396,-0.0941 0.2374,-0.5607 0.2387,-0.6316 -0.071,0.0259 -0.195,0.1678 -0.2292,0.2233 -0.0005,-0.0002 -0.5178,-0.274 -0.2483,-0.4711 0.4,-0.2923 0.9564,-0.2024 0.9263,0.4021 -0.0149,0.3002 -0.3246,1.5856 -0.0129,1.5855zm1.4773 -10.6412c0.0851,-0.0679 0.0532,-0.3548 -0.029,-0.3973 -0.0568,0.0296 -0.0538,0.1145 -0.0495,0.1862 0.0045,0.0748 0.0101,0.1827 0.0785,0.2111zm4.0627 0.6217c0.1248,-0.0748 0.1333,-0.4605 0.032,-0.5313 -0.0806,0.0291 -0.0916,0.1421 -0.0986,0.2379 -0.0073,0.0999 -0.019,0.2436 0.0666,0.2934zm-5.6375 -0.2593c-0.1158,0.138 0.4545,0.5323 0.7014,0.3618 0.189,-0.1306 -0.3034,-0.2629 -0.4628,-0.3281 -0.0359,-0.0147 -0.0673,-0.029 -0.1044,-0.0406 -0.0518,-0.0162 -0.1005,-0.0334 -0.1342,0.0069zm1.2271 -1.2664c0.004,0.8654 0.2077,1.2187 0.2135,1.3129 -0.1762,0.0841 -0.2507,0.0054 -0.3072,-0.1231 -0.3921,-0.8905 -0.5537,-1.9339 -0.3901,-2.903 0.0116,-0.1928 0.1409,-0.9377 0.3631,-0.9691 0.1651,0.1248 0.1378,0.831 0.1516,1.081 0.0112,0.201 0.0263,0.3944 0.0428,0.5926 0.0139,0.1667 0.051,0.3366 -0.0072,0.4776 -0.0555,0.1348 -0.0671,0.3834 -0.0664,0.5312zm0.6336 1.1672l0.026 -0.2741c0.1325,0.0254 0.0972,0.2053 0.3802,0.3476 0.5562,0.2798 1.0063,-0.284 1.3018,-0.6675 0.5486,-0.6757 1.4195,-1.6685 2.2046,-2.0383 0.9679,-0.456 1.9124,0.0761 1.9667,1.2247 0.0216,0.4567 -0.0941,1.0692 -0.2939,1.4726 -0.1909,0.3854 -0.5754,0.9591 -0.942,1.1717 -0.129,0.0749 -0.5756,0.3206 -0.7215,0.3328 0.011,-0.0667 0.0984,-0.2184 0.1309,-0.3149 0.1759,-0.5221 0.258,-1.433 0.1442,-1.9622 -0.0409,-0.1903 -0.174,-0.53 -0.4284,-0.3876 -0.4972,0.2783 -0.5634,1.8798 -0.3515,2.4814 0.0553,0.1571 0.1317,0.228 0.1325,0.2937 -0.2249,0.0838 -0.9545,0.0281 -1.2009,-0.0254 -1.2012,-0.2608 -1.3493,-1.2973 -2.3603,-1.5189l0.0115 -0.1356zm-6.0723 -1.7241c-0.307,0.1388 -0.024,-0.776 0.2032,-1.0353 0.2608,-0.2976 0.7901,-0.3323 1.0217,0.0334 0.303,0.4784 0.5691,2.2937 0.6472,2.372 0.1284,-0.0656 -0.0622,-1.0508 -0.0697,-1.2686 0.7238,-0.0503 0.8818,0.1968 1.0607,0.9241 0.1021,0.415 0.2395,0.8688 0.0732,1.2806 -0.1671,0.4137 -0.4712,0.137 -0.7587,0.0797 -0.329,-0.0655 -0.9724,-0.114 -1.407,0.3643 -0.3106,0.3418 -0.658,1.0361 -0.8457,1.4542 0.4453,-0.5422 0.2561,-0.3293 0.6088,-0.8669 0.2309,-0.352 0.168,-0.2793 0.4381,-0.5622 0.3929,-0.4115 1.5461,-0.4985 2.0167,0.402 -0.151,0.0635 -0.7243,0.1281 -0.8508,0.0483 -0.0114,-0.1299 0.1126,-0.1199 0.1155,-0.2118 -0.2557,-0.0807 -0.8813,0.2285 -0.8998,0.3729 0.1324,0.1081 1.5079,-0.0655 1.9312,-0.0938 0.6024,-0.0404 0.6234,0.508 0.5284,0.9458 -0.0623,0.2872 -0.0407,0.742 -0.5565,0.423l-0.0388 -0.3398c0.0689,0.0462 0.063,0.1006 0.117,0.1605 0.0406,-0.5491 -0.1134,-0.5498 -0.702,-0.3497 -0.324,0.1102 -0.6613,0.2227 -0.7844,0.496 -0.1268,0.2814 -0.1419,0.8116 -0.0925,1.1425 0.1661,1.1115 0.4549,0.2981 0.7664,0.2538 0.1351,-0.0192 0.3205,0.1865 0.4285,0.2457 -0.0841,0.1804 -0.5817,0.582 -0.9068,0.6171 -0.3742,0.0404 -0.7954,-0.3081 -0.9854,-0.5507 -0.4295,-0.5482 0.0266,-1.5337 -0.1694,-1.8475 -0.1064,-0.0231 -0.3849,0.4455 -0.3422,0.4897 0.0291,-0.0599 0.1055,-0.1665 0.1807,-0.1544 0.0611,0.2131 0.0534,0.8302 0.0347,1.0553 -0.5523,0.2741 -1.0668,-0.6997 -1.0583,-1.1537 -0.0322,0.1147 -0.0367,0.1862 -0.07,0.2799 -0.4388,-0.0102 -1.0044,-0.4619 -1.3436,-0.8188 -0.3895,-0.4098 -1.0144,-1.5548 -0.4478,-1.9321 0.0237,0.0917 0.0666,0.285 0.1798,0.3016 0.0585,-0.1192 -0.053,-0.3817 -0.0815,-0.5162 -0.0523,-0.2475 -0.0377,-0.8629 0.1155,-1.0605 0.0578,-0.0745 0.2566,-0.2306 0.4249,-0.1528 0.037,0.0392 -0.1515,0.457 -0.052,0.6606 0.1481,-0.1846 0.1829,-0.5137 0.2033,-0.652 0.0731,-0.4971 0.255,-1.1619 0.8707,-1.1219 0.3049,0.0198 0.2823,0.2331 0.1914,0.4369 -0.0527,0.1181 -0.1519,0.2143 -0.1625,0.3167 0.1402,0.0674 0.464,-0.312 0.5335,-0.3761 0.1817,-0.1674 0.5007,-0.1129 0.7652,-0.1115 -0.1605,-0.1746 -0.4074,-0.2787 -0.5739,-0.1921 -0.1813,0.0941 -0.1232,0.1593 -0.2568,0.2117zm13.8212 8.301c-0.0002,0.0004 -0.562,0.7255 -0.511,0.8196 0.0084,-0.0291 0.4205,-0.5778 0.4832,-0.6205 0.099,0.2288 0.1104,0.4867 -0.0624,0.6925 0.0425,0.2117 0.14,0.7755 0.2675,0.9166 0.1484,-0.0828 -0.3181,-0.8093 0.3327,-1.2791 0.1978,-0.1428 0.7153,-0.2752 0.5774,0.4849 -0.2746,1.5131 -0.484,0.5356 -1.2111,1.2866 -0.1307,0.1349 -0.3039,0.5947 -0.1751,0.6478 0.0013,-0.133 0.1858,-0.6508 0.5999,-0.7989 1.6246,-0.581 1.2393,1.281 0.1206,0.9993 -0.5404,-0.1361 -0.744,0.0771 -1.0313,0.2824l-0.3396 -0.5736c0.0632,0.633 0.3547,0.4046 0.1961,0.8466 -0.0429,0.1195 -0.1518,0.303 -0.0419,0.402 -0.0036,-0.4056 0.8083,-1.4132 1.5622,-0.6263 0.2064,0.2154 0.3932,0.762 -0.4678,0.9901 -0.2216,0.0587 -1.4065,0.7515 -1.4819,0.2254 -0.1512,-1.0555 -0.0277,-0.3126 -0.2537,-1.1409 -0.0931,-0.3411 0.0726,-0.5397 0.2272,-0.6615 0.2202,-0.1735 0.4824,-0.333 0.7294,-0.4972 0.261,-0.1735 0.3883,-0.5941 0.4001,-0.8992 -0.1319,0.4511 -0.5011,1.0166 -0.7412,1.027 0.0142,-0.174 0.3243,-0.4864 0.313,-0.9894 -0.1654,0.2972 -0.3751,1.4864 -1.616,1.5773 -0.0352,0.1256 0.5152,0.0141 0.595,0.0198 0.0596,0.3402 -0.2819,0.6082 -0.5596,0.726 0.0654,0.0716 0.3265,-0.1221 0.5151,-0.2295 0.3013,0.4751 0.4213,1.2964 0.025,1.7486 -0.187,0.2135 -0.5888,0.3028 -0.728,-0.0535 -0.1195,-0.3058 -0.0252,-0.9489 -0.1222,-1.3531 -0.1755,-0.7311 -0.8056,-0.9013 -0.266,-2.2556 0.0563,-0.1115 0.0536,-0.1624 0.1336,-0.2328 0.0666,0.0065 0.4498,0.3242 1.0975,0.2435 0.5199,-0.0648 0.9902,-0.2907 1.2455,-0.7323 -0.4042,0.3707 -1.0234,0.7265 -1.6358,0.6605 -0.1595,-0.0172 -0.4027,-0.0892 -0.5321,-0.182 -0.393,-0.2819 -0.6112,-1.2044 -0.2019,-1.1189 0.1442,0.0301 0.5709,0.3281 0.5692,0.4857 -0.0799,0.0581 -0.202,0.0355 -0.3051,0.0339 0.3815,0.2798 0.9699,0.2696 0.1356,-0.3751 -1.3468,-1.0408 -0.0698,-1.8423 0.0616,-1.7937 0.2627,0.0971 -0.1475,0.2784 -0.2224,0.5509 -0.1093,0.3975 0.1161,0.5068 0.1491,0.6024 0.004,0.0013 1.0537,0.6606 1.6534,-0.2535 0.3447,-0.5253 0.0321,-0.6884 -0.1722,-0.944 -0.0407,-0.0509 -0.0692,-0.1691 -0.0599,-0.2498 0.3118,-0.0556 1.626,0.9245 0.7481,1.5909zm-3.6543 8.4888c0.1785,-0.1369 0.0043,-0.121 0.5076,-0.1196 0.4715,0.0509 0.7341,0.0187 1.1563,0.206l0.2633 2.3827c-1.1947,-0.5435 -2.9538,0.3226 -3.3585,1.0795 -0.1485,0.2777 -0.1269,0.4509 -0.1687,0.509 -0.1305,-0.3657 -0.0953,-1.8103 -0.1009,-2.3259 -0.0066,-0.6166 0.2523,-1.0071 0.7146,-1.2004 0.0768,-0.0321 0.1421,-0.0588 0.1993,-0.0825 -0.2381,0.0027 -0.5391,-0.1519 -0.7246,-0.2108 -0.1644,-0.0522 -0.3121,-0.1312 -0.4364,-0.2226 -0.1419,-0.1044 -0.5192,-0.6286 -0.595,-0.8452 0.6102,0.0382 1.1448,0.4593 1.2455,0.2079 -0.0634,-0.0743 -1.1023,-0.2998 -1.2615,-0.3363 -0.6895,-0.1775 -0.8346,-0.3673 -0.6854,-1.1304 0.0175,-0.0895 0.138,-0.6233 0.2816,-0.6025 0.0914,0.0131 0.1753,0.1128 0.2242,0.1833 0.0896,0.1294 -0.1232,0.703 0.193,0.7834 0.2562,0.0651 0.8144,-0.1077 1.0346,-0.2988 0.8134,-0.7061 0.4284,-1.7568 0.1522,-1.8688 -0.1957,-0.0146 -0.206,0.0272 -0.3522,0.0729 -0.0669,-0.0344 -0.2502,-0.1768 -0.2924,-0.219 -0.2254,-0.2156 0.0621,-0.373 0.1983,-0.4569 0.4684,-0.2886 0.947,-0.0845 1.2468,0.3351 0.1427,0.1998 0.263,0.4154 0.3352,0.7063 0.077,0.31 0.1874,1.6501 0.2927,1.7668 0.1279,-0.1198 0.241,-0.6182 0.301,-0.8084 0.0032,-0.1516 -0.09,0.3052 -0.2942,0.3228 -0.1042,-0.2676 -0.1477,-0.8715 -0.1541,-1.2051 0.3389,-0.0893 0.7279,0.0307 0.8739,0.3447 0.0484,0.1042 0.0784,0.2206 0.095,0.3423 0.1934,0.1276 0.6516,0.6199 0.8132,0.836 0.2394,0.3201 0.7183,1.3447 0.6544,1.63 -0.227,-0.3872 -0.5694,-1.1414 -0.8002,-1.4463 -0.1322,-0.1746 -0.3633,-0.4337 -0.4536,-0.5928 -0.0234,-0.0411 -0.1281,-0.2012 -0.2027,-0.3208 0.0188,0.2531 -0.0126,0.52 -0.0533,0.7419 -0.0835,0.4555 -0.3782,1.0813 -0.7807,1.5384 -0.1674,0.1901 -0.3056,0.4169 -0.4685,0.5718 0.101,-0.0588 0.2161,-0.1369 0.4,-0.2677zm2.8517 5.728c-0.1157,0.8075 -0.5377,1.8277 -1.1733,2.2532 -0.4526,0.3029 -1.836,0.3945 -1.7973,-0.1098 0.0332,-0.0099 3.0927,1.0169 2.7725,-3.9939 -0.0168,-0.1154 -0.0031,-0.1787 0.0077,-0.2884 0.0872,-0.0034 0.2559,-0.052 0.2944,0.1168 0.1165,0.5113 -0.0641,1.7439 -0.104,2.0221zm-0.1023 -3.5381c-0.141,-0.0509 -0.1694,-0.3259 -0.1969,-0.5117 -0.0232,-0.1566 -0.1674,-0.921 -0.0904,-1.0256 0.1356,-0.0303 0.3346,1.3537 0.2873,1.5372zm-0.9251 -2.1096c0.0086,-0.1813 0.3351,-0.5889 0.3259,0.2256 0.094,-0.426 0.3393,-0.4132 0.4725,0.0075 0.2144,0.8088 0.3154,1.4902 0.3564,2.1715 0.0759,0.5929 -0.3938,0.1631 -0.473,0.0258 -0.0931,-0.1616 -0.2449,-0.9745 -0.3263,-1.5174 0.0123,0.6445 0.138,0.8829 0.1988,1.2913 0.0459,0.3086 0.2381,0.5858 0.5438,0.6167 0.128,0.0129 0.1219,0.0005 0.1406,0.1356 0.0624,0.4527 -0.191,0.4836 -0.4858,0.2779 -0.469,-0.3273 -0.4919,-0.7584 -0.5345,-1.1791 -0.0483,-0.4767 -0.3256,-1.7563 -0.2184,-2.0554zm-9.0527 2.1139c-0.4406,0.2305 -1.0142,0.2008 -1.1174,-0.4998 -0.1921,-1.3039 0.74,-3.1946 0.8869,-3.235 0.1351,0.0782 0.1135,0.4129 0.4336,0.8054 1.1999,1.4711 1.9411,0.8506 0.9132,1.9564 -0.2404,0.2586 -0.7987,0.8068 -1.1165,0.973zm6.9309 5.396c-0.9815,-0.5902 -2.1771,-3.85 -0.0015,-4.831 0.72,-0.3247 2.1108,-0.5612 2.3084,0.0235 0.1926,0.57 0.5922,0.4744 0.5637,1.0775 -0.0622,1.3157 0.0724,4.1807 -2.2244,3.9808 -0.2895,-0.0252 -0.4583,-0.1265 -0.6462,-0.2508zm1.2414 -9.2658c0.0379,-0.1646 0.0781,-0.4082 0.2609,-0.2442 0.2931,0.2629 0.8764,1.1989 0.9592,1.6542 -0.6194,-0.0932 -0.2402,0.2433 -0.7381,0.1399l-0.9006 -0.1147c-0.3069,-0.0312 -0.1261,-0.2843 0.0558,-0.5568 0.2132,-0.3195 0.2512,-0.5193 0.3628,-0.8784zm-2.698 2.7988c-0.1753,-0.1214 -0.2748,-0.6762 0.0123,-0.7373 0.0707,-0.0357 0.2759,0.0069 0.3722,0.0278 0.3176,0.0689 -0.0652,0.2482 -0.1372,0.3371l-0.2473 0.3724zm-2.2958 -5.0627c-0.251,1.1648 0.2233,0.7574 -0.1635,1.8722 -0.233,0.6715 -0.2573,0.9336 -0.678,0.6522 -0.4065,-0.2721 -0.6798,-0.5057 -1.0136,-0.8727 -0.6111,-0.6715 -0.3338,-0.5105 -0.0298,-0.8935 0.3391,-0.4274 0.3555,-0.178 0.7278,-1.1901 0.3118,-0.8477 0.2574,-0.9481 0.7024,-0.8064 0.2685,0.0855 0.1111,0.067 0.37,0.608 0.099,0.2071 0.1325,0.4084 0.0847,0.6304zm5.6692 -17.4489c0.5567,0.4872 0.6643,0.4698 1.2251,1.257 0.0605,0.0849 0.2732,0.4457 0.3443,0.4694 0.0961,-0.0622 0.6156,-2.1922 0.603,-2.3499 -0.0209,-0.261 -0.7069,-0.0561 -1.1824,0.1351 -0.3339,0.1342 -0.6658,0.326 -0.99,0.4884zm1.2559 12.1488c0.0934,0.731 -0.6325,0.8337 -0.8467,0.6857 -0.1212,-1.1433 -0.5454,-2.2164 -1.5184,-2.8546 -0.1031,-0.0676 -0.2608,-0.657 -0.2318,-0.7383 0.2479,-0.0401 1.1396,0.4935 1.6438,0.8996 0.6071,0.4891 0.8561,1.2479 0.9531,2.0076zm-7.5298 -4.8654c0.0935,-0.075 0.2631,-0.0815 0.3591,-0.1573 0.2301,-0.2404 -0.1782,-0.4326 -0.334,-0.4583 -0.095,-0.0157 -0.328,-0.0907 -0.3561,-0.1437 -0.0409,-0.077 -0.005,-0.1548 0.0567,-0.1843 0.0402,0.0469 0.0464,0.0973 0.0617,0.12 0.177,0.2611 0.3723,0.066 0.6751,0.0765 0.5564,0.0192 1.095,0.7414 1.5839,1.1181 0.6903,0.539 1.8071,0.5664 2.5757,0.2685 0.2932,-0.1136 1.3319,-0.7095 1.6138,-0.3106 0.1904,0.2694 -0.0987,0.6566 -0.2156,0.7638 -1.0211,0.9367 -3.0775,0.7367 -4.2925,0.206 -0.3764,-0.1644 -1.6894,-0.9008 -1.7279,-1.2987zm4.6624 0.9539c0.11,-0.0473 0.3619,-0.1818 0.5014,-0.1459 -0.0307,0.095 -0.5143,0.3936 -0.6586,0.4672 -0.3236,0.1649 -0.6613,0.0883 -1.0339,0.0853 0.0974,0.0556 0.4525,0.0665 0.5934,0.0722 0.4538,0.0185 0.8079,-0.2456 1.1501,-0.5212 0.0717,-0.0577 0.1058,-0.1175 0.2216,-0.072 0.0205,0.089 -0.0276,0.1519 -0.0548,0.2167 0.3422,-0.1887 0.1813,-0.6131 -0.4479,-0.2654 -0.0803,0.0444 -0.1819,0.0764 -0.2713,0.163zm-4.4577 1.4803c0.1898,-0.4435 0.8575,-0.9642 1.3137,-1.0753 0.1292,-0.0315 0.1871,0.0468 0.4219,0.1268 0.2082,0.0709 0.8133,0.194 0.8914,0.2774 -0.9137,0.3627 -1.6316,0.6054 -2.627,0.6712zm3.2928 -0.0139c-0.2125,0.3019 -1.8088,0.8715 -2.1933,1.0025 -1.1329,0.386 -1.968,0.4864 -3.1388,0.1727 -0.5516,-0.1479 -1.088,-0.3584 -1.5837,-0.6412 -0.3655,-0.2086 -0.2407,-0.8803 0.0916,-1.1201 0.2025,-0.1463 0.3324,-0.1856 0.5455,-0.0302 0.4326,0.2856 0.8149,0.5038 1.3227,0.6582 1.001,0.3044 1.9811,0.1754 3.0594,-0.1373 0.4862,-0.1409 1.0269,-0.3862 1.502,-0.482 0.5214,-0.1052 0.6629,0.2567 0.3946,0.5772zm-3.4672 2.7663c-0.7218,0.1687 -0.5216,-0.8307 -0.3803,-1.2392 0.9222,-0.0933 1.4346,-0.2536 2.2908,-0.5777 0.116,-0.0439 0.4506,-0.2124 0.5431,-0.2182 -0.3176,0.6075 -1.6524,1.9379 -2.4536,2.0351z"/>
  <path class="fil0" d="M42.9276 0.1289c3.436,-0.463 6.8043,0.3038 9.5063,2.5805 1.1533,0.9718 -0.8572,0.5203 -2.6227,1.2929 -0.238,0.1041 -0.9994,0.4656 -1.1043,0.6089 0.4853,0.6631 2.7325,1.3492 3.9931,6.7504 0.3301,1.4146 -1.9087,-1.1145 -5.0018,-1.1145 -0.002,0 1.026,3.2606 -0.21,6.963 -0.3176,0.9513 -0.7075,-0.3197 -0.9428,-0.5906 0,0.2752 -0.109,0.7366 -0.2242,0.9767 1.3398,0.6434 0.0024,1.3023 -0.1441,1.5211 0.7072,1.056 -0.4153,1.1607 -1.1216,1.5683 -0.3007,0.1735 -0.711,0.1523 -0.9919,0.1289 -0.1185,0.5089 -0.8079,1.1102 -1.2195,0.515 -0.3447,-0.4983 -0.0484,-1.0864 -0.2074,-1.5859 -0.327,-1.0271 -0.703,-1.0178 -0.2963,-2.2374 0.254,-0.7617 -0.2998,-0.9372 0.106,-1.5431 -0.3523,-0.6657 -0.0912,-1.3921 0.5764,-1.7452 -0.2098,-0.4371 -0.4841,-0.8606 -0.8966,-1.1368 0.0351,1.5752 -0.0552,3.48 -1.4022,4.5219 -0.9209,0.7123 -0.5671,-0.4474 -0.5671,-1.1435 -0.6663,0.3525 -1.1954,1.3995 -1.1369,-0.0161 0.0134,-0.2545 0.0481,-0.5064 0.0481,-0.7685 -1.1461,0.2668 -0.2211,1.5494 0.4004,1.9853 0.2328,0.1633 1.2007,0.6039 1.2007,0.9608 0,0.6533 -2.2247,-0.4953 -2.4177,-0.6244 0.0127,0.5704 0.5158,1.4952 1.0087,1.8253 0.3487,-0.0931 0.6572,-0.7216 1.409,-0.3843 1.0923,0.4901 0.4236,1.1061 1.182,1.1877 1.0081,0.1084 0.5187,0.6832 0.9655,1.0039 1.4439,1.0359 2.0474,4.2654 2.0474,5.8301 0,0.0002 -0.2154,0.6587 -0.2241,1.6812 -0.0325,3.8007 -2.8098,4.0872 -3.446,3.0617 -0.6138,-0.9893 -0.9844,-0.5753 -1.2706,-2.54 -0.0244,-0.1674 -0.0313,-0.9712 -0.0674,-1.0534 -0.4037,-0.9197 0.0945,-2.5798 -0.2926,-3.2779 -0.171,-0.3084 0.0127,-0.7414 -0.1526,-0.9522 -0.1575,-0.2008 -0.2688,-0.3534 -0.3956,-0.581 -0.5452,-0.9784 -1.2852,0.0664 -0.7316,-2.3106 -0.0122,0.0049 -0.1687,0.4822 -0.3523,1.0219 -0.469,1.3792 -0.5191,1.5384 -1.4702,2.6377 -1.0614,1.2268 -2.6822,2.7792 -3.0469,1.626 -0.1346,-0.4257 -0.9854,-0.9706 0.0545,-3.3116 0.2293,-0.5162 0.6871,-1.4027 0.7319,-1.9419 -0.4167,-0.0971 -0.2718,-0.7888 -0.6429,-0.9262 -1.8449,-0.6829 0.0187,-1.7385 -0.4262,-2.2797 -0.8035,-0.9776 -0.6141,-2.3139 1.1425,-2.821 1.4132,-0.4079 1.733,0.0693 2.0721,-1.3863 -1.7365,0 -1.142,-0.7862 -2.2537,0.196 -1.011,0.8932 -1.5964,-0.3453 -2.0333,-0.6643 -0.1192,-0.0871 -0.7258,0.1076 -1.0494,-0.8559 -0.0027,-0.0078 -1.5262,-0.5727 -2.0517,-1.887 -0.2719,-0.68 0.0893,-1.0612 0.0871,-1.6722 -0.002,-0.5507 0.1367,-1.2016 0.8166,-1.2168 0.0524,-0.6291 0.5468,-1.1968 1.2168,-1.0408 0.0713,-0.8545 1.3905,-1.5048 1.7866,-0.5537 0.0945,0.2271 0.2014,0.6487 0.2788,0.8099 1.7896,0 1.6043,2.199 1.29,2.8605 -0.2414,0.5081 1.3642,0.2591 1.0221,1.6131 -0.2616,1.0354 0.4453,0.8901 1.3545,0.8901 0.0885,-0.3802 0.9239,-1.1013 1.2969,-1.2009l0 -0.032c-0.3868,-0.1032 -1.3852,-1.1679 -1.5037,-1.1702 -2.0052,-0.039 -1.8836,-1.6001 -0.6792,-1.034 0.1648,0.0775 0.353,0.1237 0.5177,0.2028 0,-0.3195 0.1179,-0.1342 -0.018,-0.5423 -0.2813,-0.8441 -0.1863,-2.1619 -0.362,-2.552 -0.1292,-0.2868 -0.1483,-0.5978 -0.1483,-0.9405 0,-1.6132 0.4024,-0.5076 -0.0093,-1.8641 -0.2269,-0.7476 -0.5269,-2.3383 -0.0924,-3.153 0.3754,-0.7037 2.2977,1.3616 2.8556,1.5106 1.3089,-0.876 2.6747,-1.4667 4.2598,-1.6803zm-8.3587 17.2753c-0.7044,-0.4716 2.4977,-2.5083 2.4977,1.425 -0.3374,-0.0281 -0.4286,-0.6553 -1.1208,-0.8166 0,-1.1473 -0.6542,-0.7767 -1.377,-0.6084z"/>
  <path class="fil1" d="M41.6076 12.1354c1.1517,2.9797 -0.9785,5.6349 -1.2672,5.4053 -0.0928,-0.0738 0.0381,-1.4695 0.0329,-1.6896 -0.0085,-0.3588 -0.074,-0.5893 -0.1141,-0.7746 -0.0141,0.1689 -0.0369,0.4071 -0.028,0.7105 0.0091,0.3081 -0.2805,0.5822 -0.3695,0.627 -0.0403,0.0747 -0.5034,0.5112 -0.6603,0.487 -0.0382,-0.083 0.0186,-1.424 0.1553,-1.5456 0.6318,-0.5622 0.5973,-0.4701 1.1635,-1.0789 0.1977,-0.2126 0.9917,-1.2818 0.8469,-1.555 -0.0291,0.0043 -0.7514,1.321 -0.9618,1.5528 -0.7911,0.8721 -1.8704,1.2415 -2.2818,2.0302 0.0741,-0.0507 0.1814,0.1449 0.2077,0.1872 0.7691,1.2344 0.7361,1.0935 1.8167,1.8499 0.0616,0.0432 0.3184,0.1908 0.3121,0.271 -0.3583,0.0314 -1.3589,-0.2956 -1.6444,-0.4908 -0.2759,-0.1886 -0.6821,-0.3971 -0.7404,-0.7372 -0.0547,-0.3192 -0.0693,-0.6525 -0.004,-0.9682 -0.0481,0.1147 -0.0828,0.2382 -0.1011,0.3731 -0.2168,1.5933 1.0988,3.737 2.4639,4.2426 -0.0004,0.4774 -0.4093,1.599 -0.9964,1.0771 -1.2349,-1.0978 -1.9245,-2.2363 -2.2352,-3.9107 -0.1955,-1.0536 0.064,-1.1045 -0.7069,-1.7601 -0.1544,-0.1313 -0.491,-0.4224 -0.8164,-0.4055 0.0434,0.0334 0.1594,0.1335 0.1862,0.1698 -1.8683,0.2314 -2.2844,0.9996 -0.8508,2.0376 0.0075,0.4466 -0.5034,0.8726 -0.8696,1.0542 -0.2312,-0.316 -0.8151,-0.9817 -0.9789,-1.2906 -0.2966,-0.5589 -0.3382,-1.5126 0.1897,-1.8935 0.777,-0.5605 2.449,-0.494 2.9746,-1.0738l0.2343 0.4069c1.5341,0.1522 2.5787,-1.9699 3.2068,-2.3161 0.479,-0.264 1.1155,-0.5262 0.7813,-1.1855 0.2843,-0.0067 0.6263,-0.049 0.9074,-0.0358 0.0278,0.0531 0.0949,0.1226 0.1477,0.2289zm1.5586 -1.0238c0.5785,0.0696 1.3796,-1.2856 1.5721,-1.507 -0.2977,1.0443 0.2614,1.1129 -0.7989,2.4238 -0.311,0.3844 -0.0531,0.4331 0.1302,0.8218 0.4136,0.8772 0.3669,0.6128 1.0755,1.3426 1.9756,2.0348 2.0235,4.8446 2.5946,0.899 0.3238,-2.2372 0.1775,-4.8558 -1.3768,-6.6206 1.2538,0.0996 2.3421,0.4699 2.7991,1.6656 1.1954,0.3963 2.1268,0.7449 3.2539,1.3249 0.0276,-0.9365 -1.2157,-3.6739 -1.7841,-4.5089 -0.1788,-0.4112 -1.126,-1.4393 -1.561,-1.7441 -0.7229,-0.5066 -1.863,-1.0417 -2.2953,-1.2079 0.0783,-0.0058 0.5996,-0.3954 1.3791,-0.5184 0.8987,-0.1419 1.5134,0.2016 1.6668,0.2041 0.8863,-0.1926 1.5556,-0.4772 2.5181,-0.6083 -0.2938,-0.6472 -2.3174,-1.6714 -3.3863,-2.117 -2.8334,-1.1814 -6.0258,-0.8659 -8.8285,0.2188 -0.9363,0.3624 -2.7896,1.6325 -3.1041,2.6627 0.3086,0.2298 0.4307,1.2246 0.2735,1.4653 -0.1426,-2.646 -1.622,-0.617 -1.073,0.7889 0.121,0.0146 0.1354,-0.5651 0.3027,-0.8937 0.0661,-0.1298 0.1154,-0.1804 -0.0709,-0.2056 0.6695,-0.7463 0.3736,3.411 0.9296,3.5284 0.0818,-0.0926 0.0764,-0.6022 0.0954,-0.7626 0.0101,-0.1421 0.0997,-0.3058 0.1434,-0.4276 -0.2889,1.6664 0.2608,1.9929 0.7823,1.8475 0.45,-0.1255 0.8924,-0.8174 1.1978,-1.2012 0.6212,-0.7807 1.696,-2.1277 2.9698,-1.7022 1.054,0.3521 1.0505,1.623 0.7106,2.6148 -0.0996,0.2906 -0.3075,0.8085 -0.7117,1.3238 1.1029,-0.0032 0.6472,0.6496 0.5962,0.893zm-5.8911 -9.9496c1.7627,1.5063 1.0264,0.3766 -0.4029,2.5984 -0.0513,0.0798 -0.4087,0.2646 -0.5102,0.3595 -0.4322,-0.4883 -1.1645,-4.7002 0.3175,-3.4767 0.1881,0.1553 0.4482,0.3261 0.5956,0.5188zm2.1102 5.8926c0.9429,-1.0709 2.3895,-2.6243 3.9829,-1.908 0.9883,0.4443 0.9536,1.8672 0.6304,2.7382 0.0525,-0.6315 0.1784,-1.2667 -0.0551,-1.8566 -0.487,-1.2296 -2.0058,-0.8695 -2.8102,-0.4121 -0.6099,0.3468 -1.2256,1.1088 -1.748,1.4384zm6.0808 -2.4638c-0.0483,-1.0168 1.2597,-3.2709 0.5896,-3.394 -1.4235,-0.2616 -2.9796,1.1539 -3.7328,1.1666 0.1341,-0.2813 2.1498,-1.3427 3.3428,-1.408 0.8905,-0.0489 0.8157,0.3375 0.6756,0.9881 0.5594,0.2374 1.5041,-0.6445 -0.2595,1.9325 -0.3444,0.5032 -0.5736,1.0516 -0.7305,1.6299 -0.024,-0.2778 0.071,-0.6378 0.1149,-0.915zm-0.8573 -2.538c1.7061,-0.5221 0.7058,0.5774 0.3427,2.3597 -0.0272,0.1332 -0.0376,0.3386 -0.1224,0.4162 -0.0431,-0.0061 -0.886,-1.1742 -1.0797,-1.3603l-0.7677 -0.6622c0.4132,-0.2911 1.14,-0.6126 1.6271,-0.7534zm-8.8872 17.498c0.0803,-0.09 0.2841,-0.3104 0.2971,-0.4409 -0.465,0.4486 -0.2051,-0.4733 -0.2129,-0.8857 0.1484,-0.0015 0.6937,0.2143 0.7894,0.5629 0.1197,0.4363 -0.6314,1.7972 -0.9531,2.1082 -0.1304,0.1261 -0.3411,0.281 -0.5734,0.3835 0.0312,0.0845 0.1069,0.2949 0.1577,0.3642 0.1801,0.2459 0.4919,0.5356 0.7186,0.7332 0.3387,0.2951 0.6823,0.4948 1.06,0.7388 -0.0163,0.1528 -0.0697,0.4282 -0.1806,0.6841 0.1589,-0.29 0.2924,-0.582 0.3902,-0.8663 0.0829,-0.2408 0.3973,-1.143 0.3901,-1.3491 -0.0051,-0.4253 -0.1646,-0.9056 0.0462,-1.374 0.0555,0.0307 0.5367,0.895 0.5012,1.0133 -0.1927,0.6411 -0.5387,1.9103 -0.8774,2.5057 -0.3817,0.671 -2.304,3.1491 -3.299,3.196 -0.182,0.0085 -0.3947,-0.0466 -0.3659,-0.2488 0.1717,-0.0555 0.2249,0.3326 1.2265,-0.4706 0.6107,-0.4897 1.2732,-1.2388 1.7711,-2.0361 -0.1716,0.2287 -0.3668,0.3903 -0.4593,0.4184 -0.2587,0.0786 -0.9715,-0.565 -1.2168,-0.798 -0.2322,-0.2204 -0.4153,-0.4329 -0.5577,-0.7949 -0.2924,-0.7431 -0.1786,-0.7869 0.0535,-1.4401 0.2206,-0.0268 0.3602,-0.1337 0.47,-0.2117 -0.1182,0.0358 -0.2381,0.0542 -0.3528,0.0452 -0.4224,-0.033 -0.5121,-0.5273 -0.5403,-0.8786l0.7768 -0.1018c-0.1883,-0.0997 -1.1379,0.0361 -1.5744,-0.2602 -0.5797,-0.3935 0.2316,-1.698 0.3826,-1.3889 0.2938,0.2648 -0.1138,0.2901 -0.0426,0.7267 0.1546,0.086 0.5446,-0.0386 0.6972,-0.1011 0.4532,-0.1858 0.6105,-0.4831 0.8036,-0.9419 0.0396,-0.0941 0.2374,-0.5607 0.2387,-0.6316 -0.071,0.0259 -0.195,0.1678 -0.2292,0.2233 -0.0005,-0.0002 -0.5178,-0.274 -0.2483,-0.4711 0.4,-0.2923 0.9564,-0.2024 0.9263,0.4021 -0.0149,0.3002 -0.3246,1.5856 -0.0129,1.5855zm1.4773 -10.6412c0.0851,-0.0679 0.0532,-0.3548 -0.029,-0.3973 -0.0568,0.0296 -0.0538,0.1145 -0.0495,0.1862 0.0045,0.0748 0.0101,0.1827 0.0785,0.2111zm4.0627 0.6217c0.1248,-0.0748 0.1333,-0.4605 0.032,-0.5313 -0.0806,0.0291 -0.0916,0.1421 -0.0986,0.2379 -0.0073,0.0999 -0.019,0.2436 0.0666,0.2934zm-5.6375 -0.2593c-0.1158,0.138 0.4545,0.5323 0.7014,0.3618 0.189,-0.1306 -0.3034,-0.2629 -0.4628,-0.3281 -0.0359,-0.0147 -0.0673,-0.029 -0.1044,-0.0406 -0.0518,-0.0162 -0.1005,-0.0334 -0.1342,0.0069zm1.2271 -1.2664c0.004,0.8654 0.2077,1.2187 0.2135,1.3129 -0.1762,0.0841 -0.2507,0.0054 -0.3072,-0.1231 -0.3921,-0.8905 -0.5537,-1.9339 -0.3901,-2.903 0.0116,-0.1928 0.1409,-0.9377 0.3631,-0.9691 0.1651,0.1248 0.1378,0.831 0.1516,1.081 0.0112,0.201 0.0263,0.3944 0.0428,0.5926 0.0139,0.1667 0.051,0.3366 -0.0072,0.4776 -0.0555,0.1348 -0.0671,0.3834 -0.0664,0.5312zm0.6336 1.1672l0.026 -0.2741c0.1325,0.0254 0.0972,0.2053 0.3802,0.3476 0.5562,0.2798 1.0063,-0.284 1.3018,-0.6675 0.5486,-0.6757 1.4195,-1.6685 2.2046,-2.0383 0.9679,-0.456 1.9124,0.0761 1.9667,1.2247 0.0216,0.4567 -0.0941,1.0692 -0.2939,1.4726 -0.1909,0.3854 -0.5754,0.9591 -0.942,1.1717 -0.129,0.0749 -0.5756,0.3206 -0.7215,0.3328 0.011,-0.0667 0.0984,-0.2184 0.1309,-0.3149 0.1759,-0.5221 0.258,-1.433 0.1442,-1.9622 -0.0409,-0.1903 -0.174,-0.53 -0.4284,-0.3876 -0.4972,0.2783 -0.5634,1.8798 -0.3515,2.4814 0.0553,0.1571 0.1317,0.228 0.1325,0.2937 -0.2249,0.0838 -0.9545,0.0281 -1.2009,-0.0254 -1.2012,-0.2608 -1.3493,-1.2973 -2.3603,-1.5189l0.0115 -0.1356zm-6.0723 -1.7241c-0.307,0.1388 -0.024,-0.776 0.2032,-1.0353 0.2608,-0.2976 0.7901,-0.3323 1.0217,0.0334 0.303,0.4784 0.5691,2.2937 0.6472,2.372 0.1284,-0.0656 -0.0622,-1.0508 -0.0697,-1.2686 0.7238,-0.0503 0.8818,0.1968 1.0607,0.9241 0.1021,0.415 0.2395,0.8688 0.0732,1.2806 -0.1671,0.4137 -0.4712,0.137 -0.7587,0.0797 -0.329,-0.0655 -0.9724,-0.114 -1.407,0.3643 -0.3106,0.3418 -0.658,1.0361 -0.8457,1.4542 0.4453,-0.5422 0.2561,-0.3293 0.6088,-0.8669 0.2309,-0.352 0.168,-0.2793 0.4381,-0.5622 0.3929,-0.4115 1.5461,-0.4985 2.0167,0.402 -0.151,0.0635 -0.7243,0.1281 -0.8508,0.0483 -0.0114,-0.1299 0.1126,-0.1199 0.1155,-0.2118 -0.2557,-0.0807 -0.8813,0.2285 -0.8998,0.3729 0.1324,0.1081 1.5079,-0.0655 1.9312,-0.0938 0.6024,-0.0404 0.6234,0.508 0.5284,0.9458 -0.0623,0.2872 -0.0407,0.742 -0.5565,0.423l-0.0388 -0.3398c0.0689,0.0462 0.063,0.1006 0.117,0.1605 0.0406,-0.5491 -0.1134,-0.5498 -0.702,-0.3497 -0.324,0.1102 -0.6613,0.2227 -0.7844,0.496 -0.1268,0.2814 -0.1419,0.8116 -0.0925,1.1425 0.1661,1.1115 0.4549,0.2981 0.7664,0.2538 0.1351,-0.0192 0.3205,0.1865 0.4285,0.2457 -0.0841,0.1804 -0.5817,0.582 -0.9068,0.6171 -0.3742,0.0404 -0.7954,-0.3081 -0.9854,-0.5507 -0.4295,-0.5482 0.0266,-1.5337 -0.1694,-1.8475 -0.1064,-0.0231 -0.3849,0.4455 -0.3422,0.4897 0.0291,-0.0599 0.1055,-0.1665 0.1807,-0.1544 0.0611,0.2131 0.0534,0.8302 0.0347,1.0553 -0.5523,0.2741 -1.0668,-0.6997 -1.0583,-1.1537 -0.0322,0.1147 -0.0367,0.1862 -0.07,0.2799 -0.4388,-0.0102 -1.0044,-0.4619 -1.3436,-0.8188 -0.3895,-0.4098 -1.0144,-1.5548 -0.4478,-1.9321 0.0237,0.0917 0.0666,0.285 0.1798,0.3016 0.0585,-0.1192 -0.053,-0.3817 -0.0815,-0.5162 -0.0523,-0.2475 -0.0377,-0.8629 0.1155,-1.0605 0.0578,-0.0745 0.2566,-0.2306 0.4249,-0.1528 0.037,0.0392 -0.1515,0.457 -0.052,0.6606 0.1481,-0.1846 0.1829,-0.5137 0.2033,-0.652 0.0731,-0.4971 0.255,-1.1619 0.8707,-1.1219 0.3049,0.0198 0.2823,0.2331 0.1914,0.4369 -0.0527,0.1181 -0.1519,0.2143 -0.1625,0.3167 0.1402,0.0674 0.464,-0.312 0.5335,-0.3761 0.1817,-0.1674 0.5007,-0.1129 0.7652,-0.1115 -0.1605,-0.1746 -0.4074,-0.2787 -0.5739,-0.1921 -0.1813,0.0941 -0.1232,0.1593 -0.2568,0.2117zm13.8212 8.301c-0.0002,0.0004 -0.562,0.7255 -0.511,0.8196 0.0084,-0.0291 0.4205,-0.5778 0.4832,-0.6205 0.099,0.2288 0.1104,0.4867 -0.0624,0.6925 0.0425,0.2117 0.14,0.7755 0.2675,0.9166 0.1484,-0.0828 -0.3181,-0.8093 0.3327,-1.2791 0.1978,-0.1428 0.7153,-0.2752 0.5774,0.4849 -0.2746,1.5131 -0.484,0.5356 -1.2111,1.2866 -0.1307,0.1349 -0.3039,0.5947 -0.1751,0.6478 0.0013,-0.133 0.1858,-0.6508 0.5999,-0.7989 1.6246,-0.581 1.2393,1.281 0.1206,0.9993 -0.5404,-0.1361 -0.744,0.0771 -1.0313,0.2824l-0.3396 -0.5736c0.0632,0.633 0.3547,0.4046 0.1961,0.8466 -0.0429,0.1195 -0.1518,0.303 -0.0419,0.402 -0.0036,-0.4056 0.8083,-1.4132 1.5622,-0.6263 0.2064,0.2154 0.3932,0.762 -0.4678,0.9901 -0.2216,0.0587 -1.4065,0.7515 -1.4819,0.2254 -0.1512,-1.0555 -0.0277,-0.3126 -0.2537,-1.1409 -0.0931,-0.3411 0.0726,-0.5397 0.2272,-0.6615 0.2202,-0.1735 0.4824,-0.333 0.7294,-0.4972 0.261,-0.1735 0.3883,-0.5941 0.4001,-0.8992 -0.1319,0.4511 -0.5011,1.0166 -0.7412,1.027 0.0142,-0.174 0.3243,-0.4864 0.313,-0.9894 -0.1654,0.2972 -0.3751,1.4864 -1.616,1.5773 -0.0352,0.1256 0.5152,0.0141 0.595,0.0198 0.0596,0.3402 -0.2819,0.6082 -0.5596,0.726 0.0654,0.0716 0.3265,-0.1221 0.5151,-0.2295 0.3013,0.4751 0.4213,1.2964 0.025,1.7486 -0.187,0.2135 -0.5888,0.3028 -0.728,-0.0535 -0.1195,-0.3058 -0.0252,-0.9489 -0.1222,-1.3531 -0.1755,-0.7311 -0.8056,-0.9013 -0.266,-2.2556 0.0563,-0.1115 0.0536,-0.1624 0.1336,-0.2328 0.0666,0.0065 0.4498,0.3242 1.0975,0.2435 0.5199,-0.0648 0.9902,-0.2907 1.2455,-0.7323 -0.4042,0.3707 -1.0234,0.7265 -1.6358,0.6605 -0.1595,-0.0172 -0.4027,-0.0892 -0.5321,-0.182 -0.393,-0.2819 -0.6112,-1.2044 -0.2019,-1.1189 0.1442,0.0301 0.5709,0.3281 0.5692,0.4857 -0.0799,0.0581 -0.202,0.0355 -0.3051,0.0339 0.3815,0.2798 0.9699,0.2696 0.1356,-0.3751 -1.3468,-1.0408 -0.0698,-1.8423 0.0616,-1.7937 0.2627,0.0971 -0.1475,0.2784 -0.2224,0.5509 -0.1093,0.3975 0.1161,0.5068 0.1491,0.6024 0.004,0.0013 1.0537,0.6606 1.6534,-0.2535 0.3447,-0.5253 0.0321,-0.6884 -0.1722,-0.944 -0.0407,-0.0509 -0.0692,-0.1691 -0.0599,-0.2498 0.3118,-0.0556 1.626,0.9245 0.7481,1.5909zm-3.6543 8.4888c0.1785,-0.1369 0.0043,-0.121 0.5076,-0.1196 0.4715,0.0509 0.7341,0.0187 1.1563,0.206l0.2633 2.3827c-1.1947,-0.5435 -2.9538,0.3226 -3.3585,1.0795 -0.1485,0.2777 -0.1269,0.4509 -0.1687,0.509 -0.1305,-0.3657 -0.0953,-1.8103 -0.1009,-2.3259 -0.0066,-0.6166 0.2523,-1.0071 0.7146,-1.2004 0.0768,-0.0321 0.1421,-0.0588 0.1993,-0.0825 -0.2381,0.0027 -0.5391,-0.1519 -0.7246,-0.2108 -0.1644,-0.0522 -0.3121,-0.1312 -0.4364,-0.2226 -0.1419,-0.1044 -0.5192,-0.6286 -0.595,-0.8452 0.6102,0.0382 1.1448,0.4593 1.2455,0.2079 -0.0634,-0.0743 -1.1023,-0.2998 -1.2615,-0.3363 -0.6895,-0.1775 -0.8346,-0.3673 -0.6854,-1.1304 0.0175,-0.0895 0.138,-0.6233 0.2816,-0.6025 0.0914,0.0131 0.1753,0.1128 0.2242,0.1833 0.0896,0.1294 -0.1232,0.703 0.193,0.7834 0.2562,0.0651 0.8144,-0.1077 1.0346,-0.2988 0.8134,-0.7061 0.4284,-1.7568 0.1522,-1.8688 -0.1957,-0.0146 -0.206,0.0272 -0.3522,0.0729 -0.0669,-0.0344 -0.2502,-0.1768 -0.2924,-0.219 -0.2254,-0.2156 0.0621,-0.373 0.1983,-0.4569 0.4684,-0.2886 0.947,-0.0845 1.2468,0.3351 0.1427,0.1998 0.263,0.4154 0.3352,0.7063 0.077,0.31 0.1874,1.6501 0.2927,1.7668 0.1279,-0.1198 0.241,-0.6182 0.301,-0.8084 0.0032,-0.1516 -0.09,0.3052 -0.2942,0.3228 -0.1042,-0.2676 -0.1477,-0.8715 -0.1541,-1.2051 0.3389,-0.0893 0.7279,0.0307 0.8739,0.3447 0.0484,0.1042 0.0784,0.2206 0.095,0.3423 0.1934,0.1276 0.6516,0.6199 0.8132,0.836 0.2394,0.3201 0.7183,1.3447 0.6544,1.63 -0.227,-0.3872 -0.5694,-1.1414 -0.8002,-1.4463 -0.1322,-0.1746 -0.3633,-0.4337 -0.4536,-0.5928 -0.0234,-0.0411 -0.1281,-0.2012 -0.2027,-0.3208 0.0188,0.2531 -0.0126,0.52 -0.0533,0.7419 -0.0835,0.4555 -0.3782,1.0813 -0.7807,1.5384 -0.1674,0.1901 -0.3056,0.4169 -0.4685,0.5718 0.101,-0.0588 0.2161,-0.1369 0.4,-0.2677zm2.8517 5.728c-0.1157,0.8075 -0.5377,1.8277 -1.1733,2.2532 -0.4526,0.3029 -1.836,0.3945 -1.7973,-0.1098 0.0332,-0.0099 3.0927,1.0169 2.7725,-3.9939 -0.0168,-0.1154 -0.0031,-0.1787 0.0077,-0.2884 0.0872,-0.0034 0.2559,-0.052 0.2944,0.1168 0.1165,0.5113 -0.0641,1.7439 -0.104,2.0221zm-0.1023 -3.5381c-0.141,-0.0509 -0.1694,-0.3259 -0.1969,-0.5117 -0.0232,-0.1566 -0.1674,-0.921 -0.0904,-1.0256 0.1356,-0.0303 0.3346,1.3537 0.2873,1.5372zm-0.9251 -2.1096c0.0086,-0.1813 0.3351,-0.5889 0.3259,0.2256 0.094,-0.426 0.3393,-0.4132 0.4725,0.0075 0.2144,0.8088 0.3154,1.4902 0.3564,2.1715 0.0759,0.5929 -0.3938,0.1631 -0.473,0.0258 -0.0931,-0.1616 -0.2449,-0.9745 -0.3263,-1.5174 0.0123,0.6445 0.138,0.8829 0.1988,1.2913 0.0459,0.3086 0.2381,0.5858 0.5438,0.6167 0.128,0.0129 0.1219,0.0005 0.1406,0.1356 0.0624,0.4527 -0.191,0.4836 -0.4858,0.2779 -0.469,-0.3273 -0.4919,-0.7584 -0.5345,-1.1791 -0.0483,-0.4767 -0.3256,-1.7563 -0.2184,-2.0554zm-9.0527 2.1139c-0.4406,0.2305 -1.0142,0.2008 -1.1174,-0.4998 -0.1921,-1.3039 0.74,-3.1946 0.8869,-3.235 0.1351,0.0782 0.1135,0.4129 0.4336,0.8054 1.1999,1.4711 1.9411,0.8506 0.9132,1.9564 -0.2404,0.2586 -0.7987,0.8068 -1.1165,0.973zm6.9309 5.396c-0.9815,-0.5902 -2.1771,-3.85 -0.0015,-4.831 0.72,-0.3247 2.1108,-0.5612 2.3084,0.0235 0.1926,0.57 0.5922,0.4744 0.5637,1.0775 -0.0622,1.3157 0.0724,4.1807 -2.2244,3.9808 -0.2895,-0.0252 -0.4583,-0.1265 -0.6462,-0.2508zm1.2414 -9.2658c0.0379,-0.1646 0.0781,-0.4082 0.2609,-0.2442 0.2931,0.2629 0.8764,1.1989 0.9592,1.6542 -0.6194,-0.0932 -0.2402,0.2433 -0.7381,0.1399l-0.9006 -0.1147c-0.3069,-0.0312 -0.1261,-0.2843 0.0558,-0.5568 0.2132,-0.3195 0.2512,-0.5193 0.3628,-0.8784zm-2.698 2.7988c-0.1753,-0.1214 -0.2748,-0.6762 0.0123,-0.7373 0.0707,-0.0357 0.2759,0.0069 0.3722,0.0278 0.3176,0.0689 -0.0652,0.2482 -0.1372,0.3371l-0.2473 0.3724zm-2.2958 -5.0627c-0.251,1.1648 0.2233,0.7574 -0.1635,1.8722 -0.233,0.6715 -0.2573,0.9336 -0.678,0.6522 -0.4065,-0.2721 -0.6798,-0.5057 -1.0136,-0.8727 -0.6111,-0.6715 -0.3338,-0.5105 -0.0298,-0.8935 0.3391,-0.4274 0.3555,-0.178 0.7278,-1.1901 0.3118,-0.8477 0.2574,-0.9481 0.7024,-0.8064 0.2685,0.0855 0.1111,0.067 0.37,0.608 0.099,0.2071 0.1325,0.4084 0.0847,0.6304zm5.6692 -17.4489c0.5567,0.4872 0.6643,0.4698 1.2251,1.257 0.0605,0.0849 0.2732,0.4457 0.3443,0.4694 0.0961,-0.0622 0.6156,-2.1922 0.603,-2.3499 -0.0209,-0.261 -0.7069,-0.0561 -1.1824,0.1351 -0.3339,0.1342 -0.6658,0.326 -0.99,0.4884zm1.2559 12.1488c0.0934,0.731 -0.6325,0.8337 -0.8467,0.6857 -0.1212,-1.1433 -0.5454,-2.2164 -1.5184,-2.8546 -0.1031,-0.0676 -0.2608,-0.657 -0.2318,-0.7383 0.2479,-0.0401 1.1396,0.4935 1.6438,0.8996 0.6071,0.4891 0.8561,1.2479 0.9531,2.0076zm-7.5298 -4.8654c0.0935,-0.075 0.2631,-0.0815 0.3591,-0.1573 0.2301,-0.2404 -0.1782,-0.4326 -0.334,-0.4583 -0.095,-0.0157 -0.328,-0.0907 -0.3561,-0.1437 -0.0409,-0.077 -0.005,-0.1548 0.0567,-0.1843 0.0402,0.0469 0.0464,0.0973 0.0617,0.12 0.177,0.2611 0.3723,0.066 0.6751,0.0765 0.5564,0.0192 1.095,0.7414 1.5839,1.1181 0.6903,0.539 1.8071,0.5664 2.5757,0.2685 0.2932,-0.1136 1.3319,-0.7095 1.6138,-0.3106 0.1904,0.2694 -0.0987,0.6566 -0.2156,0.7638 -1.0211,0.9367 -3.0775,0.7367 -4.2925,0.206 -0.3764,-0.1644 -1.6894,-0.9008 -1.7279,-1.2987zm4.6624 0.9539c0.11,-0.0473 0.3619,-0.1818 0.5014,-0.1459 -0.0307,0.095 -0.5143,0.3936 -0.6586,0.4672 -0.3236,0.1649 -0.6613,0.0883 -1.0339,0.0853 0.0974,0.0556 0.4525,0.0665 0.5934,0.0722 0.4538,0.0185 0.8079,-0.2456 1.1501,-0.5212 0.0717,-0.0577 0.1058,-0.1175 0.2216,-0.072 0.0205,0.089 -0.0276,0.1519 -0.0548,0.2167 0.3422,-0.1887 0.1813,-0.6131 -0.4479,-0.2654 -0.0803,0.0444 -0.1819,0.0764 -0.2713,0.163zm-4.4577 1.4803c0.1898,-0.4435 0.8575,-0.9642 1.3137,-1.0753 0.1292,-0.0315 0.1871,0.0468 0.4219,0.1268 0.2082,0.0709 0.8133,0.194 0.8914,0.2774 -0.9137,0.3627 -1.6316,0.6054 -2.627,0.6712zm3.2928 -0.0139c-0.2125,0.3019 -1.8088,0.8715 -2.1933,1.0025 -1.1329,0.386 -1.968,0.4864 -3.1388,0.1727 -0.5516,-0.1479 -1.088,-0.3584 -1.5837,-0.6412 -0.3655,-0.2086 -0.2407,-0.8803 0.0916,-1.1201 0.2025,-0.1463 0.3324,-0.1856 0.5455,-0.0302 0.4326,0.2856 0.8149,0.5038 1.3227,0.6582 1.001,0.3044 1.9811,0.1754 3.0594,-0.1373 0.4862,-0.1409 1.0269,-0.3862 1.502,-0.482 0.5214,-0.1052 0.6629,0.2567 0.3946,0.5772zm-3.4672 2.7663c-0.7218,0.1687 -0.5216,-0.8307 -0.3803,-1.2392 0.9222,-0.0933 1.4346,-0.2536 2.2908,-0.5777 0.116,-0.0439 0.4506,-0.2124 0.5431,-0.2182 -0.3176,0.6075 -1.6524,1.9379 -2.4536,2.0351z"/>
 </g>
</svg>
