<?xml version="1.0" encoding="UTF-8"?>
<!DOCTYPE svg PUBLIC "-//W3C//DTD SVG 1.1//EN" "http://www.w3.org/Graphics/SVG/1.1/DTD/svg11.dtd">
<!-- Creator: CorelDRAW 2020 (64-Bit) -->
<svg xmlns="http://www.w3.org/2000/svg" xml:space="preserve" width="126.124mm" height="80mm" version="1.1" style="shape-rendering:geometricPrecision; text-rendering:geometricPrecision; image-rendering:optimizeQuality; fill-rule:evenodd; clip-rule:evenodd"
viewBox="0 0 51.2513 32.5086"
 xmlns:xlink="http://www.w3.org/1999/xlink"
 xmlns:xodm="http://www.corel.com/coreldraw/odm/2003">
 <defs>
  <style type="text/css">
   <![CDATA[
    .fil1 {fill:#FEFEFE}
    .fil0 {fill:#2B2A29}
   ]]>
  </style>
 </defs>
 <g id="Слой_x0020_1">
  <metadata id="CorelCorpID_0Corel-Layer"/>
  <path class="fil0" d="M20.158 0.6033c0.4318,0.156 0.9729,0.3791 1.3663,0.6076 0.4152,0.2413 0.8195,0.4822 1.2027,0.7712 0.258,0.1946 0.4955,0.3779 0.7493,0.5762l0.2758 0.2285c0.0351,0.0271 0.0514,0.0463 0.0817,0.0768 0.072,0.0724 0.2845,0.2496 0.2845,0.3638 0,0.0959 -0.1291,0.0966 -0.222,0.1094 -0.3012,0.0414 -0.5945,0.0535 -0.9006,0.0791 -0.7729,0.0647 -1.4377,0.2113 -2.1678,0.4543 -0.2428,0.0808 -0.4607,0.1818 -0.6863,0.2935 -0.0408,0.0202 -0.0649,0.0332 -0.1009,0.0576 -0.0334,0.0226 -0.0566,0.046 -0.1007,0.0578 0.0153,0.0574 0.0664,0.0596 0.1146,0.087l0.3493 0.227c0.1586,0.1057 0.2975,0.1994 0.4499,0.3137 0.0786,0.0589 0.1469,0.107 0.2211,0.1679l0.2606 0.2148c0.0253,0.0204 0.029,0.0197 0.056,0.0449l0.2954 0.2665c0.2558,0.2562 0.5142,0.504 0.7374,0.7897 0.3586,0.4589 0.6186,0.8986 0.8774,1.4134l0.2353 0.5283c0.0814,0.1808 0.1413,0.3691 0.2047,0.5589 0.3484,1.0434 0.4773,2.1124 0.4773,3.3407 0,0.2321 0.0283,1.6713 -0.2161,1.6713 -0.1528,0 -0.3561,-0.3356 -0.4426,-0.4507 -0.436,-0.5806 -0.6123,-0.8419 -1.1963,-1.4259l-0.5676 -0.5273c-0.0422,-0.0338 -0.069,-0.0638 -0.1151,-0.1009 -0.355,-0.2865 -0.892,-0.7338 -1.3379,-0.8377 0.018,0.0774 0.1331,0.2787 0.1731,0.36 0.3099,0.6291 0.4142,1.3821 0.5102,2.0832 0.0218,0.1588 0.0216,0.3147 0.0454,0.4733 0.0214,0.1428 0.0205,0.3494 0.0205,0.4982 0,0.7147 -0.0106,0.9346 -0.0725,1.6564 -0.029,0.3382 -0.0923,0.6858 -0.1456,1.007 -0.0367,0.221 -0.3654,1.7165 -0.5888,1.7165 -0.0948,0 -0.1704,-0.1209 -0.2191,-0.1987l-0.1315 -0.243c-0.0439,-0.0887 -0.0756,-0.1664 -0.12,-0.2546l-0.3608 -0.763c-0.0922,-0.2159 -0.2175,-0.421 -0.321,-0.6299 -0.1412,-0.2848 -0.3241,-0.5492 -0.4986,-0.8125 -0.1008,-0.1522 -0.2048,-0.2904 -0.3165,-0.4326 -0.0576,-0.0732 -0.2706,-0.3572 -0.3665,-0.3828 -0.0122,0.0525 -0.1016,0.1876 -0.1355,0.2391 -0.0278,0.0422 -0.0448,0.073 -0.0707,0.1166l-0.3556 0.5808c0.0122,0.0139 -0.0008,-0.003 0.0196,0.0236l0.0834 0.1183c0.0651,0.0876 0.2571,0.3408 0.2571,0.4344 0,0.251 -0.0521,0.4942 -0.1202,0.7298 -0.0736,0.2542 -0.0946,0.2301 -0.4272,0.3076 0.0076,0.0328 0.0111,0.0332 0.0144,0.072 0.0995,0.0022 0.3028,0.0907 0.3688,0.1355 0.2379,0.1615 0.3949,0.8128 0.3949,1.1035 0,0.1532 -0.1728,0.3937 -0.317,0.4322 0,0.1151 -0.0066,0.1946 -0.0144,0.2881 0.1153,0.0269 0.3421,0.1655 0.3792,0.2691 0.0788,0.2201 -0.0339,0.5966 -0.1295,0.8017l-0.3071 0.6582c-0.0683,0.153 -0.1368,0.3035 -0.1875,0.4608 -0.0892,0.2771 -0.3499,0.5858 -0.6396,0.6571 -0.162,0.0398 -0.3673,0.1065 -0.5274,0.1065 -0.0363,0.156 -0.069,0.3161 -0.102,0.4742 -0.0948,0.4539 -0.2148,0.9226 -0.3273,1.3728 -0.2146,0.8596 -0.507,1.6938 -0.9599,2.4547 -0.1452,0.2439 -0.2735,0.4793 -0.4384,0.6997 -0.1223,0.1635 -0.2578,0.3198 -0.4021,0.4624 -0.0972,0.0961 -0.6214,0.6789 -0.7095,0.7025 0,0.1289 0.0599,0.5199 0.0803,0.6689 0.0497,0.3632 0.0809,0.7785 0.0051,1.1454 -0.0075,0.0365 -0.0305,0.1033 -0.0331,0.1377 -0.0069,0.0909 0.2502,0.3014 0.2502,0.5549 0,0.3307 -0.0777,0.6405 -0.2064,0.9174 -0.0573,0.1233 -0.0541,0.1257 -0.1651,0.195 -0.0724,0.0452 -0.1709,0.0891 -0.2477,0.1269 -0.0778,0.0383 -0.1639,0.074 -0.2513,0.1089 -0.0928,0.037 -0.1658,0.0661 -0.2572,0.103 -0.0503,0.0203 -0.087,0.0318 -0.1384,0.049 -0.1445,0.0484 -0.2923,0.0805 -0.4627,0.0847l-0.3374 0.0228c-0.1182,0.0179 -0.559,0.0198 -0.7004,0.02l-1.4114 0.0293c-0.9568,0 -2.0016,0.0381 -2.9331,-0.0925 -0.5276,-0.074 -0.5953,-0.0903 -1.0059,-0.3628 -0.1444,-0.0959 -0.2644,-0.1869 -0.4038,-0.2878 -0.2628,-0.19 -0.5351,-0.3769 -0.7819,-0.5867 -0.0347,-0.0295 -0.061,-0.05 -0.0941,-0.0789l-0.9729 -0.9001c-0.3459,-0.3459 -0.7076,-0.6783 -0.945,-1.1152 -0.1651,-0.3037 -0.314,-0.6002 -0.4437,-0.925 -0.0436,-0.1091 -0.1708,-0.3929 -0.1708,-0.5064 0,-0.1866 0.1417,-0.6513 0.2279,-0.7661 0.129,-0.1716 0.2237,-0.0744 0.2569,-0.2185 0.034,-0.1474 0.0696,-0.215 0.1921,-0.2689 0.2263,-0.0995 0.8559,-0.2457 1.1037,-0.3083 0.3666,-0.0926 0.4094,-0.0705 0.7706,0.0046 0.1254,0.0261 0.2389,0.0614 0.3602,0.0865 0.1269,0.0262 0.23,0.0593 0.3561,0.0904 0.2843,0.0702 0.4907,0.2401 0.7229,0.401 0.0688,0.0477 0.7104,0.2652 0.8072,0.2878 0.2424,-0.1624 0.3331,-0.4201 0.8211,-0.1728 0.2673,0.1354 0.3031,0.0696 0.5939,-0.0113 0.0824,-0.0229 0.219,-0.0579 0.285,-0.0896 -0.0219,-0.0456 -0.0433,-0.1599 -0.0433,-0.2305 0,-0.4091 0.0132,-0.3788 0.27,-0.6378 0.1073,-0.1082 0.2536,-0.2007 0.3784,-0.2843 -0.0019,-0.0842 -0.0543,-0.2404 -0.0751,-0.3284 -0.0806,-0.3422 -0.1103,-0.9896 0.089,-1.2714 0.0854,-0.1207 0.2762,-0.1675 0.4344,-0.2139 0.1626,-0.0478 0.3684,-0.0986 0.5353,-0.1274 0.1367,-0.0237 0.4423,-0.0616 0.5868,-0.0616 0.0127,-0.1522 0.098,-0.2033 -0.2017,-0.2017 -0.188,0.001 -0.2572,-0.0083 -0.3843,-0.0767 -0.165,-0.0887 -0.3937,-0.2869 -0.3937,-0.5284 0,-0.3013 0.1929,-0.5646 0.2594,-0.85 -0.0905,-0.0606 -0.1925,-0.1163 -0.2875,-0.1735 -0.3904,-0.2353 -1.0055,-0.6294 -1.3008,-0.9612 -0.4089,-0.4593 -0.2392,-1.2692 0.0695,-1.7241 0.0724,-0.1067 0.158,-0.1965 0.2552,-0.2778 0.0268,-0.0224 0.0298,-0.02 0.0569,-0.044l0.5748 -0.4625c0.4009,-0.3026 0.8264,-0.5721 1.2577,-0.8314l0.5241 -0.3116c0.1248,-0.075 0.4494,-0.1985 0.4494,-0.3718 0,-0.1592 -0.0414,-0.3542 -0.0777,-0.4986 -0.0361,-0.1435 -0.071,-0.2818 -0.1067,-0.412 -0.0608,-0.2218 -0.1705,-0.6246 -0.1903,-0.8615 -0.0901,0.0477 -0.1957,0.204 -0.27,0.2774 -0.0494,0.0488 -0.0881,0.0876 -0.1369,0.1369 -0.0506,0.051 -0.0894,0.0749 -0.1371,0.1222l-0.2803 0.2528c-0.0963,0.084 -0.1895,0.1616 -0.293,0.2401 -0.7311,0.5546 -1.6462,0.9666 -2.5328,1.2275l-0.4073 0.1258c-0.0698,0.0269 -0.0706,0.1173 -0.0939,0.1799 -0.0676,0.182 -0.1591,0.3816 -0.2736,0.5332 -0.0877,0.1161 -0.1432,0.182 -0.29,0.243 -0.227,0.0945 -0.5838,0.1247 -0.8304,0.0456 -0.1127,-0.0362 -0.1378,-0.0588 -0.2176,-0.1282 -0.0621,0.0416 -0.1233,0.0864 -0.2161,0.0864 -0.2348,0 -0.3745,-0.0972 -0.4755,-0.2881 -0.3728,0.1973 -0.6086,0.2413 -1.0509,0.3034 -0.56,0.0786 -1.5996,0.2149 -2.1525,-0.0535 -0.2752,-0.1336 -0.54,-0.2388 -0.7796,-0.4163 -0.0644,-0.0477 -0.0683,-0.0514 -0.0991,-0.1315 -0.0694,-0.1812 -0.1024,-0.3925 -0.133,-0.5874 -0.0296,-0.1886 -0.1649,-0.3229 -0.1649,-0.5267l0.0148 -0.7633c0.0037,-0.075 0.0573,-0.2083 0.0573,-0.2165 0,-0.0684 -0.0681,-0.0859 -0.0864,-0.3723l0 -0.3374c0.0062,-0.1354 0.0193,-0.3001 0.0419,-0.5019 0.0256,-0.2276 0.1424,-0.3637 0.293,-0.5138 0.1081,-0.1077 0.1166,-0.112 0.158,-0.2598 0.082,-0.293 0.1755,-0.6364 0.3086,-0.9017 0.0521,-0.1038 0.1219,-0.147 0.2212,-0.1966 0.2727,-0.1363 0.5704,-0.2445 0.8562,-0.354 0.3537,-0.1355 0.7133,-0.2528 1.0859,-0.3404 0.0466,-0.011 0.1183,-0.0195 0.1615,-0.0402 -0.0015,-0.0652 -0.0144,-0.0573 -0.0144,-0.1297 0,-0.6247 -0.0393,-1.1747 0.2765,-1.6974l0.2047 -0.3283c0.0738,-0.1069 0.1521,-0.2129 0.2424,-0.3051 0.0476,-0.0485 0.0909,-0.0846 0.1467,-0.1271 0.2511,-0.1915 0.8066,-0.1288 1.0797,0.0035 0.1526,0.0739 0.2108,0.108 0.2596,0.2878 0.0329,0.121 0.0532,0.3336 0.0524,0.4807l0.0105 0.5147c-0.0095,0.067 -0.0167,0.1748 -0.025,0.249 -0.0256,0.2302 -0.0724,0.4645 -0.1111,0.6958 -0.06,0.3589 -0.0565,0.6419 -0.0928,0.9733 -0.0682,0.6231 -0.0384,0.6948 0.1551,1.2754 0.0558,0.1672 0.0979,0.3391 0.1062,0.5134 0.0035,0.0749 0.0132,0.1314 0.0145,0.1872 0.18,-0.0952 0.4222,-0.036 0.5331,0.1297 0.0536,-0.0257 0.1502,-0.0432 0.2306,-0.0432 0.3896,0 0.6524,0.2133 0.7436,0.5819 0.0258,0.104 0.0542,0.2604 0.0632,0.3691 0.0287,-0.0138 0.1362,-0.0342 0.1741,-0.042 0.3969,-0.0825 0.8032,-0.1979 1.168,-0.3447 0.4078,-0.1642 1.0788,-0.6032 1.4349,-0.9424l0.3411 -0.3072c0.182,-0.1405 0.4929,-0.4849 0.6378,-0.6589 0.0611,-0.0733 0.1897,-0.1489 0.2213,-0.2108 0.0302,-0.0591 0.1235,-0.2237 0.1289,-0.289 -0.0459,-0.0106 -0.0771,-0.029 -0.1296,-0.0433 -0.5418,-0.1476 -1.3082,-0.5303 -1.7393,-0.8541 -0.2119,-0.1591 -0.2454,-0.2103 -0.3766,-0.315 -0.3407,-0.272 -0.7351,-0.8014 -0.8894,-1.1709 -0.0743,-0.1779 -0.1987,-0.5055 -0.0966,-0.6908 0.0326,-0.0592 0.0377,-0.0377 0.0136,-0.118 -0.1551,-0.5158 -0.2267,-0.908 -0.2698,-1.4605 -0.0321,-0.4117 -0.0332,-0.1517 -0.1762,-0.5154 -0.1257,-0.3197 -0.3127,-1.3903 -0.3127,-1.7477 0,-0.2488 -0.0014,-0.249 0.1378,-0.4817 0.1562,-0.2609 0.1662,-0.1379 0.1059,-0.4392 -0.2245,-1.1224 -0.3068,-2.1208 -0.1161,-3.2737 0.0423,-0.2557 0.2031,-0.9057 0.4487,-0.9057l0.0432 0c0.3335,0 0.9545,0.9395 1.2498,1.2571l0.1787 0.1959c0.0988,0.1238 0.422,0.4574 0.5598,0.5496l0.5009 -0.4068c0.0592,-0.049 0.1137,-0.0827 0.1742,-0.1284 0.6472,-0.4891 1.3704,-0.8927 2.1159,-1.2122 0.6531,-0.2799 1.3398,-0.4919 2.0822,-0.6408 0.6778,-0.136 1.3414,-0.2098 1.9959,-0.2197l0.3085 0c1.096,0.0172 2.1682,0.2157 3.2408,0.6033zm-8.3006 19.0774c-0.0705,-0.0472 -0.1627,-0.2737 -0.3602,-0.2737 -0.2159,0 -0.6443,0.0282 -0.7895,0.1758 -0.0805,0.0818 -0.2595,0.4016 -0.3199,0.5157 -0.0641,-0.015 -0.0997,-0.0461 -0.154,-0.0765 -0.1024,-0.0573 -0.4079,-0.2008 -0.4079,-0.327 0,-0.2375 0.2382,-0.3676 0.4433,-0.5364 0.1627,-0.1338 0.4845,-0.358 0.6778,-0.4892 0.0495,-0.0336 0.084,-0.0612 0.1353,-0.0953 0.0982,-0.0651 0.1897,-0.1264 0.2853,-0.1901 0.0472,-0.0315 0.0864,-0.0597 0.1395,-0.091 0.055,-0.0325 0.0867,-0.0573 0.1403,-0.0902 0.2009,-0.1231 0.3824,-0.2191 0.5669,-0.0172 0.0333,0.0365 0.133,0.1588 0.133,0.2128 0,0.2157 -0.4567,1.14 -0.4899,1.2823zm9.9404 -16.3094c-0.6052,0.1338 -0.2583,0.1343 -0.8206,0.0152 -1.6988,-0.3601 -2.1335,0.3538 -2.6414,0.4916 -0.0544,0.0026 -0.0581,0.0072 -0.0852,0.0265 0.7031,0.1734 2.3659,0.9455 3.2897,1.8721 1.6465,1.6515 2.2602,3.4024 2.4,5.6776 0.04,0.6531 0.0523,1.375 -0.0043,2.0238 -0.0471,0.0015 -0.4665,-0.5527 -0.5783,-0.6872 -0.5272,-0.6343 -0.9185,-1.078 -1.5476,-1.593 -0.0446,-0.0358 -0.0976,-0.0657 -0.1342,-0.1171 -0.2429,-0.4549 -0.6331,-1.5268 -1.1614,-1.9009 -0.7664,-0.5427 -1.9542,-0.7102 -2.3322,-0.8736 0.0004,-0.0009 1.4035,1.2791 2.0675,2.6653 0.5568,1.1625 0.6932,2.8684 0.5581,4.3802 -0.0608,0.6803 -0.2545,1.9475 -0.5487,2.5555 -0.6862,-1.8347 -1.9218,-3.1674 -2.2144,-3.6004 0.7707,-2.0758 -2.6731,-1.9608 -2.9696,-2.334 -0.0916,-0.1152 1.1289,-0.8169 1.3741,-1.5211 -0.1805,0.2317 -0.7731,0.9855 -1.0135,0.9538 -0.0226,-0.102 0.2216,-0.5834 0.0021,-0.8588 -0.2662,-0.2278 -0.4667,-0.1032 -0.7206,-0.138 -0.0277,-0.2333 0.6311,-0.6731 0.8556,-1.6789 0.0796,-0.3567 0.1117,-0.9074 -0.0586,-1.3086 -0.243,-0.5723 -0.6102,-0.6763 -1.2392,-0.4257 -0.9177,0.3654 -1.9015,1.3695 -2.3022,1.6482 -0.4884,0.3397 -1.2017,1.3919 -1.8605,1.0403 -0.4994,-0.2665 -0.0563,-1.7243 -0.0782,-1.7952 -0.0786,0.0908 -0.3463,0.8406 -0.248,1.2733 0.036,0.2254 -0.0073,0.2766 -0.072,0.2534 -0.0779,-0.0279 -0.2706,-0.2712 -0.3329,-0.3621 -0.1386,-0.2017 -0.355,-0.6173 -0.3977,-0.7225 -0.1786,-0.4396 -0.3778,-1.1295 -0.4298,-1.3258 -0.0627,-0.2368 -0.2368,-1.8742 -0.817,-1.1693 0.1399,0.0016 0.2043,-0.0172 0.3212,0.0347 0.0121,0.102 -0.3316,1.3467 -0.3461,1.3608 -0.2356,-0.0137 -0.4582,-1.4836 -0.2762,-1.7626 0.2113,-0.3238 0.6151,-1.0311 0.9718,-0.8076 0.4329,0.2712 0.3758,0.9343 0.4899,1.2838 0.0493,-0.4089 -0.07,-1.0008 -0.2613,-1.3179l-0.1093 -0.1462c-0.0291,-0.0674 0.7247,-1.0861 0.8338,-1.1317 0.017,-0.0439 0.1648,-0.2004 0.3047,-0.3406 -0.6699,0.4014 -0.7324,0.6444 -1.2798,1.4051 -0.406,0.0263 -0.224,-0.0522 -0.5178,0.2139 -0.2324,0.2104 -0.3225,0.2007 -0.3924,-0.412 -0.0908,-0.795 -0.2235,-2.1985 0.0745,-3.0053 0.2898,-0.7845 1.0688,0.6039 1.4542,0.9288l0.4348 0.4963c0.0382,0.0455 0.2602,0.192 0.3342,0.2669 1.6939,-1.468 3.2263,-2.2035 5.4288,-2.5513 2.3372,-0.3692 4.4752,0.0801 6.6037,1.3572 0.1243,0.0745 1.7989,1.1576 1.8425,1.3667 -0.6068,0.1256 -1.2273,0.1587 -1.8499,0.2964zm-7.1333 9.8041l0.6272 0.2048 0.7297 0.2054c0.254,0.0405 0.356,0.3827 0.3765,0.6096 0.0192,0.0959 -0.1139,0.2755 -0.174,0.3574 -0.1495,0.2034 -0.1844,0.1228 -0.4392,0.0773 -0.1063,-0.019 -0.2751,0.0151 -0.3864,0.0259 0.0243,-0.2332 0.0928,-0.6485 0.0651,-0.8721l-0.1084 -0.2547c0.0494,0.3243 -0.0291,1.0644 -0.0935,1.1561 -0.1283,0.0207 -0.4613,0.0899 -0.549,0.1751 -0.1598,0.2628 -0.0934,0.6879 -0.0356,0.9696 -0.3179,0.1287 -0.3686,0.2284 -0.4459,0.5047 -0.1071,0.3825 -0.0549,0.311 0.0636,0.508 -0.1754,0.1129 -0.3763,0.1925 -0.3455,0.502 0.0273,0.274 0.024,0.056 -0.1217,0.4017 -0.0733,0.1741 -0.1289,0.369 -0.1846,0.5517 -0.1206,0.3955 -0.273,0.7926 -0.2342,1.2079 0.0004,0.1354 0.0403,0.3213 -0.0015,0.4407 -0.0808,0.2315 -0.2395,0.5088 -0.3398,0.7425 -0.5637,1.3138 -0.8473,2.445 -1.0852,3.8434 -0.0239,0.1405 -0.0247,0.2837 -0.0891,0.3266 -0.3962,0.2635 -1.3879,0.0957 -1.5149,-0.2556 -0.0562,-0.1555 0.054,-0.557 0.1036,-0.7366 0.1295,-0.4679 0.435,-1.3482 0.5047,-1.5415 0.2128,-0.5906 0.4285,-1.1482 0.6709,-1.7061 0.1927,-0.4434 0.7385,-1.6608 0.8626,-2.1051 0.0641,-0.2294 0.0594,-0.2735 -0.0606,-0.4435 -0.0682,-0.0966 -0.4989,-0.4611 -0.6403,-0.5301 0.0145,0.0539 0.1157,0.1574 0.1497,0.2386 -0.0297,0.0274 -0.1734,0.0854 -0.2257,0.116 -0.2464,0.144 -1.1709,0.8072 -1.3933,0.9698 -0.2291,0.1675 -1.1633,0.7291 -0.6173,1.0823 0.131,0.0847 0.9948,0.5959 1.0011,0.6079 0.0464,0.1525 -0.292,1.0417 -0.4326,1.1664 -0.1879,0.1679 -0.4737,-0.0036 -0.6514,-0.107 -0.3916,-0.2278 -0.8133,-0.4941 -1.162,-0.7825 -0.1732,-0.1432 -0.3856,-0.2796 -0.4557,-0.5712 -0.1077,-0.5709 0.1851,-1.1855 0.6099,-1.505 0.5654,-0.4254 1.1082,-0.8373 1.7223,-1.1966 0.3847,-0.2251 0.9297,-0.5431 0.9829,-0.6075 0.2467,-0.2996 -0.0455,-0.5736 -0.0055,-0.8716 0.0864,0.0004 0.0873,0.0716 0.1241,0.1497 0.2785,0.5262 0.6298,0.8244 0.9307,0.9676 0.2072,0.0759 0.4262,0.0239 0.6026,-0.0639 0.5774,-0.2875 0.8662,-1.3114 1.02,-1.9334 0.1878,-0.7599 0.2406,-1.8859 -0.2011,-2.5649 -0.0282,-0.0434 -0.0715,-0.0949 -0.088,-0.1327 0.6791,-0.187 0.3971,-0.1531 0.4732,0.1939 0.0504,0.2294 0.2388,0.3963 0.4618,0.4791zm2.1814 -10.8811l0.02 0.0742c-0.9624,0.3018 -1.2665,0.4725 -2.0457,1.0844 -0.0712,0.0558 -0.1974,0.1546 -0.1953,0.2521 0.353,0.3153 0.598,0.1368 1.4128,1.2202 0.1184,0.1749 0.2513,0.4695 0.4242,0.1262 0.0518,-0.1028 0.8584,-2.5676 0.6519,-2.7541 -0.107,-0.0696 -0.1786,-0.1068 -0.3469,-0.0899 0.0368,0.0641 0.0438,0.013 0.0788,0.0871zm0.4871 2.7135c0.9039,-2.2135 1.874,-2.4592 0.588,-2.3618 0.1404,-0.5187 0.341,-1.2746 -0.4166,-1.2374 -1.3023,0.064 -3.9781,1.8672 -3.702,2.0348 0.1181,0.0717 0.486,-0.4563 0.8596,-0.6475 0.1664,-0.0852 0.5026,-0.3476 0.8972,-0.5513 0.3121,-0.2219 1.6995,-0.7389 2.1157,-0.669 0.9887,0.1662 -1.306,4.0093 -0.5883,4.2155 0.0412,-0.3137 0.12,-0.4737 0.2463,-0.7833zm-3.6549 1.3438c0.1723,-0.123 0.7118,-0.3539 0.929,-0.4177 0.8442,-0.2481 1.337,0.4976 1.6197,0.6394 -0.0911,-0.2112 -0.6589,-0.7259 -1.0242,-0.8262 -0.8644,-0.2374 -3.1255,1.4906 -3.5283,1.9599 0.1628,-0.0859 1.5593,-1.1907 2.0038,-1.3554zm-10.6722 20.0222c0.5645,-0.1481 1.3503,-0.0345 1.8156,0.0841 0.3104,0.0792 0.4246,0.2156 0.6067,0.3724 0.1321,0.1137 0.8891,0.9117 0.9994,0.958 -0.0632,-0.1841 -0.7106,-0.7104 -0.688,-0.8693 0.1297,-0.014 0.9478,0.3371 1.1096,0.4065 0.3424,0.1469 0.7124,0.3853 0.8521,0.6607 0.1542,0.304 0.2922,0.7605 0.4026,1.1107 0.1124,0.3563 0.1188,0.323 -0.0941,0.5101 -0.1545,0.1358 -0.1986,0.2399 -0.2027,0.5337l0.0434 1.2426c0.0276,0.0789 0.1221,0.0471 0.129,0.1428 -0.1233,0.1061 -0.6787,0.0167 -0.871,-0.0103 -1.1557,-0.1624 -2.1054,-0.8812 -2.7241,-1.8405 -0.4281,-0.6639 -0.7957,-1.3439 -1.2046,-1.9937 -0.1961,-0.3116 -0.4381,-0.6607 -0.7844,-0.7994 0.0553,-0.299 0.3415,-0.4376 0.6108,-0.5084zm11.6232 -1.8264c0.1528,0.0319 0.1957,0.0641 0.2787,-0.0584 0.1144,-0.1688 0.3832,-1.3023 0.4578,-1.5875 0.2119,-0.8108 0.1136,-0.6837 -0.1753,-0.6683 -0.2981,0.0137 -0.3683,0.0633 -0.5946,-0.0899 -0.158,-0.1069 -0.4412,-0.3341 -0.5843,-0.4671 -0.2962,-0.2752 -0.3363,-0.246 -0.4233,-0.6589 -0.0367,-0.1779 -0.0024,-0.2396 -0.1793,-0.2797 -0.1891,-0.0429 -0.1997,0.0138 -0.2557,0.1604 -0.0218,0.1885 0.0445,0.3455 0.0788,0.5199 0.0498,0.2539 0.0262,0.2858 -0.0546,0.5058 -0.092,0.296 -0.4665,0.9464 -0.65,1.2508 -0.0529,0.0877 -0.124,0.1542 -0.0417,0.2724 0.1181,0.1694 0.2544,0.2191 0.4408,0.3408 0.6014,0.396 1.0082,0.6165 1.7027,0.7597zm-3.7929 3.9914l0.1551 0.7102c0.0354,0.1846 0.0601,0.0762 0.2457,0.273 0.1333,0.1414 0.2105,0.175 0.2452,0.455 0.0292,0.2858 -0.0213,1.0404 -0.0447,1.3928 0.4352,-0.0593 0.7638,-0.0597 1.1302,-0.3028 0.5613,-0.3723 0.6435,-0.8909 0.613,-1.5746 -0.0252,-0.5645 -0.1069,-1.1803 -0.4288,-1.6597 0.0991,-0.0834 0.2414,-0.24 0.3368,-0.3213 0.1788,-0.1521 0.3866,-0.3545 0.5292,-0.5372 0.4364,-0.5595 0.3074,-0.3825 -0.3888,-0.6549 -0.0952,-0.0422 -0.2576,-0.1927 -0.329,-0.1792 0.0599,0.5963 0.2185,0.6688 -0.0712,1.025 -0.0984,0.121 -0.2412,0.1627 -0.1226,0.3081 0.0388,0.0675 0.0086,0.1775 -0.0217,0.2672 -0.1203,-0.15 -0.2391,-0.2091 -0.4632,-0.2053 -0.1943,0.0033 -0.4963,0.0646 -0.7028,0.0831l-1.0298 0.0923c0.1188,0.2482 0.2762,0.5689 0.3474,0.8285zm-7.2434 0.0986c0.4459,0.7414 1.0591,1.7219 1.3268,1.9434 0.3263,0.2699 1.5079,0.9623 1.8532,1.0284 0.4895,0.0937 1.0515,0.0269 1.6799,0.107 0.5096,0.0649 1.204,0.0117 1.7327,-0.0026 0.3469,-0.0093 0.9713,0.0376 1.1816,-0.1616 0.1234,-0.1169 0.6928,-0.1379 0.89,-0.176 0.3722,-0.0868 0.816,-0.4617 0.9342,-0.833 0.2029,0.078 0.2384,0.934 -0.2275,1.2368 -0.4597,0.2988 -0.8054,0.3958 -1.2805,0.41 -1.2334,0.0479 -4.2042,0.1948 -5.394,-0.0686 -0.4789,-0.106 -1.3535,-0.75 -1.7655,-1.1014 -0.7532,-0.6425 -1.4442,-2.1833 -2.0891,-3.1277 0.3081,0.5941 1.4333,2.4656 1.4457,2.5557 -0.1872,-0.0377 -0.708,-0.6313 -0.8986,-0.8398 -0.3328,-0.3639 -0.4235,-0.5506 -0.6348,-0.9728 -0.091,-0.1284 -0.3341,-0.7049 -0.2433,-0.8841 0.0951,-0.0178 0.1684,-0.0356 0.2237,-0.0111 -0.01,-0.0137 -0.02,-0.0271 -0.0299,-0.0404 -0.1376,-0.1836 -0.2527,-0.3347 -0.3317,-0.0425 -0.0505,-0.197 0.0774,-0.7063 0.3345,-0.6085 0.6655,0.2532 0.94,1.0023 1.2929,1.5889zm5.7142 -19.3455c0.0244,-0.0125 0.0213,0.0189 0.0354,-0.0471 0.015,-0.0702 -0.0148,-0.1422 -0.0746,-0.1823 -0.0096,0.0822 -0.0132,0.1717 0.0393,0.2294zm3.9765 0.4209c0.0833,-0.0409 0.0861,-0.2057 0.0288,-0.2734 -0.0634,0.0031 -0.0777,0.0451 -0.0852,0.114 -0.0084,0.0774 -0.003,0.1349 0.0564,0.1594zm-2.8774 20.733c-0.0369,-0.1647 -0.2261,-0.1276 -0.422,-0.1277 -0.866,-0.0003 -0.8071,-0.0677 -0.8128,0.2835 -0.0033,0.198 -0.0387,0.3477 0.1819,0.3671 0.2538,-0.007 0.5465,0.0263 0.7925,-0.0021 0.1289,-0.0148 0.2412,-0.0345 0.2567,-0.1492 0.0117,-0.0859 0.0151,-0.2936 0.0036,-0.3717zm-1.7304 -20.943c-0.1175,0.0708 0.3395,0.4926 0.3657,0.5167 0.036,0.0332 0.2775,0.2118 0.3697,0.1541 0.1237,-0.0774 -0.6217,-0.7394 -0.7354,-0.6708zm1.0012 0.0914c0.0497,0.0279 0.0523,0.0486 0.098,0.0807 0.0631,0.0443 0.0658,0.0177 0.1326,0.0295 0.0383,0.0068 0.501,0.4589 1.1348,-0.0885 0.6959,-0.6136 2.408,-2.2549 3.2445,-2.4758 0.3406,-0.09 0.8045,-0.0473 0.9959,0.1679 0.4421,0.4968 0.2525,1.4247 0.0008,1.9682 -0.196,0.4231 -0.641,1.11 -1.0746,1.3741 -2.0542,1.2512 -2.9736,-0.592 -4.5369,-0.6837l0.0049 -0.3724zm-1.7954 -2.4969c0.0145,-0.2032 0.129,-0.8158 0.2423,-0.8992 0.1496,-0.0451 0.2617,0.5636 0.2872,0.6634 0.1277,0.4989 0.2656,0.9539 0.476,1.4254 0.0288,0.0645 0.1403,0.2796 0.1456,0.3296l0 0.4657c0.0057,0.1976 0.0723,0.3584 0.0859,0.5265 -0.098,-0.0545 -0.355,-0.3507 -0.5019,-0.3336 -0.0946,0.011 -0.1792,0.1191 -0.2005,0.2226 -0.0316,0.1536 0.0421,0.235 0.0393,0.3571 -0.0747,0.0061 -0.0996,-0.035 -0.1351,-0.0796 -0.0799,-0.1 -0.178,-0.3042 -0.2263,-0.4222 -0.2495,-0.6105 -0.2927,-1.6145 -0.2126,-2.2557zm-3.0967 8.097c-0.1869,0.2042 -0.0487,0.7019 0.0082,0.9598 0.1005,0.456 0.0733,0.5302 -0.0902,0.925 -0.1145,0.2765 -0.3374,0.7245 -0.5847,0.8413 -0.5692,0.2689 -2.3017,0.3953 -2.7213,0.2046 -0.2554,-0.1161 -0.552,-0.2305 -0.7583,-0.3799 -0.2964,-0.2146 -0.2163,-0.69 -0.2196,-0.946 -0.0584,-0.0321 -0.041,0.0039 -0.0878,0.0438 -0.1068,-0.1123 -0.1291,-0.5523 -0.1247,-0.736 0.0069,-0.2879 0.1745,-0.5655 0.1696,-0.7333 -0.0378,0.0128 -0.1057,0.0541 -0.1306,0.0282 -0.0682,-0.0711 -0.0638,-0.4393 -0.0607,-0.5046 0.0261,-0.5517 0.0483,-0.614 0.3695,-0.9585 0.0583,-0.0625 0.2988,-0.2694 0.322,-0.3199 -0.1792,-0.0085 -0.0564,0.0321 -0.1478,0.0027 -0.0225,-0.1568 0.1572,-0.5895 0.2226,-0.7121 0.1269,-0.2376 0.2794,-0.2815 0.5558,-0.3951 0.6212,-0.2552 1.6513,-0.6698 2.3034,-0.4479 0.1683,0.0573 0.4784,0.2753 0.5645,0.3867 0.107,0.1383 0.258,0.4474 0.2827,0.6668 0.0636,0.5637 -0.0233,0.5047 -0.1755,0.7387 -0.0472,-0.0196 -0.0829,-0.0575 -0.1084,-0.0998l-0.3099 -0.2224c-0.0642,-0.0053 -0.1419,-0.0516 -0.1694,-0.0945 0.0282,-0.06 0.0424,-0.0204 0.0667,-0.0864 -0.1324,-0.1588 -0.9103,-0.0622 -1.1471,-0.0259 -0.1883,0.0289 -0.362,0.0756 -0.5479,0.1002 -0.3204,0.0424 -0.3241,-0.1427 -0.4782,-0.1291 -0.0702,0.1095 0.0038,0.2074 0.0852,0.26l1.1235 -0.136c0.4791,-0.028 0.6903,0.0031 1.0216,0.2205 0.169,0.1109 0.2243,0.133 0.3394,0.2943 0.2429,0.3406 0.2223,0.603 0.1587,1.0106 -0.018,0.1155 -0.1452,0.2986 -0.327,0.2942 -0.1124,-0.0239 -0.242,-0.0683 -0.2802,-0.1544 -0.0466,-0.0125 -0.3114,-0.2388 -0.4123,-0.3036 -0.2514,-0.1616 -0.9892,-0.0922 -1.2955,-0.0664 -0.5467,0.0461 -0.4243,-0.064 -0.5878,-0.0807 -0.0237,0.0816 0.0278,0.1664 0.0754,0.2116 0.0654,0.0621 0.1612,0.0249 0.2633,0.0115 0.3186,-0.0417 0.885,-0.0662 1.2025,-0.0365 0.2265,0.0211 0.3157,0.0761 0.4534,0.1807 0.2934,0.2229 0.4402,0.3272 0.5675,0.7002 0.0468,0.137 -0.0202,0.404 -0.0473,0.5525 -0.0275,0.1503 -0.0286,0.25 -0.139,0.3359 -0.1615,0.1255 -0.1293,-0.0603 -0.2958,-0.1759 -0.3524,-0.2446 -0.3994,-0.2949 -0.7974,-0.2849 -0.1668,0.0041 -0.937,0.0604 -1.0561,0.0199 -0.0853,-0.029 -0.1537,-0.1225 -0.2569,-0.0803 -0.0904,0.0709 0.0375,0.1866 0.0807,0.2138 0.0824,0.0519 0.2136,0.0136 0.3215,0.0017 0.3006,-0.033 1.1059,-0.1206 1.3448,0.018 0.1241,0.072 0.3568,0.1942 0.3996,0.3207 0.0548,0.162 0.1,0.4691 0.0492,0.6357 -0.144,0.4718 -0.8546,0.8096 -1.1438,0.6315 -0.0628,-0.0387 -0.1462,-0.1153 -0.1324,-0.2087 0.1787,-0.0569 0.6257,-0.0289 0.6525,-0.2256 -0.1082,-0.0116 -0.2189,0.0549 -0.3318,0.0714l-0.7485 0.0518c-0.1004,0.0028 -0.4447,-0.0983 -0.3782,0.0816 0.0332,0.0899 0.1619,0.0457 0.2794,0.043l-0.0807 0.2756c0.1095,-0.0285 0.0936,-0.1073 0.1729,-0.1577 0.017,-0.1319 0.1181,-0.1143 0.2532,-0.1233 0.0369,0.1496 0.1636,0.2645 0.3086,0.3129 0.1527,0.051 0.4884,-0.0439 0.6453,-0.0886 0.3899,-0.111 0.409,-0.1575 0.5661,-0.5437 0.1259,-0.3094 0.0778,-0.2594 0.0605,-0.5846 0.289,-0.0853 0.3161,-0.3163 0.3715,-0.5676 0.0841,-0.3812 0.0516,-0.4301 0.0092,-0.8043 0.2696,-0.1916 0.3368,-0.1424 0.3753,-0.588 0.0293,-0.3384 0.0357,-0.5662 -0.0689,-0.8684 0.1832,-0.1953 0.2474,-0.21 0.2356,-0.6601 -0.0082,-0.5515 -0.235,-0.9994 -0.7104,-1.2725 -0.2463,-0.1415 -0.3683,-0.1246 -0.781,-0.1862 -0.0349,-0.8931 -0.0369,-1.6372 0.6647,-2.2938 0.3636,-0.3404 0.989,-0.128 1.0826,0.0421 0.1435,0.2605 0.085,1.0148 0.0365,1.3208 -0.0948,0.5974 -0.1539,1.4166 -0.1894,2.0448 -0.0285,0.5054 0.4201,1.0058 0.2779,1.9488 0.0746,-0.1355 0.1882,-0.2621 0.2402,-0.3253 0.2269,-0.3107 0.4599,0.2191 0.5184,0.4095 0.1577,0.5129 -0.0236,0.7392 -0.0257,0.935 0.1317,-0.0055 0.1994,-0.1718 0.1962,-0.3272 -0.017,-0.2227 -0.0725,-0.4048 -0.0983,-0.609 -0.1764,-0.3851 0.2476,-0.3289 0.4193,-0.2745 0.1863,0.059 0.2657,0.3133 0.3005,0.5345 0.0821,0.523 0.0811,1.012 -0.0334,1.5201 -0.0834,0.3697 -0.2873,0.9587 -0.4801,1.1916 -0.1138,0.1374 -0.3915,0.2094 -0.6383,0.1967 -0.3999,-0.0205 -0.4128,-0.2668 -0.3016,-0.4022 0.0341,-0.118 0.1172,-0.2486 0.1751,-0.3574 0.0612,-0.1152 0.0967,-0.2534 0.2599,-0.2454 0.1039,0.1159 0.0823,0.2162 0.1369,0.3572l0.0043 -0.2229c-0.0101,-0.1362 -0.056,-0.4005 -0.1589,-0.458 -0.1585,-0.0202 -0.3133,0.8492 -0.7156,1.1154 -0.182,0.1368 -0.506,0.0443 -0.4582,-0.2098 0.0472,-0.2512 0.4754,-0.7006 0.5024,-1.3912 0.0125,-0.3195 -0.0198,-0.3374 0.0867,-0.6279 0.044,-0.1201 0.0119,-0.2898 0.0002,-0.4465 -0.0384,0.1624 -0.1458,0.6467 -0.3001,0.6602 -0.0891,-0.2247 0.0192,-0.5342 -0.0502,-0.744zm11.0725 -0.3401c-0.054,0.1952 -0.2713,0.041 -0.4474,0.1525 -0.3219,0.2039 0.4517,1.1116 1.1748,1.2798 0.1728,0.0385 0.4303,0.0662 0.572,-0.0225 0.2142,-0.1342 -0.1576,-0.3559 -0.0027,-0.4667 0.0654,-0.0823 0.0819,-0.0541 0.2227,0.1218 0.0641,0.0801 0.1394,0.1708 0.1844,0.2625 0.0753,0.1534 -0.1123,0.5749 -0.1869,0.6742 -0.1583,0.2108 -1.2617,0.0543 -1.496,0.2853 0.0079,0.1927 0.4326,0.2434 0.6043,0.2763 -0.0978,-0.0604 -0.3228,-0.098 -0.3455,-0.2147 0.025,-0.181 0.7322,-0.1226 0.8948,-0.1305 0.0214,0.2178 0.0666,0.4602 -0.01,0.6127 0.1194,-0.0788 0.2211,-0.0005 0.183,-0.2536 0.2573,0.0533 0.3552,0.1921 0.4196,0.4399 0.211,0.4789 0.147,0.7167 0.0564,0.7829 -0.0176,0.0129 -0.0474,0.0362 -0.0542,0.0197 -0.0217,-0.0523 -0.238,-0.1678 -0.2453,-0.1744 0.0292,-0.5231 0.0764,-0.5563 -0.1547,-0.6607 -0.2121,-0.0959 -0.2095,-0.0966 -0.3601,-0.0002 -0.1262,0.0808 -0.2945,0.1751 -0.4012,0.2267 -0.1372,0.0662 -0.1461,0.0907 -0.3217,0.0378 -0.4179,-0.1258 -0.9654,-0.4695 -1.3029,-0.8155 0.1649,0.3684 0.4893,0.5078 0.8834,0.7451 0.6117,0.3684 0.5225,0.1555 0.5954,0.6108 0.1078,0.4745 0.2519,0.9586 0.2201,1.4702 -0.0408,0.6556 -0.6796,0.7676 -0.6781,1.0248 0.2191,-0.0032 0.4585,-0.4778 0.6182,-0.4606 0.0538,0.1213 -0.0269,0.2 0.0664,0.4514 0.0463,0.1248 0.0456,0.0904 0.0842,0.0988 0.0499,-0.2351 -0.0627,-0.4588 -0.0598,-0.5388 0.0056,-0.1534 0.1167,-0.9032 0.1968,-1.0126 -0.1519,0.0747 -0.1514,-0.2522 -0.2188,-0.5548 -0.0136,-0.0492 0.0021,-0.1073 0.0361,-0.1664 -0.1232,-0.0853 -0.1439,-0.2337 -0.1691,-0.3741 -0.0189,-0.1056 -0.0549,-0.2283 0.0471,-0.2888 0.0612,-0.0372 0.3424,-0.2248 0.4897,-0.3133 0.0983,-0.0589 0.2376,-0.0848 0.3165,0.0213 0.0545,0.0731 0.0117,0.3693 0.006,0.4736 -0.4083,-0.0473 -0.468,0.1214 -0.6103,0.3741 0.1135,-0.125 0.2822,-0.2324 0.3933,-0.2409 0.1183,-0.0091 0.3545,0.0527 0.4095,0.117 0.0662,0.0776 0.0158,0.3695 0.0068,0.4846 -0.289,-0.0052 -0.3473,0.0924 -0.5808,0.3553 0.0873,-0.0566 0.1906,-0.1002 0.271,-0.1525 0.097,-0.0631 0.1668,-0.1023 0.3041,-0.0545 0.2198,0.0766 0.3825,0.1789 0.3497,0.4663 -0.0144,0.1261 -0.3952,0.9512 -0.4764,1.1633 -0.1487,0.3884 -0.1739,0.7801 -0.7557,0.8872 -0.4569,0.0842 -0.9681,0.1403 -1.439,0.1877 -0.3365,0.0339 -0.3943,0.021 -0.6324,-0.1395 -0.2911,-0.1964 -0.7043,-0.5059 -0.7769,-0.8643 -0.0738,-0.3644 -0.1446,-1.0675 -0.178,-1.4515 -0.0444,-0.5116 0.0874,-0.8574 0.2499,-1.3593 0.0564,-0.1743 0.1404,-0.5559 0.281,-0.5309 0.1233,0.0527 0.427,0.6594 0.5607,0.8008 -0.0452,-0.1624 -0.3152,-0.612 -0.4092,-0.7597 -0.0774,-0.1217 -0.1765,-0.233 -0.1473,-0.4367 0.0404,-0.2808 0.3042,-0.3565 0.5112,-0.308 -0.1818,-0.2107 -0.3402,-0.3637 -0.2371,-0.6694 0.0853,-0.253 0.1085,-0.2573 0.4132,-0.3872 0.0716,0.0728 0.2265,0.5418 0.3569,0.6959 0.0158,-0.1527 -0.4669,-0.9501 -0.3691,-1.4069 0.0695,-0.3246 0.1412,-0.3578 0.4622,-0.4312 0.0422,-0.0097 0.827,-0.1889 0.6254,0.0404zm-5.2189 5.2356c0.0887,-0.1939 0.1389,-0.3109 0.3157,-0.3615 0.4441,-0.1271 0.5362,-0.1041 0.6997,0.1556 0.1191,0.1893 0.0781,0.158 -0.0374,0.4569 -0.2971,0.8421 -0.7379,1.7243 -1.0086,2.5856 -0.0241,0.0729 -0.011,0.0697 -0.0805,0.0922 -0.292,0.0947 -0.6001,0.1468 -0.7945,-0.09 -0.1389,-0.1692 -0.0716,-0.3439 -0.0048,-0.5359 0.0417,-0.1197 0.1306,-0.4173 0.2274,-0.4333 0.1514,0.0652 -0.0534,0.2865 0.0545,0.4578 0.117,-0.0269 0.2325,-0.399 0.3256,-0.4774 0.0027,-0.0337 0.465,-0.9406 0.5418,-1.5115 0.0067,-0.1161 0.047,-0.2978 -0.0288,-0.3728 -0.0945,0.0392 -0.1052,0.2607 -0.2017,0.3057 -0.1291,-0.0653 -0.0553,-0.1692 -0.0085,-0.2714zm1.8011 2.9419c0.1007,-0.0472 0.2249,-0.3388 0.2745,-0.4482 0.1139,-0.2509 0.3123,-0.6377 0.3712,-0.8988 0.0261,-0.1154 0.0357,-0.4441 -0.0467,-0.5032 -0.0707,0.0203 -0.1042,0.1291 -0.1168,0.1952 -0.1486,0.4035 -0.4771,1.3106 -0.4823,1.655zm2.9882 1.5593c-0.1804,0.6449 -0.4384,1.1954 -0.7347,1.7436 -0.4976,0.921 -0.6149,0.8877 -1.2652,1.6018 -0.0759,0.0833 -0.1559,0.1623 -0.2404,0.126 -0.0725,-0.0311 -0.1727,-0.1302 -0.1682,-0.2412 0.0035,-0.087 0.1354,-0.1816 0.1806,-0.228 0.3877,-0.3984 0.6688,-0.6136 0.9261,-1.1017 -0.0558,0.0209 -0.8332,-0.2302 -0.932,-0.2944 -0.8324,-0.5409 -0.0666,-0.7006 -0.0415,-1.0983 0.0534,-0.8455 -0.0142,-0.8018 -0.6193,-1.1337 -0.229,-0.0864 -0.277,-0.2019 -0.1759,-0.4099 0.0825,0.0055 0.3032,0.2034 0.3955,0.266 0.3631,0.2464 1.0265,0.6198 1.2549,0.6973 0.168,0.0569 0.5347,0.1196 0.6667,0.1812 0.0644,0.0302 0.1033,0.0969 0.08,0.1823 -0.0408,0.1493 -0.2436,0.7779 -0.4146,1.2044l0.324 -0.6146c0.3359,-0.6593 0.7693,-2.2615 0.8884,-2.9456 0.0312,-0.1797 0.0577,-0.26 0.2141,-0.304 0.2481,-0.0696 0.2317,0.0456 0.1966,0.254 -0.113,0.6695 -0.3532,1.4654 -0.5349,2.115zm-5.3328 0.1977c0.7078,0.3129 1.5236,0.4487 2.2002,0.0857 0.3045,-0.1633 0.2369,-0.4223 -0.0782,-0.5346 0.0124,-0.0877 0.018,-0.2631 0.0636,-0.3307 0.1269,-0.0022 0.6761,0.276 0.7282,0.5429 0.1021,0.5228 -0.0012,0.597 -0.272,0.95 -0.2772,0.3614 -0.2444,0.338 -0.7766,0.5062 -0.1691,0.0535 -0.9256,0.2339 -0.9299,0.3576 0.0508,0.1598 0.3571,0.2035 0.5533,0.2172 0.0952,0.0044 0.5422,0.012 0.6244,-0.012 0.0103,-0.003 -0.0587,-0.0016 -0.1272,-0.0065 -0.2268,-0.0165 -0.6799,-0.0681 -0.7623,-0.1987 0.0398,-0.1202 0.3447,-0.1896 0.4791,-0.232 0.2025,-0.0638 0.6528,-0.2391 0.8573,-0.2158 0.0505,0.1085 0.247,0.765 0.2277,0.8938 -0.0156,0.1041 -0.2287,0.2905 -0.4022,0.4188 -0.3751,0.2772 -1.7341,0.4023 -2.1746,0.3699 -0.5572,-0.0409 -1.3667,-0.2784 -1.6788,-0.569 -0.0795,-0.074 -0.0131,0.0053 0.0153,0.0542 0.0677,0.1167 0.1389,0.2227 0.2767,0.2881 0.3261,0.1547 0.6942,0.2425 1.0344,0.3066 0.4109,0.0774 0.3402,-0.0469 0.4846,0.1907 0.2115,0.3481 0.3351,0.7786 0.4031,1.1801 0.0426,0.2515 -0.0011,0.3031 -0.2662,0.3047l-2.2044 -0.0018c-0.1094,-0.014 -0.4559,-1.3437 -0.7409,-1.671 -0.1159,-0.1331 -0.4505,-0.4669 -0.6724,-0.5388 0.0349,0.0825 0.1153,0.1018 0.1566,0.1811l-0.4524 -0.1584c0.0472,-0.0558 0.2332,-0.1942 0.3095,-0.2418 0.1315,-0.082 0.2638,0.0309 0.3892,0.0908 0.2813,0.1343 0.9177,-0.1984 1.1156,-0.1909 -0.0586,-0.1261 -0.2599,-0.4078 -0.1025,-0.6716 0.1357,-0.2274 0.5988,-0.4842 0.6169,-0.4828 0.0682,0.0299 0.1816,0.1845 0.2315,0.2559 0.0957,0.1373 0.2183,0.3815 0.3871,0.4394 0.0532,0.0182 0.2454,0.0415 0.2651,-0.0204 -0.0979,-0.1402 -0.9005,-0.3175 -0.9776,-1.5185 -0.0098,-0.1531 -0.01,-0.44 0.0332,-0.583 0.0898,-0.2975 1.1747,-0.5424 1.377,-0.3758 0.0288,0.0416 0.0111,0.1032 -0.0175,0.1514 -0.0569,0.0959 -0.3014,0.0506 -0.5083,0.1102 -0.6461,0.1861 0.109,0.568 0.3142,0.6587zm3.2752 -16.2062c-0.4175,0.1556 -0.6563,1.6269 -0.3823,2.2451 0.0417,0.094 0.092,0.2056 0.2213,0.1927 0.3244,-0.0323 0.4321,-0.8158 0.4667,-1.1736 0.0246,-0.2546 0.0291,-0.5201 -0.0009,-0.7718 -0.0219,-0.1843 -0.091,-0.5721 -0.3049,-0.4923zm0.706 2.698c0.0964,-0.0741 0.3795,-0.1755 0.5389,-0.1471 0.3038,0.0542 0.0792,0.3775 0.023,0.435 0.032,-0.3729 0.0145,-0.2492 -0.4585,0.1044 -0.138,0.1031 -0.3233,0.231 -0.5194,0.2882 -0.2737,0.0798 -1.1136,0.2399 -1.4014,0.2302 0.0903,-0.0642 1.0406,-0.2007 1.4045,-0.3288 0.2215,-0.0779 0.7145,-0.4754 0.7344,-0.562 0.0246,-0.1074 -0.2379,-0.024 -0.3215,-0.02zm2.1506 -6.3104c-0.1369,-0.0323 -0.2174,-0.2025 -0.2986,-0.3059 -0.2308,-0.294 -0.4521,-0.5418 -0.772,-0.7407 -0.0592,-0.0368 -0.1425,-0.0698 -0.1782,-0.128 -0.0509,-0.0085 -0.0967,-0.0549 -0.123,-0.107 -0.0326,-0.1154 0.284,-0.3462 0.3915,-0.4326 0.3226,-0.2591 0.6355,-0.4598 1.0366,-0.6204 0.9256,-0.3707 0.7705,-0.0321 0.6423,0.5429 -0.0898,0.4029 -0.2332,0.9116 -0.3702,1.2997 -0.0552,0.1563 -0.1537,0.5163 -0.3285,0.4921zm1.3768 7.9702c0.2183,0.1645 0.3578,0.3299 0.3825,0.653 0.046,0.5993 -0.2937,1.0426 -0.5741,1.4848l-0.7012 1.028c-0.2078,0.2356 -0.972,-0.3521 -1.0367,-0.6165 -0.0184,-0.075 0.8775,-1.1565 0.9879,-1.3488 0.1739,-0.3029 0.0627,-0.4763 -0.2272,-0.5649 -0.5062,-0.1547 -1.0306,-0.2554 -1.5279,-0.4309 -0.2686,-0.0947 -0.4914,-0.1831 -0.5558,-0.4464 -0.1047,-0.2739 0.1524,-0.4616 0.3478,-0.5214 0.2613,-0.0799 0.532,0.0024 0.7703,0.0579 0.5013,0.1169 1.7114,0.3863 2.1345,0.7051zm-5.3845 4.0593c-0.6201,-0.3968 -1.0521,-1.4202 -1.1924,-2.3562 -0.0604,-0.4028 -0.0518,-1.1295 0.0041,-1.443 -0.2678,0.5122 -0.2108,0.7129 -0.1895,1.3198 0.0119,0.1353 -0.0127,0.1399 -0.0803,0.2176 -0.1056,0.1214 -0.3122,0.3626 -0.4755,0.5184 -0.4464,0.4257 -0.864,0.7345 -1.4013,1.048 -0.2565,0.1496 -1.5809,0.7425 -1.8969,0.7283 -0.1611,-0.0073 -0.1121,-0.1777 -0.0902,-0.294 0.0811,-0.4292 0.0616,-0.6557 0.0577,-1.0682l0.2867 -0.071c1.1905,-0.2521 2.0265,-0.8498 2.426,-1.1609 0.2643,-0.2059 1.0617,-1.1372 1.2417,-1.2932 0.1862,-0.1458 0.2219,-0.1683 0.4215,-0.498 0.6907,0.0642 1.5292,-0.0357 1.8215,-0.1328 -0.6733,0.1196 -1.3059,0.0881 -1.9257,-0.0691 -0.9453,-0.2399 -2.0577,-0.8314 -2.6525,-1.6126 -0.1868,-0.2454 -0.56,-0.8368 -0.4756,-1.1778 0.1563,0.0137 0.2212,0.4306 0.4099,0.3359 0.0417,0.0746 0.0728,0.1378 0.1152,0.2017 0.2632,0.3963 1.3759,0.8301 1.3874,0.3243 -0.0086,-0.1931 -0.3298,-0.3048 -0.3428,-0.4322 0.4127,-0.1269 1.7145,0.6574 2.0619,0.8193 0.6364,0.2965 1.1755,0.2957 1.5758,0.214 0.5971,-0.122 0.7049,-0.3456 1.149,-0.5051 0.244,-0.0877 0.5307,-0.1363 0.6767,-0.0992 0.6478,0.1645 0.105,1.1198 -0.4131,1.4387 -0.414,0.255 -0.8986,0.4325 -1.4038,0.5319 0.1872,-0.0049 0.2377,-0.0067 0.3512,0.1434 0.5552,0.7342 0.4329,1.9896 0.1931,2.8166 -0.1761,0.6076 -0.7258,2.1401 -1.6399,1.5553zm-2.9536 13.2217c0.1575,-0.0151 1.0903,-0.0279 1.1779,0.0222 0.1036,0.0592 0.045,0.3695 0.048,0.5459 0.003,0.1776 0.2342,0.2543 -0.1873,0.2798 -0.3235,0.0195 -0.8561,0.069 -1.1636,0.015 -0.1981,-0.0347 -0.1315,-0.3409 -0.1269,-0.4971 0.0079,-0.2655 -0.0128,-0.3405 0.2519,-0.3659zm-1.1637 1.1682c0.2721,0.2013 0.5614,0.1893 0.9174,0.1892 0.4787,0 0.9603,-0.0225 1.4405,-0.0377 0.3757,-0.0119 0.8392,0.0429 0.858,-0.3386 0.0127,-0.2562 0.0528,-1.0491 0.0101,-1.1939 -0.0216,-0.1873 -0.2573,-0.4311 -0.4526,-0.4558l-2.3173 -0.0236c-0.2389,0.0069 -0.3014,0.0659 -0.4044,0.1928 -0.294,0.362 -0.3111,1.4758 -0.0517,1.6676z"/>
  <path class="fil0" d="M47.1892 0.6033c0.4318,0.156 0.9729,0.3791 1.3663,0.6076 0.4152,0.2413 0.8195,0.4822 1.2027,0.7712 0.258,0.1946 0.4955,0.3779 0.7493,0.5762l0.2758 0.2285c0.0351,0.0271 0.0514,0.0463 0.0817,0.0768 0.072,0.0724 0.2845,0.2496 0.2845,0.3638 0,0.0959 -0.1291,0.0966 -0.222,0.1094 -0.3012,0.0414 -0.5945,0.0535 -0.9006,0.0791 -0.7729,0.0647 -1.4377,0.2113 -2.1678,0.4543 -0.2428,0.0808 -0.4607,0.1818 -0.6863,0.2935 -0.0408,0.0202 -0.0649,0.0332 -0.1009,0.0576 -0.0334,0.0226 -0.0566,0.046 -0.1007,0.0578 0.0153,0.0574 0.0664,0.0596 0.1146,0.087l0.3493 0.227c0.1586,0.1057 0.2975,0.1994 0.4499,0.3137 0.0786,0.0589 0.1469,0.107 0.2211,0.1679l0.2606 0.2148c0.0253,0.0204 0.029,0.0197 0.056,0.0449l0.2954 0.2665c0.2558,0.2562 0.5142,0.504 0.7374,0.7897 0.3586,0.4589 0.6186,0.8986 0.8774,1.4134l0.2353 0.5283c0.0814,0.1808 0.1413,0.3691 0.2047,0.5589 0.3484,1.0434 0.4773,2.1124 0.4773,3.3407 0,0.2321 0.0283,1.6713 -0.2161,1.6713 -0.1528,0 -0.3561,-0.3356 -0.4426,-0.4507 -0.436,-0.5806 -0.6123,-0.8419 -1.1963,-1.4259l-0.5676 -0.5273c-0.0422,-0.0338 -0.069,-0.0638 -0.1151,-0.1009 -0.355,-0.2865 -0.892,-0.7338 -1.3379,-0.8377 0.018,0.0774 0.1331,0.2787 0.1731,0.36 0.3099,0.6291 0.4142,1.3821 0.5102,2.0832 0.0218,0.1588 0.0216,0.3147 0.0454,0.4733 0.0214,0.1428 0.0205,0.3494 0.0205,0.4982 0,0.7147 -0.0106,0.9346 -0.0725,1.6564 -0.029,0.3382 -0.0923,0.6858 -0.1456,1.007 -0.0367,0.221 -0.3654,1.7165 -0.5888,1.7165 -0.0948,0 -0.1704,-0.1209 -0.2191,-0.1987l-0.1315 -0.243c-0.0439,-0.0887 -0.0756,-0.1664 -0.12,-0.2546l-0.3608 -0.763c-0.0922,-0.2159 -0.2175,-0.421 -0.321,-0.6299 -0.1412,-0.2848 -0.3241,-0.5492 -0.4986,-0.8125 -0.1008,-0.1522 -0.2048,-0.2904 -0.3165,-0.4326 -0.0576,-0.0732 -0.2706,-0.3572 -0.3665,-0.3828 -0.0122,0.0525 -0.1016,0.1876 -0.1355,0.2391 -0.0278,0.0422 -0.0448,0.073 -0.0707,0.1166l-0.3556 0.5808c0.0122,0.0139 -0.0008,-0.003 0.0196,0.0236l0.0834 0.1183c0.0651,0.0876 0.2571,0.3408 0.2571,0.4344 0,0.251 -0.0521,0.4942 -0.1202,0.7298 -0.0736,0.2542 -0.0946,0.2301 -0.4272,0.3076 0.0076,0.0328 0.0111,0.0332 0.0144,0.072 0.0995,0.0022 0.3028,0.0907 0.3688,0.1355 0.2379,0.1615 0.3949,0.8128 0.3949,1.1035 0,0.1532 -0.1728,0.3937 -0.317,0.4322 0,0.1151 -0.0066,0.1946 -0.0144,0.2881 0.1153,0.0269 0.3421,0.1655 0.3792,0.2691 0.0788,0.2201 -0.0339,0.5966 -0.1295,0.8017l-0.3071 0.6582c-0.0683,0.153 -0.1368,0.3035 -0.1875,0.4608 -0.0892,0.2771 -0.3499,0.5858 -0.6396,0.6571 -0.162,0.0398 -0.3673,0.1065 -0.5274,0.1065 -0.0363,0.156 -0.069,0.3161 -0.102,0.4742 -0.0948,0.4539 -0.2148,0.9226 -0.3273,1.3728 -0.2146,0.8596 -0.507,1.6938 -0.9599,2.4547 -0.1452,0.2439 -0.2735,0.4793 -0.4384,0.6997 -0.1223,0.1635 -0.2578,0.3198 -0.4021,0.4624 -0.0972,0.0961 -0.6214,0.6789 -0.7095,0.7025 0,0.1289 0.0599,0.5199 0.0803,0.6689 0.0497,0.3632 0.0809,0.7785 0.0051,1.1454 -0.0075,0.0365 -0.0305,0.1033 -0.0331,0.1377 -0.0069,0.0909 0.2502,0.3014 0.2502,0.5549 0,0.3307 -0.0777,0.6405 -0.2064,0.9174 -0.0573,0.1233 -0.0541,0.1257 -0.1651,0.195 -0.0724,0.0452 -0.1709,0.0891 -0.2477,0.1269 -0.0778,0.0383 -0.1639,0.074 -0.2513,0.1089 -0.0928,0.037 -0.1658,0.0661 -0.2572,0.103 -0.0503,0.0203 -0.087,0.0318 -0.1384,0.049 -0.1445,0.0484 -0.2923,0.0805 -0.4627,0.0847l-0.3374 0.0228c-0.1182,0.0179 -0.559,0.0198 -0.7004,0.02l-1.4114 0.0293c-0.9568,0 -2.0016,0.0381 -2.9331,-0.0925 -0.5276,-0.074 -0.5953,-0.0903 -1.0059,-0.3628 -0.1444,-0.0959 -0.2644,-0.1869 -0.4038,-0.2878 -0.2628,-0.19 -0.5351,-0.3769 -0.7819,-0.5867 -0.0347,-0.0295 -0.061,-0.05 -0.0941,-0.0789l-0.9729 -0.9001c-0.3459,-0.3459 -0.7076,-0.6783 -0.945,-1.1152 -0.1651,-0.3037 -0.314,-0.6002 -0.4437,-0.925 -0.0436,-0.1091 -0.1708,-0.3929 -0.1708,-0.5064 0,-0.1866 0.1417,-0.6513 0.2279,-0.7661 0.129,-0.1716 0.2237,-0.0744 0.2569,-0.2185 0.034,-0.1474 0.0696,-0.215 0.1921,-0.2689 0.2263,-0.0995 0.8559,-0.2457 1.1037,-0.3083 0.3666,-0.0926 0.4094,-0.0705 0.7706,0.0046 0.1254,0.0261 0.2389,0.0614 0.3602,0.0865 0.1269,0.0262 0.23,0.0593 0.3561,0.0904 0.2843,0.0702 0.4907,0.2401 0.7229,0.401 0.0688,0.0477 0.7104,0.2652 0.8072,0.2878 0.2424,-0.1624 0.3331,-0.4201 0.8211,-0.1728 0.2673,0.1354 0.3031,0.0696 0.5939,-0.0113 0.0824,-0.0229 0.219,-0.0579 0.285,-0.0896 -0.0219,-0.0456 -0.0433,-0.1599 -0.0433,-0.2305 0,-0.4091 0.0132,-0.3788 0.27,-0.6378 0.1073,-0.1082 0.2536,-0.2007 0.3784,-0.2843 -0.0019,-0.0842 -0.0543,-0.2404 -0.0751,-0.3284 -0.0806,-0.3422 -0.1103,-0.9896 0.089,-1.2714 0.0854,-0.1207 0.2762,-0.1675 0.4344,-0.2139 0.1626,-0.0478 0.3684,-0.0986 0.5353,-0.1274 0.1367,-0.0237 0.4423,-0.0616 0.5868,-0.0616 0.0127,-0.1522 0.098,-0.2033 -0.2017,-0.2017 -0.188,0.001 -0.2572,-0.0083 -0.3843,-0.0767 -0.165,-0.0887 -0.3937,-0.2869 -0.3937,-0.5284 0,-0.3013 0.1929,-0.5646 0.2594,-0.85 -0.0905,-0.0606 -0.1925,-0.1163 -0.2875,-0.1735 -0.3904,-0.2353 -1.0055,-0.6294 -1.3008,-0.9612 -0.4089,-0.4593 -0.2392,-1.2692 0.0695,-1.7241 0.0724,-0.1067 0.158,-0.1965 0.2552,-0.2778 0.0268,-0.0224 0.0298,-0.02 0.0569,-0.044l0.5748 -0.4625c0.4009,-0.3026 0.8264,-0.5721 1.2577,-0.8314l0.5241 -0.3116c0.1248,-0.075 0.4494,-0.1985 0.4494,-0.3718 0,-0.1592 -0.0414,-0.3542 -0.0777,-0.4986 -0.0361,-0.1435 -0.071,-0.2818 -0.1067,-0.412 -0.0608,-0.2218 -0.1705,-0.6246 -0.1903,-0.8615 -0.0901,0.0477 -0.1957,0.204 -0.27,0.2774 -0.0494,0.0488 -0.0881,0.0876 -0.1369,0.1369 -0.0506,0.051 -0.0894,0.0749 -0.1371,0.1222l-0.2803 0.2528c-0.0963,0.084 -0.1895,0.1616 -0.293,0.2401 -0.7311,0.5546 -1.6462,0.9666 -2.5328,1.2275l-0.4073 0.1258c-0.0698,0.0269 -0.0706,0.1173 -0.0939,0.1799 -0.0676,0.182 -0.1591,0.3816 -0.2736,0.5332 -0.0877,0.1161 -0.1432,0.182 -0.29,0.243 -0.227,0.0945 -0.5838,0.1247 -0.8304,0.0456 -0.1127,-0.0362 -0.1378,-0.0588 -0.2176,-0.1282 -0.0621,0.0416 -0.1233,0.0864 -0.2161,0.0864 -0.2348,0 -0.3745,-0.0972 -0.4755,-0.2881 -0.3728,0.1973 -0.6086,0.2413 -1.0509,0.3034 -0.56,0.0786 -1.5996,0.2149 -2.1525,-0.0535 -0.2752,-0.1336 -0.54,-0.2388 -0.7796,-0.4163 -0.0644,-0.0477 -0.0683,-0.0514 -0.0991,-0.1315 -0.0694,-0.1812 -0.1024,-0.3925 -0.133,-0.5874 -0.0296,-0.1886 -0.1649,-0.3229 -0.1649,-0.5267l0.0148 -0.7633c0.0037,-0.075 0.0573,-0.2083 0.0573,-0.2165 0,-0.0684 -0.0681,-0.0859 -0.0864,-0.3723l0 -0.3374c0.0062,-0.1354 0.0193,-0.3001 0.0419,-0.5019 0.0256,-0.2276 0.1424,-0.3637 0.293,-0.5138 0.1081,-0.1077 0.1166,-0.112 0.158,-0.2598 0.082,-0.293 0.1755,-0.6364 0.3086,-0.9017 0.0521,-0.1038 0.1219,-0.147 0.2212,-0.1966 0.2727,-0.1363 0.5704,-0.2445 0.8562,-0.354 0.3537,-0.1355 0.7133,-0.2528 1.0859,-0.3404 0.0466,-0.011 0.1183,-0.0195 0.1615,-0.0402 -0.0015,-0.0652 -0.0144,-0.0573 -0.0144,-0.1297 0,-0.6247 -0.0393,-1.1747 0.2765,-1.6974l0.2047 -0.3283c0.0738,-0.1069 0.1521,-0.2129 0.2424,-0.3051 0.0476,-0.0485 0.0909,-0.0846 0.1467,-0.1271 0.2511,-0.1915 0.8066,-0.1288 1.0797,0.0035 0.1526,0.0739 0.2108,0.108 0.2596,0.2878 0.0329,0.121 0.0532,0.3336 0.0524,0.4807l0.0105 0.5147c-0.0095,0.067 -0.0167,0.1748 -0.025,0.249 -0.0256,0.2302 -0.0724,0.4645 -0.1111,0.6958 -0.06,0.3589 -0.0565,0.6419 -0.0928,0.9733 -0.0682,0.6231 -0.0384,0.6948 0.1551,1.2754 0.0558,0.1672 0.0979,0.3391 0.1062,0.5134 0.0035,0.0749 0.0132,0.1314 0.0145,0.1872 0.18,-0.0952 0.4222,-0.036 0.5331,0.1297 0.0536,-0.0257 0.1502,-0.0432 0.2306,-0.0432 0.3896,0 0.6524,0.2133 0.7436,0.5819 0.0258,0.104 0.0542,0.2604 0.0632,0.3691 0.0287,-0.0138 0.1362,-0.0342 0.1741,-0.042 0.3969,-0.0825 0.8032,-0.1979 1.168,-0.3447 0.4078,-0.1642 1.0788,-0.6032 1.4349,-0.9424l0.3411 -0.3072c0.182,-0.1405 0.4929,-0.4849 0.6378,-0.6589 0.0611,-0.0733 0.1897,-0.1489 0.2213,-0.2108 0.0302,-0.0591 0.1235,-0.2237 0.1289,-0.289 -0.0459,-0.0106 -0.0771,-0.029 -0.1296,-0.0433 -0.5418,-0.1476 -1.3082,-0.5303 -1.7393,-0.8541 -0.2119,-0.1591 -0.2454,-0.2103 -0.3766,-0.315 -0.3407,-0.272 -0.7351,-0.8014 -0.8894,-1.1709 -0.0743,-0.1779 -0.1987,-0.5055 -0.0966,-0.6908 0.0326,-0.0592 0.0377,-0.0377 0.0136,-0.118 -0.1551,-0.5158 -0.2267,-0.908 -0.2698,-1.4605 -0.0321,-0.4117 -0.0332,-0.1517 -0.1762,-0.5154 -0.1257,-0.3197 -0.3127,-1.3903 -0.3127,-1.7477 0,-0.2488 -0.0014,-0.249 0.1378,-0.4817 0.1562,-0.2609 0.1662,-0.1379 0.1059,-0.4392 -0.2245,-1.1224 -0.3068,-2.1208 -0.1161,-3.2737 0.0423,-0.2557 0.2031,-0.9057 0.4487,-0.9057l0.0432 0c0.3335,0 0.9545,0.9395 1.2498,1.2571l0.1787 0.1959c0.0988,0.1238 0.422,0.4574 0.5598,0.5496l0.5009 -0.4068c0.0592,-0.049 0.1137,-0.0827 0.1742,-0.1284 0.6472,-0.4891 1.3704,-0.8927 2.1159,-1.2122 0.6531,-0.2799 1.3398,-0.4919 2.0822,-0.6408 0.6778,-0.136 1.3414,-0.2098 1.9959,-0.2197l0.3085 0c1.096,0.0172 2.1682,0.2157 3.2408,0.6033zm-8.3006 19.0774c-0.0705,-0.0472 -0.1627,-0.2737 -0.3602,-0.2737 -0.2159,0 -0.6443,0.0282 -0.7895,0.1758 -0.0805,0.0818 -0.2595,0.4016 -0.3199,0.5157 -0.0641,-0.015 -0.0997,-0.0461 -0.154,-0.0765 -0.1024,-0.0573 -0.4079,-0.2008 -0.4079,-0.327 0,-0.2375 0.2382,-0.3676 0.4433,-0.5364 0.1627,-0.1338 0.4845,-0.358 0.6778,-0.4892 0.0495,-0.0336 0.084,-0.0612 0.1353,-0.0953 0.0982,-0.0651 0.1897,-0.1264 0.2853,-0.1901 0.0472,-0.0315 0.0864,-0.0597 0.1395,-0.091 0.055,-0.0325 0.0867,-0.0573 0.1403,-0.0902 0.2009,-0.1231 0.3824,-0.2191 0.5669,-0.0172 0.0333,0.0365 0.133,0.1588 0.133,0.2128 0,0.2157 -0.4567,1.14 -0.4899,1.2823z"/>
  <path class="fil1" d="M48.829 3.3713c-0.6052,0.1338 -0.2583,0.1343 -0.8206,0.0152 -1.6988,-0.3601 -2.1335,0.3538 -2.6414,0.4916 -0.0544,0.0026 -0.0581,0.0072 -0.0852,0.0265 0.7031,0.1734 2.3659,0.9455 3.2897,1.8721 1.6465,1.6515 2.2602,3.4024 2.4,5.6776 0.04,0.6531 0.0523,1.375 -0.0043,2.0238 -0.0471,0.0015 -0.4665,-0.5527 -0.5783,-0.6872 -0.5272,-0.6343 -0.9185,-1.078 -1.5476,-1.593 -0.0446,-0.0358 -0.0976,-0.0657 -0.1342,-0.1171 -0.2429,-0.4549 -0.6331,-1.5268 -1.1614,-1.9009 -0.7664,-0.5427 -1.9542,-0.7102 -2.3322,-0.8736 0.0004,-0.0009 1.4035,1.2791 2.0675,2.6653 0.5568,1.1625 0.6932,2.8684 0.5581,4.3802 -0.0608,0.6803 -0.2545,1.9475 -0.5487,2.5555 -0.6862,-1.8347 -1.9218,-3.1674 -2.2144,-3.6004 0.7707,-2.0758 -2.6731,-1.9608 -2.9696,-2.334 -0.0916,-0.1152 1.1289,-0.8169 1.3741,-1.5211 -0.1805,0.2317 -0.7731,0.9855 -1.0135,0.9538 -0.0226,-0.102 0.2216,-0.5834 0.0021,-0.8588 -0.2662,-0.2278 -0.4667,-0.1032 -0.7206,-0.138 -0.0277,-0.2333 0.6311,-0.6731 0.8556,-1.6789 0.0796,-0.3567 0.1117,-0.9074 -0.0586,-1.3086 -0.243,-0.5723 -0.6102,-0.6763 -1.2392,-0.4257 -0.9177,0.3654 -1.9015,1.3695 -2.3022,1.6482 -0.4884,0.3397 -1.2017,1.3919 -1.8605,1.0403 -0.4994,-0.2665 -0.0563,-1.7243 -0.0782,-1.7952 -0.0786,0.0908 -0.3463,0.8406 -0.248,1.2733 0.036,0.2254 -0.0073,0.2766 -0.072,0.2534 -0.0779,-0.0279 -0.2706,-0.2712 -0.3329,-0.3621 -0.1386,-0.2017 -0.355,-0.6173 -0.3977,-0.7225 -0.1786,-0.4396 -0.3778,-1.1295 -0.4298,-1.3258 -0.0627,-0.2368 -0.2368,-1.8742 -0.817,-1.1693 0.1399,0.0016 0.2043,-0.0172 0.3212,0.0347 0.0121,0.102 -0.3316,1.3467 -0.3461,1.3608 -0.2356,-0.0137 -0.4582,-1.4836 -0.2762,-1.7626 0.2113,-0.3238 0.6151,-1.0311 0.9718,-0.8076 0.4329,0.2712 0.3758,0.9343 0.4899,1.2838 0.0493,-0.4089 -0.07,-1.0008 -0.2613,-1.3179l-0.1093 -0.1462c-0.0291,-0.0674 0.7247,-1.0861 0.8338,-1.1317 0.017,-0.0439 0.1648,-0.2004 0.3047,-0.3406 -0.6699,0.4014 -0.7324,0.6444 -1.2798,1.4051 -0.406,0.0263 -0.224,-0.0522 -0.5178,0.2139 -0.2324,0.2104 -0.3225,0.2007 -0.3924,-0.412 -0.0908,-0.795 -0.2235,-2.1985 0.0745,-3.0053 0.2898,-0.7845 1.0688,0.6039 1.4542,0.9288l0.4348 0.4963c0.0382,0.0455 0.2602,0.192 0.3342,0.2669 1.6939,-1.468 3.2263,-2.2035 5.4288,-2.5513 2.3372,-0.3692 4.4752,0.0801 6.6037,1.3572 0.1243,0.0745 1.7989,1.1576 1.8425,1.3667 -0.6068,0.1256 -1.2273,0.1587 -1.8499,0.2964zm-7.1333 9.8041l0.6272 0.2048 0.7297 0.2054c0.254,0.0405 0.356,0.3827 0.3765,0.6096 0.0192,0.0959 -0.1139,0.2755 -0.174,0.3574 -0.1495,0.2034 -0.1844,0.1228 -0.4392,0.0773 -0.1063,-0.019 -0.2751,0.0151 -0.3864,0.0259 0.0243,-0.2332 0.0928,-0.6485 0.0651,-0.8721l-0.1084 -0.2547c0.0494,0.3243 -0.0291,1.0644 -0.0935,1.1561 -0.1283,0.0207 -0.4613,0.0899 -0.549,0.1751 -0.1598,0.2628 -0.0934,0.6879 -0.0356,0.9696 -0.3179,0.1287 -0.3686,0.2284 -0.4459,0.5047 -0.1071,0.3825 -0.0549,0.311 0.0636,0.508 -0.1754,0.1129 -0.3763,0.1925 -0.3455,0.502 0.0273,0.274 0.024,0.056 -0.1217,0.4017 -0.0733,0.1741 -0.1289,0.369 -0.1846,0.5517 -0.1206,0.3955 -0.273,0.7926 -0.2342,1.2079 0.0004,0.1354 0.0403,0.3213 -0.0015,0.4407 -0.0808,0.2315 -0.2395,0.5088 -0.3398,0.7425 -0.5637,1.3138 -0.8473,2.445 -1.0852,3.8434 -0.0239,0.1405 -0.0247,0.2837 -0.0891,0.3266 -0.3962,0.2635 -1.3879,0.0957 -1.5149,-0.2556 -0.0562,-0.1555 0.054,-0.557 0.1036,-0.7366 0.1295,-0.4679 0.435,-1.3482 0.5047,-1.5415 0.2128,-0.5906 0.4285,-1.1482 0.6709,-1.7061 0.1927,-0.4434 0.7385,-1.6608 0.8626,-2.1051 0.0641,-0.2294 0.0594,-0.2735 -0.0606,-0.4435 -0.0682,-0.0966 -0.4989,-0.4611 -0.6403,-0.5301 0.0145,0.0539 0.1157,0.1574 0.1497,0.2386 -0.0297,0.0274 -0.1734,0.0854 -0.2257,0.116 -0.2464,0.144 -1.1709,0.8072 -1.3933,0.9698 -0.2291,0.1675 -1.1633,0.7291 -0.6173,1.0823 0.131,0.0847 0.9948,0.5959 1.0011,0.6079 0.0464,0.1525 -0.292,1.0417 -0.4326,1.1664 -0.1879,0.1679 -0.4737,-0.0036 -0.6514,-0.107 -0.3916,-0.2278 -0.8133,-0.4941 -1.162,-0.7825 -0.1732,-0.1432 -0.3856,-0.2796 -0.4557,-0.5712 -0.1077,-0.5709 0.1851,-1.1855 0.6099,-1.505 0.5654,-0.4254 1.1082,-0.8373 1.7223,-1.1966 0.3847,-0.2251 0.9297,-0.5431 0.9829,-0.6075 0.2467,-0.2996 -0.0455,-0.5736 -0.0055,-0.8716 0.0864,0.0004 0.0873,0.0716 0.1241,0.1497 0.2785,0.5262 0.6298,0.8244 0.9307,0.9676 0.2072,0.0759 0.4262,0.0239 0.6026,-0.0639 0.5774,-0.2875 0.8662,-1.3114 1.02,-1.9334 0.1878,-0.7599 0.2406,-1.8859 -0.2011,-2.5649 -0.0282,-0.0434 -0.0715,-0.0949 -0.088,-0.1327 0.6791,-0.187 0.3971,-0.1531 0.4732,0.1939 0.0504,0.2294 0.2388,0.3963 0.4618,0.4791zm2.1814 -10.8811l0.02 0.0742c-0.9624,0.3018 -1.2665,0.4725 -2.0457,1.0844 -0.0712,0.0558 -0.1974,0.1546 -0.1953,0.2521 0.353,0.3153 0.598,0.1368 1.4128,1.2202 0.1184,0.1749 0.2513,0.4695 0.4242,0.1262 0.0518,-0.1028 0.8584,-2.5676 0.6519,-2.7541 -0.107,-0.0696 -0.1786,-0.1068 -0.3469,-0.0899 0.0368,0.0641 0.0438,0.013 0.0788,0.0871zm0.4871 2.7135c0.9039,-2.2135 1.874,-2.4592 0.588,-2.3618 0.1404,-0.5187 0.341,-1.2746 -0.4166,-1.2374 -1.3023,0.064 -3.9781,1.8672 -3.702,2.0348 0.1181,0.0717 0.486,-0.4563 0.8596,-0.6475 0.1664,-0.0852 0.5026,-0.3476 0.8972,-0.5513 0.3121,-0.2219 1.6995,-0.7389 2.1157,-0.669 0.9887,0.1662 -1.306,4.0093 -0.5883,4.2155 0.0412,-0.3137 0.12,-0.4737 0.2463,-0.7833zm-3.6549 1.3438c0.1723,-0.123 0.7118,-0.3539 0.929,-0.4177 0.8442,-0.2481 1.337,0.4976 1.6197,0.6394 -0.0911,-0.2112 -0.6589,-0.7259 -1.0242,-0.8262 -0.8644,-0.2374 -3.1255,1.4906 -3.5283,1.9599 0.1628,-0.0859 1.5593,-1.1907 2.0038,-1.3554zm-10.6722 20.0222c0.5645,-0.1481 1.3503,-0.0345 1.8156,0.0841 0.3104,0.0792 0.4246,0.2156 0.6067,0.3724 0.1321,0.1137 0.8891,0.9117 0.9994,0.958 -0.0632,-0.1841 -0.7106,-0.7104 -0.688,-0.8693 0.1297,-0.014 0.9478,0.3371 1.1096,0.4065 0.3424,0.1469 0.7124,0.3853 0.8521,0.6607 0.1542,0.304 0.2922,0.7605 0.4026,1.1107 0.1124,0.3563 0.1188,0.323 -0.0941,0.5101 -0.1545,0.1358 -0.1986,0.2399 -0.2027,0.5337l0.0434 1.2426c0.0276,0.0789 0.1221,0.0471 0.129,0.1428 -0.1233,0.1061 -0.6787,0.0167 -0.871,-0.0103 -1.1557,-0.1624 -2.1054,-0.8812 -2.7241,-1.8405 -0.4281,-0.6639 -0.7957,-1.3439 -1.2046,-1.9937 -0.1961,-0.3116 -0.4381,-0.6607 -0.7844,-0.7994 0.0553,-0.299 0.3415,-0.4376 0.6108,-0.5084zm11.6232 -1.8264c0.1528,0.0319 0.1957,0.0641 0.2787,-0.0584 0.1144,-0.1688 0.3832,-1.3023 0.4578,-1.5875 0.2119,-0.8108 0.1136,-0.6837 -0.1753,-0.6683 -0.2981,0.0137 -0.3683,0.0633 -0.5946,-0.0899 -0.158,-0.1069 -0.4412,-0.3341 -0.5843,-0.4671 -0.2962,-0.2752 -0.3363,-0.246 -0.4233,-0.6589 -0.0367,-0.1779 -0.0024,-0.2396 -0.1793,-0.2797 -0.1891,-0.0429 -0.1997,0.0138 -0.2557,0.1604 -0.0218,0.1885 0.0445,0.3455 0.0788,0.5199 0.0498,0.2539 0.0262,0.2858 -0.0546,0.5058 -0.092,0.296 -0.4665,0.9464 -0.65,1.2508 -0.0529,0.0877 -0.124,0.1542 -0.0417,0.2724 0.1181,0.1694 0.2544,0.2191 0.4408,0.3408 0.6014,0.396 1.0082,0.6165 1.7027,0.7597zm-3.7929 3.9914l0.1551 0.7102c0.0354,0.1846 0.0601,0.0762 0.2457,0.273 0.1333,0.1414 0.2105,0.175 0.2452,0.455 0.0292,0.2858 -0.0213,1.0404 -0.0447,1.3928 0.4352,-0.0593 0.7638,-0.0597 1.1302,-0.3028 0.5613,-0.3723 0.6435,-0.8909 0.613,-1.5746 -0.0252,-0.5645 -0.1069,-1.1803 -0.4288,-1.6597 0.0991,-0.0834 0.2414,-0.24 0.3368,-0.3213 0.1788,-0.1521 0.3866,-0.3545 0.5292,-0.5372 0.4364,-0.5595 0.3074,-0.3825 -0.3888,-0.6549 -0.0952,-0.0422 -0.2576,-0.1927 -0.329,-0.1792 0.0599,0.5963 0.2185,0.6688 -0.0712,1.025 -0.0984,0.121 -0.2412,0.1627 -0.1226,0.3081 0.0388,0.0675 0.0086,0.1775 -0.0217,0.2672 -0.1203,-0.15 -0.2391,-0.2091 -0.4632,-0.2053 -0.1943,0.0033 -0.4963,0.0646 -0.7028,0.0831l-1.0298 0.0923c0.1188,0.2482 0.2762,0.5689 0.3474,0.8285zm-7.2434 0.0986c0.4459,0.7414 1.0591,1.7219 1.3268,1.9434 0.3263,0.2699 1.5079,0.9623 1.8532,1.0284 0.4895,0.0937 1.0515,0.0269 1.6799,0.107 0.5096,0.0649 1.204,0.0117 1.7327,-0.0026 0.3469,-0.0093 0.9713,0.0376 1.1816,-0.1616 0.1234,-0.1169 0.6928,-0.1379 0.89,-0.176 0.3722,-0.0868 0.816,-0.4617 0.9342,-0.833 0.2029,0.078 0.2384,0.934 -0.2275,1.2368 -0.4597,0.2988 -0.8054,0.3958 -1.2805,0.41 -1.2334,0.0479 -4.2042,0.1948 -5.394,-0.0686 -0.4789,-0.106 -1.3535,-0.75 -1.7655,-1.1014 -0.7532,-0.6425 -1.4442,-2.1833 -2.0891,-3.1277 0.3081,0.5941 1.4333,2.4656 1.4457,2.5557 -0.1872,-0.0377 -0.708,-0.6313 -0.8986,-0.8398 -0.3328,-0.3639 -0.4235,-0.5506 -0.6348,-0.9728 -0.091,-0.1284 -0.3341,-0.7049 -0.2433,-0.8841 0.0951,-0.0178 0.1684,-0.0356 0.2237,-0.0111 -0.01,-0.0137 -0.02,-0.0271 -0.0299,-0.0404 -0.1376,-0.1836 -0.2527,-0.3347 -0.3317,-0.0425 -0.0505,-0.197 0.0774,-0.7063 0.3345,-0.6085 0.6655,0.2532 0.94,1.0023 1.2929,1.5889zm5.7142 -19.3455c0.0244,-0.0125 0.0213,0.0189 0.0354,-0.0471 0.015,-0.0702 -0.0148,-0.1422 -0.0746,-0.1823 -0.0096,0.0822 -0.0132,0.1717 0.0393,0.2294zm3.9765 0.4209c0.0833,-0.0409 0.0861,-0.2057 0.0288,-0.2734 -0.0634,0.0031 -0.0777,0.0451 -0.0852,0.114 -0.0084,0.0774 -0.003,0.1349 0.0564,0.1594zm-2.8774 20.733c-0.0369,-0.1647 -0.2261,-0.1276 -0.422,-0.1277 -0.866,-0.0003 -0.8071,-0.0677 -0.8128,0.2835 -0.0033,0.198 -0.0387,0.3477 0.1819,0.3671 0.2538,-0.007 0.5465,0.0263 0.7925,-0.0021 0.1289,-0.0148 0.2412,-0.0345 0.2567,-0.1492 0.0117,-0.0859 0.0151,-0.2936 0.0036,-0.3717zm-1.7304 -20.943c-0.1175,0.0708 0.3395,0.4926 0.3657,0.5167 0.036,0.0332 0.2775,0.2118 0.3697,0.1541 0.1237,-0.0774 -0.6217,-0.7394 -0.7354,-0.6708zm1.0012 0.0914c0.0497,0.0279 0.0523,0.0486 0.098,0.0807 0.0631,0.0443 0.0658,0.0177 0.1326,0.0295 0.0383,0.0068 0.501,0.4589 1.1348,-0.0885 0.6959,-0.6136 2.408,-2.2549 3.2445,-2.4758 0.3406,-0.09 0.8045,-0.0473 0.9959,0.1679 0.4421,0.4968 0.2525,1.4247 0.0008,1.9682 -0.196,0.4231 -0.641,1.11 -1.0746,1.3741 -2.0542,1.2512 -2.9736,-0.592 -4.5369,-0.6837l0.0049 -0.3724zm-1.7954 -2.4969c0.0145,-0.2032 0.129,-0.8158 0.2423,-0.8992 0.1496,-0.0451 0.2617,0.5636 0.2872,0.6634 0.1277,0.4989 0.2656,0.9539 0.476,1.4254 0.0288,0.0645 0.1403,0.2796 0.1456,0.3296l0 0.4657c0.0057,0.1976 0.0723,0.3584 0.0859,0.5265 -0.098,-0.0545 -0.355,-0.3507 -0.5019,-0.3336 -0.0946,0.011 -0.1792,0.1191 -0.2005,0.2226 -0.0316,0.1536 0.0421,0.235 0.0393,0.3571 -0.0747,0.0061 -0.0996,-0.035 -0.1351,-0.0796 -0.0799,-0.1 -0.178,-0.3042 -0.2263,-0.4222 -0.2495,-0.6105 -0.2927,-1.6145 -0.2126,-2.2557zm-3.0967 8.097c-0.1869,0.2042 -0.0487,0.7019 0.0082,0.9598 0.1005,0.456 0.0733,0.5302 -0.0902,0.925 -0.1145,0.2765 -0.3374,0.7245 -0.5847,0.8413 -0.5692,0.2689 -2.3017,0.3953 -2.7213,0.2046 -0.2554,-0.1161 -0.552,-0.2305 -0.7583,-0.3799 -0.2964,-0.2146 -0.2163,-0.69 -0.2196,-0.946 -0.0584,-0.0321 -0.041,0.0039 -0.0878,0.0438 -0.1068,-0.1123 -0.1291,-0.5523 -0.1247,-0.736 0.0069,-0.2879 0.1745,-0.5655 0.1696,-0.7333 -0.0378,0.0128 -0.1057,0.0541 -0.1306,0.0282 -0.0682,-0.0711 -0.0638,-0.4393 -0.0607,-0.5046 0.0261,-0.5517 0.0483,-0.614 0.3695,-0.9585 0.0583,-0.0625 0.2988,-0.2694 0.322,-0.3199 -0.1792,-0.0085 -0.0564,0.0321 -0.1478,0.0027 -0.0225,-0.1568 0.1572,-0.5895 0.2226,-0.7121 0.1269,-0.2376 0.2794,-0.2815 0.5558,-0.3951 0.6212,-0.2552 1.6513,-0.6698 2.3034,-0.4479 0.1683,0.0573 0.4784,0.2753 0.5645,0.3867 0.107,0.1383 0.258,0.4474 0.2827,0.6668 0.0636,0.5637 -0.0233,0.5047 -0.1755,0.7387 -0.0472,-0.0196 -0.0829,-0.0575 -0.1084,-0.0998l-0.3099 -0.2224c-0.0642,-0.0053 -0.1419,-0.0516 -0.1694,-0.0945 0.0282,-0.06 0.0424,-0.0204 0.0667,-0.0864 -0.1324,-0.1588 -0.9103,-0.0622 -1.1471,-0.0259 -0.1883,0.0289 -0.362,0.0756 -0.5479,0.1002 -0.3204,0.0424 -0.3241,-0.1427 -0.4782,-0.1291 -0.0702,0.1095 0.0038,0.2074 0.0852,0.26l1.1235 -0.136c0.4791,-0.028 0.6903,0.0031 1.0216,0.2205 0.169,0.1109 0.2243,0.133 0.3394,0.2943 0.2429,0.3406 0.2223,0.603 0.1587,1.0106 -0.018,0.1155 -0.1452,0.2986 -0.327,0.2942 -0.1124,-0.0239 -0.242,-0.0683 -0.2802,-0.1544 -0.0466,-0.0125 -0.3114,-0.2388 -0.4123,-0.3036 -0.2514,-0.1616 -0.9892,-0.0922 -1.2955,-0.0664 -0.5467,0.0461 -0.4243,-0.064 -0.5878,-0.0807 -0.0237,0.0816 0.0278,0.1664 0.0754,0.2116 0.0654,0.0621 0.1612,0.0249 0.2633,0.0115 0.3186,-0.0417 0.885,-0.0662 1.2025,-0.0365 0.2265,0.0211 0.3157,0.0761 0.4534,0.1807 0.2934,0.2229 0.4402,0.3272 0.5675,0.7002 0.0468,0.137 -0.0202,0.404 -0.0473,0.5525 -0.0275,0.1503 -0.0286,0.25 -0.139,0.3359 -0.1615,0.1255 -0.1293,-0.0603 -0.2958,-0.1759 -0.3524,-0.2446 -0.3994,-0.2949 -0.7974,-0.2849 -0.1668,0.0041 -0.937,0.0604 -1.0561,0.0199 -0.0853,-0.029 -0.1537,-0.1225 -0.2569,-0.0803 -0.0904,0.0709 0.0375,0.1866 0.0807,0.2138 0.0824,0.0519 0.2136,0.0136 0.3215,0.0017 0.3006,-0.033 1.1059,-0.1206 1.3448,0.018 0.1241,0.072 0.3568,0.1942 0.3996,0.3207 0.0548,0.162 0.1,0.4691 0.0492,0.6357 -0.144,0.4718 -0.8546,0.8096 -1.1438,0.6315 -0.0628,-0.0387 -0.1462,-0.1153 -0.1324,-0.2087 0.1787,-0.0569 0.6257,-0.0289 0.6525,-0.2256 -0.1082,-0.0116 -0.2189,0.0549 -0.3318,0.0714l-0.7485 0.0518c-0.1004,0.0028 -0.4447,-0.0983 -0.3782,0.0816 0.0332,0.0899 0.1619,0.0457 0.2794,0.043l-0.0807 0.2756c0.1095,-0.0285 0.0936,-0.1073 0.1729,-0.1577 0.017,-0.1319 0.1181,-0.1143 0.2532,-0.1233 0.0369,0.1496 0.1636,0.2645 0.3086,0.3129 0.1527,0.051 0.4884,-0.0439 0.6453,-0.0886 0.3899,-0.111 0.409,-0.1575 0.5661,-0.5437 0.1259,-0.3094 0.0778,-0.2594 0.0605,-0.5846 0.289,-0.0853 0.3161,-0.3163 0.3715,-0.5676 0.0841,-0.3812 0.0516,-0.4301 0.0092,-0.8043 0.2696,-0.1916 0.3368,-0.1424 0.3753,-0.588 0.0293,-0.3384 0.0357,-0.5662 -0.0689,-0.8684 0.1832,-0.1953 0.2474,-0.21 0.2356,-0.6601 -0.0082,-0.5515 -0.235,-0.9994 -0.7104,-1.2725 -0.2463,-0.1415 -0.3683,-0.1246 -0.781,-0.1862 -0.0349,-0.8931 -0.0369,-1.6372 0.6647,-2.2938 0.3636,-0.3404 0.989,-0.128 1.0826,0.0421 0.1435,0.2605 0.085,1.0148 0.0365,1.3208 -0.0948,0.5974 -0.1539,1.4166 -0.1894,2.0448 -0.0285,0.5054 0.4201,1.0058 0.2779,1.9488 0.0746,-0.1355 0.1882,-0.2621 0.2402,-0.3253 0.2269,-0.3107 0.4599,0.2191 0.5184,0.4095 0.1577,0.5129 -0.0236,0.7392 -0.0257,0.935 0.1317,-0.0055 0.1994,-0.1718 0.1962,-0.3272 -0.017,-0.2227 -0.0725,-0.4048 -0.0983,-0.609 -0.1764,-0.3851 0.2476,-0.3289 0.4193,-0.2745 0.1863,0.059 0.2657,0.3133 0.3005,0.5345 0.0821,0.523 0.0811,1.012 -0.0334,1.5201 -0.0834,0.3697 -0.2873,0.9587 -0.4801,1.1916 -0.1138,0.1374 -0.3915,0.2094 -0.6383,0.1967 -0.3999,-0.0205 -0.4128,-0.2668 -0.3016,-0.4022 0.0341,-0.118 0.1172,-0.2486 0.1751,-0.3574 0.0612,-0.1152 0.0967,-0.2534 0.2599,-0.2454 0.1039,0.1159 0.0823,0.2162 0.1369,0.3572l0.0043 -0.2229c-0.0101,-0.1362 -0.056,-0.4005 -0.1589,-0.458 -0.1585,-0.0202 -0.3133,0.8492 -0.7156,1.1154 -0.182,0.1368 -0.506,0.0443 -0.4582,-0.2098 0.0472,-0.2512 0.4754,-0.7006 0.5024,-1.3912 0.0125,-0.3195 -0.0198,-0.3374 0.0867,-0.6279 0.044,-0.1201 0.0119,-0.2898 0.0002,-0.4465 -0.0384,0.1624 -0.1458,0.6467 -0.3001,0.6602 -0.0891,-0.2247 0.0192,-0.5342 -0.0502,-0.744zm11.0725 -0.3401c-0.054,0.1952 -0.2713,0.041 -0.4474,0.1525 -0.3219,0.2039 0.4517,1.1116 1.1748,1.2798 0.1728,0.0385 0.4303,0.0662 0.572,-0.0225 0.2142,-0.1342 -0.1576,-0.3559 -0.0027,-0.4667 0.0654,-0.0823 0.0819,-0.0541 0.2227,0.1218 0.0641,0.0801 0.1394,0.1708 0.1844,0.2625 0.0753,0.1534 -0.1123,0.5749 -0.1869,0.6742 -0.1583,0.2108 -1.2617,0.0543 -1.496,0.2853 0.0079,0.1927 0.4326,0.2434 0.6043,0.2763 -0.0978,-0.0604 -0.3228,-0.098 -0.3455,-0.2147 0.025,-0.181 0.7322,-0.1226 0.8948,-0.1305 0.0214,0.2178 0.0666,0.4602 -0.01,0.6127 0.1194,-0.0788 0.2211,-0.0005 0.183,-0.2536 0.2573,0.0533 0.3552,0.1921 0.4196,0.4399 0.211,0.4789 0.147,0.7167 0.0564,0.7829 -0.0176,0.0129 -0.0474,0.0362 -0.0542,0.0197 -0.0217,-0.0523 -0.238,-0.1678 -0.2453,-0.1744 0.0292,-0.5231 0.0764,-0.5563 -0.1547,-0.6607 -0.2121,-0.0959 -0.2095,-0.0966 -0.3601,-0.0002 -0.1262,0.0808 -0.2945,0.1751 -0.4012,0.2267 -0.1372,0.0662 -0.1461,0.0907 -0.3217,0.0378 -0.4179,-0.1258 -0.9654,-0.4695 -1.3029,-0.8155 0.1649,0.3684 0.4893,0.5078 0.8834,0.7451 0.6117,0.3684 0.5225,0.1555 0.5954,0.6108 0.1078,0.4745 0.2519,0.9586 0.2201,1.4702 -0.0408,0.6556 -0.6796,0.7676 -0.6781,1.0248 0.2191,-0.0032 0.4585,-0.4778 0.6182,-0.4606 0.0538,0.1213 -0.0269,0.2 0.0664,0.4514 0.0463,0.1248 0.0456,0.0904 0.0842,0.0988 0.0499,-0.2351 -0.0627,-0.4588 -0.0598,-0.5388 0.0056,-0.1534 0.1167,-0.9032 0.1968,-1.0126 -0.1519,0.0747 -0.1514,-0.2522 -0.2188,-0.5548 -0.0136,-0.0492 0.0021,-0.1073 0.0361,-0.1664 -0.1232,-0.0853 -0.1439,-0.2337 -0.1691,-0.3741 -0.0189,-0.1056 -0.0549,-0.2283 0.0471,-0.2888 0.0612,-0.0372 0.3424,-0.2248 0.4897,-0.3133 0.0983,-0.0589 0.2376,-0.0848 0.3165,0.0213 0.0545,0.0731 0.0117,0.3693 0.006,0.4736 -0.4083,-0.0473 -0.468,0.1214 -0.6103,0.3741 0.1135,-0.125 0.2822,-0.2324 0.3933,-0.2409 0.1183,-0.0091 0.3545,0.0527 0.4095,0.117 0.0662,0.0776 0.0158,0.3695 0.0068,0.4846 -0.289,-0.0052 -0.3473,0.0924 -0.5808,0.3553 0.0873,-0.0566 0.1906,-0.1002 0.271,-0.1525 0.097,-0.0631 0.1668,-0.1023 0.3041,-0.0545 0.2198,0.0766 0.3825,0.1789 0.3497,0.4663 -0.0144,0.1261 -0.3952,0.9512 -0.4764,1.1633 -0.1487,0.3884 -0.1739,0.7801 -0.7557,0.8872 -0.4569,0.0842 -0.9681,0.1403 -1.439,0.1877 -0.3365,0.0339 -0.3943,0.021 -0.6324,-0.1395 -0.2911,-0.1964 -0.7043,-0.5059 -0.7769,-0.8643 -0.0738,-0.3644 -0.1446,-1.0675 -0.178,-1.4515 -0.0444,-0.5116 0.0874,-0.8574 0.2499,-1.3593 0.0564,-0.1743 0.1404,-0.5559 0.281,-0.5309 0.1233,0.0527 0.427,0.6594 0.5607,0.8008 -0.0452,-0.1624 -0.3152,-0.612 -0.4092,-0.7597 -0.0774,-0.1217 -0.1765,-0.233 -0.1473,-0.4367 0.0404,-0.2808 0.3042,-0.3565 0.5112,-0.308 -0.1818,-0.2107 -0.3402,-0.3637 -0.2371,-0.6694 0.0853,-0.253 0.1085,-0.2573 0.4132,-0.3872 0.0716,0.0728 0.2265,0.5418 0.3569,0.6959 0.0158,-0.1527 -0.4669,-0.9501 -0.3691,-1.4069 0.0695,-0.3246 0.1412,-0.3578 0.4622,-0.4312 0.0422,-0.0097 0.827,-0.1889 0.6254,0.0404zm-5.2189 5.2356c0.0887,-0.1939 0.1389,-0.3109 0.3157,-0.3615 0.4441,-0.1271 0.5362,-0.1041 0.6997,0.1556 0.1191,0.1893 0.0781,0.158 -0.0374,0.4569 -0.2971,0.8421 -0.7379,1.7243 -1.0086,2.5856 -0.0241,0.0729 -0.011,0.0697 -0.0805,0.0922 -0.292,0.0947 -0.6001,0.1468 -0.7945,-0.09 -0.1389,-0.1692 -0.0716,-0.3439 -0.0048,-0.5359 0.0417,-0.1197 0.1306,-0.4173 0.2274,-0.4333 0.1514,0.0652 -0.0534,0.2865 0.0545,0.4578 0.117,-0.0269 0.2325,-0.399 0.3256,-0.4774 0.0027,-0.0337 0.465,-0.9406 0.5418,-1.5115 0.0067,-0.1161 0.047,-0.2978 -0.0288,-0.3728 -0.0945,0.0392 -0.1052,0.2607 -0.2017,0.3057 -0.1291,-0.0653 -0.0553,-0.1692 -0.0085,-0.2714zm1.8011 2.9419c0.1007,-0.0472 0.2249,-0.3388 0.2745,-0.4482 0.1139,-0.2509 0.3123,-0.6377 0.3712,-0.8988 0.0261,-0.1154 0.0357,-0.4441 -0.0467,-0.5032 -0.0707,0.0203 -0.1042,0.1291 -0.1168,0.1952 -0.1486,0.4035 -0.4771,1.3106 -0.4823,1.655zm2.9882 1.5593c-0.1804,0.6449 -0.4384,1.1954 -0.7347,1.7436 -0.4976,0.921 -0.6149,0.8877 -1.2652,1.6018 -0.0759,0.0833 -0.1559,0.1623 -0.2404,0.126 -0.0725,-0.0311 -0.1727,-0.1302 -0.1682,-0.2412 0.0035,-0.087 0.1354,-0.1816 0.1806,-0.228 0.3877,-0.3984 0.6688,-0.6136 0.9261,-1.1017 -0.0558,0.0209 -0.8332,-0.2302 -0.932,-0.2944 -0.8324,-0.5409 -0.0666,-0.7006 -0.0415,-1.0983 0.0534,-0.8455 -0.0142,-0.8018 -0.6193,-1.1337 -0.229,-0.0864 -0.277,-0.2019 -0.1759,-0.4099 0.0825,0.0055 0.3032,0.2034 0.3955,0.266 0.3631,0.2464 1.0265,0.6198 1.2549,0.6973 0.168,0.0569 0.5347,0.1196 0.6667,0.1812 0.0644,0.0302 0.1033,0.0969 0.08,0.1823 -0.0408,0.1493 -0.2436,0.7779 -0.4146,1.2044l0.324 -0.6146c0.3359,-0.6593 0.7693,-2.2615 0.8884,-2.9456 0.0312,-0.1797 0.0577,-0.26 0.2141,-0.304 0.2481,-0.0696 0.2317,0.0456 0.1966,0.254 -0.113,0.6695 -0.3532,1.4654 -0.5349,2.115zm-5.3328 0.1977c0.7078,0.3129 1.5236,0.4487 2.2002,0.0857 0.3045,-0.1633 0.2369,-0.4223 -0.0782,-0.5346 0.0124,-0.0877 0.018,-0.2631 0.0636,-0.3307 0.1269,-0.0022 0.6761,0.276 0.7282,0.5429 0.1021,0.5228 -0.0012,0.597 -0.272,0.95 -0.2772,0.3614 -0.2444,0.338 -0.7766,0.5062 -0.1691,0.0535 -0.9256,0.2339 -0.9299,0.3576 0.0508,0.1598 0.3571,0.2035 0.5533,0.2172 0.0952,0.0044 0.5422,0.012 0.6244,-0.012 0.0103,-0.003 -0.0587,-0.0016 -0.1272,-0.0065 -0.2268,-0.0165 -0.6799,-0.0681 -0.7623,-0.1987 0.0398,-0.1202 0.3447,-0.1896 0.4791,-0.232 0.2025,-0.0638 0.6528,-0.2391 0.8573,-0.2158 0.0505,0.1085 0.247,0.765 0.2277,0.8938 -0.0156,0.1041 -0.2287,0.2905 -0.4022,0.4188 -0.3751,0.2772 -1.7341,0.4023 -2.1746,0.3699 -0.5572,-0.0409 -1.3667,-0.2784 -1.6788,-0.569 -0.0795,-0.074 -0.0131,0.0053 0.0153,0.0542 0.0677,0.1167 0.1389,0.2227 0.2767,0.2881 0.3261,0.1547 0.6942,0.2425 1.0344,0.3066 0.4109,0.0774 0.3402,-0.0469 0.4846,0.1907 0.2115,0.3481 0.3351,0.7786 0.4031,1.1801 0.0426,0.2515 -0.0011,0.3031 -0.2662,0.3047l-2.2044 -0.0018c-0.1094,-0.014 -0.4559,-1.3437 -0.7409,-1.671 -0.1159,-0.1331 -0.4505,-0.4669 -0.6724,-0.5388 0.0349,0.0825 0.1153,0.1018 0.1566,0.1811l-0.4524 -0.1584c0.0472,-0.0558 0.2332,-0.1942 0.3095,-0.2418 0.1315,-0.082 0.2638,0.0309 0.3892,0.0908 0.2813,0.1343 0.9177,-0.1984 1.1156,-0.1909 -0.0586,-0.1261 -0.2599,-0.4078 -0.1025,-0.6716 0.1357,-0.2274 0.5988,-0.4842 0.6169,-0.4828 0.0682,0.0299 0.1816,0.1845 0.2315,0.2559 0.0957,0.1373 0.2183,0.3815 0.3871,0.4394 0.0532,0.0182 0.2454,0.0415 0.2651,-0.0204 -0.0979,-0.1402 -0.9005,-0.3175 -0.9776,-1.5185 -0.0098,-0.1531 -0.01,-0.44 0.0332,-0.583 0.0898,-0.2975 1.1747,-0.5424 1.377,-0.3758 0.0288,0.0416 0.0111,0.1032 -0.0175,0.1514 -0.0569,0.0959 -0.3014,0.0506 -0.5083,0.1102 -0.6461,0.1861 0.109,0.568 0.3142,0.6587zm3.2752 -16.2062c-0.4175,0.1556 -0.6563,1.6269 -0.3823,2.2451 0.0417,0.094 0.092,0.2056 0.2213,0.1927 0.3244,-0.0323 0.4321,-0.8158 0.4667,-1.1736 0.0246,-0.2546 0.0291,-0.5201 -0.0009,-0.7718 -0.0219,-0.1843 -0.091,-0.5721 -0.3049,-0.4923zm0.706 2.698c0.0964,-0.0741 0.3795,-0.1755 0.5389,-0.1471 0.3038,0.0542 0.0792,0.3775 0.023,0.435 0.032,-0.3729 0.0145,-0.2492 -0.4585,0.1044 -0.138,0.1031 -0.3233,0.231 -0.5194,0.2882 -0.2737,0.0798 -1.1136,0.2399 -1.4014,0.2302 0.0903,-0.0642 1.0406,-0.2007 1.4045,-0.3288 0.2215,-0.0779 0.7145,-0.4754 0.7344,-0.562 0.0246,-0.1074 -0.2379,-0.024 -0.3215,-0.02zm2.1506 -6.3104c-0.1369,-0.0323 -0.2174,-0.2025 -0.2986,-0.3059 -0.2308,-0.294 -0.4521,-0.5418 -0.772,-0.7407 -0.0592,-0.0368 -0.1425,-0.0698 -0.1782,-0.128 -0.0509,-0.0085 -0.0967,-0.0549 -0.123,-0.107 -0.0326,-0.1154 0.284,-0.3462 0.3915,-0.4326 0.3226,-0.2591 0.6355,-0.4598 1.0366,-0.6204 0.9256,-0.3707 0.7705,-0.0321 0.6423,0.5429 -0.0898,0.4029 -0.2332,0.9116 -0.3702,1.2997 -0.0552,0.1563 -0.1537,0.5163 -0.3285,0.4921zm1.3768 7.9702c0.2183,0.1645 0.3578,0.3299 0.3825,0.653 0.046,0.5993 -0.2937,1.0426 -0.5741,1.4848l-0.7012 1.028c-0.2078,0.2356 -0.972,-0.3521 -1.0367,-0.6165 -0.0184,-0.075 0.8775,-1.1565 0.9879,-1.3488 0.1739,-0.3029 0.0627,-0.4763 -0.2272,-0.5649 -0.5062,-0.1547 -1.0306,-0.2554 -1.5279,-0.4309 -0.2686,-0.0947 -0.4914,-0.1831 -0.5558,-0.4464 -0.1047,-0.2739 0.1524,-0.4616 0.3478,-0.5214 0.2613,-0.0799 0.532,0.0024 0.7703,0.0579 0.5013,0.1169 1.7114,0.3863 2.1345,0.7051zm-5.3845 4.0593c-0.6201,-0.3968 -1.0521,-1.4202 -1.1924,-2.3562 -0.0604,-0.4028 -0.0518,-1.1295 0.0041,-1.443 -0.2678,0.5122 -0.2108,0.7129 -0.1895,1.3198 0.0119,0.1353 -0.0127,0.1399 -0.0803,0.2176 -0.1056,0.1214 -0.3122,0.3626 -0.4755,0.5184 -0.4464,0.4257 -0.864,0.7345 -1.4013,1.048 -0.2565,0.1496 -1.5809,0.7425 -1.8969,0.7283 -0.1611,-0.0073 -0.1121,-0.1777 -0.0902,-0.294 0.0811,-0.4292 0.0616,-0.6557 0.0577,-1.0682l0.2867 -0.071c1.1905,-0.2521 2.0265,-0.8498 2.426,-1.1609 0.2643,-0.2059 1.0617,-1.1372 1.2417,-1.2932 0.1862,-0.1458 0.2219,-0.1683 0.4215,-0.498 0.6907,0.0642 1.5292,-0.0357 1.8215,-0.1328 -0.6733,0.1196 -1.3059,0.0881 -1.9257,-0.0691 -0.9453,-0.2399 -2.0577,-0.8314 -2.6525,-1.6126 -0.1868,-0.2454 -0.56,-0.8368 -0.4756,-1.1778 0.1563,0.0137 0.2212,0.4306 0.4099,0.3359 0.0417,0.0746 0.0728,0.1378 0.1152,0.2017 0.2632,0.3963 1.3759,0.8301 1.3874,0.3243 -0.0086,-0.1931 -0.3298,-0.3048 -0.3428,-0.4322 0.4127,-0.1269 1.7145,0.6574 2.0619,0.8193 0.6364,0.2965 1.1755,0.2957 1.5758,0.214 0.5971,-0.122 0.7049,-0.3456 1.149,-0.5051 0.244,-0.0877 0.5307,-0.1363 0.6767,-0.0992 0.6478,0.1645 0.105,1.1198 -0.4131,1.4387 -0.414,0.255 -0.8986,0.4325 -1.4038,0.5319 0.1872,-0.0049 0.2377,-0.0067 0.3512,0.1434 0.5552,0.7342 0.4329,1.9896 0.1931,2.8166 -0.1761,0.6076 -0.7258,2.1401 -1.6399,1.5553zm-2.9536 13.2217c0.1575,-0.0151 1.0903,-0.0279 1.1779,0.0222 0.1036,0.0592 0.045,0.3695 0.048,0.5459 0.003,0.1776 0.2342,0.2543 -0.1873,0.2798 -0.3235,0.0195 -0.8561,0.069 -1.1636,0.015 -0.1981,-0.0347 -0.1315,-0.3409 -0.1269,-0.4971 0.0079,-0.2655 -0.0128,-0.3405 0.2519,-0.3659zm-1.1637 1.1682c0.2721,0.2013 0.5614,0.1893 0.9174,0.1892 0.4787,0 0.9603,-0.0225 1.4405,-0.0377 0.3757,-0.0119 0.8392,0.0429 0.858,-0.3386 0.0127,-0.2562 0.0528,-1.0491 0.0101,-1.1939 -0.0216,-0.1873 -0.2573,-0.4311 -0.4526,-0.4558l-2.3173 -0.0236c-0.2389,0.0069 -0.3014,0.0659 -0.4044,0.1928 -0.294,0.362 -0.3111,1.4758 -0.0517,1.6676z"/>
 </g>
</svg>
