<?xml version="1.0" encoding="UTF-8"?>
<!DOCTYPE svg PUBLIC "-//W3C//DTD SVG 1.1//EN" "http://www.w3.org/Graphics/SVG/1.1/DTD/svg11.dtd">
<!-- Creator: CorelDRAW 2020 (64-Bit) -->
<svg xmlns="http://www.w3.org/2000/svg" xml:space="preserve" width="130.522mm" height="80mm" version="1.1" style="shape-rendering:geometricPrecision; text-rendering:geometricPrecision; image-rendering:optimizeQuality; fill-rule:evenodd; clip-rule:evenodd"
viewBox="0 0 55.5345 34.0385"
 xmlns:xlink="http://www.w3.org/1999/xlink"
 xmlns:xodm="http://www.corel.com/coreldraw/odm/2003">
 <defs>
  <style type="text/css">
   <![CDATA[
    .fil1 {fill:#FEFEFE}
    .fil0 {fill:#2B2A29}
   ]]>
  </style>
 </defs>
 <g id="Слой_x0020_1">
  <metadata id="CorelCorpID_0Corel-Layer"/>
  <path class="fil0" d="M14.8195 0.324c3.7052,-0.9139 8.2129,0.1677 10.652,2.4663 0.3293,0.3103 0.6177,0.5401 0.6403,0.6769 -1.234,-0.2666 -4.3005,0.1015 -5.0555,1.2027 1.0048,0.5672 1.6513,0.843 2.7515,2.2018 2.0116,2.4841 2.6117,5.143 2.2308,8.2971 -0.0049,-0.0016 -2.0539,-3.0336 -5.3859,-3.931 0.4854,1.277 0.7908,1.3226 0.9941,3.1933 0.1787,1.6455 0.0468,3.1991 -0.5772,4.6117 -0.2801,0.6344 -0.1594,0.3826 -0.2508,-0.123 -0.17,-0.9404 -0.664,-1.6855 -1.2041,-2.461 -1.0179,-1.4613 -3.4689,-3.0619 -5.3808,-2.7027 0.7675,0.7458 3.3609,0.9612 3.7084,2.0675 0.1714,0.5457 -0.2705,1.0646 -0.4464,1.4126 -0.0383,0.0759 -0.1215,0.1755 -0.1198,0.2242 0.0001,0.0064 0.1183,0.2498 0.1842,0.3942 0.0629,0.1376 0.1605,0.4681 0.1582,0.6006 -0.0031,0.171 -0.106,0.33 -0.4673,0.5047 -0.0388,0.0187 -0.2434,0.0891 -0.244,0.0896 -0.1121,0.1096 -0.0083,0.3052 -0.221,0.57 -0.0502,0.0625 -0.1116,0.1009 -0.2051,0.175 -0.0207,0.0163 -0.2367,1.3721 -0.3777,1.6313 -0.0731,-0.3408 -0.322,-0.8756 -0.4459,-1.2023 -0.0882,0.0625 -0.1691,0.1465 -0.2476,0.2207 0.1976,0.384 -0.0111,0.5771 -0.2972,0.7568 0.1932,0.3308 1.0161,0.753 1.3151,1.0196 -0.7059,-0.0187 -2.1441,-0.6905 -2.5269,-0.5424 0.1132,0.1137 0.9136,2.2238 1.0155,2.5115 0.8731,0.0273 2.442,0.1457 2.6193,1.2746 0.043,0.2737 -0.0938,0.3231 -0.2115,0.5167 0.1185,0.2861 0.3296,0.3682 0.5122,0.5064 0.4386,0.3321 0.2546,0.6086 0.0425,0.8878 0.3374,0.2184 0.4965,0.2336 0.6549,0.3434 0.8425,0.5834 1.3711,0.8879 2.127,1.7394 0.0456,0.0514 0.084,0.1111 0.1395,0.1506 0.7708,0.5502 1.4955,1.1935 1.8081,2.2401 0.1709,0.5724 0.2521,1.4212 -0.3262,1.7609 -0.7691,0.4518 -1.852,0.4831 -2.7255,0.3808 -2.2724,-0.2664 -3.9647,-1.2646 -5.418,-2.5135 -0.2715,-0.2091 -0.6018,-0.5752 -0.8395,-0.7341 -1.936,0.5954 -3.5022,0.8605 -5.3617,0.8674 -0.9909,0.0037 -2.6104,-0.0241 -3.3968,-0.6337 -0.1398,-0.1083 -0.2504,-0.2504 -0.1587,-0.7659 0.1225,-0.6893 0.4457,-1.1334 0.8242,-1.4623 0.7286,-0.633 1.6221,-1.0317 2.4252,-1.3209 0.0845,-0.0304 0.2363,-0.1699 0.2729,-0.2045 0.1306,-0.1235 0.1596,-0.1746 1.0545,-0.3559l0.8718 -0.1389c-0.0359,-0.1476 -0.1824,-0.3187 -0.2598,-0.5134 -0.1631,-0.4299 0.3946,-0.6149 0.6144,-0.9109 -0.295,-0.128 -0.5666,-0.3252 -0.577,-0.58 -0.005,-0.1221 0.0736,-0.3038 0.2444,-0.4893 0.4544,-0.4932 0.8256,-0.4768 1.4346,-0.5581 -0.7214,-3.85 -1.1391,-4.1798 -1.6202,-4.7955 -0.752,-0.9621 -0.8393,-1.5408 -0.8651,-2.6792 -0.1432,0.0709 -0.6925,0.3092 -1.0829,0.4957 -0.4039,0.193 -0.4655,0.2091 -0.7295,0.1455 -1.2012,-0.2894 -1.4089,-0.755 -1.7052,-0.8107 -0.1669,-0.0313 -0.6678,0.0802 -1.0583,0.0255 -0.5016,-0.0703 -0.6969,-0.0907 -0.8794,-0.5979 -0.2328,-0.647 -0.5316,0.01 -0.8808,-0.8741 -0.5151,-0.0536 -0.8247,-0.0875 -1.2873,-0.3822 -0.2663,-0.1696 -0.4479,-0.2676 -0.563,-0.3546 -0.1961,-0.1481 -0.2043,-0.222 -0.6532,-1.1329 -0.1298,-0.2634 0.0669,-0.3609 0.1219,-0.431 -0.1996,-0.5395 -0.3828,-1.227 0.282,-1.505 -0.0858,-0.8389 0.2147,-0.8567 0.6635,-1.0912 0.0686,-0.5778 0.0579,-0.6159 0.5764,-0.8216 0.5507,-0.2185 0.6555,-0.4425 1.0005,-0.4054 0.9044,0.3697 1.2002,0.4811 1.2936,0.5767 0.1095,0.1122 0.0129,0.2207 0.1582,0.5324 0.1546,-0.3967 0.2202,-0.7636 0.3356,-1.0236 0.1376,-0.3101 0.33,-0.4883 0.6068,-0.6574 0.3236,-0.1976 0.7248,-0.3146 1.1032,-0.2613 0.3343,0.0472 0.6036,0.2026 0.6431,0.5718 0.0114,0.1063 -0.0622,0.1627 -0.3511,0.519 -0.2518,0.3106 -0.864,1.0469 -0.9607,1.4263 -0.0692,0.2716 0.0714,0.6067 0.0961,0.8978 0.0263,0.4801 -0.0511,0.5934 -0.076,0.9906 0.7263,0.1683 0.6978,0.4967 0.6589,0.7853 -0.0133,0.099 -0.0665,0.256 -0.0695,0.3278 -0.0002,0.0037 0.1941,0.1541 0.2358,0.1976 0.5791,0.6044 0.1419,0.7942 0.0461,1.4428 0.1813,0.1835 0.9506,0.806 1.2188,0.7408 0.2347,-0.0571 0.4887,-0.1493 0.7785,-0.295 0.167,-0.0839 1.3158,-0.7713 1.3812,-0.818 0.3552,-0.2538 0.7864,-0.4575 1.2017,-0.654 -0.6508,-0.202 -0.8821,-0.2527 -1.4569,-0.5801 -0.531,-0.3024 -0.7643,-0.5712 -1.1178,-1.0377 -0.1334,-0.1759 -1.4304,-0.0403 -1.2419,-1.0788 0.1834,-0.3202 0.729,0.0358 0.9144,0.0865 -0.0698,-0.2428 -0.2232,-0.4824 -0.3065,-0.7634 -0.2388,-0.8055 -0.2327,-1.6481 -0.2874,-1.7837 -0.2617,-0.649 -0.5,-1.2035 -0.3597,-1.9401 0.0882,-0.4632 -0.3406,-1.0046 -0.6313,-1.9537 -0.1231,-0.4018 -0.3941,-1.2872 -0.1744,-1.674 0.3236,-0.0661 2.257,0.6271 2.9403,0.7063 1.1746,-1.4056 2.7215,-2.7249 5.5338,-3.4186zm1.5019 16.0654c0.2695,-0.328 -0.2191,-0.5122 -0.4809,-0.6289 0.1654,0.1327 0.3963,0.4719 0.4809,0.6289zm-3.7099 7.116c-0.0803,-0.234 -0.2115,-0.704 -0.3648,-1.2929 -0.1533,-0.589 -0.3289,-1.2969 -0.4058,-1.6451 -0.0769,-0.3482 -0.0553,-0.3366 0.0222,-0.2478 0.0775,0.0887 0.2108,0.2545 0.3492,0.4413 0.1385,0.1868 0.2628,0.358 0.3971,0.6941 0.1343,0.3361 0.3195,0.7418 0.4636,1.1352 0.1442,0.3934 0.3015,0.7612 0.3713,0.9826 0.0698,0.2214 0.0816,0.2919 0.0835,0.3281 0.002,0.0362 -0.0059,0.0382 -0.0822,0.0206 -0.0764,-0.0177 -0.2212,-0.0548 -0.3485,-0.0891 -0.1273,-0.0343 -0.237,-0.0656 -0.3065,-0.0802 -0.0695,-0.0147 -0.0989,-0.0128 -0.1792,-0.2467zm-2.2327 -15.6409c0.0508,-0.2887 0.547,-1.0422 0.7438,-1.3326 0.3434,-0.45 0.5923,-0.6959 1.0665,-0.9847 0.7414,-0.4517 1.5887,-0.7431 2.3933,-0.1815 0.3673,0.2563 0.7558,0.7236 0.8607,1.1483 -0.1984,-0.3692 -0.7225,-0.8801 -1.1295,-1.0859 -1.1436,-0.5783 -2.3601,0.3426 -3.0384,1.0998 -0.3104,0.3466 -0.7097,1.1668 -0.8964,1.3366zm4.0628 13.738c0.6355,0.1862 1.2413,0.4413 1.8933,0.5357 -0.4189,-0.2722 -0.8143,-0.5503 -1.2215,-0.8959l-0.6718 0.3602zm1.7548 -0.3042c0.1126,-0.1513 0.309,-1.2774 0.3106,-1.5019 -0.1792,0.0426 -0.311,0.049 -0.4907,0.0272 -0.0534,0.1529 -0.2079,0.2352 -0.2185,0.3186 0.0171,0.1899 0.3913,0.9049 0.3985,1.156zm-4.1883 -3.6039c-0.0425,0.1076 0.5448,-0.37 0.6286,-0.4437 0.3634,-0.3198 0.3337,-0.6656 0.9631,-0.4037l0.1125 -0.1442 -0.0439 0.2163c0.2014,0.0979 0.218,0.2152 0.5073,0.2766 0.0653,-0.4752 0.3911,-0.4296 0.7879,-0.5391 0.0979,-0.3202 0.2129,-0.4786 0.6058,-0.4857l0.5506 0.1037c-0.1119,-0.4133 -0.5699,-0.615 -1.0387,-0.7832 -0.257,-0.0922 -0.5173,-0.2093 -0.7255,-0.2643 -0.0409,0.1124 -0.0933,0.2749 -0.1255,0.3903 -0.037,0.1323 -0.0732,0.3326 -0.1559,0.3448l0.1359 -0.4589 0.0874 -0.3323c-0.4191,-0.1455 -1.3254,-0.6468 -0.9204,-1.2348l-0.7325 0.0447c-0.4713,0.0424 -1.0977,-0.127 -1.5915,-0.2058 -0.2231,0.105 -0.4113,0.1858 -0.5619,0.2606 -0.13,0.0646 -0.1884,0.0914 -0.1939,0.1053 -0.0087,0.0217 0.1088,-0.0149 0.2932,-0.0136 0.0795,0.0005 0.1775,0.0188 0.2732,0.0343 0.3753,0.0966 0.6056,0.183 0.8613,0.391 0.1639,0.1333 0.4354,0.4921 0.4942,0.7834 0.0973,0.334 0.0807,0.7254 0.0574,1.0862 -0.0203,0.3143 -0.1454,0.9599 -0.2687,1.272zm-0.2395 6.7768c0.4602,0.1635 0.6022,0.1314 1.0316,-0.0429 -0.0887,-0.337 -0.2396,-0.6489 -0.3329,-1.0232 -0.3224,-1.2943 -0.4762,-1.7081 -1.2352,-3.0631 -0.0771,-0.1376 -0.3353,-0.4709 -0.3216,-0.5937 0.9364,-0.0689 1.5852,1.2515 1.8817,1.9533 0.3418,0.8089 0.8728,2.262 1.2416,3.2898 0.1995,0.5558 0.1871,0.4077 1.5029,0.6081 -0.1835,-0.5558 -1.3776,-3.4034 -1.5753,-3.9304 -0.2213,-0.1165 -0.5202,-0.1776 -0.734,-0.2425 -0.6127,-0.186 -0.7322,-0.5353 -0.876,-1.0925 -0.0676,-0.2621 -0.443,-0.5719 -0.4567,-0.8868 -0.0111,-0.2539 0.2872,-0.6109 -0.1273,-1.0341 -0.6571,0.9209 -0.8148,1.1865 -1.9521,0.3894 1.1017,1.4433 1.3943,3.4719 1.7498,5.3896 0.0433,0.2376 -0.0063,0.245 0.2034,0.2788zm-3.8251 -18.3987c0.2169,-0.3551 0.4415,-0.8087 0.6831,-1.1941 -0.1816,0.34 -0.3431,0.7213 -0.562,1.2509 0.1161,0.2762 0.4705,0.4194 0.5849,0.8758 -0.1181,-0.0971 -0.1839,-0.2081 -0.2922,-0.359 -0.2014,-0.2804 -0.8245,-0.9844 -1.0493,-0.3014 -0.1404,0.3455 -0.1445,0.4916 -0.145,0.718 -0.0002,0.0916 -0.003,0.1965 0.0027,0.3332 0.0734,-0.1153 0.0678,-0.1071 0.0978,-0.235 0.0727,-0.3095 0.284,-0.2597 0.3594,-0.1391 0.7426,0.748 0.7086,3.2525 1.522,3.6331 -0.0776,-0.217 -0.1501,-0.3997 -0.1965,-0.6258 -0.0813,-0.3954 -0.1964,-1.0803 0.046,-1.3274 -0.0872,0.2115 -0.0643,0.8856 0.0824,1.4366 0.0756,0.2841 0.1432,0.5431 0.3316,0.6732 0.4365,0.3016 0.6256,-0.0272 0.773,-0.355 0.1319,-0.2931 0.2949,-0.6987 0.3671,-0.988 0.2296,-0.7127 0.5032,-1.6018 0.9501,-2.2385 0.4382,-0.6243 0.9384,-1.0945 1.7463,-1.2071 0.6277,-0.0874 1.0755,0.3817 1.4112,0.777 0.0904,0.1064 0.1744,0.304 0.2477,0.4765 0.1477,0.3477 0.2547,0.8137 0.2783,1.215 0.0329,0.5575 -0.2173,1.6957 -0.5811,2.0849 -0.0527,0.0563 -0.1077,0.097 -0.1647,0.1179 0.0951,0.0198 0.0591,0.0446 0.1822,0.01 0.4877,-0.1376 1.3044,-0.1151 1.567,0.5433 0.4034,1.0122 -0.9998,2.2421 -0.9969,2.2502 0.8446,-0.5431 1.3011,-1.059 1.8812,-2.0132 0.1025,0.1093 -0.0482,0.9253 -0.0702,1.1205 0.9121,0.4607 2.5219,2.669 3.0808,3.7475 0.1359,0.2624 0.7988,2.0715 0.8358,2.7971 0.6626,-1.4004 0.8165,-3.1857 0.6167,-4.9837 -0.1219,-1.0975 -0.5258,-2.1771 -1.1699,-3.0722 -0.471,-0.6547 -1.0668,-1.3663 -1.076,-1.4149 0.4593,-0.0311 1.7267,0.415 2.1353,0.5959 2.1428,0.9494 3.701,2.4615 4.5546,4.6181 0.0956,-0.1393 0.0745,-0.8579 0.0741,-1.0513 -0.0055,-2.8859 -0.6718,-4.7062 -2.2097,-6.7577 -0.6246,-0.833 -1.8422,-1.7599 -2.7316,-2.2265 -0.6463,-0.3391 -1.849,-0.5138 -2.172,-0.7682 0.4631,-0.0254 0.4093,0.1327 0.7988,-0.0933 0.5478,-0.3179 1.4288,-0.6812 2.0307,-0.8413 1.5827,-0.4211 2.7178,-0.4519 4.1916,0.2064 -0.1558,-0.2982 -1.6664,-1.3725 -1.885,-1.5157 -2.1988,-1.4407 -5.68,-2.022 -8.3123,-1.6266 -1.0652,0.16 -2.6195,0.6913 -3.729,1.305 -1.2186,0.674 -2.4897,1.8575 -3.228,3.0458 -0.0472,-0.2306 -0.5271,-0.631 -0.7448,-0.7984 -0.4545,-0.3494 -1.1923,-0.7052 -1.6699,-0.6555 -0.2188,0.3271 0.1295,1.3083 0.2289,1.6812 0.1475,0.5532 0.4171,0.9956 0.6046,1.4738 0.2727,-0.3679 0.2723,-0.3349 0.7201,-0.1978zm9.4758 -3.839c-0.002,-0.2801 -0.0182,-0.5858 -0.1016,-0.8178 -0.0481,-0.1338 -0.0388,-0.1287 -0.1724,-0.1006 -0.8064,0.1696 -2.1084,1.1548 -2.6107,1.4636 -0.2589,0.187 -0.4875,0.3549 -0.7334,0.5559 -0.2265,0.1851 -0.45,0.3744 -0.6566,0.5875 0.1022,-0.5444 1.8094,-1.5454 2.0974,-1.7603 0.3129,-0.2027 1.4018,-0.8394 1.886,-0.9402 0.1502,-0.0313 0.205,-0.0256 0.2702,0.1208 0.1279,0.287 0.0955,0.787 0.1233,1.097 0.0222,0.2476 -0.0048,0.3785 0.0472,0.6185 0.1428,0.6586 0.2751,1.1767 0.0625,1.7397 -0.0522,0.1381 -0.3727,0.8131 -0.4358,0.9027 -0.0874,-0.1014 -0.0123,-0.2212 0.019,-0.3488 0.0778,-0.3175 0.102,-0.8433 0.1458,-1.1981 0.0785,-0.6372 0.0634,-1.2803 0.059,-1.9198zm-0.9005 3.6249c-0.0071,-0.4991 0.1976,-0.4548 -0.1816,-0.8191 -0.4828,-0.3559 -0.827,-0.6007 -1.3748,-0.8638 -1.1262,-0.5411 -0.9946,-0.1381 -1.2937,0.0086 0.07,-0.2387 0.5856,-0.5867 0.778,-0.7391 0.3508,-0.278 1.4377,-1.0901 2.0437,-1.1513 0.1944,-0.0196 0.3019,0.005 0.3614,0.1985 0.1685,0.5047 -0.2107,3.1857 -0.333,3.3662zm3.2513 23.4752c-0.9338,-0.0809 -1.7654,0.3284 -2.3233,1.0113 -0.1969,0.241 -0.6293,1.0652 -0.7551,1.6924 -0.0191,0.095 -0.0756,0.4728 -0.0414,0.5403 0.0914,0.1803 0.9216,0.4925 1.7086,0.6845 0.6312,0.1541 1.2201,0.208 1.4874,0.2275 0.6923,0.0508 1.7231,0.0858 2.2733,-0.2112 0.6503,-0.3511 0.6961,-0.7064 0.533,-1.4098 -0.1926,-0.8303 -0.8947,-1.5347 -1.5362,-2.0517 -0.3137,-0.2529 -0.8253,-0.4603 -1.3464,-0.4834zm-7.1403 -0.6642c0.157,0.5158 0.1953,1.1323 0.0791,1.6694l0.5635 -0.2161c-0.0186,-0.9252 0.0544,-1.3989 0.3563,-2.4212 -0.1864,-0.1038 -0.2387,-0.1544 -0.3874,-0.2988 -0.7777,0.2834 -0.7541,-0.0528 -1.4237,-0.1022 0.4123,0.3905 0.6457,0.8217 0.8122,1.3689zm-7.6016 2.0569c0.8877,0.3557 1.8153,0.4051 2.7802,0.4255 0.7419,0.0156 1.9784,-0.1035 2.6189,-0.2329 0.2321,-1.0169 0.1553,-1.3961 -0.4435,-2.2784 -0.2762,-0.3705 -0.6485,-0.7451 -1.0787,-0.9792 -0.2738,-0.149 -0.6592,-0.2088 -0.8821,-0.2389 -0.4267,0.003 -1.8074,0.7598 -2.1324,0.9677 -0.4117,0.2634 -0.7868,0.6311 -1.041,1.0282 -0.2874,0.4486 -0.4974,1.1054 0.1787,1.3081zm9.8479 -0.9672c0.2682,-0.596 0.6486,-1.02 1.0715,-1.3515 0.5334,-0.4181 0.829,-0.6245 1.6652,-0.7613l0.5796 -0.0408c-0.1591,-0.1433 -0.2439,-0.1876 -0.3838,-0.1495 -0.6029,0.164 -1.2072,0.3134 -1.8139,0.4774 -1.0899,0.3315 -1.1497,0.5348 -2.2723,-0.1369 -0.2632,0.3213 -0.3877,1.6223 -0.3766,2.131 0.0083,0.3841 0.9347,1.0392 1.2417,1.2744 -0.0234,-0.552 0.0794,-1.0301 0.2886,-1.4428zm-9.498 -17.6024c0.6589,-1.5863 -0.5583,-1.4739 0.6108,-2.9082l0.7269 -0.8675c0.2685,-0.3645 -0.3354,-0.9722 -1.3766,-0.5383 -0.7257,0.3024 -0.8203,0.7707 -0.9796,1.3709 -0.0552,0.2077 -0.2144,0.374 -0.1867,0.5788 0.0433,0.3199 0.255,0.5926 0.2233,0.9154 -0.0515,0.525 -0.4277,0.4894 -0.7304,0.5501 0.1427,0.3971 0.0752,0.4585 -0.0471,0.7995 0.5127,0.1143 0.9475,0.7663 0.6913,1.526 -0.0613,0.1819 -0.1699,0.4348 -0.3617,0.4708 0.158,-0.2345 0.2443,-0.2481 0.3235,-0.6257 0.1182,-0.563 -0.0698,-0.9812 -0.5607,-1.2608 -0.2487,-0.1416 -0.1068,0.0323 -0.7788,-0.0591 0.0296,0.1608 0.0759,0.2358 0.0795,0.3728 0.0042,0.1586 -0.0539,0.2424 -0.21,0.3011 -0.0809,0.0304 -0.1914,0.065 -0.3707,0.0246 0.1052,0.2339 0.1549,0.2587 0.0651,0.3808 -0.0173,-0.1075 -0.3006,-0.7557 -0.3912,-0.8474 -0.0806,-0.0814 -0.6774,-0.327 -0.8434,-0.3904 -0.3462,-0.1322 -0.6443,0.1309 -0.86,0.2861 0.1378,-0.125 0.3146,-0.312 0.4808,-0.3694 0.2489,-0.086 0.8999,0.1926 1.2004,0.3879 0.2495,0.1622 0.1855,0.3656 0.4015,0.4956 0.1438,0.0865 0.477,-0.0561 0.4483,-0.3192 -0.0251,-0.2304 -0.1837,-0.5752 -0.253,-0.9024 -0.0623,-0.2945 -0.0312,-0.4067 -0.2918,-0.5052 -0.211,-0.0798 -0.4237,-0.1224 -0.6132,-0.223 -0.6595,-0.3499 -0.5246,-0.3702 -0.8607,-0.177 -0.093,0.0534 -0.1864,0.1011 -0.283,0.1477 0.0525,-0.0677 0.102,-0.155 0.1479,-0.1865 0.1715,-0.1175 0.3317,-0.2395 0.6261,-0.0928 0.3041,0.1515 0.4407,0.2597 0.8025,0.3923 0.4946,0.1812 0.4158,0.0996 0.5495,0.6471 0.0286,0.1172 0.0748,0.3715 0.1477,0.4485 0.1097,0.1158 0.3952,0.1068 0.5149,0.0619 0.498,-0.2244 0.0815,-0.9018 -0.0639,-1.5145 -0.0686,-0.2892 -0.289,-0.3354 -0.6891,-0.6195 -0.7768,-0.5513 -0.3563,-0.2168 -1.2606,-0.1538 -0.0367,0.0026 -0.0735,0.0063 -0.1101,0.0112 0.1232,-0.0496 0.2219,-0.0861 0.348,-0.1244 0.2212,-0.0671 0.4743,-0.1737 0.6348,-0.106 0.1322,0.0557 0.4182,0.3151 0.5844,0.4135 0.856,0.5068 0.4348,0.5696 0.778,1.2034 0.2426,0.02 0.5313,-0.0459 0.6422,-0.2914 0.1296,-0.2866 -0.0971,-0.7149 -0.1844,-1.0726 -0.2038,-0.835 0.1387,-0.6504 -0.7627,-0.9868 -0.1821,-0.068 -0.4656,-0.1974 -0.6343,-0.2467 -0.2117,-0.0618 -0.3298,0.0808 -0.6095,0.2244 -0.5268,0.2705 -0.8255,0.1843 -0.8853,0.7775 -0.0037,0.0363 -0.0247,0.1631 -0.0319,0.2303 -0.2691,0.0589 -0.5114,0.1932 -0.6245,0.4375 -0.0757,0.1634 -0.0668,0.4258 -0.0278,0.6027 -0.1979,0.1073 -0.3615,0.2362 -0.4385,0.4298 -0.0959,0.2412 0.0413,0.8786 0.2057,1.0582 -0.1576,0.1115 -0.2543,0.182 -0.2058,0.2937 0.1539,0.355 0.3811,0.889 0.5891,1.1366 0.1612,0.1918 0.2762,0.1487 0.6115,0.3715 0.4008,0.2664 0.8814,0.4021 1.3686,0.4153 0.004,0.0653 0.0337,0.179 0.046,0.219 0.0642,0.2081 0.2998,0.2798 0.6361,0.3811 0.2515,0.0758 0.6911,0.2145 0.885,0.3093 -0.1378,0.0221 -0.5806,-0.1463 -0.7645,-0.1875 0.1719,0.7631 0.6803,0.7798 1.5416,0.7345 0.8155,-0.0428 1.2815,-0.8783 1.4834,-1.5872 0.1215,-0.4271 0.2308,-0.6227 -0.0819,-0.9246 -0.1122,-0.1082 -0.2378,-0.2214 -0.2975,-0.2571 -0.0645,0.3272 -0.3804,0.7789 -0.4668,1.0921 -0.0454,0.1651 -0.0441,0.1951 0.1247,0.1461 0.2704,-0.0786 0.2564,-0.3066 0.4696,-0.3796 -0.0966,0.2732 -0.386,0.5021 -0.5195,0.5055 -0.6368,0.0164 0.7257,-1.5726 0.4358,-2.1 -0.1104,-0.2009 -0.3579,-0.3328 -0.6442,-0.3696 -0.049,0.1162 -0.1567,0.2484 -0.2004,0.3875 -0.1699,0.5401 -0.1567,0.6997 -0.5743,1.2595 -0.2582,0.346 -0.7884,0.7227 -1.3932,0.8022 -0.1343,0.0176 -0.2927,-0.0131 -0.4449,-0.0343 0.5749,-0.0307 1.1423,-0.2303 1.5815,-0.586 0.2534,-0.2053 0.6749,-0.8477 0.7374,-1.336 -0.122,0.0979 -0.2471,0.2827 -0.4723,0.2966 0.3035,-0.2364 0.4896,-0.4014 0.6432,-0.7465zm2.8351 -0.7534c-0.0708,-0.1664 -0.5774,-0.3563 -0.7604,-0.304 -0.0737,0.2343 0.3748,0.3477 0.5639,0.3638 0.1234,0.0106 0.1417,-0.0131 0.1965,-0.0599zm4.8907 -1.8172c0.0632,0.0473 0.1735,0.0359 0.2514,-0.1224 -0.0004,-0.1949 -0.0439,-0.3591 -0.175,-0.4242 -0.1079,-0.0536 -0.1503,-0.0491 -0.1846,0.056 -0.066,0.2016 0.0017,0.3598 0.1082,0.4907zm-4.4621 0.8449c0.1533,-0.0204 0.0869,-0.0888 0.0237,-0.2272 -0.0469,-0.1028 -0.1024,-0.2093 -0.1089,-0.3203 -0.064,-0.032 -0.1034,0.0627 -0.0988,0.1874 0.003,0.0802 0.0368,0.2292 0.0742,0.2968 0.0355,0.0644 0.0392,0.0728 0.1098,0.0634zm4.2804 -2.0718c0.2107,-0.1043 0.4627,0.2051 0.535,0.3601 0.2194,0.47 0.5436,1.9976 0.1192,2.2302 -0.7243,0.397 -1.2462,-2.2973 -0.6543,-2.5904zm-2.6001 1.9553c-0.1483,0.3771 -0.2528,0.7225 -0.7329,0.6715 -0.1214,-0.0301 -0.2228,-0.1272 -0.3331,-0.1923 -0.0731,-0.0431 -0.1366,-0.0749 -0.2243,-0.0873 0.0239,0.1611 0.0937,0.2721 0.0845,0.4087 -0.0106,0.1561 -0.0891,0.2069 -0.2315,0.1237 -0.2335,-0.1363 -0.5132,-0.7903 -0.58,-1.0407 -0.0686,-0.257 -0.1927,-0.67 -0.008,-0.8849 0.0108,-0.1024 -0.0149,-0.181 -0.0298,-0.2615 -0.1007,-0.5428 -0.2624,-1.0833 -0.5095,-1.6965 -0.0752,0.3915 -0.1057,0.6181 -0.1136,1.0173 -0.0163,0.8176 0.0017,1.4936 0.3356,2.2777 0.2246,0.5276 0.1619,0.5668 0.8381,0.7591 0.3855,0.1097 0.2267,-0.0943 0.5657,-0.1667 0.2177,-0.0465 0.4969,-0.0014 0.6968,0.0542 0.6061,0.1687 1.872,0.7829 2.4691,0.6439 0.3137,-0.0731 0.8019,-0.4165 1.017,-0.5741 0.4429,-0.3245 0.7654,-0.5849 1.0236,-1.0032 0.5226,-0.8467 0.6538,-2.157 0.238,-3.0608 -0.4874,-1.0598 -1.7608,-1.1965 -2.6202,-0.4538 -0.6914,0.5974 -1.5461,2.6031 -1.8853,3.4656zm3.2515 2.5906c0.1599,0.0204 0.2871,0.0149 0.4466,-0.0131 0.1258,-0.0221 0.1956,-0.0287 0.2262,-0.0512 0.0334,-0.0245 -0.0136,-0.1737 -0.1045,-0.3076 0.0985,0.0906 0.1923,0.2476 0.228,0.2515 0.0256,0.0029 0.0719,-0.0171 0.1956,-0.0712 -0.0494,-0.1995 -0.1032,-0.2771 -0.1966,-0.3826 0.1272,0.0896 0.179,0.1485 0.2579,0.3089 0.1587,-0.0591 0.246,-0.1247 0.2943,-0.2819l-0.3343 -0.3039c0.1241,0.0339 0.2626,0.1804 0.4256,0.2438 0.0872,-0.3736 -0.0197,-0.7058 -0.4564,-0.695 -0.1492,0.2389 -0.0448,0.2732 -0.4194,0.7339l-0.563 0.5685zm2.6541 11.843c0.1077,0.0454 0.2654,0.2251 0.3192,0.3943 0.0694,0.2187 -0.0829,0.2947 -0.2651,0.3791 -0.4008,0.1857 -0.9134,0.1367 -1.3714,0.0685 -0.4585,-0.0684 -1.3044,-0.2373 -1.4302,-0.605 0.099,-0.0015 0.3097,0.2455 0.5728,0.3129 -0.0709,-0.3037 -0.1911,-0.4758 -0.2609,-0.7782 -0.1544,0.089 -0.5679,0.4224 -0.7954,0.6632 -0.2761,0.2922 -0.2143,0.6863 0.1501,0.8576 0.2101,0.0987 0.5187,0.1975 0.6557,0.2535 0.2147,0.088 0.3997,0.1655 0.571,0.2586 0.1861,0.1012 0.4456,0.2751 0.1015,0.4154 -0.2388,0.0777 -0.4545,0.1362 -0.7191,0.0884 0.2278,-0.1313 0.6031,-0.0559 0.8068,-0.2389 -0.0937,-0.2183 -0.7894,-0.4922 -1.0026,-0.5101 -0.0948,0.1301 -0.3549,0.4281 -0.3761,0.5244 -0.0545,0.2473 0.132,0.5251 0.2479,0.6321 0.3143,0.2902 1.0209,0.7778 1.4728,0.7183 0.4997,-0.0659 1.3178,-0.4052 1.886,-0.5276 0.2972,-0.0654 1.0163,-0.173 1.2167,-0.4128 0.0925,-0.1106 0.1881,-0.3691 0.0786,-0.5042 -0.1394,-0.2821 -0.4037,-0.3181 -0.5823,-0.5178 -0.097,-0.1085 -0.0328,-0.1026 -0.1593,-0.1925 -0.3022,0.1464 -0.508,0.3299 -0.7055,0.4441 -0.0857,0.0496 -0.1201,0.0852 -0.1434,0.1233 -0.056,0.0917 -0.0356,0.1033 0.0682,0.1476 0.2698,0.1154 0.4927,-0.1602 0.6175,0.0019 -0.2887,0.0592 -0.4992,0.1595 -0.7442,0.0236 -0.0837,-0.0463 -0.1051,-0.05 -0.0562,-0.1385 0.1295,-0.2346 0.6099,-0.4733 0.8189,-0.5947 0.4508,-0.2619 0.4678,-0.4529 0.1896,-0.9753 -0.3331,-0.6255 -1.4469,-0.7738 -2.3269,-0.8173l0.112 0.3377c0.147,0.3485 0.3078,0.676 0.4621,0.9967 0.2584,0.0049 0.9193,-0.0912 0.8185,-0.4551 -0.0395,-0.1423 -0.1359,-0.1828 -0.227,-0.3732zm-6.2259 1.977c0.1649,0.1776 0.7547,0.1011 1.2433,0.1179 0.3446,0.0119 0.8582,0.0418 1.1971,0.0995 -0.2055,0.1086 -0.9599,-0.0184 -1.2607,-0.0272 0.1223,0.1194 0.2775,0.1623 0.4573,0.227 0.5251,0.189 1.1673,0.4436 1.5802,0.1831 -0.1741,-0.4148 -0.1918,-0.4597 0.0728,-0.7641 0.0835,-0.0961 0.1592,-0.2357 0.1898,-0.3108 -0.1435,-0.0649 -0.4908,-0.1843 -0.5787,-0.2903 -0.1169,-0.141 -0.1961,-0.5031 -0.0883,-0.684 0.1928,-0.3235 0.8205,-0.7133 0.9248,-0.8487 -0.0185,-0.0709 -0.0631,-0.2051 -0.0976,-0.2829 -0.0714,-0.1613 -0.071,-0.1318 -0.2555,-0.1762 -0.2444,-0.0589 -0.4519,-0.1351 -0.7111,-0.1623l0.2081 0.5678 0.4371 -0.173c0.171,-0.042 -0.2954,0.1912 -0.4666,0.2787 -0.928,0.4748 -1.4056,-0.2191 -2.2485,-0.2365 0.2955,-0.2061 0.6126,0.1371 0.9116,0.1438 -0.0259,-0.1867 -0.0705,-0.4478 -0.0937,-0.5643 -0.007,-0.141 -0.4487,-0.0361 -0.5544,-0.0187 -0.4676,0.0771 -0.6564,0.2578 -0.8978,0.5162 -0.1165,0.1247 -0.2615,0.3194 -0.1287,0.5556 0.2821,0.5016 1.5681,0.5398 1.8977,0.8835 0.0604,0.063 0.0528,0.0818 -0.0121,0.1458 -0.2153,0.2124 -0.7723,0.1339 -1.2753,0.2077 0.1679,-0.1584 0.8434,0.0037 1.1588,-0.2049 0.119,-0.0787 0.1071,-0.0959 -0.0063,-0.1578 -0.3187,-0.1742 -1.2318,-0.4334 -1.2318,-0.4334 -0.1222,0.0907 -0.1704,0.1453 -0.2975,0.2499 -0.5818,0.4785 -0.4117,0.5449 -0.0742,1.1587zm-1.4604 4.4816c-0.8738,0.0211 -1.4517,0.0264 -2.1035,-0.069 -0.5396,-0.0789 -1.2687,-0.1428 -1.7215,-0.4785 -0.0846,-0.0627 -0.1269,-0.1392 -0.192,-0.2223 -0.029,0.1821 -0.0023,0.3529 0.1195,0.457 0.5077,0.4338 2.0348,0.6548 2.482,0.6494l1.4152 0.0025c0.4307,-0.0171 1.2578,-0.0805 2.0895,-0.2053 1.1582,-0.1739 2.2869,-0.4956 2.7153,-0.6821l-0.0582 -0.4154c-0.4378,0.2278 -1.5303,0.4905 -2.5919,0.6843 0.5497,-0.1233 0.955,-0.2085 1.8471,-0.5102 0.2804,-0.1247 0.2522,-1.4395 -0.1482,-2.2373 -0.2665,-0.5313 -0.6992,-0.9902 -1.2793,-1.1605 -0.3694,-0.1916 -0.4618,-0.0821 -0.863,-0.1127 -0.3873,-0.0295 -0.0391,-0.2759 -1.6148,0.1264 -0.2271,0.058 -0.5824,0.1201 -0.7003,0.3099 0.7434,0.149 0.9039,0.1238 1.3475,0.4981 0.4729,0.3991 0.8385,0.7582 1.0686,1.231 0.312,0.6411 0.3376,0.9915 0.1969,1.6745 -0.0101,0.0488 -0.0302,0.156 -0.0428,0.2145 -0.7922,0.139 -1.5442,0.2355 -1.966,0.2458zm6.6595 0.9386c0.8099,0.5146 1.6676,0.9976 2.5943,1.3274 0.7188,0.2279 1.2556,0.4336 2.1023,0.4627 0.3776,0.0129 1.0478,0.0475 1.5854,-0.0611 0.4697,-0.0948 1.2139,-0.4232 1.2501,-0.9698l-0.368 0.2941c-0.3167,0.2532 -0.9554,0.3743 -1.3526,0.403 -0.4504,0.0325 -0.9053,-0.0171 -1.3579,-0.0454 -0.9562,-0.0597 -2.0929,-0.396 -3.101,-0.8816 0.0047,-0.1022 0.0145,-0.2652 0.0178,-0.3176 0.0436,-0.6861 0.2362,-1.1057 0.5671,-1.7163 0.401,-0.74 1.1556,-1.2356 1.9331,-1.3423 0.7887,-0.1082 0.8669,-0.0056 1.528,0.1375 -0.2565,-0.4644 -1.4467,-1.3017 -1.9746,-1.6282 -0.2763,-0.1709 -0.6854,-0.1436 -1.0472,-0.0854 -0.781,0.1256 -1.3743,0.4873 -1.9304,1.0343 -0.5544,0.5455 -0.9401,1.334 -0.984,2.0954 -0.0221,0.3832 0.0257,0.4825 0.1183,0.5602 0.5183,0.4351 0.9322,0.7488 1.3859,1.0657 -0.479,-0.2581 -0.9168,-0.5486 -1.276,-0.8562l-1.5119 -1.3289c-0.0011,0.2757 0.0246,0.3282 0.1636,0.4863 0.5476,0.4012 1.1147,1.021 1.6578,1.3661zm-0.5214 -15.3272c-0.3141,0.0615 -0.4132,0.1861 -0.4656,0.4931 -0.2898,-0.1233 -0.5919,-0.3504 -0.6772,-0.4104 -0.1483,-0.1042 -0.3327,-0.1656 -0.5292,0.0422 -0.0764,0.0809 -0.248,0.2537 -0.2643,0.3389l1.0923 0.0274c-0.5637,0.04 -1.1009,-0.0446 -1.4168,0.1616 -1.0006,0.6532 -0.361,1.0209 -0.3646,1.4511 -0.0205,0.449 -0.2689,0.3605 0.1445,1.0124 0.0591,0.0931 0.1427,0.1756 0.1943,0.2826 0.1032,0.2142 -0.0884,1.0566 1.4448,1.3036 0.3711,0.0598 0.3944,0.1268 0.7486,-0.0552l0.7446 -0.4257c0.2912,-0.1665 0.2334,-0.509 0.0683,-0.4907 -0.1358,0.0151 -0.3167,0.2316 -0.6881,0.3298 -0.1724,0.0456 -0.3288,0.0309 -0.4361,0.1214 -0.1833,0.1547 -0.0734,0.1651 -0.3696,0.2595 0.0599,-0.108 0.1648,-0.1812 0.2638,-0.2778 -0.2551,-0.053 -0.6688,-0.0051 -0.8035,-0.2071 0.5716,0.0751 1.0022,0.2118 1.5737,-0.0674 0.4134,-0.2019 0.7803,-0.5293 0.9855,-0.8823 -0.8459,-0.1759 -0.8445,-0.1826 -1.422,-0.8427 -0.2252,-0.2574 -0.3311,-0.5017 -0.3739,-0.7651 -0.032,-0.1964 0.0111,-0.3965 0.0484,-0.6238 -0.0385,0.4415 0.0196,0.8687 0.2901,1.2268 0.4951,0.6555 0.7249,0.8259 1.575,0.9357 0.6349,0.082 0.7583,-0.1333 0.8707,-0.6805l-1.0436 0.054c0.181,0.1643 0.381,0.1098 0.5428,0.2066 -0.1397,0.0722 -0.2507,0.022 -0.3968,-0.0301 -0.1499,-0.0534 -0.2365,-0.0708 -0.2353,-0.2048 0.0009,-0.1015 0.004,-0.0906 0.092,-0.0939 0.5264,-0.0197 1.8956,0.0413 1.8056,-0.6238 -0.0302,-0.2235 -0.2158,-0.7577 -0.3336,-0.8671 -0.2962,0.4062 -0.5397,0.5374 -0.754,0.7639 0.7817,0.3038 0.6706,-0.2111 0.7193,-0.2892 0.1953,0.5931 -0.7033,0.6811 -1.3476,-0.1488 -0.165,-0.2125 -0.3725,-0.4711 -0.4487,-0.7863 -0.077,-0.3185 0.0199,-0.8533 0.4356,-0.6553 -0.4301,0.0579 -0.4869,0.3547 -0.3309,0.71l0.6196 -0.6834c-0.0869,-0.0798 -1.0189,-0.4794 -1.1803,0.178 -0.0557,0.2267 -0.064,0.9279 -0.1937,1.2369 -0.0595,0.1417 -0.0026,0.0625 -0.1189,0.1392l0.052 -0.2896c0.113,-0.204 0.1853,-0.6614 0.135,-0.9266l-0.2521 0.0528zm-0.2337 -1.6661c0.5374,0.3092 1.7755,0.5265 2.0299,0.9504 -0.0297,0.3302 -0.5651,0.8588 -0.8275,1.1048 0.1268,0.3949 0.4811,0.7959 0.8197,1.0018 0.4503,-0.1939 0.8587,-0.8156 1.0941,-1.2237 0.2705,-0.4688 0.5588,-0.9335 0.2134,-1.3955 -0.1385,-0.173 -0.4605,-0.4122 -0.8348,-0.5938 -0.6517,-0.316 -1.5847,-0.5786 -2.2351,-0.865 -0.1634,-0.072 -0.4151,-0.2839 -0.5661,-0.3374 -0.2088,-0.074 -0.4385,0.0666 -0.5195,0.0945 -0.5583,0.1926 -0.2212,0.8944 0.8259,1.2639zm2.1416 -9.9411c0.0873,-0.1198 0.1815,-1.1608 0.2104,-1.4599 0.0223,-0.2307 0.1054,-1.1277 -0.0539,-1.3183 -0.0623,-0.0745 -0.1731,-0.0827 -0.3811,-0.0385 -0.3745,0.0611 -2.0885,1.1144 -2.2539,1.4507 0.389,0.0378 0.8827,0.2521 1.2948,0.4705 0.4471,0.237 0.8725,0.4832 1.1836,0.8953zm-2.3443 6.3091c0.8413,-0.1438 1.3275,0.6637 0.4091,1.2148 -0.2934,0.176 -0.6417,0.262 -1.0249,0.2386 -0.3168,-0.0194 -0.777,0.2822 -1.0105,0.1813 0.2512,-0.1236 0.7659,-0.115 1.1576,-0.5432 0.1931,-0.211 0.6577,-0.6024 0.662,-1.0381 -0.165,-0.0027 -0.1336,-0.0027 -0.1932,-0.0534zm-3.7325 2.0161c0.7815,0.2841 1.7141,0.4722 2.5483,0.3622 0.335,-0.0442 0.6466,-0.116 0.9728,-0.2038 0.7002,-0.1884 1.3958,-0.4853 1.7988,-1.1032 0.3907,-0.5989 0.4193,-1.0726 0.2436,-1.3963 -0.2974,-0.5482 -1.1807,-0.6671 -1.8837,-0.2375 -0.1627,0.0994 -0.4089,0.3372 -0.6011,0.4738 -0.8259,0.587 -1.0269,0.7869 -2.2056,0.3978 -0.4679,-0.1544 -1.3687,-0.5704 -1.8902,-0.5285 -0.1461,0.0117 -0.2679,0.0512 -0.3515,0.1794l0.3265 0.1413c0.0404,0.5938 -0.7736,0.3704 -0.9522,0.5312 0.24,0.6342 1.371,1.1573 1.9944,1.3839zm-0.2983 5.4832c0.6791,0.3654 1.051,0.1418 1.4421,-0.5584 0.2702,-0.4838 0.5613,-1.4997 0.596,-2.0382 0.0233,-0.3608 0.0443,-0.7434 -0.053,-1.0774 -0.0588,-0.2913 -0.3274,-0.6413 -0.4913,-0.7746 -0.2367,-0.1925 -0.5834,-0.3393 -0.9201,-0.396 -0.1938,-0.0326 -0.4653,-0.0584 -0.6352,0.0606 -0.1541,0.1079 -0.5229,0.3288 -0.8025,0.503 -0.3842,0.2392 -1.3766,0.8479 -1.7228,0.8427 -0.3331,-0.0049 -0.9367,-0.487 -1.2356,-0.7029 -0.188,0.4565 -0.4282,0.7878 -0.9158,1.1047 0.382,0.33 1.4164,0.836 1.9039,0.8384 0.0896,-0.0115 1.2136,-0.5391 1.5269,-0.6852 0.0345,-0.3461 0.3432,-1.0657 0.5764,-1.3222 -0.3017,0.5374 -0.5289,1.271 -0.4938,1.9764 0.0471,0.9465 0.4981,1.8497 1.2247,2.229z"/>
  <path class="fil0" d="M44.2074 0.324c3.7052,-0.9139 8.2129,0.1677 10.652,2.4663 0.3293,0.3103 0.6177,0.5401 0.6403,0.6769 -1.234,-0.2666 -4.3005,0.1015 -5.0555,1.2027 1.0048,0.5672 1.6513,0.843 2.7515,2.2018 2.0116,2.4841 2.6117,5.143 2.2308,8.2971 -0.0049,-0.0016 -2.0539,-3.0336 -5.3859,-3.931 0.4854,1.277 0.7908,1.3226 0.9941,3.1933 0.1787,1.6455 0.0468,3.1991 -0.5772,4.6117 -0.2801,0.6344 -0.1594,0.3826 -0.2508,-0.123 -0.17,-0.9404 -0.664,-1.6855 -1.2041,-2.461 -1.0179,-1.4613 -3.4689,-3.0619 -5.3808,-2.7027 0.7675,0.7458 3.3609,0.9612 3.7084,2.0675 0.1714,0.5457 -0.2705,1.0646 -0.4464,1.4126 -0.0383,0.0759 -0.1215,0.1755 -0.1198,0.2242 0.0001,0.0064 0.1183,0.2498 0.1842,0.3942 0.0629,0.1376 0.1605,0.4681 0.1582,0.6006 -0.0031,0.171 -0.106,0.33 -0.4673,0.5047 -0.0388,0.0187 -0.2434,0.0891 -0.244,0.0896 -0.1121,0.1096 -0.0083,0.3052 -0.221,0.57 -0.0502,0.0625 -0.1116,0.1009 -0.2051,0.175 -0.0207,0.0163 -0.2367,1.3721 -0.3777,1.6313 -0.0731,-0.3408 -0.322,-0.8756 -0.4459,-1.2023 -0.0882,0.0625 -0.1691,0.1465 -0.2476,0.2207 0.1976,0.384 -0.0111,0.5771 -0.2972,0.7568 0.1932,0.3308 1.0161,0.753 1.3151,1.0196 -0.7059,-0.0187 -2.1441,-0.6905 -2.5269,-0.5424 0.1132,0.1137 0.9136,2.2238 1.0155,2.5115 0.8731,0.0273 2.442,0.1457 2.6193,1.2746 0.043,0.2737 -0.0938,0.3231 -0.2115,0.5167 0.1185,0.2861 0.3296,0.3682 0.5122,0.5064 0.4386,0.3321 0.2546,0.6086 0.0425,0.8878 0.3374,0.2184 0.4965,0.2336 0.6549,0.3434 0.8425,0.5834 1.3711,0.8879 2.127,1.7394 0.0456,0.0514 0.084,0.1111 0.1395,0.1506 0.7708,0.5502 1.4955,1.1935 1.8081,2.2401 0.1709,0.5724 0.2521,1.4212 -0.3262,1.7609 -0.7691,0.4518 -1.852,0.4831 -2.7255,0.3808 -2.2724,-0.2664 -3.9647,-1.2646 -5.418,-2.5135 -0.2715,-0.2091 -0.6018,-0.5752 -0.8395,-0.7341 -1.936,0.5954 -3.5022,0.8605 -5.3617,0.8674 -0.9909,0.0037 -2.6104,-0.0241 -3.3968,-0.6337 -0.1398,-0.1083 -0.2504,-0.2504 -0.1587,-0.7659 0.1225,-0.6893 0.4457,-1.1334 0.8242,-1.4623 0.7286,-0.633 1.6221,-1.0317 2.4252,-1.3209 0.0845,-0.0304 0.2363,-0.1699 0.2729,-0.2045 0.1306,-0.1235 0.1596,-0.1746 1.0545,-0.3559l0.8718 -0.1389c-0.0359,-0.1476 -0.1824,-0.3187 -0.2598,-0.5134 -0.1631,-0.4299 0.3946,-0.6149 0.6144,-0.9109 -0.295,-0.128 -0.5666,-0.3252 -0.577,-0.58 -0.005,-0.1221 0.0736,-0.3038 0.2444,-0.4893 0.4544,-0.4932 0.8256,-0.4768 1.4346,-0.5581 -0.7214,-3.85 -1.1391,-4.1798 -1.6202,-4.7955 -0.752,-0.9621 -0.8393,-1.5408 -0.8651,-2.6792 -0.1432,0.0709 -0.6925,0.3092 -1.0829,0.4957 -0.4039,0.193 -0.4655,0.2091 -0.7295,0.1455 -1.2012,-0.2894 -1.4089,-0.755 -1.7052,-0.8107 -0.1669,-0.0313 -0.6678,0.0802 -1.0583,0.0255 -0.5016,-0.0703 -0.6969,-0.0907 -0.8794,-0.5979 -0.2328,-0.647 -0.5316,0.01 -0.8808,-0.8741 -0.5151,-0.0536 -0.8247,-0.0875 -1.2873,-0.3822 -0.2663,-0.1696 -0.4479,-0.2676 -0.563,-0.3546 -0.1961,-0.1481 -0.2043,-0.222 -0.6532,-1.1329 -0.1298,-0.2634 0.0669,-0.3609 0.1219,-0.431 -0.1996,-0.5395 -0.3828,-1.227 0.282,-1.505 -0.0858,-0.8389 0.2147,-0.8567 0.6635,-1.0912 0.0686,-0.5778 0.0579,-0.6159 0.5764,-0.8216 0.5507,-0.2185 0.6555,-0.4425 1.0005,-0.4054 0.9044,0.3697 1.2002,0.4811 1.2936,0.5767 0.1095,0.1122 0.0129,0.2207 0.1582,0.5324 0.1546,-0.3967 0.2202,-0.7636 0.3356,-1.0236 0.1376,-0.3101 0.33,-0.4883 0.6068,-0.6574 0.3236,-0.1976 0.7248,-0.3146 1.1032,-0.2613 0.3343,0.0472 0.6036,0.2026 0.6431,0.5718 0.0114,0.1063 -0.0622,0.1627 -0.3511,0.519 -0.2518,0.3106 -0.864,1.0469 -0.9607,1.4263 -0.0692,0.2716 0.0714,0.6067 0.0961,0.8978 0.0263,0.4801 -0.0511,0.5934 -0.076,0.9906 0.7263,0.1683 0.6978,0.4967 0.6589,0.7853 -0.0133,0.099 -0.0665,0.256 -0.0695,0.3278 -0.0002,0.0037 0.1941,0.1541 0.2358,0.1976 0.5791,0.6044 0.1419,0.7942 0.0461,1.4428 0.1813,0.1835 0.9506,0.806 1.2188,0.7408 0.2347,-0.0571 0.4887,-0.1493 0.7785,-0.295 0.167,-0.0839 1.3158,-0.7713 1.3812,-0.818 0.3552,-0.2538 0.7864,-0.4575 1.2017,-0.654 -0.6508,-0.202 -0.8821,-0.2527 -1.4569,-0.5801 -0.531,-0.3024 -0.7643,-0.5712 -1.1178,-1.0377 -0.1334,-0.1759 -1.4304,-0.0403 -1.2419,-1.0788 0.1834,-0.3202 0.729,0.0358 0.9144,0.0865 -0.0698,-0.2428 -0.2232,-0.4824 -0.3065,-0.7634 -0.2388,-0.8055 -0.2327,-1.6481 -0.2874,-1.7837 -0.2617,-0.649 -0.5,-1.2035 -0.3597,-1.9401 0.0882,-0.4632 -0.3406,-1.0046 -0.6313,-1.9537 -0.1231,-0.4018 -0.3941,-1.2872 -0.1744,-1.674 0.3236,-0.0661 2.257,0.6271 2.9403,0.7063 1.1746,-1.4056 2.7215,-2.7249 5.5338,-3.4186zm1.5019 16.0654c0.2695,-0.328 -0.2191,-0.5122 -0.4809,-0.6289 0.1654,0.1327 0.3963,0.4719 0.4809,0.6289zm-3.7099 7.116c-0.0803,-0.234 -0.2115,-0.704 -0.3648,-1.2929 -0.1533,-0.589 -0.3289,-1.2969 -0.4058,-1.6451 -0.0769,-0.3482 -0.0553,-0.3366 0.0222,-0.2478 0.0775,0.0887 0.2108,0.2545 0.3492,0.4413 0.1385,0.1868 0.2628,0.358 0.3971,0.6941 0.1343,0.3361 0.3195,0.7418 0.4636,1.1352 0.1442,0.3934 0.3015,0.7612 0.3713,0.9826 0.0698,0.2214 0.0816,0.2919 0.0835,0.3281 0.002,0.0362 -0.0059,0.0382 -0.0822,0.0206 -0.0764,-0.0177 -0.2212,-0.0548 -0.3485,-0.0891 -0.1273,-0.0343 -0.237,-0.0656 -0.3065,-0.0802 -0.0695,-0.0147 -0.0989,-0.0128 -0.1792,-0.2467z"/>
  <path class="fil1" d="M39.7667 7.8645c0.0508,-0.2887 0.547,-1.0422 0.7438,-1.3326 0.3434,-0.45 0.5923,-0.6959 1.0665,-0.9847 0.7414,-0.4517 1.5887,-0.7431 2.3933,-0.1815 0.3673,0.2563 0.7558,0.7236 0.8607,1.1483 -0.1984,-0.3692 -0.7225,-0.8801 -1.1295,-1.0859 -1.1436,-0.5783 -2.3601,0.3426 -3.0384,1.0998 -0.3104,0.3466 -0.7097,1.1668 -0.8964,1.3366zm4.0628 13.738c0.6355,0.1862 1.2413,0.4413 1.8933,0.5357 -0.4189,-0.2722 -0.8143,-0.5503 -1.2215,-0.8959l-0.6718 0.3602zm1.7548 -0.3042c0.1126,-0.1513 0.309,-1.2774 0.3106,-1.5019 -0.1792,0.0426 -0.311,0.049 -0.4907,0.0272 -0.0534,0.1529 -0.2079,0.2352 -0.2185,0.3186 0.0171,0.1899 0.3913,0.9049 0.3985,1.156zm-4.1883 -3.6039c-0.0425,0.1076 0.5448,-0.37 0.6286,-0.4437 0.3634,-0.3198 0.3337,-0.6656 0.9631,-0.4037l0.1125 -0.1442 -0.0439 0.2163c0.2014,0.0979 0.218,0.2152 0.5073,0.2766 0.0653,-0.4752 0.3911,-0.4296 0.7879,-0.5391 0.0979,-0.3202 0.2129,-0.4786 0.6058,-0.4857l0.5506 0.1037c-0.1119,-0.4133 -0.5699,-0.615 -1.0387,-0.7832 -0.257,-0.0922 -0.5173,-0.2093 -0.7255,-0.2643 -0.0409,0.1124 -0.0933,0.2749 -0.1255,0.3903 -0.037,0.1323 -0.0732,0.3326 -0.1559,0.3448l0.1359 -0.4589 0.0874 -0.3323c-0.4191,-0.1455 -1.3254,-0.6468 -0.9204,-1.2348l-0.7325 0.0447c-0.4713,0.0424 -1.0977,-0.127 -1.5915,-0.2058 -0.2231,0.105 -0.4113,0.1858 -0.5619,0.2606 -0.13,0.0646 -0.1884,0.0914 -0.1939,0.1053 -0.0087,0.0217 0.1088,-0.0149 0.2932,-0.0136 0.0795,0.0005 0.1775,0.0188 0.2732,0.0343 0.3753,0.0966 0.6056,0.183 0.8613,0.391 0.1639,0.1333 0.4354,0.4921 0.4942,0.7834 0.0973,0.334 0.0807,0.7254 0.0574,1.0862 -0.0203,0.3143 -0.1454,0.9599 -0.2687,1.272zm-0.2395 6.7768c0.4602,0.1635 0.6022,0.1314 1.0316,-0.0429 -0.0887,-0.337 -0.2396,-0.6489 -0.3329,-1.0232 -0.3224,-1.2943 -0.4762,-1.7081 -1.2352,-3.0631 -0.0771,-0.1376 -0.3353,-0.4709 -0.3216,-0.5937 0.9364,-0.0689 1.5852,1.2515 1.8817,1.9533 0.3418,0.8089 0.8728,2.262 1.2416,3.2898 0.1995,0.5558 0.1871,0.4077 1.5029,0.6081 -0.1835,-0.5558 -1.3776,-3.4034 -1.5753,-3.9304 -0.2213,-0.1165 -0.5202,-0.1776 -0.734,-0.2425 -0.6127,-0.186 -0.7322,-0.5353 -0.876,-1.0925 -0.0676,-0.2621 -0.443,-0.5719 -0.4567,-0.8868 -0.0111,-0.2539 0.2872,-0.6109 -0.1273,-1.0341 -0.6571,0.9209 -0.8148,1.1865 -1.9521,0.3894 1.1017,1.4433 1.3943,3.4719 1.7498,5.3896 0.0433,0.2376 -0.0063,0.245 0.2034,0.2788zm-3.8251 -18.3987c0.2169,-0.3551 0.4415,-0.8087 0.6831,-1.1941 -0.1816,0.34 -0.3431,0.7213 -0.562,1.2509 0.1161,0.2762 0.4705,0.4194 0.5849,0.8758 -0.1181,-0.0971 -0.1839,-0.2081 -0.2922,-0.359 -0.2014,-0.2804 -0.8245,-0.9844 -1.0493,-0.3014 -0.1404,0.3455 -0.1445,0.4916 -0.145,0.718 -0.0002,0.0916 -0.003,0.1965 0.0027,0.3332 0.0734,-0.1153 0.0678,-0.1071 0.0978,-0.235 0.0727,-0.3095 0.284,-0.2597 0.3594,-0.1391 0.7426,0.748 0.7086,3.2525 1.522,3.6331 -0.0776,-0.217 -0.1501,-0.3997 -0.1965,-0.6258 -0.0813,-0.3954 -0.1964,-1.0803 0.046,-1.3274 -0.0872,0.2115 -0.0643,0.8856 0.0824,1.4366 0.0756,0.2841 0.1432,0.5431 0.3316,0.6732 0.4365,0.3016 0.6256,-0.0272 0.773,-0.355 0.1319,-0.2931 0.2949,-0.6987 0.3671,-0.988 0.2296,-0.7127 0.5032,-1.6018 0.9501,-2.2385 0.4382,-0.6243 0.9384,-1.0945 1.7463,-1.2071 0.6277,-0.0874 1.0755,0.3817 1.4112,0.777 0.0904,0.1064 0.1744,0.304 0.2477,0.4765 0.1477,0.3477 0.2547,0.8137 0.2783,1.215 0.0329,0.5575 -0.2173,1.6957 -0.5811,2.0849 -0.0527,0.0563 -0.1077,0.097 -0.1647,0.1179 0.0951,0.0198 0.0591,0.0446 0.1822,0.01 0.4877,-0.1376 1.3044,-0.1151 1.567,0.5433 0.4034,1.0122 -0.9998,2.2421 -0.9969,2.2502 0.8446,-0.5431 1.3011,-1.059 1.8812,-2.0132 0.1025,0.1093 -0.0482,0.9253 -0.0702,1.1205 0.9121,0.4607 2.5219,2.669 3.0808,3.7475 0.1359,0.2624 0.7988,2.0715 0.8358,2.7971 0.6626,-1.4004 0.8165,-3.1857 0.6167,-4.9837 -0.1219,-1.0975 -0.5258,-2.1771 -1.1699,-3.0722 -0.471,-0.6547 -1.0668,-1.3663 -1.076,-1.4149 0.4593,-0.0311 1.7267,0.415 2.1353,0.5959 2.1428,0.9494 3.701,2.4615 4.5546,4.6181 0.0956,-0.1393 0.0745,-0.8579 0.0741,-1.0513 -0.0055,-2.8859 -0.6718,-4.7062 -2.2097,-6.7577 -0.6246,-0.833 -1.8422,-1.7599 -2.7316,-2.2265 -0.6463,-0.3391 -1.849,-0.5138 -2.172,-0.7682 0.4631,-0.0254 0.4093,0.1327 0.7988,-0.0933 0.5478,-0.3179 1.4288,-0.6812 2.0307,-0.8413 1.5827,-0.4211 2.7178,-0.4519 4.1916,0.2064 -0.1558,-0.2982 -1.6664,-1.3725 -1.885,-1.5157 -2.1988,-1.4407 -5.68,-2.022 -8.3123,-1.6266 -1.0652,0.16 -2.6195,0.6913 -3.729,1.305 -1.2186,0.674 -2.4897,1.8575 -3.228,3.0458 -0.0472,-0.2306 -0.5271,-0.631 -0.7448,-0.7984 -0.4545,-0.3494 -1.1923,-0.7052 -1.6699,-0.6555 -0.2188,0.3271 0.1295,1.3083 0.2289,1.6812 0.1475,0.5532 0.4171,0.9956 0.6046,1.4738 0.2727,-0.3679 0.2723,-0.3349 0.7201,-0.1978zm9.4758 -3.839c-0.002,-0.2801 -0.0182,-0.5858 -0.1016,-0.8178 -0.0481,-0.1338 -0.0388,-0.1287 -0.1724,-0.1006 -0.8064,0.1696 -2.1084,1.1548 -2.6107,1.4636 -0.2589,0.187 -0.4875,0.3549 -0.7334,0.5559 -0.2265,0.1851 -0.45,0.3744 -0.6566,0.5875 0.1022,-0.5444 1.8094,-1.5454 2.0974,-1.7603 0.3129,-0.2027 1.4018,-0.8394 1.886,-0.9402 0.1502,-0.0313 0.205,-0.0256 0.2702,0.1208 0.1279,0.287 0.0955,0.787 0.1233,1.097 0.0222,0.2476 -0.0048,0.3785 0.0472,0.6185 0.1428,0.6586 0.2751,1.1767 0.0625,1.7397 -0.0522,0.1381 -0.3727,0.8131 -0.4358,0.9027 -0.0874,-0.1014 -0.0123,-0.2212 0.019,-0.3488 0.0778,-0.3175 0.102,-0.8433 0.1458,-1.1981 0.0785,-0.6372 0.0634,-1.2803 0.059,-1.9198zm-0.9005 3.6249c-0.0071,-0.4991 0.1976,-0.4548 -0.1816,-0.8191 -0.4828,-0.3559 -0.827,-0.6007 -1.3748,-0.8638 -1.1262,-0.5411 -0.9946,-0.1381 -1.2937,0.0086 0.07,-0.2387 0.5856,-0.5867 0.778,-0.7391 0.3508,-0.278 1.4377,-1.0901 2.0437,-1.1513 0.1944,-0.0196 0.3019,0.005 0.3614,0.1985 0.1685,0.5047 -0.2107,3.1857 -0.333,3.3662zm3.2513 23.4752c-0.9338,-0.0809 -1.7654,0.3284 -2.3233,1.0113 -0.1969,0.241 -0.6293,1.0652 -0.7551,1.6924 -0.0191,0.095 -0.0756,0.4728 -0.0414,0.5403 0.0914,0.1803 0.9216,0.4925 1.7086,0.6845 0.6312,0.1541 1.2201,0.208 1.4874,0.2275 0.6923,0.0508 1.7231,0.0858 2.2733,-0.2112 0.6503,-0.3511 0.6961,-0.7064 0.533,-1.4098 -0.1926,-0.8303 -0.8947,-1.5347 -1.5362,-2.0517 -0.3137,-0.2529 -0.8253,-0.4603 -1.3464,-0.4834zm-7.1403 -0.6642c0.157,0.5158 0.1953,1.1323 0.0791,1.6694l0.5635 -0.2161c-0.0186,-0.9252 0.0544,-1.3989 0.3563,-2.4212 -0.1864,-0.1038 -0.2387,-0.1544 -0.3874,-0.2988 -0.7777,0.2834 -0.7541,-0.0528 -1.4237,-0.1022 0.4123,0.3905 0.6457,0.8217 0.8122,1.3689zm-7.6016 2.0569c0.8877,0.3557 1.8153,0.4051 2.7802,0.4255 0.7419,0.0156 1.9784,-0.1035 2.6189,-0.2329 0.2321,-1.0169 0.1553,-1.3961 -0.4435,-2.2784 -0.2762,-0.3705 -0.6485,-0.7451 -1.0787,-0.9792 -0.2738,-0.149 -0.6592,-0.2088 -0.8821,-0.2389 -0.4267,0.003 -1.8074,0.7598 -2.1324,0.9677 -0.4117,0.2634 -0.7868,0.6311 -1.041,1.0282 -0.2874,0.4486 -0.4974,1.1054 0.1787,1.3081zm9.8479 -0.9672c0.2682,-0.596 0.6486,-1.02 1.0715,-1.3515 0.5334,-0.4181 0.829,-0.6245 1.6652,-0.7613l0.5796 -0.0408c-0.1591,-0.1433 -0.2439,-0.1876 -0.3838,-0.1495 -0.6029,0.164 -1.2072,0.3134 -1.8139,0.4774 -1.0899,0.3315 -1.1497,0.5348 -2.2723,-0.1369 -0.2632,0.3213 -0.3877,1.6223 -0.3766,2.131 0.0083,0.3841 0.9347,1.0392 1.2417,1.2744 -0.0234,-0.552 0.0794,-1.0301 0.2886,-1.4428zm-9.498 -17.6024c0.6589,-1.5863 -0.5583,-1.4739 0.6108,-2.9082l0.7269 -0.8675c0.2685,-0.3645 -0.3354,-0.9722 -1.3766,-0.5383 -0.7257,0.3024 -0.8203,0.7707 -0.9796,1.3709 -0.0552,0.2077 -0.2144,0.374 -0.1867,0.5788 0.0433,0.3199 0.255,0.5926 0.2233,0.9154 -0.0515,0.525 -0.4277,0.4894 -0.7304,0.5501 0.1427,0.3971 0.0752,0.4585 -0.0471,0.7995 0.5127,0.1143 0.9475,0.7663 0.6913,1.526 -0.0613,0.1819 -0.1699,0.4348 -0.3617,0.4708 0.158,-0.2345 0.2443,-0.2481 0.3235,-0.6257 0.1182,-0.563 -0.0698,-0.9812 -0.5607,-1.2608 -0.2487,-0.1416 -0.1068,0.0323 -0.7788,-0.0591 0.0296,0.1608 0.0759,0.2358 0.0795,0.3728 0.0042,0.1586 -0.0539,0.2424 -0.21,0.3011 -0.0809,0.0304 -0.1914,0.065 -0.3707,0.0246 0.1052,0.2339 0.1549,0.2587 0.0651,0.3808 -0.0173,-0.1075 -0.3006,-0.7557 -0.3912,-0.8474 -0.0806,-0.0814 -0.6774,-0.327 -0.8434,-0.3904 -0.3462,-0.1322 -0.6443,0.1309 -0.86,0.2861 0.1378,-0.125 0.3146,-0.312 0.4808,-0.3694 0.2489,-0.086 0.8999,0.1926 1.2004,0.3879 0.2495,0.1622 0.1855,0.3656 0.4015,0.4956 0.1438,0.0865 0.477,-0.0561 0.4483,-0.3192 -0.0251,-0.2304 -0.1837,-0.5752 -0.253,-0.9024 -0.0623,-0.2945 -0.0312,-0.4067 -0.2918,-0.5052 -0.211,-0.0798 -0.4237,-0.1224 -0.6132,-0.223 -0.6595,-0.3499 -0.5246,-0.3702 -0.8607,-0.177 -0.093,0.0534 -0.1864,0.1011 -0.283,0.1477 0.0525,-0.0677 0.102,-0.155 0.1479,-0.1865 0.1715,-0.1175 0.3317,-0.2395 0.6261,-0.0928 0.3041,0.1515 0.4407,0.2597 0.8025,0.3923 0.4946,0.1812 0.4158,0.0996 0.5495,0.6471 0.0286,0.1172 0.0748,0.3715 0.1477,0.4485 0.1097,0.1158 0.3952,0.1068 0.5149,0.0619 0.498,-0.2244 0.0815,-0.9018 -0.0639,-1.5145 -0.0686,-0.2892 -0.289,-0.3354 -0.6891,-0.6195 -0.7768,-0.5513 -0.3563,-0.2168 -1.2606,-0.1538 -0.0367,0.0026 -0.0735,0.0063 -0.1101,0.0112 0.1232,-0.0496 0.2219,-0.0861 0.348,-0.1244 0.2212,-0.0671 0.4743,-0.1737 0.6348,-0.106 0.1322,0.0557 0.4182,0.3151 0.5844,0.4135 0.856,0.5068 0.4348,0.5696 0.778,1.2034 0.2426,0.02 0.5313,-0.0459 0.6422,-0.2914 0.1296,-0.2866 -0.0971,-0.7149 -0.1844,-1.0726 -0.2038,-0.835 0.1387,-0.6504 -0.7627,-0.9868 -0.1821,-0.068 -0.4656,-0.1974 -0.6343,-0.2467 -0.2117,-0.0618 -0.3298,0.0808 -0.6095,0.2244 -0.5268,0.2705 -0.8255,0.1843 -0.8853,0.7775 -0.0037,0.0363 -0.0247,0.1631 -0.0319,0.2303 -0.2691,0.0589 -0.5114,0.1932 -0.6245,0.4375 -0.0757,0.1634 -0.0668,0.4258 -0.0278,0.6027 -0.1979,0.1073 -0.3615,0.2362 -0.4385,0.4298 -0.0959,0.2412 0.0413,0.8786 0.2057,1.0582 -0.1576,0.1115 -0.2543,0.182 -0.2058,0.2937 0.1539,0.355 0.3811,0.889 0.5891,1.1366 0.1612,0.1918 0.2762,0.1487 0.6115,0.3715 0.4008,0.2664 0.8814,0.4021 1.3686,0.4153 0.004,0.0653 0.0337,0.179 0.046,0.219 0.0642,0.2081 0.2998,0.2798 0.6361,0.3811 0.2515,0.0758 0.6911,0.2145 0.885,0.3093 -0.1378,0.0221 -0.5806,-0.1463 -0.7645,-0.1875 0.1719,0.7631 0.6803,0.7798 1.5416,0.7345 0.8155,-0.0428 1.2815,-0.8783 1.4834,-1.5872 0.1215,-0.4271 0.2308,-0.6227 -0.0819,-0.9246 -0.1122,-0.1082 -0.2378,-0.2214 -0.2975,-0.2571 -0.0645,0.3272 -0.3804,0.7789 -0.4668,1.0921 -0.0454,0.1651 -0.0441,0.1951 0.1247,0.1461 0.2704,-0.0786 0.2564,-0.3066 0.4696,-0.3796 -0.0966,0.2732 -0.386,0.5021 -0.5195,0.5055 -0.6368,0.0164 0.7257,-1.5726 0.4358,-2.1 -0.1104,-0.2009 -0.3579,-0.3328 -0.6442,-0.3696 -0.049,0.1162 -0.1567,0.2484 -0.2004,0.3875 -0.1699,0.5401 -0.1567,0.6997 -0.5743,1.2595 -0.2582,0.346 -0.7884,0.7227 -1.3932,0.8022 -0.1343,0.0176 -0.2927,-0.0131 -0.4449,-0.0343 0.5749,-0.0307 1.1423,-0.2303 1.5815,-0.586 0.2534,-0.2053 0.6749,-0.8477 0.7374,-1.336 -0.122,0.0979 -0.2471,0.2827 -0.4723,0.2966 0.3035,-0.2364 0.4896,-0.4014 0.6432,-0.7465zm2.8351 -0.7534c-0.0708,-0.1664 -0.5774,-0.3563 -0.7604,-0.304 -0.0737,0.2343 0.3748,0.3477 0.5639,0.3638 0.1234,0.0106 0.1417,-0.0131 0.1965,-0.0599zm4.8907 -1.8172c0.0632,0.0473 0.1735,0.0359 0.2514,-0.1224 -0.0004,-0.1949 -0.0439,-0.3591 -0.175,-0.4242 -0.1079,-0.0536 -0.1503,-0.0491 -0.1846,0.056 -0.066,0.2016 0.0017,0.3598 0.1082,0.4907zm-4.4621 0.8449c0.1533,-0.0204 0.0869,-0.0888 0.0237,-0.2272 -0.0469,-0.1028 -0.1024,-0.2093 -0.1089,-0.3203 -0.064,-0.032 -0.1034,0.0627 -0.0988,0.1874 0.003,0.0802 0.0368,0.2292 0.0742,0.2968 0.0355,0.0644 0.0392,0.0728 0.1098,0.0634zm4.2804 -2.0718c0.2107,-0.1043 0.4627,0.2051 0.535,0.3601 0.2194,0.47 0.5436,1.9976 0.1192,2.2302 -0.7243,0.397 -1.2462,-2.2973 -0.6543,-2.5904zm-2.6001 1.9553c-0.1483,0.3771 -0.2528,0.7225 -0.7329,0.6715 -0.1214,-0.0301 -0.2228,-0.1272 -0.3331,-0.1923 -0.0731,-0.0431 -0.1366,-0.0749 -0.2243,-0.0873 0.0239,0.1611 0.0937,0.2721 0.0845,0.4087 -0.0106,0.1561 -0.0891,0.2069 -0.2315,0.1237 -0.2335,-0.1363 -0.5132,-0.7903 -0.58,-1.0407 -0.0686,-0.257 -0.1927,-0.67 -0.008,-0.8849 0.0108,-0.1024 -0.0149,-0.181 -0.0298,-0.2615 -0.1007,-0.5428 -0.2624,-1.0833 -0.5095,-1.6965 -0.0752,0.3915 -0.1057,0.6181 -0.1136,1.0173 -0.0163,0.8176 0.0017,1.4936 0.3356,2.2777 0.2246,0.5276 0.1619,0.5668 0.8381,0.7591 0.3855,0.1097 0.2267,-0.0943 0.5657,-0.1667 0.2177,-0.0465 0.4969,-0.0014 0.6968,0.0542 0.6061,0.1687 1.872,0.7829 2.4691,0.6439 0.3137,-0.0731 0.8019,-0.4165 1.017,-0.5741 0.4429,-0.3245 0.7654,-0.5849 1.0236,-1.0032 0.5226,-0.8467 0.6538,-2.157 0.238,-3.0608 -0.4874,-1.0598 -1.7608,-1.1965 -2.6202,-0.4538 -0.6914,0.5974 -1.5461,2.6031 -1.8853,3.4656zm3.2515 2.5906c0.1599,0.0204 0.2871,0.0149 0.4466,-0.0131 0.1258,-0.0221 0.1956,-0.0287 0.2262,-0.0512 0.0334,-0.0245 -0.0136,-0.1737 -0.1045,-0.3076 0.0985,0.0906 0.1923,0.2476 0.228,0.2515 0.0256,0.0029 0.0719,-0.0171 0.1956,-0.0712 -0.0494,-0.1995 -0.1032,-0.2771 -0.1966,-0.3826 0.1272,0.0896 0.179,0.1485 0.2579,0.3089 0.1587,-0.0591 0.246,-0.1247 0.2943,-0.2819l-0.3343 -0.3039c0.1241,0.0339 0.2626,0.1804 0.4256,0.2438 0.0872,-0.3736 -0.0197,-0.7058 -0.4564,-0.695 -0.1492,0.2389 -0.0448,0.2732 -0.4194,0.7339l-0.563 0.5685zm2.6541 11.843c0.1077,0.0454 0.2654,0.2251 0.3192,0.3943 0.0694,0.2187 -0.0829,0.2947 -0.2651,0.3791 -0.4008,0.1857 -0.9134,0.1367 -1.3714,0.0685 -0.4585,-0.0684 -1.3044,-0.2373 -1.4302,-0.605 0.099,-0.0015 0.3097,0.2455 0.5728,0.3129 -0.0709,-0.3037 -0.1911,-0.4758 -0.2609,-0.7782 -0.1544,0.089 -0.5679,0.4224 -0.7954,0.6632 -0.2761,0.2922 -0.2143,0.6863 0.1501,0.8576 0.2101,0.0987 0.5187,0.1975 0.6557,0.2535 0.2147,0.088 0.3997,0.1655 0.571,0.2586 0.1861,0.1012 0.4456,0.2751 0.1015,0.4154 -0.2388,0.0777 -0.4545,0.1362 -0.7191,0.0884 0.2278,-0.1313 0.6031,-0.0559 0.8068,-0.2389 -0.0937,-0.2183 -0.7894,-0.4922 -1.0026,-0.5101 -0.0948,0.1301 -0.3549,0.4281 -0.3761,0.5244 -0.0545,0.2473 0.132,0.5251 0.2479,0.6321 0.3143,0.2902 1.0209,0.7778 1.4728,0.7183 0.4997,-0.0659 1.3178,-0.4052 1.886,-0.5276 0.2972,-0.0654 1.0163,-0.173 1.2167,-0.4128 0.0925,-0.1106 0.1881,-0.3691 0.0786,-0.5042 -0.1394,-0.2821 -0.4037,-0.3181 -0.5823,-0.5178 -0.097,-0.1085 -0.0328,-0.1026 -0.1593,-0.1925 -0.3022,0.1464 -0.508,0.3299 -0.7055,0.4441 -0.0857,0.0496 -0.1201,0.0852 -0.1434,0.1233 -0.056,0.0917 -0.0356,0.1033 0.0682,0.1476 0.2698,0.1154 0.4927,-0.1602 0.6175,0.0019 -0.2887,0.0592 -0.4992,0.1595 -0.7442,0.0236 -0.0837,-0.0463 -0.1051,-0.05 -0.0562,-0.1385 0.1295,-0.2346 0.6099,-0.4733 0.8189,-0.5947 0.4508,-0.2619 0.4678,-0.4529 0.1896,-0.9753 -0.3331,-0.6255 -1.4469,-0.7738 -2.3269,-0.8173l0.112 0.3377c0.147,0.3485 0.3078,0.676 0.4621,0.9967 0.2584,0.0049 0.9193,-0.0912 0.8185,-0.4551 -0.0395,-0.1423 -0.1359,-0.1828 -0.227,-0.3732zm-6.2259 1.977c0.1649,0.1776 0.7547,0.1011 1.2433,0.1179 0.3446,0.0119 0.8582,0.0418 1.1971,0.0995 -0.2055,0.1086 -0.9599,-0.0184 -1.2607,-0.0272 0.1223,0.1194 0.2775,0.1623 0.4573,0.227 0.5251,0.189 1.1673,0.4436 1.5802,0.1831 -0.1741,-0.4148 -0.1918,-0.4597 0.0728,-0.7641 0.0835,-0.0961 0.1592,-0.2357 0.1898,-0.3108 -0.1435,-0.0649 -0.4908,-0.1843 -0.5787,-0.2903 -0.1169,-0.141 -0.1961,-0.5031 -0.0883,-0.684 0.1928,-0.3235 0.8205,-0.7133 0.9248,-0.8487 -0.0185,-0.0709 -0.0631,-0.2051 -0.0976,-0.2829 -0.0714,-0.1613 -0.071,-0.1318 -0.2555,-0.1762 -0.2444,-0.0589 -0.4519,-0.1351 -0.7111,-0.1623l0.2081 0.5678 0.4371 -0.173c0.171,-0.042 -0.2954,0.1912 -0.4666,0.2787 -0.928,0.4748 -1.4056,-0.2191 -2.2485,-0.2365 0.2955,-0.2061 0.6126,0.1371 0.9116,0.1438 -0.0259,-0.1867 -0.0705,-0.4478 -0.0937,-0.5643 -0.007,-0.141 -0.4487,-0.0361 -0.5544,-0.0187 -0.4676,0.0771 -0.6564,0.2578 -0.8978,0.5162 -0.1165,0.1247 -0.2615,0.3194 -0.1287,0.5556 0.2821,0.5016 1.5681,0.5398 1.8977,0.8835 0.0604,0.063 0.0528,0.0818 -0.0121,0.1458 -0.2153,0.2124 -0.7723,0.1339 -1.2753,0.2077 0.1679,-0.1584 0.8434,0.0037 1.1588,-0.2049 0.119,-0.0787 0.1071,-0.0959 -0.0063,-0.1578 -0.3187,-0.1742 -1.2318,-0.4334 -1.2318,-0.4334 -0.1222,0.0907 -0.1704,0.1453 -0.2975,0.2499 -0.5818,0.4785 -0.4117,0.5449 -0.0742,1.1587zm-1.4604 4.4816c-0.8738,0.0211 -1.4517,0.0264 -2.1035,-0.069 -0.5396,-0.0789 -1.2687,-0.1428 -1.7215,-0.4785 -0.0846,-0.0627 -0.1269,-0.1392 -0.192,-0.2223 -0.029,0.1821 -0.0023,0.3529 0.1195,0.457 0.5077,0.4338 2.0348,0.6548 2.482,0.6494l1.4152 0.0025c0.4307,-0.0171 1.2578,-0.0805 2.0895,-0.2053 1.1582,-0.1739 2.2869,-0.4956 2.7153,-0.6821l-0.0582 -0.4154c-0.4378,0.2278 -1.5303,0.4905 -2.5919,0.6843 0.5497,-0.1233 0.955,-0.2085 1.8471,-0.5102 0.2804,-0.1247 0.2522,-1.4395 -0.1482,-2.2373 -0.2665,-0.5313 -0.6992,-0.9902 -1.2793,-1.1605 -0.3694,-0.1916 -0.4618,-0.0821 -0.863,-0.1127 -0.3873,-0.0295 -0.0391,-0.2759 -1.6148,0.1264 -0.2271,0.058 -0.5824,0.1201 -0.7003,0.3099 0.7434,0.149 0.9039,0.1238 1.3475,0.4981 0.4729,0.3991 0.8385,0.7582 1.0686,1.231 0.312,0.6411 0.3376,0.9915 0.1969,1.6745 -0.0101,0.0488 -0.0302,0.156 -0.0428,0.2145 -0.7922,0.139 -1.5442,0.2355 -1.966,0.2458zm6.6595 0.9386c0.8099,0.5146 1.6676,0.9976 2.5943,1.3274 0.7188,0.2279 1.2556,0.4336 2.1023,0.4627 0.3776,0.0129 1.0478,0.0475 1.5854,-0.0611 0.4697,-0.0948 1.2139,-0.4232 1.2501,-0.9698l-0.368 0.2941c-0.3167,0.2532 -0.9554,0.3743 -1.3526,0.403 -0.4504,0.0325 -0.9053,-0.0171 -1.3579,-0.0454 -0.9562,-0.0597 -2.0929,-0.396 -3.101,-0.8816 0.0047,-0.1022 0.0145,-0.2652 0.0178,-0.3176 0.0436,-0.6861 0.2362,-1.1057 0.5671,-1.7163 0.401,-0.74 1.1556,-1.2356 1.9331,-1.3423 0.7887,-0.1082 0.8669,-0.0056 1.528,0.1375 -0.2565,-0.4644 -1.4467,-1.3017 -1.9746,-1.6282 -0.2763,-0.1709 -0.6854,-0.1436 -1.0472,-0.0854 -0.781,0.1256 -1.3743,0.4873 -1.9304,1.0343 -0.5544,0.5455 -0.9401,1.334 -0.984,2.0954 -0.0221,0.3832 0.0257,0.4825 0.1183,0.5602 0.5183,0.4351 0.9322,0.7488 1.3859,1.0657 -0.479,-0.2581 -0.9168,-0.5486 -1.276,-0.8562l-1.5119 -1.3289c-0.0011,0.2757 0.0246,0.3282 0.1636,0.4863 0.5476,0.4012 1.1147,1.021 1.6578,1.3661zm-0.5214 -15.3272c-0.3141,0.0615 -0.4132,0.1861 -0.4656,0.4931 -0.2898,-0.1233 -0.5919,-0.3504 -0.6772,-0.4104 -0.1483,-0.1042 -0.3327,-0.1656 -0.5292,0.0422 -0.0764,0.0809 -0.248,0.2537 -0.2643,0.3389l1.0923 0.0274c-0.5637,0.04 -1.1009,-0.0446 -1.4168,0.1616 -1.0006,0.6532 -0.361,1.0209 -0.3646,1.4511 -0.0205,0.449 -0.2689,0.3605 0.1445,1.0124 0.0591,0.0931 0.1427,0.1756 0.1943,0.2826 0.1032,0.2142 -0.0884,1.0566 1.4448,1.3036 0.3711,0.0598 0.3944,0.1268 0.7486,-0.0552l0.7446 -0.4257c0.2912,-0.1665 0.2334,-0.509 0.0683,-0.4907 -0.1358,0.0151 -0.3167,0.2316 -0.6881,0.3298 -0.1724,0.0456 -0.3288,0.0309 -0.4361,0.1214 -0.1833,0.1547 -0.0734,0.1651 -0.3696,0.2595 0.0599,-0.108 0.1648,-0.1812 0.2638,-0.2778 -0.2551,-0.053 -0.6688,-0.0051 -0.8035,-0.2071 0.5716,0.0751 1.0022,0.2118 1.5737,-0.0674 0.4134,-0.2019 0.7803,-0.5293 0.9855,-0.8823 -0.8459,-0.1759 -0.8445,-0.1826 -1.422,-0.8427 -0.2252,-0.2574 -0.3311,-0.5017 -0.3739,-0.7651 -0.032,-0.1964 0.0111,-0.3965 0.0484,-0.6238 -0.0385,0.4415 0.0196,0.8687 0.2901,1.2268 0.4951,0.6555 0.7249,0.8259 1.575,0.9357 0.6349,0.082 0.7583,-0.1333 0.8707,-0.6805l-1.0436 0.054c0.181,0.1643 0.381,0.1098 0.5428,0.2066 -0.1397,0.0722 -0.2507,0.022 -0.3968,-0.0301 -0.1499,-0.0534 -0.2365,-0.0708 -0.2353,-0.2048 0.0009,-0.1015 0.004,-0.0906 0.092,-0.0939 0.5264,-0.0197 1.8956,0.0413 1.8056,-0.6238 -0.0302,-0.2235 -0.2158,-0.7577 -0.3336,-0.8671 -0.2962,0.4062 -0.5397,0.5374 -0.754,0.7639 0.7817,0.3038 0.6706,-0.2111 0.7193,-0.2892 0.1953,0.5931 -0.7033,0.6811 -1.3476,-0.1488 -0.165,-0.2125 -0.3725,-0.4711 -0.4487,-0.7863 -0.077,-0.3185 0.0199,-0.8533 0.4356,-0.6553 -0.4301,0.0579 -0.4869,0.3547 -0.3309,0.71l0.6196 -0.6834c-0.0869,-0.0798 -1.0189,-0.4794 -1.1803,0.178 -0.0557,0.2267 -0.064,0.9279 -0.1937,1.2369 -0.0595,0.1417 -0.0026,0.0625 -0.1189,0.1392l0.052 -0.2896c0.113,-0.204 0.1853,-0.6614 0.135,-0.9266l-0.2521 0.0528zm-0.2337 -1.6661c0.5374,0.3092 1.7755,0.5265 2.0299,0.9504 -0.0297,0.3302 -0.5651,0.8588 -0.8275,1.1048 0.1268,0.3949 0.4811,0.7959 0.8197,1.0018 0.4503,-0.1939 0.8587,-0.8156 1.0941,-1.2237 0.2705,-0.4688 0.5588,-0.9335 0.2134,-1.3955 -0.1385,-0.173 -0.4605,-0.4122 -0.8348,-0.5938 -0.6517,-0.316 -1.5847,-0.5786 -2.2351,-0.865 -0.1634,-0.072 -0.4151,-0.2839 -0.5661,-0.3374 -0.2088,-0.074 -0.4385,0.0666 -0.5195,0.0945 -0.5583,0.1926 -0.2212,0.8944 0.8259,1.2639zm2.1416 -9.9411c0.0873,-0.1198 0.1815,-1.1608 0.2104,-1.4599 0.0223,-0.2307 0.1054,-1.1277 -0.0539,-1.3183 -0.0623,-0.0745 -0.1731,-0.0827 -0.3811,-0.0385 -0.3745,0.0611 -2.0885,1.1144 -2.2539,1.4507 0.389,0.0378 0.8827,0.2521 1.2948,0.4705 0.4471,0.237 0.8725,0.4832 1.1836,0.8953zm-2.3443 6.3091c0.8413,-0.1438 1.3275,0.6637 0.4091,1.2148 -0.2934,0.176 -0.6417,0.262 -1.0249,0.2386 -0.3168,-0.0194 -0.777,0.2822 -1.0105,0.1813 0.2512,-0.1236 0.7659,-0.115 1.1576,-0.5432 0.1931,-0.211 0.6577,-0.6024 0.662,-1.0381 -0.165,-0.0027 -0.1336,-0.0027 -0.1932,-0.0534zm-3.7325 2.0161c0.7815,0.2841 1.7141,0.4722 2.5483,0.3622 0.335,-0.0442 0.6466,-0.116 0.9728,-0.2038 0.7002,-0.1884 1.3958,-0.4853 1.7988,-1.1032 0.3907,-0.5989 0.4193,-1.0726 0.2436,-1.3963 -0.2974,-0.5482 -1.1807,-0.6671 -1.8837,-0.2375 -0.1627,0.0994 -0.4089,0.3372 -0.6011,0.4738 -0.8259,0.587 -1.0269,0.7869 -2.2056,0.3978 -0.4679,-0.1544 -1.3687,-0.5704 -1.8902,-0.5285 -0.1461,0.0117 -0.2679,0.0512 -0.3515,0.1794l0.3265 0.1413c0.0404,0.5938 -0.7736,0.3704 -0.9522,0.5312 0.24,0.6342 1.371,1.1573 1.9944,1.3839zm-0.2983 5.4832c0.6791,0.3654 1.051,0.1418 1.4421,-0.5584 0.2702,-0.4838 0.5613,-1.4997 0.596,-2.0382 0.0233,-0.3608 0.0443,-0.7434 -0.053,-1.0774 -0.0588,-0.2913 -0.3274,-0.6413 -0.4913,-0.7746 -0.2367,-0.1925 -0.5834,-0.3393 -0.9201,-0.396 -0.1938,-0.0326 -0.4653,-0.0584 -0.6352,0.0606 -0.1541,0.1079 -0.5229,0.3288 -0.8025,0.503 -0.3842,0.2392 -1.3766,0.8479 -1.7228,0.8427 -0.3331,-0.0049 -0.9367,-0.487 -1.2356,-0.7029 -0.188,0.4565 -0.4282,0.7878 -0.9158,1.1047 0.382,0.33 1.4164,0.836 1.9039,0.8384 0.0896,-0.0115 1.2136,-0.5391 1.5269,-0.6852 0.0345,-0.3461 0.3432,-1.0657 0.5764,-1.3222 -0.3017,0.5374 -0.5289,1.271 -0.4938,1.9764 0.0471,0.9465 0.4981,1.8497 1.2247,2.229z"/>
 </g>
</svg>
