<?xml version="1.0" encoding="UTF-8"?>
<!DOCTYPE svg PUBLIC "-//W3C//DTD SVG 1.1//EN" "http://www.w3.org/Graphics/SVG/1.1/DTD/svg11.dtd">
<!-- Creator: CorelDRAW 2020 (64-Bit) -->
<svg xmlns="http://www.w3.org/2000/svg" xml:space="preserve" width="156.409mm" height="68.4386mm" version="1.1" style="shape-rendering:geometricPrecision; text-rendering:geometricPrecision; image-rendering:optimizeQuality; fill-rule:evenodd; clip-rule:evenodd"
viewBox="0 0 78.593 34.3893"
 xmlns:xlink="http://www.w3.org/1999/xlink"
 xmlns:xodm="http://www.corel.com/coreldraw/odm/2003">
 <defs>
  <style type="text/css">
   <![CDATA[
    .fil1 {fill:#FEFEFE}
    .fil0 {fill:#2B2A29}
   ]]>
  </style>
 </defs>
 <g id="Слой_x0020_1">
  <metadata id="CorelCorpID_0Corel-Layer"/>
  <path class="fil0" d="M37.2655 10.9566c-2.4425,-1.172 -4.2328,-1.4068 -6.9157,-0.9615 -0.33,0.0548 -0.7387,0.1731 -0.9289,0.2228 0.2714,0.2671 0.982,0.9066 2.0614,2.1715 2.0259,2.3739 4.54,6.8468 2.7101,14.7012 -0.1095,-0.1577 -0.3067,-0.824 -0.3755,-1.033 -0.3787,-1.1509 -0.943,-2.0831 -1.658,-2.9889 -0.5812,-0.7362 -2.0789,-2.126 -2.8963,-2.3164 0.3539,0.7376 0.7598,2.2362 0.9673,3.6194 0.2647,1.7637 0.0913,3.2883 -0.4421,4.7836 -0.3039,0.8519 -2.5291,5.234 -3.1501,5.234 0,-1.4783 -0.07,-2.8249 -0.3135,-4.0401 -0.4462,-2.2278 -1.5533,-4.424 -3.2889,-5.8621 -1.4669,-1.2157 -3.6611,-2.1769 -5.4958,-2.5819 -0.248,-0.0547 -0.2358,-0.0855 -0.4298,0.0064 -0.927,0.4393 -1.0359,0.759 -2.6199,1.0981 -1.8011,0.3856 -3.7058,0.5577 -5.5509,-0.1806 -0.3951,-0.1581 -0.7049,-0.3186 -1.0338,-0.5669 -0.5402,-0.4077 -0.0856,-0.2145 -1.2134,-0.0079 -0.8234,0.1507 -2.996,0.0736 -3.244,-1.241 -0.0666,-0.3531 0.0753,-0.5224 0.402,-0.6406 0.9916,-0.3588 1.5043,0.0424 1.8521,0.1234 -0.3674,-0.5487 -0.4229,-0.4376 -0.7437,-0.921 -0.5837,-0.8796 -0.6357,-1.4107 -0.8103,-2.4549 -0.2907,-1.7384 -2.3654,-4.0235 -1.1991,-6.2277 -0.1318,-0.1967 -4.3607,-5.6852 -2.457,-6.7471 0.4279,-0.2387 0.5174,-0.1627 0.8836,0.0613 0.6214,0.38 3.6116,1.5377 4.5314,1.8071l1.9079 0.5891c1.7999,-1.8589 4.3884,-3.452 5.8171,-4.0426 0.5773,-0.2387 1.1077,-0.3964 1.6888,-0.5926 0.1534,-0.0518 0.2579,-0.1478 0.8007,-0.6313 0.6225,-0.5545 1.7427,-1.4316 2.732,-1.328 0.5508,0.0577 0.6489,0.9831 0.5498,1.4085 2.0848,0 4.2168,-0.048 6.2734,0.3855 3.6939,0.7788 6.4121,2.5385 8.8713,5.3456 0.615,0.702 2.6757,3.2989 2.718,3.8085zm-33.1063 3.2301c-0.027,-0.2263 0.0206,-0.4153 -0.1873,-0.5015 -0.155,-0.0643 -0.3198,-0.0685 -0.4981,-0.0296 1.55,-1.1771 1.3449,3.4672 2.5048,4.8981 0.211,0.2404 0.412,0.43 0.5987,0.6356 -0.1884,-0.8087 -0.5409,-2.1539 -0.0434,-3.1599 0.0606,0.0626 0.1074,0.0322 0.0391,0.3935 -0.7164,3.7926 1.8335,4.3826 2.508,2.3301 0.2762,-0.8402 0.2056,-6.5123 3.3089,-8.0161 2.8013,-1.3575 5.8148,2.278 3.1379,7.1448 0.0933,0.0196 0.1975,-0.1332 0.3055,-0.1828 1.9531,-1.0896 4.2389,0.7433 1.6783,3.852 -0.126,0.1614 -0.0426,0.0259 -0.0939,0.1618 0.3426,0.1352 0.74,0.179 1.1064,0.3024 5.8737,1.9774 8.1637,5.223 8.2676,12.0391 0.4007,-0.3702 1.9635,-2.9677 2.3029,-3.6087 1.712,-3.2329 1.1859,-6.4272 0.0325,-9.6862 -0.2694,-0.7614 -1.3931,-1.9909 -2.051,-2.3661 -0.4355,-0.2484 -0.6311,-0.2287 -1.0594,-0.3897 0.1526,-0.0671 0.5441,-0.0077 0.8235,0.114 1.405,0.6126 2.0109,2.2365 2.6693,2.5789 3.4556,1.7973 3.8235,4.2808 4.6522,5.8466 0.139,-0.8936 0.1001,-0.8956 0.3232,-1.7894 0.5986,-3.617 0.0168,-7.386 -1.8498,-10.5112 -0.887,-1.4851 -2.4629,-3.4256 -4.0266,-4.2324 -0.1888,-0.0974 -1.0555,-0.5652 -1.8689,-0.8688 -0.863,-0.3221 -1.6699,-0.4785 -1.68,-0.4893 0.5854,-0.2458 2.4557,0.4821 2.9074,0.7392 1.5979,0.9095 0.8355,0.7127 2.6994,0.4074 2.9441,-0.4823 3.9854,0.032 6.2868,0.8391 -0.5413,-1.2485 -3.6314,-4.8131 -5.1151,-5.905 -4.0016,-2.9446 -7.7694,-3.2586 -12.444,-3.1227 -0.4211,2.8599 -0.6954,4.4423 0.1404,7.2301 0.0828,0.276 0.1108,0.4306 0.0603,0.516 -0.325,-0.4698 -0.5376,-1.8767 -0.6458,-2.5564 -0.5658,-3.5549 1.8052,-8.1909 -1.5084,-6.2551 -1.0651,0.6223 -3.0816,2.4943 -4.5184,4.1789 -0.8057,0.9447 -1.4155,1.9505 -1.6063,2.3519 0.3366,-1.0289 1.2673,-2.2781 2.1587,-3.2515 0.3815,-0.4167 1.2459,-1.3236 1.7148,-1.6509 -1.9562,0.3111 -5.0839,2.3901 -7.3737,4.5944 -0.5486,0.528 -1.0066,1.1011 -1.4379,1.6153 0.3743,-0.6688 0.8585,-1.1276 1.2878,-1.6914 -1.6281,-0.418 -4.654,-1.4605 -6.2243,-2.2926 -0.3275,-0.1736 -0.5425,-0.3679 -0.9224,-0.096 -1.2115,0.8669 0.8755,4.0737 1.5219,5.0008 0.2539,0.3642 0.7737,1.2365 1.0456,1.4608 0.2612,-0.4113 0.769,-0.5211 1.2222,-0.3937 0.2339,0.0658 0.4444,0.1652 0.5605,0.2146 0.0715,-0.0734 0.5064,-0.9513 0.8495,-1.357 -0.2118,0.3453 -0.6191,1.1755 -0.7062,1.4726 0.1788,0.1843 0.6714,0.7754 0.497,1.0702 -0.2116,-0.3562 -0.345,-0.7801 -0.6703,-1.0553 -0.5074,-0.4292 -1.2894,-0.4368 -1.6991,0.1765 -0.2449,0.3666 -0.5308,0.9564 -0.3305,2.0601 0.1582,0.8718 0.4786,1.6008 0.8149,2.325 0.2963,0.6379 0.4887,1.1454 0.59,1.5808 0.0762,0.3277 0.1564,1.0412 0.2497,1.4393 0.1147,0.4896 0.3438,0.893 0.8516,1.4819 -0.5588,-1.2308 -0.7536,-1.8161 -0.9041,-2.7278 -0.1113,-0.6749 -0.2414,-1.5569 -0.2526,-2.8645zm4.9998 -1.0738c-0.1767,-0.3761 1.1882,-2.492 1.3883,-2.7531 2.1346,-2.7854 5.4975,-2.1738 6.5439,0.4756 0.1176,0.2976 0.4825,1.4782 0.1988,1.7805 -0.0795,-0.1922 0.1194,-2.9728 -2.4637,-3.8054 -3.7215,-1.1994 -5.4726,4.1738 -5.6673,4.3025zm8.2597 -9.2774c-0.0673,1.7129 -0.0879,2.7406 0.0884,4.4624 -0.3373,-0.1143 -0.7253,-0.3805 -1.058,-0.5376 -1.5654,-0.7396 -1.7886,-0.633 -3.357,-1.0553 0.6283,-0.6087 2.9661,-3.9597 4.4117,-3.9423l-0.0851 1.0729zm-7.8434 12.3311c-0.1288,0.8159 -0.1148,1.9225 -0.3403,2.6125 -0.2547,0.7793 -0.7596,1.3453 -1.7644,1.2414l-0.0238 0.4244c1.0406,0.0392 0.7033,-0.3386 3.3976,-0.0412 0.4348,0.048 1.2292,0.1864 1.6026,0.1157 0.6218,-0.1176 0.8187,-0.4452 1.2205,-0.6395 -0.2559,-0.382 -0.463,-0.5679 -0.6684,-1.1103 -0.4208,-1.1111 -0.9011,-3.6496 -0.2976,-4.4631 0.4553,-0.6137 0.9485,0.2009 1.2471,0.9221 0.277,0.6691 0.4441,1.4169 0.5246,2.1338 0.0677,0.6036 0.0025,1.0824 0.0283,1.6326 0.2136,-0.2562 0.6385,-0.6283 0.9663,-1.141 0.1776,-0.3228 0.2443,-0.5018 0.3645,-0.8477 0.3902,-1.123 0.7486,-1.9358 0.5872,-3.3193 -0.1063,-0.9113 -0.4528,-1.6584 -0.9199,-2.1977 -0.7592,-0.8763 -1.3429,-1.0485 -2.4965,-0.7755 -2.3381,0.5533 -3.0994,3.3711 -3.4278,5.4529zm-3.0998 3.044c0.0191,0.064 0.0621,0.1936 0.0913,0.2763 0.0291,0.0827 0.0446,0.1186 0.0819,0.1394 0.0373,0.0209 0.0965,0.0267 0.1353,0.023 0.0387,-0.0038 0.0571,-0.0171 0.0411,-0.0622 -0.016,-0.045 -0.0665,-0.1217 -0.1169,-0.1873 -0.0504,-0.0657 -0.1009,-0.1202 -0.1413,-0.1601 -0.0404,-0.0397 -0.0709,-0.0648 -0.0884,-0.0781 -0.0175,-0.0133 -0.0221,-0.015 -0.0029,0.049zm6.6778 -2.0729c0.0209,0.107 0.1909,0.561 0.2808,0.2357 0.0819,-0.2964 -0.0138,-0.7211 -0.1261,-0.9901 -0.0433,-0.1037 -0.0891,-0.1685 -0.162,-0.0182 -0.0942,0.1942 -0.0245,0.6355 0.0073,0.7727zm-9.3244 3.4665c0.1518,0.4123 1.4035,0.479 1.7209,0.3231 -0.1509,-0.3222 -1.3225,-0.5554 -1.7209,-0.3231zm1.7987 -2.4747c-0.443,-0.5933 -0.7303,-2.1959 -0.9087,-3.1401 -0.1541,-0.8145 -0.268,-0.8616 -0.4603,-0.9913 -0.0537,0.8176 0.1965,2.9673 0.3713,3.7906 0.269,1.2676 0.894,1.8915 1.3754,2.8334l0.8291 -0.1611c-0.4926,-0.4917 -1.0325,-1.3256 -1.2068,-2.3315zm7.5421 -11.452c1.2638,0.3403 1.6038,0.3096 2.5073,0.6718 0.5879,0.2357 1.2041,0.5221 1.7652,0.8586 -0.1937,-1.8911 -0.1629,-3.4917 -0.0133,-5.3752 -1.3823,0.0473 -3.3508,2.9647 -4.2592,3.8448zm1.2801 14.9183c0.0979,-0.2462 1.1516,-0.6133 1.5396,-1.5053 0.1223,-0.2811 0.0741,-0.5706 0.2123,-0.752 0.0608,0.1296 0.0725,0.1506 0.0254,0.4171 -0.0272,0.1541 -0.0585,0.2403 -0.1232,0.3835 -0.2695,0.5969 -1.2592,1.4365 -1.654,1.4567zm3.6631 -3.5972c-0.3562,-0.3761 -0.9047,-0.6003 -1.3985,-0.5249 -0.5939,0.0906 -1.0603,0.4713 -1.4466,0.8782 -0.4941,0.5203 -0.9478,1.0257 -1.4617,1.5399 -0.2114,0.1957 -0.6825,0.5679 -1.0483,0.6803 -0.5885,0.1807 -0.9581,0.0666 -1.5541,0.0014 -1.0778,-0.118 -2.2444,-0.3171 -3.3084,-0.0431 0.3584,0.3304 0.4612,0.5774 0.4409,0.7664 -0.0378,0.3527 -0.4341,0.4276 -0.603,0.6859 0.4905,0.3509 0.8078,0.7303 2.4658,1.0551 1.2341,0.2417 2.0834,0.1943 3.3016,0.0188 1.3819,-0.1831 2.3915,-0.5754 3.4252,-1.1926 0.5077,-0.3032 0.8114,-0.6518 1.1102,-1.2022 0.468,-0.8618 0.8549,-1.8414 0.0767,-2.6632z"/>
  <path class="fil0" d="M78.593 10.9566c-2.4425,-1.172 -4.2328,-1.4068 -6.9157,-0.9615 -0.33,0.0548 -0.7387,0.1731 -0.9289,0.2228 0.2714,0.2671 0.982,0.9066 2.0614,2.1715 2.0259,2.3739 4.54,6.8468 2.7101,14.7012 -0.1095,-0.1577 -0.3067,-0.824 -0.3755,-1.033 -0.3787,-1.1509 -0.943,-2.0831 -1.658,-2.9889 -0.5812,-0.7362 -2.0789,-2.126 -2.8963,-2.3164 0.3539,0.7376 0.7598,2.2362 0.9673,3.6194 0.2647,1.7637 0.0913,3.2883 -0.4421,4.7836 -0.3039,0.8519 -2.5291,5.234 -3.1501,5.234 0,-1.4783 -0.07,-2.8249 -0.3135,-4.0401 -0.4462,-2.2278 -1.5533,-4.424 -3.2889,-5.8621 -1.4669,-1.2157 -3.6611,-2.1769 -5.4958,-2.5819 -0.248,-0.0547 -0.2358,-0.0855 -0.4298,0.0064 -0.927,0.4393 -1.0359,0.759 -2.6199,1.0981 -1.8011,0.3856 -3.7058,0.5577 -5.5509,-0.1806 -0.3951,-0.1581 -0.7049,-0.3186 -1.0338,-0.5669 -0.5402,-0.4077 -0.0856,-0.2145 -1.2134,-0.0079 -0.8234,0.1507 -2.996,0.0736 -3.244,-1.241 -0.0666,-0.3531 0.0753,-0.5224 0.402,-0.6406 0.9916,-0.3588 1.5043,0.0424 1.8521,0.1234 -0.3674,-0.5487 -0.4229,-0.4376 -0.7437,-0.921 -0.5837,-0.8796 -0.6357,-1.4107 -0.8103,-2.4549 -0.2907,-1.7384 -2.3654,-4.0235 -1.1991,-6.2277 -0.1318,-0.1967 -4.3607,-5.6852 -2.457,-6.7471 0.4279,-0.2387 0.5174,-0.1627 0.8836,0.0613 0.6214,0.38 3.6116,1.5377 4.5314,1.8071l1.9079 0.5891c1.7999,-1.8589 4.3884,-3.452 5.8171,-4.0426 0.5773,-0.2387 1.1077,-0.3964 1.6888,-0.5926 0.1534,-0.0518 0.2579,-0.1478 0.8007,-0.6313 0.6225,-0.5545 1.7427,-1.4316 2.732,-1.328 0.5508,0.0577 0.6489,0.9831 0.5498,1.4085 2.0848,0 4.2168,-0.048 6.2734,0.3855 3.6939,0.7788 6.4121,2.5385 8.8713,5.3456 0.615,0.702 2.6757,3.2989 2.718,3.8085z"/>
  <path class="fil1" d="M45.4868 14.1866c-0.027,-0.2263 0.0206,-0.4153 -0.1873,-0.5015 -0.155,-0.0643 -0.3198,-0.0685 -0.4981,-0.0296 1.55,-1.1771 1.3449,3.4672 2.5048,4.8981 0.211,0.2404 0.412,0.43 0.5987,0.6356 -0.1884,-0.8087 -0.5409,-2.1539 -0.0434,-3.1599 0.0606,0.0626 0.1074,0.0322 0.0391,0.3935 -0.7164,3.7926 1.8335,4.3826 2.508,2.3301 0.2762,-0.8402 0.2056,-6.5123 3.3089,-8.0161 2.8013,-1.3575 5.8148,2.278 3.1379,7.1448 0.0933,0.0196 0.1975,-0.1332 0.3055,-0.1828 1.9531,-1.0896 4.2389,0.7433 1.6783,3.852 -0.126,0.1614 -0.0426,0.0259 -0.0939,0.1618 0.3426,0.1352 0.74,0.179 1.1064,0.3024 5.8737,1.9774 8.1637,5.223 8.2676,12.0391 0.4007,-0.3702 1.9635,-2.9677 2.3029,-3.6087 1.712,-3.2329 1.1859,-6.4272 0.0325,-9.6862 -0.2694,-0.7614 -1.3931,-1.9909 -2.051,-2.3661 -0.4355,-0.2484 -0.6311,-0.2287 -1.0594,-0.3897 0.1526,-0.0671 0.5441,-0.0077 0.8235,0.114 1.405,0.6126 2.0109,2.2365 2.6693,2.5789 3.4556,1.7973 3.8235,4.2808 4.6522,5.8466 0.139,-0.8936 0.1001,-0.8956 0.3232,-1.7894 0.5986,-3.617 0.0168,-7.386 -1.8498,-10.5112 -0.887,-1.4851 -2.4629,-3.4256 -4.0266,-4.2324 -0.1888,-0.0974 -1.0555,-0.5652 -1.8689,-0.8688 -0.863,-0.3221 -1.6699,-0.4785 -1.68,-0.4893 0.5854,-0.2458 2.4557,0.4821 2.9074,0.7392 1.5979,0.9095 0.8355,0.7127 2.6994,0.4074 2.9441,-0.4823 3.9854,0.032 6.2868,0.8391 -0.5413,-1.2485 -3.6314,-4.8131 -5.1151,-5.905 -4.0016,-2.9446 -7.7694,-3.2586 -12.444,-3.1227 -0.4211,2.8599 -0.6954,4.4423 0.1404,7.2301 0.0828,0.276 0.1108,0.4306 0.0603,0.516 -0.325,-0.4698 -0.5376,-1.8767 -0.6458,-2.5564 -0.5658,-3.5549 1.8052,-8.1909 -1.5084,-6.2551 -1.0651,0.6223 -3.0816,2.4943 -4.5184,4.1789 -0.8057,0.9447 -1.4155,1.9505 -1.6063,2.3519 0.3366,-1.0289 1.2673,-2.2781 2.1587,-3.2515 0.3815,-0.4167 1.2459,-1.3236 1.7148,-1.6509 -1.9562,0.3111 -5.0839,2.3901 -7.3737,4.5944 -0.5486,0.528 -1.0066,1.1011 -1.4379,1.6153 0.3743,-0.6688 0.8585,-1.1276 1.2878,-1.6914 -1.6281,-0.418 -4.654,-1.4605 -6.2243,-2.2926 -0.3275,-0.1736 -0.5425,-0.3679 -0.9224,-0.096 -1.2115,0.8669 0.8755,4.0737 1.5219,5.0008 0.2539,0.3642 0.7737,1.2365 1.0456,1.4608 0.2612,-0.4113 0.769,-0.5211 1.2222,-0.3937 0.2339,0.0658 0.4444,0.1652 0.5605,0.2146 0.0715,-0.0734 0.5064,-0.9513 0.8495,-1.357 -0.2118,0.3453 -0.6191,1.1755 -0.7062,1.4726 0.1788,0.1843 0.6714,0.7754 0.497,1.0702 -0.2116,-0.3562 -0.345,-0.7801 -0.6703,-1.0553 -0.5074,-0.4292 -1.2894,-0.4368 -1.6991,0.1765 -0.2449,0.3666 -0.5308,0.9564 -0.3305,2.0601 0.1582,0.8718 0.4786,1.6008 0.8149,2.325 0.2963,0.6379 0.4887,1.1454 0.59,1.5808 0.0762,0.3277 0.1564,1.0412 0.2497,1.4393 0.1147,0.4896 0.3438,0.893 0.8516,1.4819 -0.5588,-1.2308 -0.7536,-1.8161 -0.9041,-2.7278 -0.1113,-0.6749 -0.2414,-1.5569 -0.2526,-2.8645zm4.9998 -1.0738c-0.1767,-0.3761 1.1882,-2.492 1.3883,-2.7531 2.1346,-2.7854 5.4975,-2.1738 6.5439,0.4756 0.1176,0.2976 0.4825,1.4782 0.1988,1.7805 -0.0795,-0.1922 0.1194,-2.9728 -2.4637,-3.8054 -3.7215,-1.1994 -5.4726,4.1738 -5.6673,4.3025zm8.2597 -9.2774c-0.0673,1.7129 -0.0879,2.7406 0.0884,4.4624 -0.3373,-0.1143 -0.7253,-0.3805 -1.058,-0.5376 -1.5654,-0.7396 -1.7886,-0.633 -3.357,-1.0553 0.6283,-0.6087 2.9661,-3.9597 4.4117,-3.9423l-0.0851 1.0729zm-7.8434 12.3311c-0.1288,0.8159 -0.1148,1.9225 -0.3403,2.6125 -0.2547,0.7793 -0.7596,1.3453 -1.7644,1.2414l-0.0238 0.4244c1.0406,0.0392 0.7033,-0.3386 3.3976,-0.0412 0.4348,0.048 1.2292,0.1864 1.6026,0.1157 0.6218,-0.1176 0.8187,-0.4452 1.2205,-0.6395 -0.2559,-0.382 -0.463,-0.5679 -0.6684,-1.1103 -0.4208,-1.1111 -0.9011,-3.6496 -0.2976,-4.4631 0.4553,-0.6137 0.9485,0.2009 1.2471,0.9221 0.277,0.6691 0.4441,1.4169 0.5246,2.1338 0.0677,0.6036 0.0025,1.0824 0.0283,1.6326 0.2136,-0.2562 0.6385,-0.6283 0.9663,-1.141 0.1776,-0.3228 0.2443,-0.5018 0.3645,-0.8477 0.3902,-1.123 0.7486,-1.9358 0.5872,-3.3193 -0.1063,-0.9113 -0.4528,-1.6584 -0.9199,-2.1977 -0.7592,-0.8763 -1.3429,-1.0485 -2.4965,-0.7755 -2.3381,0.5533 -3.0994,3.3711 -3.4278,5.4529zm-3.0998 3.044c0.0191,0.064 0.0621,0.1936 0.0913,0.2763 0.0291,0.0827 0.0446,0.1186 0.0819,0.1394 0.0373,0.0209 0.0965,0.0267 0.1353,0.023 0.0387,-0.0038 0.0571,-0.0171 0.0411,-0.0622 -0.016,-0.045 -0.0665,-0.1217 -0.1169,-0.1873 -0.0504,-0.0657 -0.1009,-0.1202 -0.1413,-0.1601 -0.0404,-0.0397 -0.0709,-0.0648 -0.0884,-0.0781 -0.0175,-0.0133 -0.0221,-0.015 -0.0029,0.049zm6.6778 -2.0729c0.0209,0.107 0.1909,0.561 0.2808,0.2357 0.0819,-0.2964 -0.0138,-0.7211 -0.1261,-0.9901 -0.0433,-0.1037 -0.0891,-0.1685 -0.162,-0.0182 -0.0942,0.1942 -0.0245,0.6355 0.0073,0.7727zm-9.3244 3.4665c0.1518,0.4123 1.4035,0.479 1.7209,0.3231 -0.1509,-0.3222 -1.3225,-0.5554 -1.7209,-0.3231zm1.7987 -2.4747c-0.443,-0.5933 -0.7303,-2.1959 -0.9087,-3.1401 -0.1541,-0.8145 -0.268,-0.8616 -0.4603,-0.9913 -0.0537,0.8176 0.1965,2.9673 0.3713,3.7906 0.269,1.2676 0.894,1.8915 1.3754,2.8334l0.8291 -0.1611c-0.4926,-0.4917 -1.0325,-1.3256 -1.2068,-2.3315zm7.5421 -11.452c1.2638,0.3403 1.6038,0.3096 2.5073,0.6718 0.5879,0.2357 1.2041,0.5221 1.7652,0.8586 -0.1937,-1.8911 -0.1629,-3.4917 -0.0133,-5.3752 -1.3823,0.0473 -3.3508,2.9647 -4.2592,3.8448zm1.2801 14.9183c0.0979,-0.2462 1.1516,-0.6133 1.5396,-1.5053 0.1223,-0.2811 0.0741,-0.5706 0.2123,-0.752 0.0608,0.1296 0.0725,0.1506 0.0254,0.4171 -0.0272,0.1541 -0.0585,0.2403 -0.1232,0.3835 -0.2695,0.5969 -1.2592,1.4365 -1.654,1.4567zm3.6631 -3.5972c-0.3562,-0.3761 -0.9047,-0.6003 -1.3985,-0.5249 -0.5939,0.0906 -1.0603,0.4713 -1.4466,0.8782 -0.4941,0.5203 -0.9478,1.0257 -1.4617,1.5399 -0.2114,0.1957 -0.6825,0.5679 -1.0483,0.6803 -0.5885,0.1807 -0.9581,0.0666 -1.5541,0.0014 -1.0778,-0.118 -2.2444,-0.3171 -3.3084,-0.0431 0.3584,0.3304 0.4612,0.5774 0.4409,0.7664 -0.0378,0.3527 -0.4341,0.4276 -0.603,0.6859 0.4905,0.3509 0.8078,0.7303 2.4658,1.0551 1.2341,0.2417 2.0834,0.1943 3.3016,0.0188 1.3819,-0.1831 2.3915,-0.5754 3.4252,-1.1926 0.5077,-0.3032 0.8114,-0.6518 1.1102,-1.2022 0.468,-0.8618 0.8549,-1.8414 0.0767,-2.6632z"/>
 </g>
</svg>
