<?xml version="1.0" encoding="UTF-8"?>
<!DOCTYPE svg PUBLIC "-//W3C//DTD SVG 1.1//EN" "http://www.w3.org/Graphics/SVG/1.1/DTD/svg11.dtd">
<!-- Creator: CorelDRAW 2020 (64-Bit) -->
<svg xmlns="http://www.w3.org/2000/svg" xml:space="preserve" width="154.498mm" height="77.2884mm" version="1.1" style="shape-rendering:geometricPrecision; text-rendering:geometricPrecision; image-rendering:optimizeQuality; fill-rule:evenodd; clip-rule:evenodd"
viewBox="0 0 85.5629 42.8034"
 xmlns:xlink="http://www.w3.org/1999/xlink"
 xmlns:xodm="http://www.corel.com/coreldraw/odm/2003">
 <defs>
  <style type="text/css">
   <![CDATA[
    .fil1 {fill:#FEFEFE}
    .fil0 {fill:#2B2A29}
   ]]>
  </style>
 </defs>
 <g id="Слой_x0020_1">
  <metadata id="CorelCorpID_0Corel-Layer"/>
  <path class="fil0" d="M52.275 16.3881l4.1414 0.0178 0.0772 -6.6099 3.4348 6.5952 5.5591 0.0019 0.0435 -13.1933 -4.1621 -0.0283 -0.0264 6.8462 -3.5602 -6.8364 -5.4892 -0.0071 -0.0182 13.2137zm-8.0907 -9.1286c1.6434,-0.4838 3.0487,0.9311 2.5885,2.6299 -0.2793,1.0311 -1.65,2.3873 -2.8333,2.605 -3.771,0.6937 -3.3971,-4.1629 0.2447,-5.2349zm-1.7875 -3.9365c-3.4932,0.8957 -5.6028,3.5241 -5.2102,7.4132 0.8133,8.0595 14.4941,7.5502 13.6858,-1.8651 -0.3656,-4.2593 -4.5616,-6.5518 -8.4756,-5.5482zm-15.9488 9.5914l-0.8554 3.1223c1.4518,0.389 4.4971,0.5256 6.0632,0.376 5.269,-0.5031 5.1382,-5.7605 3.3222,-7.2099 -1.4116,-1.1266 -4.6458,-0.6231 -4.9351,-1.5886 -0.4857,-1.6209 4.3074,-0.703 4.9666,-0.7545l0.8363 -2.9484c-2.0655,-0.6349 -4.8744,-0.965 -7.0426,-0.544 -2.2145,0.43 -3.7387,2.0228 -3.5522,4.6954 0.3261,4.6752 5.6616,2.6199 6.0142,3.9592 0.4226,1.6053 -4.0825,0.8273 -4.8172,0.8924zm59.0037 2.9514c-0.102,-0.318 -1.0436,-3.2511 -1.4437,-4.8811 -0.4767,0.3491 -0.9434,1.0396 -1.89,1.439 -1.8359,0.7748 -3.5921,-0.4889 -3.1308,-2.2467 0.2827,-1.0775 1.2676,-2.0294 2.0648,-2.4839 1.4709,-0.8386 2.3004,-0.4635 3.1922,0.511 0.1394,-0.2686 1.311,-4.3662 1.3187,-4.6549 -2.5014,-0.484 -5.8601,-0.6397 -7.7393,0.4764 -5.4783,3.2539 -4.053,12.6229 3.5935,12.457 0.3996,-0.0086 2.2718,-0.13 4.0346,-0.617zm-12.4571 0.5269l0.0481 -13.2024 -4.8583 -0.0144 0.0779 13.2299 4.7323 -0.0131zm-68.8105 -4.0318c0.6944,0.2008 0.6826,0.7366 0.7165,-0.6723 0.0326,-1.353 0.7864,-3.1915 1.6308,-4.0238 4.465,-4.4008 5.9799,3.7867 3.7592,6.8299 -0.9035,1.2382 -2.7422,1.281 -4.2,0.5828 -0.5631,-0.2697 -0.9114,-0.2248 -1.5489,-0.2788 0.0563,-1.3265 -0.0075,-1.3088 -0.3577,-2.4377zm-0.6506 2.3427l-0.9575 -0.0164c-0.188,-0.4336 -0.4166,-0.664 -0.6141,-1.2921 -0.5313,-1.6898 -0.3993,-5.395 0.581,-4.6441 0.2248,0.2551 0.2271,1.0742 0.3388,1.488 0.1452,0.5377 0.3894,0.8759 0.5243,1.2847 -0.2797,0.145 -0.3568,0.128 -0.4437,0.5313 -0.2181,1.0136 0.324,1.9843 0.5712,2.6486zm0.5497 -10.0381c-1.1517,-0.3302 -1.6352,-0.5293 -2.8504,-0.5744 -0.9276,-0.0343 -1.3035,0.1421 -1.2219,1.3745 0.1595,0.8946 1.2692,2.8022 1.1814,3.0733 -0.6258,1.9308 -0.8293,3.647 0.4,5.4763 0.2229,0.3316 0.5895,0.5736 0.6533,0.8255 -1.8599,0.4576 -1.4642,1.5495 0.9099,1.4374 1.2093,2.2733 4.6982,2.974 7.0498,2.403 1.3743,-0.3337 2.4091,-1.0126 4.2506,-1.2578 2.1469,-0.2858 4.6412,-0.2281 6.7493,0.5441 0.575,0.2106 0.9619,0.537 1.4971,0.6476l-0.4542 -1.5929c-0.7786,-2.7304 -1.8395,-3.158 -4.2758,-4.0876 0.8831,-1.4607 4.5093,-1.6763 5.9888,-1.6639 -0.5124,-1.4913 -1.4605,-2.7731 -2.6173,-3.6914 -1.5255,-1.2109 -2.2489,-1.2532 -4.0547,-1.3867 0.1228,-1.7456 3.877,-2.6225 5.4313,-2.7534 -1.0276,-2.2639 -5.5304,-3.2988 -7.7773,-3.4231 -2.0789,-0.1151 -4.3567,0.4047 -6.2945,1.1787 -1.8876,0.754 -3.1583,1.8139 -4.5655,3.471zm4.3582 7.1902c0.3606,2.7548 2.4432,3.0426 2.0812,0.113 -0.3478,-2.8146 -2.4563,-2.9787 -2.0812,-0.113z"/>
  <path class="fil0" d="M4.0833 28.5989c-1.1517,-0.3302 -1.6352,-0.5293 -2.8504,-0.5744 -0.9276,-0.0343 -1.3035,0.1421 -1.2219,1.3745 0.1595,0.8946 1.2692,2.8022 1.1814,3.0733 -0.6258,1.9308 -0.8293,3.647 0.4,5.4763 0.2229,0.3316 0.5895,0.5736 0.6533,0.8255 -1.8599,0.4576 -1.4642,1.5495 0.9099,1.4374 1.2093,2.2733 4.6982,2.974 7.0498,2.403 1.3743,-0.3337 2.4091,-1.0126 4.2506,-1.2578 2.1469,-0.2858 4.6412,-0.2281 6.7493,0.5441 0.575,0.2106 0.9619,0.537 1.4971,0.6476l-0.4542 -1.5929c-0.7786,-2.7304 -1.8395,-3.158 -4.2758,-4.0876 0.8831,-1.4607 4.5093,-1.6763 5.9888,-1.6639 -0.5124,-1.4913 -1.4605,-2.7731 -2.6173,-3.6914 -1.5255,-1.2109 -2.2489,-1.2532 -4.0547,-1.3867 0.1228,-1.7456 3.877,-2.6225 5.4313,-2.7534 -1.0276,-2.2639 -5.5304,-3.2988 -7.7773,-3.4231 -2.0789,-0.1151 -4.3567,0.4047 -6.2945,1.1787 -1.8876,0.754 -3.1583,1.8139 -4.5655,3.471z"/>
  <polygon class="fil0" points="72.9946,40.326 73.0427,27.1236 68.1844,27.1092 68.2623,40.3392 "/>
  <path class="fil0" d="M85.4517 39.7991c-0.102,-0.318 -1.0436,-3.2511 -1.4437,-4.8811 -0.4767,0.3491 -0.9434,1.0396 -1.89,1.439 -1.8359,0.7748 -3.5921,-0.4889 -3.1308,-2.2467 0.2827,-1.0775 1.2676,-2.0294 2.0648,-2.4839 1.4709,-0.8386 2.3004,-0.4635 3.1922,0.511 0.1394,-0.2686 1.311,-4.3662 1.3187,-4.6549 -2.5014,-0.484 -5.8601,-0.6397 -7.7393,0.4764 -5.4783,3.2539 -4.053,12.6229 3.5935,12.457 0.3996,-0.0086 2.2718,-0.13 4.0346,-0.617z"/>
  <path class="fil0" d="M26.448 36.8477l-0.8554 3.1223c1.4518,0.389 4.4971,0.5256 6.0632,0.376 5.269,-0.5031 5.1382,-5.7605 3.3222,-7.2099 -1.4116,-1.1266 -4.6458,-0.6231 -4.9351,-1.5886 -0.4857,-1.6209 4.3074,-0.703 4.9666,-0.7545l0.8363 -2.9484c-2.0655,-0.6349 -4.8744,-0.965 -7.0426,-0.544 -2.2145,0.43 -3.7387,2.0228 -3.5522,4.6954 0.3261,4.6752 5.6616,2.6199 6.0142,3.9592 0.4226,1.6053 -4.0825,0.8273 -4.8172,0.8924z"/>
  <path class="fil0" d="M42.3968 27.2563c-3.4932,0.8957 -5.6028,3.5241 -5.2102,7.4132 0.8133,8.0595 14.4941,7.5502 13.6858,-1.8651 -0.3656,-4.2593 -4.5616,-6.5518 -8.4756,-5.5482z"/>
  <polygon class="fil0" points="52.275,40.3213 56.4164,40.3392 56.4936,33.7293 59.9284,40.3245 65.4876,40.3264 65.531,27.1332 61.369,27.1049 61.3426,33.9511 57.7824,27.1147 52.2932,27.1076 "/>
  <path class="fil1" d="M44.1844 31.1927c1.6434,-0.4838 3.0487,0.9311 2.5885,2.6299 -0.2793,1.0311 -1.65,2.3873 -2.8333,2.605 -3.771,0.6937 -3.3971,-4.1629 0.2447,-5.2349zm-40.0002 5.1016c0.6944,0.2008 0.6826,0.7366 0.7165,-0.6723 0.0326,-1.353 0.7864,-3.1915 1.6308,-4.0238 4.465,-4.4008 5.9799,3.7867 3.7592,6.8299 -0.9035,1.2382 -2.7422,1.281 -4.2,0.5828 -0.5631,-0.2697 -0.9114,-0.2248 -1.5489,-0.2788 0.0563,-1.3265 -0.0075,-1.3088 -0.3577,-2.4377zm-0.6506 2.3427l-0.9575 -0.0164c-0.188,-0.4336 -0.4166,-0.664 -0.6141,-1.2921 -0.5313,-1.6898 -0.3993,-5.395 0.581,-4.6441 0.2248,0.2551 0.2271,1.0742 0.3388,1.488 0.1452,0.5377 0.3894,0.8759 0.5243,1.2847 -0.2797,0.145 -0.3568,0.128 -0.4437,0.5313 -0.2181,1.0136 0.324,1.9843 0.5712,2.6486zm4.9079 -2.8479c0.3606,2.7548 2.4432,3.0426 2.0812,0.113 -0.3478,-2.8146 -2.4563,-2.9787 -2.0812,-0.113z"/>
 </g>
</svg>
