<?xml version="1.0" encoding="UTF-8"?>
<!DOCTYPE svg PUBLIC "-//W3C//DTD SVG 1.1//EN" "http://www.w3.org/Graphics/SVG/1.1/DTD/svg11.dtd">
<!-- Creator: CorelDRAW 2020 (64-Bit) -->
<svg xmlns="http://www.w3.org/2000/svg" xml:space="preserve" width="48.3181mm" height="80mm" version="1.1" style="shape-rendering:geometricPrecision; text-rendering:geometricPrecision; image-rendering:optimizeQuality; fill-rule:evenodd; clip-rule:evenodd"
viewBox="0 0 2.6965 4.4646"
 xmlns:xlink="http://www.w3.org/1999/xlink"
 xmlns:xodm="http://www.corel.com/coreldraw/odm/2003">
 <defs>
  <style type="text/css">
   <![CDATA[
    .fil3 {fill:#FEFEFE}
    .fil0 {fill:#2B2A29}
    .fil1 {fill:#061DB0}
    .fil5 {fill:#5EA530}
    .fil2 {fill:#F51221}
    .fil4 {fill:#F5CA6E}
   ]]>
  </style>
 </defs>
 <g id="Слой_x0020_1">
  <metadata id="CorelCorpID_0Corel-Layer"/>
  <path class="fil0" d="M1.1478 0.0041c0.4022,0.0381 0.8719,0.3268 1.0759,0.6785 0.0205,0.0353 0.0319,0.0689 0.0532,0.1009l0.053 -0.0566c0.0647,-0.0646 0.1176,-0.1639 0.1623,-0.1132 0.0859,0.0974 -0.0027,0.399 -0.0576,0.5029 -0.0224,0.0423 -0.0253,0.0228 -0.0217,0.0812 0.005,0.0808 -0.0263,0.175 -0.0854,0.2311 -0.0178,0.0169 -0.0381,0.0271 -0.0596,0.0436 -0.0165,0.0126 -0.0461,0.0629 -0.0551,0.0852 0.0705,-0.0123 0.1564,0.0185 0.106,0.0933 -0.0301,0.0446 -0.0995,0.0466 -0.1689,0.0457 -0.022,0.034 -0.0179,0.0361 -0.053,0.0603 -0.0718,0.0494 -0.1659,0.069 -0.2573,0.0709 0.098,0.1137 0.1317,0.0698 0.2046,0.2602 0.0376,0.0982 0.0821,0.2475 0.0986,0.3591 0.0211,0.1424 0.0475,0.0917 0.0613,0.1683 0.0069,0.0385 -0.0016,0.0663 -0.0134,0.0979 -0.0193,0.0515 -0.0065,0.0438 0.0047,0.0918 0.0148,0.0638 0.0145,0.15 0.005,0.2144 -0.0139,0.0943 -0.0431,0.1149 -0.0974,0.1728 -0.0192,0.0205 -0.0263,0.0149 -0.0128,0.0459 0.0193,0.0713 -0.0194,0.0801 -0.0316,0.1276 0.0201,0.0624 0.0762,0.0262 0.037,0.1397 0.0339,0.018 0.062,0.0199 0.1367,0.0556 0.0358,0.0171 0.0953,0.0414 0.1181,0.0763 0.004,0.0061 0.0093,0.0079 0.0595,0.0286 0.0383,0.0158 0.0707,0.0378 0.0987,0.0592 0.1419,0.1085 0.1315,0.1979 0.1643,0.2306 0.053,0.0528 0.0067,0.1237 -0.0323,0.1536 -0.2016,0.1541 -0.5248,0.0496 -0.7808,-0.0027 -0.0499,-0.0102 -0.2209,-0.0618 -0.2489,-0.0605 -0.05,0.0843 -0.1242,0.151 -0.1854,0.2032 -0.1549,0.132 -0.3343,0.2096 -0.5494,0.2137 -0.1482,0.0029 -0.4174,0.0144 -0.4071,-0.1676 0.0025,-0.0439 0.0112,-0.0453 0.027,-0.0704 0.0236,-0.0374 0.0023,-0.1312 0.1701,-0.304 0.0544,-0.0629 0.0935,-0.1349 0.1582,-0.1855 0.1013,-0.0792 0.1304,-0.1102 0.2481,-0.1755 -0.0149,-0.0539 -0.0292,-0.0783 -0.0204,-0.1455 0.004,-0.0306 0.0131,-0.042 0.02,-0.065 0.007,-0.0232 0.0026,-0.0443 0.009,-0.0705 0.0276,-0.1115 0.1513,-0.1016 0.2033,-0.1037l0.0858 -0.259c-0.1361,0.0034 -0.1929,-0.0196 -0.2593,-0.1193 -0.0149,-0.0224 -0.025,-0.0349 -0.0267,-0.0696 -0.0014,-0.0291 -0.0067,-0.0636 -0.0039,-0.0907 0.0042,-0.04 0.0116,-0.0407 0.0279,-0.065 0.01,-0.0149 0.0198,-0.0507 0.0269,-0.0708 0.0231,-0.0356 0.0204,-0.035 0.0311,-0.0644 -0.0388,-0.0015 -0.0649,-0.0421 -0.0862,-0.0703 -0.0136,0.0345 -0.0557,0.0899 -0.0938,0.1106 -0.0584,-0.0926 0.0517,-0.3792 0.0504,-0.4226 -0.0011,-0.0367 0.0016,-0.0675 0.03,-0.0916 0.0182,-0.0154 0.0875,-0.0685 0.1082,-0.0773 -0.1945,0.0527 -0.498,0.2145 -0.6328,0.375 -0.0288,0.0343 -0.0492,0.0766 -0.0668,0.0725 -0.033,-0.0216 -0.0454,-0.2423 -0.0457,-0.2972 -0.0008,-0.1525 0.0593,-0.4006 0.1265,-0.5382 0.067,-0.1373 0.1363,-0.1755 0.1514,-0.2088 -0.0669,-0.0643 -0.2653,-0.0515 -0.3669,-0.0376 -0.0501,0.0069 -0.3281,0.0834 -0.3355,0.0754 -0.0295,-0.0614 0.0848,-0.2893 0.1102,-0.3368 0.1065,-0.1992 0.2535,-0.3531 0.4643,-0.4407 0.1744,-0.0724 0.2215,-0.0566 0.3795,-0.0699 -0.0543,-0.0818 -0.2176,-0.2668 -0.2983,-0.3234 -0.0511,-0.0359 -0.0753,-0.0598 0.0623,-0.1065 0.1233,-0.0419 0.2937,-0.0579 0.425,-0.0455zm0.5404 3.1114c0.0432,-0.1684 0.0226,-0.1066 -0.0221,-0.1693 -0.0103,-0.0145 -0.0196,-0.0329 -0.0313,-0.0499 -0.0111,0.0276 -0.0768,0.2588 -0.0907,0.3033 0.0218,-0.0259 0.0266,-0.0384 0.0612,-0.0573 0.0247,-0.0135 0.0502,-0.0204 0.0828,-0.0268z"/>
  <path class="fil1" d="M1.5014 0.723c-0.0265,0.0072 -0.03,0.0101 -0.0132,-0.0048 0.1114,-0.1683 0.3652,0.0222 0.4484,0.141 0.0412,0.0588 0.0575,0.0844 0.0444,0.089 -0.0043,-0.0314 -0.1762,-0.2277 -0.3002,-0.2651 -0.0676,-0.0204 -0.1518,-0.0055 -0.1795,0.0398zm0.9024 0.4107c0.0558,-0.0909 0.1169,-0.3547 0.0904,-0.4609 -0.0062,-0.0248 -0.0112,-0.05 -0.0384,-0.0524 -0.0333,0.0312 -0.1328,0.1768 -0.1726,0.1802 0.0165,0.1198 0.0147,0.105 0.0085,0.2223 -0.0063,-0.1825 -0.0618,-0.3091 -0.1802,-0.4532 -0.3475,-0.423 -0.9328,-0.681 -1.4604,-0.4691 0.0355,0.0401 0.5384,0.2553 0.5045,0.4296 -0.2327,-0.0181 -0.3966,-0.0229 -0.6168,0.0789 -0.2986,0.138 -0.4357,0.3783 -0.5077,0.6873 0.0905,-0.0239 0.1881,-0.1 0.3339,-0.1342 0.2096,-0.0493 0.4501,-0.0605 0.4818,0.0239 -0.1802,0.2122 -0.2652,0.2159 -0.3465,0.5412 -0.0349,0.1397 -0.0709,0.4216 -0.0099,0.5515 0.0885,-0.2968 0.453,-0.6525 0.7464,-0.7392 -0.005,-0.0927 -0.0002,-0.2643 0.1247,-0.2654 0.0494,-0.0005 0.062,0.0168 0.0973,0.0269 -0.0201,-0.1433 -0.0342,-0.255 0.0141,-0.3861 0.1064,-0.2889 0.4911,-0.1264 0.5035,0.3075 0.0019,0.0666 -0.0192,0.2362 0.0593,0.2797 0.0798,-0.0023 0.0984,-0.1305 0.0804,-0.2104 0.002,-0.0159 -0.0063,-0.0111 0.0077,-0.0117 0.0385,0.064 0.02,0.123 0.0013,0.1871 0.1097,-0.05 0.087,-0.2221 0.1493,-0.2286 0.0332,-0.0034 0.0359,0.028 0.0311,0.0408 -0.0008,-0.0114 -0.0106,-0.0183 -0.0268,-0.0195 -0.0111,-0.0008 -0.0114,-0.0018 -0.0145,0.0077 -0.0151,0.0462 0.0077,0.0257 0.0122,0.0764 0.0035,0.039 -0.0057,0.0701 -0.0095,0.108 0.0846,-0.0247 0.1743,-0.2381 0.0953,-0.3389 -0.0252,-0.0501 -0.0634,-0.0212 -0.0951,-0.0004 0.0044,-0.0256 0.0138,-0.0273 0.0251,-0.0432 0.0182,-0.0215 0.0989,0.0002 0.1115,0.0644zm-1.0101 1.7951c-0.0405,0.1204 -0.08,0.2538 -0.1235,0.3699 -0.0228,0.0607 -0.0223,0.0601 -0.0052,0.0669 0.0121,0.0048 0.1247,0.0208 0.1478,0.0253 0.0732,-0.1932 0.1544,-0.3874 0.2021,-0.588 0.0297,-0.0226 0.0937,-0.0902 0.1035,-0.1002 0.0279,-0.0287 0.0508,-0.0725 0.0625,-0.1025 0.0032,-0.0082 0.0062,-0.0156 0.009,-0.024l-0.0276 -0.0118c0.0309,-0.0166 0.1045,-0.0501 0.1154,-0.0181l-0.0226 0.0042c-0.0134,0.0293 0.0032,-0.0101 0.0046,0.0808 0.0005,0.0336 0.0006,0.0677 -0.0025,0.101 -0.0127,0.1358 -0.0217,0.2322 -0.0436,0.3687 -0.0073,0.0452 -0.0304,0.143 -0.0269,0.1813 0.0352,0.0096 0.0759,0.0259 0.1074,0.0148l0.0093 -0.0059c0,-0.0261 0.0071,-0.0539 0.0094,-0.0833 0.0077,-0.0997 0.0364,-0.3652 0.0492,-0.5175 0.0094,-0.1119 0.0244,-0.2221 0.0205,-0.335 -0.0098,0.0066 -0.0035,0.0022 -0.0116,0.0098 -0.0481,0.0449 -0.0998,0.055 -0.163,0.0203 -0.1165,-0.064 -0.1966,-0.2337 -0.2073,-0.3612 -0.0057,-0.0684 -0.0045,-0.1298 0.0549,-0.1741 0.0246,-0.0184 0.0494,-0.0249 0.0866,-0.0298 -0.0827,-0.0261 -0.126,-0.0324 -0.2234,-0.0316 0.0257,0.0624 0.0029,0.0844 -0.0381,0.1173 -0.023,0.0185 -0.0688,0.0504 -0.1057,0.0643 -0.0272,0.0043 -0.0916,0.0394 -0.1121,0.052 -0.029,0.0179 -0.0456,0.0245 -0.0317,0.065 0.0538,-0.016 0.037,-0.0174 0.0781,-0.0168l0.0623 -0.0809c0.0021,0.0582 0.0075,0.085 0.034,0.1031 0.015,0.0102 0.0341,0.0268 0.0429,0.0431 0.0059,0.0109 0.0108,0.0306 0.013,0.0738 0.1176,0.0081 0.1424,-0.0012 0.1281,0.1259 0.0871,0.0186 0.1273,0.097 0.1448,0.1882 0.0151,0.0511 0.0199,0.0916 -0.0181,0.1403 -0.0299,0.0382 -0.1623,0.1602 -0.2073,0.1993 -0.0523,0.0454 -0.098,0.0344 -0.115,0.0655zm-0.4014 -0.4745c0.0199,-0.0159 0.0358,-0.045 0.0542,-0.0709 0.0441,-0.0623 0.0714,-0.1193 0.0693,-0.1346 -0.002,-0.0147 -0.0423,-0.0694 -0.0527,-0.1027 -0.003,-0.0095 -0.0156,-0.0629 -0.0167,-0.0735 -0.0105,0.0408 -0.0153,0.0627 -0.0297,0.1182 -0.0174,0.067 -0.0422,0.2011 -0.0244,0.2635zm0.7245 -1.8842c-0.0214,0.012 -0.0943,0.0241 -0.126,0.0371 -0.0331,0.0136 -0.0817,0.0499 -0.1129,0.0504 -0.0058,-0.0477 -0.058,-0.4106 0.0469,-0.3276 0.1186,0.0937 0.1661,0.2254 0.1919,0.2401zm-0.3327 0.1347c-0.0929,-0.016 -0.1518,0.0245 -0.0775,-0.3391 0.0083,-0.0406 0.0219,-0.0425 0.0252,-0.0524 0.003,-0.0759 0.0324,-0.1538 0.1226,-0.1249 0.1281,0.041 0.3388,0.3017 0.3623,0.4214 -0.0222,-0.0121 -0.1135,-0.2257 -0.2988,-0.3637 -0.2147,-0.1599 -0.1676,0.1655 -0.1476,0.3235 0.0059,0.0468 0.0237,0.0945 0.0138,0.1353z"/>
  <path class="fil2" d="M2.5427 3.7904c-0.0424,-0.0434 -0.105,-0.0909 -0.157,-0.1115 -0.0886,-0.035 -0.2309,-0.0281 -0.3139,0.0155 -0.0715,0.0376 -0.0924,0.068 -0.1242,0.138 -0.031,0.0683 -0.068,0.1679 -0.0522,0.1961 0.0154,0.0157 0.2852,0.0634 0.4533,0.0689 0.1198,0.0039 0.2177,-0.0099 0.293,-0.103 -0.0021,-0.0798 -0.0412,-0.1448 -0.0991,-0.204zm-1.4605 -0.2119c-0.0412,0.0141 -0.0339,0.0226 -0.0391,0.0242 0.0776,0.0242 0.169,0.0387 0.2301,0.0946 0.0471,0.0431 0.0736,0.0711 0.1077,0.1288 0.0453,0.0767 0.0669,0.1472 0.0679,0.2554 0.0273,-0.0056 0.1388,-0.1161 0.1473,-0.141 0.0079,-0.0231 -0.0083,-0.1233 -0.0186,-0.1959 -0.0026,-0.0186 0.0046,-0.0434 0.0097,-0.0621 0.0037,0.0222 0.0195,0.1151 0.0311,0.1289 0.0122,-0.0497 0.0253,-0.0944 0.0472,-0.1349 0.0362,-0.0666 0.0645,-0.0779 0.081,-0.098 -0.0202,-0.0118 -0.0623,-0.0129 -0.0839,-0.0172 -0.0286,-0.0058 -0.0383,-0.0184 -0.0657,-0.0266 0.0096,0.1042 -0.0117,0.0964 -0.0117,0.1281 -0.0625,0.0235 -0.1241,0.0388 -0.1996,0.0321 -0.0882,-0.0078 -0.23,-0.0688 -0.3035,-0.1164zm-0.0827 0.3865c-0.0493,-0.0336 -0.1348,-0.0798 -0.2121,-0.0845 -0.0721,0.0027 -0.0841,0.0241 -0.1168,0.0639 -0.0757,0.0922 -0.1675,0.1944 -0.1555,0.3284 0.0195,0.0419 0.087,0.0796 0.1291,0.0887 0.1106,0.024 0.2885,-0.0041 0.3996,-0.0412 0.0565,-0.0188 0.1238,-0.0451 0.1433,-0.0617 -0.0035,-0.0493 -0.0268,-0.1005 -0.0466,-0.146 -0.0208,-0.0479 -0.0496,-0.0855 -0.141,-0.1478z"/>
  <path class="fil3" d="M1.873 3.984c0.0032,-0.0405 0.0285,-0.1226 0.0471,-0.1621 0.0642,-0.1363 0.1832,-0.1957 0.3342,-0.1869 0.0447,0.0056 0.0672,0.0139 0.0852,0.0044 -0.0256,-0.0216 -0.1024,-0.0656 -0.1612,-0.0855 -0.051,-0.0173 -0.0831,-0.0368 -0.1324,-0.0078 -0.0541,0.0318 -0.1426,0.0404 -0.2044,0.0375 -0.0541,-0.0025 -0.0563,-0.0165 -0.0912,0.0193 -0.0843,0.0865 -0.1301,0.2637 -0.1243,0.3807 -0.006,-0.0015 -0.012,-0.0029 -0.0179,-0.0041 0.0002,-0.0033 0.0004,-0.0066 0.0006,-0.0101 -0.0284,0.0111 -0.0375,0.0376 -0.0576,0.0596 -0.0776,0.085 -0.1963,0.169 -0.2958,0.2268 -0.158,0.0824 -0.5868,0.2262 -0.7351,0.0731l-0.0335 -0.0358c0.0026,0.0573 0.0167,0.0966 0.0723,0.1185 0.1127,0.0444 0.3708,0.0358 0.4911,0.002 0.1957,-0.047 0.3381,-0.1549 0.467,-0.2848 0.0577,-0.0581 0.0837,-0.0724 0.0903,-0.1407l0.0151 0.04c0.0843,0.0452 0.66,0.1553 0.8045,0.135 0.1293,-0.0182 0.2858,-0.068 0.2404,-0.1886 -0.0132,0.0212 -0.0191,0.0351 -0.0236,0.0453 -0.0241,0.0552 -0.1632,0.0977 -0.2201,0.0975 -0.257,0.0113 -0.3786,-0.0377 -0.5874,-0.0755 -0.059,-0.0107 -0.1228,-0.0339 -0.1814,-0.0505 0.0272,0.0019 0.0528,-0.0021 0.0786,0.0059 0.0395,0.0122 0.0807,0.022 0.1328,0.0242l0.0068 -0.0373zm-0.8084 -0.361c-0.0229,-0.004 -0.0391,-0.0083 -0.0531,-0.0051 -0.0075,0.0017 -0.0507,0.0351 -0.0697,0.045 -0.0599,0.0427 -0.1973,0.1434 -0.213,0.2085 0.0446,0.0023 0.0733,-0.0191 0.1776,0.0168 0.1235,0.0425 0.2741,0.1713 0.2894,0.3102l0.003 0.0537c0.0396,-0.0134 0.1324,-0.0788 0.1675,-0.1039 0.0211,-0.0151 0.0645,-0.0339 0.0658,-0.0649 0.0038,-0.0898 -0.0496,-0.2257 -0.1039,-0.295 -0.0713,-0.0911 -0.1484,-0.1448 -0.2636,-0.1653zm0.9416 -0.4695c0.0184,0.0132 0.0355,0.02 0.0534,0.0348 0.0378,-0.0094 0.0811,-0.0643 0.0947,-0.0981 0.0386,-0.0961 0.0311,-0.3057 0.0084,-0.3314 -0.0166,-0.0099 -0.0306,-0.0121 -0.0495,-0.023l-0.1089 -0.0717c0.016,0.0026 0.0416,0.0036 0.0505,0.0088 0.0316,0.0188 0.0781,0.0598 0.1129,0.0601 0.0045,-0.0341 -0.0143,-0.0886 -0.0445,-0.1094 0.0038,-0.0153 0.009,0.0001 0.0247,0.0165 0.0101,0.0106 0.0191,0.0204 0.0309,0.0337l0.0051 -0.0305c-0.0034,-0.0587 -0.021,-0.0803 -0.0641,-0.1022 -0.027,-0.0137 -0.0964,-0.0487 -0.1183,-0.0549l-0.0095 0.1306c-0.0037,0.0518 -0.0097,0.1008 -0.0158,0.1541 -0.0158,0.1387 -0.0394,0.3433 -0.0363,0.3682l0.0474 0.0072c0.0185,-0.0188 0.0181,-0.0395 0.0388,-0.0542 -0.0061,0.0395 -0.012,0.0357 -0.0196,0.0615zm-0.243 -0.4749c-0.0437,0.0372 -0.0899,0.0755 -0.1077,0.1307 -0.0146,0.0452 -0.0128,0.0507 0.0089,0.0902 0.0123,0.0225 0.032,0.0486 0.0519,0.0656l0.0469 -0.2865zm0.3167 -1.1717c-0.0104,0.0035 -0.0157,0.005 -0.0239,0.0091l-0.0159 0.0103 0.028 0.013 0.0117 -0.0324zm-0.5741 -0.5943c-0.0213,0.0208 -0.0496,0.1984 -0.0403,0.3233 0.0057,0.0764 0.0301,0.1097 0.076,0.1661 0.0516,-0.1055 0.0398,-0.1336 0.1339,-0.2848 0.0433,-0.0696 0.0978,0.0069 0.0476,0.1816 -0.0177,0.0615 -0.0464,0.1325 -0.0781,0.169 0.1058,0.0199 0.2223,-0.0016 0.3261,0.0329 0.0097,0.0026 0.0218,0.0049 0.0331,0.0062 -0.0471,-0.0794 -0.06,-0.1161 -0.0541,-0.2359 0.0216,-0.4343 -0.3683,-0.6327 -0.4442,-0.3583zm0.7493 0.4837c0.0034,-0.0248 -0.001,-0.0511 -0.0025,-0.0761 -0.0205,0.0334 -0.0196,0.0717 -0.0518,0.1073 -0.0131,0.068 -0.0165,0.073 -0.0506,0.1341l0.0389 -0.0024c0.0321,-0.0536 0.0574,-0.0993 0.066,-0.1628zm-0.1045 0.1878c-0.0189,0.0044 -0.167,0.0304 -0.0703,0.0623 0.0334,0.011 0.23,0.0437 0.2272,-0.0351 -0.0023,-0.0641 -0.1157,-0.0335 -0.1569,-0.0272zm-0.8643 0.7233c-0.0407,0.0236 -0.1076,0.0399 -0.1544,0.0014l0.026 -0.0052c-0.017,-0.0139 -0.0206,-0.0179 -0.0313,-0.0387 -0.0138,0.0141 -0.0856,0.1639 0.1258,0.1605 -0.0142,0.0194 -0.0018,0.0023 -0.0432,0.0236 0.0165,0.0088 0.0415,0.0167 0.0522,0.0178 -0.0141,0.0244 -0.0289,0.0511 -0.0424,0.0788 -0.0272,0.0552 -0.0436,0.0975 -0.0119,0.1614 0.0183,0.0369 0.0645,0.0949 0.0991,0.1035 -0.0156,0.0165 -0.0407,-0.0047 -0.0601,-0.0193 -0.0173,0.0133 -0.0061,0.0103 -0.0182,0.0256l-0.0151 -0.0397c-0.0061,-0.0332 -0.0513,-0.0669 -0.0475,-0.125 0.0041,-0.0617 0.0347,-0.095 0.051,-0.1238 0.0059,-0.0103 0.0189,-0.0347 0.0221,-0.0393 -0.0405,-0.0375 -0.0446,-0.0271 -0.0561,-0.0217 0,0 0.0009,0.018 0.0213,0.0279 -0.0427,-0.005 -0.0596,0.0099 -0.0735,0.056l0.0522 0.0036c-0.0137,0.0062 -0.0468,0.0137 -0.0564,0.0224 -0.0075,0.0068 -0.0123,0.0153 -0.0181,0.0311 -0.0083,0.0225 -0.0119,0.0456 -0.0078,0.0713 0.0183,-0.0095 0.0339,-0.0139 0.0546,-0.0116 -0.009,0.0054 -0.0168,0.0187 -0.0246,0.0223 -0.0185,0.0085 -0.0185,0.0079 -0.0207,0.016 -0.0255,0.0378 0.0275,0.0979 0.0538,0.1235 0.0675,0.0655 0.1744,0.0837 0.2674,0.0527 0.1205,-0.0402 0.0959,-0.1768 0.1906,-0.1946 -0.0174,0.0271 -0.0188,0.0119 -0.0308,0.0452 0.0213,-0.0078 0.0383,-0.022 0.0568,-0.0349 0.055,-0.0386 0.09,-0.0386 0.0664,-0.1634 -0.0175,-0.0925 -0.0559,-0.1638 -0.1332,-0.187 -0.0453,0.0553 -0.0687,0.072 -0.1353,0.1118 -0.0727,0.0433 -0.1144,0.0202 -0.1521,0.0105 0.0651,0.0022 0.1314,-0.022 0.17,-0.046 0.0169,-0.0105 0.0736,-0.0619 0.084,-0.0748 0.0193,-0.0241 0.0374,-0.0639 0.0226,-0.0959 -0.013,-0.028 -0.0783,-0.0293 -0.1166,-0.0289 -0.0077,0.019 -0.0347,0.057 -0.0561,0.0573 0.0779,-0.0549 0.047,-0.1443 -0.0228,-0.1797 -0.0378,-0.0191 -0.0993,-0.0118 -0.1296,0.0068 0.0093,0.0238 0.0811,0.0849 0.0912,0.097l0.0282 -0.0326c-0.0091,0.0598 -0.0184,0.1 -0.0772,0.1341zm0.4219 1.1267c0.0249,-0.0031 0.0406,0.0168 0.0827,0.0158 0.0413,-0.0009 0.0836,-0.0133 0.0997,-0.0049 -0.0434,0.0284 -0.1438,0.0222 -0.1824,-0.0109zm-0.1927 -0.0998c-0.0022,0.0363 0.0232,0.0383 0.0003,0.0475 -0.0173,0.0796 -0.2281,0.0073 -0.2901,0 -0.018,-0.033 -0.0428,-0.0361 -0.0342,-0.08 0.0038,-0.0197 0.0232,-0.0373 0.0376,-0.0184 -0.0248,0.023 -0.0356,0.0391 0.0015,0.0614l0.0487 -0.1495c-0.3157,-0.0051 -0.1375,0.2526 -0.1289,0.28 -0.0394,-0.0264 -0.0382,-0.0722 -0.0714,-0.1016 -0.006,0.0664 -0.0161,0.1329 0.0218,0.186 0.0293,0.0412 0.1204,0.0636 0.1726,0.0847 0.0571,0.0231 0.1566,0.0306 0.2095,0.026 0.1124,-0.0098 0.0983,-0.0648 0.0902,-0.1761l-0.0994 0.0201c0.0102,-0.0054 0.0145,-0.0072 0.0252,-0.0104 0.1046,-0.0314 0.253,-0.1512 0.0844,-0.2301 0.0222,0.0046 0.0412,0.0058 0.0611,0.0188 0.0334,0.0218 0.048,0.0803 0.0287,0.1174 -0.0171,0.0329 -0.0724,0.0671 -0.0802,0.0835 0.0883,0.1258 0.6157,0.0553 0.4731,-0.0791 -0.0122,-0.0115 -0.0203,-0.0235 -0.03,-0.0345l-0.0714 0.0196c0.0077,-0.016 0.0853,-0.0517 0.1046,-0.1097 0.0228,-0.0684 -0.073,-0.1262 -0.1355,-0.1283l-0.0109 0.1335c0.0504,-0.0092 0.0116,-0.0159 0.0337,-0.0514 0.0157,0.0296 0.0096,0.0324 0.0304,0.0264 0.0004,0.0188 -0.0085,0.0288 -0.0248,0.0375 -0.0556,0.0048 -0.0678,0.0312 -0.1511,0.0091 -0.0284,-0.0075 -0.1532,-0.059 -0.1778,-0.0879 -0.0053,-0.0067 -0.0111,-0.0137 -0.0174,-0.0263 0.0356,0.011 0.0146,0.0035 0.042,-0.0087 -0.0008,0.0257 -0.0037,0.0213 0.008,0.0336l0.0167 -0.0911c-0.0468,0.0066 -0.0859,0.0288 -0.1045,0.0666 -0.0065,0.0131 -0.0188,0.0415 -0.0209,0.0601 -0.0071,-0.0026 -0.0145,-0.0052 -0.0225,-0.0077l-0.0194 0.079z"/>
  <path class="fil4" d="M1.684 0.5659c-0.0036,-0.0258 -0.0267,-0.0634 -0.0439,-0.0841 -0.0245,-0.0294 -0.1115,-0.142 -0.1449,-0.1458 -0.0284,0.0465 -0.0153,0.2515 0,0.3083 0.0253,-0.009 0.0499,-0.0305 0.0801,-0.044 0.0335,-0.015 0.073,-0.0221 0.1087,-0.0344zm0.4399 1.9518c-0.0003,-0.0663 -0.0633,-0.391 -0.1168,-0.4322 0.0029,0.1292 0.0002,0.2542 -0.0035,0.3829l0.1203 0.0493zm-0.433 -0.2944c0.0362,0.0595 0.1026,0.15 0.1869,0.1649 0.1446,0.0112 0.1357,-0.357 0.0564,-0.4479 -0.0321,-0.0367 -0.0759,-0.0647 -0.1238,-0.0917 -0.0706,-0.0397 -0.1587,0.0129 -0.1774,0.0664 -0.0366,0.103 0.0035,0.2189 0.0579,0.3083zm-0.478 0.0888c0.0747,-0.0309 0.0718,-0.022 0.1181,-0.0801l-0.0847 -0.0744c-0.025,-0.0254 -0.0478,-0.0636 -0.0418,-0.117 0.0166,-0.0337 0.3635,-0.1696 0.3024,-0.2287 -0.0218,-0.0211 -0.4598,0.0941 -0.4525,0.2181 0.0054,0.092 0.0897,0.2675 0.1585,0.2821zm0.332 -0.7421c0.0181,0.0129 0.0899,0.0633 0.0964,0.0759 -0.2942,-0.1744 -0.1844,-0.1333 -0.2554,-0.2215 -0.0157,0.017 -0.0055,0.0133 -0.0262,0.0251 -0.0015,-0.0991 0.1063,-0.0384 0.1161,0.0076 -0.0292,-0.0069 -0.0274,-0.0274 -0.0649,-0.0394 0.0164,0.053 0.1005,0.1328 0.1339,0.1522zm0.4712 0.2066c0.0459,-0.0183 0.0864,-0.0477 0.1111,-0.0744 -0.0101,-0.0129 -0.0645,-0.0337 -0.0828,-0.0421 -0.0145,-0.0404 -0.0366,-0.0708 0.0371,-0.0802 -0.0899,-0.1402 -0.484,-0.0128 -0.5754,-0.1868 -0.0274,-0.0522 -0.1078,-0.123 -0.1726,-0.0962 -0.058,0.024 -0.0889,0.1182 -0.0798,0.1775 0.0214,0.1396 0.1697,0.3221 0.2736,0.2967 0.1259,-0.0308 0.2197,0.0287 0.2823,0.0387 0.0414,0.0066 0.1699,-0.0186 0.2066,-0.0332z"/>
  <path class="fil5" d="M1.6227 1.4653c0.0526,-0.0424 0.0837,-0.1617 0.0974,-0.2301 0.0095,-0.0473 0.0132,-0.0987 -0.0124,-0.1276 -0.0242,0.0094 -0.0416,0.0521 -0.0576,0.0811 -0.026,0.0471 -0.0887,0.1879 -0.0869,0.234 0.0194,0.0206 0.035,0.0373 0.0595,0.0426zm0.4963 0.099c0.0254,-0.002 0.0591,-0.0749 0.0673,-0.1112 -0.028,0.0091 -0.0071,-0.0061 -0.0262,0.0154 -0.0412,0.0464 -0.0367,0.0133 -0.0387,0.0529 0.0199,-0.0076 0.0152,-0.0097 0.0245,-0.0259 -0.004,0.0343 -0.0085,0.0416 -0.0268,0.0688zm-0.4576 -0.2637l0.013 -0.0487c0.0249,0.0136 -0.0018,0.0746 -0.0106,0.0958 -0.0129,0.031 -0.0236,0.052 -0.0571,0.0537 -0.0308,-0.0269 0.0019,-0.081 0.0129,-0.1076 0.0085,-0.0137 0.0262,-0.043 0.0425,-0.0445 0.0019,-0 0.0037,0.0001 0.0054,0.0004 -0.0065,0.0051 -0.0072,0.0099 -0.0127,0.0294 -0.0074,0.0265 0.0063,0.0211 0.0066,0.0216z"/>
 </g>
</svg>
