<?xml version="1.0" encoding="UTF-8"?>
<!DOCTYPE svg PUBLIC "-//W3C//DTD SVG 1.1//EN" "http://www.w3.org/Graphics/SVG/1.1/DTD/svg11.dtd">
<!-- Creator: CorelDRAW 2020 (64-Bit) -->
<svg xmlns="http://www.w3.org/2000/svg" xml:space="preserve" width="76.4096mm" height="80mm" version="1.1" style="shape-rendering:geometricPrecision; text-rendering:geometricPrecision; image-rendering:optimizeQuality; fill-rule:evenodd; clip-rule:evenodd"
viewBox="0 0 6.9661 7.2935"
 xmlns:xlink="http://www.w3.org/1999/xlink"
 xmlns:xodm="http://www.corel.com/coreldraw/odm/2003">
 <defs>
  <style type="text/css">
   <![CDATA[
    .fil2 {fill:#FEFEFE}
    .fil0 {fill:#2B2A29}
    .fil6 {fill:#009846}
    .fil1 {fill:#061DB0}
    .fil5 {fill:#F5C800}
    .fil3 {fill:#FA0000}
    .fil4 {fill:#FECF80}
   ]]>
  </style>
 </defs>
 <g id="Слой_x0020_1">
  <metadata id="CorelCorpID_0Corel-Layer"/>
  <path class="fil0" d="M6.5404 1.6038c0.3824,0.3537 0.4723,0.7565 0.4056,0.747 -0.1453,-0.0207 -0.476,-0.1701 -0.7634,-0.182 -0.2054,-0.0085 -0.3325,-0.0059 -0.5409,0 0.0814,0.1216 0.3911,0.2273 0.6414,0.9663 0.1392,0.4111 0.1132,0.8664 0.0127,0.7406 -0.135,-0.1689 -0.5143,-0.4524 -0.713,-0.5508 -0.0661,-0.0327 -0.132,-0.0776 -0.2039,-0.0944 0,0.1917 -0.004,0.1456 0.0859,0.3185 0.0725,-0.0348 0.1971,-0.0268 0.254,0.024 0.1003,0.0894 0.0442,0.1513 0.0442,0.2439 0.0078,0.0021 0.2284,0.1151 0.1314,0.2983 0.0835,0.0195 0.2658,0.2071 0.2679,0.3033 0.0195,-0.0143 0.1171,-0.1942 0.2564,-0.0289 0.0291,0.0346 0.0499,0.0697 0.064,0.1129 0.1276,0.3904 0.0328,0.316 -0.0091,0.5104 -0.0243,0.1128 -0.0835,0.2448 -0.2203,0.2448 0.1266,0.1099 0.273,0.0648 0.273,0.3387 0,0.0739 -0.0674,0.1213 -0.1365,0.1213 -0.1398,0 -0.3454,-0.1462 -0.4437,-0.2337 -0.078,-0.0695 -0.06,-0.0595 -0.163,-0.0595 0.008,0.0961 0.19,0.1816 0.2507,0.265 0.0732,0.1006 0.0992,0.2861 -0.1192,0.2861 -0.2239,0 -0.377,-0.2057 -0.4247,-0.2376 -0.0203,0.2445 -0.2528,0.6065 -0.2528,0.6319 0,0.0878 0.0629,0.0463 -0.0657,0.2933 -0.0738,0.1419 -0.3002,0.4899 -0.49,0.4843 -0.102,-0.003 -0.0662,-0.028 -0.1651,0.0133 -0.3955,0.1649 -0.71,0.1546 -1.1259,0.0852 -0.2947,-0.0491 -0.6391,-0.1194 -0.8466,-0.3262 -0.3529,-0.3517 0.1055,-0.6273 0.4375,-0.7126 0.5345,-0.1373 0.3673,0.0847 0.6301,-0.2495 0.0155,-0.0197 0.0472,-0.0497 0.0534,-0.073 -0.0257,0.006 -0.0578,0.0219 -0.0853,0.031 -0.3886,0.1286 -0.8737,0.1643 -1.2787,0.064 -0.0621,-0.0154 -0.1222,-0.044 -0.1678,-0.0546 0.049,0.2103 0.149,0.8645 -0.2174,0.8645 -0.5026,0 -0.1917,-1.3376 -0.5915,-1.4307 -0.0075,0.0904 -0.0324,0.197 -0.0418,0.2969 -0.0255,0.271 0.0283,0.799 -0.2861,0.9424 -0.0962,0.0439 -0.3044,0.0817 -0.3963,0.0007 -0.1865,-0.1643 0.0902,-0.5364 0.1561,-0.8223 0.0225,-0.0976 0.0364,-0.2156 0.0268,-0.3212 -0.002,-0.0219 -0.0092,-0.044 -0.0097,-0.0662 -0.1455,0.1673 -0.2129,0.2477 -0.4803,0.2477 -0.1403,0 -0.2729,-0.0113 -0.2913,-0.1741 -0.0291,-0.2572 0.3298,-0.3277 0.4644,-0.4819 0.1163,-0.1333 0.1098,-0.2816 0.2306,-0.4316 0.1662,-0.2064 0.1275,-0.0416 0.3448,-0.4136 0.0338,-0.0562 0.076,-0.1099 0.1363,-0.1418 -0.0282,-0.4234 0.3471,-0.31 0.5713,-0.46 0,-0.0451 -0.0152,-0.0768 -0.0152,-0.1213 0,-0.1541 0.1672,-0.2679 0.3236,-0.2679 0.1218,0 0.229,0.0158 0.3416,0.0476 0.1497,0.0424 0.1444,-0.0041 0.3286,-0.0801 0.0334,-0.0138 0.1966,-0.0905 0.2296,-0.1192 -0.2244,-0.005 -0.5048,-0.2174 -0.5055,-0.2174 -0.0178,0 -0.1942,0.1227 -0.3422,0.049 -0.0261,-0.013 -0.0572,-0.0364 -0.0572,-0.0692 0,-0.1397 0.0954,-0.1221 0.2037,-0.1653 0.0138,-0.0055 0.019,-0.0082 0.0339,-0.0116 -0.0535,-0.0681 -0.0994,-0.1545 -0.1657,-0.2084 -0.0925,-0.0753 -0.1824,-0.1406 -0.2448,-0.2455 -0.046,-0.0773 -0.0617,-0.0659 -0.1389,-0.1088 -0.1348,-0.0748 -0.6557,-0.4292 -0.3593,-0.4673 0.0894,-0.0115 0.1833,0.0047 0.2715,-0.0015 0.1291,-0.0092 0.2717,-0.025 0.3996,-0.025 0.0058,-0.0701 0.0486,-0.1221 0.0738,-0.184 0.0277,-0.0679 0.025,-0.2367 0.1524,-0.3633 0.0708,-0.0704 0.0388,-0.0586 0.0471,-0.2006 0.0071,-0.1212 0.1386,-0.7737 0.2576,-0.7737 0.1271,0 0.3588,0.3446 0.4145,0.4499 0.0705,-0.0164 0.3124,-0.1874 0.8818,-0.2911 0.5382,-0.098 1.1813,-0.0274 1.6696,0.2169 0.1115,0.0558 0.4212,0.1889 0.4212,0.3219 -0.2557,0 -0.5653,0.066 -0.8058,0.1497 -0.0291,0.0101 -0.0708,0.0222 -0.0941,0.0424 0.2532,0.059 0.3881,0.0768 0.6438,0.1904 0.3191,0.1418 0.5631,0.3034 0.8262,0.5236zm-2.1676 2.0513c0.0186,-0.0125 0.092,-0.1135 0.1264,-0.1365 0.0013,0.0153 0.0823,0.1916 0.1098,0.4109 0.0098,0.0778 0.0119,0.2486 0.161,0.042 0.0748,-0.1035 0.1763,-0.3052 0.1791,-0.4276 0.0209,0.024 0.0464,0.101 0.052,0.13 0.0345,0.1792 -0.1632,0.1984 -0.1632,0.3654 0,0.1653 0.0914,0.1282 0.1249,0.1786 0.0268,0.0403 -0.0507,0.1149 0.0469,0.1803 -0.0257,0.0486 -0.0426,0.1424 -0.0758,0.1921 -0.1237,0 -0.1601,-0.0807 -0.2734,-0.1159 -0.1332,-0.0413 -0.2105,0.0601 -0.2777,0.0957 -0.0919,-0.0615 -0.0744,-0.2195 -0.3115,-0.2951 -0.0415,-0.0132 -0.0344,-0.0128 -0.0613,-0.0398 -0.0541,-0.0543 -0.0832,-0.0448 0.0047,-0.1748 0.0145,-0.0215 0.0626,-0.0859 0.085,-0.0919 0.0231,0.099 0.1495,0.2097 0.2311,0.2745 0.2182,0.1732 0.8184,0.3665 0.5128,0.1191 -0.2903,-0.235 -0.3029,-0.2497 -0.45,-0.642 -0.0074,-0.0196 -0.0135,-0.0482 -0.021,-0.065zm-1.5116 0.824c0,0.1174 0.1133,0.1213 0.2174,0.1213 -0.015,0.0313 -0.004,0.118 -0.0203,0.1263 -0.0067,0.0034 -0.1517,0.018 -0.2022,0.0303 -0.0235,0.0057 -0.0438,0.0152 -0.0707,0.0152 -0.0111,-0.0476 -0.0638,-0.1068 -0.1061,-0.1264 -0.1187,-0.0549 -0.1141,-0.0152 -0.1871,-0.0152 -0.0015,-0.0177 -0.0089,-0.0426 -0.0152,-0.0556 0.1253,-0.0292 0.1404,-0.2016 0.1618,-0.2932 0.1718,-0.0143 0.1846,-0.0335 0.2781,-0.0961l0.0658 0.0303c-0.0065,0.0279 -0.1214,0.1952 -0.1214,0.263zm0.3893 -0.5612c-0.0506,-0.0118 -0.0995,-0.0346 -0.1213,-0.0758 0.0394,-0.0745 0.5116,-0.138 0.5873,-0.1121 0.1215,0.0416 -0.0237,0.2032 -0.0312,0.2082 -0.0402,-0.1725 -0.1561,-0.2188 -0.3114,-0.1143 -0.0572,0.0385 -0.0947,0.0749 -0.1233,0.0941zm-0.1112 -0.4196c0.1062,-0.0859 0.3789,-0.3262 0.4449,-0.4247 0.0491,0.0329 0.1668,0.2343 0.1668,0.278 0,0.0804 -0.0456,0.0714 -0.107,0.08l-0.5047 0.0666z"/>
  <path class="fil1" d="M2.6278 0.0865c0.0451,0.0195 0.1307,0.1308 0.1625,0.1716 0.08,0.1027 0.4823,0.7274 0.4693,0.644 -0.0312,-0.0547 -0.0581,-0.1119 -0.091,-0.1681 -0.0459,-0.0782 -0.0913,-0.1546 -0.1362,-0.2336 0.0293,-0.0115 0.0679,-0.0352 0.1005,-0.0517 0.4178,-0.2113 0.931,-0.2951 1.4001,-0.2645 0.3425,0.0223 1.0511,0.1699 1.2646,0.4325 -0.0019,0.0014 -0.6083,0.1011 -0.7813,0.2189 -0.0579,0.0244 -0.0512,0.0398 -0.1244,0.0303 -0.1371,-0.0178 -0.3294,-0.0307 -0.4635,-0.0262 -0.1485,0.005 -0.3089,0.0391 -0.4548,0.0701 0.2025,0.0161 0.4492,-0.0629 0.8317,-0.0128 0.3382,0.0443 0.6646,0.132 0.9729,0.2783 0.356,0.169 0.7377,0.4533 0.9601,0.7765 0.0502,0.0729 0.1359,0.2171 0.1405,0.2969 -0.1945,-0.0477 -0.3622,-0.0959 -0.5532,-0.1217 -0.1502,-0.0203 -0.3366,-0.032 -0.4867,-0.0271 -0.0684,0.0022 -0.144,0.0091 -0.2125,0.0084 -0.1307,-0.0006 -0.344,-0.225 -0.7688,-0.3434 -0.0568,-0.0158 -0.2005,-0.0598 -0.2582,-0.0463 0.0301,0.0254 0.2593,0.0775 0.3205,0.0999 0.1011,0.0446 0.3276,0.1423 0.478,0.2364 0.0712,0.0445 0.1671,0.1261 0.2544,0.2098 0.1189,0.1139 0.2351,0.2492 0.3231,0.3892 0.1331,0.2116 0.4241,0.9188 0.3377,1.1509 -0.0445,-0.0605 -0.2579,-0.2267 -0.4046,-0.3368 -0.1952,-0.1465 -0.2936,-0.1929 -0.5198,-0.3042 -0.0401,-0.0197 -0.0194,-0.0369 -0.0526,-0.2048 -0.038,-0.1926 -0.1271,-0.3743 -0.2566,-0.5211 -0.2723,-0.3086 -0.5108,-0.3371 -0.9018,-0.3528 -0.0024,-0.0189 0.0133,-0.0636 0.0171,-0.0886 0.012,-0.0791 0.0076,-0.2334 -0.039,-0.2824 -0.0149,0.0482 0.025,0.2491 -0.021,0.353 -0.0232,0.0524 -0.0644,0.0463 -0.118,0.0744 -0.0411,0.0215 -0.083,0.0749 -0.1038,0.0838 0.0232,-0.1584 0.0568,-0.2573 0.0075,-0.4239 -0.0402,-0.136 -0.0984,-0.2228 -0.1885,-0.2864 -0.0989,-0.0698 -0.2417,-0.0968 -0.3737,-0.0471 -0.1753,0.066 -0.2064,0.2172 -0.2294,0.245 -0.0155,-0.0334 -0.0248,-0.1795 -0.1127,-0.3417 -0.0532,-0.0981 -0.1387,-0.2112 -0.2385,-0.2649 -0.1428,-0.0769 -0.299,-0.0296 -0.3996,0.089 -0.0812,0.0957 -0.0924,0.2281 -0.0621,0.3714 0.028,0.1322 0.118,0.3089 0.174,0.4405 0.0254,0.0596 0.1041,0.2589 0.0064,0.2877 -0.1064,0.0314 -0.2395,-0.188 -0.2481,-0.189 -0.0228,0.0428 0.095,0.1692 0.1209,0.2029 -0.0601,0.002 -0.1278,-0.0481 -0.158,-0.0769 -0.0253,-0.0241 -0.1677,-0.179 -0.1865,-0.1833 -0.0415,-0.0096 -0.032,0.0502 -0.0329,0.0788 0.017,-0.005 0.0313,-0.0151 0.0497,-0.0111 0.0445,0.0098 0.0474,0.0555 0.0555,0.0929 0.0076,0.0351 0.0235,0.0611 0.0339,0.0892 -0.0501,-0.0267 -0.2017,-0.1523 -0.2215,-0.2122 -0.0297,-0.0529 -0.0418,-0.1502 0.0185,-0.1847 0.0552,-0.0316 0.1724,0.0651 0.1992,0.0828 -0.0087,-0.0275 -0.0462,-0.0635 -0.0631,-0.0804 -0.0139,-0.0139 -0.018,-0.0288 -0.0187,-0.0495 -0.0564,-0.0046 -0.1154,-0.0254 -0.1622,0.0187 -0.0471,0.0569 -0.0327,0.0507 -0.0314,0.1305 -0.1207,-0.0142 -0.4853,-0.3223 -0.4901,-0.3851 0.0122,-0.013 0.0157,-0.0138 0.0394,-0.019 0.2107,-0.0147 0.4256,-0.0179 0.6373,-0.0271 -0.0104,0.0762 0.0059,0.1404 0.0132,0.2127 0.022,-0.0896 0.0185,-0.1605 0.0547,-0.265 0.0133,-0.0383 0.0161,-0.0577 0.0396,-0.0666l0.0152 0.0768 0.0327 0.1194c0.0172,0.0597 0.0739,0.1961 0.1156,0.2205 -0.0189,-0.0739 -0.0678,-0.1658 -0.0948,-0.2429 -0.0402,-0.1148 -0.0499,-0.3014 -0.008,-0.4203 0.0612,-0.1737 0.2634,-0.3926 0.5013,-0.2753 0.1302,0.0642 0.2355,0.2511 0.2694,0.2681 0.0249,-0.0441 -0.0651,-0.1499 -0.1164,-0.1988 -0.1052,-0.1002 -0.0972,-0.0682 -0.1914,-0.1251 0.1733,-0.0459 0.2823,0.0003 0.3485,-0.0117 0.0019,-0.0732 -0.3226,-0.5375 -0.3809,-0.6147 -0.092,-0.0614 -0.1543,0.369 -0.1592,0.4232 -0.006,0.0657 -0.0023,0.1291 -0.0065,0.1917 -0.0048,0.003 -0.0956,0.0344 -0.1053,0.0375 -0.0026,-0.1751 0.0396,-0.3891 0.0901,-0.5573 0.0148,-0.0492 0.0861,-0.295 0.1713,-0.2581zm2.0243 2.5259c-0.0426,-0.0988 -0.1587,-0.248 -0.2467,-0.2759 0.022,0.0285 0.0449,0.0586 0.0707,0.0828 0.1847,0.1738 0.1918,0.4355 0.1511,0.6697 -0.0398,0.2034 -0.1791,0.4114 -0.3298,0.5512 -0.2275,0.2404 -0.5705,0.6327 -0.5213,0.981 0.0255,0.1808 0.1708,0.2838 0.3532,0.3166 0.0318,0.0037 0.0848,0.0117 0.1057,0.0272 0.0252,0.106 -0.0298,0.2621 -0.0743,0.3578 -0.0726,0.0073 -0.239,-0.0691 -0.3079,-0.1112 -0.1,-0.0613 -0.1856,-0.1412 -0.2547,-0.2358 -0.1841,-0.252 -0.1715,-0.6112 0.0224,-0.8535 0.0723,-0.0904 0.2644,-0.28 0.1865,-0.402 -0.0386,-0.0605 -0.105,-0.0865 -0.1806,-0.0787 0.0196,0.0153 0.0405,0.0156 0.0568,0.0286 -0.0125,0.0082 -0.2389,0.0273 -0.2784,0.0328 -0.0843,0.0116 -0.1795,0.026 -0.2563,0.0524 -0.0388,0.0133 -0.0744,0.0356 -0.0826,0.0735 -0.0223,0.1029 0.2549,0.1857 0.2681,0.1868 0.0304,0.0095 0.0742,0.0341 0.0988,0.0489 0.0045,0.0491 -0.1231,0.1961 -0.1593,0.2152 -0.0196,0.0104 -0.3007,-0.1222 -0.3164,-0.1395 0.0502,-0.097 0.0561,-0.2081 0.0458,-0.3187 -0.0089,-0.095 -0.0258,-0.1343 -0.0459,-0.2171 0.1828,-0.0783 0.3923,-0.0891 0.5894,-0.1109 0.1551,-0.0171 0.1616,-0.0359 0.2098,0.0249 0.0428,0.0539 0.1559,0.0339 0.2115,-0.0007 0.2305,-0.1429 0.2845,-0.6984 0.0913,-0.8886 -0.0221,-0.0218 -0.0499,-0.0338 -0.0729,-0.056 0.0259,-0.0454 0.06,-0.1051 0.0713,-0.1736 0.0176,-0.1061 -0.0214,-0.1102 -0.0959,-0.1499 0.0123,-0.0317 0.0724,-0.0709 0.1165,-0.0876 0.1166,-0.0442 0.2359,-0.0385 0.3566,-0.0198 0.1394,0.0287 0.2389,0.0484 0.3688,0.1217 0.3866,0.2182 0.4918,0.568 0.5117,0.9817 0.0043,0.0987 -0.1207,0.6104 -0.2108,0.6062 -0.0264,-0.2189 -0.2021,-0.5821 -0.3562,-0.743 0.0672,0.1011 0.1523,0.3624 0.144,0.4391 -0.0098,0.0904 -0.1221,0.4101 -0.2059,0.4371 -0.0481,-0.0227 -0.044,-0.1819 -0.0506,-0.2306 -0.0108,-0.0794 -0.0555,-0.1878 -0.0832,-0.2638 -0.0159,-0.0436 -0.0218,-0.0374 -0.0033,-0.0787 0.1196,-0.267 0.2442,-0.472 0.1029,-0.7996zm-0.3133 1.0722c0.0133,0.0878 0.1,0.3335 0.1516,0.4091 0.0635,0.093 0.1554,0.17 0.2431,0.2371 0.0241,0.0184 0.0969,0.0607 0.0914,0.0948 -0.0955,-0.004 -0.2609,-0.0884 -0.3363,-0.1395 -0.1052,-0.0713 -0.2089,-0.1604 -0.2547,-0.2191 -0.0395,-0.0506 -0.0814,-0.1011 -0.1097,-0.1591 0.0264,-0.0676 0.1483,-0.1903 0.2145,-0.2233z"/>
  <path class="fil2" d="M5.2953 6.1189c-0.0133,0.0329 -0.0752,0.1537 -0.0934,0.1725 -0.0067,-0.0091 -0.0394,-0.1027 -0.0334,-0.1136 0.0533,-0.0967 0.0713,-0.1204 0.1267,-0.2287 0.1186,-0.2322 0.1275,-0.3853 0.1297,-0.6424 0.0407,0.065 0.0336,0.2517 0.0211,0.3355 -0.025,0.1676 -0.0846,0.322 -0.1506,0.4766zm0.8328 -1.4845c0.0181,-0.0246 0.0356,-0.0399 0.0523,-0.048 -0.0054,0.0006 -0.011,0.0009 -0.017,0.001 0.0067,-0.0554 0.025,-0.1566 0.0799,-0.1891 0.0442,-0.0262 0.0845,-0.0236 0.1212,0.0153 0.0673,0.0713 0.1076,0.2213 0.1138,0.3236 0.0033,0.0543 -0.0037,0.1487 -0.0387,0.1768 -0.0133,-0.0396 -0.0218,-0.0839 -0.0356,-0.1252 -0.0239,-0.0719 -0.0589,-0.1612 -0.1071,-0.2165 -0.0252,-0.02 -0.0459,-0.0037 -0.0826,0.0073 0.0537,0.0041 0.0967,0.0784 0.122,0.1405 0.0601,0.1476 0.137,0.4032 -0.0601,0.4796 -0.0969,0.0376 -0.1755,-0.0514 -0.224,-0.1333 0.0444,0.0932 0.0857,0.1779 0.1928,0.2403 0.0833,0.0485 0.2175,0.1117 0.2151,0.229 -0.0013,0.0637 -0.0312,0.1256 -0.0907,0.1309 -0.1075,0.0095 -0.2856,-0.1229 -0.3661,-0.189 -0.0423,-0.0347 -0.0797,-0.058 -0.1082,-0.1037 0.0665,-0.0705 0.0713,-0.1064 0.0378,-0.1973 -0.0661,-0.1085 -0.1786,-0.1397 -0.2279,-0.1931 -0.0524,0.015 -0.1087,0.024 -0.1585,0.0062 0.007,-0.0163 0.0217,-0.0327 0.0342,-0.0423l0.1043 -0.1068c0.0317,-0.0342 0.0531,-0.0853 0.0561,-0.1505 0.0034,-0.0738 -0.0384,-0.2783 -0.075,-0.3345 -0.0249,0.1175 0.0374,0.2327 0.0119,0.3619 -0.0106,0.0539 -0.0372,0.0788 -0.0632,0.1135 -0.0193,0.0258 -0.0567,0.0816 -0.079,0.099 -0.052,0.0001 -0.0998,-0.0695 -0.1626,-0.0776 0.0116,0.0398 0.0897,0.073 0.1117,0.1097l0.0144 0.0195c0.0138,0.0392 -0.032,0.1003 -0.0452,0.1537 0.0341,-0.0019 0.0513,0.004 0.0621,-0.0285 0.0422,-0.1272 0.3207,-0.0369 0.378,0.0808 0.036,0.0741 -0.031,0.1764 -0.1024,0.1876 -0.0461,0.0072 -0.1095,-0.009 -0.1417,-0.0156 -0.0285,-0.0041 -0.077,-0.0105 -0.1161,-0.0211 0.0317,0.0231 0.0651,0.0527 0.0923,0.0611 0.0915,0.0282 0.0956,0.0525 0.1511,0.1219 0.0332,0.0414 0.0679,0.067 0.111,0.0972 0.0677,0.0476 0.1269,0.0905 0.1146,0.2044 -0.0167,0.155 -0.2332,0.0669 -0.318,0.0234 -0.051,-0.0261 -0.1547,-0.1104 -0.18,-0.1657 0.0128,-0.1887 -0.008,-0.3732 -0.0752,-0.5499 -0.0445,-0.1071 -0.1383,-0.2765 -0.2305,-0.3507 -0.041,-0.0329 -0.0863,-0.0659 -0.1278,-0.0998 -0.0256,-0.021 -0.0406,-0.0254 -0.0476,-0.0631 -0.0118,-0.0638 0.0138,-0.158 0.0519,-0.2093 0.2056,0.0543 0.3344,0.0779 0.5197,-0.0468 0.0543,-0.0366 0.1188,-0.1144 0.171,-0.1809 -0.1012,0.1103 -0.2679,0.2069 -0.3646,0.2303 -0.0747,0.018 -0.2787,0.0114 -0.3462,-0.043 -0.0456,-0.0367 -0.0411,-0.0933 -0.0394,-0.1628 0.0619,-0.0056 0.1232,0.0149 0.193,0.0025 -0.0115,-0.008 -0.1349,-0.0376 -0.1708,-0.0501 -0.1631,-0.0568 -0.1783,-0.1122 -0.0871,-0.2325 0.017,-0.0225 0.0756,-0.0995 0.1043,-0.1098 -0.0028,0.0373 -0.038,0.105 -0.0204,0.133 0.0728,0.1159 0.4563,-0.0236 0.5529,-0.1751 0.0739,-0.1158 -0.091,-0.1456 -0.1185,-0.1685 0.0544,-0.0352 0.1867,-0.0175 0.2153,0.0531 0.0311,0.0768 -0.0511,0.1981 -0.0716,0.32 -0.0063,0.0373 -0.0045,0.1115 0.0489,0.1189 0.0534,-0.0391 0.0016,-0.167 0.0354,-0.2287 0.0449,0.0124 0.1252,0.0495 0.1443,0.0931 0.0214,0.0487 0.0075,0.1033 -0.0268,0.1573 0.0068,-0.0088 0.1649,0.1126 0.1811,0.128 0.237,0.2248 0.0756,0.6146 -0.2063,0.7095 -0.0087,0.0029 -0.0179,0.0061 -0.0273,0.0094 0.0724,-0.0123 0.1825,-0.031 0.2081,-0.0493 0.0137,0.0203 0.0258,0.0405 0.0367,0.0606 -0.0171,-0.0429 -0.0211,-0.0826 0.0239,-0.1145 0.0887,0.1153 0.0754,0.1109 0.1021,0.2338 0.006,-0.0133 0.0064,-0.0222 0.0135,-0.0349 0.0505,-0.0033 0.0562,0.0326 0.0846,0.0334 0.0267,-0.0541 -0.0589,-0.0551 -0.1075,-0.1314 -0.0594,-0.0934 -0.0617,-0.2383 0.0043,-0.3283zm-3.5867 0.2434c-0.0133,-0.0566 -0.0218,-0.1494 0.0305,-0.1723 0.0566,-0.0248 0.1205,0.0456 0.1379,0.0717 0.0346,0.0518 0.0448,0.0977 0.0454,0.1722 0.0013,0.1689 0.0553,0.4305 -0.057,0.5699 -0.0464,0.0576 -0.136,0.0972 -0.1991,0.09 -0.057,-0.0065 -0.0838,-0.0748 -0.0999,-0.1247l-0.0547 -0.1156c-0.0142,-0.0098 -0.0206,-0.0371 -0.0445,-0.0442 -0.0105,0.0205 0.0603,0.2034 0.0705,0.2464 0.0364,0.1535 -0.0795,0.2215 -0.2057,0.2105 -0.123,-0.0106 -0.1676,-0.1553 -0.2095,-0.2603 -0.0201,-0.0504 -0.0176,-0.1581 -0.078,-0.1805 -0.0747,-0.0278 -0.0013,0.0784 0.0088,0.0931 0.0174,0.0256 0.0273,0.0579 0.0394,0.0924 0.0704,0.1996 0.1643,0.3295 0.19,0.5985 0.0539,0.5638 -0.2149,0.7175 -0.3573,0.4783 -0.1903,-0.3197 -0.0928,-1.0409 -0.3145,-1.2627 -0.1213,-0.1213 -0.2861,-0.0882 -0.3533,0.0173 0.0194,-0.0089 0.1169,-0.0787 0.187,-0.0192 -0.0033,0.0321 -0.0151,0.0737 -0.0209,0.1092 -0.0258,0.1583 -0.017,0.2199 -0.0188,0.3762 -0.0033,0.2749 -0.0501,0.6049 -0.3308,0.7151 -0.1601,0.0628 -0.3043,0.0351 -0.3008,-0.1641 0.0023,-0.1316 0.0869,-0.2878 0.1359,-0.3901 0.166,-0.3461 0.0311,-0.7801 0.1266,-1.1674 0.0214,-0.0867 0.0808,-0.1327 0.0806,-0.1749 -0.0297,0.0066 -0.1399,0.1002 -0.1483,0.1249 0.0157,0.0394 0.0344,0.0197 0.0223,0.0805 -0.0581,0.292 0.0336,0.4071 -0.1687,0.5996 -0.1765,0.1679 -0.6129,0.1874 -0.5746,-0.0582 0.0315,-0.2024 0.3626,-0.2435 0.4604,-0.42 0.0522,-0.0943 0.087,-0.2084 0.1419,-0.2979 0.0579,-0.0944 0.1346,-0.1607 0.2076,-0.2272 0.0897,-0.0816 0.116,-0.1615 0.1862,-0.2535 0.0868,-0.1138 0.25,-0.2612 0.4005,-0.3058 -0.0797,0.0114 -0.1569,0.0364 -0.2432,0.0739 -0.0145,-0.2388 0.1943,-0.2522 0.3755,-0.317 0.076,-0.0272 0.1807,-0.0623 0.2471,-0.0968 0.058,-0.0302 0.1578,-0.1063 0.1809,-0.1647 -0.0608,0.0373 -0.1122,0.1283 -0.2314,0.1069 -0.076,-0.1619 0.1269,-0.2734 0.2739,-0.2821 0.2268,-0.0135 0.5198,0.1001 0.6459,0.2171 0.1344,0.1247 0.2588,0.3222 0.239,0.5196 -0.0171,0.1704 -0.1334,0.2868 -0.3194,0.2863 -0.0165,-0.005 -0.0374,-0.2028 -0.0435,-0.234 -0.0074,-0.0302 -0.0832,-0.1976 -0.0358,-0.2263 0.0246,-0.0149 0.072,-0.0105 0.1353,0.0411l0.0436 0.0233c-0.0187,-0.0292 -0.3347,-0.3515 -0.2932,-0.1313 0.0187,0.0896 0.0298,0.1739 0.0685,0.2575 0.0347,0.075 0.0763,0.142 0.0817,0.243 0.0064,0.1198 -0.0301,0.2775 -0.1506,0.3159 -0.0168,-0.0656 -0.0647,-0.1048 -0.0724,-0.1344 0.0219,0.0056 0.0629,0.0371 0.0868,0.0494 -0.0228,-0.0468 -0.0691,-0.1062 -0.0999,-0.1495 -0.1332,-0.1869 -0.3384,-0.3248 -0.5637,-0.3764 -0.0333,-0.0076 -0.0648,-0.0137 -0.095,-0.0182 0.2586,0.0615 0.5087,0.2849 0.6212,0.5129 0.0964,0.1953 0.1426,0.1823 0.1768,0.4796 0.0076,0.0665 0.0118,0.1338 0.0149,0.201 0.0016,0.0356 0.0023,0.0723 0.005,0.1069 0.0034,0.0432 0.0033,0.0718 0.0297,0.0791 0.0194,-0.0334 0.009,-0.0956 0.0097,-0.1398 0.0213,0.0121 0.0367,0.0273 0.0581,0.0386 -0.0138,-0.0347 -0.0333,-0.0702 -0.0496,-0.105 -0.0276,-0.0588 -0.0186,-0.1187 -0.0312,-0.1832zm2.3763 1.6728c0.0346,-0.0576 0.0558,-0.0687 0.0367,-0.1475 -0.0096,-0.0474 -0.0213,-0.0809 -0.0377,-0.1209 -0.0757,0.0046 -0.2405,0.2653 -0.2429,0.3402 -0.0013,0.0399 0.026,0.1555 0.0732,0.1649 0.0348,-0.0198 0.1396,-0.1873 0.1707,-0.2368zm-1.8324 0.3685c0.0739,0.0287 0.1055,0.053 0.1617,0.0965 0.015,0.0116 0.037,0.0233 0.0319,0.0497 -0.0334,0.0107 -0.1291,-0.0053 -0.2107,-0.0227 -0.0372,-0.008 -0.1168,-0.0345 -0.1262,-0.0306 0.0831,0.0297 0.1634,0.0587 0.2379,0.0802 0.0685,0.0112 0.1369,0.0241 0.2013,0.0421 0.0426,0.0119 0.1378,0.0424 0.1689,0.0766 -0.194,-0.0122 -0.7234,-0.1329 -0.8843,-0.2582 0.0241,0.0059 0.0473,-0.002 0.0717,-0.0033 -0.1056,-0.0383 -0.2023,-0.0953 -0.2501,-0.2014 -0.0174,-0.0387 -0.0083,-0.1523 0.0466,-0.1998 0.064,-0.0554 0.173,-0.0187 0.2453,0.0078 0.1619,0.0595 0.2643,0.1432 0.3972,0.2471 0.2185,0.1708 0.4283,0.3653 0.7213,0.3865 0.2767,0.0082 0.3423,-0.0503 0.5763,-0.161 0.0116,0.0119 0.0321,0.0484 0.0422,0.0644l-0.0717 0.0283c-0.3922,0.1948 -0.7583,0.1695 -1.0971,-0.0652 -0.1749,-0.1211 -0.428,-0.3392 -0.6294,-0.3996 -0.078,-0.0234 -0.1607,-0.0492 -0.2129,0.0251 0.0153,-0.0089 0.0371,-0.015 0.0638,-0.0194 0.0606,-0.01 0.1407,0.0156 0.196,0.0393 0.0733,0.0314 0.145,0.08 0.2124,0.1228 0.1806,0.1146 0.1158,0.0745 -0.0513,0.034 -0.088,-0.0213 -0.162,-0.0298 -0.2426,-0.0473 -0.0562,-0.0122 -0.085,-0.0213 -0.1428,-0.0218 0.032,0.0102 0.0654,0.0232 0.102,0.0323 0.1447,0.036 0.3018,0.0431 0.4425,0.0978zm1.4854 -0.7052c-0.0506,0.0472 -0.138,0.1628 -0.2187,0.1413 -0.09,-0.0488 -0.2281,-0.1929 -0.3928,-0.249 -0.204,-0.0696 -0.3299,-0.0049 -0.3784,-0.0151 0.0076,-0.0604 0.2205,-0.3065 0.2758,-0.3644 -0.0349,0.0211 -0.0791,0.0394 -0.1092,0.049 -0.1694,0.0573 -0.3162,0.1101 -0.492,0.1547 -0.2884,0.0732 -0.8288,0.0497 -1.055,-0.0746 0.0329,-0.008 0.1392,-0.0541 0.1411,-0.0543 0.0397,-0.0042 0.3716,0.0796 0.5011,0.0774 0.2621,-0.0015 0.4327,-0.0329 0.6839,-0.1159 0.016,-0.0067 0.0412,-0.0209 0.0709,-0.0377 -0.0978,0.0308 -0.3397,0.0812 -0.3921,0.0852 -0.0019,-0.0777 0.0266,-0.159 0.0342,-0.2369 0.0148,-0.1525 -0.1031,-0.3323 -0.2069,-0.4365 -0.0598,-0.0601 -0.1254,-0.1079 -0.2214,-0.152l-0.0009 -0.0614c0.0043,-0.001 0.299,-0.1231 0.311,-0.119 0.0093,0.0032 0.0458,0.0242 0.0876,0.0478 -0.1029,-0.0831 -0.1587,-0.2361 -0.059,-0.2463l0.167 0.0082c0.0355,0.0044 0.0321,0.0081 0.0439,-0.0007 -0.0213,-0.0096 -0.0649,-0.0298 -0.0752,-0.0484 0.028,-0.0205 0.0682,-0.0337 0.0827,-0.0607 -0.0357,-0.0171 -0.1454,0.0242 -0.1889,0.0307 -0.1517,0.0229 -0.3144,0.0332 -0.2249,-0.1649 0.0132,-0.0291 0.0638,-0.1252 0.0837,-0.1416 0.0322,0.0066 0.0333,0.003 0.0157,0.0278 -0.1532,0.2163 0.0804,0.1532 0.1999,0.0795 0.2931,-0.1808 0.345,-0.5164 0.1434,-0.4178 -0.071,0.0347 -0.056,0.0641 -0.0998,0.0353 0.0296,-0.0558 0.1627,-0.131 0.2321,-0.1227 0.061,0.0073 0.0832,0.0654 0.1073,0.1306 0.0215,0.058 0.0237,0.045 -0.0086,0.0866 -0.0657,0.0845 -0.1286,0.2023 -0.1655,0.3223 -0.0576,0.1875 -0.0279,0.2386 0.0045,0.4171 0.0186,0.1025 -0.1154,0.1238 -0.1881,0.1037 0.0308,0.0163 0.058,0.0294 0.0727,0.033 0.0462,0.0114 0.1419,0.0878 0.1786,0.1246 0.1465,0.1466 0.2949,0.4521 0.1361,0.6388 0.0499,-0.0259 0.1024,-0.049 0.1423,-0.0527 0.033,-0.0031 0.1039,-0.0041 0.0927,0.054 0.0307,-0.0176 0.0526,-0.0077 0.1074,-0.0081 0.0373,-0.0003 0.1065,-0.0225 0.1412,-0.0041l-0.0118 -0.0146c0.0088,-0.0236 0.2993,-0.0895 0.3339,-0.0925 -0.0275,-0.027 -0.0786,-0.0418 -0.1157,-0.0349 -0.0903,0.0168 -0.2109,0.1139 -0.3732,0.0879 -0.0941,-0.0151 -0.1505,-0.0685 -0.1851,-0.1339 -0.0128,-0.0242 -0.0405,-0.1088 -0.0441,-0.1729 -0.0078,-0.1387 0.0618,-0.1091 0.0837,-0.0757 0.0258,0.0393 0.0345,0.1051 0.0463,0.1273 0.0342,0.0641 0.0695,0.0982 0.1674,0.0864 0.1697,-0.0713 0.2106,-0.2457 0.2182,-0.4168 0.0034,-0.0889 0.0015,-0.2188 -0.0283,-0.295 -0.0696,-0.1776 -0.1996,-0.0425 -0.2661,0.0427 -0.0467,0.0598 -0.0849,0.0346 -0.0932,-0.0031 -0.0172,-0.0772 0.1389,-0.207 0.2135,-0.2376 0.0822,-0.0347 0.1243,-0.0376 0.1786,0.0187 0.1026,0.1065 0.1545,0.5049 0.2041,0.5301 0.0631,0.0264 0.0793,-0.1176 0.0885,-0.1686 0.0029,-0.0262 0.0232,-0.1373 0.0102,-0.1532 -0.0015,0.0158 -0.0271,0.0641 -0.0356,0.0891 -0.0107,0.0314 -0.0173,0.0638 -0.0423,0.0804 -0.052,-0.0124 -0.1235,-0.2159 -0.0849,-0.2831 0.0369,-0.0642 0.1721,-0.1197 0.272,-0.0822 0.202,0.0758 0.3624,0.5484 0.2302,0.832 -0.0222,0.0475 -0.0452,0.0819 -0.0717,0.1204 -0.0911,0.1324 -0.3465,0.2583 -0.5354,0.2081 -0.0292,-0.0078 -0.0967,-0.0202 -0.1377,-0.0397 0.0502,0.0603 0.1245,0.0853 0.201,0.0894 0.1662,0.009 0.2073,-0.061 0.2876,0.0012 0.0393,0.0243 0.1325,0.0752 0.1283,0.1284 -0.0184,0.0529 -0.1855,0.2685 -0.2181,0.2989zm-0.7652 -1.5968c0.046,-0.0105 0.1184,-0.1245 0.14,-0.176 0.036,-0.0856 0.0321,-0.2015 -0.0377,-0.231 -0.0485,0.0615 -0.1018,0.3005 -0.1023,0.407zm-0.4562 -2.3459c0.0449,-0.0205 0.1476,-0.0948 0.1711,-0.1225 -0.013,-0.0124 -0.0257,-0.0183 -0.0402,-0.0287 0.05,-0.0051 0.1137,0.0207 0.1414,-0.0749l-0.1072 -0.0204c0.0334,-0.0045 0.1074,-0.0085 0.1315,-0.0226 0.0189,-0.0391 0.0204,-0.0919 -0.0217,-0.101 -0.0336,-0.0073 -0.0947,0.004 -0.1317,0.0028l0.1371 -0.0482c-0.011,-0.0957 -0.1413,-0.1102 -0.2064,-0.0614 -0.0011,0.0907 0,0.2104 -0.0191,0.2958 -0.0149,0.0664 -0.0963,0.1833 -0.1011,0.2078l0.0465 -0.0266zm-0.5795 -0.0071c0.0461,-0.0155 0.2221,-0.0701 0.2318,-0.1319 0.0029,-0.0185 -0.0086,-0.0275 -0.0188,-0.0393 -0.0274,-0.0317 -0.103,-0.1484 -0.1211,-0.1823 -0.0249,-0.0466 -0.1558,-0.3835 0.0142,-0.3024 0.1261,0.0601 0.1801,0.2528 0.2129,0.2737 0.076,-0.1594 -0.097,-0.5239 -0.2196,-0.6461 -0.2294,-0.2286 -0.5006,-0.0684 -0.5238,0.21 -0.0197,0.2365 0.1966,0.5697 0.2367,0.709 0.0133,0.0461 0.0111,0.0941 -0.0108,0.1336 -0.0361,0.0651 -0.0576,0.0353 -0.099,0.0624 0.0054,0.0192 0.0267,0.0429 0.0401,0.0556 0.0456,-0.0393 0.064,-0.0632 0.1223,-0.0897 0.0438,-0.02 0.0902,-0.0352 0.135,-0.0526zm0.2971 -0.2488c0.0063,-0.034 -0.0391,-0.0985 -0.0657,-0.1034 -0.0134,0.0472 0.0411,0.0991 0.0657,0.1034zm-0.5804 0.4416c-0.0037,-0.0251 -0.0378,-0.0569 -0.0583,-0.0646 0.0006,0.025 0.0305,0.071 0.0583,0.0646zm-0.1491 0.104c0.0303,0.0071 0.0746,-0.0231 0.0907,-0.0382 -0.0093,-0.0161 -0.0749,-0.0812 -0.1015,-0.1175 -0.0212,-0.0289 -0.0279,-0.0501 -0.0437,-0.078 -0.0152,-0.0267 -0.0326,-0.0253 -0.0663,-0.0497 -0.0248,-0.018 -0.0715,-0.0706 -0.0864,-0.0773 0.0182,0.0597 0.1425,0.3455 0.2072,0.3607zm-0.1763 0.1199c0.0312,0.0143 0.1611,-0.0085 0.1751,-0.0589 -0.0489,-0.0115 -0.1663,0.0244 -0.1751,0.0589z"/>
  <path class="fil3" d="M4.2473 6.3417l0.1206 0.1091c-0.0144,0.033 -0.0487,0.0608 -0.0404,0.1156 0.0167,0.1109 0.0945,0.2623 0.1049,0.3729 0.0043,0.0455 0.0281,0.0832 -0.0864,0.1256 -0.8551,0.316 -1.0424,-0.4101 -1.6024,-0.5616 -0.037,-0.01 -0.1034,-0.0153 -0.1284,-0.0334 -0.0047,-0.0778 0.349,-0.1844 0.417,-0.2018 0.2921,-0.075 0.6101,-0.0666 0.9024,0.0093 0.0419,0.0109 0.0925,0.0308 0.1294,0.0375 -0.0404,-0.0435 -0.216,-0.1086 -0.2916,-0.1283 -0.0349,-0.0091 -0.0811,-0.014 -0.1122,-0.0231 0.0105,-0.0393 0.1271,-0.0312 0.1704,-0.0242 0.2336,0.0375 0.2743,0.0983 0.4166,0.2024zm0.9805 -1.4487c0.1734,0.2407 0.1913,0.5125 0.1169,0.8004 -0.0316,0.1221 -0.1224,0.3538 -0.1985,0.4384 -0.2179,-0.4903 -0.2076,-0.1706 -0.3914,-0.3285 -0.0259,-0.0095 -0.0705,-0.06 -0.1066,-0.073 0.0117,-0.0145 0.0254,-0.0168 0.0418,-0.0239 0.2833,-0.1222 0.3691,-0.4985 0.2965,-0.7596 -0.0185,-0.0667 -0.1065,-0.2264 -0.1388,-0.2872 0.1607,0.0516 0.2667,0.0761 0.38,0.2333zm-2.0566 0.8378c-0.0108,0.0374 -0.0398,0.0915 -0.0805,0.1007 -0.1487,0.0337 -0.56,-0.0085 -0.7017,-0.0692l0.0203 -0.0377c0.0227,-0.0396 0.0237,-0.0536 0.0764,-0.0617 0.1249,-0.0209 0.2417,-0.0742 0.2868,-0.2049 0.0687,-0.199 0.0327,-0.2167 0.0426,-0.4124 0.0876,0.0324 0.2238,0.1551 0.3047,0.2605 0.0871,0.1136 0.0901,0.2915 0.0515,0.4247zm0.5462 -0.5752c0.0447,0.0528 0.0117,0.0275 0.0095,0.159 -0.0214,-0.0383 -0.0347,-0.0801 -0.0551,-0.1199 -0.0775,-0.1516 -0.2589,-0.2712 -0.261,-0.2757 0.0124,-0.0121 0.0581,-0.035 0.0772,-0.0404 0.0707,0.0961 0.1546,0.1887 0.2293,0.277zm0.2834 -0.5899c-0.0493,0.0493 -0.1129,0.1298 -0.1538,0.1673 -0.0203,-0.0287 -0.0163,-0.0815 0.0022,-0.1077 0.0316,-0.0446 0.0855,-0.0917 0.1061,-0.1499 0.003,-0.0242 0.0368,-0.1226 0.0454,-0.1598 0.0702,0.0161 0.2284,0.1049 0.2599,0.1838 -0.1081,-0.029 -0.1824,-0.0025 -0.2599,0.0664z"/>
  <path class="fil4" d="M3.2402 1.8697c0.0274,-0.0882 0.3719,-0.299 0.4541,0.0014 0.0709,0.2588 -0.3623,0.4198 -0.4135,0.4697 -0.0388,0.0378 -0.1647,0.1646 -0.1947,0.1799 0.0165,-0.018 0.0379,-0.0456 0.0549,-0.0669 0.1356,-0.1693 0.2392,-0.2608 0.2371,-0.5227 -0.0013,-0.1637 -0.0481,-0.092 -0.138,-0.0615zm0.4687 1.0609c0.0808,-0.098 0.1388,-0.1903 0.1928,-0.3055 -0.1373,0.1957 -0.3574,0.4463 -0.5326,0.6028 -0.0983,0.0878 -0.3162,0.2862 -0.4322,0.3378 -0.1479,-0.2111 -0.1491,-0.1767 -0.359,-0.3149 0.2842,-0.1108 0.6469,-0.3235 0.8833,-0.5121 0.1346,-0.1073 0.2534,-0.2268 0.3749,-0.348 0.1649,-0.1653 0.2138,-0.0447 0.1687,0.0508 -0.0094,0.0343 -0.0546,0.1104 -0.0769,0.1449 0.1394,0.0673 0.2066,0.2294 0.2168,0.3765 0.0119,0.1725 -0.0611,0.5247 -0.2623,0.5498 -0.0414,0.006 -0.0793,-0.0084 -0.1001,-0.0301 -0.0578,-0.0605 0.0606,-0.0959 -0.0135,-0.2244 -0.0316,-0.0548 -0.0713,-0.1059 -0.1129,-0.1529 -0.02,-0.0226 -0.0398,-0.0493 -0.0392,-0.0639 -0.0007,-0.0151 0.0565,-0.0672 0.0923,-0.1107zm1.5595 0.7093c0.0121,-0.0603 0.045,-0.1213 0.0584,-0.193 0.0212,0.0159 0.0428,0.0686 0.0556,0.0935 0.0394,0.0944 0.0631,0.1972 0.0909,0.2959 -0.066,0.0475 -0.1436,0.0803 -0.2208,0.1051 -0.0119,-0.0177 -0.0152,-0.1008 -0.0189,-0.1313 -0.0076,-0.0641 0.0133,-0.1132 0.0348,-0.1702zm-2.7403 -1.1734c0.0435,-0.0085 0.0937,-0.018 0.0987,0.0424 0.0073,0.0889 -0.1351,0.184 -0.1373,0.2164 -0.0034,0.0488 0.1465,0.1331 0.1842,0.1488 0.1204,0.05 0.3412,0.0967 0.4181,0.0489 0.0719,-0.0242 0.2832,-0.1842 0.3434,-0.2317 0.1539,-0.1216 0.404,-0.3163 0.4601,-0.5098 0.0581,-0.2048 0.0102,-0.4597 -0.1527,-0.602 -0.1926,-0.1682 -0.4892,-0.1075 -0.5764,0.1364 -0.0448,0.1252 -0.0653,0.2987 -0.1104,0.3896 -0.0812,0.1619 -0.311,0.1725 -0.4223,0.2363 -0.0362,0.0208 -0.1104,0.0819 -0.1054,0.1246zm0.0854 -2.1582c0.0429,0.0081 0.1206,0.1409 0.1489,0.1848 0.0397,0.0615 0.1752,0.2685 0.1961,0.3342 -0.1899,-0.0091 -0.2975,0.0029 -0.458,0.035 -0.001,-0.0564 -0.0008,-0.1078 0.0041,-0.1641 0.0081,-0.093 0.0541,-0.3322 0.1089,-0.3899z"/>
  <path class="fil5" d="M4.9479 6.2459c0.0106,0.0595 0.0522,0.1695 0.0413,0.2298 -0.0128,0.0704 -0.1503,0.2833 -0.2042,0.3317 -0.0655,0.0589 -0.0995,0.0387 -0.1353,-0.0621 -0.0811,-0.2283 0.2777,-0.5926 0.3295,-0.5626 0.0215,0.0125 0.0316,0.0684 0.0317,0.1019 -0.0262,-0.0099 -0.036,-0.0277 -0.063,-0.0388zm-2.1492 -1.4241l0.014 0.0763c0.0587,-0.0131 0.2045,-0.07 0.2579,-0.0997 0.0197,-0.011 0.007,-0.0327 -0.0251,-0.0303 -0.1695,0.0074 -0.1381,0.0359 -0.2468,0.0537zm1.7207 2.2103c0.0574,0.067 0.213,0.0689 0.285,-0.0082 0.137,-0.1292 0.3847,-0.4344 0.3718,-0.6491 -0.004,-0.0662 -0.0459,-0.1762 -0.0853,-0.2684 -0.0398,-0.0932 -0.0756,-0.2198 -0.2023,-0.2054 -0.0354,0.004 -0.4719,0.5783 -0.4853,0.6156 -0.0264,0.074 0.0544,0.4437 0.116,0.5156z"/>
  <path class="fil6" d="M2.9963 2.0742c-0.0209,-0.0238 -0.0519,-0.0678 -0.0837,-0.1254 -0.0417,-0.0755 -0.0918,-0.1925 -0.095,-0.2797 -0.0008,-0.0231 0.0022,-0.0338 0.0075,-0.0404 0.0169,-0.0205 0.0548,0.0085 0.0689,0.0198 0.0186,0.0149 0.041,0.0367 0.0613,0.0627 0.0203,0.026 0.0384,0.0561 0.0565,0.0868 0.0181,0.0307 0.0362,0.0618 0.0477,0.0807 0.0116,0.0189 0.0166,0.0256 0.0194,0.0295 0.0068,0.0091 -0.0003,0.0394 -0.002,0.0508 -0.0015,0.0101 -0.0022,0.0127 -0.0059,0.0084 -0.02,-0.0236 -0.0513,-0.0685 -0.068,-0.0943 -0.0188,-0.029 -0.0402,-0.0678 -0.0581,-0.094 -0.0179,-0.0261 -0.0323,-0.0395 -0.0429,-0.0442 -0.0105,-0.0047 -0.0172,-0.0007 -0.0188,0.0111 -0.0015,0.0117 0.0022,0.0312 0.0117,0.0561 0.0213,0.0557 0.0569,0.113 0.0886,0.1637 0.0134,0.0214 0.0228,0.0362 0.0307,0.0477 0.0079,0.0116 0.0142,0.0199 0.0183,0.0258 0.004,0.0059 0.0057,0.0092 0.0062,0.0134 0.0011,0.0089 -0.0103,0.0359 -0.0139,0.0438 -0.0032,0.007 -0.0076,0.0017 -0.0285,-0.0221zm-0.4939 0.3339c-0.0068,-0.0094 -0.0214,-0.0256 -0.0321,-0.0388 -0.0107,-0.0131 -0.0176,-0.0232 -0.0225,-0.0301 -0.0049,-0.007 -0.0079,-0.0108 -0.014,-0.0124 -0.015,-0.0039 -0.0648,-0.0028 -0.0855,-0.0049 -0.0158,-0.0016 -0.0247,-0.0033 -0.032,-0.0049 -0.0073,-0.0016 -0.013,-0.0031 -0.0134,0.0024 -0.0004,0.0055 0.0044,0.0181 0.0146,0.0355 0.0101,0.0174 0.0255,0.0397 0.0411,0.0606 0.0212,0.0285 0.0427,0.0556 0.0684,0.0802 0.0063,0.006 0.0113,0.0111 0.0156,0.0106 0.0058,-0.0007 0.0187,-0.0201 0.0184,-0.0268 -0.0002,-0.0062 -0.0044,-0.0146 -0.0133,-0.0242 -0.0089,-0.0096 -0.0224,-0.0205 -0.0361,-0.0339 -0.0136,-0.0134 -0.0274,-0.0293 -0.0381,-0.0438 -0.0107,-0.0145 -0.0152,-0.0224 -0.0197,-0.0296 -0.0099,-0.0157 0.0007,-0.0164 0.017,-0.0166 0.0115,-0.0002 0.0266,0.0007 0.0387,0.0039 0.0121,0.0032 0.0208,0.007 0.0299,0.016 0.0091,0.009 0.0183,0.0217 0.0282,0.0355 0.0099,0.0138 0.0204,0.0287 0.0261,0.0373 0.0057,0.0085 0.0065,0.0107 0.0074,0.0108 0.0014,0.0001 0.0053,-0.0107 0.0059,-0.0123 0.0011,-0.0027 0.0021,-0.0052 -0.0047,-0.0146z"/>
 </g>
</svg>
