<?xml version="1.0" encoding="UTF-8"?>
<!DOCTYPE svg PUBLIC "-//W3C//DTD SVG 1.1//EN" "http://www.w3.org/Graphics/SVG/1.1/DTD/svg11.dtd">
<!-- Creator: CorelDRAW 2020 (64-Bit) -->
<svg xmlns="http://www.w3.org/2000/svg" xml:space="preserve" width="74.1626mm" height="68.4386mm" version="1.1" style="shape-rendering:geometricPrecision; text-rendering:geometricPrecision; image-rendering:optimizeQuality; fill-rule:evenodd; clip-rule:evenodd"
viewBox="0 0 6.4412 5.944"
 xmlns:xlink="http://www.w3.org/1999/xlink"
 xmlns:xodm="http://www.corel.com/coreldraw/odm/2003">
 <defs>
  <style type="text/css">
   <![CDATA[
    .fil0 {fill:#2B2A29}
    .fil1 {fill:#061DB0}
    .fil4 {fill:#1D991D}
    .fil2 {fill:#FCFCFC}
    .fil3 {fill:#FFD181}
   ]]>
  </style>
 </defs>
 <g id="Слой_x0020_1">
  <metadata id="CorelCorpID_0Corel-Layer"/>
  <path class="fil0" d="M6.4412 1.8938c-0.4222,-0.2026 -0.7316,-0.2432 -1.1953,-0.1662 -0.057,0.0095 -0.1277,0.0299 -0.1606,0.0385 0.0469,0.0462 0.1697,0.1567 0.3563,0.3753 0.3502,0.4103 0.7847,1.1835 0.4684,2.541 -0.0189,-0.0273 -0.053,-0.1424 -0.0649,-0.1786 -0.0655,-0.1989 -0.163,-0.36 -0.2866,-0.5166 -0.1005,-0.1272 -0.3593,-0.3675 -0.5006,-0.4004 0.0612,0.1275 0.1313,0.3865 0.1672,0.6256 0.0457,0.3048 0.0158,0.5684 -0.0764,0.8268 -0.0525,0.1472 -0.4371,0.9047 -0.5445,0.9047 0,-0.2555 -0.0121,-0.4883 -0.0542,-0.6983 -0.0771,-0.3851 -0.2685,-0.7646 -0.5685,-1.0132 -0.2535,-0.2101 -0.6328,-0.3763 -0.9499,-0.4463 -0.0429,-0.0095 -0.0408,-0.0148 -0.0743,0.0011 -0.1602,0.0759 -0.179,0.1312 -0.4528,0.1898 -0.3113,0.0666 -0.6405,0.0964 -0.9594,-0.0312 -0.0683,-0.0273 -0.1218,-0.0551 -0.1787,-0.098 -0.0934,-0.0705 -0.0148,-0.0371 -0.2097,-0.0014 -0.1423,0.026 -0.5178,0.0127 -0.5607,-0.2145 -0.0115,-0.061 0.013,-0.0903 0.0695,-0.1107 0.1714,-0.062 0.26,0.0073 0.3201,0.0213 -0.0635,-0.0948 -0.0731,-0.0756 -0.1285,-0.1592 -0.1009,-0.152 -0.1099,-0.2438 -0.14,-0.4243 -0.0503,-0.3005 -0.4088,-0.6954 -0.2073,-1.0764 -0.0228,-0.034 -0.7537,-0.9826 -0.4247,-1.1662 0.074,-0.0413 0.0894,-0.0281 0.1527,0.0106 0.1074,0.0657 0.6242,0.2658 0.7832,0.3124l0.3298 0.1018c0.3111,-0.3213 0.7585,-0.5966 1.0054,-0.6987 0.0998,-0.0413 0.1915,-0.0685 0.2919,-0.1024 0.0265,-0.0089 0.0446,-0.0255 0.1384,-0.1091 0.1076,-0.0959 0.3012,-0.2475 0.4722,-0.2295 0.0952,0.01 0.1122,0.1699 0.095,0.2435 0.3603,0 0.7289,-0.0083 1.0843,0.0666 0.6385,0.1346 1.1083,0.4388 1.5334,0.9239 0.1063,0.1213 0.4625,0.5702 0.4698,0.6583z"/>
  <path class="fil1" d="M0.7189 2.4521c-0.0047,-0.0391 0.0036,-0.0718 -0.0324,-0.0867 -0.0268,-0.0111 -0.0553,-0.0118 -0.0861,-0.0051 0.2679,-0.2035 0.2325,0.5993 0.4329,0.8466 0.0365,0.0416 0.0712,0.0743 0.1035,0.1099 -0.0326,-0.1398 -0.0935,-0.3723 -0.0075,-0.5462 0.0105,0.0108 0.0186,0.0055 0.0068,0.068 -0.1238,0.6555 0.3169,0.7575 0.4335,0.4027 0.0477,-0.1452 0.0355,-1.1256 0.5719,-1.3855 0.4842,-0.2346 1.0051,0.3937 0.5424,1.2349 0.0161,0.0034 0.0341,-0.023 0.0528,-0.0316 0.3376,-0.1883 0.7327,0.1285 0.2901,0.6658 -0.0218,0.0279 -0.0074,0.0045 -0.0162,0.028 0.0592,0.0234 0.1279,0.0309 0.1912,0.0523 1.0152,0.3418 1.4111,0.9028 1.429,2.0809 0.0692,-0.064 0.3394,-0.513 0.398,-0.6238 0.2959,-0.5588 0.205,-1.1109 0.0056,-1.6742 -0.0466,-0.1316 -0.2408,-0.3441 -0.3545,-0.409 -0.0753,-0.0429 -0.1091,-0.0395 -0.1831,-0.0673 0.0264,-0.0116 0.094,-0.0013 0.1423,0.0197 0.2429,0.1059 0.3476,0.3866 0.4614,0.4457 0.5973,0.3107 0.6609,0.7399 0.8041,1.0105 0.024,-0.1545 0.0173,-0.1548 0.0559,-0.3093 0.1034,-0.6252 0.0029,-1.2766 -0.3197,-1.8168 -0.1533,-0.2567 -0.4257,-0.5921 -0.696,-0.7315 -0.0326,-0.0168 -0.1824,-0.0977 -0.323,-0.1502 -0.1492,-0.0557 -0.2886,-0.0827 -0.2904,-0.0846 0.1012,-0.0425 0.4245,0.0833 0.5025,0.1278 0.2762,0.1572 0.1444,0.1232 0.4666,0.0704 0.5089,-0.0834 0.6889,0.0055 1.0866,0.145 -0.0936,-0.2158 -0.6277,-0.8319 -0.8841,-1.0207 -0.6916,-0.509 -1.3429,-0.5632 -2.1509,-0.5397 -0.0728,0.4943 -0.1202,0.7678 0.0243,1.2497 0.0143,0.0477 0.0192,0.0744 0.0104,0.0892 -0.0562,-0.0812 -0.0929,-0.3244 -0.1116,-0.4419 -0.0978,-0.6144 0.312,-1.4158 -0.2607,-1.0812 -0.1841,0.1076 -0.5326,0.4311 -0.781,0.7223 -0.1393,0.1633 -0.2447,0.3371 -0.2776,0.4065 0.0582,-0.1778 0.219,-0.3938 0.3731,-0.562 0.0659,-0.072 0.2153,-0.2288 0.2964,-0.2853 -0.3381,0.0538 -0.8787,0.4131 -1.2745,0.7941 -0.0948,0.0913 -0.174,0.1903 -0.2485,0.2792 0.0647,-0.1156 0.1484,-0.1949 0.2226,-0.2924 -0.2814,-0.0723 -0.8044,-0.2524 -1.0758,-0.3963 -0.0566,-0.03 -0.0938,-0.0636 -0.1594,-0.0166 -0.2094,0.1498 0.1513,0.7041 0.2631,0.8644 0.0439,0.063 0.1337,0.2137 0.1807,0.2525 0.0451,-0.0711 0.1329,-0.0901 0.2112,-0.068 0.0404,0.0114 0.0768,0.0286 0.0969,0.0371 0.0124,-0.0127 0.0875,-0.1644 0.1468,-0.2346 -0.0366,0.0597 -0.107,0.2032 -0.1221,0.2545 0.0309,0.0319 0.116,0.134 0.0859,0.185 -0.0366,-0.0616 -0.0596,-0.1348 -0.1159,-0.1824 -0.0877,-0.0742 -0.2229,-0.0755 -0.2937,0.0305 -0.0423,0.0634 -0.0918,0.1653 -0.0571,0.3561 0.0273,0.1507 0.0827,0.2767 0.1409,0.4019 0.0512,0.1102 0.0845,0.198 0.102,0.2732 0.0132,0.0566 0.027,0.18 0.0432,0.2488 0.0198,0.0846 0.0594,0.1544 0.1472,0.2561 -0.0966,-0.2127 -0.1303,-0.3139 -0.1563,-0.4715 -0.0192,-0.1167 -0.0417,-0.2691 -0.0437,-0.4951zm0.8642 -0.1856c-0.0305,-0.065 0.2054,-0.4307 0.24,-0.4759 0.369,-0.4815 0.9502,-0.3757 1.1311,0.0822 0.0203,0.0514 0.0834,0.2555 0.0344,0.3077 -0.0137,-0.0332 0.0206,-0.5138 -0.4258,-0.6577 -0.6432,-0.2073 -0.9459,0.7214 -0.9796,0.7437zm1.4276 -1.6036c-0.0116,0.2961 -0.0152,0.4737 0.0153,0.7713 -0.0583,-0.0198 -0.1254,-0.0658 -0.1829,-0.0929 -0.2706,-0.1278 -0.3092,-0.1094 -0.5802,-0.1824 0.1086,-0.1052 0.5127,-0.6844 0.7625,-0.6814l-0.0147 0.1854z"/>
  <path class="fil2" d="M1.655 2.7943c-0.0223,0.141 -0.0198,0.3323 -0.0588,0.4516 -0.044,0.1347 -0.1313,0.2325 -0.305,0.2146l-0.0041 0.0734c0.1799,0.0068 0.1215,-0.0585 0.5872,-0.0071 0.0752,0.0083 0.2125,0.0322 0.277,0.02 0.1075,-0.0203 0.1415,-0.077 0.211,-0.1105 -0.0442,-0.066 -0.08,-0.0982 -0.1155,-0.1919 -0.0727,-0.192 -0.1558,-0.6308 -0.0514,-0.7714 0.0787,-0.1061 0.1639,0.0347 0.2156,0.1594 0.0479,0.1157 0.0768,0.2449 0.0907,0.3688 0.0117,0.1043 0.0004,0.1871 0.0049,0.2822 0.0369,-0.0443 0.1104,-0.1086 0.167,-0.1972 0.0307,-0.0558 0.0422,-0.0867 0.063,-0.1465 0.0674,-0.1941 0.1294,-0.3346 0.1015,-0.5737 -0.0184,-0.1575 -0.0783,-0.2866 -0.159,-0.3799 -0.1312,-0.1515 -0.2321,-0.1812 -0.4315,-0.134 -0.4041,0.0956 -0.5357,0.5827 -0.5925,0.9425zm-0.5358 0.5261c0.0033,0.0111 0.0107,0.0335 0.0158,0.0478 0.005,0.0143 0.0077,0.0205 0.0142,0.0241 0.0064,0.0036 0.0167,0.0046 0.0234,0.004 0.0067,-0.0006 0.0099,-0.003 0.0071,-0.0107 -0.0028,-0.0078 -0.0115,-0.021 -0.0202,-0.0324 -0.0087,-0.0114 -0.0174,-0.0208 -0.0244,-0.0277 -0.007,-0.0069 -0.0122,-0.0112 -0.0153,-0.0135 -0.003,-0.0023 -0.0038,-0.0026 -0.0005,0.0085zm1.1542 -0.3583c0.0036,0.0185 0.033,0.097 0.0485,0.0407 0.0142,-0.0512 -0.0024,-0.1246 -0.0218,-0.1711 -0.0075,-0.0179 -0.0154,-0.0291 -0.028,-0.0032 -0.0163,0.0336 -0.0042,0.1099 0.0013,0.1336zm-1.6117 0.5992c0.0262,0.0713 0.2426,0.0828 0.2974,0.0559 -0.0261,-0.0557 -0.2286,-0.096 -0.2974,-0.0559zm0.3109 -0.4277c-0.0766,-0.1026 -0.1262,-0.3796 -0.1571,-0.5427 -0.0266,-0.1408 -0.0463,-0.1489 -0.0796,-0.1713 -0.0093,0.1413 0.034,0.5129 0.0642,0.6552 0.0465,0.2191 0.1545,0.3269 0.2377,0.4897l0.1433 -0.0278c-0.0851,-0.085 -0.1784,-0.2291 -0.2086,-0.403z"/>
  <path class="fil3" d="M2.2763 1.1542c0.2184,0.0588 0.2772,0.0535 0.4334,0.1161 0.1016,0.0407 0.2081,0.0902 0.3051,0.1484 -0.0335,-0.3269 -0.0282,-0.6035 -0.0023,-0.9291 -0.2389,0.0082 -0.5792,0.5124 -0.7362,0.6645zm0.2213 2.5786c0.0169,-0.0426 0.1991,-0.106 0.2661,-0.2602 0.0211,-0.0486 0.0128,-0.0986 0.0367,-0.13 0.0105,0.0224 0.0125,0.026 0.0044,0.0721 -0.0047,0.0266 -0.0101,0.0415 -0.0213,0.0663 -0.0466,0.1032 -0.2177,0.2483 -0.2859,0.2518zm0.6331 -0.6218c-0.0616,-0.065 -0.1564,-0.1038 -0.2417,-0.0907 -0.1027,0.0157 -0.1833,0.0815 -0.25,0.1518 -0.0854,0.0899 -0.1638,0.1773 -0.2526,0.2662 -0.0365,0.0338 -0.118,0.0982 -0.1812,0.1176 -0.1017,0.0312 -0.1656,0.0115 -0.2686,0.0002 -0.1863,-0.0204 -0.3879,-0.0548 -0.5718,-0.0075 0.062,0.0571 0.0797,0.0998 0.0762,0.1325 -0.0065,0.061 -0.075,0.0739 -0.1042,0.1186 0.0848,0.0607 0.1396,0.1262 0.4262,0.1824 0.2133,0.0418 0.3601,0.0336 0.5707,0.0033 0.2389,-0.0316 0.4134,-0.0995 0.592,-0.2061 0.0878,-0.0524 0.1402,-0.1127 0.1919,-0.2078 0.0809,-0.149 0.1478,-0.3183 0.0133,-0.4603z"/>
  <path class="fil4" d="M2.2633 2.8399c0.0093,-0.0342 0.0351,-0.0699 0.0732,-0.0469 0.086,0.052 0.1029,0.2763 0.0992,0.3836 -0.0101,0.087 -0.0458,0.0947 -0.0772,0.0687 -0.0317,-0.0262 -0.0478,-0.0773 -0.0604,-0.1237 -0.0182,-0.0667 -0.0497,-0.2264 -0.0347,-0.2816zm-1.1076 0.6025c-0.0258,-0.0555 -0.0297,-0.0923 -0.0509,-0.1396 -0.0252,-0.0276 -0.0796,-0.0838 -0.1083,-0.1193 0.0071,0.0455 0.0374,0.1138 0.0502,0.1441 0.0244,0.0574 0.0981,0.2013 0.1797,0.206 0.0129,0.0007 0.0342,0.0009 0.0506,-0.002 0.0048,-0.0467 0.0072,-0.0557 -0.0149,-0.0892l-0.0129 0.0442c-0.0037,0.0139 -0.0057,0.02 -0.0271,0.0174 -0.0357,-0.0043 -0.0467,-0.0273 -0.0664,-0.0617zm1.1834 -0.9063c-0.0177,-0.0304 -0.0333,-0.0509 -0.0627,-0.0605 -0.055,-0.018 -0.0713,0.0113 -0.0854,0.0604 -0.0245,0.0859 -0.0157,0.2196 -0.0048,0.3458 0.0092,0.1065 0.0707,0.3982 0.1694,0.4932 0.0367,0.0353 0.0446,0.0222 0.0777,-0.0138 0.0285,-0.0311 0.0403,-0.0608 0.0448,-0.0959 0.0102,-0.0804 0.0024,-0.2364 -0.0104,-0.3205 -0.0292,-0.1931 -0.1003,-0.3499 -0.1287,-0.4087z"/>
 </g>
</svg>
