<?xml version="1.0" encoding="UTF-8"?>
<!DOCTYPE svg PUBLIC "-//W3C//DTD SVG 1.1//EN" "http://www.w3.org/Graphics/SVG/1.1/DTD/svg11.dtd">
<!-- Creator: CorelDRAW 2020 (64-Bit) -->
<svg xmlns="http://www.w3.org/2000/svg" xml:space="preserve" width="154.498mm" height="34.0731mm" version="1.1" style="shape-rendering:geometricPrecision; text-rendering:geometricPrecision; image-rendering:optimizeQuality; fill-rule:evenodd; clip-rule:evenodd"
viewBox="0 0 30.8017 6.793"
 xmlns:xlink="http://www.w3.org/1999/xlink"
 xmlns:xodm="http://www.corel.com/coreldraw/odm/2003">
 <defs>
  <style type="text/css">
   <![CDATA[
    .fil0 {fill:#061DB0}
   ]]>
  </style>
 </defs>
 <g id="Слой_x0020_1">
  <metadata id="CorelCorpID_0Corel-Layer"/>
  <path class="fil0" d="M18.8184 5.8995l1.4909 0.0064 0.0278 -2.3795 1.2365 2.3742 2.0012 0.0007 0.0157 -4.7494 -1.4983 -0.0102 -0.0095 2.4646 -1.2816 -2.461 -1.9761 -0.0026 -0.0065 4.7568zm-2.9125 -3.2862c0.5916,-0.1741 1.0975,0.3352 0.9318,0.9468 -0.1006,0.3712 -0.594,0.8594 -1.0199,0.9378 -1.3575,0.2497 -1.2229,-1.4986 0.0881,-1.8845zm-0.6435 -1.4171c-1.2575,0.3224 -2.0169,1.2686 -1.8756,2.6687 0.2928,2.9013 5.2177,2.718 4.9267,-0.6714 -0.1316,-1.5333 -1.6421,-2.3586 -3.0511,-1.9973zm-5.7414 3.4528l-0.3079 1.124c0.5226,0.14 1.6189,0.1892 2.1827,0.1354 1.8968,-0.1811 1.8497,-2.0737 1.196,-2.5955 -0.5082,-0.4056 -1.6724,-0.2243 -1.7766,-0.5719 -0.1749,-0.5835 1.5506,-0.2531 1.7879,-0.2716l0.301 -1.0614c-0.7436,-0.2286 -1.7547,-0.3474 -2.5353,-0.1958 -0.7972,0.1548 -1.3459,0.7282 -1.2788,1.6903 0.1174,1.683 2.0381,0.9431 2.1651,1.4253 0.1521,0.5779 -1.4697,0.2978 -1.7341,0.3213zm21.2407 1.0625c-0.0367,-0.1145 -0.3757,-1.1704 -0.5197,-1.7572 -0.1716,0.1257 -0.3396,0.3743 -0.6804,0.518 -0.6609,0.2789 -1.2931,-0.176 -1.1271,-0.8088 0.1018,-0.3879 0.4563,-0.7306 0.7433,-0.8942 0.5295,-0.3019 0.8281,-0.1669 1.1492,0.184 0.0502,-0.0967 0.472,-1.5718 0.4747,-1.6757 -0.9005,-0.1742 -2.1096,-0.2303 -2.786,0.1715 -1.9721,1.1714 -1.459,4.5441 1.2936,4.4844 0.1439,-0.0031 0.8178,-0.0468 1.4524,-0.2221zm-4.4844 0.1897l0.0173 -4.7527 -1.7489 -0.0052 0.028 4.7626 1.7036 -0.0047zm-24.771 -1.4514c0.25,0.0723 0.2457,0.2652 0.2579,-0.242 0.0117,-0.4871 0.2831,-1.1489 0.5871,-1.4485 1.6073,-1.5842 2.1527,1.3632 1.3533,2.4587 -0.3253,0.4457 -0.9871,0.4611 -1.5119,0.2098 -0.2027,-0.0971 -0.3281,-0.0809 -0.5576,-0.1004 0.0203,-0.4775 -0.0027,-0.4712 -0.1288,-0.8775zm-0.2342 0.8433l-0.3447 -0.0059c-0.0677,-0.1561 -0.15,-0.239 -0.2211,-0.4651 -0.1913,-0.6083 -0.1437,-1.9421 0.2092,-1.6718 0.0809,0.0918 0.0817,0.3867 0.122,0.5357 0.0523,0.1936 0.1402,0.3153 0.1887,0.4625 -0.1007,0.0522 -0.1285,0.0461 -0.1597,0.1913 -0.0785,0.3649 0.1166,0.7143 0.2056,0.9535zm0.1979 -3.6136c-0.4146,-0.1189 -0.5886,-0.1906 -1.0261,-0.2068 -0.3339,-0.0124 -0.4692,0.0511 -0.4399,0.4948 0.0574,0.322 0.4569,1.0088 0.4253,1.1063 -0.2253,0.6951 -0.2985,1.3129 0.144,1.9714 0.0802,0.1194 0.2122,0.2065 0.2352,0.2972 -0.6695,0.1647 -0.5271,0.5578 0.3276,0.5174 0.4353,0.8184 1.6913,1.0706 2.5379,0.8651 0.4947,-0.1201 0.8672,-0.3645 1.5302,-0.4528 0.7728,-0.1029 1.6708,-0.0821 2.4297,0.1959 0.207,0.0758 0.3463,0.1933 0.5389,0.2331l-0.1635 -0.5734c-0.2803,-0.9829 -0.6622,-1.1368 -1.5392,-1.4715 0.3179,-0.5258 1.6233,-0.6035 2.1559,-0.599 -0.1845,-0.5368 -0.5257,-0.9983 -0.9422,-1.3289 -0.5492,-0.4359 -0.8096,-0.4511 -1.4596,-0.4992 0.0442,-0.6284 1.3957,-0.9441 1.9552,-0.9912 -0.3699,-0.815 -1.9909,-1.1875 -2.7997,-1.2323 -0.7484,-0.0414 -1.5684,0.1457 -2.2659,0.4243 -0.6795,0.2714 -1.137,0.653 -1.6435,1.2495zm1.5689 2.5884c0.1298,0.9917 0.8795,1.0953 0.7492,0.0407 -0.1252,-1.0132 -0.8842,-1.0723 -0.7492,-0.0407z"/>
 </g>
</svg>
