<?xml version='1.0' encoding='ascii'?>
<svg xmlns="http://www.w3.org/2000/svg" xmlns:inkscape="http://www.inkscape.org/namespaces/inkscape" version="1.1" width="120" height="200">
    <g id="ViewLayer_LineSet" inkscape:groupmode="lineset" inkscape:label="ViewLayer_LineSet">
        <g xmlns:inkscape="http://www.inkscape.org/namespaces/inkscape" inkscape:groupmode="layer" inkscape:label="fills" id="fills">
            <path fill_rule="evenodd" stroke="none" fill-opacity="1.0" fill="rgb(0, 0, 0)" d=" M 51.633, 71.788 52.903, 73.131 52.912, 73.242 52.781, 74.315 52.345, 76.153 51.720, 78.134 51.302, 79.595 51.140, 80.152 50.821, 81.532 50.797, 81.671 50.610, 82.525 50.351, 84.017 50.234, 84.912 49.955, 86.443 49.741, 88.035 49.600, 89.239 49.338, 90.759 49.197, 92.216 49.063, 93.809 48.961, 95.405 48.910, 97.005 48.905, 98.488 48.922, 99.929 48.958, 101.316 49.026, 102.624 49.115, 103.845 49.211, 105.005 49.328, 106.097 49.466, 107.184 49.601, 108.264 49.738, 109.332 49.876, 110.397 50.027, 111.459 50.170, 112.523 50.304, 113.594 50.447, 114.677 50.594, 115.775 50.740, 116.888 50.900, 118.014 51.069, 119.155 51.107, 119.398 51.227, 120.251 51.375, 121.416 51.530, 122.592 51.690, 123.771 51.852, 124.948 52.019, 126.116 52.186, 127.279 52.359, 128.428 52.544, 129.562 52.722, 130.684 52.883, 131.798 53.048, 132.895 53.226, 133.969 53.395, 135.028 53.545, 136.082 53.677, 137.134 53.801, 138.194 53.933, 139.259 54.054, 140.336 54.172, 141.426 54.300, 142.527 54.434, 143.634 54.593, 144.750 54.774, 145.877 54.982, 147.003 55.239, 148.121 55.561, 149.237 55.918, 150.337 55.984, 150.495 56.490, 151.493 57.232, 152.195 57.859, 152.457 58.244, 152.640 58.507, 152.671 58.621, 152.692 58.945, 152.705 59.087, 152.706 59.472, 152.685 59.871, 152.631 60.283, 152.535 60.379, 152.503 60.825, 152.339 61.228, 152.062 61.347, 151.992 61.832, 151.460 62.243, 150.612 62.474, 149.564 62.538, 149.042 62.801, 148.451 63.195, 147.362 63.550, 146.260 63.821, 145.142 64.095, 144.098 64.407, 143.061 64.707, 142.008 64.997, 140.955 65.297, 139.908 65.593, 138.856 65.886, 137.800 66.158, 136.734 66.431, 135.638 66.665, 134.515 66.842, 133.391 66.979, 132.260 67.098, 131.128 67.221, 130.017 67.350, 128.909 67.479, 127.797 67.611, 126.674 67.743, 125.540 67.876, 124.389 68.035, 123.227 68.163, 122.051 68.300, 120.873 68.443, 119.706 68.582, 118.560 68.708, 117.440 68.839, 116.344 68.968, 115.259 69.085, 114.175 69.196, 113.095 69.305, 112.021 69.409, 110.954 69.510, 109.893 69.606, 108.837 69.696, 107.780 69.776, 106.723 69.859, 105.667 69.939, 104.605 70.020, 103.538 70.096, 102.467 70.173, 101.374 70.262, 100.236 70.360, 98.969 70.450, 97.613 70.524, 96.051 70.569, 94.298 70.545, 92.335 70.456, 90.428 70.343, 89.151 70.277, 88.433 70.263, 88.326 70.148, 87.152 69.848, 85.162 69.507, 83.312 69.263, 82.154 68.588, 78.841 68.504, 77.688 68.517, 77.044 68.562, 76.197 68.696, 75.707 69.188, 73.855 69.540, 72.657 69.797, 71.954 70.252, 70.826 70.711, 69.453 71.398, 67.752 71.955, 66.577 72.537, 65.436 72.838, 64.893 73.128, 64.426 73.736, 63.484 74.336, 62.592 74.928, 61.708 75.510, 60.829 76.054, 60.019 76.641, 59.156 77.250, 58.307 77.874, 57.460 78.510, 56.588 79.146, 55.708 79.782, 54.826 80.411, 53.944 81.031, 53.060 81.634, 52.177 82.211, 51.306 82.827, 50.415 83.431, 49.632 84.037, 48.876 84.529, 48.252 84.721, 48.024 85.223, 47.314 85.470, 46.764 85.565, 46.475 85.601, 45.976 85.548, 45.563 85.416, 45.188 85.217, 44.876 84.933, 44.585 84.629, 44.367 84.238, 44.198 83.878, 44.125 83.406, 44.189 83.103, 44.290 82.559, 44.548 81.791, 45.042 81.674, 45.131 80.865, 45.765 80.037, 46.472 79.190, 47.301 78.413, 48.210 77.702, 49.084 77.039, 49.897 76.353, 50.738 75.666, 51.577 74.977, 52.417 74.296, 53.264 73.670, 54.033 73.622, 53.296 73.508, 52.160 73.345, 51.042 73.156, 49.939 72.928, 48.855 72.668, 47.790 72.388, 46.742 72.071, 45.700 71.714, 44.667 71.305, 43.641 70.842, 42.630 70.332, 41.642 69.778, 40.686 69.189, 39.776 68.927, 39.427 68.554, 38.944 68.260, 38.569 67.580, 37.798 66.906, 37.108 66.222, 36.502 65.701, 36.097 64.944, 35.532 64.155, 35.061 63.475, 34.731 62.616, 34.349 61.732, 34.090 60.933, 33.914 60.010, 33.777 59.180, 33.743 58.240, 33.732 57.404, 33.804 56.466, 33.939 55.634, 34.066 54.805, 34.192 53.985, 34.348 53.166, 34.500 52.352, 34.674 51.546, 34.860 50.744, 35.068 49.797, 35.344 49.027, 35.645 48.120, 36.068 47.256, 36.584 46.578, 37.039 45.774, 37.654 45.024, 38.336 44.332, 39.090 43.830, 39.695 43.207, 40.507 42.653, 41.373 42.152, 42.265 41.732, 43.184 41.368, 44.088 41.075, 44.970 40.838, 45.728 40.611, 46.579 40.429, 47.361 40.283, 48.048 40.183, 48.646 40.005, 49.802 39.919, 50.390 39.859, 50.860 39.773, 52.047 39.712, 52.759 39.681, 54.233 39.683, 54.576 39.742, 56.011 39.881, 57.386 39.916, 57.734 40.122, 59.088 40.280, 59.742 40.485, 60.772 40.848, 62.050 40.981, 62.444 41.417, 63.734 41.978, 64.919 42.204, 65.376 42.842, 66.547 44.009, 67.996 44.960, 68.743 45.499, 69.047 46.524, 69.604 47.575, 70.059 48.681, 70.481 50.417, 71.169 51.633, 71.788  z" />
        </g>
        <g inkscape:groupmode="layer" id="strokes" inkscape:label="strokes">
            <path fill="none" stroke-width="1.0" stroke-linecap="butt" stroke-opacity="1.0" stroke="rgb(255, 255, 255)" stroke-linejoin="round" d=" M 40.217, 59.421 40.280, 59.742 40.485, 60.772 40.848, 62.050 40.981, 62.444 41.417, 63.734 41.978, 64.919 42.204, 65.376 42.842, 66.547 44.009, 67.996 44.960, 68.743 45.499, 69.047 46.524, 69.604 47.575, 70.059 48.681, 70.481 50.417, 71.169 51.633, 71.788 52.903, 73.131 " />
            <path fill="none" stroke-width="1.0" stroke-linecap="butt" stroke-opacity="1.0" stroke="rgb(255, 255, 255)" stroke-linejoin="round" d=" M 64.148, 79.597 63.920, 79.189 63.601, 77.787 63.274, 76.057 63.053, 74.636 62.970, 73.255 62.974, 73.191 62.993, 72.915 62.998, 72.841 63.002, 72.789 63.050, 72.097 63.480, 71.171 63.496, 71.135 63.611, 71.032 63.762, 70.896 64.199, 70.504 64.331, 70.385 64.660, 70.215 64.699, 70.196 64.878, 70.104 65.275, 69.899 " />
            <path fill="none" stroke-width="1.0" stroke-linecap="butt" stroke-opacity="1.0" stroke="rgb(255, 255, 255)" stroke-linejoin="round" d=" M 70.343, 89.151 70.263, 88.326 70.148, 87.152 69.848, 85.162 69.507, 83.312 69.263, 82.154 68.588, 78.841 68.490, 78.362 68.445, 78.141 68.424, 78.038 " />
            <path fill="none" stroke-width="1.0" stroke-linecap="butt" stroke-opacity="1.0" stroke="rgb(255, 255, 255)" stroke-linejoin="round" d=" M 68.504, 77.688 68.517, 77.044 68.562, 76.197 68.606, 75.368 " />
            <path fill="none" stroke-width="1.0" stroke-linecap="butt" stroke-opacity="1.0" stroke="rgb(255, 255, 255)" stroke-linejoin="round" d=" M 62.997, 121.170 63.118, 120.584 63.325, 120.035 63.508, 119.744 63.728, 119.588 " />
            <path fill="none" stroke-width="1.0" stroke-linecap="butt" stroke-opacity="1.0" stroke="rgb(255, 255, 255)" stroke-linejoin="round" d=" M 57.423, 152.251 57.859, 152.457 58.244, 152.640 58.507, 152.671 " />
            <path fill="none" stroke-width="1.0" stroke-linecap="butt" stroke-opacity="1.0" stroke="rgb(255, 255, 255)" stroke-linejoin="round" d=" M 58.260, 152.624 58.507, 152.671 58.621, 152.692 58.945, 152.705 59.087, 152.706 59.472, 152.685 59.871, 152.631 60.283, 152.535 60.379, 152.503 60.825, 152.339 61.228, 152.062 61.266, 152.036 " />
            <path fill="none" stroke-width="1.0" stroke-linecap="butt" stroke-opacity="1.0" stroke="rgb(255, 255, 255)" stroke-linejoin="round" d=" M 62.538, 149.042 62.801, 148.451 63.195, 147.362 63.550, 146.260 63.821, 145.142 64.095, 144.098 " />
            <path fill="none" stroke-width="1.0" stroke-linecap="butt" stroke-opacity="1.0" stroke="rgb(255, 255, 255)" stroke-linejoin="round" d=" M 64.091, 144.110 64.095, 144.098 64.407, 143.061 64.707, 142.008 64.997, 140.955 65.297, 139.908 65.593, 138.856 65.886, 137.800 66.158, 136.734 66.431, 135.638 66.665, 134.515 66.842, 133.391 66.979, 132.260 67.098, 131.128 67.221, 130.017 67.350, 128.909 67.479, 127.797 67.611, 126.674 67.743, 125.540 67.876, 124.389 68.035, 123.227 68.163, 122.051 68.300, 120.873 68.443, 119.706 68.582, 118.560 68.708, 117.440 68.839, 116.344 68.968, 115.259 69.085, 114.175 69.196, 113.095 69.305, 112.021 69.409, 110.954 69.510, 109.893 69.606, 108.837 69.696, 107.780 69.776, 106.723 69.859, 105.667 69.939, 104.605 70.020, 103.538 70.096, 102.467 70.173, 101.374 70.262, 100.236 70.360, 98.969 70.450, 97.613 70.524, 96.051 70.569, 94.298 70.545, 92.335 70.456, 90.428 70.343, 89.151 70.277, 88.433 70.263, 88.326 " />
            <path fill="none" stroke-width="1.0" stroke-linecap="butt" stroke-opacity="1.0" stroke="rgb(255, 255, 255)" stroke-linejoin="round" d=" M 56.592, 74.804 56.812, 73.895 56.904, 73.595 " />
            <path fill="none" stroke-width="1.0" stroke-linecap="butt" stroke-opacity="1.0" stroke="rgb(255, 255, 255)" stroke-linejoin="round" d=" M 56.326, 75.349 56.105, 76.194 " />
            <path fill="none" stroke-width="1.0" stroke-linecap="butt" stroke-opacity="1.0" stroke="rgb(255, 255, 255)" stroke-linejoin="round" d=" M 52.794, 71.703 52.853, 72.473 52.856, 72.515 52.877, 72.790 52.903, 73.131 52.912, 73.242 52.781, 74.315 " />
            <path fill="none" stroke-width="1.0" stroke-linecap="butt" stroke-opacity="1.0" stroke="rgb(255, 255, 255)" stroke-linejoin="round" d=" M 52.722, 72.115 52.755, 72.260 52.877, 72.790 " />
            <path fill="none" stroke-width="1.0" stroke-linecap="butt" stroke-opacity="1.0" stroke="rgb(255, 255, 255)" stroke-linejoin="round" d=" M 85.217, 44.876 84.933, 44.585 84.629, 44.367 84.238, 44.198 83.878, 44.125 83.406, 44.189 83.103, 44.290 82.559, 44.548 81.791, 45.042 81.674, 45.131 80.865, 45.765 80.037, 46.472 79.190, 47.301 78.413, 48.210 77.702, 49.084 77.039, 49.897 76.353, 50.738 75.666, 51.577 74.977, 52.417 74.296, 53.264 73.670, 54.033 " />
            <path fill="none" stroke-width="1.0" stroke-linecap="butt" stroke-opacity="1.0" stroke="rgb(255, 255, 255)" stroke-linejoin="round" d=" M 84.099, 48.763 84.529, 48.252 84.721, 48.024 85.223, 47.314 85.470, 46.764 85.565, 46.475 85.601, 45.976 " />
            <path fill="none" stroke-width="1.0" stroke-linecap="butt" stroke-opacity="1.0" stroke="rgb(255, 255, 255)" stroke-linejoin="round" d=" M 85.411, 45.231 85.444, 45.346 85.529, 45.649 85.601, 45.976 85.548, 45.563 " />
            <path fill="none" stroke-width="1.0" stroke-linecap="butt" stroke-opacity="1.0" stroke="rgb(255, 255, 255)" stroke-linejoin="round" d=" M 85.548, 45.563 85.411, 45.231 85.217, 44.876 85.416, 45.188 85.548, 45.563 " />
            <path fill="none" stroke-width="1.0" stroke-linecap="butt" stroke-opacity="1.0" stroke="rgb(255, 255, 255)" stroke-linejoin="round" d=" M 68.562, 76.197 68.696, 75.707 69.188, 73.855 69.540, 72.657 69.797, 71.954 70.252, 70.826 70.711, 69.453 71.398, 67.752 71.955, 66.577 72.537, 65.436 72.838, 64.893 73.113, 64.396 " />
            <path fill="none" stroke-width="1.0" stroke-linecap="butt" stroke-opacity="1.0" stroke="rgb(255, 255, 255)" stroke-linejoin="round" d=" M 72.838, 64.893 73.128, 64.426 73.736, 63.484 74.336, 62.592 74.928, 61.708 75.510, 60.829 76.054, 60.019 76.641, 59.156 77.250, 58.307 77.874, 57.460 78.510, 56.588 79.146, 55.708 79.782, 54.826 80.411, 53.944 81.031, 53.060 81.634, 52.177 82.211, 51.306 82.827, 50.415 83.431, 49.632 84.037, 48.876 84.529, 48.252 " />
            <path fill="none" stroke-width="1.0" stroke-linecap="butt" stroke-opacity="1.0" stroke="rgb(255, 255, 255)" stroke-linejoin="round" d=" M 64.465, 71.124 65.150, 72.852 " />
            <path fill="none" stroke-width="1.0" stroke-linecap="butt" stroke-opacity="1.0" stroke="rgb(255, 255, 255)" stroke-linejoin="round" d=" M 73.670, 54.033 73.622, 53.296 73.508, 52.160 73.345, 51.042 73.156, 49.939 72.928, 48.855 72.668, 47.790 72.388, 46.742 72.071, 45.700 71.714, 44.667 71.305, 43.641 70.842, 42.630 70.332, 41.642 69.778, 40.686 69.189, 39.776 68.927, 39.427 68.554, 38.944 68.260, 38.569 67.580, 37.798 66.906, 37.108 66.222, 36.502 65.701, 36.097 64.944, 35.532 64.155, 35.061 63.475, 34.731 62.616, 34.349 61.732, 34.090 60.933, 33.914 60.010, 33.777 " />
            <path fill="none" stroke-width="1.0" stroke-linecap="butt" stroke-opacity="1.0" stroke="rgb(255, 255, 255)" stroke-linejoin="round" d=" M 56.466, 33.939 55.634, 34.066 54.805, 34.192 53.985, 34.348 53.166, 34.500 52.352, 34.674 51.546, 34.860 " />
            <path fill="none" stroke-width="1.0" stroke-linecap="butt" stroke-opacity="1.0" stroke="rgb(255, 255, 255)" stroke-linejoin="round" d=" M 49.797, 35.344 49.027, 35.645 48.120, 36.068 47.256, 36.584 46.578, 37.039 45.774, 37.654 45.024, 38.336 44.332, 39.090 " />
            <path fill="none" stroke-width="1.0" stroke-linecap="butt" stroke-opacity="1.0" stroke="rgb(255, 255, 255)" stroke-linejoin="round" d=" M 39.773, 52.047 39.859, 50.860 39.919, 50.390 40.005, 49.802 40.183, 48.646 40.283, 48.048 40.429, 47.361 40.611, 46.579 40.838, 45.728 41.075, 44.970 41.368, 44.088 41.732, 43.184 42.152, 42.265 42.653, 41.373 43.207, 40.507 43.830, 39.695 44.332, 39.090 43.689, 39.892 43.207, 40.507 " />
            <path fill="none" stroke-width="1.0" stroke-linecap="butt" stroke-opacity="1.0" stroke="rgb(255, 255, 255)" stroke-linejoin="round" d=" M 39.839, 51.276 39.773, 52.047 39.712, 52.759 39.681, 54.233 39.683, 54.576 39.742, 56.011 39.881, 57.386 39.916, 57.734 40.122, 59.088 40.280, 59.742 " />
            <path fill="none" stroke-width="1.0" stroke-linecap="butt" stroke-opacity="1.0" stroke="rgb(255, 255, 255)" stroke-linejoin="round" d=" M 58.240, 33.732 57.309, 33.838 56.466, 33.939 57.404, 33.804 58.240, 33.732 " />
            <path fill="none" stroke-width="1.0" stroke-linecap="butt" stroke-opacity="1.0" stroke="rgb(255, 255, 255)" stroke-linejoin="round" d=" M 59.085, 33.749 58.240, 33.732 59.180, 33.743 60.010, 33.777 59.085, 33.749 " />
            <path fill="none" stroke-width="1.0" stroke-linecap="butt" stroke-opacity="1.0" stroke="rgb(255, 255, 255)" stroke-linejoin="round" d=" M 52.815, 74.175 52.781, 74.315 52.345, 76.153 51.720, 78.134 51.302, 79.595 " />
            <path fill="none" stroke-width="1.0" stroke-linecap="butt" stroke-opacity="1.0" stroke="rgb(255, 255, 255)" stroke-linejoin="round" d=" M 56.727, 74.117 56.904, 73.595 57.219, 72.664 57.483, 71.891 57.492, 71.867 57.514, 71.801 57.528, 71.761 57.546, 71.708 57.836, 70.860 58.880, 67.943 59.540, 66.114 60.135, 64.422 60.639, 62.968 61.025, 61.767 61.355, 60.772 61.668, 59.856 61.985, 58.933 62.310, 58.006 62.633, 57.089 62.960, 56.199 63.294, 55.337 63.626, 54.497 63.965, 53.650 64.311, 52.765 64.666, 51.862 65.022, 50.955 65.366, 50.052 65.744, 49.122 66.148, 48.076 66.406, 46.908 66.454, 45.634 66.378, 44.396 66.253, 43.294 66.028, 42.857 65.820, 42.451 " />
            <path fill="none" stroke-width="1.0" stroke-linecap="butt" stroke-opacity="1.0" stroke="rgb(255, 255, 255)" stroke-linejoin="round" d=" M 51.564, 69.843 51.734, 70.257 51.934, 70.745 52.571, 71.792 52.755, 72.260 " />
            <path fill="none" stroke-width="1.0" stroke-linecap="butt" stroke-opacity="1.0" stroke="rgb(255, 255, 255)" stroke-linejoin="round" d=" M 60.089, 77.873 60.073, 77.851 " />
            <path fill="none" stroke-width="1.0" stroke-linecap="butt" stroke-opacity="1.0" stroke="rgb(255, 255, 255)" stroke-linejoin="round" d=" M 60.089, 77.873 60.509, 78.630 60.872, 79.527 61.214, 80.426 " />
            <path fill="none" stroke-width="1.0" stroke-linecap="butt" stroke-opacity="1.0" stroke="rgb(255, 255, 255)" stroke-linejoin="round" d=" M 50.945, 80.995 51.302, 79.595 51.140, 80.152 50.821, 81.532 " />
            <path fill="none" stroke-width="1.0" stroke-linecap="butt" stroke-opacity="1.0" stroke="rgb(255, 255, 255)" stroke-linejoin="round" d=" M 49.600, 89.239 49.741, 88.035 49.955, 86.443 50.234, 84.912 50.351, 84.017 50.610, 82.525 50.797, 81.671 50.878, 81.301 50.945, 80.995 50.821, 81.532 50.797, 81.671 " />
            <path fill="none" stroke-width="1.0" stroke-linecap="butt" stroke-opacity="1.0" stroke="rgb(255, 255, 255)" stroke-linejoin="round" d=" M 49.658, 88.903 49.600, 89.239 49.338, 90.759 49.197, 92.216 49.063, 93.809 48.961, 95.405 48.910, 97.005 48.905, 98.488 48.922, 99.929 48.958, 101.316 49.026, 102.624 49.115, 103.845 49.211, 105.005 49.328, 106.097 49.466, 107.184 49.601, 108.264 49.738, 109.332 49.876, 110.397 50.027, 111.459 50.170, 112.523 50.304, 113.594 50.447, 114.677 50.594, 115.775 50.740, 116.888 50.900, 118.014 51.069, 119.155 51.107, 119.398 51.249, 120.307 " />
            <path fill="none" stroke-width="1.0" stroke-linecap="butt" stroke-opacity="1.0" stroke="rgb(255, 255, 255)" stroke-linejoin="round" d=" M 60.994, 80.917 60.677, 79.700 60.498, 79.051 " />
            <path fill="none" stroke-width="1.0" stroke-linecap="butt" stroke-opacity="1.0" stroke="rgb(255, 255, 255)" stroke-linejoin="round" d=" M 60.918, 80.095 60.663, 79.367 60.278, 78.388 60.208, 78.204 60.187, 78.149 60.077, 77.860 60.073, 77.851 59.858, 77.288 59.842, 77.247 59.622, 76.655 59.196, 75.429 " />
            <path fill="none" stroke-width="1.0" stroke-linecap="butt" stroke-opacity="1.0" stroke="rgb(255, 255, 255)" stroke-linejoin="round" d=" M 57.852, 72.455 57.492, 71.867 " />
            <path fill="none" stroke-width="1.0" stroke-linecap="butt" stroke-opacity="1.0" stroke="rgb(255, 255, 255)" stroke-linejoin="round" d=" M 51.106, 68.272 51.383, 69.569 51.734, 70.257 " />
            <path fill="none" stroke-width="1.0" stroke-linecap="butt" stroke-opacity="1.0" stroke="rgb(255, 255, 255)" stroke-linejoin="round" d=" M 60.288, 78.348 60.187, 78.149 " />
            <path fill="none" stroke-width="1.0" stroke-linecap="butt" stroke-opacity="1.0" stroke="rgb(255, 255, 255)" stroke-linejoin="round" d=" M 59.205, 75.456 59.196, 75.429 58.818, 74.168 58.665, 73.661 " />
            <path fill="none" stroke-width="1.0" stroke-linecap="butt" stroke-opacity="1.0" stroke="rgb(255, 255, 255)" stroke-linejoin="round" d=" M 58.125, 72.487 58.207, 72.665 58.665, 73.661 58.536, 73.268 58.207, 72.665 " />
            <path fill="none" stroke-width="1.0" stroke-linecap="butt" stroke-opacity="1.0" stroke="rgb(255, 255, 255)" stroke-linejoin="round" d=" M 57.546, 71.708 57.659, 71.841 57.801, 72.037 58.022, 72.345 58.062, 72.399 58.125, 72.487 57.942, 72.180 57.801, 72.037 " />
            <path fill="none" stroke-width="1.0" stroke-linecap="butt" stroke-opacity="1.0" stroke="rgb(255, 255, 255)" stroke-linejoin="round" d=" M 61.504, 41.701 61.469, 41.735 60.889, 42.292 60.389, 43.191 60.256, 43.471 59.824, 44.424 59.454, 45.396 59.116, 46.306 58.769, 47.103 58.375, 47.861 57.953, 48.630 57.530, 49.422 57.131, 50.275 56.967, 50.626 56.552, 51.487 56.171, 52.350 55.796, 53.194 55.424, 54.046 55.061, 54.913 54.701, 55.805 54.341, 56.735 53.984, 57.697 " />
            <path fill="none" stroke-width="1.0" stroke-linecap="butt" stroke-opacity="1.0" stroke="rgb(255, 255, 255)" stroke-linejoin="round" d=" M 66.028, 42.857 65.746, 42.226 65.278, 41.800 65.067, 41.664 64.663, 41.422 64.417, 41.314 64.050, 41.163 63.759, 41.107 63.401, 41.042 63.086, 41.054 62.615, 41.102 62.057, 41.341 61.723, 41.486 61.469, 41.735 " />
            <path fill="none" stroke-width="1.0" stroke-linecap="butt" stroke-opacity="1.0" stroke="rgb(255, 255, 255)" stroke-linejoin="round" d=" M 61.228, 152.062 61.347, 151.992 61.832, 151.460 62.243, 150.612 62.474, 149.564 62.538, 149.042 62.604, 148.499 62.709, 147.454 62.827, 146.415 62.901, 145.365 62.941, 144.310 62.994, 143.076 63.039, 142.005 63.081, 140.927 63.122, 139.846 63.158, 138.760 63.190, 137.675 63.226, 136.583 63.243, 135.481 63.242, 134.370 63.239, 133.263 63.229, 132.158 63.223, 131.053 63.211, 129.953 63.188, 128.855 63.176, 127.764 63.130, 126.677 63.090, 125.592 63.059, 124.507 63.006, 123.410 62.962, 122.296 62.997, 121.170 62.999, 121.077 " />
            <path fill="none" stroke-width="1.0" stroke-linecap="butt" stroke-opacity="1.0" stroke="rgb(255, 255, 255)" stroke-linejoin="round" d=" M 51.107, 119.398 51.227, 120.251 51.375, 121.416 51.530, 122.592 51.690, 123.771 51.852, 124.948 52.019, 126.116 52.186, 127.279 52.359, 128.428 52.544, 129.562 52.722, 130.684 52.883, 131.798 53.048, 132.895 53.226, 133.969 53.395, 135.028 53.545, 136.082 53.677, 137.134 53.801, 138.194 53.933, 139.259 54.054, 140.336 54.172, 141.426 54.300, 142.527 54.434, 143.634 54.593, 144.750 54.774, 145.877 54.982, 147.003 55.239, 148.121 55.561, 149.237 55.918, 150.337 55.984, 150.495 56.490, 151.493 57.232, 152.195 57.859, 152.457 " />
            <path fill="none" stroke-width="1.0" stroke-linecap="butt" stroke-opacity="1.0" stroke="rgb(255, 255, 255)" stroke-linejoin="round" d=" M 51.546, 34.860 50.744, 35.068 49.797, 35.344 50.597, 35.114 51.546, 34.860 " />
            <path fill="none" stroke-width="1.0" stroke-linecap="butt" stroke-opacity="1.0" stroke="rgb(255, 255, 255)" stroke-linejoin="round" d=" M 63.480, 71.171 63.611, 71.032 " />
            <path fill="none" stroke-width="1.0" stroke-linecap="butt" stroke-opacity="1.0" stroke="rgb(255, 255, 255)" stroke-linejoin="round" d=" M 64.199, 70.504 64.661, 70.219 64.699, 70.196 " />
            <path fill="none" stroke-width="1.0" stroke-linecap="butt" stroke-opacity="1.0" stroke="rgb(255, 255, 255)" stroke-linejoin="round" d=" M 64.661, 70.219 64.896, 71.382 " />
            <path fill="none" stroke-width="1.0" stroke-linecap="butt" stroke-opacity="1.0" stroke="rgb(255, 255, 255)" stroke-linejoin="round" d=" M 64.878, 70.104 65.703, 69.736 66.191, 69.518 " />
            <path fill="none" stroke-width="1.0" stroke-linecap="butt" stroke-opacity="1.0" stroke="rgb(255, 255, 255)" stroke-linejoin="round" d=" M 65.703, 69.736 67.055, 69.175 " />
            <path fill="none" stroke-width="1.0" stroke-linecap="butt" stroke-opacity="1.0" stroke="rgb(255, 255, 255)" stroke-linejoin="round" d=" M 68.588, 78.841 68.504, 77.688 68.430, 76.677 68.412, 76.429 68.411, 76.418 " />
        </g>
    </g>
</svg>
