<?xml version='1.0' encoding='ascii'?>
<svg xmlns="http://www.w3.org/2000/svg" xmlns:inkscape="http://www.inkscape.org/namespaces/inkscape" version="1.1" width="120" height="200">
    <g id="ViewLayer_LineSet" inkscape:groupmode="lineset" inkscape:label="ViewLayer_LineSet">
        <g xmlns:inkscape="http://www.inkscape.org/namespaces/inkscape" inkscape:groupmode="layer" inkscape:label="fills" id="fills">
            <path fill_rule="evenodd" stroke="none" fill-opacity="1.0" fill="rgb(0, 0, 0)" d=" M 43.115, 86.261 43.739, 87.369 43.753, 87.427 43.870, 88.862 43.907, 89.591 43.903, 89.736 43.770, 91.348 43.707, 92.026 43.554, 93.166 43.341, 94.630 43.140, 96.189 42.933, 97.561 42.776, 99.064 42.641, 100.446 42.543, 101.854 42.478, 103.222 42.434, 104.533 42.402, 105.793 42.377, 106.997 42.363, 108.189 42.306, 109.284 42.242, 110.354 42.185, 111.412 42.128, 112.466 42.076, 113.520 42.031, 114.577 41.988, 115.637 41.947, 116.705 41.918, 117.782 41.891, 118.864 41.870, 119.953 41.849, 121.055 41.828, 122.170 41.801, 123.300 41.779, 124.447 41.748, 125.609 41.717, 126.783 41.679, 127.965 41.650, 129.149 41.625, 130.326 41.604, 131.496 41.581, 132.656 41.557, 133.805 41.540, 134.947 41.500, 136.096 41.439, 137.280 41.400, 138.486 41.429, 139.695 41.564, 140.914 41.885, 142.124 42.311, 143.245 42.722, 144.283 43.060, 145.300 43.430, 146.307 43.807, 147.315 44.199, 148.323 44.518, 149.070 44.671, 149.441 45.084, 150.342 45.443, 151.201 45.718, 152.137 45.955, 153.164 46.181, 154.220 46.464, 155.219 46.836, 155.984 46.882, 156.059 47.061, 156.255 47.262, 156.498 47.386, 156.612 47.824, 156.879 48.250, 156.994 48.679, 157.037 48.908, 157.052 49.357, 157.033 49.833, 156.963 50.054, 156.917 50.599, 156.690 50.740, 156.577 51.030, 156.260 51.138, 156.153 51.242, 156.029 51.688, 155.279 51.735, 155.148 51.867, 154.714 52.061, 154.097 52.089, 153.982 52.341, 152.797 52.444, 151.532 52.441, 150.310 52.413, 149.116 52.324, 147.972 52.156, 146.857 51.942, 145.804 51.705, 144.796 51.478, 143.832 51.274, 142.902 51.108, 142.006 50.999, 141.172 50.954, 140.400 51.014, 139.655 51.174, 138.855 51.400, 137.974 51.618, 136.979 51.782, 135.907 51.819, 135.609 51.925, 134.874 52.093, 133.813 52.244, 132.769 52.416, 131.752 52.602, 130.765 52.789, 129.791 52.856, 129.438 53.017, 130.226 53.184, 131.272 53.321, 132.348 53.436, 133.440 53.532, 134.547 53.608, 135.674 53.693, 136.811 53.770, 137.964 53.820, 139.160 53.861, 140.409 53.933, 141.672 54.093, 142.917 54.325, 144.125 54.650, 145.280 55.008, 146.366 55.322, 147.399 55.643, 148.432 55.969, 149.455 56.325, 150.418 56.689, 151.297 57.006, 152.092 57.210, 152.926 57.331, 153.834 57.399, 154.817 57.486, 155.873 57.679, 156.947 58.016, 157.887 58.116, 158.041 58.635, 158.620 59.176, 158.917 59.351, 159.015 59.815, 159.158 59.998, 159.225 60.418, 159.291 60.842, 159.313 61.093, 159.325 61.441, 159.313 61.815, 159.230 62.603, 158.837 62.793, 158.719 63.573, 157.945 63.750, 157.771 64.370, 156.659 64.842, 155.366 65.155, 154.015 65.306, 152.772 65.324, 151.498 65.307, 151.265 65.205, 149.954 65.000, 148.688 64.845, 147.550 64.706, 146.448 64.558, 145.348 64.388, 144.313 64.227, 143.375 64.114, 142.522 64.070, 141.661 64.100, 140.742 64.180, 139.754 64.287, 138.699 64.411, 137.603 64.514, 136.460 64.623, 135.294 64.735, 134.102 64.816, 132.878 64.888, 131.630 64.949, 130.368 64.964, 130.023 65.019, 129.125 65.119, 127.854 65.221, 126.580 65.302, 125.312 65.382, 124.063 65.445, 122.835 65.502, 121.633 65.555, 120.458 65.601, 119.304 65.646, 118.167 65.680, 117.042 65.718, 115.925 65.768, 114.786 65.819, 113.661 65.854, 112.536 65.880, 111.406 65.895, 110.278 65.881, 109.157 65.854, 108.043 65.818, 106.939 65.791, 105.835 65.794, 104.707 65.834, 103.551 65.897, 102.300 65.973, 101.063 66.093, 99.748 66.255, 98.378 66.381, 97.351 66.597, 96.510 66.922, 95.299 67.158, 94.572 67.596, 93.348 68.003, 92.094 68.336, 90.804 68.589, 89.530 68.964, 88.279 69.325, 87.196 69.778, 86.291 69.871, 86.117 70.346, 85.757 70.380, 85.733 71.224, 85.422 71.880, 85.110 72.038, 85.079 72.656, 84.866 73.190, 84.575 73.521, 84.132 73.591, 83.618 73.561, 83.297 73.601, 82.703 73.599, 82.101 73.512, 81.344 73.446, 80.742 73.351, 80.052 73.213, 79.408 73.053, 78.781 72.833, 78.168 72.606, 77.588 72.506, 77.350 72.377, 77.012 72.943, 76.827 73.183, 76.728 74.341, 76.078 75.315, 75.168 76.152, 74.145 76.878, 73.042 76.949, 72.925 77.586, 71.814 78.174, 70.662 78.710, 69.467 79.177, 68.233 79.571, 66.976 79.914, 65.706 80.201, 64.418 80.432, 63.119 80.592, 61.812 80.693, 60.511 80.717, 59.227 80.707, 58.937 80.690, 57.934 80.617, 56.680 80.477, 55.453 80.276, 54.239 80.017, 53.034 79.657, 51.837 79.203, 50.656 78.670, 49.490 78.019, 48.367 77.852, 48.101 77.298, 47.271 77.092, 47.005 76.250, 45.970 75.772, 45.465 75.596, 45.270 75.334, 45.003 74.350, 44.105 73.314, 43.267 72.213, 42.530 70.716, 41.734 69.509, 41.248 69.148, 41.120 67.546, 40.647 67.170, 40.548 66.787, 40.466 65.541, 40.214 65.149, 40.160 64.750, 40.119 63.087, 39.954 62.677, 39.958 61.416, 39.960 60.172, 40.078 59.757, 40.129 58.534, 40.359 57.352, 40.703 56.209, 41.131 55.103, 41.640 54.038, 42.223 53.690, 42.441 52.688, 43.101 51.749, 43.824 50.886, 44.598 50.102, 45.392 49.397, 46.215 49.111, 46.551 48.573, 47.278 47.984, 48.207 47.422, 49.194 46.897, 50.222 46.427, 51.291 45.995, 52.391 45.537, 53.701 45.184, 54.862 44.862, 56.045 44.611, 57.254 44.423, 58.482 44.278, 59.722 44.178, 61.119 44.147, 62.360 44.165, 62.802 44.043, 62.916 43.918, 63.098 43.576, 63.618 43.216, 64.623 43.015, 65.227 42.633, 65.717 42.017, 66.183 41.282, 66.451 40.390, 66.550 39.364, 66.675 38.301, 66.901 37.192, 67.268 35.996, 67.705 34.598, 68.361 33.187, 69.183 32.081, 70.078 31.386, 71.068 31.275, 72.186 31.333, 72.560 31.470, 72.961 31.642, 73.345 32.081, 74.290 32.528, 74.963 32.779, 75.244 33.058, 75.575 33.802, 76.337 34.042, 76.593 34.313, 76.859 35.135, 77.354 35.835, 77.746 36.553, 78.198 37.277, 78.713 38.015, 79.323 39.301, 80.723 40.097, 81.897 41.314, 83.322 41.824, 84.070 42.749, 85.546 43.115, 86.261  z M 63.359, 80.222 64.227, 79.098 64.318, 79.049 64.336, 79.103 64.550, 79.780 64.722, 80.254 64.837, 80.688 64.936, 81.158 64.392, 81.411 63.598, 81.680 63.052, 81.791 63.081, 81.240 63.359, 80.222  z  M 55.069, 80.440 54.878, 81.228 54.712, 81.151 54.180, 80.813 53.766, 80.508 53.068, 79.917 52.309, 79.149 51.979, 78.921 51.217, 78.332 51.043, 78.239 49.895, 77.730 48.502, 77.317 47.025, 76.924 46.977, 76.909 45.550, 76.482 44.630, 76.093 44.135, 75.640 43.297, 74.945 42.458, 74.418 42.088, 74.189 41.267, 73.695 41.075, 73.583 41.978, 73.120 42.943, 72.515 44.303, 71.811 45.741, 70.810 45.937, 70.583 46.301, 71.157 46.474, 71.345 47.271, 72.141 47.484, 72.351 48.601, 73.148 49.749, 73.831 50.043, 73.995 51.207, 74.636 52.405, 75.291 52.809, 75.526 53.657, 76.062 54.392, 76.674 54.981, 77.506 55.167, 78.439 55.205, 79.479 55.069, 80.440  z" />
        </g>
        <g inkscape:groupmode="layer" id="strokes" inkscape:label="strokes">
            <path fill="none" stroke-width="1.0" stroke-linecap="butt" stroke-opacity="1.0" stroke="rgb(255, 255, 255)" stroke-linejoin="round" d=" M 35.715, 74.849 36.774, 75.153 37.943, 75.127 38.970, 74.653 39.965, 74.151 40.968, 73.637 41.075, 73.583 41.978, 73.120 42.943, 72.515 44.303, 71.811 45.741, 70.810 45.937, 70.583 46.906, 69.462 47.650, 67.838 47.927, 66.262 47.999, 65.165 48.004, 65.020 47.797, 64.029 47.402, 63.403 47.075, 63.055 46.718, 62.749 46.340, 62.545 45.992, 62.398 45.652, 62.342 45.406, 62.330 45.016, 62.340 44.653, 62.503 44.373, 62.609 44.165, 62.802 44.043, 62.916 43.918, 63.098 43.576, 63.618 43.216, 64.623 43.015, 65.227 42.962, 65.385 " />
            <path fill="none" stroke-width="1.0" stroke-linecap="butt" stroke-opacity="1.0" stroke="rgb(255, 255, 255)" stroke-linejoin="round" d=" M 42.969, 85.537 43.228, 86.006 43.523, 86.506 43.372, 85.065 43.600, 86.161 43.733, 87.186 43.753, 87.427 43.870, 88.862 43.907, 89.591 " />
            <path fill="none" stroke-width="1.0" stroke-linecap="butt" stroke-opacity="1.0" stroke="rgb(255, 255, 255)" stroke-linejoin="round" d=" M 43.870, 88.862 43.880, 88.179 43.880, 88.144 43.908, 86.064 44.176, 88.451 " />
            <path fill="none" stroke-width="1.0" stroke-linecap="butt" stroke-opacity="1.0" stroke="rgb(255, 255, 255)" stroke-linejoin="round" d=" M 34.313, 76.859 35.135, 77.354 35.835, 77.746 36.553, 78.198 37.277, 78.713 38.015, 79.323 39.301, 80.723 40.097, 81.897 41.314, 83.322 41.824, 84.070 42.749, 85.546 43.115, 86.261 43.739, 87.369 " />
            <path fill="none" stroke-width="1.0" stroke-linecap="butt" stroke-opacity="1.0" stroke="rgb(255, 255, 255)" stroke-linejoin="round" d=" M 43.523, 86.506 43.739, 87.369 43.753, 87.427 " />
            <path fill="none" stroke-width="1.0" stroke-linecap="butt" stroke-opacity="1.0" stroke="rgb(255, 255, 255)" stroke-linejoin="round" d=" M 63.052, 81.791 63.081, 81.240 63.359, 80.222 64.227, 79.098 64.318, 79.049 " />
            <path fill="none" stroke-width="1.0" stroke-linecap="butt" stroke-opacity="1.0" stroke="rgb(255, 255, 255)" stroke-linejoin="round" d=" M 64.713, 90.309 65.034, 88.981 65.270, 87.360 65.440, 86.177 " />
            <path fill="none" stroke-width="1.0" stroke-linecap="butt" stroke-opacity="1.0" stroke="rgb(255, 255, 255)" stroke-linejoin="round" d=" M 65.354, 85.127 65.242, 85.734 64.977, 86.694 64.969, 86.724 64.890, 87.011 " />
            <path fill="none" stroke-width="1.0" stroke-linecap="butt" stroke-opacity="1.0" stroke="rgb(255, 255, 255)" stroke-linejoin="round" d=" M 66.265, 88.006 66.478, 89.178 65.769, 87.244 65.714, 88.338 " />
            <path fill="none" stroke-width="1.0" stroke-linecap="butt" stroke-opacity="1.0" stroke="rgb(255, 255, 255)" stroke-linejoin="round" d=" M 75.334, 45.003 74.350, 44.105 73.314, 43.267 72.213, 42.530 70.716, 41.734 69.509, 41.248 69.148, 41.120 67.546, 40.647 67.170, 40.548 66.787, 40.466 65.541, 40.214 65.149, 40.160 64.750, 40.119 63.087, 39.954 62.677, 39.958 61.416, 39.960 60.172, 40.078 59.757, 40.129 58.534, 40.359 57.352, 40.703 56.209, 41.131 55.103, 41.640 54.038, 42.223 53.690, 42.441 52.688, 43.101 51.749, 43.824 50.886, 44.598 50.102, 45.392 49.397, 46.215 49.111, 46.551 48.573, 47.278 47.984, 48.207 47.422, 49.194 46.897, 50.222 46.427, 51.291 45.995, 52.391 45.537, 53.701 45.184, 54.862 44.862, 56.045 44.611, 57.254 44.423, 58.482 44.278, 59.722 44.178, 61.119 44.147, 62.360 44.165, 62.802 " />
            <path fill="none" stroke-width="1.0" stroke-linecap="butt" stroke-opacity="1.0" stroke="rgb(255, 255, 255)" stroke-linejoin="round" d=" M 51.774, 127.148 51.854, 127.252 52.178, 127.674 52.540, 128.407 52.821, 129.271 52.856, 129.438 53.017, 130.226 53.184, 131.272 53.321, 132.348 53.436, 133.440 53.532, 134.547 53.608, 135.674 53.693, 136.811 53.770, 137.964 53.820, 139.160 53.861, 140.409 53.933, 141.672 54.093, 142.917 54.325, 144.125 54.650, 145.280 55.008, 146.366 55.322, 147.399 55.643, 148.432 55.969, 149.455 56.325, 150.418 56.689, 151.297 57.006, 152.092 57.210, 152.926 57.331, 153.834 57.399, 154.817 57.486, 155.873 57.679, 156.947 58.016, 157.887 58.116, 158.041 58.635, 158.620 59.176, 158.917 59.351, 159.015 59.815, 159.158 59.998, 159.225 60.418, 159.291 60.842, 159.313 61.093, 159.325 61.441, 159.313 61.815, 159.230 62.603, 158.837 62.793, 158.719 63.573, 157.945 63.750, 157.771 64.370, 156.659 64.842, 155.366 65.155, 154.015 65.306, 152.772 65.324, 151.498 65.307, 151.265 65.205, 149.954 65.000, 148.688 64.845, 147.550 64.706, 146.448 64.558, 145.348 64.388, 144.313 64.227, 143.375 64.114, 142.522 64.070, 141.661 64.100, 140.742 64.180, 139.754 64.287, 138.699 64.411, 137.603 64.514, 136.460 64.623, 135.294 64.735, 134.102 64.816, 132.878 64.888, 131.630 64.949, 130.368 64.964, 130.023 " />
            <path fill="none" stroke-width="1.0" stroke-linecap="butt" stroke-opacity="1.0" stroke="rgb(255, 255, 255)" stroke-linejoin="round" d=" M 64.941, 130.391 64.964, 130.023 65.019, 129.125 65.119, 127.854 65.221, 126.580 65.302, 125.312 65.382, 124.063 65.445, 122.835 65.502, 121.633 65.555, 120.458 65.601, 119.304 65.646, 118.167 65.680, 117.042 65.718, 115.925 65.768, 114.786 65.819, 113.661 65.854, 112.536 65.880, 111.406 65.895, 110.278 65.881, 109.157 65.854, 108.043 65.818, 106.939 65.791, 105.835 65.794, 104.707 65.834, 103.551 65.897, 102.300 65.973, 101.063 66.093, 99.748 66.255, 98.378 66.381, 97.351 66.419, 97.045 66.511, 96.371 66.512, 96.362 66.601, 95.713 " />
            <path fill="none" stroke-width="1.0" stroke-linecap="butt" stroke-opacity="1.0" stroke="rgb(255, 255, 255)" stroke-linejoin="round" d=" M 54.370, 76.644 54.392, 76.674 54.981, 77.506 55.167, 78.439 55.205, 79.479 55.069, 80.440 54.878, 81.228 54.872, 81.253 54.872, 81.254 54.871, 81.255 54.856, 81.294 54.854, 81.299 54.837, 81.340 54.796, 81.444 54.637, 81.842 " />
            <path fill="none" stroke-width="1.0" stroke-linecap="butt" stroke-opacity="1.0" stroke="rgb(255, 255, 255)" stroke-linejoin="round" d=" M 72.377, 77.012 72.943, 76.827 73.183, 76.728 74.341, 76.078 75.315, 75.168 76.152, 74.145 76.878, 73.042 76.949, 72.925 77.586, 71.814 78.174, 70.662 78.710, 69.467 79.177, 68.233 79.571, 66.976 79.914, 65.706 80.201, 64.418 80.432, 63.119 80.592, 61.812 80.693, 60.511 80.717, 59.227 80.707, 58.937 " />
            <path fill="none" stroke-width="1.0" stroke-linecap="butt" stroke-opacity="1.0" stroke="rgb(255, 255, 255)" stroke-linejoin="round" d=" M 64.936, 81.158 64.392, 81.411 63.598, 81.680 63.052, 81.791 62.973, 81.807 62.963, 81.809 62.838, 81.834 62.079, 81.870 61.632, 81.859 61.526, 81.857 61.385, 81.853 " />
            <path fill="none" stroke-width="1.0" stroke-linecap="butt" stroke-opacity="1.0" stroke="rgb(255, 255, 255)" stroke-linejoin="round" d=" M 72.585, 77.557 72.506, 77.350 72.377, 77.012 72.349, 76.938 72.100, 76.315 71.846, 75.695 71.574, 75.076 " />
            <path fill="none" stroke-width="1.0" stroke-linecap="butt" stroke-opacity="1.0" stroke="rgb(255, 255, 255)" stroke-linejoin="round" d=" M 70.695, 74.077 71.056, 74.225 71.281, 74.514 71.574, 75.076 71.331, 74.672 71.056, 74.225 " />
            <path fill="none" stroke-width="1.0" stroke-linecap="butt" stroke-opacity="1.0" stroke="rgb(255, 255, 255)" stroke-linejoin="round" d=" M 71.034, 74.496 71.056, 74.225 " />
            <path fill="none" stroke-width="1.0" stroke-linecap="butt" stroke-opacity="1.0" stroke="rgb(255, 255, 255)" stroke-linejoin="round" d=" M 70.663, 74.137 70.630, 74.051 70.465, 73.622 70.237, 73.030 69.599, 71.449 69.144, 70.601 68.704, 69.888 68.291, 69.191 67.835, 68.524 67.343, 67.891 66.829, 67.325 66.356, 66.771 66.009, 66.177 65.732, 65.511 65.415, 64.811 65.069, 64.144 64.595, 63.597 64.313, 63.336 63.861, 63.079 63.551, 62.913 63.128, 62.881 62.782, 62.829 62.400, 62.876 62.043, 62.928 61.611, 62.996 61.280, 63.092 60.793, 63.468 60.495, 63.805 60.098, 64.477 59.748, 65.326 59.528, 66.329 59.492, 66.846 59.515, 67.304 59.615, 68.364 59.707, 68.852 59.862, 69.273 60.259, 70.286 60.619, 71.083 60.930, 71.818 61.277, 72.542 61.628, 73.280 61.992, 74.024 62.378, 74.775 62.746, 75.478 62.955, 75.862 63.412, 75.962 " />
            <path fill="none" stroke-width="1.0" stroke-linecap="butt" stroke-opacity="1.0" stroke="rgb(255, 255, 255)" stroke-linejoin="round" d=" M 71.034, 74.496 70.886, 74.389 " />
            <path fill="none" stroke-width="1.0" stroke-linecap="butt" stroke-opacity="1.0" stroke="rgb(255, 255, 255)" stroke-linejoin="round" d=" M 71.101, 74.722 70.935, 74.464 70.886, 74.389 70.734, 74.153 70.695, 74.077 70.465, 73.622 " />
            <path fill="none" stroke-width="1.0" stroke-linecap="butt" stroke-opacity="1.0" stroke="rgb(255, 255, 255)" stroke-linejoin="round" d=" M 65.962, 86.570 66.097, 87.306 " />
            <path fill="none" stroke-width="1.0" stroke-linecap="butt" stroke-opacity="1.0" stroke="rgb(255, 255, 255)" stroke-linejoin="round" d=" M 65.373, 84.109 65.370, 84.773 65.354, 85.127 65.334, 85.570 " />
            <path fill="none" stroke-width="1.0" stroke-linecap="butt" stroke-opacity="1.0" stroke="rgb(255, 255, 255)" stroke-linejoin="round" d=" M 65.279, 82.880 65.373, 84.109 65.375, 84.128 65.414, 84.805 65.417, 84.866 65.433, 85.143 " />
            <path fill="none" stroke-width="1.0" stroke-linecap="butt" stroke-opacity="1.0" stroke="rgb(255, 255, 255)" stroke-linejoin="round" d=" M 64.722, 80.254 64.837, 80.688 64.936, 81.158 65.072, 81.798 65.279, 82.880 65.281, 82.893 65.354, 83.374 " />
            <path fill="none" stroke-width="1.0" stroke-linecap="butt" stroke-opacity="1.0" stroke="rgb(255, 255, 255)" stroke-linejoin="round" d=" M 63.247, 75.445 63.248, 75.448 63.303, 75.620 63.354, 75.780 63.412, 75.962 63.527, 76.325 63.873, 77.511 64.100, 78.398 64.318, 79.049 64.336, 79.103 64.550, 79.780 64.722, 80.254 64.802, 80.473 " />
            <path fill="none" stroke-width="1.0" stroke-linecap="butt" stroke-opacity="1.0" stroke="rgb(255, 255, 255)" stroke-linejoin="round" d=" M 45.937, 70.583 46.301, 71.157 46.474, 71.345 47.271, 72.141 47.484, 72.351 48.601, 73.148 49.749, 73.831 50.043, 73.995 51.207, 74.636 52.405, 75.291 52.809, 75.526 53.493, 75.925 53.657, 76.062 54.392, 76.674 " />
            <path fill="none" stroke-width="1.0" stroke-linecap="butt" stroke-opacity="1.0" stroke="rgb(255, 255, 255)" stroke-linejoin="round" d=" M 80.712, 59.211 80.707, 58.937 80.690, 57.934 80.617, 56.680 80.477, 55.453 80.276, 54.239 80.017, 53.034 79.657, 51.837 79.203, 50.656 78.670, 49.490 78.019, 48.367 77.852, 48.101 77.298, 47.271 77.092, 47.005 76.250, 45.970 75.772, 45.465 75.334, 45.003 75.596, 45.270 75.772, 45.465 " />
            <path fill="none" stroke-width="1.0" stroke-linecap="butt" stroke-opacity="1.0" stroke="rgb(255, 255, 255)" stroke-linejoin="round" d=" M 43.954, 87.957 43.938, 88.520 43.937, 88.544 43.907, 89.591 43.903, 89.736 43.770, 91.348 43.707, 92.026 " />
            <path fill="none" stroke-width="1.0" stroke-linecap="butt" stroke-opacity="1.0" stroke="rgb(255, 255, 255)" stroke-linejoin="round" d=" M 41.804, 83.493 42.306, 84.588 " />
            <path fill="none" stroke-width="1.0" stroke-linecap="butt" stroke-opacity="1.0" stroke="rgb(255, 255, 255)" stroke-linejoin="round" d=" M 54.180, 80.813 53.766, 80.508 53.068, 79.917 52.309, 79.149 51.979, 78.921 " />
            <path fill="none" stroke-width="1.0" stroke-linecap="butt" stroke-opacity="1.0" stroke="rgb(255, 255, 255)" stroke-linejoin="round" d=" M 66.381, 97.351 66.597, 96.510 66.922, 95.299 67.158, 94.572 67.596, 93.348 68.003, 92.094 68.336, 90.804 68.589, 89.530 68.964, 88.279 69.325, 87.196 69.778, 86.291 69.871, 86.117 " />
            <path fill="none" stroke-width="1.0" stroke-linecap="butt" stroke-opacity="1.0" stroke="rgb(255, 255, 255)" stroke-linejoin="round" d=" M 69.624, 86.305 69.871, 86.117 70.346, 85.757 70.380, 85.733 " />
            <path fill="none" stroke-width="1.0" stroke-linecap="butt" stroke-opacity="1.0" stroke="rgb(255, 255, 255)" stroke-linejoin="round" d=" M 70.321, 85.754 70.380, 85.733 71.224, 85.422 71.880, 85.110 " />
            <path fill="none" stroke-width="1.0" stroke-linecap="butt" stroke-opacity="1.0" stroke="rgb(255, 255, 255)" stroke-linejoin="round" d=" M 71.155, 85.250 71.880, 85.110 72.038, 85.079 72.656, 84.866 73.190, 84.575 73.521, 84.132 73.591, 83.618 73.561, 83.297 73.601, 82.703 73.599, 82.101 73.512, 81.344 73.446, 80.742 73.351, 80.052 73.213, 79.408 73.053, 78.781 72.833, 78.168 72.606, 77.588 72.506, 77.350 " />
            <path fill="none" stroke-width="1.0" stroke-linecap="butt" stroke-opacity="1.0" stroke="rgb(255, 255, 255)" stroke-linejoin="round" d=" M 62.940, 75.022 63.229, 75.452 63.233, 75.460 63.303, 75.620 " />
            <path fill="none" stroke-width="1.0" stroke-linecap="butt" stroke-opacity="1.0" stroke="rgb(255, 255, 255)" stroke-linejoin="round" d=" M 63.354, 75.780 63.339, 75.777 63.113, 75.545 63.233, 75.460 " />
            <path fill="none" stroke-width="1.0" stroke-linecap="butt" stroke-opacity="1.0" stroke="rgb(255, 255, 255)" stroke-linejoin="round" d=" M 43.765, 91.591 43.707, 92.026 43.554, 93.166 43.341, 94.630 43.140, 96.189 42.933, 97.561 42.776, 99.064 42.641, 100.446 42.543, 101.854 42.478, 103.222 42.434, 104.533 42.402, 105.793 42.377, 106.997 42.363, 108.189 42.306, 109.284 42.242, 110.354 42.185, 111.412 42.128, 112.466 42.076, 113.520 42.031, 114.577 41.988, 115.637 41.947, 116.705 41.918, 117.782 41.891, 118.864 41.870, 119.953 41.849, 121.055 41.828, 122.170 41.801, 123.300 41.779, 124.447 41.748, 125.609 41.717, 126.783 41.679, 127.965 41.650, 129.149 41.625, 130.326 41.604, 131.496 41.581, 132.656 41.557, 133.805 41.540, 134.947 41.500, 136.096 41.439, 137.280 41.400, 138.486 41.429, 139.695 41.564, 140.914 41.885, 142.124 42.311, 143.245 42.722, 144.283 43.060, 145.300 43.430, 146.307 43.807, 147.315 44.199, 148.323 44.518, 149.070 " />
            <path fill="none" stroke-width="1.0" stroke-linecap="butt" stroke-opacity="1.0" stroke="rgb(255, 255, 255)" stroke-linejoin="round" d=" M 45.830, 77.252 46.374, 78.717 " />
            <path fill="none" stroke-width="1.0" stroke-linecap="butt" stroke-opacity="1.0" stroke="rgb(255, 255, 255)" stroke-linejoin="round" d=" M 44.987, 76.420 44.630, 76.093 44.135, 75.640 43.297, 74.945 42.458, 74.418 42.088, 74.189 41.267, 73.695 41.075, 73.583 " />
            <path fill="none" stroke-width="1.0" stroke-linecap="butt" stroke-opacity="1.0" stroke="rgb(255, 255, 255)" stroke-linejoin="round" d=" M 52.126, 79.035 51.979, 78.921 51.217, 78.332 51.043, 78.239 49.895, 77.730 48.502, 77.317 47.025, 76.924 " />
            <path fill="none" stroke-width="1.0" stroke-linecap="butt" stroke-opacity="1.0" stroke="rgb(255, 255, 255)" stroke-linejoin="round" d=" M 48.411, 77.356 47.025, 76.924 46.977, 76.909 45.550, 76.482 44.630, 76.093 " />
            <path fill="none" stroke-width="1.0" stroke-linecap="butt" stroke-opacity="1.0" stroke="rgb(255, 255, 255)" stroke-linejoin="round" d=" M 43.015, 65.227 42.633, 65.717 42.017, 66.183 41.282, 66.451 40.390, 66.550 39.364, 66.675 38.301, 66.901 37.192, 67.268 35.996, 67.705 34.598, 68.361 33.187, 69.183 32.081, 70.078 31.386, 71.068 31.275, 72.186 31.333, 72.560 31.470, 72.961 31.642, 73.345 32.081, 74.290 32.528, 74.963 32.779, 75.244 33.058, 75.575 33.802, 76.337 34.313, 76.859 34.042, 76.593 33.802, 76.337 " />
            <path fill="none" stroke-width="1.0" stroke-linecap="butt" stroke-opacity="1.0" stroke="rgb(255, 255, 255)" stroke-linejoin="round" d=" M 35.175, 74.791 35.715, 74.849 36.343, 74.916 " />
            <path fill="none" stroke-width="1.0" stroke-linecap="butt" stroke-opacity="1.0" stroke="rgb(255, 255, 255)" stroke-linejoin="round" d=" M 50.997, 126.842 51.442, 127.004 51.589, 127.092 51.591, 127.094 51.854, 127.252 " />
            <path fill="none" stroke-width="1.0" stroke-linecap="butt" stroke-opacity="1.0" stroke="rgb(255, 255, 255)" stroke-linejoin="round" d=" M 51.549, 127.089 51.591, 127.094 " />
            <path fill="none" stroke-width="1.0" stroke-linecap="butt" stroke-opacity="1.0" stroke="rgb(255, 255, 255)" stroke-linejoin="round" d=" M 51.770, 135.953 51.819, 135.609 51.925, 134.874 52.093, 133.813 52.244, 132.769 52.416, 131.752 52.602, 130.765 52.789, 129.791 52.856, 129.438 " />
            <path fill="none" stroke-width="1.0" stroke-linecap="butt" stroke-opacity="1.0" stroke="rgb(255, 255, 255)" stroke-linejoin="round" d=" M 51.688, 155.279 51.867, 154.714 52.061, 154.097 52.089, 153.982 52.341, 152.797 52.444, 151.532 52.441, 150.310 52.413, 149.116 52.324, 147.972 52.156, 146.857 51.942, 145.804 51.705, 144.796 51.478, 143.832 51.274, 142.902 51.108, 142.006 50.999, 141.172 50.954, 140.400 51.014, 139.655 51.174, 138.855 51.400, 137.974 51.618, 136.979 51.782, 135.907 51.819, 135.609 " />
            <path fill="none" stroke-width="1.0" stroke-linecap="butt" stroke-opacity="1.0" stroke="rgb(255, 255, 255)" stroke-linejoin="round" d=" M 44.273, 148.478 44.518, 149.070 44.671, 149.441 45.084, 150.342 45.443, 151.201 45.718, 152.137 45.955, 153.164 " />
            <path fill="none" stroke-width="1.0" stroke-linecap="butt" stroke-opacity="1.0" stroke="rgb(255, 255, 255)" stroke-linejoin="round" d=" M 45.732, 152.107 45.943, 153.110 45.955, 153.164 46.181, 154.220 46.464, 155.219 46.836, 155.984 " />
            <path fill="none" stroke-width="1.0" stroke-linecap="butt" stroke-opacity="1.0" stroke="rgb(255, 255, 255)" stroke-linejoin="round" d=" M 47.262, 156.498 47.061, 156.255 46.836, 155.984 46.882, 156.059 47.061, 156.255 " />
            <path fill="none" stroke-width="1.0" stroke-linecap="butt" stroke-opacity="1.0" stroke="rgb(255, 255, 255)" stroke-linejoin="round" d=" M 50.599, 156.690 50.054, 156.917 49.833, 156.963 49.357, 157.033 48.908, 157.052 48.679, 157.037 48.250, 156.994 47.824, 156.879 47.621, 156.755 47.328, 156.546 47.321, 156.540 47.262, 156.498 47.386, 156.612 47.824, 156.879 " />
            <path fill="none" stroke-width="1.0" stroke-linecap="butt" stroke-opacity="1.0" stroke="rgb(255, 255, 255)" stroke-linejoin="round" d=" M 51.030, 156.260 50.740, 156.577 50.599, 156.690 51.030, 156.260 51.138, 156.153 51.242, 156.029 51.688, 155.279 51.735, 155.148 51.867, 154.714 " />
            <path fill="none" stroke-width="1.0" stroke-linecap="butt" stroke-opacity="1.0" stroke="rgb(255, 255, 255)" stroke-linejoin="round" d=" M 52.809, 75.526 53.657, 76.062 " />
            <path fill="none" stroke-width="1.0" stroke-linecap="butt" stroke-opacity="1.0" stroke="rgb(255, 255, 255)" stroke-linejoin="round" d=" M 54.837, 81.340 54.665, 81.518 " />
            <path fill="none" stroke-width="1.0" stroke-linecap="butt" stroke-opacity="1.0" stroke="rgb(255, 255, 255)" stroke-linejoin="round" d=" M 54.712, 81.151 54.180, 80.813 54.157, 80.798 " />
            <path fill="none" stroke-width="1.0" stroke-linecap="butt" stroke-opacity="1.0" stroke="rgb(255, 255, 255)" stroke-linejoin="round" d=" M 54.856, 81.294 54.765, 81.284 " />
            <path fill="none" stroke-width="1.0" stroke-linecap="butt" stroke-opacity="1.0" stroke="rgb(255, 255, 255)" stroke-linejoin="round" d=" M 54.878, 81.228 54.712, 81.151 54.680, 81.136 " />
            <path fill="none" stroke-width="1.0" stroke-linecap="butt" stroke-opacity="1.0" stroke="rgb(255, 255, 255)" stroke-linejoin="round" d=" M 61.632, 81.859 61.480, 81.839 " />
            <path fill="none" stroke-width="1.0" stroke-linecap="butt" stroke-opacity="1.0" stroke="rgb(255, 255, 255)" stroke-linejoin="round" d=" M 62.973, 81.807 62.900, 81.554 " />
            <path fill="none" stroke-width="1.0" stroke-linecap="butt" stroke-opacity="1.0" stroke="rgb(255, 255, 255)" stroke-linejoin="round" d=" M 64.977, 86.694 64.742, 87.181 " />
        </g>
    </g>
</svg>
