<?xml version='1.0' encoding='ascii'?>
<svg xmlns="http://www.w3.org/2000/svg" xmlns:inkscape="http://www.inkscape.org/namespaces/inkscape" version="1.1" width="120" height="200">
    <g id="ViewLayer_LineSet" inkscape:groupmode="lineset" inkscape:label="ViewLayer_LineSet">
        <g xmlns:inkscape="http://www.inkscape.org/namespaces/inkscape" inkscape:groupmode="layer" inkscape:label="fills" id="fills">
            <path fill_rule="evenodd" stroke="none" fill-opacity="1.0" fill="rgb(0, 0, 0)" d=" M 73.885, 133.865 74.137, 134.072 74.393, 134.254 74.622, 134.370 74.974, 134.518 75.217, 134.570 75.588, 134.664 75.817, 134.655 76.191, 134.664 76.358, 134.629 76.781, 134.533 77.293, 134.310 77.840, 133.883 78.318, 133.128 78.515, 132.259 78.548, 132.157 78.773, 131.040 78.949, 129.861 79.167, 128.782 79.357, 127.644 79.617, 126.509 79.735, 126.042 79.926, 125.354 80.202, 124.187 80.438, 123.023 80.653, 121.862 80.872, 120.691 81.094, 119.496 81.302, 118.262 81.459, 116.974 81.519, 115.687 81.507, 114.433 81.486, 113.939 81.464, 113.255 81.411, 112.016 81.375, 110.805 81.250, 109.561 81.231, 108.367 81.229, 107.142 81.149, 106.136 81.132, 105.914 81.088, 104.598 80.969, 103.202 80.828, 101.707 80.646, 100.063 80.281, 98.382 79.635, 96.725 79.525, 96.433 78.436, 95.049 77.131, 94.061 75.644, 93.497 75.216, 93.396 73.703, 93.165 72.391, 93.075 71.317, 92.880 71.148, 92.840 70.891, 92.777 70.028, 92.549 69.230, 92.339 68.500, 92.137 67.835, 91.905 67.723, 91.851 67.246, 91.415 66.918, 90.989 66.652, 90.401 66.488, 89.532 66.584, 88.617 67.122, 87.798 68.073, 87.080 69.270, 86.507 70.456, 85.997 71.590, 85.510 72.702, 84.967 73.808, 84.307 74.235, 84.029 75.223, 83.158 75.522, 82.803 76.262, 81.736 76.852, 80.548 77.270, 79.343 77.579, 78.134 77.843, 76.920 78.047, 75.695 78.201, 74.460 78.299, 73.215 78.326, 71.967 78.328, 71.821 78.311, 70.549 78.235, 69.295 78.100, 68.058 77.912, 66.842 77.668, 65.655 77.395, 64.494 77.017, 63.102 76.669, 61.988 76.272, 60.907 75.830, 59.860 75.453, 59.065 75.187, 58.671 74.799, 57.920 74.254, 57.073 73.631, 56.251 72.932, 55.448 72.496, 54.995 71.736, 54.240 70.921, 53.552 70.065, 52.938 69.505, 52.599 68.599, 52.065 67.664, 51.617 66.698, 51.254 66.050, 51.048 65.045, 50.806 64.378, 50.674 63.712, 50.577 62.013, 50.345 61.348, 50.277 60.686, 50.207 60.022, 50.160 59.354, 50.125 58.291, 50.068 57.618, 50.055 56.547, 50.131 55.877, 50.187 54.810, 50.380 54.168, 50.568 53.117, 50.881 52.088, 51.330 51.510, 51.627 50.526, 52.205 49.588, 52.909 48.705, 53.707 48.260, 54.110 47.454, 54.979 46.714, 55.903 46.040, 56.867 45.403, 57.861 44.849, 58.910 44.653, 59.333 44.183, 60.388 43.793, 61.447 43.472, 62.457 43.230, 63.419 43.047, 64.358 42.863, 65.434 42.698, 66.586 42.647, 67.065 42.554, 67.836 42.451, 69.077 42.399, 70.344 42.415, 71.630 42.493, 72.921 42.630, 74.197 42.818, 75.444 43.063, 76.656 43.343, 77.829 43.681, 78.943 44.039, 79.960 44.406, 80.864 44.551, 81.183 44.986, 82.134 45.463, 83.059 45.747, 83.489 46.362, 84.418 47.128, 85.180 47.627, 85.554 48.567, 86.117 49.557, 86.516 50.162, 86.720 51.195, 87.040 52.265, 87.349 53.403, 87.690 54.325, 88.013 55.582, 88.700 56.566, 90.026 56.658, 90.727 56.567, 91.497 56.290, 92.070 55.914, 92.615 55.890, 92.641 55.643, 92.800 55.543, 92.845 54.852, 93.127 54.106, 93.416 53.329, 93.687 52.605, 93.911 52.098, 94.045 51.169, 94.189 50.655, 94.287 49.516, 94.593 49.096, 94.766 47.944, 95.518 46.865, 96.602 46.038, 98.040 45.523, 99.745 45.337, 101.462 45.277, 102.901 45.191, 104.186 45.159, 105.403 45.166, 106.582 45.223, 107.734 45.303, 108.862 45.390, 109.969 45.455, 111.069 45.566, 112.159 45.658, 113.232 45.780, 114.270 45.880, 115.293 45.963, 116.306 46.031, 117.303 46.042, 118.323 46.084, 119.386 46.136, 120.462 46.166, 121.534 46.225, 122.607 46.296, 123.681 46.393, 124.738 46.499, 125.788 46.564, 126.850 46.631, 127.957 46.760, 129.104 46.967, 130.258 47.364, 131.315 47.924, 132.061 48.430, 132.424 48.964, 132.645 49.475, 132.716 49.991, 132.647 50.549, 132.482 50.644, 132.454 51.287, 132.137 51.687, 131.587 51.758, 132.327 51.853, 133.301 51.872, 133.551 51.965, 134.698 52.076, 135.862 52.188, 137.041 52.322, 138.226 52.458, 139.408 52.576, 140.587 52.701, 141.760 52.822, 142.921 52.943, 144.063 53.056, 145.187 53.171, 146.298 53.306, 147.396 53.425, 148.482 53.545, 149.556 53.666, 150.619 53.772, 151.675 53.865, 152.735 53.960, 153.808 54.061, 154.899 54.152, 156.003 54.252, 157.112 54.366, 158.223 54.464, 159.353 54.569, 160.516 54.692, 161.704 54.888, 162.891 55.162, 164.078 55.511, 165.301 55.963, 166.495 56.561, 167.570 57.385, 168.349 58.253, 168.791 58.947, 168.930 59.522, 168.958 60.088, 168.892 60.595, 168.778 60.612, 168.770 60.987, 169.376 61.503, 169.942 61.594, 169.993 62.056, 170.315 62.530, 170.511 62.995, 170.612 63.427, 170.651 63.815, 170.642 64.179, 170.569 64.278, 170.534 64.575, 170.402 65.201, 170.157 65.402, 170.006 66.035, 169.386 66.456, 168.516 66.551, 168.254 66.898, 167.291 67.203, 166.313 67.465, 165.348 67.740, 164.373 68.048, 163.353 68.363, 162.287 68.677, 161.205 68.975, 160.118 69.272, 159.035 69.551, 157.948 69.883, 156.855 70.220, 155.719 70.509, 154.551 70.702, 153.396 70.846, 152.254 70.958, 151.116 71.059, 149.984 71.164, 148.859 71.284, 147.733 71.396, 146.600 71.513, 145.451 71.634, 144.289 71.752, 143.116 71.866, 141.934 71.972, 140.750 72.085, 139.570 72.197, 138.400 72.317, 137.243 72.430, 136.100 72.548, 134.970 72.664, 133.853 72.779, 132.749 72.886, 131.648 72.960, 130.870 72.974, 130.953 73.056, 131.731 73.085, 131.862 73.352, 132.952 73.704, 133.611 73.885, 133.865  z" />
        </g>
        <g inkscape:groupmode="layer" id="strokes" inkscape:label="strokes">
            <path fill="none" stroke-width="1.0" stroke-linecap="butt" stroke-opacity="1.0" stroke="rgb(255, 255, 255)" stroke-linejoin="round" d=" M 72.974, 130.953 73.056, 131.731 73.085, 131.862 73.352, 132.952 73.704, 133.611 73.885, 133.865 74.137, 134.072 74.393, 134.254 74.622, 134.370 74.974, 134.518 75.217, 134.570 75.588, 134.664 75.817, 134.655 76.191, 134.664 76.358, 134.629 76.781, 134.533 77.293, 134.310 77.840, 133.883 78.318, 133.128 78.515, 132.259 78.557, 132.074 " />
            <path fill="none" stroke-width="1.0" stroke-linecap="butt" stroke-opacity="1.0" stroke="rgb(255, 255, 255)" stroke-linejoin="round" d=" M 72.966, 106.375 73.228, 106.535 " />
            <path fill="none" stroke-width="1.0" stroke-linecap="butt" stroke-opacity="1.0" stroke="rgb(255, 255, 255)" stroke-linejoin="round" d=" M 72.356, 104.923 72.966, 106.375 " />
            <path fill="none" stroke-width="1.0" stroke-linecap="butt" stroke-opacity="1.0" stroke="rgb(255, 255, 255)" stroke-linejoin="round" d=" M 66.918, 90.989 66.652, 90.401 66.488, 89.532 66.584, 88.617 67.122, 87.798 68.073, 87.080 " />
            <path fill="none" stroke-width="1.0" stroke-linecap="butt" stroke-opacity="1.0" stroke="rgb(255, 255, 255)" stroke-linejoin="round" d=" M 55.413, 88.472 55.582, 88.700 56.566, 90.026 56.679, 90.179 " />
            <path fill="none" stroke-width="1.0" stroke-linecap="butt" stroke-opacity="1.0" stroke="rgb(255, 255, 255)" stroke-linejoin="round" d=" M 50.538, 104.543 50.640, 104.927 " />
            <path fill="none" stroke-width="1.0" stroke-linecap="butt" stroke-opacity="1.0" stroke="rgb(255, 255, 255)" stroke-linejoin="round" d=" M 50.538, 104.543 50.645, 105.193 50.248, 103.617 " />
            <path fill="none" stroke-width="1.0" stroke-linecap="butt" stroke-opacity="1.0" stroke="rgb(255, 255, 255)" stroke-linejoin="round" d=" M 60.899, 136.467 61.018, 136.936 61.198, 137.903 61.201, 138.862 61.182, 139.789 61.162, 140.713 61.082, 141.658 61.051, 142.747 60.996, 143.765 60.962, 144.793 60.952, 145.840 60.951, 146.903 60.963, 147.974 61.000, 149.043 61.069, 150.076 61.143, 151.059 61.184, 152.007 61.176, 152.939 61.119, 153.897 61.035, 154.891 60.915, 155.916 60.771, 156.962 60.612, 158.032 60.438, 159.131 60.268, 160.254 60.110, 161.403 60.008, 162.550 59.930, 163.712 59.873, 164.892 59.908, 166.096 60.089, 167.303 60.395, 168.419 60.612, 168.770 60.987, 169.376 61.503, 169.942 61.594, 169.993 62.056, 170.315 62.530, 170.511 62.995, 170.612 63.427, 170.651 63.815, 170.642 64.179, 170.569 64.278, 170.534 64.575, 170.402 64.897, 170.259 " />
            <path fill="none" stroke-width="1.0" stroke-linecap="butt" stroke-opacity="1.0" stroke="rgb(255, 255, 255)" stroke-linejoin="round" d=" M 67.782, 87.219 68.073, 87.080 69.270, 86.507 70.456, 85.997 71.590, 85.510 72.702, 84.967 73.808, 84.307 74.235, 84.029 75.223, 83.158 75.522, 82.803 76.262, 81.736 76.852, 80.548 77.270, 79.343 77.579, 78.134 77.843, 76.920 78.047, 75.695 78.201, 74.460 78.299, 73.215 78.326, 71.967 78.328, 71.821 78.311, 70.549 78.235, 69.295 78.100, 68.058 77.912, 66.842 77.668, 65.655 77.395, 64.494 77.017, 63.102 76.669, 61.988 76.272, 60.907 75.830, 59.860 75.453, 59.065 75.187, 58.671 74.799, 57.920 74.254, 57.073 73.631, 56.251 72.932, 55.448 72.496, 54.995 71.736, 54.240 70.921, 53.552 70.065, 52.938 69.505, 52.599 68.599, 52.065 67.664, 51.617 66.698, 51.254 66.050, 51.048 65.045, 50.806 64.378, 50.674 63.712, 50.577 62.013, 50.345 61.348, 50.277 60.686, 50.207 60.022, 50.160 59.354, 50.125 58.291, 50.068 57.618, 50.055 56.547, 50.131 55.877, 50.187 54.810, 50.380 54.168, 50.568 53.117, 50.881 52.088, 51.330 51.510, 51.627 50.526, 52.205 49.588, 52.909 48.705, 53.707 48.260, 54.110 47.454, 54.979 46.714, 55.903 46.040, 56.867 45.403, 57.861 44.849, 58.910 44.653, 59.333 44.183, 60.388 43.793, 61.447 43.472, 62.457 43.230, 63.419 43.047, 64.358 42.863, 65.434 42.698, 66.586 42.647, 67.065 " />
            <path fill="none" stroke-width="1.0" stroke-linecap="butt" stroke-opacity="1.0" stroke="rgb(255, 255, 255)" stroke-linejoin="round" d=" M 51.787, 132.427 51.853, 133.301 51.872, 133.551 51.965, 134.698 52.076, 135.862 52.188, 137.041 52.322, 138.226 52.458, 139.408 52.576, 140.587 52.701, 141.760 52.822, 142.921 52.943, 144.063 53.056, 145.187 53.171, 146.298 53.306, 147.396 53.425, 148.482 53.545, 149.556 53.666, 150.619 53.772, 151.675 53.865, 152.735 53.960, 153.808 54.061, 154.899 54.152, 156.003 54.252, 157.112 54.366, 158.223 54.464, 159.353 54.569, 160.516 54.692, 161.704 54.888, 162.891 55.162, 164.078 55.511, 165.301 55.963, 166.495 56.561, 167.570 57.385, 168.349 58.253, 168.791 58.947, 168.930 59.522, 168.958 60.088, 168.892 60.595, 168.778 60.612, 168.770 " />
            <path fill="none" stroke-width="1.0" stroke-linecap="butt" stroke-opacity="1.0" stroke="rgb(255, 255, 255)" stroke-linejoin="round" d=" M 50.679, 116.077 50.693, 116.785 50.701, 117.204 50.727, 118.316 50.761, 119.416 50.806, 120.514 50.859, 121.605 50.921, 122.685 50.988, 123.759 51.059, 124.825 51.142, 125.886 51.235, 126.947 51.336, 128.009 51.437, 129.074 51.546, 130.145 51.653, 131.228 51.687, 131.587 51.758, 132.327 51.853, 133.301 " />
            <path fill="none" stroke-width="1.0" stroke-linecap="butt" stroke-opacity="1.0" stroke="rgb(255, 255, 255)" stroke-linejoin="round" d=" M 73.036, 105.995 73.145, 106.263 73.195, 106.427 73.228, 106.535 73.242, 106.580 73.319, 107.007 73.381, 107.371 73.448, 108.085 73.547, 108.974 73.602, 109.972 73.642, 111.051 73.703, 112.167 73.789, 113.292 73.858, 114.396 73.951, 115.423 73.991, 116.409 73.931, 117.441 73.852, 118.512 73.661, 119.600 73.535, 120.738 73.403, 121.886 73.265, 123.039 73.144, 124.190 73.064, 125.339 72.942, 126.508 72.878, 127.727 72.886, 127.816 72.997, 128.981 " />
            <path fill="none" stroke-width="1.0" stroke-linecap="butt" stroke-opacity="1.0" stroke="rgb(255, 255, 255)" stroke-linejoin="round" d=" M 71.148, 92.840 70.891, 92.777 70.028, 92.549 69.230, 92.339 68.500, 92.137 67.835, 91.905 67.723, 91.851 67.231, 91.611 " />
            <path fill="none" stroke-width="1.0" stroke-linecap="butt" stroke-opacity="1.0" stroke="rgb(255, 255, 255)" stroke-linejoin="round" d=" M 67.723, 91.851 67.246, 91.415 66.918, 90.989 66.794, 90.829 " />
            <path fill="none" stroke-width="1.0" stroke-linecap="butt" stroke-opacity="1.0" stroke="rgb(255, 255, 255)" stroke-linejoin="round" d=" M 42.699, 66.635 42.647, 67.065 42.554, 67.836 42.451, 69.077 42.399, 70.344 42.415, 71.630 42.493, 72.921 42.630, 74.197 42.818, 75.444 43.063, 76.656 43.343, 77.829 43.681, 78.943 44.039, 79.960 44.406, 80.864 44.551, 81.183 44.986, 82.134 45.463, 83.059 45.747, 83.489 46.362, 84.418 47.128, 85.180 47.627, 85.554 48.567, 86.117 49.557, 86.516 50.162, 86.720 51.195, 87.040 52.265, 87.349 53.403, 87.690 54.325, 88.013 " />
            <path fill="none" stroke-width="1.0" stroke-linecap="butt" stroke-opacity="1.0" stroke="rgb(255, 255, 255)" stroke-linejoin="round" d=" M 54.091, 87.884 54.325, 88.013 55.582, 88.700 " />
            <path fill="none" stroke-width="1.0" stroke-linecap="butt" stroke-opacity="1.0" stroke="rgb(255, 255, 255)" stroke-linejoin="round" d=" M 50.632, 104.874 50.640, 104.927 50.757, 105.695 50.833, 106.490 50.862, 107.344 50.900, 108.228 50.848, 109.241 50.780, 110.321 50.748, 110.939 50.721, 111.473 " />
            <path fill="none" stroke-width="1.0" stroke-linecap="butt" stroke-opacity="1.0" stroke="rgb(255, 255, 255)" stroke-linejoin="round" d=" M 52.098, 94.045 51.169, 94.189 50.655, 94.287 49.516, 94.593 49.096, 94.766 47.944, 95.518 46.865, 96.602 46.038, 98.040 45.523, 99.745 45.337, 101.462 45.277, 102.901 45.191, 104.186 45.159, 105.403 45.166, 106.582 45.223, 107.734 45.303, 108.862 45.390, 109.969 45.455, 111.069 45.566, 112.159 45.658, 113.232 45.780, 114.270 45.880, 115.293 45.963, 116.306 46.031, 117.303 46.042, 118.323 46.084, 119.386 46.136, 120.462 46.166, 121.534 46.225, 122.607 46.296, 123.681 46.393, 124.738 46.499, 125.788 46.564, 126.850 46.631, 127.957 46.760, 129.104 46.967, 130.258 47.364, 131.315 47.924, 132.061 48.430, 132.424 48.964, 132.645 49.475, 132.716 49.991, 132.647 50.549, 132.482 50.644, 132.454 51.287, 132.137 51.687, 131.587 " />
            <path fill="none" stroke-width="1.0" stroke-linecap="butt" stroke-opacity="1.0" stroke="rgb(255, 255, 255)" stroke-linejoin="round" d=" M 50.349, 104.995 50.439, 105.380 " />
            <path fill="none" stroke-width="1.0" stroke-linecap="butt" stroke-opacity="1.0" stroke="rgb(255, 255, 255)" stroke-linejoin="round" d=" M 56.567, 91.497 56.290, 92.070 55.914, 92.615 55.890, 92.641 55.815, 92.722 55.788, 92.751 55.478, 93.086 " />
            <path fill="none" stroke-width="1.0" stroke-linecap="butt" stroke-opacity="1.0" stroke="rgb(255, 255, 255)" stroke-linejoin="round" d=" M 56.566, 90.026 56.658, 90.727 56.567, 91.497 56.500, 92.053 " />
            <path fill="none" stroke-width="1.0" stroke-linecap="butt" stroke-opacity="1.0" stroke="rgb(255, 255, 255)" stroke-linejoin="round" d=" M 81.225, 107.189 81.149, 106.136 81.132, 105.914 81.088, 104.598 80.969, 103.202 80.828, 101.707 80.646, 100.063 80.281, 98.382 79.635, 96.725 79.525, 96.433 78.436, 95.049 77.131, 94.061 75.644, 93.497 75.216, 93.396 73.703, 93.165 72.391, 93.075 71.317, 92.880 71.148, 92.840 70.349, 92.651 " />
            <path fill="none" stroke-width="1.0" stroke-linecap="butt" stroke-opacity="1.0" stroke="rgb(255, 255, 255)" stroke-linejoin="round" d=" M 55.643, 92.800 55.543, 92.845 54.852, 93.127 54.106, 93.416 53.329, 93.687 52.605, 93.911 52.521, 93.936 " />
            <path fill="none" stroke-width="1.0" stroke-linecap="butt" stroke-opacity="1.0" stroke="rgb(255, 255, 255)" stroke-linejoin="round" d=" M 50.748, 110.939 50.717, 111.296 50.663, 112.474 50.645, 113.661 50.651, 114.827 50.670, 115.972 50.693, 116.785 " />
            <path fill="none" stroke-width="1.0" stroke-linecap="butt" stroke-opacity="1.0" stroke="rgb(255, 255, 255)" stroke-linejoin="round" d=" M 81.504, 114.496 81.486, 113.939 81.464, 113.255 81.411, 112.016 81.375, 110.805 81.250, 109.561 81.231, 108.367 81.229, 107.142 81.149, 106.136 " />
            <path fill="none" stroke-width="1.0" stroke-linecap="butt" stroke-opacity="1.0" stroke="rgb(255, 255, 255)" stroke-linejoin="round" d=" M 79.735, 126.042 79.926, 125.354 80.202, 124.187 80.438, 123.023 80.653, 121.862 80.872, 120.691 81.094, 119.496 81.302, 118.262 81.459, 116.974 81.519, 115.687 81.507, 114.433 81.486, 113.939 " />
            <path fill="none" stroke-width="1.0" stroke-linecap="butt" stroke-opacity="1.0" stroke="rgb(255, 255, 255)" stroke-linejoin="round" d=" M 78.515, 132.259 78.548, 132.157 78.773, 131.040 78.949, 129.861 79.167, 128.782 79.357, 127.644 79.617, 126.509 79.735, 126.042 79.907, 125.362 " />
            <path fill="none" stroke-width="1.0" stroke-linecap="butt" stroke-opacity="1.0" stroke="rgb(255, 255, 255)" stroke-linejoin="round" d=" M 72.886, 127.816 72.852, 129.065 72.890, 130.450 72.960, 130.870 72.974, 130.953 73.087, 131.631 " />
            <path fill="none" stroke-width="1.0" stroke-linecap="butt" stroke-opacity="1.0" stroke="rgb(255, 255, 255)" stroke-linejoin="round" d=" M 64.575, 170.402 65.201, 170.157 65.402, 170.006 66.035, 169.386 66.456, 168.516 66.551, 168.254 66.898, 167.291 67.203, 166.313 67.465, 165.348 67.740, 164.373 68.048, 163.353 68.363, 162.287 68.677, 161.205 68.975, 160.118 69.272, 159.035 69.551, 157.948 69.883, 156.855 70.220, 155.719 70.509, 154.551 70.702, 153.396 70.846, 152.254 70.958, 151.116 71.059, 149.984 71.164, 148.859 71.284, 147.733 71.396, 146.600 71.513, 145.451 71.634, 144.289 71.752, 143.116 71.866, 141.934 71.972, 140.750 72.085, 139.570 72.197, 138.400 72.317, 137.243 72.430, 136.100 72.548, 134.970 72.664, 133.853 72.779, 132.749 72.886, 131.648 72.960, 130.870 " />
            <path fill="none" stroke-width="1.0" stroke-linecap="butt" stroke-opacity="1.0" stroke="rgb(255, 255, 255)" stroke-linejoin="round" d=" M 52.605, 93.911 52.098, 94.045 51.643, 94.167 " />
            <path fill="none" stroke-width="1.0" stroke-linecap="butt" stroke-opacity="1.0" stroke="rgb(255, 255, 255)" stroke-linejoin="round" d=" M 55.890, 92.641 55.643, 92.800 55.484, 92.902 " />
        </g>
    </g>
</svg>
