<?xml version='1.0' encoding='ascii'?>
<svg xmlns="http://www.w3.org/2000/svg" xmlns:inkscape="http://www.inkscape.org/namespaces/inkscape" version="1.1" width="120" height="200">
    <g id="ViewLayer_LineSet" inkscape:groupmode="lineset" inkscape:label="ViewLayer_LineSet">
        <g xmlns:inkscape="http://www.inkscape.org/namespaces/inkscape" inkscape:groupmode="layer" inkscape:label="fills" id="fills">
            <path fill_rule="evenodd" stroke="none" fill-opacity="1.0" fill="rgb(0, 0, 0)" d=" M 56.724, 88.107 57.218, 88.879 57.285, 89.758 57.098, 90.599 56.697, 91.431 56.571, 91.630 56.069, 92.121 55.746, 92.359 55.550, 92.449 54.929, 92.695 54.267, 92.955 53.563, 93.236 52.820, 93.519 51.976, 93.747 50.946, 93.940 49.760, 94.259 48.638, 94.861 47.711, 95.813 47.466, 96.116 46.778, 97.353 46.417, 98.839 46.224, 100.516 46.147, 101.897 46.081, 103.175 46.016, 104.373 45.983, 105.522 45.927, 106.642 45.951, 107.736 45.954, 108.807 45.899, 109.878 45.877, 110.967 45.857, 112.061 45.838, 113.172 45.855, 114.294 45.946, 115.438 46.131, 116.572 46.362, 117.656 46.602, 118.706 46.835, 119.736 47.059, 120.761 47.290, 121.800 47.536, 122.861 47.797, 123.934 48.037, 125.019 48.143, 125.531 48.204, 126.008 48.446, 127.044 48.700, 128.065 48.937, 128.925 49.266, 129.818 49.773, 130.446 50.115, 130.647 50.125, 131.059 50.140, 132.131 50.159, 133.217 50.188, 134.318 50.209, 135.434 50.230, 136.565 50.250, 137.711 50.262, 138.863 50.282, 140.019 50.312, 141.169 50.333, 142.308 50.362, 143.437 50.393, 144.556 50.417, 145.665 50.437, 146.771 50.442, 147.888 50.453, 149.019 50.493, 150.157 50.594, 151.306 50.762, 152.441 50.979, 153.545 51.211, 154.614 51.400, 155.664 51.594, 156.714 51.797, 157.767 52.001, 158.826 52.210, 159.891 52.413, 160.941 52.605, 162.009 52.832, 163.130 53.114, 164.231 53.428, 165.303 53.836, 166.289 54.411, 167.096 55.100, 167.586 55.357, 167.676 55.572, 167.775 56.059, 167.865 56.528, 167.884 57.001, 167.845 57.100, 167.829 57.500, 167.753 57.547, 167.898 57.666, 168.068 58.140, 168.633 58.643, 168.926 58.832, 169.042 59.267, 169.186 59.465, 169.273 59.860, 169.342 60.529, 169.405 60.853, 169.394 61.210, 169.318 61.761, 169.061 61.980, 168.957 62.141, 168.833 62.931, 168.119 63.062, 167.942 63.675, 166.919 64.142, 165.756 64.507, 164.566 64.795, 163.437 65.005, 162.290 65.141, 161.140 65.259, 160.024 65.371, 158.956 65.499, 157.907 65.613, 156.859 65.710, 155.841 65.812, 154.877 65.920, 153.962 66.052, 153.041 66.226, 152.086 66.436, 151.077 66.657, 150.030 66.885, 148.952 67.133, 147.851 67.360, 146.727 67.585, 145.584 67.815, 144.421 68.045, 143.240 68.277, 142.049 68.503, 140.847 68.746, 139.641 68.988, 138.429 69.205, 137.218 69.318, 136.594 69.408, 136.162 69.645, 134.995 69.855, 133.842 70.060, 132.714 70.264, 131.604 70.468, 130.507 70.665, 129.420 70.861, 128.337 70.914, 128.030 70.929, 128.297 71.078, 129.478 71.412, 130.555 71.737, 131.614 72.213, 132.573 72.778, 133.302 72.915, 133.377 73.533, 133.732 74.124, 133.866 74.262, 133.907 74.771, 133.943 75.267, 133.855 75.461, 133.774 75.757, 133.667 76.192, 133.390 76.771, 132.675 76.865, 132.524 77.275, 131.470 77.484, 130.303 77.612, 129.141 77.675, 128.006 77.736, 126.905 77.836, 125.816 77.928, 124.720 77.991, 123.614 78.041, 122.510 78.061, 121.405 78.106, 120.293 78.140, 119.192 78.141, 118.128 78.200, 117.074 78.269, 115.995 78.352, 114.896 78.456, 113.780 78.529, 112.634 78.624, 111.474 78.670, 110.306 78.739, 109.128 78.800, 107.928 78.837, 106.704 78.820, 105.450 78.761, 104.156 78.644, 102.792 78.554, 101.262 78.324, 99.433 77.732, 97.625 76.810, 96.130 75.643, 95.040 74.407, 94.326 73.951, 94.137 73.473, 94.037 72.204, 93.814 71.701, 93.745 70.763, 93.675 70.255, 93.574 69.522, 93.406 69.195, 93.313 68.631, 93.130 67.973, 92.898 67.766, 92.814 67.714, 92.782 67.364, 92.278 67.114, 91.762 67.008, 90.977 67.081, 90.389 68.109, 88.978 69.481, 88.219 70.695, 87.770 71.835, 87.395 72.909, 87.025 73.942, 86.631 74.944, 86.162 75.440, 85.836 75.605, 85.726 75.904, 85.528 76.347, 85.230 77.133, 84.404 77.766, 83.416 77.983, 83.081 78.474, 82.107 78.918, 81.112 79.362, 79.967 79.717, 78.924 80.045, 77.795 80.308, 76.622 80.528, 75.421 80.687, 74.194 80.792, 72.947 80.834, 71.696 80.841, 71.478 80.826, 70.228 80.758, 69.008 80.648, 67.822 80.479, 66.691 80.218, 65.312 79.999, 64.279 79.749, 63.302 79.443, 62.349 79.078, 61.404 78.635, 60.471 78.350, 59.917 77.822, 58.987 77.212, 58.111 76.529, 57.309 76.073, 56.798 75.315, 56.064 74.522, 55.390 73.665, 54.816 73.063, 54.433 72.168, 53.937 71.517, 53.646 70.587, 53.259 69.916, 53.024 69.241, 52.815 67.605, 52.352 66.922, 52.163 66.234, 51.995 65.545, 51.826 64.855, 51.669 64.158, 51.549 63.189, 51.390 62.482, 51.361 61.504, 51.327 60.528, 51.433 59.842, 51.540 58.885, 51.737 57.936, 52.032 57.322, 52.287 56.415, 52.684 55.541, 53.181 54.707, 53.776 54.256, 54.141 53.482, 54.788 52.739, 55.508 52.036, 56.296 51.370, 57.152 50.732, 58.042 50.483, 58.402 49.898, 59.330 49.350, 60.319 48.841, 61.392 48.405, 62.442 48.032, 63.496 47.693, 64.554 47.396, 65.630 47.124, 66.724 46.892, 67.842 46.703, 68.982 46.549, 70.137 46.438, 71.315 46.370, 72.482 46.358, 73.654 46.392, 74.827 46.496, 75.986 46.651, 77.124 46.851, 78.233 47.096, 79.312 47.362, 80.354 47.701, 81.358 47.865, 81.726 48.144, 82.321 48.377, 82.795 49.003, 83.733 49.418, 84.148 50.260, 84.888 50.790, 85.220 51.738, 85.756 52.700, 86.185 53.316, 86.437 54.297, 86.829 55.309, 87.240 55.936, 87.526 56.724, 88.107  z" />
        </g>
        <g inkscape:groupmode="layer" id="strokes" inkscape:label="strokes">
            <path fill="none" stroke-width="1.0" stroke-linecap="butt" stroke-opacity="1.0" stroke="rgb(255, 255, 255)" stroke-linejoin="round" d=" M 49.147, 105.214 49.399, 105.540 " />
            <path fill="none" stroke-width="1.0" stroke-linecap="butt" stroke-opacity="1.0" stroke="rgb(255, 255, 255)" stroke-linejoin="round" d=" M 55.832, 87.449 55.936, 87.526 56.724, 88.107 57.218, 88.879 57.285, 89.758 57.098, 90.599 56.697, 91.431 56.571, 91.630 56.069, 92.121 55.746, 92.359 55.523, 92.523 " />
            <path fill="none" stroke-width="1.0" stroke-linecap="butt" stroke-opacity="1.0" stroke="rgb(255, 255, 255)" stroke-linejoin="round" d=" M 67.114, 91.762 67.008, 90.977 67.081, 90.389 67.119, 90.084 " />
            <path fill="none" stroke-width="1.0" stroke-linecap="butt" stroke-opacity="1.0" stroke="rgb(255, 255, 255)" stroke-linejoin="round" d=" M 70.812, 106.100 70.724, 106.022 70.496, 105.398 " />
            <path fill="none" stroke-width="1.0" stroke-linecap="butt" stroke-opacity="1.0" stroke="rgb(255, 255, 255)" stroke-linejoin="round" d=" M 74.944, 86.162 75.605, 85.726 75.904, 85.528 76.347, 85.230 77.133, 84.404 77.766, 83.416 77.983, 83.081 78.474, 82.107 78.918, 81.112 79.362, 79.967 79.717, 78.924 80.045, 77.795 80.308, 76.622 80.528, 75.421 80.687, 74.194 80.792, 72.947 80.834, 71.696 80.841, 71.478 80.826, 70.228 80.758, 69.008 80.648, 67.822 80.479, 66.691 80.218, 65.312 79.999, 64.279 79.749, 63.302 79.443, 62.349 79.078, 61.404 78.635, 60.471 78.350, 59.917 77.822, 58.987 77.212, 58.111 76.529, 57.309 76.073, 56.798 75.315, 56.064 74.522, 55.390 73.665, 54.816 73.063, 54.433 72.168, 53.937 71.517, 53.646 70.587, 53.259 69.916, 53.024 69.241, 52.815 67.605, 52.352 66.922, 52.163 66.234, 51.995 65.545, 51.826 64.855, 51.669 64.158, 51.549 63.189, 51.390 62.482, 51.361 61.504, 51.327 60.528, 51.433 59.842, 51.540 58.885, 51.737 57.936, 52.032 57.322, 52.287 56.415, 52.684 55.541, 53.181 54.707, 53.776 54.256, 54.141 53.482, 54.788 52.739, 55.508 52.036, 56.296 51.370, 57.152 50.732, 58.042 50.483, 58.402 49.898, 59.330 49.350, 60.319 48.841, 61.392 48.405, 62.442 48.032, 63.496 47.693, 64.554 47.396, 65.630 47.124, 66.724 46.892, 67.842 46.703, 68.982 46.549, 70.137 46.438, 71.315 46.370, 72.482 46.358, 73.654 46.392, 74.827 46.496, 75.986 46.651, 77.124 46.851, 78.233 47.096, 79.312 47.362, 80.354 47.701, 81.358 47.865, 81.726 48.144, 82.321 48.377, 82.795 49.003, 83.733 49.418, 84.148 50.260, 84.888 50.790, 85.220 51.738, 85.756 52.700, 86.185 53.316, 86.437 54.297, 86.829 55.309, 87.240 55.936, 87.526 " />
            <path fill="none" stroke-width="1.0" stroke-linecap="butt" stroke-opacity="1.0" stroke="rgb(255, 255, 255)" stroke-linejoin="round" d=" M 75.351, 133.813 75.461, 133.774 75.757, 133.667 76.192, 133.390 76.771, 132.675 76.865, 132.524 77.275, 131.470 77.484, 130.303 77.612, 129.141 77.675, 128.006 77.736, 126.905 77.836, 125.816 77.928, 124.720 77.991, 123.614 78.041, 122.510 78.061, 121.405 78.106, 120.293 78.140, 119.192 78.141, 118.128 78.200, 117.074 78.269, 115.995 78.352, 114.896 78.456, 113.780 78.529, 112.634 78.624, 111.474 78.670, 110.306 78.739, 109.128 78.800, 107.928 78.837, 106.704 78.820, 105.450 78.761, 104.156 78.644, 102.792 78.554, 101.262 78.324, 99.433 77.732, 97.625 76.810, 96.130 75.643, 95.040 74.407, 94.326 73.951, 94.137 73.473, 94.037 72.204, 93.814 71.701, 93.745 70.763, 93.675 70.078, 93.623 " />
            <path fill="none" stroke-width="1.0" stroke-linecap="butt" stroke-opacity="1.0" stroke="rgb(255, 255, 255)" stroke-linejoin="round" d=" M 56.062, 137.511 56.215, 137.667 56.272, 137.724 56.286, 137.739 56.295, 137.748 56.442, 137.898 56.726, 138.389 56.953, 139.078 57.079, 139.882 57.118, 140.778 57.101, 141.752 57.065, 142.767 57.014, 143.805 56.952, 144.863 56.876, 145.943 56.813, 147.036 56.749, 148.143 56.671, 149.279 56.587, 150.451 56.510, 151.631 56.479, 152.798 56.475, 153.938 56.521, 155.040 56.583, 156.093 56.633, 157.113 56.688, 158.133 56.745, 159.147 56.815, 160.127 56.883, 161.065 56.942, 161.965 56.975, 162.886 57.001, 163.855 57.023, 164.868 57.082, 165.925 57.249, 166.983 57.500, 167.753 57.547, 167.898 57.666, 168.068 58.140, 168.633 58.643, 168.926 58.832, 169.042 59.267, 169.186 59.465, 169.273 59.860, 169.342 60.529, 169.405 60.853, 169.394 61.210, 169.318 61.761, 169.061 61.980, 168.957 62.141, 168.833 62.931, 168.119 63.062, 167.942 63.675, 166.919 64.142, 165.756 64.507, 164.566 64.795, 163.437 65.005, 162.290 65.141, 161.140 65.259, 160.024 65.371, 158.956 65.499, 157.907 65.613, 156.859 65.710, 155.841 65.812, 154.877 65.920, 153.962 66.052, 153.041 66.226, 152.086 66.436, 151.077 66.657, 150.030 66.885, 148.952 67.133, 147.851 67.360, 146.727 67.585, 145.584 67.815, 144.421 68.045, 143.240 68.277, 142.049 68.503, 140.847 68.746, 139.641 68.988, 138.429 69.205, 137.218 69.318, 136.594 " />
            <path fill="none" stroke-width="1.0" stroke-linecap="butt" stroke-opacity="1.0" stroke="rgb(255, 255, 255)" stroke-linejoin="round" d=" M 69.161, 137.342 69.318, 136.594 69.408, 136.162 69.645, 134.995 69.855, 133.842 70.060, 132.714 70.264, 131.604 70.468, 130.507 70.665, 129.420 70.861, 128.337 70.914, 128.030 " />
            <path fill="none" stroke-width="1.0" stroke-linecap="butt" stroke-opacity="1.0" stroke="rgb(255, 255, 255)" stroke-linejoin="round" d=" M 67.896, 89.096 68.109, 88.978 69.481, 88.219 70.695, 87.770 71.835, 87.395 72.909, 87.025 73.942, 86.631 74.944, 86.162 75.440, 85.836 75.605, 85.726 " />
            <path fill="none" stroke-width="1.0" stroke-linecap="butt" stroke-opacity="1.0" stroke="rgb(255, 255, 255)" stroke-linejoin="round" d=" M 70.628, 120.095 70.639, 120.401 70.646, 121.483 70.668, 122.569 70.698, 123.663 70.725, 124.761 70.787, 125.860 70.855, 126.963 70.914, 128.030 70.929, 128.297 71.078, 129.478 71.412, 130.555 71.737, 131.614 72.213, 132.573 72.778, 133.302 72.915, 133.377 73.533, 133.732 74.124, 133.866 74.262, 133.907 74.771, 133.943 75.267, 133.855 75.461, 133.774 " />
            <path fill="none" stroke-width="1.0" stroke-linecap="butt" stroke-opacity="1.0" stroke="rgb(255, 255, 255)" stroke-linejoin="round" d=" M 70.788, 105.782 70.812, 106.075 70.812, 106.100 70.805, 106.428 70.762, 106.839 70.750, 107.424 70.713, 108.146 70.701, 109.064 70.698, 110.119 70.681, 111.210 70.651, 112.321 70.606, 113.469 70.566, 114.638 70.548, 115.806 70.535, 116.973 70.518, 118.303 70.566, 119.487 70.628, 120.095 70.677, 120.572 " />
            <path fill="none" stroke-width="1.0" stroke-linecap="butt" stroke-opacity="1.0" stroke="rgb(255, 255, 255)" stroke-linejoin="round" d=" M 69.195, 93.313 68.631, 93.130 67.973, 92.898 67.766, 92.814 67.725, 92.797 67.658, 92.770 67.391, 92.661 " />
            <path fill="none" stroke-width="1.0" stroke-linecap="butt" stroke-opacity="1.0" stroke="rgb(255, 255, 255)" stroke-linejoin="round" d=" M 67.714, 92.782 67.364, 92.278 67.114, 91.762 67.080, 91.691 " />
            <path fill="none" stroke-width="1.0" stroke-linecap="butt" stroke-opacity="1.0" stroke="rgb(255, 255, 255)" stroke-linejoin="round" d=" M 49.375, 105.430 49.399, 105.540 49.551, 106.251 49.662, 107.063 49.763, 107.954 49.839, 108.898 49.910, 109.923 49.960, 110.969 49.997, 112.145 50.023, 113.222 50.041, 114.294 50.063, 115.369 50.088, 116.445 50.100, 117.502 50.108, 118.558 50.108, 119.606 50.096, 120.645 50.079, 121.681 50.061, 122.716 50.048, 123.751 50.040, 124.788 50.042, 125.824 50.056, 126.860 50.064, 127.901 50.079, 128.946 50.100, 129.997 50.115, 130.647 50.125, 131.059 50.140, 132.131 50.159, 133.217 50.188, 134.318 50.209, 135.434 50.230, 136.565 50.250, 137.711 50.262, 138.863 50.282, 140.019 50.312, 141.169 50.333, 142.308 50.362, 143.437 50.393, 144.556 50.417, 145.665 50.437, 146.771 50.442, 147.888 50.453, 149.019 50.493, 150.157 50.594, 151.306 50.762, 152.441 50.979, 153.545 51.211, 154.614 51.400, 155.664 51.594, 156.714 51.797, 157.767 52.001, 158.826 52.210, 159.891 52.413, 160.941 52.419, 160.974 " />
            <path fill="none" stroke-width="1.0" stroke-linecap="butt" stroke-opacity="1.0" stroke="rgb(255, 255, 255)" stroke-linejoin="round" d=" M 55.746, 92.359 55.550, 92.449 54.929, 92.695 54.267, 92.955 53.563, 93.236 52.820, 93.519 51.976, 93.747 50.946, 93.940 49.760, 94.259 48.638, 94.861 47.711, 95.813 47.466, 96.116 46.778, 97.353 46.417, 98.839 46.224, 100.516 46.147, 101.897 46.081, 103.175 46.016, 104.373 45.983, 105.522 45.927, 106.642 45.951, 107.736 45.954, 108.807 45.899, 109.878 45.877, 110.967 45.857, 112.061 45.838, 113.172 45.855, 114.294 45.946, 115.438 46.131, 116.572 46.362, 117.656 46.602, 118.706 46.835, 119.736 47.059, 120.761 47.290, 121.800 47.536, 122.861 47.797, 123.934 48.037, 125.019 48.143, 125.531 48.262, 126.108 " />
            <path fill="none" stroke-width="1.0" stroke-linecap="butt" stroke-opacity="1.0" stroke="rgb(255, 255, 255)" stroke-linejoin="round" d=" M 70.763, 93.675 70.255, 93.574 69.522, 93.406 69.415, 93.382 " />
            <path fill="none" stroke-width="1.0" stroke-linecap="butt" stroke-opacity="1.0" stroke="rgb(255, 255, 255)" stroke-linejoin="round" d=" M 49.249, 123.075 49.015, 122.037 48.795, 121.004 48.581, 119.979 48.359, 118.948 48.146, 117.849 47.995, 116.705 47.919, 115.545 47.912, 114.391 47.926, 113.262 " />
            <path fill="none" stroke-width="1.0" stroke-linecap="butt" stroke-opacity="1.0" stroke="rgb(255, 255, 255)" stroke-linejoin="round" d=" M 48.143, 125.531 48.204, 126.008 48.446, 127.044 48.700, 128.065 48.937, 128.925 49.266, 129.818 49.773, 130.446 50.115, 130.647 " />
            <path fill="none" stroke-width="1.0" stroke-linecap="butt" stroke-opacity="1.0" stroke="rgb(255, 255, 255)" stroke-linejoin="round" d=" M 56.042, 137.629 56.281, 137.737 " />
            <path fill="none" stroke-width="1.0" stroke-linecap="butt" stroke-opacity="1.0" stroke="rgb(255, 255, 255)" stroke-linejoin="round" d=" M 52.413, 160.941 52.605, 162.009 52.832, 163.130 53.114, 164.231 53.428, 165.303 53.836, 166.289 54.411, 167.096 55.100, 167.586 55.357, 167.676 " />
            <path fill="none" stroke-width="1.0" stroke-linecap="butt" stroke-opacity="1.0" stroke="rgb(255, 255, 255)" stroke-linejoin="round" d=" M 55.053, 167.536 55.357, 167.676 55.572, 167.775 56.059, 167.865 56.528, 167.884 57.001, 167.845 57.100, 167.829 57.500, 167.753 " />
            <path fill="none" stroke-width="1.0" stroke-linecap="butt" stroke-opacity="1.0" stroke="rgb(255, 255, 255)" stroke-linejoin="round" d=" M 55.681, 137.246 56.189, 137.661 56.281, 137.737 56.295, 137.748 " />
            <path fill="none" stroke-width="1.0" stroke-linecap="butt" stroke-opacity="1.0" stroke="rgb(255, 255, 255)" stroke-linejoin="round" d=" M 67.766, 92.814 67.714, 92.782 67.597, 92.710 " />
            <path fill="none" stroke-width="1.0" stroke-linecap="butt" stroke-opacity="1.0" stroke="rgb(255, 255, 255)" stroke-linejoin="round" d=" M 67.081, 90.389 68.109, 88.978 " />
            <path fill="none" stroke-width="1.0" stroke-linecap="butt" stroke-opacity="1.0" stroke="rgb(255, 255, 255)" stroke-linejoin="round" d=" M 69.522, 93.406 69.195, 93.313 68.610, 93.146 " />
        </g>
    </g>
</svg>
