<?xml version='1.0' encoding='ascii'?>
<svg xmlns="http://www.w3.org/2000/svg" xmlns:inkscape="http://www.inkscape.org/namespaces/inkscape" version="1.1" width="120" height="200">
    <g id="ViewLayer_LineSet" inkscape:groupmode="lineset" inkscape:label="ViewLayer_LineSet">
        <g xmlns:inkscape="http://www.inkscape.org/namespaces/inkscape" inkscape:groupmode="layer" inkscape:label="fills" id="fills">
            <path fill_rule="evenodd" stroke="none" fill-opacity="1.0" fill="rgb(0, 0, 0)" d=" M 54.058, 89.625 54.251, 91.196 54.229, 91.756 54.129, 93.057 54.067, 93.890 54.028, 94.477 53.951, 95.388 53.823, 96.825 53.664, 98.065 53.488, 99.330 53.326, 100.594 53.237, 101.626 53.196, 101.904 53.135, 102.598 53.078, 103.115 53.042, 104.451 53.075, 105.764 53.174, 107.058 53.405, 108.614 53.614, 110.013 53.799, 110.944 53.921, 111.894 54.077, 113.030 54.191, 113.964 54.194, 113.985 54.260, 114.637 54.269, 114.751 54.342, 115.692 54.387, 116.757 54.420, 117.698 54.445, 118.760 54.473, 119.824 54.523, 120.894 54.583, 121.959 54.679, 123.024 54.765, 124.077 54.835, 124.956 54.937, 125.981 55.067, 127.000 55.170, 128.012 55.254, 128.748 55.290, 129.219 55.399, 130.066 55.475, 131.106 55.565, 132.180 55.677, 133.295 55.794, 134.447 55.924, 135.812 55.986, 137.021 56.085, 138.224 56.193, 139.406 56.276, 140.562 56.292, 140.780 56.383, 141.896 56.492, 142.992 56.600, 144.072 56.726, 145.132 56.856, 146.173 56.982, 147.149 57.077, 148.004 57.158, 148.957 57.197, 149.853 57.159, 150.640 57.040, 151.557 56.864, 152.502 56.706, 153.548 56.567, 154.624 56.449, 155.713 56.307, 156.823 56.171, 157.946 56.028, 159.162 55.963, 160.353 55.958, 161.553 56.028, 162.792 56.214, 164.018 56.536, 165.099 56.965, 165.929 57.074, 166.088 57.581, 166.641 58.032, 166.945 58.307, 167.060 58.343, 167.070 58.443, 167.110 58.742, 167.177 59.187, 167.191 59.634, 167.143 59.893, 167.102 60.361, 166.985 60.537, 166.889 60.612, 166.837 60.856, 166.693 60.981, 166.584 61.333, 166.128 61.410, 166.005 61.716, 165.092 61.921, 164.050 62.063, 163.038 62.226, 162.065 62.395, 161.140 62.600, 160.222 62.870, 159.319 63.176, 158.363 63.472, 157.333 63.762, 156.285 64.046, 155.235 64.325, 154.186 64.659, 153.070 64.927, 151.948 65.113, 150.803 65.205, 149.642 65.219, 148.485 65.194, 147.350 65.186, 146.578 65.240, 146.741 65.581, 147.781 65.925, 148.822 66.283, 149.835 66.786, 150.836 67.054, 151.360 67.262, 151.939 67.299, 152.604 67.238, 153.416 67.123, 154.324 66.980, 155.283 66.807, 156.275 66.636, 157.300 66.606, 157.534 66.586, 157.691 66.501, 158.364 66.474, 158.608 66.372, 159.695 66.300, 160.780 66.256, 161.862 66.231, 163.224 66.248, 164.311 66.350, 165.370 66.387, 165.644 66.571, 166.589 66.680, 166.869 66.893, 167.341 67.012, 167.602 67.254, 167.850 67.466, 168.017 67.760, 168.205 68.099, 168.346 68.451, 168.443 68.792, 168.488 69.020, 168.508 69.383, 168.523 69.762, 168.487 70.121, 168.399 70.448, 168.250 70.734, 168.052 71.002, 167.789 71.171, 167.575 71.348, 167.293 71.692, 166.565 72.003, 165.614 72.032, 165.523 72.347, 164.497 72.587, 163.448 72.756, 162.552 72.959, 161.530 73.204, 160.509 73.472, 159.474 73.752, 158.411 74.035, 157.333 74.122, 157.014 74.409, 156.021 74.700, 154.865 74.956, 153.664 75.108, 152.440 75.113, 151.173 74.988, 149.943 74.783, 148.763 74.532, 147.617 74.253, 146.492 73.962, 145.287 73.697, 144.193 73.446, 143.109 73.188, 142.032 72.920, 140.957 72.781, 140.397 72.670, 139.910 72.396, 138.761 72.096, 137.565 71.834, 136.335 71.560, 135.150 71.464, 134.692 71.350, 134.122 71.149, 133.015 71.109, 132.788 70.954, 131.829 70.782, 130.713 70.624, 129.594 70.425, 128.509 70.254, 127.432 70.204, 127.173 70.051, 126.281 69.858, 125.228 69.645, 124.178 69.423, 123.128 69.184, 122.020 68.976, 120.963 68.757, 119.909 68.524, 118.858 68.278, 117.815 68.028, 116.774 67.774, 115.755 67.469, 114.792 67.191, 113.819 66.945, 112.855 66.722, 111.891 66.550, 110.915 66.420, 109.907 66.290, 108.791 66.120, 107.592 66.104, 107.483 65.994, 106.562 65.853, 105.444 65.842, 105.355 65.754, 104.769 65.778, 104.607 65.923, 103.543 66.067, 102.502 66.211, 101.477 66.366, 100.487 66.509, 99.588 66.610, 98.594 66.672, 97.769 66.671, 97.179 66.629, 96.199 66.502, 95.591 66.305, 94.817 65.893, 94.276 65.430, 93.763 65.088, 93.558 65.016, 93.133 64.763, 91.661 64.481, 90.297 64.388, 89.189 64.497, 88.669 64.589, 88.325 65.320, 87.813 66.299, 87.495 67.403, 87.078 68.462, 86.520 69.418, 85.817 69.536, 85.708 70.374, 84.842 71.101, 83.936 71.227, 83.751 71.727, 82.997 71.848, 82.811 72.408, 81.868 72.924, 80.913 73.392, 79.945 73.840, 78.972 74.238, 77.982 74.610, 76.988 74.942, 75.993 75.013, 75.764 75.297, 74.774 75.529, 73.767 75.699, 72.743 75.726, 72.538 75.820, 71.703 75.910, 70.633 75.952, 69.530 75.955, 69.397 75.946, 68.280 75.920, 67.502 75.914, 67.279 75.909, 67.163 75.859, 66.055 75.804, 64.956 75.716, 63.871 75.609, 62.784 75.484, 61.690 75.327, 60.603 75.315, 60.527 75.113, 59.406 74.838, 58.308 74.497, 57.253 74.462, 57.146 74.027, 56.121 73.460, 55.181 72.726, 54.378 71.863, 53.716 71.803, 53.684 70.845, 53.181 69.824, 52.809 68.771, 52.523 67.715, 52.265 66.664, 52.006 65.610, 51.778 64.560, 51.547 63.505, 51.337 62.446, 51.141 61.378, 50.966 60.307, 50.872 59.239, 50.921 58.198, 51.124 57.839, 51.260 57.230, 51.477 56.317, 51.985 55.491, 52.646 54.727, 53.457 54.064, 54.250 54.041, 54.280 53.412, 55.130 52.776, 56.049 52.156, 57.002 51.550, 58.009 50.965, 59.039 50.399, 60.068 49.882, 61.084 49.394, 62.090 48.957, 63.089 48.537, 64.097 48.172, 65.026 47.817, 66.041 47.444, 67.231 47.332, 67.677 47.140, 68.397 46.891, 69.647 46.706, 71.011 46.606, 72.307 46.556, 73.613 46.565, 74.916 46.629, 76.219 46.776, 77.512 46.990, 78.698 47.006, 78.790 47.311, 80.091 47.706, 81.387 48.245, 82.680 48.869, 83.832 49.773, 84.968 50.858, 85.977 52.004, 86.913 52.647, 87.465 53.216, 88.026 54.058, 89.625  z" />
        </g>
        <g inkscape:groupmode="layer" id="strokes" inkscape:label="strokes">
            <path fill="none" stroke-width="1.0" stroke-linecap="butt" stroke-opacity="1.0" stroke="rgb(255, 255, 255)" stroke-linejoin="round" d=" M 56.315, 128.245 56.333, 128.932 56.349, 129.562 56.480, 130.669 56.637, 131.648 56.720, 131.953 56.862, 132.449 56.975, 132.732 57.155, 133.081 57.348, 133.386 57.589, 133.634 57.919, 133.874 58.266, 134.044 58.618, 134.094 58.984, 134.114 59.387, 134.044 59.653, 133.985 60.043, 133.823 60.236, 133.712 60.454, 133.565 60.904, 133.100 61.257, 132.253 61.380, 131.192 61.450, 130.098 61.452, 129.825 " />
            <path fill="none" stroke-width="1.0" stroke-linecap="butt" stroke-opacity="1.0" stroke="rgb(255, 255, 255)" stroke-linejoin="round" d=" M 58.828, 104.560 59.039, 105.028 59.118, 105.203 59.184, 105.347 59.194, 105.369 59.303, 105.611 " />
            <path fill="none" stroke-width="1.0" stroke-linecap="butt" stroke-opacity="1.0" stroke="rgb(255, 255, 255)" stroke-linejoin="round" d=" M 53.216, 88.026 54.058, 89.625 54.251, 91.196 " />
            <path fill="none" stroke-width="1.0" stroke-linecap="butt" stroke-opacity="1.0" stroke="rgb(255, 255, 255)" stroke-linejoin="round" d=" M 60.067, 136.089 60.692, 136.636 60.991, 136.984 60.998, 136.993 61.529, 137.612 61.961, 138.328 62.512, 139.393 62.939, 140.372 63.358, 141.374 " />
            <path fill="none" stroke-width="1.0" stroke-linecap="butt" stroke-opacity="1.0" stroke="rgb(255, 255, 255)" stroke-linejoin="round" d=" M 66.474, 158.608 66.372, 159.695 66.300, 160.780 66.256, 161.862 66.231, 163.224 66.248, 164.311 66.350, 165.370 66.387, 165.644 66.571, 166.589 66.680, 166.869 66.893, 167.341 67.012, 167.602 67.254, 167.850 67.466, 168.017 67.760, 168.205 68.099, 168.346 68.451, 168.443 68.792, 168.488 69.020, 168.508 69.383, 168.523 69.762, 168.487 70.121, 168.399 70.448, 168.250 70.734, 168.052 71.002, 167.789 71.171, 167.575 71.348, 167.293 71.692, 166.565 72.003, 165.614 72.032, 165.523 72.347, 164.497 72.587, 163.448 72.756, 162.552 72.959, 161.530 73.204, 160.509 73.472, 159.474 73.752, 158.411 74.035, 157.333 74.122, 157.014 74.339, 156.218 " />
            <path fill="none" stroke-width="1.0" stroke-linecap="butt" stroke-opacity="1.0" stroke="rgb(255, 255, 255)" stroke-linejoin="round" d=" M 60.361, 166.985 60.612, 166.837 60.856, 166.693 60.981, 166.584 61.333, 166.128 61.410, 166.005 61.716, 165.092 61.921, 164.050 62.063, 163.038 62.226, 162.065 62.395, 161.140 62.600, 160.222 62.870, 159.319 63.176, 158.363 63.472, 157.333 63.762, 156.285 64.046, 155.235 64.325, 154.186 64.659, 153.070 64.927, 151.948 65.113, 150.803 65.205, 149.642 65.219, 148.485 65.194, 147.350 65.186, 146.578 " />
            <path fill="none" stroke-width="1.0" stroke-linecap="butt" stroke-opacity="1.0" stroke="rgb(255, 255, 255)" stroke-linejoin="round" d=" M 55.399, 130.066 55.475, 131.106 55.565, 132.180 55.677, 133.295 55.794, 134.447 55.924, 135.812 55.986, 137.021 56.085, 138.224 56.193, 139.406 56.276, 140.562 56.292, 140.780 56.383, 141.896 56.492, 142.992 56.600, 144.072 56.726, 145.132 56.856, 146.173 56.982, 147.149 56.987, 147.188 " />
            <path fill="none" stroke-width="1.0" stroke-linecap="butt" stroke-opacity="1.0" stroke="rgb(255, 255, 255)" stroke-linejoin="round" d=" M 70.204, 127.173 70.051, 126.281 69.858, 125.228 69.645, 124.178 69.423, 123.128 69.184, 122.020 68.976, 120.963 68.757, 119.909 68.524, 118.858 68.278, 117.815 68.028, 116.774 67.774, 115.755 67.469, 114.792 67.191, 113.819 66.945, 112.855 66.722, 111.891 66.550, 110.915 66.420, 109.907 66.290, 108.791 66.120, 107.592 66.104, 107.483 " />
            <path fill="none" stroke-width="1.0" stroke-linecap="butt" stroke-opacity="1.0" stroke="rgb(255, 255, 255)" stroke-linejoin="round" d=" M 59.225, 104.748 59.275, 105.035 59.286, 105.101 59.302, 105.367 59.303, 105.385 59.309, 105.494 59.303, 105.611 59.303, 105.611 59.284, 106.018 59.257, 106.392 " />
            <path fill="none" stroke-width="1.0" stroke-linecap="butt" stroke-opacity="1.0" stroke="rgb(255, 255, 255)" stroke-linejoin="round" d=" M 65.088, 93.558 65.016, 93.133 64.763, 91.661 64.481, 90.297 64.388, 89.189 64.381, 89.107 64.497, 88.669 64.589, 88.325 64.611, 88.245 " />
            <path fill="none" stroke-width="1.0" stroke-linecap="butt" stroke-opacity="1.0" stroke="rgb(255, 255, 255)" stroke-linejoin="round" d=" M 54.278, 90.481 54.251, 91.196 54.229, 91.756 54.129, 93.057 54.067, 93.890 54.028, 94.477 53.951, 95.388 53.823, 96.825 53.818, 96.879 " />
            <path fill="none" stroke-width="1.0" stroke-linecap="butt" stroke-opacity="1.0" stroke="rgb(255, 255, 255)" stroke-linejoin="round" d=" M 69.536, 85.708 70.374, 84.842 71.101, 83.936 71.227, 83.751 71.727, 82.997 71.848, 82.811 72.408, 81.868 72.924, 80.913 73.392, 79.945 73.840, 78.972 74.238, 77.982 74.610, 76.988 74.942, 75.993 75.013, 75.764 75.297, 74.774 75.529, 73.767 " />
            <path fill="none" stroke-width="1.0" stroke-linecap="butt" stroke-opacity="1.0" stroke="rgb(255, 255, 255)" stroke-linejoin="round" d=" M 75.909, 67.163 75.920, 67.502 75.946, 68.280 75.955, 69.397 75.952, 69.530 75.910, 70.633 75.820, 71.703 75.726, 72.538 75.699, 72.743 75.529, 73.767 75.567, 73.536 75.726, 72.538 " />
            <path fill="none" stroke-width="1.0" stroke-linecap="butt" stroke-opacity="1.0" stroke="rgb(255, 255, 255)" stroke-linejoin="round" d=" M 75.920, 67.502 75.914, 67.279 75.909, 67.163 75.859, 66.055 75.804, 64.956 75.716, 63.871 75.609, 62.784 75.484, 61.690 75.327, 60.603 75.315, 60.527 75.113, 59.406 74.838, 58.308 74.497, 57.253 74.462, 57.146 74.027, 56.121 73.460, 55.181 72.726, 54.378 71.863, 53.716 71.803, 53.684 70.845, 53.181 69.824, 52.809 68.771, 52.523 67.715, 52.265 66.664, 52.006 65.610, 51.778 64.560, 51.547 63.505, 51.337 62.446, 51.141 61.378, 50.966 60.307, 50.872 59.239, 50.921 58.198, 51.124 57.839, 51.260 57.207, 51.497 " />
            <path fill="none" stroke-width="1.0" stroke-linecap="butt" stroke-opacity="1.0" stroke="rgb(255, 255, 255)" stroke-linejoin="round" d=" M 52.265, 87.090 52.647, 87.465 53.216, 88.026 53.402, 88.209 " />
            <path fill="none" stroke-width="1.0" stroke-linecap="butt" stroke-opacity="1.0" stroke="rgb(255, 255, 255)" stroke-linejoin="round" d=" M 46.990, 78.698 47.006, 78.790 47.311, 80.091 47.706, 81.387 48.245, 82.680 48.869, 83.832 49.773, 84.968 50.858, 85.977 52.004, 86.913 52.647, 87.465 " />
            <path fill="none" stroke-width="1.0" stroke-linecap="butt" stroke-opacity="1.0" stroke="rgb(255, 255, 255)" stroke-linejoin="round" d=" M 57.839, 51.260 57.230, 51.477 56.317, 51.985 55.491, 52.646 54.727, 53.457 54.064, 54.250 54.041, 54.280 53.412, 55.130 52.776, 56.049 52.156, 57.002 51.550, 58.009 50.965, 59.039 50.399, 60.068 49.882, 61.084 49.394, 62.090 48.957, 63.089 48.537, 64.097 48.172, 65.026 47.817, 66.041 47.444, 67.231 47.332, 67.677 " />
            <path fill="none" stroke-width="1.0" stroke-linecap="butt" stroke-opacity="1.0" stroke="rgb(255, 255, 255)" stroke-linejoin="round" d=" M 47.480, 67.122 47.332, 67.677 47.140, 68.397 46.891, 69.647 46.706, 71.011 46.606, 72.307 46.556, 73.613 46.565, 74.916 46.629, 76.219 46.776, 77.512 46.990, 78.698 47.008, 78.800 " />
            <path fill="none" stroke-width="1.0" stroke-linecap="butt" stroke-opacity="1.0" stroke="rgb(255, 255, 255)" stroke-linejoin="round" d=" M 68.462, 86.520 69.418, 85.817 69.536, 85.708 68.554, 86.451 68.462, 86.520 67.403, 87.078 66.299, 87.495 65.320, 87.813 " />
            <path fill="none" stroke-width="1.0" stroke-linecap="butt" stroke-opacity="1.0" stroke="rgb(255, 255, 255)" stroke-linejoin="round" d=" M 66.129, 107.686 66.104, 107.483 65.994, 106.562 65.853, 105.444 65.842, 105.355 65.754, 104.769 " />
            <path fill="none" stroke-width="1.0" stroke-linecap="butt" stroke-opacity="1.0" stroke="rgb(255, 255, 255)" stroke-linejoin="round" d=" M 64.173, 93.115 64.080, 92.985 63.943, 92.757 63.799, 92.506 " />
            <path fill="none" stroke-width="1.0" stroke-linecap="butt" stroke-opacity="1.0" stroke="rgb(255, 255, 255)" stroke-linejoin="round" d=" M 53.823, 96.825 53.664, 98.065 53.488, 99.330 53.326, 100.594 53.237, 101.626 " />
            <path fill="none" stroke-width="1.0" stroke-linecap="butt" stroke-opacity="1.0" stroke="rgb(255, 255, 255)" stroke-linejoin="round" d=" M 56.982, 147.149 57.077, 148.004 57.158, 148.957 57.197, 149.853 57.197, 149.862 " />
            <path fill="none" stroke-width="1.0" stroke-linecap="butt" stroke-opacity="1.0" stroke="rgb(255, 255, 255)" stroke-linejoin="round" d=" M 53.381, 100.625 53.237, 101.626 53.196, 101.904 53.135, 102.598 53.088, 103.132 " />
            <path fill="none" stroke-width="1.0" stroke-linecap="butt" stroke-opacity="1.0" stroke="rgb(255, 255, 255)" stroke-linejoin="round" d=" M 53.135, 102.598 53.078, 103.115 53.042, 104.451 53.075, 105.764 53.174, 107.058 53.405, 108.614 53.614, 110.013 53.799, 110.944 53.827, 111.084 " />
            <path fill="none" stroke-width="1.0" stroke-linecap="butt" stroke-opacity="1.0" stroke="rgb(255, 255, 255)" stroke-linejoin="round" d=" M 71.109, 132.788 70.954, 131.829 70.782, 130.713 70.624, 129.594 70.425, 128.509 70.254, 127.432 70.204, 127.173 70.049, 126.375 " />
            <path fill="none" stroke-width="1.0" stroke-linecap="butt" stroke-opacity="1.0" stroke="rgb(255, 255, 255)" stroke-linejoin="round" d=" M 57.197, 149.853 57.159, 150.640 57.040, 151.557 56.864, 152.502 56.706, 153.548 56.567, 154.624 56.449, 155.713 56.307, 156.823 56.171, 157.946 56.028, 159.162 55.963, 160.353 55.958, 161.553 56.028, 162.792 56.214, 164.018 56.536, 165.099 56.965, 165.929 " />
            <path fill="none" stroke-width="1.0" stroke-linecap="butt" stroke-opacity="1.0" stroke="rgb(255, 255, 255)" stroke-linejoin="round" d=" M 58.032, 166.945 58.280, 167.045 58.281, 167.045 58.343, 167.070 58.443, 167.110 58.742, 167.177 59.187, 167.191 59.634, 167.143 59.893, 167.102 60.361, 166.985 60.537, 166.889 60.612, 166.837 " />
            <path fill="none" stroke-width="1.0" stroke-linecap="butt" stroke-opacity="1.0" stroke="rgb(255, 255, 255)" stroke-linejoin="round" d=" M 60.946, 136.974 60.998, 136.993 " />
            <path fill="none" stroke-width="1.0" stroke-linecap="butt" stroke-opacity="1.0" stroke="rgb(255, 255, 255)" stroke-linejoin="round" d=" M 54.260, 114.637 54.269, 114.751 54.342, 115.692 54.387, 116.757 54.420, 117.698 54.445, 118.760 54.473, 119.824 54.523, 120.894 54.583, 121.959 54.679, 123.024 54.765, 124.077 54.835, 124.956 54.937, 125.981 55.067, 127.000 55.170, 128.012 55.254, 128.748 " />
            <path fill="none" stroke-width="1.0" stroke-linecap="butt" stroke-opacity="1.0" stroke="rgb(255, 255, 255)" stroke-linejoin="round" d=" M 55.212, 128.197 55.254, 128.748 55.290, 129.219 55.399, 130.066 55.422, 130.246 " />
            <path fill="none" stroke-width="1.0" stroke-linecap="butt" stroke-opacity="1.0" stroke="rgb(255, 255, 255)" stroke-linejoin="round" d=" M 58.343, 167.070 58.307, 167.060 58.032, 166.945 57.581, 166.641 57.401, 166.441 56.965, 165.929 57.074, 166.088 57.581, 166.641 " />
            <path fill="none" stroke-width="1.0" stroke-linecap="butt" stroke-opacity="1.0" stroke="rgb(255, 255, 255)" stroke-linejoin="round" d=" M 63.790, 117.327 63.793, 117.309 64.002, 116.170 64.193, 115.026 64.375, 113.891 64.552, 112.760 64.725, 111.632 64.902, 110.507 65.075, 109.388 65.237, 108.283 65.390, 107.207 65.616, 105.695 65.743, 104.842 65.747, 104.819 65.754, 104.769 65.778, 104.607 65.923, 103.543 66.067, 102.502 66.211, 101.477 66.366, 100.487 66.509, 99.588 66.610, 98.594 66.672, 97.769 66.671, 97.179 66.629, 96.199 66.502, 95.591 66.305, 94.817 " />
            <path fill="none" stroke-width="1.0" stroke-linecap="butt" stroke-opacity="1.0" stroke="rgb(255, 255, 255)" stroke-linejoin="round" d=" M 59.285, 106.172 59.257, 106.392 59.182, 106.967 59.068, 107.865 58.909, 108.864 58.735, 109.922 58.567, 111.016 58.406, 112.135 58.247, 113.260 58.115, 114.377 57.979, 115.494 57.822, 116.619 57.769, 116.978 " />
            <path fill="none" stroke-width="1.0" stroke-linecap="butt" stroke-opacity="1.0" stroke="rgb(255, 255, 255)" stroke-linejoin="round" d=" M 65.430, 93.763 65.088, 93.558 64.846, 93.412 64.291, 93.178 64.173, 93.115 64.118, 93.086 64.113, 93.083 64.111, 93.082 63.874, 92.955 " />
            <path fill="none" stroke-width="1.0" stroke-linecap="butt" stroke-opacity="1.0" stroke="rgb(255, 255, 255)" stroke-linejoin="round" d=" M 65.879, 94.298 65.430, 93.763 65.893, 94.276 66.305, 94.817 65.879, 94.298 " />
            <path fill="none" stroke-width="1.0" stroke-linecap="butt" stroke-opacity="1.0" stroke="rgb(255, 255, 255)" stroke-linejoin="round" d=" M 62.921, 121.653 63.065, 120.975 63.305, 119.812 63.537, 118.657 63.758, 117.508 63.793, 117.309 " />
            <path fill="none" stroke-width="1.0" stroke-linecap="butt" stroke-opacity="1.0" stroke="rgb(255, 255, 255)" stroke-linejoin="round" d=" M 57.847, 116.479 57.769, 116.978 57.668, 117.628 57.481, 118.788 57.306, 119.956 57.129, 121.127 56.956, 122.304 56.785, 123.479 56.613, 124.653 56.574, 124.935 56.440, 125.913 56.429, 126.115 " />
            <path fill="none" stroke-width="1.0" stroke-linecap="butt" stroke-opacity="1.0" stroke="rgb(255, 255, 255)" stroke-linejoin="round" d=" M 61.613, 127.680 61.801, 126.799 61.842, 126.603 62.097, 125.468 62.378, 124.329 62.617, 123.159 62.855, 121.987 62.921, 121.653 63.088, 120.816 " />
            <path fill="none" stroke-width="1.0" stroke-linecap="butt" stroke-opacity="1.0" stroke="rgb(255, 255, 255)" stroke-linejoin="round" d=" M 61.447, 129.919 61.452, 129.825 61.495, 128.864 61.609, 127.816 61.801, 126.799 " />
            <path fill="none" stroke-width="1.0" stroke-linecap="butt" stroke-opacity="1.0" stroke="rgb(255, 255, 255)" stroke-linejoin="round" d=" M 56.456, 125.822 56.429, 126.115 56.328, 127.175 56.293, 128.412 56.333, 128.932 " />
            <path fill="none" stroke-width="1.0" stroke-linecap="butt" stroke-opacity="1.0" stroke="rgb(255, 255, 255)" stroke-linejoin="round" d=" M 72.926, 141.028 72.781, 140.397 72.670, 139.910 72.396, 138.761 72.096, 137.565 71.834, 136.335 71.560, 135.150 71.464, 134.692 " />
            <path fill="none" stroke-width="1.0" stroke-linecap="butt" stroke-opacity="1.0" stroke="rgb(255, 255, 255)" stroke-linejoin="round" d=" M 71.575, 135.248 71.464, 134.692 71.350, 134.122 71.149, 133.015 71.109, 132.788 70.953, 131.912 " />
            <path fill="none" stroke-width="1.0" stroke-linecap="butt" stroke-opacity="1.0" stroke="rgb(255, 255, 255)" stroke-linejoin="round" d=" M 53.799, 110.944 53.921, 111.894 54.077, 113.030 54.191, 113.964 54.194, 113.985 54.230, 114.266 54.237, 114.328 54.331, 115.061 " />
            <path fill="none" stroke-width="1.0" stroke-linecap="butt" stroke-opacity="1.0" stroke="rgb(255, 255, 255)" stroke-linejoin="round" d=" M 74.122, 157.014 74.409, 156.021 74.700, 154.865 74.956, 153.664 75.108, 152.440 75.113, 151.173 74.988, 149.943 74.783, 148.763 74.532, 147.617 74.253, 146.492 73.962, 145.287 73.697, 144.193 73.446, 143.109 73.188, 142.032 72.920, 140.957 72.781, 140.397 " />
            <path fill="none" stroke-width="1.0" stroke-linecap="butt" stroke-opacity="1.0" stroke="rgb(255, 255, 255)" stroke-linejoin="round" d=" M 62.970, 140.335 63.358, 141.374 63.380, 141.431 63.782, 142.491 64.156, 143.522 64.556, 144.658 64.900, 145.701 65.186, 146.578 65.240, 146.741 65.581, 147.781 65.925, 148.822 66.283, 149.835 66.786, 150.836 67.054, 151.360 67.262, 151.939 67.315, 152.086 " />
            <path fill="none" stroke-width="1.0" stroke-linecap="butt" stroke-opacity="1.0" stroke="rgb(255, 255, 255)" stroke-linejoin="round" d=" M 67.262, 151.939 67.299, 152.604 67.238, 153.416 67.123, 154.324 66.980, 155.283 66.807, 156.275 66.636, 157.300 66.606, 157.534 66.586, 157.691 66.474, 158.608 66.501, 158.364 66.586, 157.691 " />
            <path fill="none" stroke-width="1.0" stroke-linecap="butt" stroke-opacity="1.0" stroke="rgb(255, 255, 255)" stroke-linejoin="round" d=" M 54.194, 113.985 54.260, 114.637 54.287, 114.899 " />
            <path fill="none" stroke-width="1.0" stroke-linecap="butt" stroke-opacity="1.0" stroke="rgb(255, 255, 255)" stroke-linejoin="round" d=" M 64.388, 89.189 64.497, 88.669 " />
            <path fill="none" stroke-width="1.0" stroke-linecap="butt" stroke-opacity="1.0" stroke="rgb(255, 255, 255)" stroke-linejoin="round" d=" M 64.589, 88.325 65.320, 87.813 65.332, 87.805 " />
        </g>
    </g>
</svg>
