<?xml version="1.0" encoding="UTF-8"?>
<!DOCTYPE svg PUBLIC "-//W3C//DTD SVG 1.1//EN" "http://www.w3.org/Graphics/SVG/1.1/DTD/svg11.dtd">
<!-- Creator: CorelDRAW 2020 (64-Bit) -->
<svg xmlns="http://www.w3.org/2000/svg" xml:space="preserve" width="84.5494mm" height="81.4264mm" version="1.1" style="shape-rendering:geometricPrecision; text-rendering:geometricPrecision; image-rendering:optimizeQuality; fill-rule:evenodd; clip-rule:evenodd"
viewBox="0 0 8.1438 7.843"
 xmlns:xlink="http://www.w3.org/1999/xlink"
 xmlns:xodm="http://www.corel.com/coreldraw/odm/2003">
 <defs>
  <style type="text/css">
   <![CDATA[
    .fil0 {fill:#2B2A29}
    .fil5 {fill:#0348FE;fill-rule:nonzero}
    .fil1 {fill:#588C41;fill-rule:nonzero}
    .fil3 {fill:#84C9DD;fill-rule:nonzero}
    .fil4 {fill:#9E5A34;fill-rule:nonzero}
    .fil2 {fill:#FFFEFF;fill-rule:nonzero}
   ]]>
  </style>
 </defs>
 <g id="Слой_x0020_1">
  <metadata id="CorelCorpID_0Corel-Layer"/>
  <path class="fil0" d="M3.0683 0.0574c0.14,-0.0346 0.2844,-0.0462 0.428,-0.0544 0.2052,-0.0124 0.4139,0.0132 0.6062,0.0879 0.2416,0.0931 0.4742,0.221 0.658,0.4064 0.3401,-0.2504 0.7622,-0.3926 1.1856,-0.3862 0.273,0.0041 0.5515,0.0895 0.758,0.2728 0.2346,0.2037 0.3509,0.5093 0.393,0.8106 0.2176,0.0565 0.4406,0.1264 0.6185,0.2692 0.0833,0.0652 0.1358,0.1686 0.123,0.2757 0.1567,0.1083 0.2571,0.2896 0.2661,0.48 0.0103,0.0658 -0.0158,0.1357 0.0157,0.1977 0.0332,0.0709 0.0232,0.15 0.0165,0.2253 -0.0158,0.0817 -0.122,0.0876 -0.1518,0.1598 -0.1622,0.3086 -0.4298,0.5611 -0.7519,0.6964 0.3238,0.2431 0.5716,0.6182 0.5896,1.0305 0.0766,0.0441 0.155,0.1096 0.1647,0.2035 0.0092,0.1005 -0.057,0.1861 -0.1245,0.2529 -0.1039,0.0974 -0.2271,0.1712 -0.353,0.2362 0.0093,0.058 0.0178,0.1194 -0.0029,0.1761 -0.0376,0.0957 -0.1323,0.1738 -0.2385,0.1692 -0.0802,0.0023 -0.1555,-0.0413 -0.2343,-0.0385 -0.1748,0.0714 -0.3287,0.1874 -0.4648,0.3169 -0.1403,0.138 -0.2759,0.2808 -0.4224,0.4122 -0.0501,0.0438 -0.1096,0.074 -0.1665,0.1076 0.1688,0.0492 0.3499,0.099 0.4755,0.23 0.0939,0.0961 0.1243,0.232 0.1447,0.3602 0.0118,0.0846 0.0451,0.1733 0.0123,0.2573 -0.0289,0.0836 -0.1011,0.1411 -0.173,0.1877 -0.2411,0.1482 -0.5126,0.2398 -0.7884,0.2978 -0.4507,0.0961 -0.912,0.129 -1.3717,0.1421 -0.7867,0.0155 -1.5759,-0.0359 -2.352,-0.1674 -0.4326,-0.0766 -0.8652,-0.1735 -1.2714,-0.3435 -0.191,-0.0792 -0.3703,-0.1872 -0.5275,-0.3217 -0.0636,-0.055 -0.1176,-0.1279 -0.1273,-0.2137 -0.0119,-0.1282 0.035,-0.2511 0.0734,-0.3711 0.0467,-0.1392 0.1103,-0.2813 0.2274,-0.3756 0.0871,-0.0727 0.2011,-0.1036 0.3123,-0.1114 -0.0214,-0.0596 -0.0196,-0.123 0.0003,-0.1826 -0.1534,-0.1256 -0.2962,-0.2715 -0.384,-0.4515 -0.1715,-0.3398 -0.2204,-0.7307 -0.1869,-1.1067 0.0462,-0.5249 0.2295,-1.0287 0.4729,-1.4926 0.0947,-0.1735 0.1893,-0.3488 0.313,-0.5038 0.1849,-0.2233 0.4332,-0.4291 0.7338,-0.4522 0.1516,-0.5353 0.4551,-1.0359 0.8978,-1.3792 0.1799,-0.1403 0.3849,-0.2517 0.6064,-0.3097z"/>
  <path class="fil1" d="M5.0188 1.1945c-0.0909,0.0225 -0.5266,-0.4032 -1.2938,-0.3747 -0.3852,0.0149 -0.7691,0.1562 -1.0577,0.4143 0.0152,0.0154 0.0304,0.0309 0.0456,0.0462 0.5497,-0.4786 1.2886,-0.4963 1.9226,-0.2018 0.257,0.1193 0.4742,0.3047 0.6913,0.4831 -0.3752,-0.1042 -0.7935,-0.1188 -1.1837,-0.0447 -0.6491,0.1233 -0.7079,0.3811 -1.1527,0.7942 -0.0807,0.075 -0.2067,0.1917 -0.3225,0.2647 0.0363,-0.0081 0.0621,0.0045 0.0997,0.0133 -0.0569,0.0302 -0.3384,0.0543 -0.1658,0.18 -0.1039,0.2094 -0.042,0.3177 -0.1019,0.4943 -0.0561,0.1655 -0.2274,0.5017 0.0408,0.5641 0.0235,-0.1119 -0.0055,-0.2245 -0.0018,-0.337 0.0005,-0.1014 0.091,-0.1753 0.0962,-0.2757 0.0065,-0.1369 -0.0231,-0.2372 0.0387,-0.3658 0.3506,0.0655 0.7018,0.134 1.0412,0.2446 0.5267,0.1663 1.1098,0.2198 1.6436,0.0408 -0.3577,0.2472 -0.8331,0.5281 -1.2711,0.6062 0.0042,0.0217 0.0086,0.0433 0.0129,0.0652 0.5243,-0.1059 1.1698,-0.4755 1.5614,-0.8289 0.0355,-0.0322 0.0482,-0.0804 0.0734,-0.1197 0.0322,0.0002 0.064,0.0062 0.0957,0.0118 0.6854,0.1204 1.4014,0.1312 2.0748,-0.0631 -0.4378,0.786 -1.2788,0.8676 -2.0502,0.6057 -0.0274,0.1243 0.4617,0.2858 0.578,0.3427 0.0334,-0.0987 -0.0219,-0.0804 -0.1201,-0.1469 0.8176,0.077 0.727,-0.1863 0.9607,0.0105 0.2655,0.2282 0.4657,0.5551 0.4831,0.9109 -0.2638,0.0907 -0.334,0.4634 -0.4867,0.4679 -0.184,0.0092 -0.3537,-0.0938 -0.5384,-0.0794l-0.5777 0.1062c-0.1807,0.0766 -0.249,0.184 -0.4437,0.0441 -0.2362,-0.1697 -0.4857,-0.4548 -0.807,-0.3867 -0.1045,0.0194 -0.2042,0.0707 -0.3125,0.0654 -0.2118,-0.0093 -0.3108,-0.2131 -0.6157,0.1059 -0.1793,0.1875 -0.7664,-0.5608 -1.2499,-0.2202 -0.2941,0.2072 -0.4264,0.7254 0.0348,0.7709 0.2236,0.0227 0.4486,-0.0091 0.669,-0.0469 0.2738,-0.0463 0.68,0.2797 1.2062,0.1217 0.5232,-0.1571 0.2873,-0.0695 0.5504,0.0642 0.0934,0.0495 0.2016,0.0346 0.3027,0.0474 0.2992,0.0447 0.429,0.1996 0.866,0.0763 0.2054,-0.058 0.3327,-0.1518 0.5592,-0.1611 -0.4271,0.2965 -0.4901,0.4404 -0.833,0.7202 -0.4024,0.3285 -2.2497,0.3099 -2.7622,0.2772 -0.8634,-0.0551 -2.5267,-0.2964 -3.01,-1.1961 -0.557,-1.037 0.168,-2.9341 0.9623,-3.4016 0.0812,-0.0482 0.1736,-0.0711 0.2651,-0.0912 -0.0261,0.2238 -0.088,0.4401 -0.1034,0.6663 0.0219,-0.001 0.0439,-0.002 0.0662,-0.0028 0.0793,-0.9433 0.5796,-2.0829 1.5847,-2.3545 0.7507,-0.208 1.8725,0.195 1.9351,1.0725zm-4.352 4.6072c1.105,0.7604 2.5586,0.8352 3.8602,0.774 0.4715,-0.0209 0.9429,-0.075 1.4001,-0.1946 -0.0296,0.2407 -1.1735,0.3163 -1.3683,0.3298 -1.1018,0.0766 -2.5852,-0.0235 -3.5857,-0.5799 -0.1419,-0.0789 -0.3028,-0.1526 -0.3063,-0.3293zm2.4151 -2.9424c0.6868,0.0235 1.4201,0.3454 2.0931,0.1075 0.1611,-0.0616 0.3161,-0.1382 0.471,-0.2135 0.133,0.472 -1.3204,0.4408 -1.5839,0.3723 -0.328,-0.0853 -0.6503,-0.1866 -0.9801,-0.2663zm-0.9375 2.4713c0.0848,0.2765 0.3,0.459 0.6007,0.4584 -0.0098,-0.1159 -0.1531,-0.0589 -0.2983,-0.1524 -0.1997,-0.1286 -0.1873,-0.342 -0.3024,-0.306zm2.6652 -4.7823c0.801,-0.6131 2.0413,-0.5187 2.2174,0.6284 -0.6273,-0.1424 -1.3157,-0.1462 -1.9443,-0.0086 -0.0147,-0.2317 -0.1224,-0.4468 -0.2731,-0.6198zm0.9258 0.5984c0.4069,-0.0194 1.8949,-0.0017 2.0436,0.5504 -0.5875,-0.31 -1.5407,-0.1788 -2.1251,0.0898 -0.1334,-0.2233 -0.408,-0.3755 -0.6067,-0.5365 0.2232,-0.0668 0.4568,-0.0877 0.6882,-0.1037zm-1.8319 0.4973c0.5066,-0.1522 1.6154,-0.1261 1.679,0.154 -0.0021,0.0323 -0.0163,0.0622 -0.0263,0.0926 -0.458,-0.2713 -1.1955,-0.3426 -1.6728,-0.0864 -0.2898,0.1556 -0.9198,0.7274 -1.1112,0.7712 0.0087,-0.0083 0.0218,-0.0237 0.0304,-0.0318 0.4106,-0.3214 0.8014,-0.8178 1.1009,-0.8996zm2.4347 0.0047c0.5192,-0.091 1.6738,-0.1795 1.7019,0.6079 -0.6,-0.7906 -1.5577,-0.6241 -2.402,-0.3239 0.0054,0.0203 0.0106,0.0405 0.0162,0.0608 0.5733,-0.1449 1.2033,-0.3791 1.7896,-0.1429 0.2805,0.113 0.542,0.3604 0.6358,0.6525 -0.8298,-0.491 -0.9585,-0.5715 -1.9366,-0.3007 -0.1111,0.0319 -0.2238,0.0577 -0.3336,0.0941 -0.0328,-0.142 -0.0614,-0.1989 -0.2215,-0.2031 -1.3816,-0.036 -2.4259,0.6167 -2.7454,0.626 -0.0345,-0.0111 -0.0622,-0.0314 -0.0921,-0.0516 0.7518,-0.3259 0.9421,-1.0726 2.0794,-0.9287 0.3974,0.0503 0.714,0.2379 0.7611,0.205 0.0301,-0.0359 0.0539,-0.0801 0.0998,-0.0987 0.2037,-0.0992 0.4262,-0.1529 0.6475,-0.1965z"/>
  <path class="fil2" d="M6.6336 2.1534c0.7393,-0.144 1.3926,0.3534 1.4488,0.4713 -0.0279,0.0275 -0.059,0.0515 -0.0915,0.073 -0.3318,-0.5238 -1.4939,-0.8804 -1.4768,0.1846 -0.2651,-0.0155 -0.5291,-0.049 -0.79,-0.0984 -0.0123,-0.0279 -0.0245,-0.0557 -0.0368,-0.0835 0.0596,-0.1031 0.0997,-0.2174 0.1142,-0.3357 0.2761,-0.075 0.5507,-0.1578 0.832,-0.2114zm-1.6832 0.0323c0.7201,-0.0727 0.9505,-0.1029 0.7082,0.4278 -0.0441,0.0996 -0.1555,0.1348 -0.2462,0.1787 -0.2302,-0.9565 -1.7155,-0.3709 -1.6651,0.0781 -0.2267,-0.0351 -0.4546,-0.0621 -0.6832,-0.0825 -0.0065,-0.0178 -0.0139,-0.0351 -0.0196,-0.0529 0.6392,-0.1913 1.0616,-0.4689 1.9059,-0.5492zm-0.6182 0.2954c0.066,-0.0585 0.1595,0.0918 0.066,0.1151 -0.1297,0.0324 -0.1005,-0.0963 -0.066,-0.1151zm3.1084 0.1575c0.186,-0.2166 0.4818,0.1803 0.0862,0.1856 -0.0893,0.0012 -0.1445,-0.0843 -0.0862,-0.1856zm-2.5798 0.1302c0.1043,-0.2708 0.5407,0.156 0.0746,0.1777 -0.0874,-0.0109 -0.1096,-0.1093 -0.0746,-0.1777z"/>
  <path class="fil3" d="M2.6885 2.6533c0.0334,-0.0296 0.0744,0.0643 0.193,0.0798 0.052,0.0012 0.0993,0.0028 0.1515,0.0015 0.0181,0.0563 0.0144,0.0245 0.0252,0.0876 -0.1175,-0.0028 -0.2322,-0.0264 -0.3449,-0.0579 -0.0703,0.1068 -0.0799,0.1743 -0.084,0.2301 -0.0051,0.0694 0.0051,0.1216 0.0005,0.2185 -0.0052,0.1005 -0.0944,0.1747 -0.0949,0.2761 -0.0038,0.1126 0.0261,0.2211 0.0026,0.333 -0.0274,-0.0064 -0.0584,-0.0221 -0.0736,-0.0329 -0.0797,-0.0859 -0.0638,-0.2145 -0.0385,-0.2964 0.0179,-0.0756 0.061,-0.1663 0.0914,-0.2422 0.0236,-0.0696 0.0194,-0.1407 0.0237,-0.2055 0.0057,-0.0877 0.0195,-0.1695 0.0698,-0.2716 0.0227,-0.0423 0.035,-0.0944 0.0783,-0.1201z"/>
  <path class="fil4" d="M2.7844 4.6749c0.4687,-0.3043 0.978,0.4502 1.2103,0.247 0.3704,-0.3241 0.3878,-0.1238 0.5793,-0.1114 0.4139,0.0268 0.2994,-0.2886 0.9239,0.1777 0.2001,0.1494 0.3528,0.3262 0.6213,0.1297 0.0913,-0.0668 0.2093,-0.058 0.3164,-0.0671 0.0964,-0.0052 0.1826,-0.057 0.2785,-0.0657 0.2825,-0.0276 0.6093,0.254 0.7742,-0.0985 0.2599,-0.5556 0.7087,-0.1733 0.181,0.1657 -0.2894,0.1858 -0.1646,0.0928 -0.4806,0.0614 -0.5935,-0.0589 -0.6033,0.1423 -0.8516,0.2548 -0.5709,0.2588 -0.6468,-0.2635 -1.1211,-0.3787 -0.5008,-0.1216 -0.5833,0.6236 -1.4802,0.1277 -0.2288,-0.1265 -0.4215,-0.2631 -0.7108,-0.2057 0.0029,0.0199 0.0057,0.04 0.0088,0.0601 0.5404,-0.0486 0.6302,0.3448 1.2298,0.3765 0.4613,0.0244 0.5845,-0.3269 0.8338,-0.3086 0.4493,0.0331 0.5152,0.4213 0.8981,0.4592 0.586,0.058 0.4979,-0.5313 1.449,-0.2651 0.0428,0.1426 -0.0254,0.3168 -0.3221,0.2393 -0.5844,-0.1526 -0.5712,0.2388 -1.2804,0.1513 -0.1094,-0.0157 -0.2071,-0.073 -0.315,-0.0952 -0.0995,-0.0168 -0.2049,-0.0028 -0.3001,-0.0412 -0.0738,-0.0443 -0.1206,-0.1318 -0.2109,-0.1482 -0.3025,-0.0642 -0.3827,0.2422 -1.1275,0.0457 -0.3718,-0.0981 -0.2454,-0.1231 -0.5876,-0.0758 -0.1637,0.0226 -0.6095,0.0931 -0.7302,-0.059 -0.076,-0.0958 -0.077,-0.3927 0.2137,-0.5762z"/>
  <path class="fil5" d="M2.0197 6.5716c1.0082,0.2254 1.9945,0.2853 3.0969,0.1581 0.4234,-0.0489 0.7712,-0.1371 0.8658,-0.2899 0.4439,0.0919 0.6337,0.405 0.5616,0.7619 -0.1006,0.3571 -1.4306,0.5023 -1.6905,0.5322 -0.7663,0.0879 -1.4527,0.0621 -2.6478,-0.0999 -0.4689,-0.0636 -2.0296,-0.3329 -2.1277,-0.8083 -0.029,-0.1405 0.0158,-0.7491 0.578,-0.8291 0.3617,0.3169 0.9058,0.4726 1.3638,0.575z"/>
 </g>
</svg>
