<?xml version="1.0" encoding="UTF-8"?>
<!DOCTYPE svg PUBLIC "-//W3C//DTD SVG 1.1//EN" "http://www.w3.org/Graphics/SVG/1.1/DTD/svg11.dtd">
<!-- Creator: CorelDRAW 2020 (64-Bit) -->
<svg xmlns="http://www.w3.org/2000/svg" xml:space="preserve" width="98.9704mm" height="81.4261mm" version="1.1" style="shape-rendering:geometricPrecision; text-rendering:geometricPrecision; image-rendering:optimizeQuality; fill-rule:evenodd; clip-rule:evenodd"
viewBox="0 0 5.355 4.4058"
 xmlns:xlink="http://www.w3.org/1999/xlink"
 xmlns:xodm="http://www.corel.com/coreldraw/odm/2003">
 <defs>
  <style type="text/css">
   <![CDATA[
    .fil1 {fill:#FEFEFE}
    .fil0 {fill:#2B2A29}
    .fil4 {fill:#0348FE;fill-rule:nonzero}
    .fil2 {fill:#588C41;fill-rule:nonzero}
    .fil3 {fill:#9E5A34;fill-rule:nonzero}
   ]]>
  </style>
 </defs>
 <g id="Слой_x0020_1">
  <metadata id="CorelCorpID_0Corel-Layer"/>
  <path class="fil0" d="M4.3212 0.1571c0.1917,0.0792 0.2972,0.3337 0.3355,0.5312 0.1532,0.053 0.3521,0.11 0.4182,0.2667 0.1052,0.0666 0.1549,0.0615 0.1628,0.2 0.0246,0.024 0.0956,0.0695 0.1045,0.0958 0.001,0.0261 -0.0049,0.0424 -0.0187,0.0634 0,0.0184 0.0122,0.0336 0.0189,0.05 0.041,0.0812 -0.0275,0.1512 -0.0789,0.2001 -0.0374,0.0598 0.007,0.0748 -0.0763,0.1295 -0.0555,0.025 -0.0808,0.0314 -0.0978,0.0444 -0.0511,0.0391 0.0143,0.0553 -0.1052,0.1528 -0.0726,0.0591 -0.1587,0.0986 -0.2456,0.1318 -0.0001,0.0047 -0.0001,0.0093 -0.0001,0.014 0.2582,0.2603 0.3,0.2691 0.3395,0.5953 0.0815,0.0292 0.1228,0.1008 0.0905,0.185 -0.0388,0.0954 -0.1434,0.1336 -0.2248,0.1825 0.0436,0.0778 0.0409,0.1779 -0.0296,0.2366 -0.0699,0.0582 -0.1902,0.0732 -0.3014,0.0896 -0.0136,0.0005 -0.0614,0.0347 -0.0705,0.043 -0.357,0.3191 -0.5704,0.3134 -0.7268,0.383 0.102,0.0483 0.1966,0.1176 0.2829,0.1693 0.0397,0.0306 0.5153,0.4028 0.5528,0.4845l-4.651 -0.0103c0.0543,-0.3848 0.5014,-0.9694 0.903,-1.0015 -0.304,-0.3825 -0.3448,-0.6914 -0.1552,-1.3493 0.1247,-0.4145 0.3202,-0.8208 0.7033,-1.0165 0.018,-0.0078 0.0217,-0.0288 0.0282,-0.0452 0.0794,-0.2512 0.2536,-0.5467 0.4519,-0.7248 0.407,-0.3053 0.7534,-0.3278 1.1509,-0.1311 0.0222,0.0106 0.2409,0.1791 0.2618,0.1472 0.2437,-0.1821 0.6847,-0.2582 0.9774,-0.1173z"/>
  <path class="fil1" d="M3.1316 1.6405c-0.007,0.0291 0.0091,0.0654 0.0431,0.0636 0.0399,0.0096 0.0723,-0.0578 0.0333,-0.077 -0.0254,-0.0061 -0.0571,-0.0075 -0.0763,0.0134zm1.2012 0.0363c0.0349,-0.179 0.0581,-0.3816 0.2855,-0.4243 0.1008,-0.0208 0.2145,-0.0045 0.2945,0.0641 0.0813,0.0689 0.1223,0.1733 0.1388,0.2763 0.1121,0.0178 0.2314,-0.0524 0.2687,-0.16 0.0355,-0.1805 -0.2395,-0.1881 -0.3555,-0.1998 -0.3615,-0.0328 -0.7265,0.0297 -1.0691,0.1446 -0.0028,0.0923 -0.0183,0.0946 -0.0621,0.1706 0.037,0.0279 0.0386,0.0164 0.0445,0.0664 0.1447,0.0011 0.2941,0.0616 0.4547,0.0621zm-1.1284 -0.3783c-0.2158,0.0408 -0.4176,0.1368 -0.6356,0.1678 -0.0743,0.0075 -0.1492,0.0031 -0.2237,0.0005 0.1268,0.116 0.3857,0.2081 0.5573,0.2482 -0.0112,-0.1746 0.0562,-0.3373 0.2441,-0.3766 0.2747,-0.0531 0.4016,0.0219 0.5028,0.2847 0.2719,-0.0562 0.2503,-0.3729 0.1797,-0.3713 -0.209,-0.0051 -0.4199,0.0001 -0.6246,0.0466zm1.3675 0.3417c0.0409,0.0063 0.0725,-0.0586 0.033,-0.0813 -0.1073,-0.0282 -0.0838,0.073 -0.033,0.0813zm-1.2647 -0.0722c-0.0051,0.055 0.058,0.1006 0.1091,0.0822 0.0528,-0.0112 0.0799,-0.0863 0.0391,-0.125 -0.0377,-0.0461 -0.1568,-0.0303 -0.1482,0.0429zm1.4606 -0.0942c-0.0774,0.0446 -0.0012,0.1478 0.0663,0.1172 0.0341,-0.0142 0.0502,-0.0605 0.0286,-0.0915 -0.0199,-0.0315 -0.0622,-0.0331 -0.0949,-0.0257zm-1.6362 -0.0702c-0.047,0.0243 -0.0217,0.1057 0.0277,0.1093 0.0557,0.0093 0.0906,-0.0813 0.0418,-0.1104 -0.0212,-0.0111 -0.0481,-0.0083 -0.0695,0.0011zm1.444 -0.0528c-0.0469,0.0208 -0.044,0.0989 0.0041,0.1162 0.0475,0.0223 0.1116,-0.0136 0.11,-0.0678 -0.0058,-0.0524 -0.0729,-0.0669 -0.1141,-0.0484z"/>
  <path class="fil2" d="M2.1658 0.1543c0.2835,-0.1632 0.5036,-0.1555 0.8072,-0.0389 0.2336,0.0898 0.4652,0.2997 0.4788,0.5674 -0.074,-0.0051 -0.6507,-0.4626 -1.2869,-0.0222 -0.0313,0.0211 -0.0646,0.0414 -0.086,0.0736 0.2206,-0.129 0.4232,-0.2292 0.6897,-0.2326 0.268,-0.0034 0.6717,0.1462 0.8143,0.3943 -0.1922,-0.0227 -0.3761,-0.0736 -0.5715,-0.0264 -0.4256,0.1027 -0.4057,0.1525 -0.7721,0.304 -0.0189,0.0076 -0.0374,0.0164 -0.0543,0.0279 0.4338,-0.0942 0.7013,-0.4772 1.4165,-0.2644 0.0741,0.022 0.1737,0.0609 0.1969,0.1435 -0.1548,-0.0388 -0.2363,-0.1147 -0.4924,-0.1262 -0.5039,-0.0226 -0.661,0.2599 -1.014,0.3249 -0.1013,0.0186 -0.2325,-0.0417 -0.2646,0.096 -0.014,0.0599 0.2148,0.0773 0.2892,0.1035 0.1317,0.0465 0.339,0.3257 0.924,0.2671 0.2822,-0.0283 0.3395,-0.0609 0.5801,-0.1539 0.0717,0.1691 -0.2041,0.2012 -0.3113,0.2226 -0.3715,0.0742 -0.7072,0.057 -1.0527,-0.1074 -0.0376,-0.018 -0.0735,-0.0392 -0.1121,-0.0552 0.1643,0.1629 0.5151,0.2403 0.7465,0.2296 0.1899,-0.0137 0.3795,-0.0332 0.5677,-0.062 -0.1122,0.0924 -0.5369,0.2884 -0.6749,0.3297 -0.0309,0.0094 -0.0627,0.0159 -0.0929,0.0273 0.1719,0.0138 0.8244,-0.3236 0.9615,-0.4578 0.0228,-0.0214 0.027,-0.0535 0.0366,-0.0816 0.4374,0.0757 0.8089,0.098 1.2283,-0.021 0.0389,-0.0106 0.0749,-0.0304 0.115,-0.0366 -0.003,0.0892 -0.1057,0.1099 -0.1708,0.1416 -0.0476,0.2212 -0.4696,0.3388 -0.6573,0.3401 -0.2734,0.0019 -0.2033,-0.01 -0.4369,-0.0658 0.1011,0.0598 0.1828,0.0769 0.2991,0.1596 0.0223,0.016 0.0435,0.0336 0.068,0.0462 -0.0101,-0.0576 -0.0685,-0.0803 -0.108,-0.1145 0.1375,-0.0161 0.2761,0.0111 0.4127,-0.0272 0.0966,-0.027 0.0944,0.0065 0.2013,0.1281 0.1149,0.1307 0.1985,0.2675 0.2036,0.4443 0.0024,0.0809 -0.4677,0.1753 -0.5379,0.1867 -0.8396,0.1366 -1.8298,-0.3045 -2.2941,-0.1757 -0.2346,0.0651 -0.3468,0.4581 -0.0813,0.4958 0.1626,0.0231 0.3146,-0.0316 0.5215,0.0086 0.5969,0.116 0.7449,0.1168 1.353,0.1661 0.1735,0.0141 0.3585,-0.0074 0.5299,0.026 -0.0523,0.1109 -0.5436,0.3675 -0.7656,0.3994 -0.4245,0.0612 -1.4773,0.0448 -1.8699,-0.0474 -0.2696,-0.0633 -0.895,-0.1854 -1.0384,-0.4204 -0.1385,-0.2269 -0.1529,-0.2992 -0.1728,-0.5641 -0.0268,-0.3561 0.2099,-1.3057 0.7339,-1.6273 -0.0136,0.1046 -0.0337,0.2104 -0.02,0.3162 0.0448,-0.0467 0.0483,-0.8381 0.7633,-1.2414zm-0.3567 2.9522c-0.0299,0.1277 0.2254,0.2843 0.3288,0.2266 -0.2718,-0.0564 -0.2403,-0.1277 -0.3288,-0.2266zm2.0662 -2.986c0.3767,-0.0662 0.7423,0.2082 0.7313,0.5554 -0.3475,-0.0481 -0.5657,-0.0622 -0.9786,-0.0109 -0.0479,0.0058 -0.0943,0.0211 -0.1428,0.0223 -0.0249,-0.1907 -0.0763,-0.226 -0.1548,-0.3722 0.1606,-0.0991 0.3592,-0.1669 0.5448,-0.1945zm-0.0513 0.5496c0.3381,-0.0137 1.0153,-0.0334 1.2263,0.2724 -0.3572,-0.0696 -0.6619,-0.0859 -1.0112,0.0186 -0.0117,0.0041 -0.0266,0.0048 -0.0333,0.0167 0.2305,-0.0195 0.3513,-0.0794 0.6985,-0.0634 0.1309,0.006 0.4823,0.0477 0.5065,0.2194 -0.1569,-0.0632 -0.1793,-0.1348 -0.5145,-0.1406 -0.2922,-0.005 -0.5677,0.0671 -0.8529,0.114 -0.1391,-0.2277 -0.1242,-0.1242 -0.2169,-0.2014 -0.0156,-0.013 -0.1351,-0.1696 -0.1461,-0.1872 0.1121,-0.0293 0.2289,-0.034 0.3435,-0.0485zm-1.1321 0.464c0.155,-0.0696 0.3147,-0.1353 0.4842,-0.1579 0.2876,-0.0271 0.8286,0.1912 0.7217,0.287 -0.1221,-0.0817 -0.4549,-0.0416 -0.5908,-0.0204 -0.3568,0.0557 -0.8328,0.2972 -1.2037,0.1644 -0.1132,-0.0405 0.011,-0.1148 0.0817,-0.1047 0.182,0.0261 0.3476,-0.0931 0.5068,-0.1684zm1.5081 -0.0746c0.3585,-0.0634 0.7865,-0.1071 1.0776,0.161 0.017,0.0164 0.0393,0.032 0.0415,0.0574 -0.0825,0.0122 -0.0597,-0.06 -0.4462,-0.0752 -0.4378,-0.0173 -0.6533,0.0878 -0.9536,0.1339 0.0053,-0.1532 0.0668,-0.0581 -0.0521,-0.2015 0.1088,-0.0338 0.2213,-0.0534 0.3328,-0.0757zm-3.19 2.3867c0.1402,0.0466 0.2005,0.11 0.4559,0.1751 0.4267,0.1088 0.8612,0.1817 1.3028,0.173 0.2146,-0.0042 0.3986,0.0208 0.6621,-0.0061 0.0407,-0.0042 0.3142,-0.0341 0.3348,-0.0177 -0.3729,0.2774 -1.5146,0.1743 -1.9712,0.0486 -0.1925,-0.053 -0.7176,-0.1789 -0.7845,-0.3729z"/>
  <path class="fil3" d="M2.1238 2.7321c0.1656,-0.1288 0.4217,-0.0926 0.6174,-0.0587 0.6366,0.1104 1.1847,0.2953 1.8547,0.1564 0.1482,-0.032 0.2955,-0.0745 0.4305,-0.1449 0.0167,-0.0075 0.033,-0.0193 0.0519,-0.02 0.0271,0.0029 0.1997,0.1147 -0.1127,0.2902 -0.1048,0.0589 -0.6281,0.0883 -0.7533,0.0922 -0.5122,0.0159 -0.9695,-0.0475 -1.4701,-0.1508 -0.1388,-0.0286 -0.3351,-0.0644 -0.4742,-0.0223 0.4776,0.0126 0.4659,0.0649 0.8826,0.1282 0.5679,0.0862 0.9605,0.0933 1.5425,0.0399 0.075,-0.0054 0.1487,-0.0238 0.224,-0.0259 0.1436,0.1858 -0.1449,0.2846 -0.2977,0.2861 -0.5118,0.0042 -1.0391,-0.0314 -1.5449,-0.1005 -0.292,-0.0399 -0.3545,-0.1392 -0.8043,-0.1077 -0.0552,0.0039 -0.2024,0.0176 -0.2345,-0.0291 -0.0758,-0.1101 -0.0019,-0.2471 0.0882,-0.3331z"/>
  <path class="fil4" d="M0.7758 3.4711c0.2503,-0.0595 0.06,-0.0439 0.3915,0.1475 0.5517,0.3185 2.2289,0.5323 2.6216,0.1721 0.0822,-0.0754 0.652,0.4358 0.7998,0.5918l-4.5353 0c0.0635,-0.3389 0.4635,-0.8385 0.7224,-0.9114z"/>
 </g>
</svg>
