<?xml version="1.0" encoding="UTF-8"?>
<!DOCTYPE svg PUBLIC "-//W3C//DTD SVG 1.1//EN" "http://www.w3.org/Graphics/SVG/1.1/DTD/svg11.dtd">
<!-- Creator: CorelDRAW 2020 (64-Bit) -->
<svg xmlns="http://www.w3.org/2000/svg" xml:space="preserve" width="89.0844mm" height="81.4263mm" version="1.1" style="shape-rendering:geometricPrecision; text-rendering:geometricPrecision; image-rendering:optimizeQuality; fill-rule:evenodd; clip-rule:evenodd"
viewBox="0 0 2.7805 2.5415"
 xmlns:xlink="http://www.w3.org/1999/xlink"
 xmlns:xodm="http://www.corel.com/coreldraw/odm/2003">
 <defs>
  <style type="text/css">
   <![CDATA[
    .fil0 {fill:#2B2A29}
    .fil1 {fill:#FEFEFE;fill-rule:nonzero}
    .fil2 {fill:#5A8D3E;fill-rule:nonzero}
    .fil3 {fill:#A55B36;fill-rule:nonzero}
   ]]>
  </style>
 </defs>
 <g id="Слой_x0020_1">
  <metadata id="CorelCorpID_0Corel-Layer"/>
  <path class="fil0" d="M1.4955 0.0818c0.2365,-0.1818 0.4564,-0.0397 0.5449,0.2212 0.0665,0.0157 0.0872,0.0492 0.1202,0.111 0.0077,0.0144 0.0934,0.1753 0.1048,0.2098 0.0275,0.0828 0.0326,0.1988 -0.0061,0.285 -0.0475,0.1058 -0.1839,0.1148 -0.1599,0.1398 0.1719,0.1458 0.4305,0.1289 0.6811,0.3557l0 1.1372 -2.7805 0c0.0345,-0.187 0.212,-0.417 0.4003,-0.4688 0.0371,-0.0102 0.021,-0.074 0.0262,-0.1106 0.0192,-0.1358 0.006,-0.1345 0.0623,-0.2658 0.0373,-0.0774 0.1725,-0.198 0.2703,-0.2145 0.0387,-0.0065 0.1098,0.0047 0.1511,0.0128 0.0904,-0.0658 0.0988,-0.0269 0.2166,-0.1336 0.0287,-0.0319 0.0342,-0.1128 0.0468,-0.1531 0.015,-0.0482 -0.0025,-0.1451 0.0107,-0.1886 -0.0221,-0.0146 -0.0427,-0.0311 -0.0622,-0.049 -0.0055,-0.0029 -0.1052,-0.0034 -0.114,-0.0638 -0.001,-0.0119 0.0068,-0.0221 0.0118,-0.0322 -0.0188,-0.0227 -0.0651,-0.0332 -0.0647,-0.0685 -0.0018,-0.0183 0.0094,-0.0361 0.0274,-0.0408 0.0087,-0.0926 0.0445,-0.119 0.0982,-0.1742 -0.0527,-0.0335 -0.0771,-0.034 -0.1013,-0.0876 -0.022,-0.0068 -0.0427,-0.0148 -0.0496,-0.0256 -0.0038,-0.006 0.0005,-0.0102 0.0021,-0.0222 -0.035,-0.0281 -0.0363,-0.0308 -0.0232,-0.0689 0.0072,-0.0209 -0.0257,-0.0168 0.0231,-0.0515 0.0032,-0.0222 -0.0054,-0.0346 0.0481,-0.0564 0,-0.0423 0.0932,-0.0723 0.1253,-0.0827 0.0202,-0.1165 0.0922,-0.1851 0.2141,-0.1756 0.063,0.0052 0.1213,0.0322 0.1763,0.0615z"/>
  <path class="fil1" d="M1.5366 0.4719c0.0068,0.0023 0.0127,0.0064 0.0178,0.0116 -0.0187,0.0191 -0.0331,0.0071 -0.0178,-0.0116zm-0.4106 -0.0141c0.0066,-0.0074 0.0157,0.0005 0.0188,0.007 -0.0179,0.0235 -0.0268,-0.0021 -0.0188,-0.007zm0.3294 -0.0067c0.0229,-0.0316 0.0729,0.0156 0.0238,0.0242 -0.0144,0.0025 -0.0299,-0.0031 -0.0238,-0.0242zm-0.4062 -0.0137c0.0077,-0.0143 0.0311,-0.0109 0.0361,0.004 0.0056,0.0298 -0.0475,0.0317 -0.0361,-0.004zm0.4864 -0.0271c0.0245,-0.0192 0.0305,0.0372 0.0033,0.0283 -0.0102,-0.0052 -0.0148,-0.0218 -0.0033,-0.0283zm-0.4296 -0.0022c0.0067,-0.0327 0.059,0.0023 0.0177,0.0131 -0.0097,0.005 -0.0142,-0.0064 -0.0177,-0.0131zm0.2363 -0.0413c0.0868,0.0004 0.0621,-0.0119 0.1518,0.0051 0.0938,0.0127 0.1825,0.0532 0.2776,0.0585 -0.0329,0.0219 -0.1028,0.0668 -0.1527,0.0717 0,-0.0809 -0.0296,-0.1183 -0.1265,-0.1176 -0.0825,0.0006 -0.0878,0.0791 -0.1011,0.0917 -0.0167,-0.0104 -0.0431,-0.0118 -0.0481,-0.0344 -0.0074,-0.0235 -0.0194,-0.0535 -0.0012,-0.0749zm-0.4213 0.0164c0.1095,-0.0643 0.4041,0.0028 0.4065,0.0239 0.0029,0.0174 0.0076,0.0343 0.0158,0.05 -0.0031,0.0055 -0.0061,0.011 -0.0092,0.0164 -0.0668,0.0119 -0.0656,0.0127 -0.1316,0.0163 0.0102,-0.0977 -0.0785,-0.152 -0.1603,-0.1167 -0.0371,0.0167 -0.0479,0.0601 -0.055,0.0965 -0.0988,-0.0262 -0.0824,-0.0449 -0.0663,-0.0863z"/>
  <path class="fil2" d="M1.5237 0.0705c0.2533,-0.1652 0.4859,0.0345 0.5204,0.302 0.0028,0.016 0.0017,0.0337 0.0114,0.0475 0.0045,-0.0366 -0.008,-0.0724 -0.0128,-0.1085 0.0907,0.021 0.12,0.1221 0.1523,0.201 0.0488,0.1192 0.1008,0.13 0.0754,0.3089 -0.0104,0.073 -0.0414,0.1395 -0.0995,0.167 -0.0782,0.037 -0.221,0.0896 -0.3106,0.0877 0.0031,-0.0345 -0.004,-0.0687 -0.0027,-0.1032 0.0376,-0.0119 0.0801,-0.0342 0.0795,-0.0804 -0.0318,0.0239 -0.0076,0.0533 -0.0782,0.0712 -0.0077,-0.0178 -0.0021,-0.0377 -0.0082,-0.0558 0.1079,-0.0666 -0.0589,-0.1727 -0.1037,-0.1701 -0.0235,0.0014 -0.0339,0.0328 -0.0559,0.0286 -0.0178,-0.0034 -0.0298,-0.0177 -0.0501,-0.0066 -0.0104,0.0112 -0.0218,0.0228 -0.0382,0.0235 -0.0951,0.0161 -0.1902,0.0365 -0.2868,0.0399l-0.0449 0.0039c-0.0042,-0.0532 -0.008,-0.0863 -0.0453,-0.0861 -0.0327,0.0002 -0.0367,0.0123 -0.0361,0.0271 0.0007,0.0198 -0.0027,0.0387 -0.0115,0.0548 -0.0653,-0.0094 -0.1299,-0.0265 -0.1894,-0.0554 0.0117,-0.0746 0.0439,-0.1256 0.1023,-0.1742 0.0443,0.0106 0.0897,0.0173 0.1354,0.0152 -0.0074,0.0065 -0.0147,0.0133 -0.0211,0.0208 0.0177,-0.0037 0.106,-0.046 0.1105,-0.0562 -0.0461,0.013 -0.0616,0.0266 -0.1132,0.0263 -0.1894,-0.001 -0.201,-0.0955 -0.2278,-0.1057 -0.018,-0.008 -0.0477,-0.0126 -0.0342,-0.0321 0.1254,0.0307 0.2555,0.044 0.3885,0.0158 0.0682,0.1204 0.447,0.0497 0.4485,-0.0004 -0.1031,0.0483 -0.1514,0.0542 -0.2633,0.0567 -0.0267,0.0006 -0.2022,-0.0063 -0.1705,-0.0723 0.0917,0.0246 0.1353,0.0639 0.277,0.0435 0.0824,-0.0119 0.1284,-0.0672 0.1755,-0.0827 0.0201,-0.0057 0.0413,-0.0029 0.0617,-0.0066 0.0137,-0.0037 0.0414,-0.0429 -0.0322,-0.0437 -0.1489,-0.0016 -0.1528,-0.1324 -0.3979,-0.0798 -0.0236,0.0047 -0.0454,0.0153 -0.0687,0.021 0.0021,-0.0199 0.0059,-0.0399 0.0475,-0.0476 0.2799,-0.0513 0.2948,0.0731 0.4244,0.0835 -0.0007,-0.0019 -0.002,-0.0057 -0.0026,-0.0077 -0.1056,-0.0341 -0.0418,-0.0121 -0.1313,-0.0587 -0.0859,-0.0447 -0.1938,-0.0423 -0.286,-0.0265 0.0664,-0.0631 0.1334,-0.1048 0.2286,-0.113 0.0979,-0.0084 0.1341,0.0318 0.2096,0.067 -0.0186,-0.0469 -0.1456,-0.0754 -0.1912,-0.075 -0.0592,-0.0008 -0.1166,0.0182 -0.1682,0.0462 -0.0001,-0.0017 -0.0265,0.0166 -0.0319,0.0197 -0.0243,-0.0073 0.0368,-0.114 0.0655,-0.1306zm0.3522 1.1826c-0.0047,-0.0112 0.0017,-0.0232 0.0106,-0.0302 0.0181,0.0106 0.0205,0.075 0.0008,0.0758 -0.0048,-0.0149 -0.0059,-0.0308 -0.0113,-0.0456zm-0.7425 -0.2831c0.0168,0.0001 0.0335,0 0.0502,-0.0005 0.0003,0.0136 0.0002,0.0272 -0.0003,0.0408 -0.017,-0.0129 -0.0346,-0.0253 -0.0499,-0.0403zm0.1889 0.0643c-0.0047,-0.0149 -0.0044,-0.0311 -0.0008,-0.0461 0.0237,0.0096 0.0128,0.0872 0.0167,0.1105 0.0039,0.0235 0.0073,0.109 0.0075,0.14 -0.0197,-0.0155 -0.0056,-0.0432 -0.0113,-0.0763 -0.0039,-0.0213 0.0027,-0.0436 -0.0056,-0.0642 -0.0078,-0.0206 0.0007,-0.0433 -0.0065,-0.064zm-0.3335 -0.7502c0.1276,-0.0307 0.2362,-0.0246 0.3558,0.0247 0.0076,0.0028 0.0113,0.0103 0.0157,0.0164 0.0983,-0.0521 0.2347,-0.0515 0.3292,0.007 0.1118,0.0692 0.138,0.0374 0.1697,0.049 0.0126,0.0089 0.0035,0.0271 -0.0097,0.0284 -0.0529,0.0045 -0.09,0.0096 -0.1439,0.0015 -0.0647,-0.0144 -0.1545,-0.0422 -0.2382,-0.054 -0.0466,-0.0065 -0.0918,-0.0055 -0.1286,-0.0007 -0.0114,0.006 -0.0112,0.0214 -0.0193,0.0299 -0.055,-0.0162 -0.1112,-0.0281 -0.1678,-0.0376 -0.1714,-0.0198 -0.2041,0.0187 -0.2368,0.0229 -0.0009,-0.0021 -0.0027,-0.0062 -0.0035,-0.0083 0.0197,-0.0349 0.1045,-0.0566 0.1395,-0.0626 0.0973,-0.0165 0.2019,-0.0001 0.294,0.0338 0.0001,-0.0024 0.0004,-0.0072 0.0005,-0.0096 -0.1326,-0.0399 -0.2811,-0.0634 -0.4084,0.0057 0.0033,-0.0261 0.028,-0.0415 0.0518,-0.0465zm0.4377 0.2664c0.0007,0.0218 0.1535,0.0837 0.1851,0.0866 0.0089,-0.0078 -0.138,-0.0621 -0.1851,-0.0866zm-0.2468 -0.4846c0.0846,-0.0781 0.2257,-0.029 0.31,0.0227 -0.0234,0.0318 -0.0373,0.0689 -0.0469,0.1068 -0.0802,-0.0048 -0.1758,-0.0348 -0.2546,-0.0085 -0.0059,0.002 -0.0659,0.0101 -0.0738,0.0097 0.0044,-0.0493 0.0286,-0.0974 0.0653,-0.1307zm0.0423 0.1221c0.0761,-0.0034 0.1528,0.0016 0.2271,0.0187 -0.0292,0.0358 -0.0786,0.0546 -0.1021,0.0935 -0.1253,-0.0498 -0.2293,-0.0512 -0.3604,-0.0249 -0.0016,-0.0278 0.0893,-0.0627 0.1093,-0.0684l0.0744 -0.0097c0.0274,-0.0038 0.0341,-0.0078 0.0516,-0.009zm-0.0218 0.5692c0.0087,-0.0072 0.0201,-0.0047 0.0307,-0.0034 0.0225,0.0028 0.0284,0.0991 0.0279,0.1193 -0.0417,0.0134 -0.0243,0.0658 -0.0271,0.1229 -0.007,0.0682 0.0013,0.1369 -0.006,0.2051 0.0009,0.0192 -0.0109,0.068 0.0051,0.0892 0.0173,-0.0818 0.0107,-0.168 0.0136,-0.251 0.0152,-0.0082 0.0144,-0.0116 0.002,-0.0231 0.0001,-0.0156 0.0001,-0.0312 -0.0007,-0.0468 0.0211,0.0096 0.0249,-0.0148 0.0258,-0.0373 0.0007,-0.0173 -0.0017,-0.0278 -0.0073,-0.0307 0.0046,0.0248 0.0031,0.0466 -0.0028,0.0613 -0.0016,0.004 -0.0102,0.0045 -0.0158,0.001 -0.0187,-0.0298 0.0139,-0.1216 0.0477,-0.0494 0.0129,0.0276 0.0285,0.2861 0.0287,0.3263 0.036,0.0327 0.0304,0.0258 0.0293,0.0769 -0.0006,0.0116 0.0078,0.0208 0.011,0.0314 0.0061,0.0246 0.0106,0.0495 0.0115,0.0749 0.0097,0.0268 0.0181,0.0546 0.036,0.0775l0.0057 0.1969c0.0099,0.186 0.025,0.1159 -0.0969,0.2745 -0.1181,0.1537 -0.1947,0.2972 -0.2971,0.4471 -0.0227,0.0351 -0.0402,0.0735 -0.0656,0.1069l-0.9389 0c0.0271,-0.1608 0.1611,-0.3303 0.3085,-0.4028 0.121,-0.0596 0.1022,-0.0265 0.112,-0.122 0.0194,-0.1899 0.02,-0.2994 0.1755,-0.4279 0.0935,-0.0772 0.1574,-0.087 0.2662,-0.0707 0.05,0.0075 0.0007,0.0187 0.0619,-0.0133 0.0333,-0.0174 0.0763,-0.0208 0.0962,-0.0317 0.0291,-0.0248 0.0565,-0.052 0.0875,-0.0746 0.0029,0.0386 0.031,0.3054 0.0191,0.3171 -0.0859,0.0848 -0.0581,0.0637 -0.1504,0.1286 -0.11,0.092 -0.2097,0.1504 -0.3367,0.2165 -0.0292,0.0152 -0.2097,0.0896 -0.2135,0.103 0.0505,0.0078 0.2566,-0.1079 0.3162,-0.1394 0.1213,-0.064 0.2322,-0.1652 0.264,-0.1822 0.0559,-0.0293 0.0897,-0.0848 0.1373,-0.1243 0.0016,-0.0372 -0.0116,-0.2401 -0.0142,-0.3021 -0.0018,-0.0433 0.0476,-0.2056 0.0511,-0.2742 -0.0013,-0.0243 -0.0039,-0.0487 -0.0029,-0.0731 0.0055,0 0.0111,0 0.0167,0 -0.0056,-0.0056 -0.0113,-0.0111 -0.0169,-0.0165 0.0059,-0.0449 0.0106,-0.097 -0.0013,-0.1414 0.006,-0.002 0.0121,-0.004 0.0182,-0.006 -0.0303,-0.0395 -0.0207,-0.0369 -0.0121,-0.1244 0.025,-0.0116 0.0214,0.0437 0.0204,0.0555 -0.0033,0.0143 -0.0221,0.0146 -0.0221,0.0183 0.0405,-0.0029 0.0277,-0.0439 0.0207,-0.0724 -0.0027,-0.011 -0.0053,-0.0078 -0.0181,-0.0097zm-0.0052 0.54c-0.0295,0.0418 -0.0116,0.0843 -0.008,0.0349 -0,-0.0003 0.0293,-0.0631 0.008,-0.0349zm0.535 -0.5359c0.0304,-0.0215 0.0735,-0.0018 0.0673,0.0676 -0.0122,0.1361 -0.034,0.2056 -0.017,0.3536 0.0031,0.0255 -0.0019,0.0542 0.0132,0.0766 0.004,-0.0046 0.0117,-0.0088 0.0089,-0.0161 -0.0112,-0.0326 -0.0216,-0.3753 0.0143,-0.3679 0.0173,0.0068 0.0183,0.0302 0.0187,0.0463 -0.0051,0.0339 -0.0277,0.0276 -0.0353,0.0195 0.0074,0.0211 0.0292,0.0046 0.0391,-0.0053 0.0027,0.0543 0.008,0.1086 0.0066,0.1631 -0.0221,0.0048 -0.0325,0.0056 -0.0465,0.0026 -0.0056,-0.0012 0.0245,0.0153 0.0445,0.0026 0.0158,0.0759 0.0127,0.1536 0.0352,0.2282 0.0449,0.1487 0.0034,0.2976 -0.0605,0.4291 -0.0292,0.0601 0.0137,0.0816 0.0517,0.1167 0.0514,0.045 0.0982,0.0952 0.1402,0.149 0.1857,0.2107 0.0571,0.1183 0.3105,0.1771 0.1199,0.0278 0.2439,0.0385 0.3543,0.0975 0.0064,0.0036 0.0138,0.0014 0.0207,0.0014 -0.0169,-0.0414 -0.2291,-0.0894 -0.2706,-0.0937 -0.0255,-0.0003 -0.048,-0.0141 -0.0733,-0.0152 0.0163,-0.1121 0.0674,-0.1426 0.1605,-0.1805 0.0524,-0.0213 0.1324,0.0001 0.1292,-0.0315 -0.0477,0.0043 -0.0966,0.0039 -0.1425,0.0192 0.0232,-0.0413 0.0473,-0.0869 0.077,-0.1239 0.0147,-0.0188 0.0353,-0.0234 0.0273,-0.0452 -0.0462,0.0395 -0.0753,0.0922 -0.1072,0.1434 -0.0006,-0.0536 0.017,-0.0908 0.0476,-0.1352 0.0062,-0.0089 0.0056,-0.0303 -0.0318,0.0235 -0.0172,0.0253 -0.0332,0.0548 -0.0282,0.0865 0.0051,0.021 -0.0118,0.0402 -0.004,0.0607 -0.0053,0.0015 -0.0105,0.003 -0.0157,0.0046 -0.0013,-0.0225 -0.0431,-0.1217 -0.0749,-0.0946 0.0315,0.0231 0.0543,0.0648 0.063,0.1025 -0.066,0.0239 -0.1076,0.1032 -0.1154,0.1697 -0.0478,-0.0187 -0.1682,-0.0185 -0.2023,-0.0389 -0.0198,-0.0119 -0.1789,-0.2253 -0.245,-0.2775 -0.1406,-0.1082 0.0117,-0.1494 0.0204,-0.318 0.0551,-0.0047 0.2482,-0.0358 0.2936,-0.0496 0.0196,-0.0071 0.0367,-0.0204 0.0573,-0.0255 0.1016,-0.0256 0.1212,-0.088 0.241,-0.1058 -0.0008,-0.003 -0.0024,-0.0091 -0.0032,-0.0121 -0.0594,-0.0032 -0.1148,0.0359 -0.1593,0.0695 -0.0088,0.0067 -0.1363,0.0595 -0.1509,0.0624 -0.0731,0.0147 -0.2071,0.0402 -0.2782,0.0469 -0.0032,-0.0362 -0.0012,-0.1706 -0.0013,-0.1714 -0.0047,-0.0376 0.0198,-0.1131 0.0022,-0.1469 -0.0087,-0.0106 -0.0246,-0.024 -0.0378,-0.0126 -0.0045,-0.0427 -0.0127,-0.0852 -0.0134,-0.1281 0.0743,-0.0097 0.1488,-0.0215 0.2195,-0.0475 0.0126,0.0472 0.0516,0.0537 0.0895,0.0765 0.1713,0.1036 0.3097,0.1059 0.4753,0.2125 0.036,0.0266 0.0791,0.0725 0.1214,0.0954l0 1.1047 -0.9474 0 -0.1491 -0.2714c-0.0482,-0.0734 -0.1444,-0.3342 -0.1784,-0.3799 -0.07,-0.0938 -0.0589,-0.1462 -0.0625,-0.2604 -0.004,-0.1242 0.0115,-0.1194 0.0322,-0.2309 0.0079,-0.0273 0.0114,-0.0563 0.0258,-0.0812 -0.0196,-0.0305 0.0092,-0.3318 0.0614,-0.3614 0.0275,-0.0156 0.0204,0.052 0.0209,0.0628 -0.0099,0.0049 -0.0214,-0.0001 -0.0301,-0.0015 -0.005,-0.0008 -0.0092,-0.0111 -0.0074,-0.0226 0.0014,-0.0091 0.008,-0.0191 0.0104,-0.0251 -0.0095,0.0102 -0.0149,0.0166 -0.0149,0.0269 0.0001,0.0301 0.0122,0.0259 0.0422,0.0307 -0.0165,0.0985 -0.0029,0.2007 0.0007,0.2997 0,0.0155 0.0164,0.0119 0.0268,0.0114 -0.0004,-0.0123 -0.0058,-0.0232 -0.0101,-0.0344 -0.0174,-0.0604 0.007,-0.4405 0.0537,-0.5077 0.013,-0.0163 0.0386,-0.0063 0.0465,0.01 0.0097,0.0259 -0.0114,0.1356 -0.012,0.1667 -0.0016,0.1 -0.0011,0.1999 -0.0033,0.2999 0.0375,0.0024 0.0119,-0.0579 0.0205,-0.1928 0.0043,-0.0671 -0.0092,-0.2558 0.038,-0.3045zm0.001 0.0102c-0.0101,0.0208 -0.0146,0.055 -0.0117,0.0598 0.0118,0.0194 0.0577,0.0112 0.0645,-0.0064 -0.0454,0.0171 -0.0667,0.0179 -0.0528,-0.0533zm-0.1046 0.0842c0.0152,0 0.0356,0.0091 0.0525,-0.0036 -0.038,0.0013 -0.0612,0.0163 -0.0338,-0.0659 -0.0111,0.007 -0.0204,0.0577 -0.0187,0.0695zm0.0929 0.0355c0.0089,0.0099 0.0456,0.0125 0.0591,0.0019 -0.0196,0.0004 -0.0565,-0.0074 -0.0591,-0.0019zm-0.0871 0.0119c0.0102,0.0111 0.022,0.0134 0.0343,-0.0023 -0.0114,0.0019 -0.0193,0.0074 -0.0343,0.0023zm0.1694 0.0806c-0.0011,0.0083 0.0246,0.0151 0.028,0.0005 -0.0027,0.0014 -0.0096,0.0056 -0.0159,0.0047 -0.0052,-0.0007 -0.01,-0.0067 -0.012,-0.0052zm-0.0977 0.0624c0.0161,0.0164 0.0604,0.0088 0.0616,-0.0024 -0.0306,0.0029 -0.0342,0.007 -0.0616,0.0024zm-0.1865 0.0058c0.0036,0.0064 0.0285,0.0141 0.0391,0.0034 -0.0035,-0.0061 -0.0119,-0.0002 -0.0188,-0.0006 -0.0088,-0.0005 -0.0164,-0.006 -0.0202,-0.0027zm0.0959 0.0206c0.0085,0.005 0.0455,0.0117 0.0494,0.0058 0.0035,-0.0053 -0.011,-0.0062 -0.025,-0.0081 -0.0128,-0.0017 -0.0251,-0.005 -0.0244,0.0023zm-0.1083 0.1018c0.009,0.0053 0.0339,0.0093 0.0407,0.0019 -0.0022,-0.0076 -0.0105,-0.0022 -0.0178,-0.0033 -0.013,-0.0021 -0.0264,-0.0052 -0.0228,0.0014zm0.1829 0.2564c0.0039,-0.0221 -0.0021,-0.0441 -0.0034,-0.0661 -0.0148,0.0196 -0.0144,0.0341 0.0034,0.0661zm0.1083 0.0034c-0.0127,0.0323 0.0476,-0.0069 0.0054,-0.0662 -0.011,0.0238 0.0098,0.028 -0.0054,0.0662zm-0.2482 -0.077c-0.005,0.0198 0.0011,0.0747 0.0079,0.0728 0.0106,-0.0031 0.0088,-0.0433 -0.0079,-0.0728zm1.0789 0.524c-0.0722,0.0227 -0.1111,0.0949 -0.0821,0.0774 0.018,-0.0183 0.0364,-0.0366 0.058,-0.0506 0.011,-0.0074 0.0251,-0.008 0.036,-0.0153 0.0044,-0.0084 -0.0037,-0.0157 -0.0119,-0.0115zm-1.3094 -0.917c0.0687,-0.0036 0.1373,-0.0082 0.2054,-0.0183 -0.0278,0.0205 -0.0441,0.1202 -0.0431,0.1517 -0.0329,-0.0026 -0.0912,-0.0018 -0.1272,-0.009 0.0013,-0.0345 -0.0044,-0.0686 -0.003,-0.1031 -0.012,-0.0043 -0.0287,-0.0067 -0.0321,-0.0214zm0.0342 0.1291c0.0192,0.0092 0.0996,0.0121 0.127,0.013 -0.0079,0.0608 -0.0125,0.1214 -0.0137,0.1828 0.0001,0.0077 -0.045,0.1717 -0.0512,0.1787 -0.0061,-0.0101 -0.0147,-0.038 -0.0223,-0.0685 -0.0037,-0.0148 -0.0271,-0.1397 -0.0343,-0.1491 0.0064,-0.0269 0.0017,-0.1321 -0.0054,-0.1569zm0.087 0.7275c0.0116,0.0215 0.0253,0.0418 0.0395,0.0617 0.0253,0.0358 0.1393,0.3109 0.1856,0.3913 0.0482,0.0836 0.0871,0.1708 0.1386,0.253l-0.8296 0c0.01,-0.0134 0.2143,-0.3406 0.2382,-0.3779 0.0623,-0.0972 0.1308,-0.1983 0.2092,-0.2834 0.0115,-0.0121 0.0169,-0.0283 0.0185,-0.0447z"/>
  <path class="fil3" d="M0.9741 0.829c-0.0177,-0.0131 -0.0159,-0.0451 0.005,-0.0534 0.0255,0.0075 0.0494,0.0201 0.0749,0.028 0.0406,0.0128 0.0822,0.024 0.1247,0.0278 0.0018,0.0158 0.0013,0.0318 0.0014,0.0477 -0.0426,0.0016 -0.0848,-0.0031 -0.1267,-0.01 -0.0313,0.0004 -0.0563,-0.0215 -0.0792,-0.04zm0.4753 -0.0102c0.0558,-0.0081 0.111,-0.0203 0.1668,-0.0283 -0.0073,0.021 -0.0135,0.0425 -0.0206,0.0636 -0.0355,0.0038 -0.0834,0.0115 -0.1188,0.0177 -0.0567,0.0097 -0.1144,0.0109 -0.1718,0.0116 -0.0113,0.0008 -0.0208,-0.006 -0.0307,-0.0103 0.0001,-0.0126 0.0001,-0.0252 0,-0.0378 0.0645,-0.0007 0.113,-0.0103 0.1751,-0.0166zm0.3585 -0.0457c0.0355,0.0089 0.0654,0.0478 0.0683,0.0837 0.0021,0.018 -0.01,0.0339 -0.0261,0.0402 -0.0083,-0.0168 -0.0212,-0.0306 -0.039,-0.0371 -0.0029,-0.0287 0.0056,-0.0626 -0.0031,-0.0868zm-0.3166 0.1068c0.0344,-0.0075 0.0703,-0.0068 0.1038,-0.0187 0.0041,0.0228 -0.0125,0.0419 -0.0118,0.0644 -0.0466,0.0098 -0.1075,0.0175 -0.1555,0.022 -0.0374,0.0041 -0.075,0.0043 -0.1124,0.0088 0.0002,-0.03 0.0009,-0.0309 -0.0102,-0.0628 0.0623,-0.0008 0.1245,-0.0055 0.1862,-0.0138zm-0.4743 0.0189c0.0028,-0.009 0.0081,-0.017 0.0125,-0.0253 0.0489,0.012 0.0995,0.0143 0.1495,0.0168 0.0049,0.0232 0.0061,0.047 0.0039,0.0706 -0.0456,-0.0016 -0.0947,0.0059 -0.1364,-0.0173 -0.0151,-0.0096 -0.032,-0.0252 -0.0295,-0.0449z"/>
 </g>
</svg>
