<?xml version="1.0" encoding="UTF-8"?>
<!DOCTYPE svg PUBLIC "-//W3C//DTD SVG 1.1//EN" "http://www.w3.org/Graphics/SVG/1.1/DTD/svg11.dtd">
<!-- Creator: CorelDRAW 2020 (64-Bit) -->
<svg xmlns="http://www.w3.org/2000/svg" xml:space="preserve" width="104.695mm" height="81.4263mm" version="1.1" style="shape-rendering:geometricPrecision; text-rendering:geometricPrecision; image-rendering:optimizeQuality; fill-rule:evenodd; clip-rule:evenodd"
viewBox="0 0 3.8456 2.991"
 xmlns:xlink="http://www.w3.org/1999/xlink"
 xmlns:xodm="http://www.corel.com/coreldraw/odm/2003">
 <defs>
  <style type="text/css">
   <![CDATA[
    .fil0 {fill:#2B2A29}
    .fil4 {fill:#0245FD;fill-rule:nonzero}
    .fil2 {fill:#5A8D3E;fill-rule:nonzero}
    .fil3 {fill:#A55B36;fill-rule:nonzero}
    .fil1 {fill:white;fill-rule:nonzero}
   ]]>
  </style>
 </defs>
 <g id="Слой_x0020_1">
  <metadata id="CorelCorpID_0Corel-Layer"/>
  <path class="fil0" d="M0.579 0l0.2049 0c-0.056,0.0857 -0.13,0.1062 -0.2139,0.1469 0.1314,0.0524 0.3629,0.0371 0.3939,0.0927 0.014,0.0251 -0.0272,0.0495 -0.0398,0.0612 0.0406,-0.0001 0.045,0.0229 0.0732,0.0433 0.0234,0.0069 0.0513,0.0133 0.0586,0.0343 0.004,0.0114 -0.0252,0.0248 -0.0351,0.0272 0.0647,0.0329 -0.018,0.0594 -0.0229,0.0653 0.0448,0.0047 0.0935,-0.0019 0.1358,0.012l-0.0023 0.0284c-0.0972,0.0006 -0.287,0.0194 -0.1583,-0.0709l0.0007 -0.0063c-0.0106,-0.006 -0.0223,-0.0102 -0.0345,-0.0109 -0.0092,-0.0197 -0.0021,-0.04 0.0242,-0.0387l0.0013 -0.0051c-0.0406,-0.0059 -0.0899,-0.0017 -0.1133,-0.0278 -0.0113,-0.0126 -0.0083,-0.0389 0.0041,-0.0666 -0.1534,-0.0179 -0.272,-0.0001 -0.4993,-0.0636 -0.0012,-0.0812 0.165,-0.1754 0.2228,-0.2215zm3.0641 0.8598c0.0057,0.0001 0.0114,0.0002 0.0172,0.0003 -0.0004,0.0109 0.0023,0.0234 -0.0072,0.0313 -0.0001,0.0159 0.0001,0.0319 -0.0003,0.0478 -0.0416,0.0012 -0.0216,-0.0569 -0.0096,-0.0795zm-1.2891 -0.4157c0.1743,0.095 0.0864,-0.0119 0.2742,0.0667 0.0708,0.0296 0.336,0.0594 0.3896,0.2271 0.0187,0.0584 0.0285,0.1081 0.0608,0.1599 0.03,0.0022 0.178,-0.047 0.2532,0.1485 0.0668,0.1738 0.1638,0.3863 0.161,0.5734 -0.0008,0.1325 -0.0007,0.265 -0.0001,0.3976 -0.0323,0.3966 -0.0158,0.2882 -0.1239,0.6574 0.0247,0.0004 0.0494,0.0002 0.0742,0.0002 0.0025,-0.0902 -0.0087,-0.1616 0.1105,-0.1036 0.0052,0.03 0.0127,0.0628 0.0229,0.0915 0.0043,-0.0001 0.0087,-0.0002 0.0132,-0.0003 -0.0194,-0.1132 -0.0259,-0.2346 0.1234,-0.1358 0.0019,0.0109 0.0009,0.0221 0.0008,0.0331 -0.0325,0.0188 -0.019,0.0681 -0.0192,0.1024 0.0433,0.0011 0.109,-0.0019 0.1512,0.0087l0 0.3202 -3.8456 0 0 -0.2631c0.2519,-0.0001 0.539,0 0.7909,-0 -0.0011,-0.4555 0.3046,-0.3147 0.4772,-0.3257 0.164,-0.0105 0.1669,0.1173 0.239,0.1764 -0.0226,-0.1473 0.0251,-0.296 0.0327,-0.4447 0.0112,-0.2189 -0.0733,-0.6506 -0.1814,-0.8445 -0.0571,-0.1023 -0.1273,-0.1224 -0.0793,-0.2024 -0.0142,-0.015 0.0061,-0.1169 -0.0557,-0.2433 -0.0075,-0.0153 -0.0991,-0.2633 -0.1004,-0.2838 -0.0002,-0.0023 0.0885,-0.0735 0.105,-0.0411 0.0016,0.0116 0.0011,0.0233 0.0015,0.0349 0.051,0.0302 0.0751,0.1982 0.0995,0.2531 0.0153,-0.0149 0.0348,-0.0268 0.0569,-0.0259 0.0247,-0.0899 0.147,-0.0322 0.1855,-0.1048 0.0216,-0.0406 0.0419,-0.0534 0.0871,-0.0456 0.0652,-0.1652 0.2898,-0.2926 0.4475,-0.1708 0.0729,-0.0424 0.1723,-0.0549 0.2481,-0.0155zm1.3722 0.5726c0.0033,0.024 0.0008,0.0482 0.0019,0.0723l-0.0032 0.0055c-0.0109,0.0231 -0.0163,0.0188 -0.0372,0.0079 0.0082,-0.0262 0.0106,-0.0385 0.0113,-0.0667 -0.0174,-0.0138 -0.0103,-0.037 0.0272,-0.0191zm-0.1294 0.1563c0.0193,-0.0956 0.0308,0.0394 0.0337,0.0419 0.0239,0.0204 0.0509,0.0254 0.0667,0.0412 0.0582,0.0584 0.067,0.1377 0.0497,0.1803 -0.023,0.0566 -0.0866,0.0703 -0.087,0.0961 0.0001,0.0294 0.0047,0.0648 -0.0196,0.0865 0.0001,0.0065 0.0002,0.0131 0.0004,0.0196 0.0581,0.0506 0.077,0.1003 0.0836,0.1733 0.0165,0.0056 0.027,0.0438 0.0413,0.0562 0.0014,0.0274 0.0182,0.0816 0.0097,0.1115 -0.0264,0.0933 -0.1107,0.0826 -0.0928,0.1538 0.0041,-0.0003 0.0083,-0.0007 0.0125,-0.001 0.0046,0.0096 0.0061,0.0202 0.0065,0.0308 0.0607,0.0548 -0.0084,0.1061 0.0048,0.1836 0.0035,0.0147 0.0175,0.0265 0.0135,0.0427 -0.0106,0.0011 -0.0217,0.0011 -0.0307,-0.0053 0.0002,-0.0051 0.0004,-0.0101 0.0006,-0.0151 -0.0449,-0.031 0.0257,-0.1361 -0,-0.1795 -0.0084,-0.0091 -0.0198,-0.0164 -0.0229,-0.0292 -0.0223,-0.0063 -0.0294,-0.0298 -0.0445,-0.0444 0.0014,-0.0191 0.0005,-0.0251 0.0132,-0.0391 -0.0238,-0.0254 0.1084,-0.0845 0.0647,-0.1811 -0.0162,-0.0357 -0.0174,-0.0585 -0.0179,-0.0982 -0.0107,-0.0075 -0.0492,-0.0593 -0.0604,-0.0734 -0.017,-0.025 -0.0107,-0.0563 -0.0118,-0.0848 -0.1282,-0.2367 0.1555,-0.1892 0.0646,-0.3587 -0.0265,-0.0494 -0.0788,-0.0393 -0.0778,-0.1075z"/>
  <path class="fil1" d="M1.0707 2.5293c0.1056,0.0509 0.1463,0.1911 0.0831,0.2925 -0.0291,0.0033 -0.0797,0.0119 -0.1086,0.0204 -0.0332,0.0097 -0.0682,0.0348 -0.1012,0.0174 -0.013,0.0073 -0.028,0.0069 -0.0425,0.0081 0.0047,0.0048 0.0094,0.0098 0.0144,0.0145 -0.1202,0.0302 -0.1728,-0.453 0.0867,-0.4664 0.0226,-0.0025 0.311,0.0043 0.3304,0.0062 0.081,0.0175 0.2188,0.2521 0.1539,0.31 -0.0009,0.0731 -0.0257,0.0384 0.0185,0.0598 0.0019,-0.0047 0.0039,-0.0094 0.0059,-0.0141 0.1923,0.1502 -0.1248,0.1695 -0.1543,0.1146 -0.0347,0.0134 -0.0434,-0.0352 -0.0771,-0.0463 -0.0145,-0.0045 -0.0286,0.0097 -0.0292,0.0237 0.0294,0.0053 0.041,0.0155 0.0605,0.0385 -0.0379,0.0167 -0.2162,0.023 -0.255,0.0229 -0.0001,-0.0063 -0.0001,-0.0126 -0.0001,-0.0188 0.1585,0.0274 0.222,-0.3195 0.008,-0.414 -0.0771,-0.0341 -0.2037,0.0039 -0.2082,0.1008 0.0614,-0.0052 0.0562,-0.1468 0.215,-0.0696zm1.6148 0.2337c0.0543,-0.0244 0.1115,-0.0176 0.172,-0.0163 0.0014,0.0374 -0.0363,0.0833 -0.0256,0.1102 0.0087,0.0134 0.0306,0.0042 0.0382,0.0192 -0.0172,0.0217 -0.0294,0.0342 -0.0402,0.0602 0.0476,0.0311 0.0597,-0.0258 0.0876,-0.0013 0.0151,0.0132 0.0217,0.0612 0.0898,0.0172 0.012,-0.0073 0.0091,-0.022 0.0092,-0.0339 -0.037,0.0013 -0.0453,0.0347 -0.0735,0.0025 0.0433,-0.0054 0.0395,-0.0337 0.0398,-0.0721 -0.0601,-0.0275 0.003,-0.1029 0.0124,-0.1023 0.0316,-0.0002 0.0633,-0.0005 0.0949,0.0005 -0.0548,0.0837 -0.0188,0.0491 -0.0207,0.1369 -0.0008,0.0377 0.0135,0.0641 0.0334,0.0943 -0.337,0.0129 -0.6766,0.0008 -1.0139,0.0004 -0.0128,-0.0646 -0.1068,-0.0545 -0.158,-0.0416 -0.1079,0.0272 -0.0987,-0.0737 -0.2418,-0.0707 -0.0275,0.0006 -0.0601,0.0164 -0.0894,0.0193 0.0015,-0.0918 -0.0158,-0.0727 -0.0679,-0.1239 0.1064,-0.0083 0.0908,0.1769 0.2657,0.0564 0.027,-0.0186 0.096,-0.0646 0.1262,-0.0649 0.1282,0.0008 0.2564,-0.0006 0.3846,0.0007 0.0413,0.0172 0.094,0.1883 0.2546,0.0891 0.0413,-0.0255 0.0783,-0.0582 0.1225,-0.0798zm0.1149 0.1304c-0.0111,0.0101 -0.0107,0.0218 0.0058,0.0266 0.0123,-0.0079 0.0131,-0.0335 -0.0058,-0.0266zm-0.0383 0.0331c-0.0221,0.008 -0.0033,0.0346 0.016,0.0176 -0,-0.0026 -0.0001,-0.0077 -0.0001,-0.0103 -0.005,-0.0029 -0.0096,-0.0086 -0.0159,-0.0073zm-2.4451 -0.1683c0.0791,0.0176 0.3772,0.002 0.4787,0.0022 0.009,0.0158 0.0139,0.0412 0.0188,0.0583 -0.0664,-0.0129 -0.1582,0.0221 -0.2203,0.0095 -0.049,-0.0099 0.0135,-0.0653 -0.2068,-0.0492 -0.0312,-0.0014 -0.061,0.0127 -0.0923,0.0064 0.0211,-0.0095 0.0162,-0.0042 0.0219,-0.0272zm0.6178 0.1276l0.0637 0.0179c-0.0153,0.0022 -0.0308,0.0019 -0.0462,0.0009 -0.0052,-0.0069 -0.0111,-0.0131 -0.0175,-0.0188zm0.2267 -2.3148c0.0124,-0.0035 0.0355,-0.0203 0.0468,-0.0265 0.0122,0.0382 0.045,0.1375 0.0649,0.1667 -0.0132,0.0057 -0.0378,0.0195 -0.0485,0.0291 -0.0086,-0.0158 -0.0657,-0.1493 -0.0631,-0.1693zm1.7568 2.2877c0.0137,0.0002 0.0259,0.0074 0.0393,0.0095 -0.0055,0.015 -0.0077,0.0321 -0.0216,0.042 -0.0188,-0.0086 -0.0397,-0.0033 -0.0596,-0.0056 0.0112,-0.0123 0.0263,-0.0204 0.0408,-0.0283 0.0003,-0.0059 0.0006,-0.0118 0.0011,-0.0176zm-1.1574 -2.2431c0.0391,-0.0159 0.2106,-0.009 0.2364,0.0297 0.0202,0.0303 0.0382,0.0501 0.0311,0.0887 -0.0104,0.0564 -0.0455,0.0861 -0.058,0.1194 -0.0169,0.0452 -0.1254,0.0479 -0.1643,0.0462 -0.0732,-0.0031 -0.1439,-0.0228 -0.1262,-0.1127 0.0151,-0.0773 0.0345,-0.1233 0.081,-0.1713zm-0.0243 0.1274c-0.0234,0.039 -0.0246,0.0785 0.0485,0.0954 0.0642,0.0148 0.1297,-0.0237 0.1553,-0.0816 0.0078,-0.0177 0.0103,-0.0393 -0.01,-0.0713 -0.011,-0.0173 -0.0522,-0.0171 -0.0711,-0.024 -0.0511,-0.013 -0.0995,0.043 -0.1226,0.0815zm0.7961 -0.0879c0.1663,0.0294 0.098,0.2606 -0.0332,0.2768 -0.0496,0.0061 -0.1014,-0.0009 -0.1377,-0.0071 -0.0647,-0.0111 -0.0761,-0.0225 -0.0778,-0.0908 -0.001,-0.0397 0.0063,-0.0728 0.0328,-0.101 0.0601,-0.0642 0.106,-0.0973 0.2159,-0.0779zm-0.175 0.1109c-0.0143,0.0118 -0.0295,0.0573 -0.023,0.0762 0.0107,0.0312 0.0725,0.0419 0.1245,0.0341 0.0831,-0.0125 0.0686,-0.1142 0.0237,-0.1332 -0.0488,-0.0207 -0.0716,-0.0257 -0.1252,0.0229zm-1.0353 2.0022c-0.0069,0.0366 0.0171,0.0373 0.0294,0.0671 0.077,0.0298 0.0693,0.0243 0.1443,0.0162 -0.0156,-0.0324 -0.0681,-0.0013 -0.1172,-0.0351 -0.0329,-0.0226 -0.0165,-0.0471 -0.0564,-0.0482z"/>
  <path class="fil2" d="M2.1685 0.5238c-0.011,-0.0159 -0.0203,-0.0333 -0.0346,-0.0467 0.066,-0.0336 0.2104,-0.0552 0.26,0.0224 -0.0615,0.0508 -0.1116,0.0161 -0.1796,0.1425 -0.0144,0.0266 -0.0539,0.0806 -0.0279,0.1044 0.0287,-0.211 0.3592,-0.315 0.5097,-0.1684 0.027,0.0263 0.0356,0.0542 0.0538,0.086 0.0098,-0.0435 -0.0018,-0.0725 -0.031,-0.1013 0.0643,-0.0039 0.1213,0.047 0.1785,0.0807 0.0989,0.0583 0.1989,0.352 0.151,0.3761 -0.0344,-0.0275 0.0074,-0.2093 -0.0951,-0.1191 -0.0076,-0.0408 -0.0165,-0.0554 -0.0609,-0.0663 -0.0136,-0.0033 -0.0216,0.0002 -0.0559,0.0363 -0.0249,0.0263 0.0264,0.204 0.0201,0.2475 -0.0311,-0.0414 -0.0605,-0.0592 -0.1119,-0.0533 -0.001,-0.0382 -0.0005,-0.0764 -0.0004,-0.1146 0.0001,-0.0574 0.0073,-0.0464 -0.0253,-0.0902 -0.0122,-0.0164 -0.0203,-0.0242 -0.0556,-0.0039 -0.0795,0.0456 -0.0379,0.1456 -0.0249,0.2155 -0.1463,0.0049 -0.2932,0.0182 -0.4378,0.0403 -0.132,0.0202 -0.2462,0.0595 -0.3747,-0.0072 0.0595,-0.1447 -0.0324,-0.1111 -0.1984,-0.1806 -0.0366,-0.0153 -0.0714,-0.039 -0.11,-0.0314 0.0148,-0.0213 0.106,-0.0597 0.1082,-0.0714 0.0278,-0.1475 0.1001,-0.3479 0.2589,-0.3776 0.1885,-0.0353 0.334,0.1522 0.2837,0.0805zm-0.3478 2.2532c-0.0674,0.0288 -0.0917,0.0621 -0.1346,0.0465 -0.092,-0.0336 -0.1548,-0.1814 -0.1582,-0.2718 -0.003,-0.0787 0.0026,-0.185 0.0054,-0.2129 0.0067,-0.0362 0.0192,-0.0716 0.0218,-0.1085 0.0011,0 0.0032,-0 0.0043,-0 0.0025,0.11 0.0535,0.2556 0.0481,0.3508 -0.0011,0.0133 0.0146,0.0139 0.024,0.0145 0.0112,-0.095 -0.0316,-0.192 -0.045,-0.283 -0.0231,-0.1576 -0.0094,-0.4942 -0.0746,-0.622 -0.0333,-0.0653 0.0387,-0.1282 -0.0941,-0.3593 -0.0162,-0.0282 -0.1179,-0.172 -0.1198,-0.1858 -0.0046,-0.0333 0.0129,-0.0714 0.0267,-0.1133 0.0203,-0.0556 0.082,-0.2677 0.1122,-0.2774 0.0967,-0.0314 0.1045,-0.0034 0.1788,-0.0944 0.0222,-0.0272 0.0274,0.0118 0.0204,0.0285 -0.0042,0.0107 -0.0171,0.0134 -0.0228,0.0228 -0.0311,0.0905 0.0199,0.0392 -0.1313,0.1184 -0.0527,0.0276 -0.0556,0.0779 -0.062,0.1334 -0.0481,0.018 -0.0473,0.0905 -0.0659,0.1219 0.0439,-0.0038 0.0603,-0.0571 0.0682,-0.0989 0.0443,-0.0085 0.0667,-0.0653 0.119,-0.0729 0.0327,0.0266 0.2632,0.0815 0.2767,0.1068 0.0258,0.1955 -0.2524,-0.0628 -0.306,-0.0171 -0.0395,0.0337 -0.0446,0.0778 -0.0635,0.1212 0.0138,0.0233 -0.0002,0.0744 0.1163,0.1511 0.2181,0.1435 0.1034,0.2898 0.1239,0.3217 0.0235,-0.0363 0.0458,-0.004 0.0436,-0.1145 0.0649,0.0055 0.0042,0.0935 0.0071,0.1329 0.0099,0.1321 -0.0045,0.2556 0.0279,0.3853 0.0114,0.0457 0.0776,0.135 0.0778,0.179 0.0002,0.0512 0.0741,0.1302 0.1089,0.2162 0.0552,0.1364 0.0124,0.3188 -0.1333,0.3811zm1.0852 -0.6362c-0.0415,0.1108 -0.1093,0.3128 -0.1191,0.3516 -0.0388,0.1537 -0.0284,0.2096 -0.1879,0.2904 -0.1286,0.0652 -0.1701,0.1255 -0.2753,-0.0717 -0.1133,-0.2123 -0.0192,-0.4199 0.0274,-0.6005 0.0417,-0.1614 0.0381,-0.3029 0.0368,-0.462 -0.0005,-0.0669 0.0097,-0.1103 0.0195,-0.1362 0.0728,-0.0334 0.1404,-0.1487 0.2484,-0.1714 0.0455,-0.0708 0.0357,-0.1522 0.0118,-0.2341 -0.0092,-0.0315 -0.0421,-0.1997 -0.0065,-0.2154 0.1167,-0.1009 0.049,0.2142 0.0711,0.3214 0.0037,0.0179 -0.0101,0.1298 -0.009,0.1561 0.0171,0.0051 0.0343,-0.0089 0.0366,-0.0494 0.0115,-0.007 0.0225,-0.0158 0.0364,-0.0173 0.0247,-0.1041 0.1283,-0.1723 0.0714,-0.2849 -0.0151,-0.03 -0.0332,-0.1922 0.0429,-0.1567 0.0156,0.0073 0.0695,0.2775 -0.055,0.4027 -0.0126,0.0131 -0.0243,0.027 -0.0355,0.0412 0.0109,0.0174 -0.0074,0.0333 -0.0164,0.0469 0.0383,0.0424 0.0924,-0.103 0.1167,-0.1295 0.0668,-0.0729 0.0341,-0.2019 0.0373,-0.2908 0.0156,-0.0121 0.0248,-0.0247 0.0446,-0.026 0.0001,0.0203 0.0007,0.0618 0.0145,0.076 -0.006,0.2166 0.0052,0.1702 -0.1279,0.3423 -0.0142,0.0183 -0.0013,0.0426 0.0217,0.0397 0.0002,-0.0104 -0.0004,-0.0209 0.0013,-0.0312 0.05,0.0009 0.0707,-0.0715 0.1243,-0.0772 0.0007,-0.0468 -0.0044,-0.1816 0.0241,-0.2094 0.0026,0.0054 0.0471,0.225 0.0342,0.2378 -0.0291,0.0289 -0.2679,0.13 -0.3433,0.1978 -0.0144,0.013 -0.0257,0.0176 -0.044,0.0145 -0.0211,0.1295 -0.1982,0.0301 -0.2417,0.1249 0.0591,0.0071 0.125,-0.0268 0.1867,-0.0245 0.0003,0.0431 -0.0869,0.3013 -0.0497,0.4286 0.0342,0.1172 0.0149,0.3679 0.0167,0.4965 0.0003,0.0234 -0.0188,0.0452 0.0179,0.0481 0.0409,-0.2023 -0.0093,-0.3754 -0.0112,-0.5633 -0.0009,-0.0903 0.2065,-0.4057 0.1931,-0.5336 -0.0039,-0.0375 0.2994,-0.1405 0.3101,-0.1896 0.0117,-0.0536 -0.0206,-0.1015 -0.0312,-0.1517 -0.0059,-0.0278 -0.0216,-0.1984 -0.005,-0.204 0.2193,-0.0739 0.3286,0.3298 0.1719,0.6047 -0.0285,0.05 -0.0828,0.1478 -0.1355,0.2166 -0.1445,0.1887 -0.1448,0.1839 -0.2231,0.3927zm-1.1199 -0.6319c0.1676,0.1134 0.1052,0.2849 0.1007,0.4312 -0.0056,0.1836 0.0448,0.0776 0.0095,0.2904 -0.0522,-0.0441 -0.103,-0.2608 -0.1143,-0.3406 -0.0093,-0.0663 -0.0205,-0.1568 -0.0157,-0.2947 0.0029,-0.0003 0.0087,-0.0009 0.0116,-0.0012 -0.0027,-0.029 0.0118,-0.0559 0.0081,-0.085zm0.1347 -0.0409c0.0068,0.0067 0.0316,0.0335 0.038,0.0248 -0.0211,-0.0196 -0.0319,-0.0469 -0.0484,-0.07 -0.0217,0.0101 0.0021,0.0304 0.0104,0.0452zm-0.4519 -0.5994c0.0203,-0.0162 0.0459,-0.0225 0.0706,-0.0285 -0.0076,0.0127 -0.0837,0.0907 -0.0946,0.0928 0.0105,-0.0204 0.0174,-0.0424 0.0239,-0.0643zm-0.1014 -0.0561c-0.0162,0.0583 -0.0509,0.1455 -0.0623,0.1921 -0.0179,-0.0412 0.0161,-0.1848 0.0623,-0.1921zm0.1441 0.2358c0.019,-0.0304 0.0539,-0.0267 0.0768,0.0016 -0.0475,0.0058 -0.0617,0.0226 -0.1026,0.0429 0.0074,-0.0153 0.0097,-0.0354 0.0258,-0.0445zm0.5257 -0.2542c0.0982,-0.2424 -0.2388,-0.2227 -0.2719,-0.2128 -0.0805,0.0239 -0.2054,0.3245 0.0072,0.344 0.0936,0.0002 0.1262,0.0152 0.204,-0.0414 -0.0068,0.0315 -0.0488,0.0568 -0.0801,0.0607 -0.0405,0.0011 -0.0791,-0.0083 -0.1113,0.0172 0.0082,0.0068 0.1373,0.0205 0.1449,0.0161 0.0256,-0.0151 0.0442,-0.0549 0.0664,-0.0681 0.0297,-0.0176 0.0745,-0.0217 0.0913,-0.0508 -0.0216,0.0034 -0.0426,0.0097 -0.0639,0.0148 -0.007,-0.0728 -0.0045,-0.0349 0.0134,-0.0797zm0.2325 -0.0306c-0.0252,0.0474 -0.0223,0.0924 -0.0221,0.1749 0.0002,0.1012 0.2469,0.0961 0.2992,0.0693 -0.0013,-0.0306 -0.0617,-0.0171 -0.0841,-0.0163 -0.0855,0.003 -0.1965,0.0062 -0.1888,-0.0727 0.4057,0.2099 0.5301,-0.3576 0.1577,-0.2911 -0.0815,0.0228 -0.1221,0.0612 -0.1618,0.1359zm-0.291 0.2546c-0.0047,0.0063 -0.0095,0.0126 -0.0142,0.019 0.0237,0.0135 0.0421,0.0409 0.0718,0.0409 -0.0024,-0.0353 -0.0208,-0.0554 -0.0576,-0.0599zm0.1593 0.002c-0.0259,0.0179 -0.0418,0.0509 -0.0051,0.0574 0.022,-0.0453 0.0548,-0.0135 0.0548,-0.051 -0.0153,-0.0078 -0.0329,-0.0101 -0.0497,-0.0065zm0.3874 0.2769c0.0341,-0.0174 0.0935,-0.0035 0.1309,0.0004 -0.0634,0.0591 -0.2626,0.1289 -0.2772,0.2279 -0.0405,-0.0352 -0.1617,0.0504 -0.2736,0.0625 -0.255,0.0276 -0.2564,-0.1192 -0.3722,-0.1331 -0.0179,-0.0525 -0.0267,-0.0907 -0.0744,-0.1263 -0.0056,-0.0036 -0.0056,-0.0097 -0.0052,-0.0156 0.1346,0.1157 0.5344,0.0983 0.6969,0.0484 0.0574,-0.0176 0.1218,-0.038 0.1748,-0.0642zm-0.1771 0.2443c0.0079,-0.0041 0.0167,-0.0062 0.0257,-0.0061 0.0023,0.0353 -0.0263,0.0928 -0.0661,0.1086 -0.0607,0.0241 -0.2037,0.0413 -0.252,-0.0255 0.0453,-0.0161 0.1815,-0.0224 0.2924,-0.077z"/>
  <path class="fil3" d="M1.5336 1.089c0.1089,-0.0592 0.3801,0.1254 0.5465,0.0771 0.1016,-0.0295 0.4406,-0.0665 0.5571,-0.0676 0.0069,0.0213 0.009,0.0436 0.0145,0.0652 -0.0311,-0.0039 -0.3336,0.0608 -0.3826,0.0681 -0.0188,0.0032 -0.0335,0.0198 -0.0533,0.0187 -0.2577,-0.0071 -0.2156,0.0235 -0.4498,-0.0407 -0.0851,-0.0233 -0.1205,-0.0372 -0.2123,-0.0391 0.0002,0.01 -0.0003,0.0203 0.0023,0.0301 0.1378,-0.0197 0.2305,0.0772 0.3565,0.0763 0.1036,-0.0002 0.2072,-0.0001 0.3108,-0.0001 0.0224,0.0004 0.0917,-0.027 0.121,-0.0325 0.0613,-0.0115 0.2691,-0.0551 0.3204,-0.0533 -0.0018,0.0263 0.0053,0.0545 -0.0076,0.0788 -0.116,-0.0041 -0.1816,-0.0039 -0.2896,0.055 -0.074,0.0403 -0.4461,0.0718 -0.5126,0.0339 -0.0282,-0.0161 -0.2315,-0.0877 -0.2419,-0.0814 -0.0062,-0.0019 -0.1319,-0.0941 -0.133,-0.142 0.0219,-0.0106 0.0347,-0.0321 0.0535,-0.0465zm0.3307 -0.2925c0.1236,-0.09 -0.0184,-0.1185 -0.0517,-0.0901 -0.1183,0.1006 0.0078,0.1221 0.0517,0.0901zm-0.0289 -0.0822c0.0214,-0.0046 0.0656,0.0064 0.0328,0.0461 -0.0187,0.0227 -0.059,0.0338 -0.0721,0.0235 -0.0391,-0.0309 0.0187,-0.0692 0.0393,-0.0696zm1.874 1.9797c0.0285,0.0214 0.0676,0.0279 0.1017,0.0373 0.0006,-0.0099 0.0006,-0.0199 0.0002,-0.0299 -0.0342,-0.0007 -0.0679,-0.0108 -0.1019,-0.0074zm-0.2237 0.145c-0.0095,-0.0278 -0.0238,-0.05 -0.0259,-0.0797 -0.0182,0.0086 -0.0541,0.017 -0.0583,-0.011 0.0093,-0.0167 0.025,-0.0218 0.0413,-0.0268 -0.0081,-0.0078 -0.0187,-0.0165 -0.0271,-0.0163 -0.0061,0.0002 -0.0133,0.0024 -0.0197,0.003 -0.0119,0.0011 -0.0237,-0.0005 -0.0352,-0.0033 -0.0198,0.0253 -0.0308,0.0545 -0.0508,0.0799 0.0092,0.0004 0.0185,0.0007 0.0276,-0.0006 0.0097,-0.015 0.0169,-0.034 0.0395,-0.031 0.0311,0.0443 -0.0943,0.1307 -0.1603,0.0307 -0.0138,0.0039 -0.0393,0.0105 -0.0356,0.0296 0.008,0.0408 0.1541,0.0626 0.1873,0.0678 0.0426,0.0066 0.0853,0.0118 0.128,0.0178 0.0315,0.0044 0.0743,0.0001 0.0782,0.0361 0.0174,-0.017 0.0394,-0.0256 0.0635,-0.0294 -0.0092,-0.0006 -0.018,-0.0047 -0.0241,-0.0126l-0.1554 -0.0073c-0.0194,-0.0279 0.0036,-0.0369 0.0272,-0.0469zm0.2511 0.0682c0.0264,0.0026 0.0521,0.0053 0.0745,0.0042 0.0012,-0.0259 0.0033,-0.0521 0.0037,-0.0779 0.0005,-0.0323 -0.0028,-0.0434 -0.0319,-0.0587 -0.0146,-0.0076 -0.0302,-0.0144 -0.0455,-0.0211 0.0101,0.0476 -0.0194,0.0718 -0.0477,0.1092 0.012,0.0226 0.0668,0.0033 0.0817,-0.0066 0.0134,-0.0017 0.0224,0.0024 0.028,0.0148 -0.007,0.0167 -0.0338,0.0301 -0.0628,0.0359zm-0.543 -0.1601c-0.0014,-0.0058 -0.0032,-0.0139 -0.0045,-0.0208 -0.0182,0.012 -0.0417,0.0181 -0.0526,0.035 -0.0136,0.021 -0.0394,0.0268 -0.0451,0.0498 0.0075,0.0024 0.014,0.0079 0.0196,0.0133 0.0102,0.01 0.0196,0.0216 0.0294,0.0322 0.0322,0.0347 0.0664,0.0595 0.1106,0.0775 0.0075,0.0114 0.0041,0.0258 0.0037,0.0389 0.0944,0.0009 0.1888,-0.0003 0.2832,-0.0024 -0.0025,-0.0081 -0.0046,-0.0163 -0.0061,-0.0247 -0.0419,-0.0097 -0.0859,-0.0172 -0.1282,-0.0242 -0.0272,-0.0045 -0.0545,-0.0087 -0.0818,-0.0122 -0.0504,-0.0063 -0.0422,0.0008 -0.0865,-0.0224 -0.0309,-0.0162 -0.1038,-0.0468 -0.1058,-0.083 -0.0016,-0.029 0.0395,-0.0476 0.0643,-0.057zm0.0469 0.2258c-0.0559,-0.011 -0.1065,-0.0443 -0.1388,-0.0911 -0.0002,0.0339 0.0289,0.0575 0.0416,0.089 0.0324,0.001 0.0648,0.0016 0.0972,0.002zm0.347 -0.2315c0.0029,0.0301 0.0007,0.0604 0.0005,0.0906 0.0123,-0.0096 0.0248,-0.019 0.038,-0.0273 0.0009,-0.0214 -0.0003,-0.0429 -0.0064,-0.0635 -0.0107,-0.0001 -0.0214,-0.0002 -0.0321,0.0003zm0.1888 0.2177c-0.0113,0.0029 -0.0113,0.0031 -0.0106,0.0119 0.0152,0.0004 0.0303,0.0003 0.0455,0.0002 0.0001,-0.0059 0.0001,-0.0118 -0.0002,-0.0177 -0.0114,0.0027 -0.0228,0.0052 -0.0347,0.0055zm-1.2968 -2.156c-0.0063,-0.0647 -0.0868,-0.0688 -0.1086,-0.001 -0.0241,0.0751 0.1164,0.0811 0.1086,0.001zm-0.0132 -0.0133c0.0037,0.0289 -0.0261,0.0524 -0.0557,0.0429 -0.0198,-0.0063 -0.0372,-0.0424 0.0039,-0.0565 0.0268,-0.0093 0.0499,-0.0012 0.0518,0.0136zm-1.639 2.0438c-0.0399,-0.0411 -0.1772,0.0209 -0.2354,0.0015 -0.0597,-0.0198 0.0047,-0.0642 -0.2039,-0.0488 -0.0398,0.0029 -0.0759,0.0099 -0.1165,0.0017 0.0162,-0.0072 0.033,-0.009 0.0369,-0.0251 -0.0471,-0.0117 -0.2079,0.0049 -0.2659,0.0045l0 0.2038c0.6793,-0.0001 1.3587,0.0075 2.038,0.0071 -0.0072,-0.0493 -0.1494,-0.0279 -0.2038,-0.0292 -0.0575,-0.0014 -0.0804,-0.0905 -0.2203,-0.0639 -0.0372,0.0071 -0.085,-0.0053 -0.0607,0.0388 -0.0948,0.0041 -0.1258,0.0466 -0.2544,0.0222 -0.1421,-0.027 -0.2065,0.0889 -0.5069,-0.0399 0.0294,-0.0063 0.053,-0.0042 0.0828,0.0004 0.012,0.0364 0.0973,0.0167 0.1316,0.019 -0.0002,-0.0204 -0.0831,-0.0129 -0.1002,-0.0141 -0.0278,-0.0368 -0.0639,-0.005 -0.0887,-0.0509l-0.0267 0.0032 -0.0058 -0.0303zm-0.3572 -0.0076c-0.0153,0.0008 -0.0308,-0.0097 -0.0446,-0.0151 0.0257,-0.0129 0.0444,-0.0124 0.0722,-0.0074 -0.0068,0.0065 -0.0177,0.022 -0.0276,0.0225zm0.5262 0.0697c0.0441,-0.0046 0.0848,-0.0247 0.1299,-0.025 0.0046,-0.0063 0.0123,-0.0274 0.017,-0.0409 -0.0278,0.0014 -0.1653,0.0385 -0.1803,0.0577 0.0108,0.0037 0.0223,0.0057 0.0334,0.0082zm0.2584 -2.1415c0.0114,-0.002 0.0192,-0.0113 0.0298,-0.0151 0.0122,0.0316 0.007,0.0561 0.029,0.0824 -0.0145,0.0268 -0.0225,0.0491 -0.0283,0.0796 -0.019,-0.0227 -0.0689,-0.1272 -0.0304,-0.1468zm2.3964 1.7558c0.0114,0.0256 0.0054,0.0085 0.0366,0.026 -0.0068,0.007 -0.0137,0.0139 -0.0208,0.0206 -0.0008,0.0284 0,0.0569 -0.0003,0.0853 0.0002,0.0245 -0.0095,0.0015 -0.0056,0.0665 -0.0175,-0.0001 -0.0062,-0.0143 -0.0351,-0.0157 0.0024,-0.0072 0.0049,-0.0144 0.0076,-0.0215 -0.0367,-0.0381 -0.0076,-0.0074 -0.0279,-0.0556 -0.0098,-0.0215 -0.0059,-0.0457 -0.0056,-0.0685 0.0137,-0.0242 0.0272,-0.0292 0.051,-0.0371zm-0.1836 0.0718c0.0577,-0.005 0.055,-0.0036 0.0681,0.0327 0.0165,0.0458 -0.0146,0.0543 0.0174,0.0762 0.0003,0.0032 0.0009,0.0095 0.0012,0.0126 -0.0045,0.0017 -0.009,0.0034 -0.0135,0.0052 -0.002,0.0154 0.0108,0.0257 0.0148,0.0395 -0.0357,0.0162 -0.0286,0.0238 -0.0531,0.0247 -0.0019,-0.0173 -0.005,-0.0344 -0.01,-0.0511 -0.0263,-0.0081 -0.0144,-0.0313 -0.0196,-0.0531 -0.0105,-0.0277 -0.0048,-0.0579 -0.0054,-0.0868zm-0.5617 0.0875c0.0126,-0.0035 0.0257,-0.0054 0.0385,-0.0083 0.0161,0.0432 0.0254,0.0577 0.0027,0.1042 -0.0098,0.02 -0.0243,0.0341 -0.0205,0.0674 -0.0106,-0.0001 -0.0212,-0.0001 -0.0317,0.0001 -0.0173,0.006 0.0042,0.0188 -0.0385,0.0051 0.0189,-0.0098 0.0249,-0.0327 0.0274,-0.0522 0.0002,-0.0384 0.0155,-0.0787 0.0221,-0.1164zm-0.1538 -1.4247c-0.0015,-0.0182 -0.0022,-0.0369 0.0024,-0.0548 0.0215,0.0078 0.0367,0.0124 0.0502,0.0321 -0.0095,0.0234 -0.0228,0.0475 -0.0447,0.0615 -0.0015,-0.0132 -0.0052,-0.0259 -0.0079,-0.0388zm-0.0064 -0.1534c0.047,-0.0003 0.0793,0.0097 0.0979,0.0592 -0.0074,0.0149 -0.0151,0.0296 -0.0207,0.0453 -0.0403,-0.0569 -0.0803,0.0089 -0.0771,-0.1045z"/>
  <path class="fil4" d="M3.37 1.236c0.1096,0.1888 0.0961,0.5054 0.0968,0.6364 0.0014,0.292 -0.0499,0.5818 -0.1197,0.7724 -0.0129,0.0353 -0.0733,0.0921 -0.1075,0.094 -0.0073,-0.0163 -0.0186,-0.0237 -0.0277,-0.0383 -0.0711,-0.0022 -0.1472,0.0122 -0.2209,0.0123 -0.0069,-0.0996 -0.111,-0.1 -0.1219,0 -0.0973,0.0007 -0.0583,0.0092 -0.1203,0.0005 -0.0005,-0.0036 0.1334,-0.429 0.1365,-0.4381 0.0399,-0.1183 0.1017,-0.29 0.123,-0.3056 0.0002,-0.0017 0.1942,-0.2931 0.2206,-0.3336 0.0412,-0.0632 0.0875,-0.128 0.1115,-0.1909 0.0261,-0.0683 0.0165,-0.1385 0.0295,-0.2091zm-1.0753 1.4836c-0.1174,-0 -0.2348,0.0006 -0.3522,-0.0003 0.0929,-0.0594 0.1133,-0.6672 0.0709,-0.8029 -0.0235,-0.0751 -0.079,-0.2448 -0.0747,-0.3156 0.0287,-0.0007 0.1343,0.0527 0.1623,0.067 0.0582,0.0296 0.1278,0.0493 0.2519,-0.0114 0.0169,0.3302 -0.0433,0.4404 -0.0719,0.5366 -0.0211,0.0707 -0.0231,0.2353 -0.0313,0.3366 -0.01,0.1235 -0.0142,0.0634 0.045,0.19zm0.8244 -0.8188c-0.0272,0.0475 -0.0156,0.1068 -0.0165,0.1618 0.1023,0.0717 0.0986,-0.1631 0.0165,-0.1618zm-0.1404 0.2564c-0.0349,0.1366 0.0686,0.1175 0.0494,0.0012 -0.016,-0.0047 -0.033,-0.0024 -0.0494,-0.0012zm0.099 0.1386c-0.0092,0.0416 -0.0022,0.0659 0.0379,0.0656 -0.0003,-0.0576 0.0155,-0.0656 -0.0379,-0.0656zm-0.2902 -0.8066c0.0319,0.0319 -0.1614,0.4286 -0.1617,0.4286 -0.0012,-0.0643 0.0541,-0.3346 0.0576,-0.3379 0.0306,-0.0288 0.0643,-0.0748 0.1041,-0.0907zm-0.6637 0.3218c-0.0095,0.0287 -0.0284,0.0565 -0.0215,0.0881 0.1668,0.0163 0.0421,-0.1647 0.0215,-0.0881z"/>
 </g>
</svg>
