<?xml version="1.0" encoding="UTF-8"?>
<!DOCTYPE svg PUBLIC "-//W3C//DTD SVG 1.1//EN" "http://www.w3.org/Graphics/SVG/1.1/DTD/svg11.dtd">
<!-- Creator: CorelDRAW 2020 (64-Bit) -->
<svg xmlns="http://www.w3.org/2000/svg" xml:space="preserve" width="59.5071mm" height="81.4261mm" version="1.1" style="shape-rendering:geometricPrecision; text-rendering:geometricPrecision; image-rendering:optimizeQuality; fill-rule:evenodd; clip-rule:evenodd"
viewBox="0 0 1.221 1.6707"
 xmlns:xlink="http://www.w3.org/1999/xlink"
 xmlns:xodm="http://www.corel.com/coreldraw/odm/2003">
 <defs>
  <style type="text/css">
   <![CDATA[
    .fil0 {fill:#2B2A29}
    .fil2 {fill:#FEFEFE;fill-rule:nonzero}
    .fil5 {fill:#0245FD;fill-rule:nonzero}
    .fil1 {fill:#5A8D3E;fill-rule:nonzero}
    .fil3 {fill:#A55B36;fill-rule:nonzero}
    .fil4 {fill:#CF0C0E;fill-rule:nonzero}
   ]]>
  </style>
 </defs>
 <g id="Слой_x0020_1">
  <metadata id="CorelCorpID_0Corel-Layer"/>
  <path class="fil0" d="M0.5864 0.0061c0.097,-0.0175 0.2177,0.0002 0.2805,0.0841 0.0233,0.0312 0.0338,0.0094 0.0706,0.0355 0.0467,0.0332 0.0501,0.0754 0.0057,0.1039 0.0042,0.0075 0.0082,0.0153 0.0077,0.0242 -0.0011,0.0175 0.0176,0.0197 0.0164,0.0711 0.0293,0.0073 0.0304,0.0276 0.0205,0.0557 0.0051,0.0104 0.0062,0.022 0.0084,0.0331 0.0237,0.0403 0.0359,0.0874 0.0335,0.1342 0.0398,-0.0002 0.0532,0.0492 0.0444,0.0693 -0.0089,0.0189 -0.0294,0.0278 -0.0466,0.0375 0.009,0.1385 -0.0555,0.1287 -0.0468,0.291 0.004,0.075 0.0328,0.1435 0.087,0.1961 0.0005,-0.0169 -0.0159,-0.0753 -0.0011,-0.1203 0.005,-0.0153 -0.0188,-0.0208 -0.0233,-0.0347 -0.0137,-0.0417 0.0604,-0.0508 0.0604,-0.0508 0.0145,-0.0144 0.0366,-0.0145 0.0557,-0.0139 0.0481,0.0027 0.0422,0.0429 0.0394,0.0991 -0.0081,0.157 0.0154,0.1507 0.022,0.2537 0.0048,0.0746 -0.063,0.0771 -0.1198,0.0728 0.0441,0.0634 0.1169,0.1926 0.1183,0.2736 0.0008,0.0437 -0.1111,0.0434 -0.1443,0.0451 -0.1329,0.0052 -0.266,0.0034 -0.399,0.0037 -0.1033,0 -0.4589,0.006 -0.5487,-0.022 -0.0477,-0.0149 -0.0353,-0.0353 -0.0357,-0.0648 -0.0029,-0.2127 -0.1003,-0.4061 -0.0909,-0.771 0.0054,-0.2116 0.0958,-0.2845 0.1027,-0.5072 0.0022,-0.0703 -0.0124,-0.1889 0.0638,-0.2349 0.0827,-0.0498 0.2229,-0.0358 0.3151,-0.0172 0.0315,-0.0217 0.0662,-0.0399 0.1042,-0.0469z"/>
  <path class="fil1" d="M0.8538 0.0962c0.0242,0.0307 0.0275,0.0188 0.0599,0.0327 0.0826,0.0354 0.0315,0.0979 0.0125,0.0878 -0.0311,-0.0145 -0.0661,-0.0139 -0.0997,-0.0153 -0.0647,-0.0009 -0.133,0.0063 -0.1886,0.0424 -0.0108,-0.0224 -0.0026,-0.0477 -0.0038,-0.0715 -0.0277,-0.0009 -0.0167,0.0634 -0.0068,0.0805 -0.0165,0.0158 -0.0204,0.0117 -0.0088,0.028 0.0485,-0.0492 0.1073,-0.0639 0.1772,-0.0653 0.0323,-0.0007 0.1227,-0.0076 0.1394,0.0299 -0.0718,-0.0416 -0.2933,-0.0279 -0.2923,0.0344 -0.0002,0.0202 0.011,0.0379 0.0175,0.0564 -0.0242,0.0109 -0.0415,0.0193 -0.0219,0.0481 0.0102,0.0137 0.0248,0.0234 0.0393,0.0321 0.0096,0.0052 0.0126,0.0169 0.0213,0.0232 0.0152,0.0115 0.0388,0.0175 0.0291,0.0327 -0.0131,-0.0092 -0.0239,-0.0258 -0.042,-0.0239 -0.0169,-0.0008 -0.0244,0.0162 -0.0343,0.0266 -0.0391,-0.0048 -0.0352,-0.0553 -0.0963,0.0173 -0.0289,-0.0224 0.0463,-0.053 0.0108,-0.0664 -0.009,0.0198 -0.0314,0.034 -0.0303,0.0575 -0.0004,0.0078 0.0059,0.0134 0.0096,0.0196 -0.0582,0.0305 -0.0899,0.09 -0.1464,0.1224 -0.0186,0.0104 -0.04,0.0136 -0.0593,0.022 -0.0396,0.0168 -0.0281,0.0783 0.0548,0.0802 0.1124,0.0026 0.1374,0.1071 0.2191,0.1263 0.0529,0.0125 0.1331,-0.0016 0.182,-0.021 0.0738,-0.0293 0.0831,-0.1133 0.1476,-0.1477 0.0224,-0.011 0.0483,-0.0117 0.0705,-0.0234 0.009,0.1136 -0.0571,0.1222 -0.0461,0.308 -0.0071,0.0033 -0.0144,0.0064 -0.0218,0.009 0.0079,-0.0206 0.0205,-0.0357 -0.0025,-0.0363 -0.021,0.1159 -0.2048,0.1138 -0.2909,0.1021 -0.018,-0.0448 -0.0646,-0.0226 -0.0902,-0.0227 -0.0344,-0.0084 -0.0663,-0.0462 -0.0781,-0.0276 0.0169,0.0194 0.0424,0.0278 0.0648,0.0393 -0.0086,0.0043 -0.018,0.0068 -0.0276,0.0062 -0.0875,-0.0017 -0.176,-0.0055 -0.2629,-0.0185 -0.0788,-0.0117 -0.1772,-0.0309 -0.243,-0.08 -0.0203,-0.325 0.0836,-0.3586 0.1002,-0.6088 0.0104,-0.156 -0.0356,-0.2815 0.2105,-0.2816 0.1112,-0.0001 0.257,0.0239 0.3268,0.1199 0.0037,-0.0029 0.0075,-0.0058 0.0111,-0.0088 -0.0592,-0.0811 -0.1468,-0.0902 -0.1634,-0.105 0.1059,-0.0643 0.2707,-0.0648 0.3529,0.0393zm-0.3446 0.1715c-0.0431,-0.0297 -0.1223,-0.0399 -0.1728,-0.0269 -0.0556,0.0144 -0.0692,0.0405 -0.0708,0.101l-0.0047 0.0016c-0.0037,-0.0694 0.0035,-0.0983 0.0687,-0.1099 0.0403,-0.0072 0.1633,-0.0125 0.1796,0.0342zm-0.3312 0.1069c0.0126,-0.0037 0.0249,-0.0132 0.0312,-0.0247 0.0088,0.0037 0.018,0.0065 0.0274,0.0081 -0.0373,0.0011 -0.077,0.0796 -0.0402,0.0807 0.002,-0.035 0.0085,-0.0629 0.0464,-0.0688 -0.015,0.0252 -0.0115,0.0342 0.0091,0.0548 0.0152,-0.0187 0.0021,-0.0097 -0.0062,-0.0306 0.001,-0.0162 0.0245,-0.0196 0.0327,-0.0071 0.0363,0.049 0.0813,0.0598 0.14,0.0559 0.0512,-0.0034 0.0971,-0.0249 0.1128,-0.0758 0.0476,0.0172 0.0075,0.0999 -0.1894,0.0976 0.0014,0.0047 -0.0016,0.0136 0.0059,0.0136 0.0298,0.0011 0.0596,-0.002 0.0892,-0.0057 -0.0123,0.0174 -0.0427,0.0465 -0.0306,0.0649 0.0229,-0.0166 0.0291,-0.0466 0.0512,-0.0639 0.0279,-0.0231 0.0758,-0.0159 0.0991,-0.0614 0.0073,-0.0154 0.0086,-0.0363 -0.0039,-0.0495 -0.006,-0.005 -0.0138,-0.0069 -0.021,-0.0098 0.0001,-0.0279 -0.0022,-0.0571 -0.0172,-0.0814 0.0115,-0.0054 0.0104,-0.0024 0.008,-0.0147 0.0065,0.009 0.0133,0.0197 0.0254,0.0213 0.0048,-0.0145 0.0028,-0.0114 -0.0095,-0.0225 0.0311,-0.0112 0.0602,-0.0155 0.044,-0.056 -0.0093,-0.0229 -0.0062,-0.0453 -0.0262,-0.0441 -0.0002,0.0667 0.0595,0.0667 -0.0378,0.0889 -0.0109,0.0025 -0.0452,-0.0227 -0.0998,-0.0256 -0.1767,-0.0096 -0.1718,0.061 -0.2193,0.0706 -0.0195,0.0039 -0.0191,-0.044 0.0028,-0.0701 -0.0353,-0.0246 -0.0468,0.0968 0.0013,0.0833 0.0188,-0.0049 0.0327,-0.0194 0.0472,-0.0315 -0.0032,0.0241 -0.0054,0.0484 -0.0038,0.0727 -0.0315,0.0047 -0.0596,-0.0384 -0.0609,-0.0055 0.0048,0.0018 0.0097,0.0037 0.0145,0.0056 -0.006,0.0038 -0.0122,0.0072 -0.0186,0.0101 -0.0021,0.0066 -0.0052,0.0133 -0.0038,0.0205zm0.352 0.6995c0.0116,-0.0166 0.0409,-0.0055 0.0569,-0.0015 0.0067,-0.0233 -0.0175,-0.0187 -0.0419,-0.0218 0.0223,-0.0115 0.0493,0.004 0.0729,0.005 0.004,-0.0226 -0.017,-0.0135 -0.0423,-0.0227 0.0768,-0.0165 0.0669,0.0262 0.065,0.0843 -0.0015,0.0171 -0.0007,0.0342 -0.0019,0.0513 -0.0367,0.0053 -0.0702,0.0225 -0.1061,0.0311 -0.013,-0.0274 -0.0459,-0.0817 -0.0192,-0.1104 0.0123,0.0452 0.0498,0.035 0.0621,0.0093 0.0079,-0.0164 0.004,-0.016 -0.0104,-0.018 -0.008,-0.0011 -0.003,-0.0006 -0.0199,-0.0108 -0.0071,0.0075 -0.0082,0.018 -0.0069,0.0279 0.0067,-0.0002 0.0133,-0.0005 0.02,-0.0007 -0.0154,0.0239 -0.0344,-0.0033 -0.0283,-0.023zm0.1692 -0.7065c0.0542,-0.0124 0.1157,-0.0104 0.1625,0.0227 -0.0389,0.0131 -0.1372,0.0222 -0.1625,-0.0227zm0.3571 0.6172c-0.0027,-0.0098 0.0022,-0.0194 0.0112,-0.0237 -0.0036,0.008 -0.0064,0.0163 -0.0112,0.0237zm0.0338 0.0252c-0.0209,0.002 -0.0396,-0.0588 0.0408,-0.0337 0.0078,-0.0237 -0.0191,-0.0195 -0.0417,-0.0207 0.0138,-0.0143 0.0558,0.0029 0.0735,0.0042 0.0014,-0.0314 -0.0184,-0.004 -0.0315,-0.0228 0.0459,-0.004 0.0552,-0.0021 0.0554,0.0465 -0.0008,0.0295 -0.0035,0.059 -0.0036,0.0886 -0.0367,0.0064 -0.0704,0.0231 -0.1065,0.0316 -0.0046,-0.0259 -0.0023,-0.0528 0.0034,-0.0785 0.0092,-0.0015 0.02,-0.0008 0.0271,-0.0079 0.0101,-0.01 0.0163,-0.0168 0.0157,-0.0308 -0.0086,-0.0003 -0.0239,0.0019 -0.0254,-0.0098 -0.0165,-0.0043 -0.0175,0.0138 -0.0141,0.0253 0.0066,-0.0007 0.0132,-0.0013 0.0198,-0.0018 -0.0033,0.0043 -0.0069,0.0099 -0.013,0.0098zm-0.1244 -0.6706c0.0343,0 0.0133,0.1013 -0.1526,0.0985 -0.053,-0.0004 -0.1075,-0.0151 -0.1495,-0.0483 -0.0228,-0.0193 -0.027,-0.0328 0.0052,-0.0401 0.0277,0.0503 0.0701,0.0671 0.1272,0.0662 0.0488,-0.0008 0.1435,-0.031 0.1697,-0.0762zm-0.662 0.0544c0.0511,-0.0322 0.1327,-0.0223 0.1789,0.0145 -0.0487,0.0323 -0.1387,0.0332 -0.1789,-0.0145zm0.6767 0.0031c0.0016,0.0549 -0.0372,0.0374 -0.0241,0.065 0.014,-0.0063 0.0265,-0.0159 0.0337,-0.0297 0.0201,0.0359 0.0281,0.0779 0.0257,0.1188 -0.0324,0.0111 -0.089,0.0436 -0.1273,0.0077 -0.0369,-0.0345 -0.0289,-0.066 -0.1462,-0.08 0.0083,-0.0256 0.001,-0.0239 -0.0187,-0.0401 0.0529,0.012 0.1173,0.0208 0.173,0.0067 0.0503,-0.0128 0.0499,-0.0287 0.084,-0.0483zm-0.1157 0.1098c0.0633,0.0228 0.0462,0.0325 0.0609,0.0201 -0.0121,-0.0133 -0.0527,-0.0463 -0.0609,-0.0201zm-0.022 -0.3741c-0.0067,-0.0365 -0.1121,0.0183 -0.1322,-0.0365 -0.0468,-0.002 0.0225,0.055 0.1322,0.0365zm-0.5023 0.0197c0.0274,0.0198 0.1107,-0.0027 0.1336,-0.0158 0.011,-0.022 -0.1248,0.0126 -0.1336,0.0158zm0.2414 -0.0088c0.0147,0.0161 0.018,0.0378 0.0143,0.0572 0.0254,-0.0052 0.0059,-0.0907 -0.0143,-0.0572zm-0.3307 0.052c0.015,-0.0164 0.0346,-0.0184 0.0537,-0.0232 -0.0193,-0.017 -0.0601,-0.0003 -0.0537,0.0232zm-0.0381 0.2738c0.0122,-0.0156 0.0163,-0.0358 0.0141,-0.0553 -0.0076,0.0005 -0.0178,0.0391 -0.0141,0.0553zm0.1524 0.0504c0.007,-0.0051 0.0365,-0.0245 0.0436,-0.0295 -0.0215,-0.0081 -0.053,0.0147 -0.0436,0.0295zm0.0158 0.1022c0.0186,-0.0203 0.0433,-0.0335 0.0626,-0.0529 -0.0222,-0.0026 -0.0808,0.041 -0.0626,0.0529zm-0.0929 0.0971c-0.0159,-0.0407 0.0072,-0.0845 0.036,-0.1132 -0.0304,-0.0201 -0.0785,0.1191 -0.036,0.1132zm-0.0555 -0.0176c0.0053,0.0282 0.0188,0.0435 0.0427,0.0579 0.0154,-0.0185 0.0007,-0.0116 -0.0148,-0.0326 -0.0118,-0.016 -0.011,-0.0281 -0.0279,-0.0253zm0.5708 0.1609c0.1496,0.0876 0.0396,0.1538 -0.0421,0.0939 0.0047,-0.0189 -0.0092,-0.0942 -0.0355,-0.0688 0.0229,0.0331 0.0396,0.0662 -0.008,0.0869 -0.0734,0.0321 -0.0563,-0.0252 -0.0872,-0.025 0.0078,0.0764 0.0974,0.045 0.1214,0.0179 0.0854,0.0609 0.1947,0.0054 0.1072,-0.0799 -0.0161,-0.0157 -0.0424,-0.0465 -0.0559,-0.025z"/>
  <path class="fil2" d="M0.681 0.2559c0.0339,-0.0154 0.0719,-0.0182 0.1087,-0.0202 -0.0082,0.0214 -0.0099,0.0465 0.0017,0.067 0.0145,0.0256 0.0434,0.0435 0.0732,0.0428 0.0353,0.0012 0.073,-0.0168 0.0875,-0.0504 -0.0003,0.0161 0.0078,0.0371 -0.0071,0.0489 -0.0168,0.0151 -0.0371,0.0255 -0.0572,0.0354 -0.0133,0.0076 -0.0237,-0.0065 -0.0352,-0.0109 -0.0496,-0.0267 -0.1089,-0.0255 -0.1623,-0.0132 -0.0157,-0.0196 -0.0267,-0.0434 -0.0331,-0.0676 -0.004,-0.0157 0.0119,-0.0256 0.0238,-0.0317zm0.2464 0.0042c0.0289,0.0241 -0.0302,0.066 -0.0507,0.0285 -0.0067,-0.0137 -0.0041,-0.032 0.0102,-0.0396 0.0146,-0.005 0.029,0.0026 0.0404,0.0111zm-0.1116 -0.0063c-0.0038,-0.0054 -0.0016,-0.0123 -0.0006,-0.0182 0.0091,0 0.0184,-0.0001 0.027,0.0035 -0.0005,0.0056 0.0021,0.0126 -0.0036,0.0163 -0.0061,0.0056 -0.0184,0.0065 -0.0228,-0.0016zm-0.4669 -0.0012c0.0078,-0.0022 0.0159,-0.0029 0.0238,-0.0007 0.0005,0.0068 0.0001,0.0152 -0.0082,0.0169 -0.0107,0.0042 -0.0163,-0.0074 -0.0156,-0.0162zm0.4837 0.048c0.0038,-0.0003 0.009,-0.0033 0.0116,-0.0014 0.011,0.0086 -0.0137,0.0311 -0.0116,0.0014zm-0.4665 0.0099c0.0092,0.0018 0.0076,0.0001 0.0063,0.0099 -0.0159,0.0068 -0.0119,-0.0078 -0.0063,-0.0099zm0.1529 0.3144c0.014,-0.0109 0.0246,-0.0251 0.0371,-0.0374 0.0082,0.002 0.0169,0.0036 0.0237,0.0091 0.0015,0.0193 0.0017,0.0389 0.0035,0.0582 -0.0196,0.0015 -0.0392,0.0029 -0.0589,0.0026 -0.0021,-0.0108 -0.0037,-0.0217 -0.0054,-0.0325zm0.2434 0.1288c0.0007,0.009 0.0014,0.018 0.0019,0.027 -0.0167,0.0055 -0.0339,0.0094 -0.0514,0.0114 -0.0014,-0.0279 0.0252,-0.0419 0.0495,-0.0384zm-0.1036 0.0138c0.0124,-0.0012 0.0249,-0.0021 0.0373,-0.0029 0.0014,0.0096 0.0026,0.0192 0.0022,0.0289 -0.0143,0.0001 -0.0286,-0.0002 -0.0428,0.0003 -0.0006,-0.0089 0.0011,-0.0178 0.0034,-0.0264zm-0.1523 -0.134c0.001,0.007 0.002,0.0141 0.0029,0.0211 -0.0143,0.0042 -0.0292,0.0055 -0.044,0.0065 0.004,-0.0103 0.0307,-0.0204 0.0411,-0.0276zm0.0922 0.1454c0.0001,-0.0044 0.0001,-0.0087 0.0005,-0.0131 0.0132,0.0003 0.0265,-0.0001 0.0397,0.0013 0.0011,0.0083 0.0021,0.0166 0.0029,0.0249 -0.0149,-0.0024 -0.0294,-0.0068 -0.0431,-0.0132zm-0.2745 -0.5219c-0.0052,0.0184 -0.0065,0.0396 0.0043,0.0564 0.0142,0.0216 0.0413,0.0303 0.0661,0.0304 0.02,0.0003 0.0422,-0.005 0.0545,-0.022 0.0135,-0.0181 0.0117,-0.042 0.0093,-0.0632 0.0377,0.0136 0.0553,0.0313 0.0597,0.0598 0.0046,0.03 0.0002,0.0599 -0.0215,0.082 -0.0434,-0.0323 -0.1005,-0.0451 -0.1537,-0.0357 -0.0178,0.003 -0.0347,0.0097 -0.0501,0.019 -0.0219,-0.0423 -0.0231,-0.1089 0.0314,-0.1266zm0.0732 0.0138c0.005,-0.0098 0.0189,-0.0115 0.0278,-0.0062 0.0123,0.0037 0.0163,0.0168 0.0123,0.0282 -0.0148,0.0222 -0.0517,0.009 -0.0401,-0.022zm0.3392 0.3186c0.0013,0.0229 -0.0003,0.0459 -0.002,0.0687 -0.0178,0.0032 -0.0359,0.0027 -0.0538,0.0022 0.0011,-0.0249 -0.0017,-0.05 0.0023,-0.0748 0.0117,-0.0454 0.0527,-0.0389 0.0535,0.0038zm0.0129 -0.0101c0.0124,-0.0131 0.0387,-0.0174 0.0483,0.0011 0.0021,0.0204 -0.0006,0.0409 -0.002,0.0613 -0.0149,0.005 -0.0307,0.0067 -0.0464,0.0062 0.0009,-0.0229 0.003,-0.0458 0.0001,-0.0686zm-0.1551 0.0147c0.0107,-0.0127 0.0262,-0.0239 0.0436,-0.0226 0.0119,0 0.0222,0.007 0.0311,0.0142 -0.0032,0.0245 -0.0012,0.0493 -0.0017,0.0739 -0.0224,0.0067 -0.0461,0.008 -0.0693,0.0057 -0.0017,-0.0237 -0.004,-0.0474 -0.0036,-0.0711zm0.2165 -0.0195c0.0084,0.0097 0.0173,0.019 0.0257,0.0286 0.0027,0.0085 0.0004,0.0175 -0.0009,0.0261 -0.0085,0.0022 -0.0172,0.0037 -0.0259,0.0047 0.0025,-0.0196 0.0036,-0.0397 0.001,-0.0594zm-0.0331 0.2002c-0.0069,-0.0204 0.0105,-0.0378 0.0286,-0.0435 0.0081,-0.0019 0.0156,0.0034 0.0204,0.0095 -0.0136,0.0147 -0.0306,0.026 -0.0489,0.034z"/>
  <path class="fil3" d="M0.5673 0.5086c0.0403,-0.0143 0.0834,-0.0174 0.1258,-0.0197 0.0279,0.0011 0.0561,0.0027 0.0831,0.0103 0.0178,0.0048 0.0361,0.0084 0.0525,0.0169 0.0292,0.0157 0.0385,0.0542 0.0707,0.0657 0.0257,0.0084 0.0547,0.009 0.0802,-0.0005 0.0195,-0.0063 0.0376,-0.021 0.059,-0.0181 0.0117,0.0021 0.0162,0.0138 0.0208,0.0232 0.005,0.0106 0.0052,0.0249 -0.0038,0.0335 -0.0117,0.0122 -0.0282,0.0179 -0.0423,0.0267 -0.0255,0.0154 -0.0576,0.0138 -0.0827,0.0301 -0.0278,0.0174 -0.0484,0.0441 -0.065,0.072 -0.016,0.0278 -0.0382,0.0526 -0.0665,0.068 -0.0251,0.0115 -0.0523,0.0173 -0.0794,0.022 -0.0357,0.005 -0.0729,0.0104 -0.1082,0.0002 -0.0315,-0.0094 -0.0531,-0.0356 -0.0765,-0.057 -0.0207,-0.0185 -0.0413,-0.038 -0.0668,-0.0499 -0.024,-0.0111 -0.0502,-0.0189 -0.0769,-0.0179 -0.0225,-0.0014 -0.0517,-0.0066 -0.0593,-0.0315 0.0026,-0.0085 0.0038,-0.0195 0.0139,-0.0223 0.0242,-0.0096 0.0508,-0.0144 0.0724,-0.03 0.0231,-0.014 0.0426,-0.0328 0.0598,-0.0535 0.025,-0.0281 0.0539,-0.0542 0.0893,-0.068zm0.0952 0.0163c-0.044,0.0034 -0.0859,0.0232 -0.1178,0.0534 -0.0108,0.0111 -0.0196,0.0241 -0.0319,0.0337 -0.0313,0.0229 -0.0666,0.0407 -0.1044,0.0502 -0.0078,0.0022 -0.0163,0.0025 -0.0234,0.0068 -0.0051,0.0058 -0.002,0.0156 0.0056,0.0172 0.0352,0.013 0.0714,0.0241 0.1039,0.0432 0.0314,0.0171 0.0597,0.039 0.0902,0.0576 0.0213,0.0128 0.0461,0.0188 0.0707,0.0201 0.0321,0.0007 0.0648,0.0005 0.0959,-0.0083 0.0391,-0.0099 0.0766,-0.0314 0.1001,-0.0649 0.0136,-0.0177 0.0196,-0.0405 0.0366,-0.0557 0.0204,-0.021 0.0473,-0.0344 0.0752,-0.042 0.0077,-0.0024 0.0159,-0.0038 0.0232,-0.0073 0.0051,-0.0033 0.0048,-0.0103 0.0008,-0.0143 -0.0182,-0.0029 -0.0358,0.0056 -0.054,0.0052 -0.0329,0.0024 -0.0678,-0.0076 -0.0911,-0.0319 -0.015,-0.016 -0.0293,-0.0335 -0.0492,-0.0435 -0.0401,-0.0202 -0.0863,-0.0235 -0.1304,-0.0195z"/>
  <path class="fil4" d="M0.4499 0.6632c0.0375,0.0153 0.0997,0.0076 0.1309,0.0062 0.0243,0.017 0.15,0.014 0.1693,-0.0094 0.0198,0.0018 0.0428,0.0003 0.0581,-0.013 0.035,-0.0005 0.0364,-0.0037 0.0448,-0.0294 0.0132,0.0032 0.0538,0.0136 0.0654,0.0178 -0.0053,0.0102 -0.0195,0.0134 -0.0278,0.0216 -0.024,0.0166 -0.0388,0.0426 -0.0467,0.0702 -0.0331,0.0065 -0.0291,-0.0343 -0.0732,0.0118 -0.0352,-0.0018 -0.0306,0.004 -0.0574,0.0169 -0.001,0.0003 -0.0603,-0.0015 -0.0961,-0.0027 -0.0221,-0.0008 -0.0246,-0.0062 -0.0349,0.0141 -0.0213,-0.0092 -0.0388,-0.0253 -0.0586,-0.0372 -0.0352,-0.0203 -0.0716,-0.0394 -0.1109,-0.0504 0.0004,-0.0075 0.03,-0.0131 0.0371,-0.0166zm0.121 -0.0888c0.0234,-0.0183 0.0515,-0.0307 0.081,-0.0348 0.0552,-0.0066 0.0664,-0.0053 0.1153,0.0076 -0.0002,0.014 -0.005,0.0102 -0.0202,0.0143 -0.0136,-0.0126 -0.0143,-0.0194 -0.0347,-0.0201 -0.0206,-0.0007 -0.0257,0.0118 -0.0423,0.0271 -0.0257,-0.0171 -0.066,-0.0126 -0.0819,0.0156 -0.0085,-0.0031 -0.0141,-0.0019 -0.0172,-0.0097z"/>
  <path class="fil5" d="M0.9322 1.0004c0.0128,-0.0056 0.0253,-0.0134 0.0399,-0.0122 0.0062,0.0563 0.0509,0.1365 0.0925,0.1702 -0.0006,0.0068 -0.0085,0.0373 -0.0106,0.0637 0.027,-0.0016 0.0298,-0.0809 0.0281,-0.1054 0.0096,-0.0007 0.0771,-0.0278 0.0996,-0.0292 0.0042,0.0282 0.0258,0.1973 0.024,0.2117 -0.0078,0.0607 -0.1606,0.0319 -0.2044,0.0049 -0.0498,-0.0308 -0.1149,-0.1437 -0.1369,-0.1324 0.0573,0.097 0.115,0.1551 0.2198,0.1747 0.0164,0.0341 0.1767,0.2722 0.1017,0.293 -0.0831,0.0231 -1.0672,0.0424 -1.083,-0.0213l-0.0077 -0.1377c-0.0057,-0.1031 -0.077,-0.3434 -0.0762,-0.5169 0.0484,0.0181 0.0696,0.0384 0.1252,0.0499 0.0727,0.0151 0.1937,0.0287 0.2406,0.0342 0.0431,0.0046 0.0985,0.0043 0.1441,0.0063 -0.022,0.0336 -0.0482,0.0221 -0.0332,0.0944 0.001,0.0056 0.0264,0.0548 0.0166,0.0568 -0.0488,-0.0385 -0.035,-0.0558 -0.0625,-0.0478 0.0171,0.0301 0.0448,0.0522 0.071,0.0741 0.0028,0.0308 -0.0142,0.0593 -0.0115,0.0901 0.03,-0.0016 0.0278,-0.0821 0.0278,-0.1063 0.0138,-0.0065 0.0927,-0.0351 0.1031,-0.0306 -0.0095,0.0973 0.0689,0.2394 -0.0247,0.2438 -0.2314,0.0109 -0.2463,-0.1633 -0.2924,-0.1652 0.0054,0.0501 0.1113,0.1956 0.2982,0.1787 0.1045,-0.0095 0.018,-0.1375 0.0353,-0.3486 0.0001,-0.0111 -0.0002,-0.0221 0,-0.0332 0.1254,0.0032 0.167,0.0179 0.2757,-0.0599z"/>
 </g>
</svg>
