<?xml version="1.0" encoding="UTF-8"?>
<!DOCTYPE svg PUBLIC "-//W3C//DTD SVG 1.1//EN" "http://www.w3.org/Graphics/SVG/1.1/DTD/svg11.dtd">
<!-- Creator: CorelDRAW 2020 (64-Bit) -->
<svg xmlns="http://www.w3.org/2000/svg" xml:space="preserve" width="64.8271mm" height="81.2424mm" version="1.1" style="shape-rendering:geometricPrecision; text-rendering:geometricPrecision; image-rendering:optimizeQuality; fill-rule:evenodd; clip-rule:evenodd"
viewBox="0 0 1.4363 1.8"
 xmlns:xlink="http://www.w3.org/1999/xlink"
 xmlns:xodm="http://www.corel.com/coreldraw/odm/2003">
 <defs>
  <style type="text/css">
   <![CDATA[
    .fil0 {fill:#2B2A29}
    .fil2 {fill:#FEFEFE;fill-rule:nonzero}
    .fil1 {fill:#5A8D3E;fill-rule:nonzero}
    .fil3 {fill:#A55B36;fill-rule:nonzero}
   ]]>
  </style>
 </defs>
 <g id="Слой_x0020_1">
  <metadata id="CorelCorpID_0Corel-Layer"/>
  <path class="fil0" d="M0.9738 0.0208c0.1169,-0.0569 0.1569,0.0212 0.1765,0.0168 0.0314,-0.0071 0.1231,-0.0852 0.1927,0.05 0.0025,0.0049 0.0468,0.0335 0.0602,0.0507 0.0459,0.059 0.0564,0.0646 -0.0514,0.1444 -0.0023,0.0158 0.0214,0.0311 0.0299,0.0428 0.0115,0.0157 0.0066,0.0356 0.0231,0.0476 0.0247,0.018 -0.0085,0.0392 -0.0223,0.0481 0.0026,0.0596 -0.0401,0.0319 -0.0654,0.0549 -0.1098,0.0995 -0.0706,-0.0244 -0.1328,0.1529 -0.0019,0.0051 -0.0221,0.0509 -0.0221,0.0516 0.0003,0.008 0.1683,0.1511 0.1744,0.1935 0.006,0.0409 -0.0042,0.0508 -0.0447,0.0718 -0.0605,0.0314 -0.1366,0.0185 -0.2059,0.0043l-0.0137 -0.0011c-0.001,0.0117 -0.0011,0.0234 0.0001,0.035 0.0234,0.0013 0.0477,0.0171 0.068,0.0281 -0.0006,0.0552 -0.0724,0.0303 -0.1077,0.0353 -0.0341,0.0509 -0.2155,0.4808 -0.2246,0.5207 -0.0037,0.0231 -0.0056,0.0464 -0.0062,0.0697 0.0594,0.0062 0.1369,-0.0272 0.1128,0.0403 0.0246,0.0015 0.0738,0.0028 0.0933,0.018 -0.0003,0.0004 -0.7934,0.1015 -0.856,0.1039 0.0034,-0.0443 0.0779,-0.0332 0.0643,-0.0679 -0.0723,-0.0093 -0.1439,-0.0248 -0.2163,-0.035l0 -0.0287c0.0326,0.0001 0.1844,-0.0071 0.2059,-0.0173 0.0002,-0.0069 0.0004,-0.0138 0.0006,-0.0207 0.0189,-0.0167 0.0357,-0.0189 0.0601,-0.021 0.0005,-0.002 0.0015,-0.0058 0.0021,-0.0077 -0.1474,-0.1594 -0.2268,-0.3238 -0.2101,-0.5502 0.0096,-0.129 0.0879,-0.2279 0.2204,-0.2525 0.0227,-0.0042 0.128,-0.0115 0.1571,-0.0104 -0.0066,-0.0194 -0.0121,-0.0409 -0.0033,-0.0607 0.0309,-0.0009 0.0564,0.0071 0.065,0.041 0.0096,-0.0018 0.0195,-0.0041 0.0266,-0.0114 -0.0939,-0.0997 -0.0611,-0.1952 0.0915,-0.1734 0.125,0.0179 0.0368,0.0978 0.2025,-0.0935 -0.0772,-0.1137 -0.0564,-0.1467 -0.0097,-0.2613 0.0182,-0.0447 0.0801,-0.097 0.0809,-0.1007 0.0105,-0.0482 0.0502,-0.0774 0.0842,-0.1077zm-0.6319 1.6339c0,0 -0.0172,-0.0197 0.004,-0.0797 0.0211,-0.06 0.0415,-0.0818 0.0612,-0.0946 0.0197,-0.0128 0.0516,0.0108 0.0906,0.0199 0.0391,0.0091 0.0691,0.01 0.0691,0.01l0.1918 0.1643c-0.1361,-0.018 -0.2792,-0.0165 -0.4167,-0.0199z"/>
  <path class="fil1" d="M1.157 0.0438c0.0947,-0.0606 0.1774,0.0052 0.1714,0.0474 -0.0302,-0.0022 -0.06,-0.0085 -0.0905,-0.0065 -0.0216,-0.0019 -0.0437,0.0087 -0.0646,0.0023 -0.0055,-0.0144 -0.0101,-0.0291 -0.0164,-0.0432zm-0.0722 0.9988c0.0017,-0.0063 0.005,-0.0123 0.0098,-0.0172 -0.009,0.005 -0.019,0.0077 -0.0294,0.0057 -0.0007,-0.0059 0.0014,-0.0116 0.0055,-0.0162 -0.0325,0.0187 -0.0785,0.0129 -0.0857,-0.0276 0.0044,-0.0006 0.0115,-0.0025 0.0196,-0.0044 -0.0209,0.0024 -0.0416,-0.0044 -0.0476,-0.0312 -0.0045,-0.0201 0.0014,-0.087 0.0357,-0.0807 0.0518,0.0095 0.0824,0.0257 0.141,0.0287 -0.0017,-0.0476 -0.0704,-0.1477 -0.1114,-0.1756 0.0073,0.0159 0.0187,0.0291 0.028,0.0438 -0.0268,0.0002 -0.0519,-0.0092 -0.0753,-0.0212 0.0178,0.0298 0.0531,0.0313 0.085,0.0334 0.0404,0.0596 0.0372,0.0385 0.0236,0.1036 -0.0397,-0.0055 -0.1144,-0.0507 -0.1304,0.01 -0.0177,0.0676 0.0155,0.1137 0.0688,0.1507 -0.0547,0.1215 -0.2497,0.4744 -0.2326,0.5979 0.0219,0.0118 0.0904,0.0056 0.1194,0.0084 0.0008,0.059 -0.1305,0.0176 -0.1558,0.0062 -0.011,-0.005 -0.1491,-0.1223 -0.1577,-0.1322 0.0275,-0.0019 0.1013,0.0082 0.1215,-0.0068 -0.0317,-0.0059 -0.0643,0.0029 -0.0956,-0.0054 0.0454,-0.0135 0.1137,-0.0105 0.1461,-0.0488 -0.0755,0.0165 -0.1409,0.0433 -0.2219,0.0316 -0.3136,-0.042 -0.2542,-0.4405 -0.1248,-0.5345 0.0183,-0.0133 0.1068,-0.0506 0.1086,-0.0552 -0.0432,0.0009 -0.0719,0.0276 -0.1099,0.0427 -0.0173,-0.0239 -0.0262,-0.0613 -0.0575,-0.0672 0.0089,0.0277 0.0325,0.0505 0.0491,0.0738 -0.1164,0.116 -0.1317,0.291 -0.0724,0.4387 0.0092,0.0234 0.0305,0.0396 0.0387,0.0636 -0.0463,0.0221 -0.1412,-0.0048 -0.1827,-0.0295 -0.0074,-0.0041 -0.0148,-0.011 -0.0238,-0.0085 0.0485,0.0788 0.1374,0.0542 0.2135,0.0501 -0.0289,0.0347 -0.0893,0.0329 -0.1292,0.0302 0.0304,0.0295 0.0758,0.0053 0.11,-0.0012 -0.0415,0.072 -0.0334,0.0754 -0.0428,0.152 -0.0306,0.0085 -0.076,0.0076 -0.1048,-0.0067 0.0117,-0.0429 0.0725,-0.0196 0.0986,-0.0105 -0.0229,-0.0554 -0.2011,-0.1375 -0.2408,-0.4455 -0.0225,-0.1743 0.0306,-0.3768 0.2404,-0.3825 0.199,-0.0054 0.2517,-0.034 0.3892,-0.1665 0.0457,-0.0441 0.0895,-0.0972 0.1278,-0.1479 -0.0843,-0.1248 -0.063,-0.1501 -0.0006,-0.2852 0.009,-0.0197 0.026,-0.0337 0.0431,-0.0462 0.0007,0.0111 0.0002,0.0222 -0.0011,0.0332 0.0022,-0.0001 0.0066,-0.0004 0.0088,-0.0005 0.0484,-0.2455 0.265,-0.2064 0.2806,-0.1025 -0.0517,-0.018 -0.1528,-0.0556 -0.2024,0.0217 0.0543,-0.0153 0.0869,-0.0691 0.1727,-0.0247 0.0177,0.0091 0.0342,0.0132 0.0408,0.0327 -0.0556,0.006 -0.0849,-0.011 -0.1412,0.0249 -0.0153,0.0099 -0.0508,0.0139 -0.0482,0.0236 0.0426,0.0006 0.0784,-0.0325 0.1201,-0.0405 0.0274,-0.0052 0.0845,-0.0079 0.103,0.018 -0.1588,-0.0316 -0.1287,0.0254 -0.2165,0.0318 -0.0155,0.0011 -0.0352,-0.0029 -0.0256,0.0237 0.0415,0.0041 0.0707,0.0368 0.1113,0.0429 0.0454,0.0068 0.1284,-0.0168 0.1419,-0.0122 -0.0325,0.0422 -0.1325,0.0298 -0.1763,0.0112 -0.0171,-0.0072 -0.0316,-0.019 -0.0486,-0.0262 -0.0009,0.0009 -0.0027,0.0026 -0.0037,0.0034 0.0527,0.0465 0.1122,0.0446 0.1772,0.0468 -0.0258,0.0182 -0.0553,0.0317 -0.0867,0.0357 0.0279,0.0204 0.1283,-0.0451 0.1505,-0.0694 0.0529,0.0094 0.1101,0.0084 0.1628,-0.0031 0.0006,0.0022 0.0018,0.0066 0.0025,0.0087 -0.0667,0.0218 -0.1453,0.0024 -0.1569,0.0069 0.0475,0.018 0.0921,0.0129 0.1408,0.0084 -0.0556,0.0684 -0.1436,0.0071 -0.168,0.0231 0.027,0.009 0.0479,0.0177 0.0724,0.033 0.0018,-0.0046 0.0035,-0.0092 0.0052,-0.0137 0.0178,-0.0022 0.0452,-0.0126 0.0591,0.0015 0.0178,0.0203 0.0363,0.043 0.0378,0.0711 -0.2022,0.0839 -0.3528,-0.0644 -0.4255,0.0232 -0.0191,0.0231 -0.0017,0.0496 0.0241,0.0507 0.0954,0.0039 0.1742,0.0257 0.2591,0.0283 0.0215,0.0009 0.0431,-0.0021 0.0645,0.001 -0.0288,0.0408 -0.0956,0.0253 -0.1087,0.0771 -0.0096,0.0381 -0.025,0.0887 -0.0473,0.1216 -0.0713,-0.0519 -0.0871,-0.11 -0.188,-0.11 -0.0103,-0.0232 -0.0028,-0.0582 -0.0174,-0.0582 0.0024,0.0226 0.0056,0.0452 0.0066,0.068 -0.025,-0.0203 -0.0084,-0.0628 -0.0312,-0.0547 0.0057,0.0233 0.0082,0.0498 0.026,0.0677 0.0469,-0.0357 0.0908,0.0067 0.1314,0.035 0.0308,0.0214 0.2087,0.2097 0.2338,0.2464 0.0691,0.101 -0.2489,0.1263 -0.2999,0.0268 -0.0023,0.0122 -0.0047,0.0244 -0.0067,0.0367 0.0079,0.0017 0.0193,0.0041 0.0246,-0.0019 0.0072,0.0023 0.0137,0.0062 0.0188,0.0119 -0.0069,0.0006 -0.0234,0.0002 -0.0326,-0.0004 -0.0086,-0.0006 -0.0359,0.0108 -0.04,0.0208 0.0282,-0.005 0.0472,-0.0125 0.0765,-0.0076 0.0034,0.0083 -0.0141,0.0222 -0.0355,0.0287 0.0216,-0.0039 0.0432,-0.0041 0.0393,0.0163 -0.0143,0.0053 -0.0292,0.0083 -0.044,0.0114 0.01,0.021 0.0537,-0.0169 0.073,-0.0064 -0.0019,0.0021 -0.0039,0.0041 -0.006,0.0059 0.0092,-0.0039 0.0212,-0.0043 0.0337,0.0013 -0.0029,0.0032 -0.006,0.0062 -0.0094,0.0091 0.0081,-0.0036 0.0182,-0.005 0.0304,-0.0028 -0.005,0.0387 -0.0264,0.0275 -0.0519,0.0281zm-0.0013 -0.8942c0.0426,-0.0119 0.1126,-0.0147 0.1442,0.0222 -0.0389,0.0025 -0.0737,0.0004 -0.1118,0.0102 -0.0469,0.012 -0.0911,0.0244 -0.1398,0.0145 -0.0005,-0.0139 0.0067,-0.0086 0.0226,-0.012 0.0322,-0.007 0.0487,-0.0205 0.0849,-0.0348zm0.1905 0.0029c0.0741,-0.0125 0.0844,-0.0081 0.1453,0.0204 -0.002,-0.0065 -0.0065,-0.0089 -0.0087,-0.0153 0.0069,0.0062 0.0142,0.0121 0.0158,0.0219 -0.0643,-0.0177 -0.1227,-0.0095 -0.1876,0.0033 -0.0026,-0.006 -0.0051,-0.0119 -0.0077,-0.0178 0.0119,-0.0101 0.0283,-0.01 0.0429,-0.0126zm-0.7768 0.4606c0.0487,-0.0557 0.2029,0.0056 0.1979,0.0167 -0.0082,0.018 -0.0819,0.0813 -0.099,0.0937 -0.0024,-0.006 -0.0049,-0.0121 -0.0074,-0.0181 -0.0071,0.0124 -0.0266,0.0622 -0.0514,0.0476 -0.0269,-0.016 -0.069,-0.1099 -0.0401,-0.1399zm-0.0574 0.1262c0.0107,0.0133 0.0127,0.0313 0.0178,0.0472 -0.0192,-0.0049 -0.0208,-0.0309 -0.0178,-0.0472zm0.0177 -0.0002c0.0151,0.0064 0.0265,0.0195 0.0297,0.0358 -0.0315,0.0141 -0.0315,-0.0108 -0.0297,-0.0358zm0.0796 -0.1145c-0.0126,0.0165 -0.0275,0.0352 -0.025,0.0574 0.0194,0.0071 0.0367,-0.0122 0.0372,-0.0305 -0.0112,0.0041 -0.0157,0.0164 -0.0246,0.0236 -0.0107,-0.0183 0.0295,-0.0391 0.0285,-0.055 -0.0055,0.0009 -0.0127,-0.0011 -0.0161,0.0046zm0.6373 -0.5231c0.0663,-0.0145 0.1582,-0.013 0.2137,0.03 -0.0177,-0.0012 -0.1339,-0.0141 -0.1527,0.0094 0.0563,-0.0008 0.0657,-0.013 0.1303,-0.0039 0.0111,0.001 0.0197,0.0067 0.0294,-0.0008 0.0036,0.0046 0.008,0.0084 0.0078,0.0144 -0.054,-0.0227 -0.1204,-0.0116 -0.1756,0.0011 -0.0163,-0.0176 -0.0405,-0.0297 -0.0529,-0.0502zm-0.2448 0.3337c0.0072,0.0297 0.0603,0.0503 0.0651,0.0305 -0.0432,-0.0044 -0.0366,-0.0223 -0.0651,-0.0305zm0.0021 0.2056c0.0012,0.0132 -0.0034,0.0288 0.0045,0.0403 0.0091,-0.0224 0.0045,-0.0473 0.0043,-0.0708 -0.0109,0.0057 -0.0076,0.0203 -0.0088,0.0305zm-0.1081 0.061c-0.0278,0.0239 0.0053,0.0447 0.0415,0.0311 -0.0104,-0.0073 -0.0236,-0.004 -0.0354,-0.0047 -0.0081,-0.0434 0.0679,-0.0531 0.0711,-0.0909 -0.0289,0.017 -0.0537,0.0406 -0.0772,0.0645zm-0.1531 0.0091c0.0107,0.0114 0.0274,0.0072 0.0411,0.006 0.0003,-0.0035 0.0001,-0.0069 -0.0008,-0.0103 -0.0102,-0.0009 -0.0202,0.0017 -0.0303,0.0023 0.0055,-0.0089 0.0134,-0.0161 0.0184,-0.0254 -0.0152,-0.0005 -0.024,0.0147 -0.0283,0.0273zm0.0513 0.0275c-0.0375,0.0285 -0.0837,0.0651 -0.1332,0.0637 0.0383,0.0296 0.1489,-0.0499 0.1704,-0.0836 -0.0143,0.0023 -0.0257,0.0117 -0.0372,0.0199zm0.5173 0.1305c-0.0785,0.0384 -0.0292,0.0797 0.0227,0.0507 -0.0015,-0.014 -0.0006,-0.0106 -0.0155,-0.0137 0.0016,0.0028 0.0032,0.0057 0.0048,0.0085 -0.0564,0.0108 -0.0615,-0.0122 -0.0119,-0.0352 0.0104,-0.0051 0.0236,-0.0056 0.0314,-0.015 -0.0105,-0.0053 -0.0217,0.0006 -0.0315,0.0047z"/>
  <path class="fil2" d="M1.3257 0.2184c0.0021,0.0023 0.0017,0.0065 -0.0005,0.0084 -0.0014,0.0019 -0.0052,0.0019 -0.0077,-0.0001 -0.0066,-0.0045 0.0038,-0.0162 0.0081,-0.0083zm-0.2026 -0.0277c0.0041,0.0049 0.0068,0.0107 0.0074,0.0171 -0.004,0.0007 -0.008,0.0014 -0.012,0.002 0.0004,-0.0092 -0.0004,-0.0115 0.0045,-0.0192zm0.0306 -0.0068c0.0041,-0.0023 0.0084,-0.0048 0.0133,-0.0044 0.0175,-0.0005 0.0349,0.0003 0.0524,0.0005 0.0063,0.0176 -0.0062,0.0432 -0.0265,0.0433 -0.0035,-0.0088 -0.0065,-0.0184 -0.0134,-0.0253 -0.0071,-0.0071 -0.017,-0.01 -0.0259,-0.014zm0.1597 -0.007c-0.0166,0.0257 -0.0186,0.0228 -0.0278,0.0547 -0.0193,-0.0024 -0.0385,-0.0049 -0.0576,-0.0085 0.002,-0.0422 0.0519,-0.0425 0.0855,-0.0463zm0.0551 -0.0004c0.0306,-0.0017 0.0352,-0.0039 0.0584,0.0168 -0.0098,0.0243 -0.0095,0.0218 -0.036,0.0297 -0.0026,-0.0176 -0.0133,-0.0318 -0.0225,-0.0464zm-0.0476 0.0109c0.0077,-0.0063 0.0173,0.0026 0.0114,0.0145 -0.0097,0.0059 -0.0193,-0.0031 -0.0114,-0.0145zm-0.2356 0.0085c0.0057,-0.0022 0.0118,-0.004 0.018,-0.0028 -0.0114,0.0124 -0.0159,0.0286 -0.0185,0.0448 -0.0221,-0.0071 -0.045,-0.0138 -0.0638,-0.0278 0.0217,-0.0034 0.0438,-0.0061 0.0644,-0.0142zm0.261 0.0092c0.0129,-0.0066 0.0189,0.0051 0.0138,0.0173 -0.0132,0.0076 -0.021,-0.0083 -0.0138,-0.0173zm-0.2034 0.0121c0.0048,-0.0049 0.0123,-0.0124 0.0188,-0.0053 0.0102,0.0048 0.0008,0.0199 -0.0083,0.0171 -0.0055,-0.0019 -0.0076,-0.0073 -0.0104,-0.0118zm-0.0276 0.0148c0.0036,-0.0054 0.0087,-0.0087 0.0153,-0.0064 0.0079,0.0107 -0.0099,0.0149 -0.0153,0.0064z"/>
  <path class="fil3" d="M0.9862 0.3808c0.0161,-0.009 0.0353,-0.0095 0.0532,-0.0078 0.0448,0.0056 0.0887,0.0169 0.1333,0.0238 0.1079,0.014 0.1267,0.0099 0.2252,-0.0212 0.0013,0.0074 0.0053,0.0161 -0.0002,0.0228 -0.0146,0.0196 -0.0635,0.0253 -0.1023,0.0265 -0.0781,0.0024 -0.1558,-0.0048 -0.2321,-0.0219 -0.021,-0.0044 -0.0426,-0.0056 -0.0639,-0.0033 0.0049,0.0082 0.0155,0.0063 0.0236,0.0076 0.0354,0.0017 0.0695,0.0119 0.1043,0.0171 0.0796,0.0128 0.1614,0.0144 0.2411,0.0012 0.0106,0.0228 -0.002,0.0327 -0.0301,0.0349 -0.0309,0.0005 -0.0619,0.0014 -0.0928,-0 -0.0559,-0.0076 -0.1135,-0.0053 -0.1679,-0.0222 -0.0286,-0.0087 -0.0587,-0.0056 -0.0882,-0.0055 -0.0367,-0.0029 -0.0236,-0.0391 -0.0033,-0.0522z"/>
 </g>
</svg>
