<?xml version="1.0" encoding="UTF-8"?>
<!DOCTYPE svg PUBLIC "-//W3C//DTD SVG 1.1//EN" "http://www.w3.org/Graphics/SVG/1.1/DTD/svg11.dtd">
<!-- Creator: CorelDRAW 2020 (64-Bit) -->
<svg xmlns="http://www.w3.org/2000/svg" xml:space="preserve" width="79.6289mm" height="81.4265mm" version="1.1" style="shape-rendering:geometricPrecision; text-rendering:geometricPrecision; image-rendering:optimizeQuality; fill-rule:evenodd; clip-rule:evenodd"
viewBox="0 0 1.6537 1.6911"
 xmlns:xlink="http://www.w3.org/1999/xlink"
 xmlns:xodm="http://www.corel.com/coreldraw/odm/2003">
 <defs>
  <style type="text/css">
   <![CDATA[
    .fil0 {fill:#2B2A29}
    .fil1 {fill:#588C41;fill-rule:nonzero}
    .fil3 {fill:#9E5A34;fill-rule:nonzero}
    .fil2 {fill:white;fill-rule:nonzero}
   ]]>
  </style>
 </defs>
 <g id="Слой_x0020_1">
  <metadata id="CorelCorpID_0Corel-Layer"/>
  <path class="fil0" d="M0.4472 0.0047c0.1036,-0.0074 0.3043,-0.0173 0.3803,0.0699 0.0975,-0.0457 0.1,-0.0691 0.2206,-0.0642 0.1506,0.0123 0.2057,0.0369 0.2969,0.1467 0.0146,0.0171 0.0345,0.0334 0.0364,0.0575 0.0379,0.0122 0.1459,0.0703 0.1497,0.0977 0.0032,0.0227 0.0035,0.0458 0.0015,0.0686 -0.0059,0.0358 0.0086,0.0718 0.0003,0.1076 0.0034,0.0334 0.1034,0.0863 0.1165,0.1687 0.0057,0.0362 0.007,0.133 -0.0039,0.1688l-0.0549 0.135c-0.0112,0.0275 -0.0108,0.1278 -0.0111,0.1595 -0.0012,0.1149 0.0198,0.2723 0.0117,0.3765 -0.0052,0.0666 -0.0767,0.1364 -0.1442,0.1671 -0.1938,0.0881 -0.6161,-0.059 -0.7838,-0.1482 -0.1383,-0.0736 -0.2661,-0.1218 -0.3789,-0.2359 -0.1405,-0.1422 -0.0931,-0.1731 -0.1867,-0.2764 -0.0307,-0.0339 -0.087,-0.1048 -0.093,-0.1524 -0.018,-0.1434 0.0161,-0.17 0.1092,-0.274 0.0374,-0.0418 0.0782,-0.1179 0.0776,-0.1401 -0.0008,-0.0284 -0.0446,-0.0641 -0.007,-0.2079 0.0175,-0.0669 0.106,-0.1744 0.1727,-0.1966 0.0297,-0.0103 0.0582,-0.0256 0.0901,-0.0277z"/>
  <path class="fil1" d="M0.4576 0.0193c0.1029,-0.006 0.3647,-0.0209 0.3882,0.1291 -0.2353,-0.0107 -0.3537,-0.0393 -0.5246,0.1479 -0.0183,0.02 -0.0303,0.0328 -0.0335,0.0608 -0.0044,0.0393 0.0346,0.0339 0.0586,0.0285 0.0442,0.0376 0.1227,0.0367 0.1638,0.0776 0.0651,0.0648 0.2112,0.0933 0.2994,0.1064 0.0994,0.0148 0.1331,-0.0278 0.1804,-0.0273 0.0082,0.0004 0.0146,-0.0049 0.0205,-0.0098 0.0435,0.036 -0.0523,0.0758 -0.0829,0.0759 -0.0691,0.0001 -0.2873,-0.0141 -0.3389,-0.0335 -0.0566,-0.0213 -0.0863,-0.0553 -0.1307,-0.0941 -0.0079,-0.0069 -0.0243,-0.0136 -0.0285,0.0006 -0.0009,0.0048 0.1052,0.1158 0.1871,0.1235 0.1041,0.0097 0.2078,0.0245 0.3124,0.0256 -0.0509,0.0591 -0.0394,0.0692 -0.1163,0.0925 -0.03,0.0081 -0.0565,0.0265 -0.0874,0.0313 -0.0091,0.0017 -0.0212,-0.0024 -0.0277,0.0061 -0.0246,0.0339 0.0698,-0.0065 0.0751,-0.0089 0.0889,-0.0404 0.0799,-0.0039 0.1489,-0.0822 0.0655,-0.0745 0.1345,-0.0741 0.1237,-0.1291 -0.0041,-0.0152 -0.0188,-0.0243 -0.0322,-0.0304 -0.0023,-0.0246 -0.037,-0.1048 -0.0514,-0.1214 -0.0413,-0.0474 -0.0991,-0.0554 -0.1477,-0.0909 -0.0647,-0.0474 -0.1318,-0.0629 -0.2114,-0.0542 -0.2542,0.0277 -0.213,0.0804 -0.2656,0.1208 -0.0285,0.0219 -0.0621,-0.0027 0.0597,-0.1163 0.1111,-0.1036 0.2673,-0.1031 0.4095,-0.0863 0.0787,0.0093 0.1157,0.0253 0.1794,0.0754 0.0255,0.0201 0.0639,0.086 0.0899,0.077 0.0035,-0.0224 -0.0803,-0.0911 -0.101,-0.1069 0.171,-0.0252 0.1443,-0.0358 0.3302,-0.0028 -0.0382,0.0093 -0.079,0.0059 -0.1122,0.0309 -0.0169,0.0127 0.0033,0.0217 0.0224,0.0121 0.0345,-0.0173 0.1253,-0.0331 0.163,-0.0166 0.0173,0.0075 0.0347,0.015 0.0509,0.0246 -0.1257,-0.0109 -0.2161,-0.0173 -0.3085,0.0806 -0.0075,0.0072 0.0007,0.0217 0.0108,0.0178 0.0411,-0.019 0.0514,-0.1028 0.2628,-0.0796 0.0834,0.0092 0.1264,0.0078 0.1167,0.108 -0.0247,-0.0306 -0.0376,-0.0666 -0.0784,-0.0772 -0.0554,-0.0129 -0.1131,-0.0115 -0.169,-0.0024 -0.0588,0.0143 -0.2519,0.2096 -0.1689,0.2364 0.0735,0.0237 0.2826,0.0417 0.3522,-0.0011 0.0268,-0.0165 0.0432,-0.0401 0.0655,-0.061 -0.0011,0.0454 -0.0366,0.1119 -0.0799,0.1292 -0.0228,0.0086 -0.0507,0.0073 -0.0719,0.0024 -0.0248,0.0027 -0.0098,0.0197 0.0732,0.0102 -0.0246,0.0276 -0.0476,0.0307 -0.0847,0.0296 -0.0191,-0.0005 -0.0216,0.0229 0.0582,0.006 0.0462,-0.0098 0.0595,-0.0996 0.1082,-0.0454 0.0497,0.0553 0.104,0.067 0.0787,0.1666 -0.0328,0.1289 -0.0718,0.0627 -0.1065,0.1195 0.0325,-0.0016 0.0738,-0.026 0.0954,-0.0487 0.0355,-0.0374 0.0345,-0.1774 -0.0142,-0.2072 -0.0306,-0.0187 -0.0464,-0.0487 -0.0839,-0.0539 0.0122,-0.015 0.0251,-0.0296 0.0339,-0.047 0.0553,0.0901 0.1217,0.0775 0.0977,0.2447 -0.0235,0.1642 -0.0997,0.0083 -0.0632,0.6209 0.0049,0.082 0.0045,0.1291 -0.0643,0.1881 -0.1225,0.105 -0.3399,0.0491 -0.4911,0.0081 -0.2121,-0.0575 -0.3893,-0.1419 -0.5765,-0.2629 -0.2201,-0.1423 -0.1837,-0.2332 -0.2756,-0.339 -0.0045,-0.0053 -0.0082,-0.0112 -0.0114,-0.0173 0.0111,0.0021 0.0219,0.0057 0.0333,0.0066 -0.0208,-0.0307 -0.065,-0.0199 -0.1095,-0.106 -0.0497,-0.0961 -0.0273,-0.1721 0.038,-0.2505 0.0486,-0.0584 0.0907,-0.0518 0.1626,-0.0611 -0.029,-0.0052 -0.0589,-0.0003 -0.0877,-0.0065 0.0016,-0.0228 0.0504,-0.0655 0.0486,-0.1092 -0.0019,-0.0466 -0.0613,-0.0918 -0.016,-0.2312 0.029,-0.089 0.1548,-0.2 0.2543,-0.2031zm0.1302 0.2002c0.1186,0.0086 0.0512,-0.0333 0.2354,0.0316 0.0405,0.0143 0.1855,0.1485 0.204,0.1894 0.0068,0.0152 0.0065,0.0322 0.0106,0.0481 0.008,0.0256 0.072,-0.02 -0.0759,-0.156 -0.0692,-0.0636 -0.1214,-0.1151 -0.221,-0.1304 -0.0345,-0.0053 -0.1281,-0.0098 -0.1531,0.0172zm-0.4235 0.3718c-0.0459,0.0059 -0.0812,0.0743 -0.0827,0.1142 -0.0026,0.0677 -0.018,0.1862 0.0568,0.2229 0.0174,0.0086 0.035,0.0189 0.0547,0.0205 -0.066,-0.0683 -0.1059,-0.0134 -0.1042,-0.2049 0.0005,-0.058 0.0347,-0.1327 0.0674,-0.1391 0.0427,-0.0084 0.0909,-0.0045 0.1323,-0.0174 -0.0414,-0.002 -0.0833,-0.0034 -0.1243,0.0037zm0.9434 0.01c0.0152,0.0141 0.0576,0.0319 0.0786,0.0463 0.0244,0.0167 0.0724,0.0751 0.0851,0.1012 0.0111,0.0229 0.0664,0.0193 0.0772,-0.0069 0.0266,-0.0643 0.0863,-0.0519 0.1241,-0.0328 0.0159,0.008 0.0186,0.0259 0.0283,0.0259 0.0377,-0.0002 0.0007,-0.0681 -0.108,-0.0503 -0.0394,0.0064 -0.0572,0.0664 -0.0977,0.0466 -0.0338,-0.0166 -0.062,-0.0738 -0.0911,-0.0969 0.0951,0.0208 0.1252,-0.0212 0.0709,-0.01 -0.0573,0.0119 -0.1574,-0.0428 -0.1642,-0.0398 -0.0066,0.0025 -0.0084,0.0122 -0.0031,0.0168zm-0.8625 0.0239c-0.1373,0.0185 -0.1281,0.2612 -0.0711,0.2748 0.0335,0.008 -0.0221,-0.0859 -0.0241,-0.0952 -0.0096,-0.0458 0.0356,-0.1987 0.1677,-0.1578 0.0396,0.0123 0.1998,0.1066 0.2951,0.0261 0.0491,-0.0415 0.0356,-0.0734 0.0006,-0.033 -0.0767,0.0882 -0.169,0.0337 -0.2544,-0.0049 -0.036,-0.0136 -0.0759,-0.0142 -0.1137,-0.01zm1.2351 0.0122c0.0205,0.0184 0.0373,0.017 0.0519,0.0326 0.0085,0.0092 0.0133,0.0297 0.0175,0.0622 0.0101,0.079 -0.0041,0.0639 -0.0281,0.0998 0.0681,-0.0168 0.0383,-0.1376 0.0172,-0.1678 -0.0153,-0.0153 -0.0371,-0.024 -0.0583,-0.0268zm-1.2328 0.0619c-0.0713,0.0807 0.0035,0.2567 0.0554,0.3338 0.0213,0.0316 0.0798,0.1057 0.1032,0.132 0.1785,0.1998 0.4422,0.2591 0.7012,0.2599 0.0762,-0.0004 0.1528,-0.0016 0.2284,-0.0131 -0.0886,0.0585 -0.2082,0.0358 -0.3079,0.0304 -0.2463,-0.0133 -0.2809,-0.0339 -0.5128,-0.1538 -0.0227,-0.0112 -0.0449,-0.0237 -0.069,-0.0318 0.0373,0.0457 0.2709,0.1499 0.3633,0.1755 0.0995,0.0276 0.4226,0.0437 0.5096,0.0037 0.015,-0.0069 0.1141,-0.0629 0.1236,-0.0699 0.1006,-0.0739 0.0782,-0.1729 0.0368,-0.2724 -0.0026,0.0003 -0.0079,0.0009 -0.0105,0.0012 0.0039,-0.0732 0.0028,-0.1469 -0.008,-0.2195 0.0783,-0.0686 0.0388,-0.1139 0.0156,-0.1158 -0.0358,-0.003 -0.2777,0.2056 -0.7097,0.0831 -0.0907,-0.0257 -0.2706,-0.0959 -0.3673,-0.135 -0.0826,-0.0334 -0.1106,-0.0542 -0.1518,-0.0082zm0.1109 0.5517c0.0275,0.0373 0.1361,0.0868 0.1778,0.1087 0.2237,0.1176 0.4767,0.1519 0.7263,0.1559 0.0921,0.0015 0.1261,-0.0061 0.1971,-0.0634 0.0241,-0.0195 0.0198,-0.0449 0.0181,-0.0732 -0.0178,0.0614 -0.0076,0.0512 -0.0661,0.0907 -0.0543,0.0366 -0.0914,0.0391 -0.1557,0.0374 -0.6458,-0.0177 -0.774,-0.227 -0.8974,-0.2562zm0.5747 -1.213c0.0709,-0.0318 0.2535,-0.0111 0.3138,0.0443 0.0344,0.0316 0.0877,0.0793 0.1092,0.1215 -0.2116,-0.0659 -0.3852,-0.0065 -0.4011,-0.0103 -0.027,-0.0168 -0.0565,-0.0289 -0.0861,-0.0405 -0.005,-0.0264 -0.0136,-0.0438 -0.0297,-0.0653 0.0272,-0.0126 0.0751,-0.0422 0.0939,-0.0497zm-0.3548 0.2309c0.1448,-0.0218 0.1676,0.0202 0.2833,0.0786 -0.066,0.0014 -0.1305,0.0061 -0.1968,0.003 -0.064,-0.003 -0.2185,-0.0018 -0.276,0.0319 -0.0095,-0.0034 -0.0188,-0.0075 -0.0277,-0.0122 0.0517,-0.0788 0.1272,-0.0937 0.2172,-0.1014zm0.7293 0.0498c0.0539,-0.0053 0.1304,-0.0049 0.1516,0.0284 0.0156,0.0245 0.0478,0.0521 0.0517,0.0796 -0.1295,-0.0637 -0.1432,-0.0728 -0.2942,-0.0711 0.0363,-0.0276 0.0468,-0.0327 0.0909,-0.037z"/>
  <path class="fil2" d="M0.9036 0.3701c0.0175,-0.0007 0.0494,0.0414 0.0545,0.0557 0.0092,0.025 0.0194,0.0496 0.0297,0.0741 0.0032,0.0064 0.0027,0.0135 0.003,0.0204 -0.0313,-0.001 -0.0573,0.0191 -0.0868,0.0259 -0.0505,0.0068 -0.071,0.0027 -0.1185,-0.0016 0.01,-0.0154 0.0194,-0.0314 0.0248,-0.0491 0.0063,-0.025 0.0087,-0.051 0.0057,-0.0766 -0.0013,-0.0171 -0.01,-0.0344 -0.0251,-0.0433 -0.0008,-0.0064 0.0999,-0.0073 0.1128,-0.0055zm-0.4594 0.0172c0.0418,-0.0057 0.0837,-0.0108 0.1258,-0.013 -0.0207,0.0201 -0.0398,0.0446 -0.0438,0.0741 -0.0288,-0.0321 -0.0753,-0.034 -0.1112,-0.0543 0.0095,-0.0029 0.0192,-0.0054 0.0292,-0.0068zm0.916 -0.0025c0.0189,0.0016 0.0369,0.0087 0.0524,0.0194 0.0277,0.0179 0.0598,0.0274 0.0887,0.0428 -0.0036,0.0173 -0.0248,0.0395 -0.0384,0.0511 -0.0157,0.0144 -0.0344,0.026 -0.0551,0.0315 -0.0146,0.0036 -0.0296,0.0053 -0.0445,0.0071 0.0176,-0.0222 0.0318,-0.0505 0.0273,-0.0796 -0.0024,-0.0266 -0.0131,-0.052 -0.0303,-0.0723zm-0.7626 0.0238c-0.0003,-0.0094 0.0073,-0.0173 0.0161,-0.0193 0.012,0 0.0221,0.0104 0.0193,0.0227 -0.0047,0.0043 -0.0087,0.0107 -0.0159,0.0109 -0.0094,0.0024 -0.0176,-0.0056 -0.0196,-0.0142zm0.6165 0.0313c-0.0154,-0.0052 -0.0111,-0.03 0.0038,-0.0324 0.0069,-0.0008 0.0115,0.005 0.0162,0.009 0.0026,0.0119 -0.0068,0.0266 -0.0201,0.0234zm-0.1061 0.0357c0.0147,-0.0247 0.0351,-0.045 0.0558,-0.0646 -0.0112,0.0281 -0.0218,0.0571 -0.0212,0.0878 0.0009,0.0107 0.0037,0.021 0.0058,0.0315 -0.0127,-0.0023 -0.0246,-0.0074 -0.0373,-0.0096 -0.0057,-0.0009 -0.0108,-0.0037 -0.0146,-0.008 0.0022,-0.0128 0.0032,-0.0265 0.0116,-0.0371zm-0.3795 -0.0581c0.0136,-0.0033 0.0311,0.0028 0.0377,0.0158 0.0046,0.018 -0.0046,0.0403 -0.0233,0.0459 -0.0102,0.0031 -0.0213,0.0022 -0.0318,0.0011 -0.0118,-0.007 -0.0214,-0.0211 -0.0164,-0.0353 0.0032,-0.0161 0.0198,-0.0233 0.0339,-0.0275zm0.5798 0.0164c0.007,-0.0031 0.0155,0.0007 0.023,0.0011 0.026,0.0045 0.0229,0.0498 -0.0026,0.0532 -0.0088,0.0001 -0.0196,0.0015 -0.026,-0.0059 -0.0127,-0.0134 -0.0098,-0.038 0.0055,-0.0483zm-0.6904 0.0179c0.0055,-0.0046 0.0154,-0.0046 0.0195,0.0019 0.0073,0.0102 0.0002,0.0289 -0.0138,0.0265 -0.0156,0.0009 -0.0201,-0.0229 -0.0057,-0.0284zm0.5969 0.0265c0.0079,-0.0031 0.0221,-0.0014 0.0212,0.01 0.0017,0.0086 -0.0057,0.0179 -0.0149,0.0156 -0.0129,0.0005 -0.0171,-0.0198 -0.0063,-0.0256zm-0.9058 0.3082c0.0225,-0.0067 0.1042,0.0456 0.1239,0.0576 0.0144,0.009 0.0314,0.0193 0.0345,0.0376 0.0035,0.0226 0.0051,0.046 0.0012,0.0687 -0.0173,-0.0063 -0.1092,-0.0506 -0.1206,-0.0662 -0.0004,-0.0005 -0.0375,-0.0895 -0.0391,-0.0977zm0.2073 0.1475c-0.0096,-0.015 -0.0193,-0.0357 -0.0072,-0.0521 0.0264,0.0066 0.1594,0.0512 0.1839,0.061 0.0291,0.0117 0.0238,0.0225 0.0183,0.0494 -0.0035,0.0151 -0.0058,0.0308 -0.0129,0.0448 -0.0444,-0.0159 -0.0856,-0.0411 -0.1323,-0.0502 -0.0216,-0.0117 -0.0365,-0.0327 -0.0499,-0.0529zm0.8573 0.0063c-0.0004,-0.0054 0.0022,-0.0101 0.0058,-0.0139 0.0087,0.0129 0.037,0.0806 0.0279,0.0968 -0.0055,0.0082 -0.0137,0.0145 -0.0231,0.0177 -0.0114,-0.026 -0.0122,-0.0731 -0.0106,-0.1006zm-0.9934 0.0165c0.0374,0.0179 0.0894,0.033 0.0944,0.0804 0.0018,0.0161 0.0046,0.037 -0.0105,0.0479 -0.0343,-0.0382 -0.0605,-0.0828 -0.0839,-0.1283zm0.9148 0.0236c0.0222,-0.0118 0.0375,-0.0286 0.0441,0.0052 0.0025,0.023 0.0018,0.0476 -0.0077,0.0691 -0.0078,0.0161 -0.0281,0.0146 -0.0428,0.0193l-0.0126 -0.071c-0.0003,-0.0112 0.0107,-0.0175 0.019,-0.0226zm-0.535 -0.0117c0.0434,0.0092 0.0868,0.0182 0.1297,0.0292 0.0134,0.0037 0.031,0.0092 0.0333,0.0253 0.0063,0.0452 0.0104,0.0601 -0.0198,0.0614 -0.0214,0.0009 -0.1548,-0.0157 -0.163,-0.0402 -0.0015,-0.0135 0.0124,-0.0659 0.0198,-0.0756zm0.4355 0.0403c0.0132,-0.0008 0.0323,-0.0074 0.0406,0.0068 0.0061,0.0146 0.0103,0.0303 0.012,0.046 0.0014,0.0226 -0.1025,0.0217 -0.1167,0.0211 -0.0188,-0.0008 -0.0231,-0.0536 -0.0078,-0.0598 0.023,-0.0086 0.0479,-0.0097 0.0719,-0.0141zm-0.234 0.0352c0.0027,-0.0431 -0.0008,-0.0405 0.1106,-0.0228 0.0107,0.0424 0.0209,0.0611 -0.0146,0.0627 -0.0986,0.0044 -0.0935,0.0018 -0.096,-0.0399zm-0.4533 0.0397c0.0059,-0.0159 0.0009,-0.0336 0.0076,-0.0492 0.0303,0.0047 0.0965,0.0473 0.1457,0.061 0.0333,0.0093 0.0203,0.0492 0.0127,0.0726 -0.0072,0.0205 -0.0148,0.0412 -0.0266,0.0596 -0.0569,-0.029 -0.11,-0.0665 -0.1545,-0.1124 0.0037,-0.0111 0.013,-0.0197 0.0151,-0.0315zm0.212 0.043c0.0002,-0.0106 0.0127,-0.0074 0.0191,-0.0047 0.1575,0.0636 0.1551,0.0256 0.1518,0.1156 -0.0014,0.0201 0.0005,0.0411 -0.007,0.0603 -0.0671,-0.0104 -0.1345,-0.024 -0.1967,-0.0519 0.0087,-0.0508 0.0294,-0.0462 0.0328,-0.1193zm0.6778 0.0739c0.0077,-0.0174 0.0152,-0.0352 0.027,-0.0503 -0.0012,0.0223 -0.0222,0.0725 -0.0321,0.0939 -0.0145,-0.0015 0.0021,-0.0354 0.0051,-0.0436zm-0.4653 -0.0139c0.0036,-0.0056 0.0105,-0.0002 0.0153,0.0003 0.1248,0.0238 0.1228,-0.0138 0.1044,0.0962 -0.0022,0.0114 -0.0032,0.0282 -0.0177,0.0302 -0.0148,0.0019 -0.102,0.0084 -0.1065,-0.0111 -0.0051,-0.0222 -0.0056,-0.0935 0.0046,-0.1156zm0.4105 0.0035c0.0031,-0.0047 0.0087,-0.0054 0.0138,-0.0062 -0.0004,0.0204 -0.0124,0.0396 -0.0084,0.0602 0.0035,0.0103 0.0167,0.0059 0.0248,0.008 -0.0049,0.0195 -0.0583,0.0331 -0.0753,0.0327 0.0066,-0.0288 0.0264,-0.0725 0.045,-0.0947zm-0.0941 0.018c0.0127,-0.002 0.0249,-0.0066 0.0377,-0.0086 -0.0043,0.0313 -0.0309,0.0577 -0.0265,0.0906 -0.0136,0.0115 -0.0328,0.0121 -0.0497,0.014 -0.0145,-0.0016 0.0208,-0.0826 0.0251,-0.0901 0.0026,-0.0051 0.0085,-0.005 0.0134,-0.0059zm-0.13 0.004c0.0092,-0.0013 0.0716,-0.006 0.0689,0.0115 -0.0028,0.0179 -0.0248,0.0735 -0.0388,0.0839 -0.016,0.008 -0.0349,0.0082 -0.0523,0.0069 -0.0221,-0.001 0.0046,-0.0826 0.0082,-0.0938 0.0017,-0.0063 0.0086,-0.0075 0.0141,-0.0085z"/>
  <path class="fil3" d="M0.2785 0.6884c0.0744,0.0229 0.2609,0.1092 0.3637,0.1463 0.2965,0.1071 0.5596,0.0992 0.8311,-0.0643 0.041,0.0382 -0.0046,0.0743 -0.0341,0.0982 -0.0695,0.0598 -0.0845,0.0723 -0.1736,0.0922 -0.2695,0.0608 -0.4971,-0.0033 -0.7422,-0.1065 -0.069,-0.0285 -0.136,-0.0624 -0.2077,-0.084 -0.0252,-0.0088 -0.01,0.0336 -0.0069,0.0422 0.1123,0.312 0.2553,0.4638 0.6011,0.5105 0.0927,0.0127 0.1865,0.0117 0.2799,0.0088 0.1026,-0.0039 0.2057,-0.0185 0.2517,-0.1222 0.0142,-0.031 0.0193,-0.065 0.0313,-0.0967 0.0464,0.0937 0.0342,0.2019 -0.0633,0.2579 -0.0824,0.0473 -0.1892,0.0433 -0.2814,0.0433 -0.2245,-0.0001 -0.4804,-0.0509 -0.6538,-0.2032 -0.0675,-0.0593 -0.108,-0.1198 -0.1611,-0.1881 -0.0595,-0.0772 -0.0595,-0.1503 -0.0759,-0.2409 -0.0083,-0.0461 0.0147,-0.069 0.0411,-0.0935z"/>
 </g>
</svg>
