<?xml version="1.0" encoding="UTF-8"?>
<!DOCTYPE svg PUBLIC "-//W3C//DTD SVG 1.1//EN" "http://www.w3.org/Graphics/SVG/1.1/DTD/svg11.dtd">
<!-- Creator: CorelDRAW 2020 (64-Bit) -->
<svg xmlns="http://www.w3.org/2000/svg" xml:space="preserve" width="90.9752mm" height="81.4263mm" version="1.1" style="shape-rendering:geometricPrecision; text-rendering:geometricPrecision; image-rendering:optimizeQuality; fill-rule:evenodd; clip-rule:evenodd"
viewBox="0 0 2.1682 1.9406"
 xmlns:xlink="http://www.w3.org/1999/xlink"
 xmlns:xodm="http://www.corel.com/coreldraw/odm/2003">
 <defs>
  <style type="text/css">
   <![CDATA[
    .fil0 {fill:#2B2A29}
    .fil3 {fill:#0348FE;fill-rule:nonzero}
    .fil1 {fill:#588C41;fill-rule:nonzero}
    .fil2 {fill:#9E5A34;fill-rule:nonzero}
    .fil4 {fill:white;fill-rule:nonzero}
   ]]>
  </style>
 </defs>
 <g id="Слой_x0020_1">
  <metadata id="CorelCorpID_0Corel-Layer"/>
  <path class="fil0" d="M0.8513 0.0028c0.1254,-0.0172 0.2892,0.0477 0.3865,0.1278 0.1941,-0.0916 0.4005,-0.1659 0.5555,0.0356 0.0324,0.0436 0.0481,0.0971 0.056,0.1503 0.0612,0.02 0.1789,0.0544 0.1973,0.1253 0.0458,0.021 0.0705,0.0379 0.073,0.0893 0.061,0.0448 0.0507,0.0531 0.0369,0.0759 0.0329,0.0867 -0.0129,0.0777 -0.0286,0.1144 -0.0038,0.0143 -0.003,0.0315 -0.0147,0.0424 -0.0196,0.0169 -0.0443,0.0259 -0.0665,0.0386 -0.0198,0.024 0.0201,0.0499 -0.1562,0.1279 0.1015,0.1347 0.1403,0.1072 0.1524,0.2754 0.0429,0.0083 0.1056,0.0899 -0.0586,0.1691 0.0464,0.1701 -0.1172,0.1363 -0.1596,0.1549 -0.0002,0.0001 -0.1487,0.1509 -0.3492,0.1904 0.2481,0.144 -0.2545,0.2499 -0.6012,0.2133 -0.2145,-0.0226 -0.7,-0.0898 -0.8306,-0.2586 -0.0669,-0.0866 0.0417,-0.1062 0.0918,-0.1223 -0.1081,-0.1626 -0.1436,-0.2804 -0.1341,-0.3976 0.0148,-0.1828 0.1869,-0.6108 0.3826,-0.6799 0.0911,-0.2331 0.1995,-0.4109 0.4673,-0.4722z"/>
  <path class="fil1" d="M0.818 0.0305c0.1353,-0.0338 0.3268,0.0239 0.4159,0.1354 0.0327,0.041 0.063,0.099 0.063,0.1527 -0.184,-0.1225 -0.3942,-0.1338 -0.587,-0.0204 -0.0234,0.0138 -0.0205,0.0351 -0.0064,0.0257 0.1998,-0.1327 0.5002,-0.1149 0.6497,0.0844 -0.1631,-0.0164 -0.2054,-0.0492 -0.4013,0.0324 -0.0241,0.01 -0.2017,0.0833 -0.2096,0.0976 0.0013,0.0032 0.0039,0.0095 0.0053,0.0127 0.1595,-0.0586 0.3157,-0.1688 0.4943,-0.1414 0.0645,0.0102 0.1291,0.0203 0.1923,0.037 0.0237,0.0075 0.0359,0.0338 0.0329,0.0574 -0.3149,-0.1466 -0.3966,-0.0319 -0.683,0.0782 -0.0548,0.0211 -0.0925,-0.0251 -0.1348,0.0355 -0.0384,0.0551 0.1113,0.0513 0.1274,0.0591 0.0241,0.0117 0.1327,0.1298 0.3489,0.1305 0.1182,0.0004 0.2375,-0.0176 0.341,-0.0772 0.0345,0.0492 -0.0308,0.0792 -0.1193,0.0968 -0.2154,0.0428 -0.3639,-0.0089 -0.4559,-0.0409 -0.0184,-0.0064 -0.0859,-0.0404 -0.0872,-0.0079 0.1979,0.1073 0.364,0.1066 0.5816,0.0586 0.0506,-0.0112 0.0962,-0.0278 0.1101,-0.0817 0.2247,0.0356 0.3934,0.053 0.6126,-0.0229 -0.0182,0.043 -0.0709,0.0346 -0.0833,0.0755 -0.0239,0.0784 -0.1898,0.1328 -0.2631,0.134 -0.0318,0.0005 -0.1103,0.0107 -0.1379,-0.0013 -0.0109,-0.0047 -0.0882,-0.0465 -0.0803,-0.0133 0.0228,0.011 0.0479,0.0164 0.07,0.0293 0.0293,0.0143 0.0538,0.0359 0.0802,0.0546 0.0085,0.0026 0.0147,-0.0071 0.0098,-0.0141 -0.0134,-0.0136 -0.0298,-0.0238 -0.0453,-0.0349 0.1287,-0.0019 0.0976,0.0001 0.2137,-0.0237 0.0866,0.1102 0.1481,0.1272 0.1523,0.2742 -0.4929,0.253 -1.1596,-0.1312 -1.3364,0.0225 -0.1021,0.0887 -0.0777,0.2097 0.0252,0.2064 0.1771,-0.0056 0.1559,-0.0105 0.3362,0.0265 0.221,0.0453 0.5212,0.0653 0.7476,0.0616 -0.2362,0.2138 -0.4813,0.1968 -0.7883,0.1959 -0.2529,-0.0007 -0.6245,-0.0434 -0.8423,-0.1779 -0.0779,-0.0481 -0.1622,-0.2548 -0.1426,-0.3993 0.0275,-0.1819 0.1355,-0.4615 0.2598,-0.5905 0.0264,-0.025 0.059,-0.0425 0.0911,-0.0591 -0.0413,0.1651 0.0018,0.1538 -0.0004,0.1343 -0.0261,-0.232 0.2176,-0.5281 0.4436,-0.6022zm0.2793 0.9464c-0.0225,0.0093 -0.0465,0.0157 -0.0396,0.0308 0.0955,-0.0233 0.1821,-0.0717 0.2693,-0.1155 0.0117,-0.0024 0.0147,-0.0205 -0.0001,-0.0197 -0.0762,0.0354 -0.1492,0.0787 -0.2296,0.1044zm-0.5526 0.4517c-0.0053,0.0765 0.1595,0.1337 0.1433,0.0954 -0.0537,-0.0215 -0.1101,-0.0321 -0.1294,-0.0967 -0.0047,0.0004 -0.0093,0.0009 -0.014,0.0014zm0.9342 -1.363c0.1713,-0.0295 0.3359,0.0655 0.3493,0.2447 -0.093,-0.0053 -0.1759,-0.0247 -0.2727,-0.0208 -0.081,0.0032 -0.1603,0.0125 -0.2403,0.0246 -0.0004,-0.0598 -0.0355,-0.1197 -0.0709,-0.1653 0.0748,-0.0356 0.1512,-0.0733 0.2345,-0.0831zm-0.0761 0.2547c0.1598,-0.0289 0.5071,-0.0235 0.624,0.1134 -0.1848,-0.0441 -0.3692,-0.0253 -0.5515,0.0219 -0.0217,-0.0312 -0.0626,-0.0332 -0.0964,-0.0407 -0.0174,-0.03 -0.0405,-0.0563 -0.0652,-0.0806 0.0294,-0.0063 0.0592,-0.0101 0.089,-0.0139zm0.2787 0.1131c0.081,-0.01 0.3863,-0.0282 0.4177,0.0817 -0.0818,-0.0394 -0.164,-0.0683 -0.257,-0.0617 -0.0804,0.0057 -0.1567,0.0132 -0.2339,0.0267 -0.0279,0.0049 -0.0947,0.0184 -0.0939,0.0365 0.1502,-0.0163 0.4088,-0.1048 0.5903,0.0178 0.0145,0.0107 0.0582,0.0408 0.0495,0.0616 -0.1243,-0.054 -0.2827,-0.12 -0.4203,-0.0806 -0.0734,0.021 -0.1641,0.0451 -0.2211,0.0995 -0.0045,-0.0171 -0.0099,-0.0369 -0.0265,-0.046 -0.0651,-0.0258 -0.1327,-0.044 -0.2006,-0.0604 -0.2794,-0.0706 -0.468,0.1405 -0.493,0.1493 -0.0124,0.0043 -0.133,-0.0045 -0.1277,-0.0286 0.0102,-0.0467 0.0835,-0.0174 0.113,-0.0251 0.1767,-0.046 0.3145,-0.2141 0.5805,-0.1277 0.0409,0.0151 0.0811,0.0331 0.1174,0.0574 0.0169,-0.0155 0.0091,-0.0413 0.0095,-0.0615 0.0654,-0.0134 0.131,-0.0258 0.1965,-0.0387zm-1.5016 1.1443c0.297,0.1474 0.6373,0.1715 0.9634,0.1667 0.0981,-0.0018 0.1965,-0.0052 0.2938,-0.019 -0.1127,0.1061 -0.4785,0.0814 -0.6297,0.0676 -0.1466,-0.0134 -0.5279,-0.0858 -0.6275,-0.2154z"/>
  <path class="fil2" d="M0.7588 1.2225c0.2581,-0.0392 0.5595,0.1414 1.0027,0.0877 0.2426,-0.0294 0.2764,-0.1198 0.3049,-0.0678 0.0312,0.0569 -0.0712,0.1138 -0.1212,0.1257 -0.1253,0.0299 -0.4394,0.0253 -0.5692,0.0198 -0.1817,-0.0076 -0.5263,-0.1084 -0.6227,-0.0787 -0.01,0.0033 -0.0052,0.0136 -0.0012,0.0198 0.0957,-0.0259 0.361,0.0444 0.4848,0.0635 0.1562,0.0242 0.5671,0.0308 0.7311,-0.0108 0.0275,0.0865 -0.03,0.124 -0.1034,0.1261 -0.2283,0.0068 -0.5235,-0.0113 -0.7529,-0.0469 -0.104,-0.017 -0.2064,-0.0539 -0.3132,-0.0449 -0.0709,0.0038 -0.164,0.0341 -0.1554,-0.0755 0.0045,-0.057 0.0653,-0.1119 0.1157,-0.118z"/>
  <path class="fil3" d="M0.0695 1.5939c0.0256,-0.0105 0.0523,-0.0185 0.0792,-0.025 0.0907,0.1143 0.1883,0.1345 0.3264,0.177 0.2493,0.0768 0.4625,0.084 0.7267,0.0714 0.0957,-0.0046 0.1854,-0.0189 0.2566,-0.0857 0.0376,0.0203 0.1077,0.0483 0.028,0.1041 -0.2723,0.1907 -1.2753,0.0352 -1.4296,-0.1747 -0.0189,-0.0257 -0.0236,-0.0531 0.0127,-0.0672z"/>
  <path class="fil4" d="M1.0758 0.6434c0.0231,-0.0065 0.0194,0.0289 -0.0009,0.0248 -0.0235,-0.0047 -0.0127,-0.0257 0.0009,-0.0248zm0.6733 0.0042c0.0024,-0.0203 0.0329,-0.019 0.0345,0.0008 -0.0311,0.0175 -0.0217,0.0113 -0.0345,-0.0008zm-0.5877 0.001c-0.0664,-0.0038 -0.0208,-0.08 0.0183,-0.0459 0.0168,0.0146 0.0171,0.0445 -0.0183,0.0459zm0.7065 -0.0212c-0.0079,0.0139 -0.0279,0.0138 -0.0402,0.0065 -0.0452,-0.0531 0.0767,-0.0614 0.0402,-0.0065zm-0.7923 -0.0662c0.0298,0.0063 0.017,0.0423 -0.0058,0.0378 -0.0251,-0.005 -0.024,-0.044 0.0058,-0.0378zm0.6663 0.0047c-0.0015,-0.0163 0.0293,-0.0264 0.0402,-0.0001 0.0049,0.032 -0.0471,0.03 -0.0402,0.0001zm-0.0673 -0.0189c0.119,-0.0384 0.1632,-0.04 0.3016,0.0015 0.0335,0.0101 0.1332,0.0367 0.1581,0.0609 0.0366,0.0356 0.0048,0.0732 -0.0183,0.0957 -0.0434,0.0421 -0.2465,0.0686 -0.3117,0.0605 0.043,-0.0043 0.0784,-0.0084 0.1135,-0.0616 0.016,-0.03 0.0079,-0.0655 0.003,-0.0975 -0.0029,-0.023 -0.0438,-0.0667 -0.0613,-0.072 -0.054,-0.0178 -0.1173,-0.0103 -0.1631,0.0245 -0.0342,0.031 -0.0506,0.1412 -0.0063,0.177 0.0183,0.0148 0.0395,0.0281 0.0635,0.0302 -0.0556,0.0029 -0.2417,-0.0079 -0.2771,-0.0515 0.0522,-0.0705 -0.0079,-0.0915 0.198,-0.1677zm-0.6159 -0.0251c0.158,-0.032 0.2727,0.013 0.4169,0.0645 0.0406,0.0145 -0.0065,0.1143 -0.0212,0.1279 -0.0434,0.0286 -0.0936,0.0467 -0.1447,0.0554 -0.0701,0.0169 -0.1427,0.0219 -0.2146,0.018 0.0273,-0.0033 0.0557,-0.0011 0.0822,-0.0097 0.0786,-0.0334 0.086,-0.0875 0.0724,-0.163 -0.0097,-0.0865 -0.1408,-0.1014 -0.2098,-0.0682 -0.0628,0.0284 -0.0682,0.0904 -0.0631,0.1533 0.0008,0.0456 0.046,0.0752 0.0861,0.0846 -0.0834,-0.007 -0.1939,-0.0564 -0.2609,-0.1079 0.0747,-0.0786 0.1579,-0.1188 0.2567,-0.1549z"/>
 </g>
</svg>
