<?xml version="1.0" encoding="UTF-8"?>
<!DOCTYPE svg PUBLIC "-//W3C//DTD SVG 1.1//EN" "http://www.w3.org/Graphics/SVG/1.1/DTD/svg11.dtd">
<!-- Creator: CorelDRAW 2020 (64-Bit) -->
<svg xmlns="http://www.w3.org/2000/svg" xml:space="preserve" width="104.154mm" height="81.4266mm" version="1.1" style="shape-rendering:geometricPrecision; text-rendering:geometricPrecision; image-rendering:optimizeQuality; fill-rule:evenodd; clip-rule:evenodd"
viewBox="0 0 12.5555 9.8158"
 xmlns:xlink="http://www.w3.org/1999/xlink"
 xmlns:xodm="http://www.corel.com/coreldraw/odm/2003">
 <defs>
  <style type="text/css">
   <![CDATA[
    .fil0 {fill:#2B2A29}
    .fil7 {fill:#FFED00}
    .fil8 {fill:#EF7F1A}
    .fil9 {fill:#E31E24}
    .fil5 {fill:#7E71B1}
    .fil6 {fill:#393185}
    .fil1 {fill:#588C41;fill-rule:nonzero}
    .fil3 {fill:#72504D;fill-rule:nonzero}
    .fil4 {fill:#9E5A34;fill-rule:nonzero}
    .fil2 {fill:white;fill-rule:nonzero}
   ]]>
  </style>
 </defs>
 <g id="Слой_x0020_1">
  <metadata id="CorelCorpID_0Corel-Layer"/>
  <path class="fil0" d="M5.4784 0.5153c0.238,-0.3269 0.6407,-0.5151 1.0424,-0.5152 0.3711,-0.0002 0.7427,0.164 0.9844,0.4472 0.2542,0.2981 0.3457,0.6903 0.4231,1.0645 0.2232,0.0901 0.8859,0.5116 0.824,0.934 -0.0047,0.0014 0.2595,0.1119 0.3234,0.1501 0.1251,0.0765 0.2517,0.1771 0.2956,0.3234 -0.0213,0.0248 -0.0561,0.0295 -0.0841,0.0431 0.0136,0.1814 0.0216,0.316 -0.0479,0.4878 0.0484,0.1452 0.0204,0.0847 0.0645,0.1711 0.1037,0.093 0.0096,0.4121 -0.0543,0.5125 -0.0669,0.105 -0.1623,0.1643 -0.2889,0.2962 0.099,0.1063 0.1848,0.2281 0.2408,0.3624 0.0301,0.0721 0.04,0.1559 0.0792,0.217 0.0561,0.0876 0.1492,0.1606 0.192,0.2853 0.1121,0.3268 -0.2025,0.5794 -0.3753,0.8149 0.2038,0.2856 0.1707,0.5517 -0.0919,0.8028 -0.0089,0.2202 0.0513,0.2957 -0.1169,0.4884 -0.1481,0.1798 -0.3785,0.24 -0.5902,0.4983 -0.1735,0.1997 -0.3703,0.5626 -0.5547,0.8592 -0.2278,0.3663 -0.5137,0.7201 -0.7964,1.0445l-4.4308 0 -2.5163 -0.0174c0.0694,-3.9204 1.0204,-6.8471 2.5163,-8.6839 0.1873,-0.2479 0.3722,-0.4989 0.5893,-0.722 0.1277,-0.1308 0.2999,-0.2109 0.4785,-0.243 0.3589,-0.0652 1.1346,-0.0467 1.4831,0.0614 0.1693,0.0521 0.3261,0.1587 0.4113,0.3173zm5.6967 3.9226c0.3321,-0.0205 1.1161,-0.1504 1.3805,-0.115 -0.0484,0.1546 -0.1262,0.5356 -0.1186,0.7089 0.0103,0.2331 0.078,0.5446 0.0378,0.6504 -0.0244,0.0641 -0.0839,0.0089 -0.214,0.0494 -0.5914,0.1288 -0.8264,0.0138 -1.3723,-0.0465 -0.3574,-0.0392 -0.7547,0.1207 -1.1556,0.077l-0.414 2.3531c0.3827,-0.0419 0.7437,-0.0866 1.1308,-0.115 0.1268,-0.0063 0.2534,-0.025 0.3808,-0.0187 0.0706,0.1263 0.1636,0.2382 0.2399,0.361 0.1338,0.2194 0.289,0.7955 0.3783,1.0589 0.0535,0.1429 0.1076,0.2577 0.0892,0.4144l-3.1689 -0.001c-0.0493,-0.5274 0.1233,-0.6292 0.239,-0.7862 0.2695,-0.3657 -0.0624,-0.6806 0.0122,-1.0193 0.0443,-0.2292 0.2919,-0.2219 0.451,-0.1173l0.6575 -3.4237c0.0408,0.0027 0.055,-0.0019 0.0937,-0.0156 0.5042,-0.1681 0.871,0.0064 1.3528,-0.0147z"/>
  <path class="fil1" d="M5.6033 0.4558c0.2056,-0.225 0.4985,-0.3665 0.8013,-0.3942 0.2998,-0.0301 0.6076,0.0578 0.8513,0.2332 0.3843,0.2759 0.5225,0.7497 0.6049,1.1928 -0.3223,-0.0986 -0.66,-0.1404 -0.9962,-0.1436 -0.2533,-0.0019 -0.5069,0.0372 -0.7464,0.1198 -0.042,-0.0448 -0.0833,-0.0919 -0.1375,-0.1222 -0.1297,-0.0761 -0.2837,-0.0908 -0.4189,-0.1541 0.0217,-0.2151 0.0246,-0.4428 -0.0688,-0.643 0.0532,-0.0029 0.0772,-0.0551 0.1104,-0.0887zm6.3145 4.6076c0.1505,0.0137 0.3019,0.001 0.4504,-0.025 0.0044,0.0694 0.0124,0.1384 0.02,0.2077 -0.0561,0.0002 -0.1119,-0.0017 -0.1676,-0.0055 -0.1526,-0.0107 -0.3034,0.0286 -0.456,0.0227 -0.184,-0.013 -0.3686,-0.0059 -0.5528,-0.0109 -0.0961,-0.0038 -0.1901,0.0242 -0.2862,0.0208 -0.3225,-0.0025 -0.5691,0.0444 -0.9165,0.0181 -0.0788,-0.0086 -0.1506,0.0259 -0.2181,0.0616 0.0093,-0.0652 0.017,-0.1304 0.0248,-0.1956 0.0046,0.0038 0.0139,0.0118 0.0185,0.0158 0.259,-0.0147 0.722,-0.0306 0.9548,-0.0833 0.1015,-0.0246 0.2058,-0.0068 0.3087,-0.0143 0.2727,-0.0216 0.5467,-0.0212 0.82,-0.012zm-8.2403 -4.8858c0.2609,-0.0341 0.5248,-0.0223 0.7868,-0.0092 0.3319,0.02 0.7835,0.0411 0.9613,0.3738 0.1026,0.1901 0.0969,0.4146 0.0803,0.6237 -0.0826,-0.0208 -0.1621,-0.0522 -0.245,-0.0719 -0.6325,-0.1526 -1.341,0.0368 -1.8026,0.4981 -0.0242,0.0236 -0.0635,0.0591 -0.0254,0.091 0.0525,-0.0202 0.0833,-0.0706 0.1251,-0.1055 0.4842,-0.4434 1.2146,-0.5969 1.8362,-0.3862 0.1121,0.0357 0.2208,0.0816 0.3339,0.1148 0.0805,0.0248 0.1657,0.0429 0.2359,0.0921 0.0944,0.0648 0.1562,0.164 0.2187,0.2576 0.1781,0.2641 0.3337,0.5439 0.4594,0.8366 0.0147,0.0265 0.0259,0.0751 0.0662,0.0582 0.0097,-0.0215 0.0084,-0.0425 -0.0038,-0.0631 -0.1465,-0.3448 -0.3368,-0.669 -0.5486,-0.9773 0.2918,-0.0994 0.6036,-0.1255 0.9098,-0.1043 0.3982,0.0275 0.8082,0.098 1.1526,0.3116 0.122,0.0749 0.2343,0.1709 0.325,0.2832 0.0335,0.0415 0.2365,0.3701 0.1882,0.424 -0.1863,-0.0582 -0.3758,-0.0592 -0.5709,-0.0585 -0.1688,0.0013 -0.3471,0.0387 -0.4787,0.1506 -0.0278,0.0149 -0.0433,0.0649 0.0031,0.0669 0.0526,-0.0328 0.0988,-0.0761 0.1564,-0.1007 0.1541,-0.0685 0.328,-0.069 0.4929,-0.0545 0.2834,0.0255 0.5696,0.1056 0.8013,0.2757 0.0683,0.0482 0.1224,0.1129 0.1663,0.1836 -0.0093,0.0068 -0.0282,0.0208 -0.0376,0.0277 -0.0467,-0.0599 -0.0959,-0.1222 -0.1682,-0.1526 -0.2466,-0.1066 -0.5107,-0.2025 -0.784,-0.1781 -0.3726,0.0322 -0.7134,0.2245 -0.9878,0.4705 -0.0259,0.016 -0.0372,0.0606 0.003,0.0662 0.0437,-0.0086 0.4537,-0.4705 1.0618,-0.4838 0.2229,-0.0061 0.435,0.0746 0.6382,0.1566 0.0723,0.0294 0.1447,0.0746 0.1766,0.1493 0.0536,0.1192 0.0336,0.2544 0.0139,0.3791 -0.0507,-0.0536 -0.066,-0.1306 -0.1142,-0.1867 -0.1303,-0.177 -0.3577,-0.2313 -0.5612,-0.2736 -0.254,-0.054 -0.5309,-0.0195 -0.7483,0.1283 -0.3202,0.2048 -0.4924,0.5631 -0.6112,0.9113 -0.0632,0.0301 -0.0657,0.0142 -0.0435,0.0757 0.131,0.0583 0.2645,0.1188 0.4081,0.138 0.2031,0.034 0.4096,0.0206 0.6146,0.0248 0.2325,-0.0019 0.4773,0.0292 0.6968,-0.067 0.1844,-0.0747 0.3259,-0.2246 0.4228,-0.3953 0.0571,0.4708 -0.3472,0.7829 -0.7851,0.7857 0.0027,0.0122 0.0078,0.037 0.0103,0.0494 0.1299,0.0145 0.2596,-0.0177 0.3803,-0.0635 -0.0317,0.0751 -0.0706,0.1532 -0.1415,0.1985 -0.099,0.0669 -0.2208,0.0761 -0.3337,0.1032 -0.0114,0.0328 -0.0002,0.0481 0.0341,0.0458 0.123,-0.0143 0.2511,-0.0416 0.3528,-0.1165 0.0631,-0.0456 0.0994,-0.1163 0.1339,-0.1836 0.1876,0.1741 0.2813,0.4369 0.283,0.6899 0.0031,0.2889 -0.1445,0.5664 -0.3669,0.746 -0.4667,0.3854 -1.0593,0.2261 -1.6024,0.1781 -0.2858,-0.0244 -0.5732,-0.0326 -0.8587,-0.0618 -0.5704,-0.0597 -1.1333,-0.1709 -1.6972,-0.2717 -0.2233,-0.0406 -0.4479,-0.0772 -0.6663,-0.14 -0.3061,-0.086 -0.59,-0.2359 -0.898,-0.3162 -0.049,-0.0122 -0.0992,-0.0284 -0.1503,-0.0229 -0.0238,0.0631 0.058,0.0521 0.0952,0.0679 -0.0547,0.0553 -0.1104,0.1198 -0.1144,0.2018 -0.016,0.1266 0.0558,0.2462 0.1495,0.3255 0.1221,0.1053 0.2769,0.1581 0.4192,0.2294 0.2578,0.1236 0.4758,0.3118 0.7046,0.48 0.443,0.3309 0.9655,0.5528 1.5097,0.6484 0.4344,0.0763 0.8776,0.0639 1.3164,0.0488 0.393,-0.016 0.7864,-0.0223 1.1791,-0.0444 0.1964,-0.0162 0.3898,-0.0759 0.5582,-0.1785 0.0425,-0.0254 0.0803,-0.0591 0.1264,-0.0782 0.0572,0.0542 0.0326,0.1497 0.0126,0.217 -0.0797,0.209 -0.2926,0.3112 -0.4611,0.4373 -0.2412,0.1725 -0.3811,0.4446 -0.5295,0.6935 -0.3065,0.514 -0.6304,0.9635 -1.0255,1.4184l-6.8903 0.0037c0.0409,-0.8256 0.083,-1.8332 0.2717,-2.9656 0.1963,-1.1783 0.4751,-2.5079 1.1522,-3.8923 0.3997,-0.8173 1.0633,-1.8535 1.7151,-2.5092 0.1356,-0.1364 0.3255,-0.1999 0.5124,-0.2247zm0.729 2.1064c-0.4286,0.0734 -0.7279,-0.0147 -1.0717,0.3661 -0.155,0.168 -0.2462,0.3802 -0.3619,0.574 -0.0326,0.1039 0.0702,0.2023 0.1718,0.1924 0.1247,-0.0004 0.2121,-0.1001 0.2845,-0.1886 0.6026,0.4115 1.2658,0.7371 1.9648,0.9483 0.3299,0.0946 0.6928,0.1467 1.024,0.0296 0.0967,-0.0321 0.1871,-0.0984 0.2933,-0.0898 0.0629,0.0034 0.1348,0.0622 0.1053,0.1307 -0.0452,0.0862 -0.1442,0.1213 -0.2313,0.1493 -0.3906,0.1222 -0.8076,0.0883 -1.2065,0.0315 -0.2565,-0.0412 -0.5175,-0.0694 -0.7641,-0.1554 -0.4797,-0.1694 -0.6863,-0.4735 -0.7246,-0.4813 -0.0437,0.0015 -0.0322,0.0511 -0.0067,0.0679 0.2714,0.2937 0.6444,0.4859 1.0376,0.5517 0.4977,0.0841 1.008,0.1772 1.5118,0.087 -0.0671,0.1392 -0.1916,0.2433 -0.3248,0.3171 -0.1417,0.0761 -0.2877,0.1438 -0.4308,0.2172 -0.1438,0.0721 -0.29,0.1516 -0.4538,0.1634 -0.0315,-0.0036 -0.0382,0.0662 0.0015,0.0528 0.184,-0.0044 0.3471,-0.102 0.508,-0.1804 0.1354,-0.069 0.2733,-0.1335 0.407,-0.2058 0.1394,-0.0759 0.262,-0.1855 0.3421,-0.3234 0.0126,-0.0164 0.0072,-0.0374 0.0076,-0.0559 0.1222,-0.034 0.2557,-0.0647 0.3459,-0.1604 0.0418,-0.0421 0.0599,-0.1093 0.0338,-0.1642 -0.0229,-0.0568 -0.0824,-0.0801 -0.135,-0.1005 -0.0229,-0.0257 -0.0126,-0.0675 -0.0379,-0.0929 -0.172,-0.2178 -0.1806,-0.5257 -0.3797,-0.726 -0.1014,-0.1096 -0.2567,-0.1323 -0.3772,-0.2132 -0.1129,-0.073 -0.2239,-0.1497 -0.345,-0.209 -0.402,-0.2048 -0.8738,-0.2956 -1.3181,-0.1949 -0.3335,0.0744 -0.6535,0.2508 -0.8618,0.5263 -0.0664,0.0856 -0.1338,0.193 -0.2502,0.2109 -0.0618,0.0147 -0.1411,-0.0259 -0.1375,-0.0965 0.0814,-0.1537 0.1544,-0.3129 0.2567,-0.4546 0.1074,-0.1518 0.2468,-0.2879 0.4214,-0.3581 0.1556,-0.0612 0.3246,-0.0673 0.4889,-0.0839 0.0597,-0.0072 0.1927,-0.0204 0.2494,-0.0238 0.2462,-0.0208 0.4933,-0.0616 0.7407,-0.0368 0.2393,0.0252 0.4558,0.1413 0.6572,0.2658 0.2528,0.159 0.5076,0.3246 0.7069,0.5503 0.1697,0.1901 0.2956,0.4291 0.3089,0.6874 0.0333,0.0253 0.0234,0.0211 0.0561,-0.0099 -0.0111,-0.2612 -0.1388,-0.504 -0.3066,-0.6993 -0.2121,-0.245 -0.4876,-0.4224 -0.7601,-0.5929 -0.1745,-0.11 -0.3637,-0.196 -0.5635,-0.2481 0.3354,0.0103 0.6812,0.0383 0.9901,0.1808 0.28,0.1291 0.5128,0.3633 0.6287,0.6503 0.0387,0.0955 0.0616,0.2052 0.0227,0.3043 -0.0193,0.0317 -0.0128,0.0778 0.0339,0.0616 0.0679,-0.1102 0.0492,-0.2502 0.0061,-0.3661 -0.0986,-0.2588 -0.2893,-0.4785 -0.5235,-0.6243 -0.2954,-0.1821 -0.6474,-0.2361 -0.9882,-0.2555 -0.3495,-0.0164 -0.7044,-0.0084 -1.0461,0.0748zm2.746 2.0502c0.0168,0.0356 0.0467,0.0629 0.0681,0.0957 0.2277,0.3309 0.6783,0.4287 0.8734,0.7889 0.0134,0.041 0.0797,0.0027 0.0475,-0.0303 -0.134,-0.2626 -0.4147,-0.3909 -0.6398,-0.561 -0.0728,-0.0591 -0.155,-0.1146 -0.2012,-0.1983 0.099,0.0425 0.1951,0.0927 0.299,0.123 0.1556,0.0501 0.3339,0.0589 0.4836,-0.0152 0.0277,-0.0114 0.0086,-0.0379 0.0019,-0.0563 -0.0746,0.0244 -0.1489,0.057 -0.229,0.0549 -0.222,0.0029 -0.4214,-0.1087 -0.6167,-0.1998 -0.0275,-0.0114 -0.066,-0.0372 -0.0868,-0.0015zm-2.6915 -1.6875c0.4634,-0.0515 0.9327,0.091 1.3196,0.3434 0.0675,0.049 0.1438,0.0851 0.21,0.136 -0.8008,0.0612 -1.6057,0.0574 -2.4076,0.0231 -0.0296,-0.0008 -0.0587,-0.0051 -0.0871,-0.013 0.241,-0.2822 0.5999,-0.4474 0.9651,-0.4895zm3.387 0.3781c0.2113,-0.1337 0.4754,-0.1585 0.7157,-0.1007 0.1484,0.0368 0.3087,0.0688 0.4268,0.1733 0.0988,0.0896 0.1571,0.2159 0.1872,0.344 -0.2443,-0.0885 -0.4744,-0.2155 -0.7265,-0.2815 -0.2573,-0.0667 -0.5244,-0.024 -0.7822,0.0153 0.0425,-0.0669 0.1154,-0.1064 0.1791,-0.1505zm0.8884 4.8935c0.0494,-0.0482 0.127,-0.054 0.1896,-0.0309 0.0908,0.0277 0.147,0.1097 0.2063,0.1779 0.0166,0.0309 0.0383,0.0586 0.0624,0.0843 -0.0498,0.0471 -0.0658,0.1184 -0.0769,0.1836 -0.0193,0.1671 0.0959,0.3179 0.2357,0.3963 0.0223,0.1665 -0.0669,0.3181 -0.0791,0.4809 -0.0076,0.0948 0.0007,0.193 0.0418,0.2799 0.0429,0.0961 0.0663,0.2017 0.1234,0.2912 0.0089,0.0002 0.0271,0.0006 0.0362,0.0008 0.0046,-0.094 -0.0646,-0.1739 -0.0862,-0.2639 0.041,-0.0473 0.0862,-0.0929 0.1432,-0.1205 0.1297,-0.0666 0.2799,-0.0633 0.4218,-0.0597 0.3087,0.0122 0.6196,-0.0109 0.9216,-0.0772 0.0521,-0.0233 0.1068,0.0528 0.147,-0.0044 -0.0336,-0.0383 -0.0811,-0.066 -0.1335,-0.053 -0.1548,0.0259 -0.3086,0.0626 -0.4663,0.0667 0.0588,-0.046 0.1253,-0.0952 0.1409,-0.173 0.0305,-0.1196 -0.0307,-0.2424 -0.1238,-0.3162 -0.0709,-0.0694 -0.1812,-0.0553 -0.2694,-0.0356 -0.243,0.0595 -0.509,0.0625 -0.7407,-0.0414 -0.1137,-0.0482 -0.213,-0.1423 -0.247,-0.2632 -0.0202,-0.0805 -0.0073,-0.1745 0.0486,-0.238 0.0997,-0.0488 0.2149,-0.0423 0.3221,-0.062 0.0626,0.0704 0.1779,0.1358 0.147,0.2466 -0.0391,0.1152 -0.1741,0.1318 -0.2712,0.1735 0.0009,0.0103 0.0032,0.0307 0.0044,0.0408 0.0688,0.0021 0.1337,-0.0286 0.1945,-0.0578 0.078,-0.0387 0.1463,-0.119 0.1371,-0.2105 -0.0103,-0.0858 -0.0818,-0.1426 -0.1368,-0.202 0.3862,-0.0417 0.7733,-0.082 1.1619,-0.0913 0.103,0.1619 0.2401,0.3057 0.3017,0.4908 0.1223,0.3658 0.2466,0.7306 0.3707,1.0958 0.021,0.0561 0.0233,0.1165 0.0162,0.1758l-3.0559 0c-0.0126,-0.1463 -0.0158,-0.2965 0.0257,-0.439 0.0744,-0.2854 0.3743,-0.3719 0.3214,-0.7573 -0.0247,-0.1795 -0.1148,-0.3528 -0.1,-0.5377 0.004,-0.0555 0.0229,-0.1125 0.0652,-0.1505zm0.7473 0.8767c0.0749,-0.0025 0.1646,0.015 0.2604,0.0394 0.2605,0.0663 0.6527,-0.1927 0.7424,0.0873 0.0383,0.0776 0.0399,0.1804 -0.0255,0.2444 -0.0559,0.0637 -0.1024,0.0872 -0.1764,0.1116 -0.0454,0.0107 -0.1289,0.0114 -0.1772,0.0078 -0.1842,0.0013 -0.3764,-0.0273 -0.5529,0.0408 -0.0743,0.0263 -0.1367,0.0761 -0.1916,0.1314 -0.0336,-0.0963 -0.0406,-0.2008 -0.0212,-0.3009 0.0165,-0.1521 0.0196,-0.355 0.142,-0.3618z"/>
  <path class="fil2" d="M3.4924 3.1999c0.3494,0.017 0.6987,0.0288 1.0485,0.0296 -0.123,0.1209 -0.2105,0.2763 -0.2426,0.4464 -0.278,-0.1417 -0.5494,-0.2979 -0.8059,-0.476zm2.1019 0.0072c0.1686,-0.012 0.3406,-0.0057 0.5065,-0.0379 0.0765,0.0313 0.1503,0.0742 0.2025,0.14 0.1112,0.135 0.1529,0.3087 0.2208,0.4664 0.0378,0.0988 0.1039,0.1834 0.1384,0.2836 -0.1039,0.0135 -0.193,0.0723 -0.2916,0.1032 -0.2527,0.0841 -0.5252,0.0606 -0.7817,0.0076 0.1331,-0.2041 0.1733,-0.4619 0.1198,-0.6985 -0.0116,-0.0974 -0.0629,-0.1833 -0.1148,-0.2643zm2.7824 -0.0027c0.213,0.0351 0.4052,0.1396 0.6037,0.2187 0.0715,0.0339 0.1514,0.0538 0.2159,0.1013 0.0168,0.0362 0.0214,0.0768 0.0324,0.1152 -0.0931,0.2016 -0.2763,0.3614 -0.4926,0.4161 -0.0986,0.0275 -0.2016,0.0299 -0.3032,0.0326 0.0626,-0.0559 0.1064,-0.1312 0.1228,-0.2136 0.0286,-0.1278 -0.0029,-0.2584 -0.0378,-0.3816 -0.029,-0.1033 -0.0627,-0.2113 -0.1413,-0.2887zm-0.8005 0.0599c0.0133,-0.0217 0.0414,-0.0158 0.0627,-0.02 -0.1262,0.1289 -0.1915,0.303 -0.229,0.4764 -0.0101,0.0997 -0.0345,0.1997 -0.0193,0.3003 -0.0547,-0.0206 -0.1098,-0.0412 -0.1611,-0.0694 0.0801,-0.2441 0.1815,-0.4874 0.3467,-0.6873zm-2.828 0.0366c0.0744,-0.0389 0.1718,0.0353 0.151,0.1169 -0.0141,0.1093 -0.204,0.1238 -0.229,0.0149 -0.0187,-0.0576 0.0212,-0.1177 0.078,-0.1318zm2.9813 0.1243c0.0688,-0.0341 0.1575,0.0284 0.1489,0.1045 -0.0025,0.0774 -0.0997,0.1276 -0.1636,0.0828 -0.0704,-0.0404 -0.0622,-0.1587 0.0147,-0.1873zm-2.4413 0.0357c0.1009,-0.0471 0.2336,0.0553 0.2033,0.1657 -0.0238,0.1119 -0.1901,0.1571 -0.2628,0.066 -0.0646,-0.073 -0.029,-0.1966 0.0595,-0.2317zm2.8616 0.1007c0.0727,-0.0378 0.1857,-0.0341 0.2315,0.0435 0.058,0.0866 -0.0196,0.222 -0.1249,0.2122 -0.1312,0.0219 -0.2222,-0.181 -0.1066,-0.2557zm-3.3946 0.0347c0.0688,-0.0282 0.1638,0.0259 0.1587,0.1049 -0.001,0.0692 -0.0818,0.1217 -0.1447,0.0894 -0.0755,-0.0305 -0.0871,-0.1556 -0.0139,-0.1943zm3.0101 0.1875c0.0587,-0.0341 0.1476,0.001 0.1585,0.0706 0.0221,0.0921 -0.1163,0.1543 -0.1783,0.0892 -0.049,-0.0425 -0.0378,-0.1304 0.0198,-0.1598z"/>
  <path class="fil3" d="M9.7566 4.5559c0.024,-0.0189 0.0484,-0.0374 0.0732,-0.0553 -0.0003,0.7754 -0.3965,2.7658 -0.5656,3.5877 -0.0744,-0.0318 -0.1211,-0.1012 -0.1451,-0.1356 0.205,-1.0378 0.4018,-2.0771 0.5927,-3.1173 0.016,-0.0931 0.0389,-0.1852 0.0448,-0.2796z"/>
  <path class="fil4" d="M9.2723 5.0901c0.0841,0.0967 0.1554,0.2151 0.1644,0.3457 0.008,0.1119 -0.0511,0.214 -0.1171,0.2996 -0.1266,0.1598 -0.2546,0.3185 -0.3806,0.4786 -0.2364,0.2981 -0.3841,0.3376 -0.7588,0.3391 -0.3303,0.001 -0.6606,-0.0025 -0.9909,-0.0013 -0.255,-0.0023 -0.5113,0.0065 -0.7645,-0.0292 -0.2126,-0.0288 -0.4157,-0.1034 -0.628,-0.1339 -0.2824,-0.0421 -0.5689,-0.0545 -0.8497,-0.1076 -0.4895,-0.0927 -0.9626,-0.2736 -1.3873,-0.5345 -0.041,-0.0235 -0.0782,-0.0595 -0.1279,-0.062 0.0011,0.0128 0.0036,0.0381 0.0048,0.0509 0.468,0.3055 0.9996,0.5137 1.5502,0.6091 0.255,0.0467 0.5143,0.0585 0.7706,0.0944 0.2134,0.0292 0.4174,0.103 0.6306,0.1327 0.2967,0.0446 0.5973,0.0341 0.8961,0.0366 0.3053,-0.0006 0.6106,0.0011 0.9159,0.0013 0.1713,-0.0017 0.3515,-0.0101 0.5038,-0.0973 0.1493,-0.0816 0.2468,-0.2256 0.3532,-0.3532 0.0755,0.0744 0.1171,0.1808 0.1127,0.2866 -0.004,0.1821 -0.1083,0.3488 -0.2456,0.4626 -0.1301,0.122 -0.2946,0.2033 -0.4655,0.2513 -0.1711,0.0484 -0.3499,0.0465 -0.5259,0.0543 -0.5336,0.0126 -1.0669,0.0498 -1.6009,0.0389 -0.6817,-0.0116 -1.3629,-0.2136 -1.9281,-0.5976 -0.2529,-0.1711 -0.4819,-0.3764 -0.7472,-0.5288 -0.2162,-0.125 -0.6102,-0.2208 -0.6417,-0.4983 -0.0128,-0.0997 0.0492,-0.2099 0.1499,-0.2345 0.2428,0.0629 0.4682,0.1777 0.7065,0.2542 0.3408,0.1123 0.697,0.1625 1.0485,0.2292 0.4743,0.0862 0.9491,0.1722 1.4287,0.2237 0.3516,0.0379 0.7061,0.0427 1.0574,0.0851 0.3326,0.0359 0.6728,0.0917 1.0046,0.0204 0.3574,-0.0738 0.6741,-0.3345 0.8017,-0.6781 0.053,-0.1394 0.0681,-0.29 0.0603,-0.4382z"/>
  <path class="fil5" d="M9.7697 5.5957c-0.0045,0.0332 -0.0089,0.0663 -0.0133,0.0995 0.3286,0.0426 0.6509,-0.0843 0.9792,-0.086 0.2202,-0.0011 0.4325,0.0599 0.648,0.0933 0.3083,0.0385 0.6252,0.026 0.9261,-0.0556 0.0353,-0.0087 0.0503,-0.0163 0.0857,-0.003 0.0074,-0.0186 0.0019,-0.1448 0.0007,-0.1726 -0.1582,0.0339 -0.3195,0.0503 -0.4795,0.0812 -0.1249,0.0115 -0.2518,0.0057 -0.3744,-0.0208 -0.0695,-0.015 -0.1394,0.0116 -0.2095,-0.0155 -0.1123,-0.0379 -0.2314,-0.0466 -0.3482,-0.0588 -0.1865,-0.0108 -0.368,0.0525 -0.5539,0.0668 -0.2227,-0.0009 -0.4365,0.0846 -0.6608,0.0715z"/>
  <path class="fil6" d="M12.3947 5.4465c-0.0045,-0.0628 -0.0107,-0.1255 -0.0175,-0.1881 -0.0525,-0.0001 -0.1051,-0.0019 -0.1575,-0.0056 -0.1522,-0.0106 -0.3031,0.0286 -0.456,0.0227 -0.1838,-0.0129 -0.3683,-0.0051 -0.5523,-0.0108 -0.0959,-0.003 -0.19,0.0242 -0.286,0.0208 -0.3225,-0.0025 -0.5706,0.0443 -0.9177,0.018 -0.0736,-0.008 -0.142,0.024 -0.2055,0.0573 -0.01,0.0701 -0.0196,0.1403 -0.0292,0.2105 0.2214,0.0125 0.4356,-0.0725 0.6568,-0.0716 0.1867,-0.0144 0.3671,-0.0777 0.5567,-0.0667 0.1192,0.0125 0.2397,0.0214 0.3546,0.0603 0.064,0.0247 0.1383,-0.0002 0.2062,0.0145 0.1202,0.026 0.2443,0.0317 0.3661,0.0205 0.1599,-0.031 0.322,-0.0473 0.4813,-0.0817z"/>
  <path class="fil7" d="M9.8584 4.9332c-0.0064,0.0734 -0.0182,0.1462 -0.0295,0.219 0.0149,0.0126 0.0202,0.0076 0.0403,0.0065 0.2472,-0.0136 0.7211,-0.0355 0.917,-0.081 0.1029,-0.0239 0.2068,-0.0066 0.3106,-0.0146 0.2732,-0.0211 0.5476,-0.0212 0.822,-0.012 0.1457,0.0133 0.2925,0.0015 0.4365,-0.023 -0.0037,-0.0723 -0.0034,-0.1449 0.0006,-0.2172 -0.0956,0.004 -0.1893,0.028 -0.2853,0.0284 -0.2031,0.0008 -0.4074,-0.006 -0.6095,0.0193 -0.0895,0.0112 -0.1792,-0.0026 -0.2694,0.0043 -0.1144,0.0025 -0.2259,0.0361 -0.3406,0.0332 -0.1049,-0.0026 -0.2105,-0.0044 -0.3143,0.012 -0.1357,0.0272 -0.2742,0.0143 -0.4109,0.0299 -0.0893,0.0102 -0.1783,0.0011 -0.2674,-0.0049z"/>
  <path class="fil8" d="M12.3752 4.6281c-0.1655,0.0088 -0.3294,0.04 -0.4954,0.0307 -0.268,-0.0032 -0.5344,0.0555 -0.8028,0.027 -0.1654,-0.0217 -0.332,0.0174 -0.4973,-0.0076 -0.2326,-0.0141 -0.4643,0.0199 -0.6954,0.041 -0.0075,0.0632 -0.0162,0.1263 -0.0233,0.1895 0.0872,0.0059 0.175,0.0149 0.2623,0.0049 0.1358,-0.0155 0.2746,-0.0026 0.4095,-0.0297 0.1055,-0.0167 0.2127,-0.015 0.3192,-0.0124 0.1139,0.0029 0.2253,-0.0307 0.3389,-0.0332 0.0891,-0.0068 0.1787,0.007 0.2674,-0.0041 0.2032,-0.0255 0.4082,-0.0188 0.6125,-0.0196 0.0963,-0.0004 0.1907,-0.0248 0.287,-0.0284 0.0038,-0.053 0.0099,-0.1058 0.0177,-0.1583z"/>
  <path class="fil9" d="M9.9038 4.5002c-0.0013,0.065 -0.0086,0.1296 -0.0166,0.1941 0.2308,-0.0213 0.462,-0.0546 0.6953,-0.0405 0.1649,0.0249 0.332,-0.0142 0.4974,0.0076 0.2669,0.0283 0.5332,-0.0304 0.8009,-0.0271 0.1667,0.0093 0.3322,-0.0226 0.4983,-0.031 0.0119,-0.0709 0.028,-0.141 0.0455,-0.2107 -0.4162,0.039 -0.8315,0.088 -1.249,0.1136 -0.3506,0.0139 -0.6971,-0.0987 -1.0477,-0.0512 -0.0755,0.0102 -0.1507,0.0244 -0.2241,0.0452z"/>
 </g>
</svg>
