<?xml version="1.0" encoding="UTF-8"?>
<!DOCTYPE svg PUBLIC "-//W3C//DTD SVG 1.1//EN" "http://www.w3.org/Graphics/SVG/1.1/DTD/svg11.dtd">
<!-- Creator: CorelDRAW 2020 (64-Bit) -->
<svg xmlns="http://www.w3.org/2000/svg" xml:space="preserve" width="91.1542mm" height="81.4262mm" version="1.1" style="shape-rendering:geometricPrecision; text-rendering:geometricPrecision; image-rendering:optimizeQuality; fill-rule:evenodd; clip-rule:evenodd"
viewBox="0 0 2.1704 1.9388"
 xmlns:xlink="http://www.w3.org/1999/xlink"
 xmlns:xodm="http://www.corel.com/coreldraw/odm/2003">
 <defs>
  <style type="text/css">
   <![CDATA[
    .fil4 {fill:#FEFEFE}
    .fil0 {fill:#2B2A29}
    .fil3 {fill:#AFFFFF}
    .fil1 {fill:#0348FE;fill-rule:nonzero}
    .fil5 {fill:#5A8D3E;fill-rule:nonzero}
    .fil2 {fill:#9E5A34;fill-rule:nonzero}
   ]]>
  </style>
 </defs>
 <g id="Слой_x0020_1">
  <metadata id="CorelCorpID_0Corel-Layer"/>
  <path class="fil0" d="M2.0724 1.3658c-0.0087,0.0129 0.0083,0.0141 0.0188,0.04 0.0536,0.1332 -0.0407,0.2282 -0.113,0.2834 -0.1862,0.1421 -0.5236,0.2254 -0.7549,0.2438 -0.2826,0.0225 -0.5749,-0.0187 -0.8408,-0.1715 -0.064,-0.0368 -0.1155,-0.0732 -0.1403,-0.1453 -0.0088,-0.0366 -0.0044,-0.0728 0.0023,-0.1092 0.0063,-0.0317 0.0019,-0.0284 -0.0252,-0.0548 -0.0979,-0.0959 -0.1481,-0.161 -0.1897,-0.2952 -0.0589,-0.1902 -0.0315,-0.3713 0.0906,-0.5298 0.0626,-0.0812 0.0749,-0.0908 0.1192,-0.1888 0.0956,-0.2114 0.1859,-0.3645 0.4258,-0.4243 0.1361,-0.0327 0.2653,-0.0072 0.3853,0.0624 0.0582,0.0352 0.0442,0.032 0.1,-0.001 0.1068,-0.0586 0.2568,-0.0493 0.3631,0.0057 0.0411,0.022 0.0933,0.0671 0.0815,0.1189 -0.0023,0.0102 -0.0073,0.0179 -0.0062,0.0279 0.0119,0.026 0.0176,0.0229 0.0125,0.0549 -0.0063,0.0392 0.0511,-0.0221 0.0566,-0.0232 0.0137,-0.0029 -0.0073,0.0269 -0.0105,0.0304 -0.0199,0.0216 -0.0311,0.024 0.0137,0.0281 0.0396,0.0037 0.0681,0.0355 0.0174,0.0251 -0.0236,-0.0048 0.0197,0.029 0.0215,0.0297 0.0109,0.004 0.037,-0.0205 0.0781,0.0108 0.0401,0.0306 -0.0148,0.0341 0.0223,0.0492 0.1262,0.0516 0.2358,0.1943 0.2935,0.3141 0.0312,0.0648 0.0533,0.1305 0.0668,0.2011 0.0254,0.1442 0.0024,0.2833 -0.0883,0.4176z"/>
  <path class="fil1" d="M1.5764 1.8559c0.1691,-0.0481 0.5924,-0.1931 0.5124,-0.4364 -0.0234,-0.0711 -0.0479,-0.0196 -0.0815,0.0171 -0.4104,0.4208 -1.2138,0.3803 -1.6874,0.0934 -0.059,-0.0357 -0.08,-0.0333 -0.0695,0.0464 0.0193,0.1473 0.2117,0.2138 0.3315,0.2621 0.2017,0.0815 0.3626,0.0959 0.5787,0.0836 0.1403,-0.008 0.28,-0.0298 0.4158,-0.0662z"/>
  <path class="fil2" d="M0.873 1.0559c-0.0307,0.0488 0.0157,0.012 0.0336,0.0002 0.0625,-0.0414 0.1021,-0.0648 0.1699,-0.098 0.1303,-0.0637 0.2465,-0.1278 0.3828,-0.1804 0.0959,-0.037 0.1799,-0.0637 0.2795,-0.0886 0.0605,-0.0152 0.0412,-0.0215 -0.0079,-0.0294 -0.2024,-0.0325 -0.378,0.0825 -0.5577,0.1551 -0.1407,0.0568 -0.2178,0.1119 -0.3003,0.2412zm0.7897 0.216c-0.1693,0.0704 -0.2767,0.0975 -0.4577,0.123 -0.0584,0.0082 -0.043,0.0115 0.0066,0.0249 0.1362,0.037 0.2415,0.0203 0.3696,-0.0357 0.0444,-0.0194 0.1432,-0.0773 0.1599,-0.1233 0.0111,-0.0305 -0.0531,0.0004 -0.0625,0.0044l-0.0159 0.0067z"/>
  <path class="fil3" d="M1.5865 0.3565c-0.0243,-0.0099 -0.0281,-0.0121 -0.0526,-0.0005 -0.0297,0.014 -0.0318,-0.0082 -0.0492,0.0099 -0.0121,0.0126 -0.0362,0.009 -0.0396,0.0187 -0.0041,0.0117 0.0236,0.0209 0.0314,0.0228 0.0274,0.0067 0.0642,0.0049 0.0889,-0.0096 0.0177,-0.0104 0.0218,-0.0078 0.0424,-0.0037 0.0208,0.0041 0.0391,0.0099 0.0593,0.0148 0.0198,0.0049 0.0312,-0.0007 0.0309,-0.0093 0.006,-0.0004 0.0123,-0.0006 0.018,-0.0003 0.0303,0.0017 0.0626,0.0083 0.0637,0.0079 0.0054,-0.0284 -0.0592,-0.0316 -0.0892,-0.0199 -0.0224,-0.0193 -0.0735,-0.0184 -0.104,-0.0309zm-0.9812 0.4421c0.0228,-0.0184 0.0346,-0.0404 0.0482,-0.0656 0.0256,-0.0473 0.0904,-0.0339 0.1178,-0.0612 0.0145,-0.0145 -0.0079,-0.0077 -0.0178,-0.0137 -0.0142,-0.0085 -0.0068,-0.0172 -0.0328,-0.0108 -0.0545,0.0135 -0.101,0.0755 -0.1226,0.1245 -0.0042,0.0097 -0.0168,0.0422 0.0072,0.0267zm0.0995 0.0304c0.0121,-0.0111 0.0236,-0.0327 0.0219,-0.0497 -0.0007,-0.0073 -0.0058,-0.0234 -0.0154,-0.0127 -0.0086,0.0096 -0.0235,0.0524 -0.0191,0.0641 0.0025,0.0066 0.0094,0.0008 0.0125,-0.0017z"/>
  <path class="fil4" d="M1.0288 1.2598c-0.0125,0.0088 -0.0186,0.015 -0.0265,0.0279 0.0121,0.0141 0.1001,0.0919 0.1124,0.0737 0.0042,-0.0223 -0.0204,-0.1075 -0.0464,-0.1165l-0.0063 -0.0012c-0.0109,0.0005 -0.0245,0.0102 -0.0332,0.0161zm0.3231 -0.8876c0.0083,0.0041 0.0524,-0.0092 0.0593,-0.0125 0.0024,-0.0011 0.0164,-0.0086 0.0173,-0.0104 0.0015,-0.0031 -0.005,-0.011 -0.0067,-0.0143 -0.0049,-0.01 -0.0076,-0.0075 -0.0157,-0.0001 -0.0205,0.0189 -0.0243,0.0197 -0.0491,0.0299 -0.0023,0.0009 -0.0092,0.004 -0.0051,0.0074zm-0.5287 0.2219c0.0257,-0.0114 0.0388,-0.0153 0.0666,-0.0197 0.0212,-0.0033 0.0164,-0.0051 0.0173,-0.0243 0.0006,-0.0131 -0.0057,-0.0087 -0.0162,-0.0052 -0.0414,0.0135 -0.0778,0.0268 -0.1126,0.0543 -0.0244,0.0193 -0.008,0.0234 0.0126,0.0121 0.0112,-0.0062 0.0204,-0.0118 0.0323,-0.0172zm0.1647 -0.0637c-0.0001,0.0076 0.0069,0.0168 0.0162,0.013 0.0043,-0.0018 0.0329,-0.0211 0.0229,-0.0207 -0.0068,0.0002 -0.0349,0.0022 -0.0384,0.0064l-0.0008 0.0014zm-0.0238 0.5255c-0.0096,-0.0093 -0.0217,0.0007 -0.0334,0.0072 -0.0109,0.006 -0.0592,0.0315 -0.0592,0.0445 0.0044,0.0293 0.0864,0.1664 0.1155,0.1634 0.0166,-0.0017 0.0849,-0.0411 0.0702,-0.0694 -0.0152,-0.0294 -0.0729,-0.1224 -0.0932,-0.1457zm0.0674 0.0742c0.0104,0.017 0.0412,0.0747 0.0622,0.0743 0.023,-0.0039 0.0825,-0.0351 0.0724,-0.0644 -0.0047,-0.0135 -0.0271,-0.0474 -0.0359,-0.0614 -0.0088,-0.0149 -0.0463,-0.0829 -0.0651,-0.0815 -0.0099,0.0008 -0.0882,0.0386 -0.0902,0.0472 -0.0017,0.0075 0.0483,0.073 0.0566,0.0858zm0.147 -0.1927c-0.0105,-0.0003 -0.0821,0.0363 -0.0832,0.048 0.0077,0.0218 0.0793,0.1434 0.0935,0.1558 0.0156,0.0135 0.0863,-0.0277 0.0915,-0.0413 0.0054,-0.0142 -0.018,-0.0414 -0.0261,-0.0539 -0.0132,-0.0221 -0.0547,-0.1006 -0.0758,-0.1086zm0.1092 -0.0591c-0.0088,-0.0007 -0.0835,0.0349 -0.0823,0.0494 0.0086,0.0167 0.0916,0.1482 0.0988,0.1538 0.0192,0.0151 0.0661,-0.0109 0.0869,-0.0213 0.0274,-0.0137 0.0182,-0.0221 0.0012,-0.0499 -0.0179,-0.0293 -0.0761,-0.1173 -0.1046,-0.132zm0.0246 -0.0066c0.0234,0.0406 0.0581,0.0826 0.0848,0.1255 0.0332,0.0535 0.0408,0.0474 0.0977,0.0244 0.0747,-0.0312 0.0599,-0.0366 0.0162,-0.0999 -0.0109,-0.016 -0.068,-0.1042 -0.0867,-0.1009 -0.0131,0.0023 -0.1125,0.0392 -0.113,0.048l0.0011 0.0029zm0.1373 -0.0483c0.0261,0.0378 0.0608,0.0654 0.0864,0.1051 0.0391,0.0611 0.0365,0.0665 0.1089,0.0432 0.052,-0.0167 0.034,-0.0314 0.0087,-0.0732 -0.0168,-0.0277 -0.0659,-0.1142 -0.0921,-0.1269 -0.0074,-0.002 -0.1168,0.0351 -0.1145,0.0471l0.0027 0.0046zm0.2475 -0.097c-0.0196,-0.0001 -0.092,0.027 -0.1086,0.0387 0.028,0.0487 0.0625,0.08 0.0889,0.132 0.0198,0.039 0.0403,0.0751 0.091,0.0598 0.0294,-0.0089 0.0133,-0.0395 0.0054,-0.0621 -0.01,-0.0283 -0.0543,-0.1533 -0.0766,-0.1684zm0.0572 -0.0214c-0.0512,0.0137 -0.0298,0.0333 -0.0099,0.071 0.0298,0.0565 0.0352,0.0792 0.0515,0.1394 0.0116,0.0426 0.0073,-0.0454 0.0073,-0.0513 0,-0.0396 0.0019,-0.1288 -0.0295,-0.1563 -0.0067,-0.0045 -0.012,-0.0039 -0.0194,-0.0027zm0.0027 0.4904c0.0362,-0.0462 0.0368,-0.1101 0.0412,-0.1673 0.003,-0.0389 -0.0019,-0.0643 -0.0485,-0.0599 -0.0446,0.0042 -0.0248,0.0453 -0.0177,0.077 0.0015,0.0066 0.0238,0.1176 -0.0014,0.1038 -0.0244,-0.0134 0.0051,-0.1849 -0.0725,-0.1717 -0.019,0.0032 -0.0676,0.0123 -0.0668,0.0375 0.0007,0.0226 0.0324,0.0877 0.038,0.1257 0.0023,0.0161 0.0118,0.1073 0.0198,0.1141 0.0173,0.0147 0.0942,-0.0444 0.108,-0.0591zm-0.199 0.0999c0.0879,-0.0275 0.0834,-0.0259 0.0633,-0.1094 -0.006,-0.0248 -0.0405,-0.1675 -0.0678,-0.1698 -0.0259,-0.0022 -0.0946,0.0249 -0.1075,0.0482 -0.0043,0.0153 0.0345,0.092 0.0416,0.1152 0.0113,0.0365 0.0152,0.0763 0.0222,0.114 0.0056,0.0288 0.0249,0.0104 0.0481,0.0019zm-0.0618 0.0018c-0.0025,-0.04 -0.0398,-0.2233 -0.0832,-0.2285 -0.0172,-0.0021 -0.0814,0.0287 -0.0856,0.0408 -0.0051,0.0147 0.0392,0.1001 0.0467,0.1211 0.0068,0.0189 0.0275,0.1032 0.0458,0.1067 0.0164,0.0032 0.0762,-0.0145 0.0763,-0.0401zm-0.3942 -0.0514c0.0078,0.0317 0.0199,0.0587 0.0278,0.0925 0.0159,0.0686 0.0362,0.0454 0.1,0.0375 0.0207,-0.0025 0.1597,-0.0157 0.1582,-0.0405 -0.0015,-0.0239 -0.0728,-0.2052 -0.0934,-0.2113 -0.0167,-0.0049 -0.0866,0.0284 -0.0889,0.0501 -0.0034,0.0326 0.0599,0.1365 0.0397,0.1659 -0.0171,0.025 -0.0349,-0.1455 -0.0677,-0.1571 -0.0143,-0.0051 -0.0812,0.0237 -0.0757,0.0628z"/>
  <path class="fil5" d="M0.8627 1.3231c0.0498,0.0512 0.0079,0.0519 -0.034,0.0063 -0.0371,-0.0473 -0.0727,-0.1278 -0.0932,-0.1848 -0.0172,-0.0478 -0.0006,-0.0917 0.0199,-0.1358 0.0226,-0.0486 0.0353,-0.0273 0.0229,0.0121 -0.0068,0.0216 -0.0294,0.0667 -0.0231,0.0879 0.0023,-0.0037 0.0215,-0.0509 0.0292,-0.0366 0.0018,0.0034 -0.0047,0.0354 -0.0043,0.045 0.0025,0.06 0.0286,0.0814 0.045,0.1309 0.0122,0.0368 -0.026,0.0118 0.0377,0.0749zm0.8853 -0.6842c0.0006,-0.0133 -0.0459,-0.0599 -0.0638,-0.0581 -0.0129,0.0013 -0.0658,0.0491 -0.0664,0.0522 -0.0012,0.007 0.0498,0.0034 0.0572,0.004 0.0225,0.0019 0.0513,0.0071 0.0729,0.0019zm-0.1376 -0.3003c-0.0206,-0.0038 0.005,-0.007 0.005,-0.016 -0.0073,-0.0027 -0.0566,0.0182 0.0019,0.0261 0.0224,0.0031 0.0508,-0.008 -0.0069,-0.0102zm0.1495 0.0974c-0.0437,-0.0148 -0.0313,0.0022 -0.036,0.0417 -0.0059,0.05 -0.0008,0.0284 0.0426,0.0467 0.0321,0.0136 0.0392,0.0548 0.0017,0.0375 -0.003,-0.0014 -0.0668,-0.0314 -0.0573,-0.0093 0.0041,0.0096 0.0777,0.0584 0.0961,0.0767 0.0464,0.0461 0.0887,0.1142 0.0221,0.0054 -0.0398,-0.065 -0.0082,-0.0466 0.0227,-0.004 0.0706,0.0989 0.1225,0.191 0.0998,0.3173 -0.0047,0.026 -0.02,0.0694 -0.0195,0.0616 0.0025,-0.0391 0.0122,-0.1382 -0.0119,-0.1832 -0.0047,0.0527 0.004,0.0972 -0.0026,0.1536 -0.0063,0.0545 -0.0182,0.1082 -0.0335,0.1608 -0.0128,0.0352 -0.0294,0.0504 -0.0232,0.001 0.0044,-0.0307 0.0218,-0.2159 0.0049,-0.2294 -0.0032,0.006 -0.0378,0.1883 -0.0451,0.2204 -0.0562,0.2033 -0.2281,0.3044 -0.4279,0.3294 -0.1582,0.0186 -0.2705,-0.0451 -0.3909,-0.139 -0.0529,-0.0426 -0.042,0.0158 -0.1114,-0.0625 -0.069,-0.0791 -0.0924,-0.1582 -0.0596,-0.2607 0.0033,-0.0102 0.0285,-0.0867 0.0462,-0.0639 0.022,0.0282 -0.0479,0.1451 0.0102,0.0692 0.0296,-0.0387 0.058,-0.0663 0.0902,-0.1013 0.0198,-0.0215 -0.0191,-0.0017 -0.0307,0.0017 -0.109,0.0319 -0.215,0.0281 -0.3198,-0.0159 -0.0113,-0.0051 -0.0229,-0.0103 -0.0241,-0.0236l0.0025 -0.006c0.0122,-0.0146 0.0556,0.0072 0.0703,0.0129 0.1405,0.0436 0.3006,0.0309 0.4129,-0.0728 0.039,-0.0382 0.0496,-0.0735 0.0366,-0.1272 -0.0054,-0.0223 -0.0233,0.0003 -0.0376,0.0084 -0.0357,0.0203 -0.0503,0.0119 -0.0826,0.0275 -0.0123,0.0068 -0.0238,0.0144 -0.0362,0.0211 -0.0056,0.0028 -0.152,0.0735 -0.1408,0.0485 0.0022,-0.0048 0.1137,-0.0523 0.1313,-0.0615 0.0463,-0.0259 0.0515,-0.0372 0.0895,-0.0681 0.0372,-0.0302 0.0064,0.0173 0.0069,0.0201 0.0282,-0.0089 0.0702,-0.0491 0.0746,-0.082 0.0043,-0.0324 -0.0282,-0.0728 -0.043,-0.0575 -0.0202,0.021 -0.0287,0.0373 -0.0571,0.0548 -0.0157,0.0097 -0.0377,0.0187 -0.0547,0.0267 -0.0182,0.0087 0.0004,0.006 -0.0222,0.0256 -0.0203,0.0176 -0.1024,0.071 -0.1273,0.0559 -0.0165,-0.01 0.04,-0.0263 0.0452,-0.0284 0.0132,-0.0054 0.1345,-0.0601 0.048,-0.0353 -0.0238,0.0068 -0.0599,0.0137 -0.0839,0.0092 0.0002,-0.0076 0.0124,-0.0268 -0.0117,-0.0086 -0.0308,0.0232 -0.0039,0.0494 -0.0719,0.0691 -0.0261,0.0057 -0.0724,0.0163 -0.0859,0.0413 -0.0098,0.0181 -0.0546,0.0971 -0.0825,0.0751 -0.0234,-0.0185 0.0247,-0.0957 0.0392,-0.1135 0.023,-0.0283 0.0546,-0.0529 0.0808,-0.0792 0.0176,-0.0182 0.0342,-0.0358 0.0531,-0.0528 0.0231,-0.02 0.0301,-0.0202 0.0511,-0.0346 0.0093,-0.0064 -0.0081,-0.0017 -0.0099,-0.001 -0.0205,0.0079 -0.0635,0.016 -0.0784,0.0282 -0.0032,0.0026 -0.0189,0.0201 -0.0186,0.0042 0.0003,-0.0119 0.0263,-0.0259 0.0353,-0.0283 0.0435,-0.0136 0.0489,-0.0216 0.0971,-0.0216 0.0478,0 0.0657,-0.0322 0.1461,-0.0196 0.0168,0.0026 0.0321,0.0056 0.0493,0.0078 0.0231,0.0025 0.0068,-0.0147 0.0332,-0.0041 0.0286,0.0017 0.0336,-0.0237 0.0301,-0.0469 -0.0061,-0.0411 -0.0473,-0.0453 -0.0826,-0.0481 -0.0852,-0.007 -0.1634,0.01 -0.2398,0.0472 -0.0172,0.0084 -0.0511,0.0263 -0.0692,0.029 -0.0082,-0.0001 -0.0205,-0.0032 -0.0143,-0.0142 0.0543,-0.0494 0.156,-0.0821 0.2285,-0.0889 0.054,-0.0051 0.0835,-0.0006 0.1354,0.0031 0.0043,0.0003 0.0178,0.0179 0.0101,-0.0302 -0.0434,-0.158 -0.2345,-0.2006 -0.3758,-0.1723 -0.0504,0.0118 -0.1314,0.0585 -0.1628,0.0629 -0.0245,0 -0.0086,-0.0101 0.0047,-0.0199 0.0131,-0.0096 0.0287,-0.0191 0.0429,-0.0272 0.0951,-0.0496 0.164,-0.064 0.2706,-0.0474 0.0885,0.0146 0.1235,0.0379 0.193,0.089 0.0286,0.0208 0.0171,-0.0025 0.0433,-0.0162 0.0245,-0.0128 -0.0014,0.0379 -0.0045,0.0483 -0.0039,0.0271 0.0197,0.0593 0.0171,0.1083 -0.0057,0.0528 0.0225,-0.0186 0.0303,-0.0329 0.0066,-0.0112 0.0525,-0.0901 0.0752,-0.0735 0.0064,0.0047 0.0018,0.0115 -0.0016,0.0159 -0.0306,0.0285 -0.0498,0.0541 -0.0688,0.0922 -0.0317,0.0637 0.0064,0.044 -0.0096,0.1104 -0.0012,0.005 -0.0019,0.0058 0.0004,0.01 0.0242,0.0165 0.0354,0.018 0.0435,0.052 0.0031,0.0129 0.0029,0.0299 0.0073,0.0408 0.0164,0.0217 0.1313,0.0194 0.1172,0.0371 -0.0111,0.0139 -0.1219,-0.0208 -0.1276,-0.0173 -0.0079,0.0047 -0.0056,0.0142 0.0067,0.0178 0.0125,0.0037 0.0488,0.0079 0.0516,0.0199 -0.0141,0.0147 -0.0674,-0.0103 -0.0745,-0.0087 -0.0021,0.0097 0.0372,0.0763 0.0048,0.1318 -0.0066,0.0113 -0.015,0.0225 -0.0228,0.0331 -0.0126,0.0172 -0.0064,0.0146 0.0112,0.0075 0.0983,-0.0395 0.1942,-0.0842 0.2908,-0.1275 0.0492,-0.0237 -0.0026,-0.0135 -0.0262,-0.013 -0.0369,0.0008 -0.0684,0.0013 -0.0988,-0.0217 0.0589,-0.0077 0.1143,-0.0024 0.1761,-0.0114 0.0677,-0.01 0.1549,-0.0297 0.1984,-0.087 0.0227,-0.0328 -0.0123,-0.0229 0.0132,-0.0388 0.0217,-0.0135 0.0251,-0.0496 0.0197,-0.0729 -0.0079,-0.0225 -0.0314,-0.0153 -0.0559,-0.022 -0.0627,-0.0176 -0.0435,-0.0144 -0.1051,0.0012 -0.0434,0.011 -0.0772,-0.0037 -0.1271,0.0108 -0.0248,0.0072 -0.0919,0.0209 -0.0258,-0.007 0.0054,-0.0023 0.0588,-0.022 0.0399,-0.0332 -0.0096,-0.0057 -0.0735,0.0157 -0.0879,0.0194 -0.0354,0.0077 -0.0405,0.0134 -0.0631,0.0417 -0.0154,0.0194 0.0143,0.0156 0.0291,0.0156 0.0437,0.0001 0.0743,-0.0108 0.1143,-0.0141 0.0414,-0.0034 -0.0096,0.0162 -0.0213,0.0192 -0.0318,0.0081 -0.1185,0.0229 -0.1443,-0.0005 -0.0179,-0.0162 -0.0192,-0.0175 -0.0017,-0.0417 0.021,-0.0262 0.0537,-0.0481 0.0799,-0.0711 0.0584,-0.0481 0.0941,-0.0576 0.1668,-0.0573 0.0532,0.0002 -0.0107,-0.0187 0.0524,-0.0209 0.0585,-0.0021 -0.0075,-0.0421 -0.0305,-0.0504 -0.0636,-0.023 -0.099,-0.0074 -0.1597,-0.0083 -0.0304,-0.0005 -0.0349,-0.0123 -0.002,-0.0198 0.0702,-0.0159 0.1155,-0.0096 0.1831,0.0109 0.0284,0.0086 0.0337,-0.0061 0.0288,-0.0331 -0.0268,-0.1156 -0.2267,-0.1376 -0.3231,-0.1227 -0.0576,0.0089 -0.1275,0.0596 -0.154,0.0611 -0.0304,-0.0027 -0.0636,-0.0337 -0.0935,-0.0494 -0.2583,-0.1287 -0.5575,-0.0052 -0.6862,0.2444 -0.0235,0.0455 -0.1125,0.2212 -0.1166,0.2612 -0.0041,0.0414 0.0123,0.0893 0.0083,0.1155 -0.0033,0.0219 -0.0153,0.0017 -0.0187,-0.0106 -0.021,-0.0758 0.0202,-0.1544 -0.0836,-0.0072 -0.0462,0.0656 -0.0726,0.1338 -0.0855,0.2132 -0.0338,0.2858 0.1182,0.5293 0.3635,0.667 0.4071,0.2187 1.0732,0.2532 1.4686,-0.0072 0.243,-0.1619 0.354,-0.3822 0.2718,-0.6723 -0.0489,-0.1728 -0.1921,-0.376 -0.3662,-0.4377zm-1.0854 0.1073c-0.0028,-0.0205 0.0557,-0.0374 0.0721,-0.0391 0.0626,-0.0101 0.1031,-0.0375 0.1567,-0.047 0.0367,-0.0066 0.1189,0 0.1534,0.0122 0.0183,0.0065 0.0062,0.016 -0.0148,0.0139 -0.0211,-0.0021 -0.0392,-0.0073 -0.0632,-0.0092 -0.0831,-0.0066 -0.1335,0.0222 -0.2112,0.0388 -0.0148,0.0032 -0.0913,0.0344 -0.0929,0.0304zm0.678 -0.0511c0.1122,-0.0176 0.1013,-0.0124 0.2043,-0.0627 0.0371,-0.0181 0.0797,-0.0232 0.0215,0.019 -0.0658,0.0445 -0.1635,0.0817 -0.2437,0.0683 -0.0373,-0.0062 -0.0161,-0.0188 0.008,-0.0229l0.0098 -0.0017zm0.2161 -0.1598c0.0028,-0.001 0.0098,-0.0125 0.0156,-0.0181 0.0194,-0.0187 -0.0334,-0.0094 -0.035,-0.0086 0.0032,0.0156 0.0213,0.0085 -0.0131,0.0264 -0.0152,0.0079 -0.0163,0.0123 0.004,0.0047 0.0117,-0.0044 0.0166,-0.0033 0.0285,-0.0044zm-0.3642 0.1435c0.0352,-0.0298 0.0384,0.0032 -0.0176,0.0243 -0.0203,0.0076 -0.0312,0.0065 -0.0052,-0.0112 0.0089,-0.0061 0.0145,-0.006 0.0228,-0.0131zm0.1725 0.0811c0.0637,-0.0164 0.0694,-0.0216 0.1267,-0.0504 0.0592,-0.0298 0.0069,0.0164 -0.0155,0.0292 -0.0282,0.0161 -0.1196,0.0541 -0.1492,0.0389 0.0001,-0.0092 0.0313,-0.0159 0.038,-0.0176zm-0.484 0.1496c-0.0094,0.0033 -0.095,0.0346 -0.0913,0.0111 0.0014,-0.0087 0.0677,-0.0251 0.0814,-0.0301 0.0685,-0.0254 0.0972,-0.0437 0.1508,-0.0926 0.031,-0.0283 0.0234,0.0002 -0.0023,0.0265 -0.0385,0.0394 -0.0875,0.0659 -0.1386,0.0851zm0.3521 -0.3541c0.0051,-0.0425 0.0774,-0.0895 0.088,-0.07 0.0032,0.0059 -0.0297,0.0225 -0.0361,0.0273 -0.007,0.0063 -0.0422,0.0471 -0.0496,0.0447l-0.0024 -0.0019zm0.1421 -0.0689c0.0243,-0.0075 0.1046,-0.0221 0.1258,-0.0109 0.0223,0.0118 -0.0773,0.0175 -0.0779,0.0176 -0.0843,0.0111 -0.1203,0.0653 -0.1422,0.0702 -0.0206,0.0045 0.03,-0.0409 0.0311,-0.0418 0.0207,-0.0165 0.0384,-0.0261 0.0632,-0.035zm-0.8488 0.479c0.0219,0.0056 -0.0543,0.0745 -0.0635,0.043 0.0389,-0.0089 0.0586,-0.0443 0.0635,-0.043zm0.0449 -0.0883c-0.0213,0.0047 -0.0614,-0.0158 -0.0903,-0.0171 -0.0065,-0.0003 -0.0728,0.0124 -0.0677,-0.0012 0.0201,-0.0251 0.179,-0.0093 0.158,0.0183zm-0.1525 0.4625c-0.0121,-0.0409 0.0103,-0.1095 0.023,-0.1489 0.0309,-0.0956 0.0399,-0.0326 0.0245,0.0223 -0.0134,0.0477 -0.024,0.0657 -0.0295,0.1186 -0.0022,0.0212 -0.0064,0.0437 -0.0181,0.008zm0.1598 -0.0128c0.0052,-0.0992 0.0422,-0.0261 0.0671,-0.0849 0.0124,-0.0293 0.0082,-0.0457 0.0345,-0.0746 0.0257,-0.0282 0.0554,-0.0383 0.0254,0.0079 -0.0277,0.0426 -0.0219,0.0247 -0.0342,0.0723 -0.0186,0.072 -0.0332,0.0069 -0.0539,0.0615 -0.0248,0.0653 0.0135,0.1569 0.0554,0.2075 0.1173,0.138 0.1691,0.1464 0.342,0.1759 0.0056,0.0007 0.2013,0.0191 0.1101,0.0332 -0.033,0.0051 -0.0867,0.0054 -0.1209,0.0036 -0.1261,-0.0096 -0.2723,-0.0501 -0.3592,-0.1474 -0.0616,-0.0743 -0.07,-0.1621 -0.0663,-0.2548zm0.0933 -0.2804c-0.0167,-0.0187 0.0027,-0.0784 0.0251,-0.0939 0.0679,-0.0188 0.0109,0.1342 -0.0251,0.0939zm-0.1295 -0.1449c-0.0574,0.0319 -0.0839,0.0479 -0.0937,0.0471 -0.0134,-0.0011 -0.0151,-0.0102 -0.0018,-0.0188 0.0117,-0.0075 0.084,-0.0321 0.0955,-0.0283zm0.6629 -0.1489c-0.0308,0.0196 -0.0002,-0.0544 0.0304,-0.0526 -0.022,0.0186 -0.0344,0.0368 -0.0304,0.0526zm-0.2056 -0.1165c0.0199,0.0048 0.024,0.0123 -0.0035,0.0098 -0.0076,-0.0007 -0.0529,-0.0021 -0.0542,-0.0068 0.0165,-0.0105 0.0399,-0.0074 0.0578,-0.003zm0.1579 -0.0054c0.0313,-0.0416 0.0031,0.0223 0.0012,0.0316 -0.0007,0.0034 -0.0019,0.027 -0.011,0.0184 -0.0111,-0.0106 0.0036,-0.0402 0.0098,-0.0499zm-0.7919 -0.0116c0.0178,-0.016 0.0335,-0.016 0.0209,0.0117 -0.0115,0.0253 -0.0109,0.0224 -0.0172,0.0492 -0.0089,0.0375 -0.0391,-0.0141 -0.0037,-0.0608zm0.4836 -0.1422c0.0005,-0.0295 0.0289,-0.0142 0.0244,0.0014 -0.0077,0.0164 -0.0176,0.0171 -0.0244,-0.0014z"/>
 </g>
</svg>
