<?xml version="1.0" encoding="UTF-8"?>
<!DOCTYPE svg PUBLIC "-//W3C//DTD SVG 1.1//EN" "http://www.w3.org/Graphics/SVG/1.1/DTD/svg11.dtd">
<!-- Creator: CorelDRAW 2020 (64-Bit) -->
<svg xmlns="http://www.w3.org/2000/svg" xml:space="preserve" width="85.7277mm" height="81.4261mm" version="1.1" style="shape-rendering:geometricPrecision; text-rendering:geometricPrecision; image-rendering:optimizeQuality; fill-rule:evenodd; clip-rule:evenodd"
viewBox="0 0 8.4906 8.0646"
 xmlns:xlink="http://www.w3.org/1999/xlink"
 xmlns:xodm="http://www.corel.com/coreldraw/odm/2003">
 <defs>
  <style type="text/css">
   <![CDATA[
    .fil0 {fill:#2B2A29}
    .fil4 {fill:#FEFEFE;fill-rule:nonzero}
    .fil1 {fill:#588C41;fill-rule:nonzero}
    .fil2 {fill:#9E5A34;fill-rule:nonzero}
    .fil3 {fill:#CD0E0F;fill-rule:nonzero}
   ]]>
  </style>
 </defs>
 <g id="Слой_x0020_1">
  <metadata id="CorelCorpID_0Corel-Layer"/>
  <path class="fil0" d="M2.8489 0.0483c0.5316,-0.17 1.1776,0.1352 1.5578,0.497 0.1358,-0.1008 0.4859,-0.2727 0.6542,-0.3202 0.4561,-0.1288 1.1931,-0.1252 1.4784,0.2812 0.1169,0.1665 0.2716,0.5229 0.269,0.7225 0.189,0.0368 0.3584,0.137 0.5045,0.2592 0.1013,0.0301 0.3116,0.1259 0.2491,0.2603 0.1405,0.0498 0.2662,0.1218 0.2919,0.2752 0.1531,0.0799 0.2402,0.1661 0.2951,0.3367 0.0419,0.1303 -0.0258,0.192 -0.1417,0.304 0.0411,0.0807 0.0391,0.1278 -0.0156,0.1684 -0.0262,0.0194 -0.1649,0.0466 -0.2141,0.0736 -0.072,0.0397 -0.0634,0.0294 -0.1242,0.0886 -0.1126,0.1096 -0.4439,0.278 -0.5835,0.3394 0.0821,0.0613 0.1511,0.1434 0.1806,0.243 0.0435,0.0031 0.0967,0.0092 0.1188,0.0532 0.1063,0.2038 0.1072,0.2815 -0.0241,0.4105 -0.2813,0.2767 -0.548,0.2677 -0.9123,0.3352 -0.3529,0.0654 -0.5434,0.0438 -0.8631,0.0656 -0.12,0.0082 -0.5481,0.4034 -0.6146,0.5542 0.4753,0.1755 0.7415,0.2445 1.2326,0.1593 0.446,-0.0774 0.6106,-0.3141 0.8855,-0.4424 0.3804,-0.1776 0.5983,-0.0725 0.9433,0.0906 0.1712,0.0809 0.1988,0.4222 -0.1731,0.4108 -0.3121,-0.0096 -0.3756,-0.2382 -0.5802,-0.1489 -0.1423,0.0623 -0.2871,0.1197 -0.4243,0.1931 -0.2319,0.1226 -0.2678,0.1551 -0.5557,0.2529 -0.2621,0.0891 -0.4497,0.1472 -0.7288,0.1106 -0.0424,-0.0056 -0.6816,-0.2025 -0.7202,-0.2164 -0.1015,0.2878 -0.1121,0.6909 0.0408,0.958 0.5357,-0.012 1.2514,-0.0969 1.7442,-0.0666 0.1241,0.0076 0.3347,0.2205 0.0646,0.312 -0.1539,0.0522 -0.3388,0.0785 -0.4194,0.1293 -0.1533,0.0966 -0.5328,0.2404 -0.7084,0.2848 -0.0817,0.0197 -0.1657,0.0746 -0.1887,0.1594 -0.0248,0.0762 0.518,0.2638 0.7201,0.5693 0.4011,-0.1316 0.7953,-0.2983 1.1414,-0.5433 0.189,-0.137 0.3421,-0.3188 0.4573,-0.521 0.0403,0.0622 0.0235,0.3447 0.0201,0.4202 0.0958,-0.0505 0.1971,-0.0898 0.2918,-0.1423 0.0709,-0.0386 0.1355,-0.0892 0.2125,-0.1158 0.0846,0.1365 -0.0696,0.3 -0.1638,0.474 0.1186,0.0636 0.34,0.1262 0.3876,0.271 -0.1205,0.0923 -0.3898,0.1034 -0.5322,0.148 -0.0507,0.0159 -0.2941,0.1247 -0.3227,0.1723 -0.0235,0.039 -0.0292,0.1085 -0.048,0.1498l-7.5304 -0.0036c-0.0007,-0.4915 0.0046,-1.0085 -0.0009,-1.4999 0.1078,-0.0846 0.3153,-0.1817 0.4401,-0.2358 -0.2372,-0.4144 -0.4672,-1.3181 -0.4254,-1.8127 0.035,-0.3781 0.064,-0.7623 0.1912,-1.1232 0.0392,-0.1164 0.3206,-0.7417 0.3799,-0.8662 0.1155,-0.2428 0.1909,-0.5175 0.461,-0.677 0.1403,-0.0836 0.3001,-0.1234 0.4534,-0.1753 0.1699,-0.5283 0.2151,-0.6988 0.5955,-1.114 0.2083,-0.2227 0.4594,-0.4163 0.7533,-0.5086zm4.9455 3.9215c0.0569,-0.058 0.3155,0.0211 -0.0098,0.2392 -0.0194,-0.0764 -0.0591,-0.1771 0.0098,-0.2392zm0.5532 0.5003c0.1348,-0.0723 0.3096,0.2825 -0.1894,0.2005 0.0416,-0.0832 0.1029,-0.1612 0.1894,-0.2005zm-1.5771 1.0962c0.1946,-0.066 0.3305,-0.0041 0.3064,0.0939 -0.0324,0.0967 -0.1226,0.0874 -0.1924,0.0338 -0.0448,-0.0344 -0.0814,-0.0845 -0.114,-0.1277z"/>
  <path class="fil1" d="M2.9997 0.0652c0.3127,-0.0313 0.4628,-0.0151 0.7618,0.1255 0.2531,0.119 0.5297,0.2441 0.6904,0.4863 0.2246,0.3387 0.156,0.4652 0.2154,0.7832 -0.2948,-0.1063 -0.7548,-0.0041 -1.0389,0.1085 -0.3961,0.157 -0.3388,0.3423 -1.144,0.5126 0.2138,0.0263 0.5361,-0.1136 0.7143,-0.2174 0.1378,-0.079 0.2588,-0.1864 0.4059,-0.2489 0.3091,-0.136 0.658,-0.1888 0.9922,-0.1374 0.1351,0.0707 0.2055,0.2168 0.2608,0.3518 -0.5759,-0.2379 -0.7418,-0.1738 -1.3057,0.0467 -0.2875,0.1134 -0.5706,0.238 -0.8618,0.342 -0.0764,0.0308 -0.1631,0.0428 -0.2267,0.0993 0.5935,-0.1575 1.4848,-0.6623 1.918,-0.5998 0.1761,0.0268 0.3417,0.0969 0.5026,0.1705 0.1737,0.0798 0.3168,0.2111 0.4421,0.3529 -0.1057,-0.2655 -0.3561,-0.3289 -0.3941,-0.375 -0.0454,-0.145 -0.1414,-0.2648 -0.2319,-0.3837 -0.0366,-0.0967 0.0715,-0.4769 -0.2782,-0.9212 0.4222,-0.2501 0.8054,-0.3919 1.3015,-0.367 0.251,0.0126 0.5375,0.0863 0.7208,0.2693 0.1517,0.1515 0.2511,0.4218 0.303,0.6225 -0.1861,-0.0528 -0.381,-0.0556 -0.5729,-0.0598 -0.3862,-0.0171 -0.7688,0.0506 -1.1489,0.1088 -0.0576,0.0088 -0.1111,0.0332 -0.1608,0.0627 0.1192,-0.0053 0.2336,-0.0433 0.3521,-0.0531 0.3476,-0.0239 0.9288,0.0564 1.3003,0.0868 0.1479,0.009 0.2934,0.0408 0.435,0.0831 0.1082,0.0326 0.1943,0.1095 0.2905,0.1653 -0.1028,0.0072 -0.209,0.0067 -0.3064,0.0447 -0.3782,0.1418 -0.734,0.3348 -1.1027,0.4984 -0.1407,0.065 -0.2975,0.0781 -0.4405,0.1353 0.3318,0.0235 1.1864,-0.4812 1.5911,-0.6133 0.1818,-0.0594 0.5042,-0.0383 0.5586,0.1895 -0.2101,-0.0435 -0.371,-0.0722 -0.5838,-0.0215 -0.2888,0.0689 -1.1678,0.5234 -1.4241,0.6672 -0.0405,0.0234 -0.0818,0.0458 -0.1262,0.061 -0.0759,-0.0437 -0.1346,-0.1097 -0.2069,-0.1583 -0.2714,-0.1854 -0.4106,-0.226 -0.734,-0.2935 -0.0839,-0.0168 -0.1649,-0.0454 -0.2492,-0.0595 -0.4217,-0.0728 -0.8969,0.0796 -1.2051,0.3789 -0.0444,0.0435 -0.0888,0.0888 -0.1165,0.1451 -0.023,0.0523 -0.0758,0.0798 -0.1166,0.1165 0.0092,0.0361 0.0189,0.0754 0.0513,0.0981 0.1649,0.1377 0.3669,0.2304 0.5783,0.2673 0.29,0.0558 0.7245,0.1628 1.0104,0.0848 0.2916,-0.0796 0.5069,-0.1154 0.7848,-0.2581 0.0408,-0.0207 0.0833,-0.0374 0.1263,-0.0531 0.0218,0.0335 0.0408,0.0687 0.0575,0.105 -0.0839,0.1356 -0.326,0.3047 -0.4638,0.3676 -0.5275,0.2405 -0.9351,0.1393 -1.4782,0.0192 -0.163,-0.0389 -0.3214,-0.0943 -0.485,-0.1304 0.2421,0.1667 1.0371,0.2996 1.3093,0.2999 0.4499,0.0005 0.6763,-0.1155 1.0073,-0.3695 0.069,-0.0529 0.1337,-0.1184 0.1557,-0.2053 0.2308,0.0473 0.6224,0.1008 0.8433,0.1085 0.3231,0.0073 0.65,0.0088 0.9675,-0.0599 0.1873,-0.0318 0.3748,-0.0645 0.559,-0.1115 0.0455,-0.0125 0.253,-0.0826 0.1852,0.0461 -0.041,0.0778 -0.1639,0.0812 -0.2434,0.1153 -0.0567,0.0226 -0.4019,0.3195 -0.7251,0.4156 -0.1659,0.0493 -0.7482,0.0954 -0.9156,0.0947 -0.0783,-0.0004 -0.4244,-0.1407 -0.5598,-0.1611 0.1394,0.1252 0.4086,0.1148 0.5775,0.2519 0.0409,0.0335 0.0847,0.0638 0.1333,0.0857 -0.0359,-0.0556 -0.0854,-0.0999 -0.1374,-0.1397 0.2952,0.0168 0.5855,-0.0506 0.8759,-0.09 0.0982,-0.0133 0.1934,0.165 0.2265,0.2347 -0.3698,0.2082 -1.1044,0.3743 -1.5262,0.3896 -0.8485,0.0308 -1.3913,-0.0968 -2.202,-0.2711 -0.2661,-0.0593 -0.7451,-0.1476 -1.0031,-0.0713 -0.3515,0.1044 -0.6416,0.269 -0.8583,0.5776 -0.2993,0.4171 -0.4606,0.8819 -0.4705,1.3956 -0.0047,0.2463 0.0618,0.634 0.2365,0.8206 0.6539,0.6989 1.3658,-0.0723 2.0769,0.126 0.7414,0.2252 0.8787,0.2606 1.6965,0.2329 0.3644,-0.0124 0.7393,-0.0633 1.0791,-0.0839 -0.5975,0.3438 -1.7383,0.463 -1.8375,0.5282 0.1799,0.019 0.8253,-0.1265 0.9972,-0.175 -0.0421,0.0456 -0.0762,0.0999 -0.0836,0.1628 0.3763,0.3013 0.6486,0.3203 0.885,0.8098 -0.7101,0.0037 -1.4203,0.0015 -2.1305,0.0016 -0.2981,-0.0018 -0.5962,0.0043 -0.8944,-0.0026 0.0774,-0.1841 0.0881,-0.1208 0.259,-0.2367 0.1174,-0.0797 0.356,-0.0463 0.6486,-0.2129 -0.0909,-0.1002 -0.2113,-0.1643 -0.3251,-0.2341 0.0589,-0.1023 0.2823,-0.4713 0.3135,-0.5621 -0.2349,0.025 -0.4284,0.1716 -0.6365,0.2694 -0.0037,-0.1406 0.0282,-0.2878 -0.0291,-0.4219 -0.3803,0.409 -0.4787,0.5944 -1.0004,0.8319 -0.1462,0.066 -0.2864,0.1445 -0.4335,0.2087 -0.0758,0.0339 -0.1571,0.0571 -0.2259,0.1054 0.1727,-0.0155 0.5318,-0.2154 0.6992,-0.2904 0.4662,-0.2088 0.6238,-0.4217 0.9546,-0.7942 0.0016,0.1438 0.0014,0.2878 -0.0034,0.4317 0.1595,-0.103 0.4375,-0.2274 0.6155,-0.2994 -0.1016,0.175 -0.2133,0.344 -0.3086,0.5227 0.1126,0.0625 0.2169,0.1388 0.315,0.2221 -0.1364,0.0718 -0.2881,0.1089 -0.4401,0.1285 -0.1215,0.0126 -0.2203,0.0896 -0.3255,0.144 -0.0735,0.0359 -0.1032,0.1173 -0.1333,0.1876 -1.0382,0.0051 -2.0767,0.0034 -3.1149,0.0008 -0.0055,-0.4613 0.0016,-0.9227 -0.004,-1.384 -0.0071,-0.0631 0.3816,-0.2556 0.443,-0.2789 0.163,0.1217 0.3239,0.2533 0.5179,0.3232 0.228,0.0873 0.828,0.3099 1.0765,0.2763 -0.0659,-0.0234 -0.3108,-0.0642 -0.4349,-0.0974 -0.3993,-0.1069 -0.8492,-0.2416 -1.1279,-0.568 -0.1812,-0.2123 -0.2985,-0.769 -0.3617,-1.0338 -0.0617,-0.2644 -0.092,-0.5383 -0.0638,-0.8093 0.0375,-0.39 0.0743,-0.7873 0.2221,-1.154 0.1153,-0.2841 0.2575,-0.5821 0.3852,-0.8621 0.2171,-0.4996 0.3079,-0.5538 0.8219,-0.7318 -0.0579,0.2231 -0.1463,0.4428 -0.1471,0.6764 0.0056,-0.0023 0.017,-0.0072 0.0226,-0.0097 0.0499,-0.3822 0.2841,-1.1856 0.5233,-1.5048 0.2473,-0.331 0.6687,-0.7743 1.1116,-0.8046zm-0.0382 0.8101c-0.1508,0.0792 -0.5841,0.2861 -0.6876,0.3986 0.0899,-0.0293 0.5975,-0.3088 0.7166,-0.3689 0.4597,-0.2318 0.9555,-0.1843 1.3608,0.1332 0.1044,0.0807 0.1561,0.2094 0.2582,0.2927 -0.1475,-0.3588 -0.5517,-0.582 -0.927,-0.6115 -0.2488,-0.0175 -0.5007,0.0404 -0.721,0.156zm-1.8686 2.3125c0.0457,0.049 0.1167,0.0553 0.1794,0.0601 -0.1882,-0.1279 -0.2573,-0.0889 -0.1414,-0.3755 -0.1025,0.0665 -0.1222,0.227 -0.038,0.3154zm4.2567 -0.1144c-0.0764,0.0522 -0.1725,0.0784 -0.2294,0.1557 0.1663,-0.0649 0.403,-0.1832 0.4751,-0.3514 -0.0847,0.0619 -0.156,0.1407 -0.2458,0.1957zm-4.5178 -0.1672c0.0504,0.2006 0.0662,0.2014 -0.107,0.4278 -0.0837,0.1097 -0.205,0.1843 -0.2831,0.2989 0.169,-0.1009 0.6387,-0.505 0.3902,-0.7266zm3.8859 0.5425c-0.2482,0.0892 -0.5639,0.1446 -0.829,0.1464 -0.0472,0.0013 -0.151,-0.0277 -0.1758,0.0186 0.2853,0.0527 0.575,-0.013 0.852,-0.0811 0.1492,-0.037 0.4088,-0.1439 0.5226,-0.2556 -0.1318,0.0381 -0.2404,0.1278 -0.3697,0.1717zm-4.0203 0.2415c0.1152,-0.126 0.2397,-0.3379 0.4398,-0.3131 0.0452,0.0038 0.0679,0.049 0.0999,0.0753 -0.03,-0.2388 -0.4455,-0.0867 -0.5397,0.2378zm4.1738 -0.165c-0.1316,0.0869 -0.2756,0.1797 -0.3384,0.3314 0.0662,-0.0524 0.1119,-0.1258 0.1799,-0.1765 0.2616,-0.2015 0.424,-0.2497 0.5148,-0.3258 -0.1294,0.0306 -0.2456,0.0993 -0.3563,0.1709zm-4.0078 1.4095c-0.0664,0.0519 -0.1505,0.0738 -0.2167,0.126 0.1406,-0.0153 0.328,-0.1077 0.3284,-0.2714 -0.0371,0.0483 -0.0622,0.1073 -0.1117,0.1453zm0.1831 0.1609c0.0157,0.0368 0.0561,0.052 0.0891,0.0694 -0.0542,-0.07 -0.07,-0.0816 -0.0643,-0.176 0.0052,-0.0725 0.0579,-0.1277 0.0887,-0.1901 -0.1021,0.0558 -0.1483,0.1876 -0.1134,0.2967zm-0.4133 0.0757c0.1739,-0.0569 0.2288,-0.1055 0.3414,0.0691 -0.0069,-0.1017 -0.0077,-0.1078 -0.1178,-0.1447 -0.0773,-0.0259 -0.1475,-0.0146 -0.2236,0.0756zm4.8298 -4.0728c0.3737,-0.023 0.6705,-0.0559 1.05,-0.0134 0.0805,0.0094 0.1624,0.0162 0.2388,0.0453 0.0074,0.0331 0.0149,0.0661 0.0218,0.0995 -0.2173,-0.0476 -0.6362,-0.0788 -0.8736,-0.0971 -0.1456,-0.0127 -0.2931,-0.0037 -0.4369,-0.0342zm1.2895 0.7214c0.3261,-0.1462 0.897,-0.1329 1.066,0.1823 -0.5312,-0.1987 -0.5702,-0.0392 -1.0553,0.1288 -0.316,0.1088 -0.6276,0.2341 -0.9553,0.3038 -0.153,0.0327 -0.3015,0.0822 -0.4506,0.1284 -0.0853,-0.0747 -0.5337,-0.4096 -0.6355,-0.4456 -0.1965,-0.0695 -0.407,-0.0895 -0.6143,-0.0866 -0.335,-0.0067 -0.6626,0.1043 -0.9476,0.2749 -0.0855,0.0484 -0.1646,0.1071 -0.2493,0.157 0.321,-0.3714 0.8206,-0.5733 1.3075,-0.4917 0.1455,0.0244 0.5635,0.1218 0.6701,0.1727 0.0996,0.0479 0.1959,0.1024 0.289,0.1619 0.102,0.0647 0.1676,0.2232 0.3028,0.1433 0.3779,-0.2233 0.865,-0.4517 1.2725,-0.6291zm0.5513 5.3825c0.1523,-0.117 0.2709,-0.2711 0.3719,-0.433 0.004,0.1273 -0.007,0.2541 -0.0096,0.3814 0.1008,-0.0368 0.1977,-0.0832 0.2961,-0.126 0.0806,-0.035 0.1515,-0.0887 0.2332,-0.1214 0.0221,0.1133 -0.1507,0.3149 -0.1902,0.4289 0.1275,0.0807 0.2783,0.1326 0.3808,0.2476 -0.1003,0.0684 -0.2266,0.0668 -0.3414,0.0892 -0.1493,0.0233 -0.2861,0.0899 -0.4217,0.1529 -0.0842,0.0382 -0.104,0.137 -0.1507,0.208 -0.4037,-0.0004 -0.8075,0.0013 -1.2112,-0.0017 -0.0471,-0.0829 -0.0944,-0.1661 -0.1508,-0.2432 0.4166,-0.1258 0.8483,-0.3163 1.1935,-0.5827z"/>
  <path class="fil2" d="M7.2449 3.6247c0.1174,-0.0537 0.2171,0.237 0.111,0.3468 -0.3032,0.3133 -0.4757,0.2802 -0.8256,0.3411 -0.4791,0.0834 -1.4281,0.1321 -1.8613,0.0775 -0.8593,-0.1083 -1.5792,-0.523 -2.404,-0.1583 -0.6513,0.2895 -1.1342,2.3634 0.1824,2.0143 0.3647,-0.0967 0.7124,-0.2438 1.1549,-0.1058 1.2643,0.3944 1.4489,0.2583 2.8048,0.2003 0.1737,-0.0074 0.2706,-0.0285 0.3639,0.1184 0.1329,0.2092 -1.4528,0.2788 -1.6388,0.2865 -0.7021,0.0293 -0.8109,-0.0013 -1.4576,-0.1901 -0.8136,-0.2375 -0.978,0.1275 -1.5926,0.1221 -1.4539,-0.0129 -0.9022,-2.5112 0.1659,-2.9177 0.5693,-0.2167 0.9008,-0.0649 1.5046,0.0435 0.3863,0.072 0.7729,0.1431 1.1615,0.2016 0.1983,0.0304 0.9988,0.0114 1.2049,-0.0269 0.6822,-0.1269 0.6019,-0.1317 1.1261,-0.3532z"/>
  <path class="fil3" d="M6.9373 4.8368c0.3878,-0.2632 0.6167,-0.1997 0.9654,-0.043 0.4102,0.1844 0.117,0.4871 -0.2495,0.3321 -0.1657,-0.0701 -0.2318,-0.173 -0.4066,-0.101 -0.5837,0.2406 -1.254,0.7252 -1.8463,0.5078 -0.2273,-0.0834 -0.9723,-0.313 -1.1963,-0.3012 -0.4297,0.0227 -0.5581,0.3047 -0.6047,0.6755 -0.009,0.0635 0.0182,0.1252 0.0101,0.1888 -0.1622,-0.0345 -0.3284,-0.0504 -0.4941,-0.0472 -0.0868,-0.8008 0.7509,-1.3298 1.4,-1.1623 0.4426,0.1142 0.8465,0.3949 1.424,0.3476 0.4502,-0.0369 0.6492,-0.1478 0.9979,-0.3971z"/>
  <path class="fil4" d="M3.0824 2.4042c-0.0939,0.0598 -0.1913,0.1186 -0.2644,0.2044 0.1315,0.1133 0.2881,0.1955 0.4525,0.2495 0.2797,0.0742 0.5673,0.1137 0.8544,0.1463 0.1155,0.0126 0.2303,-0.0151 0.3427,-0.0386 0.1813,-0.0464 0.3673,-0.0805 0.5401,-0.1548 0.1039,-0.045 0.2092,-0.0863 0.3116,-0.1348 -0.0003,-0.0311 -0.0004,-0.0621 -0.0001,-0.0932 -0.1229,-0.095 -0.2564,-0.1756 -0.3795,-0.2707 -0.1915,-0.1425 -0.2571,-0.1877 -0.5008,-0.2225 -0.1456,-0.014 -0.2924,-0.0308 -0.4387,-0.0159 -0.366,0.0413 -0.6004,0.1315 -0.9178,0.3302zm1.4976 0.1679c-0.0335,0.0141 -0.0595,0.071 -0.0164,0.0898 0.0342,0.0326 0.1013,-0.0064 0.0828,-0.0523 -0.0042,-0.0313 -0.0394,-0.0417 -0.0664,-0.0375zm-0.1227 -0.1178c0.1319,-0.0616 0.2909,0.071 0.2742,0.2095 -0.0231,0.1041 -0.137,0.1678 -0.2391,0.1541 -0.1032,-0.0086 -0.1872,-0.1195 -0.16,-0.2209 0.017,-0.0632 0.0649,-0.1169 0.1248,-0.1427zm3.0343 -0.0085c-0.0022,0.0371 0.0417,0.0733 0.0764,0.0525 0.0183,-0.0155 0.0263,-0.0391 0.0387,-0.059 -0.0228,-0.0189 -0.0457,-0.0376 -0.0687,-0.0562 -0.0163,0.0202 -0.0345,0.0394 -0.0464,0.0627zm-0.0911 -0.1557c0.0673,-0.019 0.1533,-0.0146 0.202,0.042 0.0467,0.0504 0.0371,0.126 0.0264,0.188 -0.0485,0.1252 -0.2417,0.1434 -0.3227,0.0416 -0.0602,-0.0939 -0.0059,-0.2307 0.0943,-0.2716zm-0.6241 -0.1177c-0.2596,0.088 -0.5159,0.186 -0.7794,0.2614 -0.1493,0.0311 -0.2953,0.0749 -0.4414,0.1176 -0.0671,0.0222 -0.14,0.0356 -0.1951,0.0828 0.0141,0.0516 0.0437,0.1103 0.1015,0.1214 0.2822,0.0546 0.5684,0.084 0.8546,0.1089 0.2798,0.0088 0.5609,-0.0033 0.838,-0.0453 0.2516,-0.0489 0.5058,-0.0876 0.7545,-0.1505 0.0905,-0.0428 0.1821,-0.1104 0.2147,-0.2094 0.0088,-0.1936 -0.1627,-0.3256 -0.3124,-0.4061 -0.133,-0.0781 -0.2908,-0.1192 -0.445,-0.1022 -0.209,0.0368 -0.3922,0.1509 -0.5899,0.2215z"/>
 </g>
</svg>
