<?xml version="1.0" encoding="UTF-8"?>
<!DOCTYPE svg PUBLIC "-//W3C//DTD SVG 1.1//EN" "http://www.w3.org/Graphics/SVG/1.1/DTD/svg11.dtd">
<!-- Creator: CorelDRAW 2020 (64-Bit) -->
<svg xmlns="http://www.w3.org/2000/svg" xml:space="preserve" width="90.4826mm" height="81.4268mm" version="1.1" style="shape-rendering:geometricPrecision; text-rendering:geometricPrecision; image-rendering:optimizeQuality; fill-rule:evenodd; clip-rule:evenodd"
viewBox="0 0 9.4675 8.52"
 xmlns:xlink="http://www.w3.org/1999/xlink"
 xmlns:xodm="http://www.corel.com/coreldraw/odm/2003">
 <defs>
  <style type="text/css">
   <![CDATA[
    .fil0 {fill:#2B2A29}
    .fil3 {fill:#0348FE;fill-rule:nonzero}
    .fil1 {fill:#588C41;fill-rule:nonzero}
    .fil2 {fill:#9E5A34;fill-rule:nonzero}
   ]]>
  </style>
 </defs>
 <g id="Слой_x0020_1">
  <metadata id="CorelCorpID_0Corel-Layer"/>
  <path class="fil0" d="M2.9397 0.0263c0.2351,-0.0487 0.4807,-0.0263 0.7103,0.04 0.2479,0.0628 0.4788,0.1829 0.6834,0.3347l0.0466 0.0329c0.193,-0.1104 0.3949,-0.2081 0.6083,-0.2719 0.2413,-0.0725 0.5035,-0.1096 0.7501,-0.0404 0.2328,0.0555 0.4401,0.2146 0.5502,0.4275 0.0853,0.1576 0.1392,0.3301 0.1831,0.503 0.0675,0.0211 0.1346,0.0443 0.2005,0.0704 0.1154,0.0493 0.2361,0.0979 0.3278,0.1868 0.0551,0.051 0.0911,0.1176 0.1317,0.1798l0.0126 -0.0014c0.0238,0.0106 0.0451,0.0265 0.0685,0.0383 0.1023,0.0385 0.1804,0.1367 0.1684,0.2498l0.0112 0.0075c0.071,0.0387 0.1388,0.1002 0.1533,0.1837 0.0044,0.0421 -0.005,0.0936 -0.0423,0.1187 0.0505,0.048 0.065,0.1301 0.0348,0.1936 -0.0222,0.0594 -0.0748,0.0988 -0.1238,0.1354 0.0466,0.0599 0.0468,0.1561 -0.0147,0.2057 -0.0657,0.0505 -0.1408,0.0895 -0.222,0.1079 -0.1321,0.1897 -0.3169,0.3467 -0.5327,0.4324 -0.0143,0.0072 -0.0292,0.0135 -0.0443,0.019 0.2141,0.1355 0.3916,0.3419 0.4622,0.588 0.0381,0.127 0.0601,0.2582 0.0791,0.3893 0.077,-0.0087 0.1296,0.0681 0.1412,0.1359 0.0211,0.083 -0.0132,0.1692 -0.069,0.2307 -0.0735,0.0911 -0.1779,0.1485 -0.2835,0.1945 0.0449,0.0514 0.0901,0.1189 0.0719,0.1905 -0.0406,0.1118 -0.1336,0.2013 -0.2438,0.2446 -0.1081,0.0425 -0.2253,0.0582 -0.3409,0.0613l-0.0248 0.0207c-0.0592,0.0748 -0.1317,0.139 -0.2096,0.1938 0.0688,0.1241 0.0509,0.2804 -0.0288,0.3951 -0.0905,0.1752 -0.2531,0.3046 -0.4416,0.3599 0.0607,0.0835 0.1309,0.1781 0.1152,0.2877 -0.0108,0.0862 -0.083,0.1487 -0.1595,0.1794 -0.0996,0.0412 -0.1976,0.0922 -0.3038,0.1125 -0.0279,0.1 -0.0153,0.2065 -0.0455,0.3065 -0.0356,0.2715 -0.0441,0.5465 -0.0907,0.8168 -0.0242,0.1439 -0.0625,0.2939 -0.1638,0.4043 -0.1338,0.1425 -0.3312,0.2116 -0.5227,0.2264 -0.1893,0.0091 -0.3941,-0.0071 -0.5557,-0.1158 -0.1338,-0.0901 -0.182,-0.2642 -0.1673,-0.4183 0.0311,-0.3543 0.2454,-0.6517 0.3405,-0.9874l0.0012 -0.0276c-0.7744,0.0607 -1.5555,0.0296 -2.3239,-0.0818 -0.3902,-0.0588 -0.7806,-0.1251 -1.1608,-0.2334 -0.1754,-0.0538 -0.3537,-0.1125 -0.5057,-0.2185 -0.0895,-0.0619 -0.1675,-0.157 -0.1704,-0.2703 -0.0023,-0.1286 0.0797,-0.2351 0.1464,-0.3376 0.1265,-0.1825 0.3154,-0.3512 0.5492,-0.3552 -0.047,-0.0483 -0.0644,-0.1189 -0.0675,-0.1843 -0.1559,-0.1195 -0.2821,-0.2781 -0.3589,-0.4592 -0.0984,-0.2377 -0.1421,-0.4964 -0.1377,-0.753 0.0178,-0.5001 0.1858,-0.9831 0.4165,-1.423 0.1319,-0.2525 0.2866,-0.4927 0.4587,-0.7195 0.1164,-0.1553 0.2723,-0.2752 0.4295,-0.3867 0.2086,-0.4682 0.4904,-0.9214 0.9005,-1.2393 0.1777,-0.135 0.3829,-0.2375 0.6029,-0.2804zm5.3589 3.5439c0.0006,-0.0818 0.0806,-0.1272 0.1508,-0.1441 0.0775,-0.0261 0.1644,0.0041 0.2226,0.058 0.0799,0.0719 0.1429,0.1593 0.2098,0.2425 0.0176,-0.065 0.0588,-0.1317 0.1286,-0.1483 0.1021,-0.0352 0.2046,0.0451 0.244,0.1359 0.0375,0.0919 0.0835,0.182 0.1537,0.2533 0.0538,0.0532 0.0663,0.1338 0.0561,0.2061 -0.013,0.098 -0.0375,0.1945 -0.0578,0.2914 -0.0416,0.2036 -0.1506,0.3862 -0.2752,0.5499 -0.0499,0.0528 -0.099,0.1087 -0.1636,0.1441 -0.1064,0.0669 -0.2431,0.0911 -0.3235,0.1947 -0.1222,0.1446 -0.2665,0.275 -0.4391,0.3562 -0.0611,0.0321 -0.1386,0.0522 -0.1682,0.1218 -0.0162,0.0516 -0.007,0.1071 -0.0039,0.1603 0.0335,0.2663 0.112,0.524 0.1889,0.7805 0.0599,0.2295 0.1214,0.4672 0.0916,0.7062 -0.0168,0.1464 -0.0938,0.2879 -0.2195,0.368 -0.1508,0.0957 -0.343,0.1124 -0.5136,0.0661 -0.1717,-0.0416 -0.3564,-0.1396 -0.4125,-0.3195 -0.071,-0.1858 -0.0371,-0.3867 -0.0644,-0.5793 -0.0327,-0.273 -0.1067,-0.5389 -0.1667,-0.8068 -0.0518,-0.2293 -0.1102,-0.4697 -0.0466,-0.7029 0.0543,-0.2114 0.1949,-0.4262 0.4148,-0.4894 0.1319,-0.0468 0.2717,-0.0733 0.3972,-0.1371 0.0153,-0.0128 0.0497,-0.0199 0.0406,-0.0468 -0.0149,-0.0692 -0.0646,-0.1241 -0.0974,-0.1853 -0.0619,-0.0888 -0.0803,-0.198 -0.1323,-0.2916 -0.0294,-0.0687 -0.0917,-0.1232 -0.0963,-0.2011 0.0089,-0.0576 0.0337,-0.1211 0.0907,-0.1462 0.0754,-0.0425 0.1752,-0.0193 0.2274,0.0489 0.1423,0.1769 0.2572,0.3763 0.3318,0.5911 0.0151,0.0545 0.0743,0.0161 0.1108,0.0099 0.0598,-0.0124 0.0739,-0.0839 0.0783,-0.1354 0.0164,-0.269 -0.1822,-0.4917 -0.1922,-0.7567 -0.007,-0.1191 0.1178,-0.2307 0.2349,-0.1947z"/>
  <path class="fil1" d="M8.3742 3.594c-0.0275,-0.0912 0.1512,-0.1807 0.3158,0.0081 0.2226,0.2552 0.3693,0.5746 0.344,0.9218 0.0807,-0.0363 0.0489,-0.1393 0.0567,-0.2174 0.0013,-0.0404 0.0338,-0.0733 0.0305,-0.1143 -0.0047,-0.1681 -0.1264,-0.219 -0.1518,-0.2902 -0.0941,-0.2493 0.1245,-0.3477 0.2125,-0.1729 0.2295,0.4626 0.2764,0.2275 0.1464,0.7654 -0.0436,0.1803 -0.2192,0.4919 -0.3864,0.5977 -0.0936,0.0588 -0.2034,0.0878 -0.292,0.1547 -0.2335,0.1941 -0.1975,0.2915 -0.602,0.4612 -0.0829,0.0296 -0.1781,0.0253 -0.2551,0.0681 0.04,0.0603 0.1191,0.0218 0.1769,0.0226 -0.1138,0.474 0.5914,1.5925 0.1112,1.9685 -0.2413,0.1889 -0.6698,0.0761 -0.8008,-0.1058 -0.0973,-0.1518 -0.0905,-0.3396 -0.0942,-0.5126 -0.0229,-0.5781 -0.4347,-1.3679 -0.1441,-1.8279 0.1938,-0.3036 0.3887,-0.2328 0.6755,-0.3701 0.1836,-0.0879 0.0712,-0.194 -0.0279,-0.3695 -0.0466,-0.0804 -0.0657,-0.1733 -0.1108,-0.2545 -0.0257,-0.0534 -0.0617,-0.1009 -0.0884,-0.1537 -0.0299,-0.0924 0.1076,-0.1816 0.2189,-0.0369 0.2362,0.3069 0.2762,0.6295 0.3912,0.6124 0.4812,-0.0717 0.0601,-0.7062 0.0335,-0.9817 -0.011,-0.0826 0.0996,-0.1733 0.1719,-0.1129 0.1525,0.1363 0.1773,0.5282 0.3363,0.7122 0.0338,0.0402 0.0574,0.0874 0.0824,0.1334 0.0566,0.0058 0.0332,-0.1995 0.0126,-0.2467 -0.0269,-0.0511 -0.0752,-0.0874 -0.0982,-0.141 -0.0333,-0.0511 -0.0017,-0.1201 -0.04,-0.1684 -0.0814,-0.1114 -0.181,-0.2158 -0.2247,-0.3494zm-5.8284 -3.3511c0.2686,-0.1588 0.5938,-0.2185 0.9009,-0.1584 0.3049,0.047 0.5925,0.1789 0.8415,0.3587 0.1715,0.1812 0.3003,0.4119 0.3108,0.6656 -0.0706,-0.0186 -0.4548,-0.3166 -0.9419,-0.3833 -0.3567,-0.0488 -0.8699,0.1386 -1.1598,0.3409 -0.0008,0.0124 -0.0023,0.0373 -0.0033,0.0497 0.201,-0.0198 0.8828,-0.7563 2.0517,0.0334 0.0806,0.0561 0.164,0.1122 0.2264,0.1891 -0.5214,-0.0605 -1.0537,0.0027 -1.5375,0.2145 -0.1112,0.0524 -0.2034,0.1377 -0.316,0.188 -0.0976,0.0485 -0.2046,0.0723 -0.3071,0.1081 0.02,0.0802 0.3237,-0.0547 0.3662,-0.0731 0.0953,-0.0412 0.1764,-0.1075 0.2688,-0.1541 0.4877,-0.239 1.0512,-0.3069 1.5849,-0.2166 0.1,0.0679 0.216,0.1205 0.2897,0.2204 -0.065,0.1564 -0.2511,-0.1027 -0.9079,-0.1147 -0.7801,-0.0242 -0.9852,0.3599 -1.3606,0.4674 -0.1533,0.0524 -0.3175,0.0387 -0.4747,0.069 -0.0965,0.0215 -0.1792,0.2945 0.2692,0.223 0.1677,-0.0272 0.5938,0.2682 0.9885,0.3877 -0.0572,-0.0045 -0.1209,0.0137 -0.1723,-0.0189 -0.0582,-0.0375 -0.1352,-0.0315 -0.186,-0.0826 -0.0503,-0.0473 -0.2218,-0.0923 -0.2943,-0.0756 0.0015,0.017 0.0042,0.0507 0.0058,0.0677 -0.046,-0.0203 -0.0878,-0.0489 -0.1342,-0.0675 -0.0141,-0.0074 -0.1488,0.0177 0.1537,0.1363 -0.071,0.077 -0.0145,0.1899 -0.0557,0.2785 -0.0404,0.1089 0.048,0.211 0.0319,0.3204 -0.011,0.0839 0.0136,0.1725 -0.0224,0.2522 -0.0698,0.1626 0.0309,0.2292 0.0839,0.1783 0.0058,-0.1232 0.0186,-0.2739 0.0157,-0.4417 0.0137,-0.1023 -0.0673,-0.1972 -0.0304,-0.2989 0.0348,-0.0801 -0.0042,-0.1711 0.0342,-0.25 0.0164,-0.0022 0.7975,0.2613 1.5164,0.1974 0.0673,-0.0046 0.1294,-0.0321 0.1941,-0.0485 0.1709,-0.0434 0.2815,0.0695 0.4886,-0.2549 0.0402,0.024 0.0835,0.0422 0.1284,0.0559 0.1355,0.0399 0.0903,0.1014 0.3102,0.0756 0.0797,-0.0116 0.1589,0.0075 0.238,0.0147 0.0271,0.0897 -0.0474,0.17 -0.0327,0.2589 0.0053,0.0196 0.1193,0.146 0.1736,0.2614 -0.5103,0.0254 -0.668,-0.1614 -0.7251,-0.1052 -0.0584,0.0657 0.3501,0.1503 0.4737,0.2353 0.035,0.0211 0.0634,0.0636 0.1093,0.058 0.0015,-0.0611 -0.0679,-0.0793 -0.104,-0.1168 0.0824,0.0012 0.1653,0.0064 0.2475,-0.005 0.0228,0.0545 0.108,0.2346 0.1102,0.2477 0.0203,-0.0021 0.0408,-0.0039 0.0615,-0.0048 0.0209,-0.095 -0.0619,-0.1655 -0.0758,-0.2545 0.1168,-0.0168 0.2324,-0.0402 0.3465,-0.0704 0.3865,0.2461 0.5076,0.5287 0.5505,0.9638 -0.4795,0.1302 -0.2814,0.2141 -1.195,0.2643 -1.277,0.0703 -1.7152,-0.211 -2.8373,-0.3216 -0.808,-0.0796 -0.9357,0.6747 -0.6294,0.7814 0.1804,0.0628 0.6954,-0.0336 1.2496,0.1017 0.2338,0.0574 0.472,0.0938 0.7103,0.1267 -0.0727,0.1334 -0.1899,0.2651 -0.1632,0.4285 0.0048,0.0884 0.0793,0.1535 0.0851,0.2402 -0.1882,-0.1207 -0.0458,-0.4725 -0.339,-0.5442 -0.0661,-0.0209 -0.1307,0.0447 -0.1224,0.1102 0.0253,0.1872 0.0594,0.3732 0.1164,0.5538 -0.893,0 -3.004,-0.095 -3.5426,-0.946 -0.6524,-1.0309 0.3536,-2.9115 1.015,-3.3244 -0.0265,0.1609 -0.0915,0.4686 -0.0344,0.6231 0.0999,0.0035 -0.0119,-0.3117 0.1021,-0.6743 0.1433,-0.4555 0.6473,-1.1037 1.0541,-1.3416zm-1.856 5.0976c0.5869,0.3822 1.3106,0.4948 1.995,0.5623 0.427,0.0379 0.8551,0.0795 1.284,0.0717 0.034,0.0791 0.0861,0.1495 0.1706,0.1783 -0.9342,0.0716 -2.4985,-0.0126 -3.2637,-0.5757 -0.0808,-0.0601 -0.1622,-0.1346 -0.1858,-0.2367zm4.3185 -0.0075c0.0002,-0.052 -0.0031,-0.1174 0.0431,-0.1522 0.0654,0.0128 0.1321,0.0124 0.1982,0.0159 -0.0089,0.0851 0.0075,0.1742 -0.0257,0.2556 -0.0159,0.0392 -0.051,0.2198 -0.1212,0.1334 -0.059,-0.0698 -0.0913,-0.1619 -0.0944,-0.2527zm0.6609 -0.1178c0.0484,-0.0068 0.0975,-0.0008 0.1462,-0.0004 -0.0773,0.474 0.0818,0.2908 -0.2034,0.4357 -0.0004,-0.1477 0.0514,-0.2885 0.0572,-0.4353zm0.426 0.0071c0.0775,-0.0012 0.1555,-0.006 0.2324,0.0039 -0.0596,0.048 -0.1083,0.1133 -0.1785,0.1456 -0.0246,-0.0474 -0.042,-0.0976 -0.0539,-0.1495zm1.2718 -2.7602c0.0206,0.0152 0.0211,0.0762 0.007,0.0963 -0.0623,0.065 -0.1524,0.0864 -0.2355,0.1116 -0.1041,0.0786 -0.1877,0.4428 -0.9676,0.5291 -0.0282,-0.0746 -0.0659,-0.1477 -0.1278,-0.2001 -0.0922,-0.0777 -0.0657,-0.2537 0.0439,-0.3032 0.0813,-0.0283 0.2463,-0.0349 0.3519,0.024 0.128,-0.052 0.269,-0.0501 0.4047,-0.0462 0.0971,0.0153 0.476,-0.121 0.5235,-0.2114zm-2.3028 0.0344c0.0207,-0.0039 0.0383,-0.0157 0.0582,-0.0222 0.0232,0.0159 0.0445,0.0338 0.0648,0.0536 -0.0439,0.0845 -0.1133,0.1535 -0.1926,0.2052 -0.0304,0.0261 -0.0704,0.0079 -0.1056,0.007 -0.1464,-0.0129 -0.2765,0.1435 -1.0077,0.0418 0.1046,0.0118 0.2112,-0.005 0.315,0.0162 0.0605,0.0131 0.6244,-0.1058 0.7004,-0.1286 0.0739,-0.034 0.1426,-0.0961 0.1675,-0.1729zm-1.1158 0.775c-0.0714,0.0259 -0.147,0.0402 -0.2166,0.0704 0.001,0.0249 0.0135,0.0389 0.0375,0.0418 0.101,-0.0225 1.089,-0.3352 0.9468,-0.4519 -0.2522,0.1197 -0.5001,0.2549 -0.7677,0.3398zm-1.9772 1.5636c0.0344,0.325 0.2741,0.3639 0.5194,0.4366 0.0319,0.0159 0.046,-0.0375 0.0159,-0.0447 -0.2166,-0.0507 -0.412,-0.0816 -0.4859,-0.3713 -0.0058,-0.0259 -0.0222,-0.0329 -0.0493,-0.0207zm2.4519 -4.357c0.4734,-0.2542 1.1477,-0.5316 1.6259,-0.1315 0.1613,0.135 0.3425,0.501 0.356,0.7116 -0.0984,-0.0168 -0.1941,-0.0675 -0.2959,-0.0451 -0.0888,0.0184 -0.1688,-0.0335 -0.2554,-0.0393 -0.3995,-0.0242 -0.8011,0.0108 -1.1927,0.0924 -0.0358,-0.2096 -0.0915,-0.4268 -0.2379,-0.5882zm0.2156 0.6629c0.3817,-0.1114 0.7837,-0.1346 1.1796,-0.1232 0.0743,0.0012 0.1416,0.0342 0.2123,0.0516 0.071,0.0058 0.1413,-0.0375 0.2116,-0.0105 0.273,0.0978 0.6334,0.1239 0.8002,0.3985 -0.0363,0.0363 -0.2345,-0.0275 -0.2949,-0.037 -0.5279,-0.0823 -1.095,-0.0266 -1.5823,0.1802 -0.0482,-0.0706 -0.418,-0.3505 -0.5264,-0.4598zm0.9732 0.3695c0.4032,-0.0901 0.8234,-0.0953 1.2293,-0.0201 0.1403,0.027 0.4611,0.0703 0.4739,0.2516 -0.7572,-0.2746 -1.2476,-0.2491 -2.0126,-0.0174 -0.144,0.0447 -0.1191,0.048 -0.0965,0.1261 0.0311,-0.0172 0.0439,-0.0578 0.0804,-0.0667 0.7664,-0.2265 1.2497,-0.2764 2.0176,0.0255 0.1579,0.0621 0.2162,0.1242 0.1406,0.2752 0.0512,0.1138 0.1575,0.2244 -0.2228,0.3585 -0.2663,0.0841 -0.5467,0.1106 -0.8238,0.1338 -0.3987,0.0325 -0.785,-0.0864 -1.1805,-0.1025 -0.0352,-0.0015 -0.0408,-0.0398 -0.0524,-0.0652 0.0141,-0.0257 0.0234,-0.0536 0.036,-0.0799 -0.2461,0.3053 -1.2101,0.366 -1.5491,0.279 -0.2949,-0.0799 -0.5581,-0.239 -0.8313,-0.3703 -0.1301,-0.0617 -0.2713,0.017 -0.4053,-0.018 -0.0692,-0.0168 -0.0586,-0.1431 0.0168,-0.1381 0.9131,0.0032 0.7635,-0.6087 2.0289,-0.4993 0.2154,0.0209 0.4179,0.1017 0.6219,0.168 0.1454,-0.134 0.3376,-0.2028 0.5289,-0.2403zm-0.1719 3.249c0.0591,-0.1279 0.182,-0.0196 0.1727,0.147 -0.0186,0.1647 0.0019,0.334 -0.0402,0.496 -0.0099,0.0387 -0.0905,0.5015 0.0016,0.4627 0.0687,-0.2738 0.1809,-0.1126 0.2578,-0.2494 0.0618,-0.1101 0.0051,-0.4654 0.1398,-0.4676 0.083,0.0296 0.047,0.1354 0.088,0.1967 0.0557,0.1023 0.122,0.2129 0.088,0.3347 -0.1451,0.4091 -0.4651,0.373 -0.7286,0.629 -0.1372,0.1401 -0.2763,0.008 -0.3113,0.0903 0.0507,0.06 0.1814,0.0321 0.2491,0.0101 -0.1192,0.5423 -0.1283,1.1843 -0.2239,1.5912 -0.1032,0.4479 -0.6284,0.5181 -1.0061,0.3962 -0.1298,-0.0398 -0.2245,-0.1617 -0.2353,-0.2964 -0.0365,-0.4518 0.368,-0.8701 0.3819,-1.3753 -0.0015,-0.1686 -0.0182,-0.3396 0.0236,-0.5051 0.0376,0.0131 0.4065,0.1474 0.374,0.0321 -0.0758,-0.0217 -0.1566,-0.0159 -0.2317,-0.0416 -0.1102,-0.0265 -0.1938,-0.112 -0.3026,-0.1417 -0.1474,-0.0369 -0.2221,-0.6295 -0.2272,-0.751 0.0884,-0.0592 0.2224,0.1645 0.2032,0.3061 -0.0043,0.024 0.0601,0.1301 0.098,0.1956 0.048,0.0828 0.0357,0.0121 0.1377,0.0341 0.0775,-0.1308 -0.0899,-0.2193 -0.0681,-0.3835 0.0132,-0.1334 0.1228,-0.2257 0.1671,-0.3471 0.0431,-0.1048 0.127,-0.1831 0.2085,-0.2584 0.0607,-0.0518 0.1659,0.0481 0.0257,0.2232 -0.1229,0.1534 -0.0975,0.4679 0.0124,0.4819 0.0953,-0.1452 -0.0878,-0.1658 0.0215,-0.3519 0.0913,-0.1185 0.1226,-0.2705 0.2075,-0.3924 0.0119,-0.0174 0.1931,-0.1383 0.1038,0.2166 -0.0215,0.0857 -0.2033,0.2657 0.0081,0.5743 0.0344,0.0512 0.1083,0.083 0.1642,0.0462 0.1448,-0.111 0.0845,-0.4245 0.1502,-0.5643 0.0522,-0.1066 0.0437,-0.2303 0.0909,-0.3384z"/>
  <path class="fil2" d="M5.6863 4.8354c0.3544,-0.0027 0.7081,-0.0323 1.0595,-0.0772 0.0495,-0.0046 0.0994,-0.0222 0.1491,-0.0099 0.0236,0.0474 0.0725,0.0947 0.0553,0.1522 -0.047,0.1131 -0.1537,0.1941 -0.2703,0.2259 -0.1804,0.0497 -0.3694,0.0396 -0.5546,0.0412 -0.0234,0.0006 -0.0418,-0.0091 -0.0553,-0.0294 -0.0422,-0.0729 -0.1526,-0.0683 -0.2025,-0.0068 -0.0431,0.0654 -0.1296,0.0251 -0.194,0.0321 -0.0019,-0.1096 0.0072,-0.2189 0.0128,-0.3282zm-3.2823 -0.4622c0.1218,-0.1613 0.334,-0.2392 0.5322,-0.2195 0.274,0.0132 0.5439,0.0648 0.8131,0.1149 0.3307,0.0567 0.6571,0.1369 0.9899,0.182 0.3388,0.0323 0.6795,0.0451 1.0198,0.0367 0.2593,-0.0141 0.52,-0.0249 0.7748,-0.0787 0.1742,-0.0381 0.3365,-0.1145 0.5024,-0.1777 0.0509,-0.0135 0.112,-0.0445 0.158,-0.0037 0.0449,0.0512 0.0526,0.1273 0.0288,0.1895 -0.0623,0.1228 -0.1854,0.1972 -0.3067,0.2521 -0.0447,0.0186 -0.0922,0.0282 -0.1402,0.0327 -0.3686,0.0393 -0.7391,0.0673 -1.1099,0.0683 -0.0244,-0.0669 -0.0785,-0.1371 -0.1578,-0.1305 -0.0737,-0.0104 -0.1286,0.0549 -0.1398,0.1216 -0.087,0.0304 -0.1812,-0.0042 -0.2713,0.0052 -0.0367,-0.0157 -0.0698,-0.0433 -0.1112,-0.0449 -0.0348,0.004 -0.0667,0.0188 -0.1,0.028 -0.3227,-0.0265 -0.6435,-0.0717 -0.9641,-0.1147 -0.303,-0.0416 -0.6,-0.1327 -0.9079,-0.1303 -0.0891,0.0015 -0.1818,-0.0064 -0.2678,0.022 -0.0224,0.0251 0.0027,0.0605 0.0348,0.0489 0.1808,-0.0135 0.3645,-0.0143 0.5426,0.0234 0.3676,0.0601 0.7342,0.1274 1.1043,0.1696 0.0669,0.0114 0.1359,0.0101 0.2019,0.0284 -0.0926,0.0737 -0.181,0.1605 -0.2322,0.2688 -0.2697,-0.0302 -0.5376,-0.0791 -0.8015,-0.1419 -0.293,-0.0632 -0.5934,-0.0719 -0.892,-0.064 -0.1007,-0.0073 -0.2121,0.0201 -0.303,-0.0358 -0.1444,-0.0857 -0.0775,-0.3359 0.0029,-0.4506zm2.7236 0.4525c0.069,0.0052 0.1383,0.0068 0.2075,0.0091 0.0101,0.0796 -0.0441,0.2266 -0.0721,0.3038 -0.0601,-0.0008 -0.1201,-0.0027 -0.1802,-0.0054 -0.0094,-0.0841 0.0587,-0.1828 0.0449,-0.3075z"/>
  <path class="fil3" d="M1.5115 5.9469c0.9702,0.298 1.71,0.2856 2.7124,0.2616 -0.017,0.1685 -0.0474,0.6603 -0.0661,0.7141 -0.4411,0.0285 -1.3142,0.0315 -1.7529,-0.0211 -0.312,-0.0374 -2.3324,-0.2214 -2.3442,-0.7365 -0.0064,-0.2797 0.4961,-0.7536 0.694,-0.6215 0.3089,0.2061 0.3037,0.2471 0.7568,0.4034zm5.8346 -3.501c-0.0228,0.0052 -0.1129,0.0534 -0.1489,0.0671 -0.1709,0.065 -0.355,0.0875 -0.5365,0.1017 -0.1959,0.0382 -0.3961,0.0402 -0.5945,0.0242 -0.1165,-0.0093 -0.2567,-0.0201 -0.3688,-0.0316 -0.1345,-0.0201 -0.2649,-0.083 -0.4024,-0.0762 -0.0035,0.0049 -0.007,0.0099 -0.0105,0.0149 0.0357,0.0199 0.0737,0.0353 0.1125,0.0472 0.0614,0.0174 0.1107,0.0659 0.1729,0.0781 0.0425,0.0115 0.0891,0.0009 0.1318,-0.0029 0.0814,-0.0118 0.1604,0.0073 0.241,0.0146 0.0565,0.0461 -0.0326,0.1927 -0.0208,0.2688 0.0213,0.0546 0.0765,0.0918 0.1116,0.1389 0.0244,0.038 0.042,0.0796 0.0616,0.1213 0.0096,0.0287 0.0079,0.0308 0.0107,0.059 0.0087,0.0866 0.0787,0.1579 0.0991,0.2452 0.0131,-0.0013 0.0262,-0.0023 0.0393,-0.0031 0.0112,-0.0831 -0.0647,-0.1564 -0.0778,-0.24 -0.0028,-0.0236 -0.0049,-0.0472 -0.0084,-0.0707 -0.0273,-0.0719 -0.0637,-0.1429 -0.1234,-0.1933 -0.0904,-0.0763 -0.0757,-0.2373 0.0155,-0.307 0.0738,-0.0564 0.3067,-0.043 0.39,0.0025 0.1181,-0.0464 0.2464,-0.0486 0.3719,-0.0457 0.0944,0.0021 0.3579,-0.0638 0.4823,-0.1441 0.0244,-0.0158 0.0645,-0.0387 0.052,-0.0691zm-3.1518 0.2609c-0.187,0.039 -0.3776,0.0091 -0.5607,-0.0353 -0.0604,-0.0044 -0.1221,0.0145 -0.1775,-0.021 -0.0591,-0.0379 -0.1336,-0.0295 -0.1878,-0.084 -0.0618,-0.0544 -0.1527,-0.0525 -0.2281,-0.0724 -0.0142,-0.0033 -0.0284,-0.004 -0.0426,-0.0021 0.0014,0.0158 0.0026,0.0317 0.004,0.0475 0.0679,0.0302 0.0415,0.0449 0.0043,0.1031 -0.0456,0.0713 -0.0027,0.1766 -0.0407,0.2582 -0.038,0.1023 0.0481,0.2075 0.0327,0.3173 -0.0121,0.0861 0.0142,0.1723 -0.0233,0.2555 -0.0182,0.0447 -0.0273,0.0952 -0.0159,0.1429 0.0141,0.0273 0.0478,0.0439 0.0738,0.0242 -0.0016,-0.0687 -0.0012,-0.1377 0.0147,-0.2049 0.002,-0.0775 -0.0071,-0.1546 0.0012,-0.2325 0.0136,-0.1015 -0.0688,-0.1939 -0.0294,-0.3025 0.031,-0.0713 0.0004,-0.1531 0.026,-0.2297 0.0101,-0.0301 0.0076,-0.0278 0.0364,-0.0303 0.1061,-0.0146 0.2098,0.0136 0.308,0.052 0.148,0.0578 0.3348,0.0588 0.4935,0.0753 0.1053,0.011 0.2115,-0.005 0.3166,0.0165 0.096,0.0218 0.1934,-0.0412 0.2895,-0.0488 0.1367,-0.0144 0.2682,-0.0589 0.4039,-0.0797 0.0536,-0.0253 0.1341,-0.0869 0.1525,-0.1448 -0.0544,0.0096 -0.0988,0.0617 -0.1546,0.0771 -0.0611,0.0252 -0.1286,0.0105 -0.1866,0.0343 -0.0805,0.0367 -0.1699,0.0321 -0.2514,0.0622 -0.0838,0.031 -0.1712,0.0204 -0.2584,0.0217zm1.4728 3.5194c0.3232,0.3179 -0.1778,0.4643 -0.2889,0.4749 0.0158,-0.2688 0.0755,-0.3488 0.2889,-0.4749z"/>
 </g>
</svg>
