<?xml version="1.0" encoding="UTF-8"?>
<!DOCTYPE svg PUBLIC "-//W3C//DTD SVG 1.1//EN" "http://www.w3.org/Graphics/SVG/1.1/DTD/svg11.dtd">
<!-- Creator: CorelDRAW 2020 (64-Bit) -->
<svg xmlns="http://www.w3.org/2000/svg" xml:space="preserve" width="80.3222mm" height="81.4265mm" version="1.1" style="shape-rendering:geometricPrecision; text-rendering:geometricPrecision; image-rendering:optimizeQuality; fill-rule:evenodd; clip-rule:evenodd"
viewBox="0 0 7.4899 7.5929"
 xmlns:xlink="http://www.w3.org/1999/xlink"
 xmlns:xodm="http://www.corel.com/coreldraw/odm/2003">
 <defs>
  <style type="text/css">
   <![CDATA[
    .fil0 {fill:#2B2A29}
    .fil1 {fill:#FEFEFE;fill-rule:nonzero}
    .fil2 {fill:#588C41;fill-rule:nonzero}
    .fil3 {fill:#9E5A34;fill-rule:nonzero}
   ]]>
  </style>
 </defs>
 <g id="Слой_x0020_1">
  <metadata id="CorelCorpID_0Corel-Layer"/>
  <path class="fil0" d="M3.641 0.0387c0.1812,0.0323 0.3465,0.1372 0.461,0.2801 0.0016,-0.0635 -0.0055,-0.0587 0.1122,-0.1279 0.1573,-0.0925 0.5919,-0.1603 0.7711,-0.1023 0.4284,0.1387 0.5499,0.265 0.8678,0.5293 0.0928,0.0772 0.1585,0.1578 0.1715,0.2832 0.0043,0.0474 0.0403,0.0841 0.0449,0.1315 0.0145,0.0592 -0.0583,0.0314 0.0649,0.0974 0.0736,0.04 0.1277,0.1069 0.2,0.1488 0.1487,0.0865 0.2837,0.2067 0.3669,0.3601 0.0205,0.0392 0.0506,0.0761 0.0511,0.1224 0.1739,0.0401 0.3309,0.0927 0.3446,0.2929 0.0013,0.0272 -0.0095,0.0526 -0.021,0.0765 0.1329,0.2316 -0.0092,0.4064 -0.0663,0.3833 -0.0052,0.0126 -0.0086,0.0257 -0.0101,0.0392 0.0484,-0.0036 0.0624,0.0528 0.0731,0.0898 0.0663,0.1802 -0.2441,0.3952 -0.2442,0.4959 0.0012,0.0326 -0.0062,0.0646 -0.0115,0.0965 0.1043,0.0592 0.4193,0.4131 0.4668,0.5094 0.0042,0.0086 0.1929,0.4694 0.1977,0.4983 0.0607,0.365 -0.2208,0.4705 -0.5174,0.8491 -0.0902,0.1116 -0.0873,0.0423 -0.1513,0.0931 -0.0422,0.0673 0.0104,0.2698 -0.4303,0.7878 -0.5732,0.6738 -0.9983,0.7144 -1.2629,1.0358 0.0631,0.1077 0.1067,0.2254 0.1702,0.3329 0.0119,0.021 0.1794,0.2659 0.0632,0.2503l-5.2863 -0.7085c0,-0.0172 -0.0699,-0.043 -0.0667,-0.0598 0.0019,-0.0059 0.9646,-1.1047 1.014,-1.1806 0.0269,-0.0418 0.0567,-0.0843 0.1021,-0.1075 -0.0518,-0.3169 -0.1244,-0.6252 -0.1744,-0.9438 -0.0041,-0.0275 0.0139,-0.0557 0.0016,-0.0824 -0.2173,-0.4932 -0.2627,-0.8363 -0.133,-1.3611 0.065,-0.263 0.1505,-0.7098 0.2711,-0.9585 0.0629,-0.1298 0.1875,-0.4022 0.2812,-0.52 0.0649,-0.0816 0.3629,-0.5749 0.4229,-0.691 0.2164,-0.4187 0.1087,-0.6163 0.7901,-0.8981 0.2714,-0.0927 0.8007,-0.1044 1.0653,-0.0423z"/>
  <path class="fil1" d="M3.4499 4.8571c-0.0161,-0.0144 -0.0033,-0.0436 0.0194,-0.0348 0.1513,0.0478 0.4993,-0.0244 0.6669,0.0151 -0.0226,0.0483 -0.0017,0.0757 0.011,0.1294 0.0028,0.0121 0.0282,-0.0075 0.0478,-0.0392 0.0941,0.0118 0.1893,0.001 0.2836,0.0073 0.0698,0.0124 0.1406,0.0243 0.2118,0.0189 0.0073,0.0825 0.0456,0.1287 0.0465,0.1114 0.0032,-0.0589 0.0333,-0.0498 0.0089,-0.1131 0.0357,0.0202 0.0771,0.0238 0.1162,0.0335 0.0355,0.0184 0.0705,0.0406 0.1115,0.0437 0.1555,0.0128 0.3155,0.0807 0.472,0.0475 0.0014,0.0281 0.017,0.0452 0.0187,0.0872 -0.0209,0.0547 0.0858,-0.0861 0.1457,-0.1002 0.1268,-0.0344 0.2583,-0.0482 0.3884,-0.0596 0.052,0.0152 0.0461,0.0742 0.0458,0.1168 -0.0022,0.0228 0.0231,0.0282 0.0394,0.0349 0.0496,-0.0365 0.0447,-0.1088 0.0402,-0.164 0.0382,0.0322 0.0906,0.0273 0.1372,0.0295 -0.1161,0.206 -0.2001,0.526 -0.4022,0.6019l-0.3508 0.0386c-0.1955,0.0325 -0.3948,0.0307 -0.5915,0.0121 -0.43,-0.0571 -0.4302,-0.0317 -0.8109,-0.2183 -0.2699,-0.1323 -0.4569,-0.3822 -0.6556,-0.5984zm2.2687 -2.2575c0.0241,-0.0109 0.0414,-0.0158 0.0587,0.0262 0.0078,0.0191 0.0151,0.0419 0.0111,0.0558 -0.0064,0.0298 -0.0432,0.0681 -0.0729,0.0604 -0.0072,-0.0473 -0.0261,-0.1209 0.0032,-0.1424zm-2.2933 -0.1654c0.0318,0.004 0.0489,0.0274 0.0468,0.0471 -0.0087,0.0682 -0.021,0.0759 -0.0733,0.1067 0.0181,-0.0426 0.0007,-0.0882 0.0059,-0.1325 0.0027,-0.0226 0.0011,-0.0238 0.0207,-0.0213zm-0.2188 1.8284c0.2979,0.0416 0.5433,0.0773 0.8479,0.0767 0.252,-0.0004 0.5033,0.0034 0.7552,-0.0021 0.114,-0.0025 0.7042,0.0854 0.8376,0.105 0.1607,0.0237 0.2897,0.0755 0.4634,0.0519 0.082,-0.0111 0.3432,-0.0215 0.3772,-0.0318 0.002,0.0556 -0.0301,0.1695 -0.0376,0.2303 -0.0948,-0.0157 -0.2687,0.1229 -0.3904,0.1422 0.0005,-0.054 -0.0053,-0.1083 -0.0276,-0.158 -0.036,0.0083 -0.0481,0.1732 -0.0594,0.2105 -0.0474,0.0596 -0.3526,0.0324 -0.4467,0.0408 -0.0674,0.0046 -0.1281,-0.0368 -0.1952,-0.032 -0.0149,0.0065 -0.0274,0.0174 -0.0418,0.0246 -0.0227,0.0025 -0.0315,-0.0247 -0.0457,-0.0376 -0.0092,0.009 -0.0185,0.0181 -0.0276,0.0274 -0.054,-0.0749 -0.1194,-0.0369 -0.247,-0.0461 -0.3138,-0.0224 -0.4161,-0.1253 -0.4805,-0.0936 -0.0224,0.0102 -0.0445,0.0204 -0.0677,0.0287 -0.0012,-0.0154 -0.0025,-0.0306 -0.0038,-0.0458 -0.0249,0.0038 -0.0461,0.0201 -0.0707,0.0238 -0.1248,0.0029 -0.3305,-0.0738 -0.4476,-0.125 -0.1786,-0.0781 -0.0982,-0.1042 -0.2522,-0.0786 -0.0159,-0.1564 -0.173,-0.1093 -0.324,-0.1741 -0.0449,-0.018 -0.0849,-0.0459 -0.1297,-0.0639 0.0033,-0.0247 0.0075,-0.0493 0.014,-0.0734zm2.3738 -1.6736c0.0168,-0.0322 0.0369,-0.0624 0.058,-0.0917 -0.0272,0.0555 -0.0454,0.1166 -0.0425,0.1789 0.0017,0.0559 -0.0096,0.1144 0.0138,0.1672 -0.0664,-0.0185 -0.1358,-0.0175 -0.203,-0.0312 0.0004,-0.0042 0.0011,-0.0124 0.0015,-0.0165 0.0258,-0.0144 0.0512,-0.0311 0.0684,-0.0558 0.0356,-0.0495 0.0752,-0.0966 0.1037,-0.1509zm0.7089 -0.0737c0.0186,-0.0191 0.0235,-0.0459 0.0362,-0.0683 0.0183,0.044 0.0392,0.0878 0.0449,0.1356 0.0057,0.0522 -0.0054,0.1043 -0.0216,0.1537 -0.0283,0.0195 -0.0596,0.0178 -0.0917,0.0104 -0.0316,-0.0427 -0.0187,-0.097 -0.0117,-0.1453 0.0051,-0.0326 0.022,-0.0619 0.0439,-0.086zm-2.0845 -0.1012c0.057,0.0266 0.061,0.0946 0.0654,0.1494 -0.0066,0.1062 -0.0896,0.1622 -0.1361,0.0722 -0.0065,-0.0487 -0.0079,-0.1055 0.0267,-0.1446 0.0198,-0.0224 0.0377,-0.0471 0.044,-0.0769zm2.1345 -0.0404c0.1514,0.0138 0.2947,0.0687 0.4414,0.1051 0.0547,0.0128 0.1053,0.0381 0.1571,0.0594 -0.0288,0.0209 -0.0569,0.0459 -0.0805,0.0725 -0.0698,0.0949 -0.1656,0.1699 -0.2723,0.2191 -0.0538,0.0185 -0.1098,0.0328 -0.1668,0.0361 0.0142,-0.0366 0.0293,-0.0731 0.0361,-0.1121 0.0216,-0.1041 -0.0115,-0.3222 -0.115,-0.3802zm-2.077 -0.0649c0.2631,0.0084 0.5226,-0.0028 0.6695,0.2451 0.0445,0.0974 0.056,0.2059 0.0936,0.3056 -0.3313,0.0483 -0.4406,0.0583 -0.7791,-0.0005 0.058,-0.0538 0.1154,-0.1262 0.103,-0.2106 0.0027,-0.0574 -0.0104,-0.1134 -0.011,-0.1706 -0.007,-0.0627 -0.0357,-0.1212 -0.076,-0.1691zm-0.8595 0.0036c-0.0446,0.025 -0.0759,0.0663 -0.109,0.1042 -0.0315,0.0447 -0.0471,0.1021 -0.0315,0.1559 -0.1069,-0.0412 -0.2168,-0.0778 -0.3154,-0.1374 -0.0612,-0.0366 -0.1259,-0.0671 -0.1868,-0.1041 0.2108,-0.0091 0.4337,-0.0014 0.6427,-0.0186z"/>
  <path class="fil2" d="M2.9528 0.0983c0.4548,-0.0363 0.9964,0.0095 1.1864,0.4877 0.024,0.0619 0.0524,0.1219 0.0778,0.1831 -0.4655,-0.087 -0.8929,-0.1608 -1.3382,0.0576 -0.1143,0.0561 -0.2609,0.1209 -0.3353,0.2289 0.0781,0.0889 0.3981,-0.2913 0.9019,-0.2957 0.7871,-0.0069 1.3134,0.1796 1.4716,1.0095 -0.5264,-0.1997 -0.4911,-0.1221 -0.9942,-0.1641 -0.4588,-0.0383 -0.3884,-0.1085 -0.9083,0.008 -0.3953,0.0886 -0.9492,0.7162 -0.4652,0.7378 0.0334,0.0023 0.06,-0.0221 0.0914,-0.0278 0.0287,0.0197 0.0412,0.0576 0.0728,0.0749 0.5761,0.3217 1.4162,0.6455 2.0785,0.5945 0.0779,-0.0062 0.1518,-0.0357 0.2298,-0.0415 -0.2305,0.2449 -0.7059,0.1938 -1.0062,0.1633 -0.3389,-0.0343 -0.366,0.0106 -0.6646,-0.1548 -0.1772,-0.0981 -0.5158,-0.3765 -0.5398,-0.2813 -0.0144,0.0571 0.4408,0.335 0.4855,0.3734 0.1878,0.1607 0.7571,0.1419 1.0364,0.1799 0.1855,0.0252 1.0066,-0.0248 0.8015,-0.3767 -0.0168,0.0059 -0.0336,0.0112 -0.0505,0.016 -0.0462,-0.5805 -0.3959,-0.6963 -0.8743,-0.9308 -0.3323,-0.1629 -1.1357,-0.1955 -1.4165,0.0844 -0.1646,0.164 -0.1748,0.2254 -0.2738,0.2291 0.0089,-0.1335 0.3368,-0.5114 0.6531,-0.566 0.5962,-0.1029 1.2429,0.0982 1.6892,0.5158 0.2565,0.2401 0.2835,0.6242 0.4149,0.5476 -0.0521,-0.3874 -0.5375,-0.865 -0.8904,-0.9778 -0.0638,-0.0203 -0.1279,-0.0413 -0.186,-0.0752 0.1811,0.027 0.3522,0.0313 0.5242,0.1048 0.5044,0.2155 0.3569,0.3985 0.4838,0.6158 0.1401,-0.1333 -0.0439,-0.4467 -0.176,-0.5842 -0.017,-0.0177 -0.0712,-0.456 -0.2184,-0.6304 -0.6482,-0.7678 -0.2604,0.1568 -0.6929,-0.8595 0.241,-0.1004 0.5102,-0.2391 0.8412,-0.1662 0.256,0.059 0.8191,0.417 0.9687,0.6733 0.0369,0.0632 0.0363,0.138 0.0776,0.2018 -0.278,-0.158 -1.1082,-0.2424 -1.2964,-0.0364 0.0731,0.0726 0.8781,-0.3276 1.7248,0.4323 0.091,0.0812 0.1639,0.1824 0.2178,0.2915 -0.1744,-0.0123 -0.816,-0.0169 -0.9237,0.0564 0.1121,0.1471 0.8066,-0.1101 1.1677,0.0964 0.0302,0.0168 0.0384,0.0525 0.0483,0.0828 -0.749,-0.3177 -1.446,0.0537 -1.4393,0.202 0.1458,0.0138 0.2957,-0.2486 0.8153,-0.2543 0.2088,-0.0023 0.7215,0.0611 0.6528,0.3824 -0.1872,-0.1642 -0.3383,-0.2908 -0.6528,-0.2766 -0.7323,0.0331 -0.6439,0.346 -0.9477,0.7072 -0.077,0.0915 0.081,0.1884 0.1839,0.1955 0.1919,0.0132 0.8985,0.0434 1.0317,0.0011 0.1585,-0.0503 0.2479,-0.1504 0.3572,-0.2719 0.052,0.1567 -0.2258,0.4169 -0.3551,0.4631 -0.0549,0.0192 -0.1132,0.03 -0.1639,0.0599 0.059,0.1051 0.2509,0.0198 0.3306,-0.0133 -0.1916,0.162 -0.5477,0.1451 -0.4966,0.2338 0.0538,0.0934 0.4066,-0.0433 0.5229,-0.1133 0.0375,0.0434 0.0808,0.081 0.1241,0.1183 0.1026,0.0881 0.1822,0.2134 0.2689,0.3168 0.0495,0.059 0.224,0.4889 0.2219,0.5628 -0.0076,0.2736 -0.2986,0.4698 -0.4444,0.6711 -0.0601,0.0857 -0.1294,0.1753 -0.1355,0.0539 -0.1404,0.0438 -0.0243,0.3533 -0.4064,0.8004 -0.3665,0.4288 -0.5656,0.5682 -1.0321,0.8651 -0.2621,0.1668 -0.5834,0.0627 -0.8667,0.0294 -0.5651,-0.0663 -0.6995,-0.2574 -0.8733,-0.3072 -0.2029,-0.0582 0.2456,0.4445 1.5101,0.4374 -0.0667,0.0737 -0.4241,0.4558 -0.381,0.5108 0.055,0.0703 0.2556,-0.2355 0.2929,-0.2678 0.0581,0.1432 0.1367,0.2792 0.2133,0.4133l-5.2166 -0.6697c0.4262,-0.2297 0.7328,-0.855 1.0691,-1.1984 0.0541,0.0992 0.095,0.6525 0.1618,0.5752 0.0719,-0.0832 -0.093,-0.6552 -0.1143,-0.7482 -0.0341,-0.1492 -0.1038,-0.5663 -0.1387,-0.7605 0.1076,0.0954 0.1625,0.2389 0.2819,0.3225 0.0905,0.0598 0.1901,0.108 0.2673,0.186 0.0328,0.0321 0.4459,0.5832 0.5096,0.494 0.0423,-0.0592 -0.127,-0.1866 -0.1613,-0.2195 -0.1114,-0.1068 -0.1876,-0.2447 -0.3022,-0.3486 -0.3389,-0.3176 -0.1782,-0.0419 -0.5349,-0.5315 -0.2236,-0.3069 -0.3059,-0.8525 -0.2552,-1.2206 0.0502,-0.3647 0.2744,-1.1706 0.4757,-1.4763 0.1886,-0.2864 0.4754,-0.7402 0.6033,-1.0483 0.2166,-0.5218 0.4909,-0.6813 1.0295,-0.7545zm-0.1949 2.6052c-0.0447,0.0974 0.0622,0.171 0.1144,0.2448 0.0804,0.1136 0.1098,-0.1029 -0.1144,-0.2448zm2.5581 0.2853c-0.0416,0.0217 0.0064,0.1959 0.469,0.2132 0.0476,0.0018 0.4106,0.0573 0.4331,0.0392 0.1038,-0.1192 -0.5997,-0.1337 -0.8129,-0.2134 -0.0305,-0.0111 -0.0558,-0.0382 -0.0893,-0.039zm-0.5556 0.3328c-0.1797,0.1514 -0.336,0.3306 -0.5602,0.4216 -0.0704,0.0286 -0.3559,0.1047 -0.3804,0.1609 0.1236,0.164 0.9445,-0.3864 1.0223,-0.5864 -0.024,-0.021 -0.0587,-0.0158 -0.0817,0.004zm0.9283 0.1069c0.0035,0.0948 0.186,0.1886 0.2529,0.309 0.0293,0.0528 0.1052,0.2363 0.1817,0.2131 0.0339,-0.1251 -0.3066,-0.5237 -0.4346,-0.5221zm-0.5045 0.1553c-0.0637,0.04 -0.0955,0.3233 -0.0561,0.3826 0.0509,0.0766 0.2322,0.1123 0.154,-0.0797 -0.0164,-0.039 -0.0854,-0.0372 -0.0806,-0.0865 0.0006,-0.0097 0.0338,-0.2697 -0.0174,-0.2164zm-2.1621 0.074c-0.2418,0.0355 -0.4505,0.0954 -0.6773,0.1923 -0.1295,0.0553 -0.092,0.5235 -0.0533,0.5473 0.0006,0.0003 0.0749,0.0269 0.2856,0.1026 0.3025,0.1076 0.9323,0.988 1.1881,1.1405 0.1308,0.078 0.2581,0.169 0.396,0.2343 0.1286,0.0584 0.2594,0.1127 0.3951,0.1523 0.1107,0.0748 0.0005,0.0819 0.3875,0.1709 0.425,0.0978 0.3854,-0.0034 0.7124,-0.1214 0.0532,-0.0192 0.0609,-0.0283 0.0563,-0.0835 0.1558,-0.0023 0.3162,-0.0733 0.4226,-0.1832 0.0368,-0.0381 0.3907,-0.6243 0.4248,-0.706 0.0939,-0.2251 0.3589,-0.2472 0.5404,-0.4066 0.0505,-0.0444 0.1723,-0.3292 0.1771,-0.3608 0.0176,-0.1286 -0.0883,-0.2231 -0.2034,-0.2873 -0.1531,-0.0854 -0.2399,-0.0899 -0.4141,-0.0742 -0.0822,0.1141 -0.0584,0.1036 -0.0963,0.233 -0.0403,0.1373 -0.9728,0.0057 -1.1369,-0.039 -0.554,-0.1507 -1.47,0.0808 -2.0603,-0.2431 0.0991,-0.1366 -0.2637,-0.286 -0.3444,-0.2679zm0.2296 2.486c-0.1004,0.0139 0.2242,0.264 0.2351,0.1939 0.01,-0.064 -0.1842,-0.2097 -0.2351,-0.1939zm0.2375 -4.2445c0.3785,-0.0043 0.7243,0.1164 1.0414,0.3132 -0.4456,-0.01 -1.4604,0.0442 -1.8135,0.0322 0.1945,-0.2506 0.4764,-0.3057 0.7721,-0.3453zm2.5225 0.2494c0.4949,-0.1347 0.9131,0.175 0.9636,0.3085 -0.2155,-0.1021 -0.4686,-0.136 -0.6999,-0.1833 -0.2846,-0.0582 -0.387,0.0346 -0.5224,0.0551 0.0136,-0.0651 0.2043,-0.1662 0.2588,-0.1803z"/>
  <path class="fil3" d="M3.0286 3.6765c0.0867,-0.0195 0.1586,0.0588 0.2203,0.0943 0.0349,0.0189 0.085,0.0261 0.094,0.0722 -0.1016,-0.0296 -0.8273,0.123 -0.8294,0.2732 0.0678,0.0089 0.1236,-0.0356 0.1848,-0.0556 0.0375,0.0919 0.3097,0.4421 0.3932,0.5454 0.0725,0.0935 0.1613,0.1723 0.2455,0.2548 0.2522,0.2548 0.4697,0.5986 0.8646,0.7486 0.2701,0.1026 0.1549,0.0975 0.4522,0.1239 0.5342,0.0475 0.514,0.0747 1.096,-0.0157 0.101,-0.0157 0.2714,0.0259 0.3629,-0.1754 0.1107,-0.2435 0.1382,-0.377 0.3086,-0.6252 0.1458,-0.2124 0.4254,-0.3615 0.4665,-0.6278 0.0144,0.0795 0.0226,0.3646 0.0749,0.3998 0.0704,0.0474 0.0492,-0.1384 0.0563,-0.1735 0.0496,-0.246 -0.0319,-0.2801 -0.2298,-0.3526 -0.0404,-0.0134 -0.0818,-0.0445 -0.1256,-0.0267 0.0363,0.0746 0.0394,0.0726 0.1127,0.1098 -0.2818,0.1532 -0.6659,0.2353 -0.9817,0.1485 -0.2619,-0.072 -0.9153,-0.149 -1.2172,-0.1422 -0.8267,0.0186 -0.6306,0.029 -1.3334,-0.0627 -0.0291,-0.0038 -0.4115,-0.1355 -0.4674,-0.1598 0.2566,-0.0976 0.4109,-0.091 0.5424,-0.1211 0.0962,-0.022 -0.0612,0.0195 0.0643,0.0505 0.1121,0.0277 0.184,0.071 0.2717,0.0971 0.1122,0.0334 0.241,0.0481 0.413,0.0663 0.2725,0.0288 1.1421,0.0037 1.3572,0.0621 0.2134,0.058 0.5754,0.0855 0.7972,0.0961 0.1099,0.0053 0.3363,0.0377 0.359,-0.0725 0.0288,-0.1399 0.0374,-0.1542 0.0857,-0.2203 0.1848,0.0073 0.1916,-0.0192 0.3238,0.0463 0.1164,0.0585 0.171,0.0715 0.2112,0.1709 0.0549,0.1357 0.0594,0.1417 -0.0239,0.3001 -0.0295,0.0561 -0.0653,0.2037 -0.2209,0.2669 -0.3723,0.1512 -0.3984,0.3152 -0.526,0.5081 -0.0348,0.0526 -0.3089,0.5015 -0.3178,0.5107 -0.209,0.2158 -0.4315,0.1826 -0.4924,0.2039 -0.0845,0.0296 -0.3745,0.1442 -0.4305,0.1423 -0.1791,-0.0125 -0.3462,-0.0722 -0.5134,-0.134 -0.072,-0.0266 -0.0795,-0.0529 -0.1123,0.0076 -0.3536,-0.103 -0.495,-0.2068 -0.7906,-0.383 -0.2556,-0.1524 -0.1924,-0.2271 -0.4665,-0.4763 -0.188,-0.1709 -0.5184,-0.5937 -0.7323,-0.6689 -0.2279,-0.0801 -0.2258,-0.1363 -0.1992,-0.3165 0.0626,-0.4234 0.0942,-0.3315 0.3066,-0.414 0.0173,-0.0067 0.3274,-0.0731 0.3456,-0.0757z"/>
 </g>
</svg>
