<?xml version="1.0" encoding="UTF-8"?>
<!DOCTYPE svg PUBLIC "-//W3C//DTD SVG 1.1//EN" "http://www.w3.org/Graphics/SVG/1.1/DTD/svg11.dtd">
<!-- Creator: CorelDRAW 2020 (64-Bit) -->
<svg xmlns="http://www.w3.org/2000/svg" xml:space="preserve" width="84.2004mm" height="81.4265mm" version="1.1" style="shape-rendering:geometricPrecision; text-rendering:geometricPrecision; image-rendering:optimizeQuality; fill-rule:evenodd; clip-rule:evenodd"
viewBox="0 0 3.9046 3.776"
 xmlns:xlink="http://www.w3.org/1999/xlink"
 xmlns:xodm="http://www.corel.com/coreldraw/odm/2003">
 <defs>
  <style type="text/css">
   <![CDATA[
    .fil0 {fill:#2B2A29}
    .fil5 {fill:#0348FE;fill-rule:nonzero}
    .fil1 {fill:#588C41;fill-rule:nonzero}
    .fil4 {fill:#90C1DA;fill-rule:nonzero}
    .fil3 {fill:#9E5A34;fill-rule:nonzero}
    .fil2 {fill:white;fill-rule:nonzero}
   ]]>
  </style>
 </defs>
 <g id="Слой_x0020_1">
  <metadata id="CorelCorpID_0Corel-Layer"/>
  <path class="fil0" d="M1.4586 0.0222c0.0911,-0.0265 0.1873,-0.0251 0.281,-0.0169 0.1877,0.0182 0.3792,0.0875 0.5091,0.229 0.1652,-0.1011 0.3504,-0.1838 0.5473,-0.1857 0.1492,-0.0031 0.3016,0.0555 0.4006,0.1692 0.085,0.0953 0.1311,0.2201 0.1431,0.3462 0.0974,0.0249 0.1948,0.0602 0.2757,0.1213 0.0362,0.0271 0.0703,0.0641 0.0739,0.1115 0.0461,0.0196 0.0962,0.0434 0.1212,0.0895 0.0133,0.0213 0.0126,0.0471 0.0114,0.0711 0.0305,0.0213 0.0642,0.0449 0.0716,0.0842 -0.0018,0.0202 -0.0115,0.0374 -0.0243,0.0526 0.0238,0.0318 0.0419,0.0715 0.0333,0.1121 -0.0088,0.0428 -0.0456,0.0717 -0.0802,0.0945 0.0228,0.108 -0.073,0.1315 -0.156,0.1545 0.0017,0.0951 -0.1739,0.208 -0.2582,0.2306 0.1045,0.0862 0.1942,0.1963 0.237,0.3263 0.0187,0.056 0.028,0.1145 0.0332,0.1732 0.0234,0.0015 0.0493,0.0094 0.0589,0.0332 0.028,0.0622 0.0221,0.1425 -0.0248,0.1944 -0.0361,0.0409 -0.0874,0.0635 -0.1378,0.0816 0.0223,0.039 0.0451,0.0854 0.0283,0.131 -0.0257,0.0767 -0.1049,0.1174 -0.1785,0.1362 -0.0237,0.0087 -0.0546,0.0037 -0.0714,0.0259 -0.1201,0.1331 -0.2856,0.2147 -0.4536,0.2697 -0.0134,0.0038 -0.0267,0.0077 -0.0398,0.0119 0.0821,0.0261 0.1721,0.0493 0.2315,0.1166 0.056,0.0636 0.0591,0.1522 0.0747,0.2312 0.0096,0.0496 -0.0191,0.0973 -0.0576,0.1262 -0.0591,0.0451 -0.1281,0.0747 -0.1962,0.1033 -0.1379,0.0521 -0.284,0.0785 -0.4297,0.0976 -0.1982,0.0248 -0.3982,0.0338 -0.5978,0.0317 -0.21,0.0009 -0.4198,-0.0125 -0.6286,-0.034 -0.2465,-0.0274 -0.4926,-0.067 -0.7312,-0.1363 -0.1438,-0.0436 -0.2886,-0.0957 -0.4101,-0.1865 -0.0507,-0.0365 -0.1083,-0.0807 -0.1141,-0.1481 -0.0043,-0.0634 0.0194,-0.1242 0.0391,-0.1834 0.0256,-0.0731 0.0632,-0.1491 0.1331,-0.1889 0.0368,-0.0208 0.0789,-0.0311 0.1208,-0.034 -0.0006,-0.0042 -0.0017,-0.0127 -0.0023,-0.0169l-0.0044 -0.001c-0.0023,-0.0229 0.0006,-0.0458 0.0076,-0.0677 -0.0729,-0.0609 -0.1425,-0.13 -0.1837,-0.217 -0.0945,-0.1857 -0.11,-0.4022 -0.0807,-0.6059 0.0425,-0.2896 0.1629,-0.5628 0.3178,-0.8092 0.0699,-0.1052 0.1625,-0.2001 0.2787,-0.2529 0.0364,-0.0166 0.0755,-0.0272 0.1155,-0.0302 0.0756,-0.2681 0.2264,-0.5193 0.4451,-0.6947 0.081,-0.064 0.172,-0.1172 0.2714,-0.1467z"/>
  <path class="fil1" d="M1.6538 0.0346c0.3186,-0.0132 0.6879,0.1917 0.7068,0.5379 -0.1207,-0.0367 -0.5661,-0.4093 -1.0972,0.0078 0.0067,0.0094 0.0135,0.0189 0.0202,0.0283 0.2876,-0.2393 0.7075,-0.2446 1.0133,-0.0322 0.0633,0.0457 0.1162,0.1039 0.1767,0.1531 -0.8456,-0.0992 -0.6773,0.1616 -1.1536,0.2452 0.0023,0.0103 0.0045,0.0206 0.0068,0.031 0.3494,-0.0485 0.5231,-0.4072 1.1899,-0.2301 0.0651,0.0173 0.1094,0.0491 0.1016,0.1175 -0.1675,-0.0344 -0.3775,-0.1713 -0.7074,-0.0629 -0.1945,0.0639 -0.3563,0.2288 -0.5671,0.2345 -0.0646,0.0018 -0.1609,-0.0118 -0.1434,0.085 0.014,0.0775 0.1655,0.0548 0.2183,0.0633 0,0.0401 0.0009,0.0546 0.0329,0.0793 0.0025,0.181 0.0636,0.0927 0.0299,0.2618 -0.0164,0.0824 -0.0154,0.4787 0.0416,0.5228 -0.2381,-0.0337 -0.6131,0.1528 -0.1548,0.3557 0.0332,0.0145 0.0654,0.0332 0.1019,0.038 0.1101,0.1926 -0.0377,0.1509 0.0178,0.3344 0.0547,0.1806 0.0941,0.0732 0.0534,0.3244 -0.4095,-0.0035 -1.0981,-0.1408 -1.3622,-0.5156 -0.3361,-0.4772 0.0873,-1.6502 0.5531,-1.7171 -0.0214,0.099 -0.0374,0.1992 -0.0403,0.3005 0.0108,0.0005 0.0216,0.001 0.0324,0.0015 0.0259,-0.4911 0.3853,-1.1979 0.9292,-1.164zm-1.333 2.767c0.1183,0.0691 0.2246,0.1453 0.3545,0.194 0.2794,0.1045 0.5776,0.1464 0.8736,0.1692 0.0144,0.0249 0.0277,0.0373 0.0269,0.0664 -0.3874,-0.0168 -0.8721,-0.0991 -1.1964,-0.3264 -0.0327,-0.024 -0.0713,-0.0576 -0.0586,-0.1032zm1.3691 -1.3462c0.0714,-0.0504 0.1894,0.02 0.2863,0.0405 0.0009,0.0073 -0,0.0216 0.0008,0.0289 -0.101,-0.0094 -0.1935,-0.0292 -0.2871,-0.0694zm0.8838 1.2993c0.1889,0.0132 0.3772,0.0139 0.5658,0.0309 -0.1261,0.2101 -0.3753,0.1571 -0.5208,0.2972 -0.0079,0.0031 -0.0193,0.0102 -0.027,0.01 -0.0429,-0.0012 -0.1059,0.0203 -0.1422,0.0223 0.0994,-0.165 0.0595,-0.1259 0.0789,-0.2653 0.004,-0.0287 0.0166,-0.0544 0.0453,-0.0952zm-0.525 0.4213c0.1114,-0.004 0.218,-0.0098 0.3291,-0.0186 -0.003,0.0211 -0.0033,0.0378 0.0018,0.0575 -0.104,0.0132 -0.2063,0.0251 -0.3111,0.0254 0.0057,-0.024 0.0061,-0.0534 -0.0198,-0.0642zm0.6242 -2.2857c0.3748,-0.1844 1.1098,-0.155 1.1186,0.0502 -0.3502,-0.1764 -0.7741,-0.1421 -1.1313,-0.0048 0.0034,0.0095 0.0068,0.019 0.0102,0.0286 0.6315,-0.2159 1.2292,-0.0433 1.178,0.106 -0.3371,-0.2689 -0.7704,-0.173 -1.1168,0.0265 -0.1474,-0.2897 -0.7426,-0.155 -0.958,-0.0399 -0.1738,0.0929 -0.2727,0.1316 -0.4703,0.1145 -0.1065,-0.0093 -0.1106,-0.0744 0.0331,-0.0743 0.3699,0.0004 0.468,-0.3621 1.0272,-0.2495 0.0836,0.0173 0.1682,0.0395 0.242,0.0839 0.0259,-0.0078 0.044,-0.0288 0.0674,-0.0412zm-0.0876 0.5149c0.0102,-0.0064 0.0352,-0.0214 0.0458,-0.0274 -0.0038,0.0282 -0.0067,0.0442 -0.0205,0.0772 -0.1695,0.0543 -0.3256,0.0792 -0.5058,0.0764 0.0127,-0.0679 0.0709,-0.0371 0.1165,-0.0437 0.0358,-0.0052 0.0671,-0.036 0.0971,-0.0356 0.1245,0.0013 0.1425,0.0292 0.2669,-0.0468zm0.5702 1.4563c0.0151,-0.0269 0.0373,-0.054 0.0598,-0.0758 0.0344,0.003 0.0637,-0.0014 0.098,-0.0046 -0.0631,0.0639 -0.1359,0.1218 -0.2197,0.1558 0.0235,-0.024 0.0456,-0.0457 0.0619,-0.0754zm-0.4521 0.2447c0.0467,-0.0023 0.0822,-0.0191 0.1277,-0.0279 -0.0369,0.0931 -0.3069,0.1157 -0.3921,0.1295 -0.0044,-0.0246 -0.0054,-0.0457 -0.0024,-0.0575 0.0545,-0.006 0.1014,-0.0126 0.1554,-0.0215 0.0071,0.0162 0.0132,0.0379 0.0301,0.0358 0.0334,-0.0041 0.0586,-0.0378 0.0812,-0.0583zm-1.0903 0.0633c0.113,0.0004 0.2436,0.0101 0.3567,0.0072 0.004,0.0318 0.0169,0.0242 0.0295,0.0653 -0.0226,-0.0016 -0.318,-0.0025 -0.3612,-0.0038 -0.0033,-0.022 -0.0115,-0.0487 -0.025,-0.0687zm1.8465 -1.4102c0.1214,0.0925 0.1902,0.2804 0.196,0.4269 -0.0152,0.0103 -0.0341,0.0123 -0.0514,0.0174 0.0067,-0.0329 -0.0314,-0.1433 -0.0507,-0.202 -0.0285,-0.0867 -0.0699,-0.128 -0.0939,-0.2423zm-2.5555 0.5197c0.0517,0.1238 0.1761,0.2014 0.3103,0.1866 -0.0016,-0.0521 -0.0343,-0.0259 -0.0949,-0.0411 -0.1506,-0.0377 -0.1572,-0.1672 -0.2154,-0.1455zm1.8635 -2.1973c0.285,-0.016 0.5094,0.1923 0.5373,0.473 -0.2959,-0.0584 -0.6142,-0.0575 -0.9099,0.005 -0.0138,-0.1085 -0.0538,-0.2138 -0.1226,-0.2994 0.1491,-0.0943 0.3175,-0.1672 0.4953,-0.1786zm-0.3909 0.5144c0.2305,-0.0482 1.1394,-0.1181 1.2765,0.1852 -0.3508,-0.0531 -0.6509,-0.0896 -0.9933,0.0789 -0.0131,-0.073 -0.2233,-0.2035 -0.2831,-0.2641zm1.0879 0.8104c0.0932,-0.0462 0.1646,-0.032 0.2487,-0.063 0.0368,0.0297 -0.0038,0.0245 -0.059,0.0607 -0.2096,0.1374 -0.0492,0.1384 -0.2784,0.2382 -0.0345,0.0149 -0.0851,0.0102 -0.1012,0.0518 -0.0763,0.0101 -0.1524,0.0248 -0.2297,0.0227 -0.0063,-0.0303 0.0222,-0.097 0.0374,-0.1249 0.0192,-0.0352 0.0279,-0.0752 -0.0229,-0.1439 0.0145,-0.0024 0.2758,0.0349 0.4053,-0.0415zm-0.7749 -0.0235c0.0529,0.0031 0.1725,0.0226 0.2239,0.0232 0.0335,0.0897 0.1449,0.0445 0.1088,0.1568 -0.0155,0.0411 -0.0491,0.0898 -0.0487,0.1407 0.0001,0.012 -0.0011,0.0055 -0.015,0.0036 -0.0705,-0.0094 -0.1337,-0.034 -0.1956,-0.0691 -0.0055,0.0091 -0.0109,0.0183 -0.0163,0.0274 0.1514,0.0943 0.2581,0.0825 0.3755,0.2314 0.0293,0.0361 0.0132,0.1055 0.0399,0.1425 0.0969,0.1344 0.0655,0.1429 0.0253,0.2548 -0.014,0.039 -0.0034,0.0346 0.0117,0.0444 -0.1492,0.0238 -0.3009,0.0263 -0.4516,0.0197 -0.0323,-0.0538 -0.0602,-0.0342 -0.0647,-0.1119 -0.0044,-0.0766 0.0138,-0.1551 -0.0168,-0.2286 -0.1036,-0.2501 0.0893,-0.2723 0.0015,-0.3878 -0.0344,-0.0452 -0.0166,-0.0889 -0.0023,-0.1365 0.0109,-0.0366 0.0139,-0.0775 0.0244,-0.1107zm-1.0217 0.1046c0.1,0.0336 0.1994,0.0586 0.3046,0.0697 -0.0094,0.0414 -0.0238,0.0685 -0.0342,0.1045 -0.0202,0.0591 -0.0814,0.1348 -0.0306,0.2074 0.1026,0.1466 0.0444,0.1997 0.0647,0.3611 -0.1276,-0.0322 -0.2455,-0.0839 -0.369,-0.1284 -0.0133,-0.1236 -0.0976,-0.0227 -0.0061,-0.2919 0.0525,-0.1545 0.0178,-0.1229 0.0173,-0.2027 -0.0003,-0.0487 0.0358,-0.0933 0.0533,-0.1196zm0.9243 0.011c-0.0213,0.1588 0.0322,0.1942 0.0256,0.2199 -0.0118,0.0458 -0.0893,0.0537 -0.0456,0.2121 0.0189,0.0687 0.038,0.1128 0.0444,0.1461 0.0143,0.0738 -0.0373,0.2311 0.0561,0.276 -0.2178,-0.0138 -0.4174,-0.0468 -0.6282,-0.1031 0.0367,-0.0542 0.0194,-0.0828 0.0162,-0.1457 -0.0017,-0.0341 -0.0039,-0.0543 -0.0042,-0.0767 -0.002,-0.1263 0.0013,-0.1088 -0.0367,-0.1728 -0.0063,-0.0173 -0.0016,-0.0364 0.0028,-0.0529 0.1388,-0.0387 0.3083,-0.099 0.4166,-0.2012 -0.0044,-0.0088 -0.0097,-0.0171 -0.0146,-0.0255 -0.1245,0.0814 -0.2597,0.1463 -0.4007,0.1932 0.0085,-0.0451 0.008,-0.1815 0.0301,-0.2052 0.0209,0.0021 0.0329,0.0022 0.0532,0.0027 0.155,0.0033 0.3409,-0.011 0.4849,-0.0668zm0.4732 0.2494c0.0711,-0.0037 0.1263,-0.0054 0.1958,-0.0216 0.007,0.0603 0.1168,0.018 0.1367,0.0788 0.0308,0.094 0.1015,0.2149 0.1271,0.3205 0.0148,0.0611 0.0001,0.0635 -0.012,0.12 -0.0753,0.0333 -0.1744,0.0982 -0.2497,0.0447 0.0765,-0.0822 0.0153,-0.1971 -0.0321,-0.2752 -0.0698,-0.1151 0.0552,-0.0881 -0.1658,-0.2671zm-1.5123 0.7618c0.1121,0.0429 0.2196,0.0889 0.3343,0.1248 -0.0108,0.097 0.0615,0.2474 0.0719,0.3521l0.0017 0.1586c-0.1234,0.0047 -0.2396,-0.005 -0.363,-0.0083 -0.0119,-0.0734 0.0394,-0.1367 0.0152,-0.2152 -0.0192,-0.0623 -0.1101,-0.1507 -0.0863,-0.2224 0.0278,-0.0839 0.0851,-0.0405 0.0262,-0.1896zm0.3917 0.1443c0.1835,0.0516 0.37,0.0821 0.5601,0.0961 -0.038,0.053 -0.0289,0.1203 -0.043,0.1881 -0.0299,0.0519 -0.0591,0.1196 -0.0782,0.1853 -0.1217,0.0099 -0.2365,0.0061 -0.3574,0.0215 -0.0158,-0.1057 0.0126,-0.1547 -0.0149,-0.2347 -0.0275,-0.0846 -0.0662,-0.1659 -0.0666,-0.2563z"/>
  <path class="fil2" d="M3.5045 0.9482c0.1061,0.0252 0.2131,0.0611 0.2997,0.1295 0.0514,0.0435 0.1028,0.1139 0.036,0.1689 -0.0497,0.041 -0.1431,0.0381 -0.209,0.053 0.0137,-0.0722 0.0119,-0.1491 -0.0165,-0.2176 -0.0215,-0.055 -0.0611,-0.1013 -0.1102,-0.1338zm-0.0777 0.1953c0.0269,-0.0371 0.1234,-0.0081 0.124,0.047 0.0043,0.0517 -0.0586,0.0769 -0.1009,0.0581 -0.0423,-0.0188 -0.0511,-0.0762 -0.0231,-0.1051zm-0.6921 -0.0087c0.1247,-0.0767 0.2598,-0.1365 0.4004,-0.1771 -0.0423,0.0335 -0.0765,0.0777 -0.0945,0.1287 -0.0329,0.0882 -0.0269,0.1869 0.0023,0.2753 -0.0588,-0.0095 -0.1144,-0.0192 -0.1729,-0.0186 -0.0547,0.0006 -0.1234,-0.006 -0.1701,-0.0357 0.0011,-0.062 0.037,-0.11 0.0347,-0.1727zm-0.3906 -0.1699c0.0851,0.0004 0.1719,0.0116 0.2511,0.0442 0.047,0.0197 0.0954,0.0549 0.1046,0.1084 0.0082,0.0598 -0.0165,0.12 -0.0558,0.1643 -0.037,0.0306 -0.0762,0.0636 -0.1264,0.0678l0.0003 -0.011c0.0071,-0.0688 0.0044,-0.1399 -0.02,-0.2052 -0.0259,-0.0737 -0.0815,-0.1378 -0.1538,-0.1685zm-0.6291 0.1589c0.0838,-0.0445 0.1671,-0.0915 0.2583,-0.1196 -0.1093,0.0885 -0.1407,0.2531 -0.0817,0.3788 -0.0161,0.0122 -0.0325,0.0261 -0.051,0.0306 -0.026,-0.0056 -0.0313,-0.0284 -0.0555,-0.0445 -0.0266,-0.0142 -0.0576,-0.0059 -0.0844,-0.0191 -0.0161,-0.0239 -0.0333,-0.049 -0.0617,-0.0595 -0.0056,-0.0191 0.002,-0.0488 -0.021,-0.0572 -0.068,-0.0219 -0.0463,-0.0003 -0.1197,-0.0245 0.0779,-0.0108 0.1481,-0.0489 0.2168,-0.0851zm1.5253 -0.1011c0.0538,0.0232 0.0508,0.0588 0.0137,0.0835 -0.0401,0.0268 -0.0795,0.0039 -0.0886,-0.0218 -0.0059,-0.0166 0.0293,-0.0814 0.0749,-0.0617zm-1.1956 0.128c-0.0582,-0.048 0.0197,-0.1225 0.0762,-0.0624 0.0423,0.0451 -0.0449,0.1015 -0.0762,0.0624zm0.2305 0.0114c0.0843,-0.0432 0.1657,0.0875 0.0686,0.1198 -0.0938,0.0254 -0.1193,-0.0793 -0.0686,-0.1198zm0.9411 0.113c0.0464,-0.0002 0.0689,0.0696 0.0058,0.0726 -0.0604,0.0029 -0.045,-0.0725 -0.0058,-0.0726z"/>
  <path class="fil3" d="M1.6089 2.1403c0.0351,0.0087 0.0679,0.0243 0.1016,0.0371 0.0862,0.0354 0.1718,0.0594 0.26,0.089 -0.019,0.0251 -0.0359,0.0506 -0.0488,0.0796 -0.0085,0.0219 0.0015,0.0457 0.0023,0.0682 -0.1351,-0.0294 -0.2571,-0.0988 -0.3916,-0.1303 -0.0061,-0.0488 -0.0085,-0.1282 0.0766,-0.1436zm2.0946 0.086c0.052,0.0847 -0.0036,0.1755 -0.0846,0.2138 -0.0972,0.0507 -0.2093,0.0536 -0.316,0.0642 0.0308,-0.0274 0.0509,-0.0456 0.0587,-0.0775 0.0072,-0.0293 -0.0009,-0.058 -0.0219,-0.0835 0.0723,-0.0227 0.1421,-0.0453 0.2114,-0.0763 0.0242,-0.01 0.1342,-0.0676 0.1525,-0.0406zm-1.6746 0.0549c0.2209,0.0573 0.436,0.0904 0.6636,0.107 -0.0092,0.0472 -0.0442,0.0896 -0.0545,0.1352 -0.1594,-0.0031 -0.3132,-0.0267 -0.4702,-0.053 -0.0508,-0.0097 -0.1016,-0.0191 -0.1515,-0.0328 -0.011,-0.0237 -0.0325,-0.0542 -0.0271,-0.0754 0.0111,-0.0268 0.0263,-0.0523 0.0397,-0.0809zm1.2604 0.2578c0.0858,-0.0088 0.1688,-0.0176 0.2538,-0.0326 0.0212,0.0368 0.0453,0.0811 0.0235,0.1233 -0.0475,0.0874 -0.2179,0.1286 -0.3117,0.1231 0.0493,-0.0302 0.0841,-0.1015 0.0712,-0.1583 -0.0046,-0.0204 -0.0152,-0.0427 -0.0368,-0.0556zm-0.0904 0.0119c0.0121,0.0104 0.0272,0.0241 0.0387,0.0368 0.0239,0.0302 0.0279,0.055 -0.0004,0.0864 -0.0212,0.0235 -0.0629,0.0548 -0.0759,0.0786 -0.1888,-0.0073 -0.3683,-0.0223 -0.5572,-0.0263 0.0362,-0.031 0.0826,-0.0653 0.091,-0.0863 0.0016,-0.0071 0.001,-0.0526 0.0014,-0.0776 0.0033,-0.0007 0.2329,0.013 0.5023,-0.0116zm-0.258 -0.1571c0.1124,-0.0059 0.2208,-0.0087 0.3306,-0.0353 0.0116,-0.0029 0.0183,0.0138 0.0219,0.0326 0.0118,0.0603 -0.0009,0.0453 -0.0474,0.0768 -0.0171,0.0116 -0.0322,0.0256 -0.0395,0.0466 -0.1683,0.0162 -0.3337,0.0157 -0.5026,0.0123 0.0157,-0.0457 0.054,-0.0843 0.0529,-0.135 0.062,-0.0003 0.1219,0.0055 0.1839,0.002zm-1.5737 -0.2861c0.0519,-0.0161 0.106,-0.0051 0.1576,0.0057 -0.0345,0.0415 -0.046,0.054 -0.0669,0.1594 -0.0392,-0.0018 -0.0631,0.0025 -0.0981,0.0227 0.0058,0.0079 0.0116,0.0159 0.0176,0.0238 0.0328,-0.007 0.0421,-0.0121 0.0757,-0.0097 -0.0107,0.0411 -0.0067,0.0825 -0.0066,0.119 -0.0306,-0.0103 -0.0677,-0.0265 -0.0965,-0.0411 -0.0542,-0.0269 -0.1116,-0.0524 -0.1534,-0.0976 -0.0219,-0.0221 -0.0196,-0.0608 0.0044,-0.0805 0.0476,-0.0444 0.1025,-0.0851 0.1664,-0.1016zm0.625 0.4312c0.0173,-0.0166 0.0271,-0.041 0.0283,-0.0642 0.2139,0.0456 0.399,0.0609 0.6125,0.0823 -0.0051,0.0455 -0.015,0.0693 -0.0481,0.0998 -0.0221,0.0187 -0.0394,0.042 -0.0591,0.063l-0.012 -0.0011c-0.1917,-0.0169 -0.3812,-0.0421 -0.5651,-0.1006 0.0088,-0.0295 0.0215,-0.0569 0.0436,-0.0792zm-0.4489 -0.2172c0.0495,0.0127 0.0981,0.0284 0.1451,0.0483 0.0791,0.0328 0.1575,0.0614 0.2407,0.0817 -0.0107,0.054 -0.039,0.0756 -0.0423,0.1474 -0.0952,-0.0303 -0.1825,-0.0658 -0.2753,-0.1026 -0.0278,-0.0115 -0.055,-0.0257 -0.0852,-0.0302 -0.0054,-0.0082 -0.0085,-0.0173 -0.0121,-0.0264 -0.0101,-0.0314 -0.0093,-0.0497 0.0095,-0.071 0.0091,-0.0143 0.0128,-0.0318 0.0195,-0.0472z"/>
  <path class="fil4" d="M2.7528 2.3773c0.0074,0.0595 -0.0354,0.0963 -0.0525,0.1494 -0.0059,0.0195 -0.0073,0.0397 -0.0075,0.06 -0.0004,0.0457 0.0105,0.0507 -0.0252,0.0818 -0.0429,0.0374 -0.1238,0.0913 -0.1394,0.1632 -0.0177,0.0817 -0.0012,0.1158 -0.0252,0.1808 -0.0088,0.0237 -0.0302,0.0614 -0.054,0.0949 -0.0105,0.0148 -0.015,0.025 -0.0163,0.0424 -0.0008,0.0108 -0.0003,0.022 0.0008,0.0331 0.0019,0.0189 0.0041,0.0274 0.0062,0.0447 -0.0376,0.0049 -0.0543,0.0012 -0.0601,-0.0234 -0.0171,-0.0729 0.074,-0.2372 0.0836,-0.2659 0.0223,-0.0665 0.0039,-0.1372 0.0497,-0.1937 0.0278,-0.0343 0.0219,-0.0346 0.0588,-0.0714 0.0513,-0.051 0.0516,-0.0395 0.071,-0.1524 0.0105,-0.061 0.0606,-0.0962 0.0525,-0.1621 -0.1171,-0.0363 -0.0586,-0.1844 -0.0724,-0.2725 -0.0159,-0.1014 -0.075,-0.1776 -0.0503,-0.2845 0.0073,-0.0318 0.0374,-0.0507 0.0491,-0.0801 0.0112,-0.0343 -0.0752,-0.1166 -0.0042,-0.2738 0.0106,-0.0235 0.0152,-0.049 0.0173,-0.0745 -0.1259,0.0711 -0.138,0.0969 -0.2992,0.0748 -0.048,-0.0066 -0.0799,0.0379 -0.1283,0.0382 -0.0543,0.0004 -0.0936,-0.0158 -0.1052,0.0457 -0.0853,0.0417 -0.054,0.0268 -0.0845,0.2552 -0.0251,0.188 0.0004,0.0277 0.026,0.1312 0.002,0.0079 0.0063,0.0698 0.0099,0.1338 0.0097,0.1723 0.0112,0.148 -0.067,0.3112 -0.0126,0.032 0.0717,0.1043 0.0023,0.1727 -0.0989,0.0974 -0.0146,0.2729 0.0213,0.3773 0.0233,0.0678 -0.0152,0.2359 0.0354,0.2631 0.0467,0.025 0.0086,0.0842 0.0041,0.0903 -0.0267,0.0023 -0.0377,-0.0052 -0.0425,-0.0152 -0.0123,-0.0256 -0.0029,-0.0167 -0.0236,-0.0487 -0.0379,-0.0582 -0.0015,-0.2007 -0.0319,-0.2894 -0.1192,-0.3483 -0.0333,-0.3774 -0.0194,-0.4624 0.015,-0.0919 -0.0441,-0.0717 0.0343,-0.1727 0.0294,-0.0378 0.0038,-0.1066 0.0073,-0.1546 0.0166,-0.2312 -0.0624,-0.2013 -0.0758,-0.302 -0.007,-0.0527 0.0051,-0.0635 0.0266,-0.1115 0.0268,-0.0597 0.0617,-0.1459 0.0532,-0.2159 -0.0704,-0.0149 -0.2449,-0.1068 -0.2924,-0.0401 -0.1497,0.21 -0.017,0.1313 -0.0916,0.3499 -0.0207,0.061 -0.0378,0.1029 -0.0425,0.1354 -0.0071,0.0491 0.0045,0.0707 0.0162,0.0885 0.014,0.0212 0.0294,0.0361 0.031,0.0733 0.0024,0.0556 0.0196,0.025 -0.0248,0.0485 -0.0393,0.0207 -0.0495,0.0619 -0.0468,0.1028 0.0028,0.0414 0.0175,0.0847 -0.0053,0.1145 -0.0596,0.0776 0.0742,0.1611 0.0502,0.2532 -0.0039,0.0149 -0.0139,0.0225 -0.0203,0.0309 -0.0129,0.017 -0.0222,0.0354 -0.0275,0.0502 -0.0058,0.0164 -0.0109,0.0304 0.0112,0.079 0.0273,0.0598 0.0642,0.1011 0.0777,0.1499 0.0093,0.0338 0.0048,0.0709 -0.0112,0.1218 -0.0063,0.0202 -0.0109,0.0681 -0.004,0.0915 0.0098,0.0335 0.0323,0.0594 0.0347,0.0826 0.0023,0.0221 -0.0002,0.0342 -0.0427,0.027 -0.0102,-0.0238 -0.0107,-0.0429 -0.0166,-0.0589 -0.0077,-0.021 -0.0195,-0.0369 -0.0214,-0.0536 -0.0054,-0.0469 0.0074,-0.0824 0.009,-0.1228 0.0007,-0.0168 0.0053,-0.0374 -0.0005,-0.0616 -0.0072,-0.0271 -0.0284,-0.0538 -0.0401,-0.0792 -0.0268,-0.058 -0.0584,-0.1273 -0.0325,-0.1987 0.0226,-0.0623 0.0325,-0.0688 0.0317,-0.0907 -0.0006,-0.0165 -0.0043,-0.0408 -0.0437,-0.117 -0.0054,-0.0105 -0.016,-0.0206 -0.0223,-0.033 -0.0092,-0.0178 -0.0008,-0.161 0.0346,-0.2576 0.0134,-0.0366 0.0318,-0.048 0.0537,-0.073 0.005,-0.0057 0.0002,-0.0092 -0.0074,-0.0217 -0.0669,-0.11 -0.0634,-0.4277 -0.0446,-0.5324 0.0413,-0.2074 -0.025,-0.034 -0.0281,-0.2658 -0.0321,-0.0247 -0.0358,-0.0333 -0.0358,-0.0734 0.0065,-0.0014 0.1768,0.0159 0.1909,0.0207 0.0231,0.0084 0.0163,0.0383 0.0219,0.0574 0.0285,0.0105 0.0445,0.0354 0.0607,0.0593 0.0268,0.0132 0.0595,0.0063 0.0862,0.0205 0.0159,0.0095 0.0367,0.0483 0.0566,0.0453 0.0343,-0.0053 0.0716,-0.0665 0.1137,-0.0307 0.0376,0.032 -0.0066,0.0518 0.0749,0.0567 0.1697,0.0103 0.3262,-0.0426 0.483,-0.0997l-0.0003 0.011c0.0502,-0.0041 0.0966,-0.0361 0.1336,-0.0667 0.0771,0.0139 0.0405,0.0602 0.2226,0.0581 0.1009,-0.0011 0.1988,0.0337 0.2992,0.0274 0.0011,-0.0001 0.2521,-0.0415 0.4423,-0.0688 0.0314,-0.0045 0.1622,-0.0166 0.183,-0.0267 0.0881,0.1093 -0.0959,0.1572 -0.1261,0.1717 -0.117,0.0563 0.0229,0.1352 -0.2954,0.2464 -0.0127,0.0047 -0.0246,0.0111 -0.0363,0.0176 0.0414,0.0278 0.1076,-0.0278 0.1172,0.0632 0.0053,0.0506 0.2248,0.4434 0.115,0.4679 -0.0167,0.0007 -0.0334,-0.001 -0.0501,-0.0009 0.0164,-0.0451 0.0252,-0.043 0.0153,-0.1087 -0.0049,-0.032 -0.0142,-0.0611 -0.0254,-0.0898 -0.0111,-0.0285 -0.0489,-0.1132 -0.0804,-0.1824 -0.0117,-0.0256 -0.0181,-0.0526 -0.0283,-0.0688 -0.0093,-0.0147 -0.0295,-0.0235 -0.0338,-0.0241 -0.1048,-0.014 -0.115,-0.0424 -0.0846,-0.0742 0.0214,-0.0224 0.0715,-0.0343 0.1143,-0.0562 0.0529,-0.0272 0.0994,-0.056 0.1206,-0.0769 0.0386,-0.038 -0.035,-0.0585 0.2132,-0.1906 0.0194,-0.0103 -0.001,-0.0266 -0.0114,-0.0344 -0.0835,0.0257 -0.1783,0.0199 -0.255,0.0625 -0.1489,0.0827 -0.4018,0.0398 -0.4132,0.0417 0.1102,0.1491 -0.0759,0.2391 0.0123,0.3086 0.2209,0.174 0.1003,0.1561 0.1676,0.2669 0.0474,0.0781 0.105,0.1913 0.0285,0.2735 0.0262,0.0186 0.059,0.0276 0.0799,0.0536 0.0848,0.1058 -0.0833,0.1703 -0.0507,0.1964 0.0669,0.0538 0.0338,0.1628 -0.0262,0.2048 -0.16,0.112 -0.0684,0.1825 -0.3343,0.2634 -0.0579,0.016 -0.104,0.0643 -0.1663,0.0649 -0.056,0.0046 -0.0817,0.0738 -0.1289,0.0871 -0.0258,0.0073 -0.0338,-0.0158 -0.0351,-0.0391 0.0046,-0.0174 0.0124,-0.024 0.0368,-0.0448 0.1386,-0.1185 0.3901,-0.0827 0.5144,-0.2993 0.056,-0.0975 0.1891,-0.1142 0.0576,-0.2272 0.0026,-0.0486 0.0231,-0.0711 0.0563,-0.0899 0.0362,-0.0205 0.0454,-0.0189 0.0363,-0.0699 -0.005,-0.0281 -0.0128,-0.0307 -0.033,-0.0419 -0.0137,-0.0076 -0.029,-0.0109 -0.0447,-0.0112 -0.0475,-0.0008 -0.037,-0.0229 -0.0222,-0.0609 0.0344,-0.0885 0.0699,-0.0968 -0.0327,-0.2394 -0.0434,-0.0604 0.0399,-0.112 -0.1379,-0.2406 -0.1333,-0.0964 0.061,-0.2438 -0.0095,-0.3107 -0.0448,-0.0425 -0.0573,-0.0007 -0.0999,-0.0825 0,0 -0.1987,-0.0324 -0.2376,-0.0228 -0.0031,0.1179 -0.0764,0.1757 -0.0224,0.2467 0.0973,0.1278 -0.1016,0.1291 0.0057,0.3894 0.036,0.0864 0.0015,0.1818 0.0187,0.2707 0.0155,0.0363 0.0593,0.0467 0.0711,0.09z"/>
  <path class="fil5" d="M1.3331 3.2407c0.4833,0.0674 0.7868,0.0454 1.2135,-0.0259 0.0835,-0.014 0.2548,-0.0251 0.3126,-0.1032 0.2539,0.0019 0.3074,0.3159 0.2575,0.3763 -0.2351,0.2851 -1.1748,0.2733 -1.7548,0.2262 -0.3248,-0.0264 -0.5203,-0.0563 -0.8214,-0.1372 -0.2739,-0.0736 -0.5668,-0.199 -0.4869,-0.4266 0.1169,-0.3327 0.2311,-0.2664 0.4175,-0.1622 0.2964,0.1656 0.5388,0.2076 0.8621,0.2527z"/>
 </g>
</svg>
