<?xml version="1.0" encoding="UTF-8"?>
<!DOCTYPE svg PUBLIC "-//W3C//DTD SVG 1.1//EN" "http://www.w3.org/Graphics/SVG/1.1/DTD/svg11.dtd">
<!-- Creator: CorelDRAW 2020 (64-Bit) -->
<svg xmlns="http://www.w3.org/2000/svg" xml:space="preserve" width="97.7175mm" height="81.4265mm" version="1.1" style="shape-rendering:geometricPrecision; text-rendering:geometricPrecision; image-rendering:optimizeQuality; fill-rule:evenodd; clip-rule:evenodd"
viewBox="0 0 5.2189 4.3488"
 xmlns:xlink="http://www.w3.org/1999/xlink"
 xmlns:xodm="http://www.corel.com/coreldraw/odm/2003">
 <defs>
  <style type="text/css">
   <![CDATA[
    .fil0 {fill:#2B2A29}
    .fil5 {fill:#0348FE;fill-rule:nonzero}
    .fil1 {fill:#588C41;fill-rule:nonzero}
    .fil3 {fill:#9E5A34;fill-rule:nonzero}
    .fil4 {fill:#CD0E0F;fill-rule:nonzero}
    .fil2 {fill:white;fill-rule:nonzero}
   ]]>
  </style>
 </defs>
 <g id="Слой_x0020_1">
  <metadata id="CorelCorpID_0Corel-Layer"/>
  <path class="fil0" d="M4.7847 1.9714c0.1444,0.0149 0.2892,0.0264 0.4335,0.0427 0.0044,0.1468 -0.0174,0.2928 -0.0255,0.4393 -0.3928,0.2659 -0.7863,0.5311 -1.1793,0.7968 0.0189,0.0219 0.0375,0.0441 0.0562,0.0663 -0.0325,0.0239 -0.0866,0.0894 -0.1258,0.0894 -0.0151,0.0898 -0.1985,0.0412 -0.2932,0.1111 -0.1078,0.0795 -0.1378,0.2676 -0.3666,0.3434 -0.0542,0.0168 -0.09,0.1371 -0.463,0.2238 -0.1567,0.0364 -0.3168,0.055 -0.477,0.0667 -0.0213,-0.0015 -0.0379,0.0117 -0.0535,0.024 -0.3028,0.236 -0.7408,0.2362 -1.0374,-0.0266 -0.0168,-0.0145 -0.0333,-0.0331 -0.0573,-0.033 -0.1664,-0.0211 -0.3322,-0.0482 -0.4954,-0.087 -0.2171,-0.0525 -0.5013,-0.1367 -0.6609,-0.304 -0.0434,-0.0451 -0.0471,-0.1135 -0.0306,-0.1711 0.0449,-0.1607 0.0971,-0.3249 0.2896,-0.3378 -0.0054,-0.0299 -0.0031,-0.06 0.0041,-0.0893 -0.1023,-0.0923 -0.1686,-0.217 -0.2146,-0.3452 -0.1976,-0.5506 -0.0389,-1.2099 0.2483,-1.6985 0.1044,-0.1785 0.2015,-0.2407 0.3853,-0.2719 0.1127,-0.3627 0.3558,-0.7433 0.7602,-0.805 0.2281,-0.0348 0.5123,0.0981 0.6759,0.249 0.1719,-0.1121 0.3716,-0.1922 0.5795,-0.1891 0.369,0.0021 0.5521,0.1601 0.6004,0.5313 0.0863,0.0247 0.1855,0.0462 0.2411,0.1236 0.0264,0.0184 0.1037,-0.0022 0.1456,0.137 0.1434,0.063 0.1048,0.1145 0.147,0.1411 0.1044,0.0658 0.2128,0.2001 0.0646,0.3071 0.0087,0.0976 -0.0454,0.104 -0.13,0.1432 -0.0635,0.0294 -0.1344,0.1226 -0.3207,0.1834 0.0311,0.0307 0.0565,0.067 0.0721,0.108 0.0374,-0.0011 0.0677,0.025 0.0831,0.0603 0.0399,0.0916 0.01,0.2572 -0.3356,0.3253 -0.1697,0.0331 -0.3421,0.0507 -0.5145,0.0604 -0.156,0.0025 -0.2829,0.1329 -0.3513,0.2634 0.1465,0.0515 0.3014,0.076 0.4564,0.0798 0.3893,0.0071 0.5179,-0.3902 0.9179,-0.2494 0.2823,0.0993 0.1661,0.288 0.0507,0.2841 -0.17,-0.0058 -0.1804,-0.1373 -0.3781,-0.0519 -0.2063,0.0891 -0.41,0.2538 -0.6646,0.2471 -0.1564,-0.0041 -0.3053,-0.0579 -0.4521,-0.1068 -0.0139,0.0762 -0.0246,0.1544 -0.0162,0.2318 0.0717,0.0588 0.1284,0.134 0.1737,0.2144 0.2014,-0.0058 0.4021,-0.0235 0.6034,-0.0299 0.2843,-0.0037 0.2162,0.1327 0.1898,0.1487 -0.0589,0.0354 -0.1283,0.0459 -0.1944,0.0607 -0.029,0.0772 -0.1069,0.1134 -0.1756,0.1478 0.0338,0.0088 0.0694,0.0316 0.1043,0.014 0.1588,-0.0545 0.3181,-0.1226 0.4429,-0.2381 0.0534,-0.0472 0.0881,-0.1111 0.1402,-0.1596 -0.0017,-0.0034 -0.0051,-0.0104 -0.0069,-0.0139 0.0383,-0.0311 0.0756,-0.0633 0.1139,-0.0942 0.0156,0.0179 0.0313,0.0358 0.0468,0.0538 0.3321,-0.338 0.6614,-0.6787 0.9935,-1.0166zm-1.3224 0.7444c0.0371,0.0294 0.0137,0.097 -0.0337,0.0972 -0.0641,0.0088 -0.1094,-0.051 -0.1243,-0.1064 0.0509,-0.0123 0.113,-0.0258 0.158,0.0093zm0.3467 -0.7867c0.0334,-0.0337 0.0995,-0.0006 0.0951,0.0456 -0.0031,0.0557 -0.0618,0.094 -0.1145,0.0904 -0.0101,-0.0451 -0.0155,-0.0999 0.0193,-0.136zm0.1784 0.3558c0.009,-0.059 0.0582,-0.1164 0.1208,-0.1174 0.0481,-0.0022 0.0802,0.063 0.0484,0.0994 -0.0409,0.0492 -0.1165,0.0442 -0.1691,0.018z"/>
  <path class="fil1" d="M2.6125 3.3293c0.1534,-0.0027 0.3055,-0.0231 0.4579,-0.0396 -0.03,0.0415 -0.0754,0.0677 -0.1215,0.0874 -0.1027,0.0428 -0.2121,0.0656 -0.321,0.0863 -0.0045,-0.0449 -0.0095,-0.0895 -0.0154,-0.1342zm0.5962 -2.3817c0.0943,-0.0387 0.1903,-0.0847 0.2948,-0.0816 0.101,0.0018 0.214,0.0136 0.2902,0.0875 -0.047,-0.0129 -0.0938,-0.0297 -0.143,-0.0293 -0.0955,-0.0023 -0.1833,0.0409 -0.2687,0.0779 -0.2552,0.1195 -0.5038,0.1513 -0.7517,0.2488 -0.0705,-0.0649 -0.1553,-0.112 -0.2254,-0.1771 0.0576,0.0226 0.1123,0.054 0.158,0.0959 0.0255,0.0213 0.0482,0.0477 0.0795,0.0606 0.0331,-0.0078 0.0469,-0.0497 0.068,-0.0785 -0.0212,0.0115 -0.0424,0.023 -0.0638,0.0344 -0.0462,-0.0405 -0.0912,-0.0836 -0.1454,-0.1134 -0.1901,-0.1069 -0.4123,-0.1529 -0.6294,-0.1382 0.0677,0.006 0.1434,0.0406 0.2078,0.0455 -0.0753,0.0068 -0.1517,0.001 -0.2259,0.0183 -0.0989,0.0164 -0.1899,0.0594 -0.2819,0.0967 0.0667,-0.0534 0.1497,-0.1241 0.2304,-0.1507 -0.0348,0.0071 -0.0833,0.0181 -0.1172,0.0286 0.104,-0.043 0.2084,-0.0875 0.3186,-0.1117 0.1033,-0.0229 0.2096,0.0024 0.3063,0.0396 0.1096,0.0421 0.2242,0.0939 0.2958,0.1873 0.0115,-0.0083 0.0073,0.0023 0.0188,-0.006 -0.0426,-0.0581 -0.095,-0.1092 -0.1564,-0.147 -0.023,-0.015 -0.0517,-0.0274 -0.0591,-0.0566 -0.02,-0.0569 -0.0502,-0.1102 -0.0947,-0.1516 0.0015,-0.1544 -0.0239,-0.3181 -0.1234,-0.4417 0.0798,-0.0492 0.1624,-0.0952 0.2514,-0.1259 0.2094,-0.0748 0.5562,-0.0886 0.717,0.0963 0.1174,0.1342 0.1237,0.2338 0.1358,0.3304 -0.1227,-0.0231 -0.6341,-0.0231 -0.7588,-0.0294 0.0572,-0.0129 0.3795,-0.0504 0.4376,-0.0489 0.0516,-0.0005 0.1584,-0.0065 0.236,-0.0027 -0.1143,-0.0146 -0.2303,-0.0117 -0.3454,-0.0096 -0.1037,0.0068 -0.4456,-0.0023 -0.4656,0.1071 0.1653,-0.0169 0.3317,-0.0273 0.4979,-0.0185 0.157,0.0067 0.3146,0.0229 0.4668,0.0637 0.0546,0.015 0.1074,0.0369 0.1553,0.0673 -0.1257,0.0075 -0.242,0.0603 -0.3528,0.1158 -0.1662,0.0829 -0.3025,0.1767 -0.4854,0.2161 0.0023,0.014 -0.0262,0.0209 -0.0238,0.0349 0.0671,-0.0133 0.1313,-0.0371 0.1961,-0.0583 0.1548,-0.0574 0.2977,-0.1409 0.4482,-0.2077 0.095,-0.041 0.2044,-0.077 0.3068,-0.041 0.033,0.0094 0.0522,0.0392 0.0701,0.066 -0.1099,-0.0191 -0.2267,-0.0312 -0.3338,0.0076 -0.1746,0.0605 -0.3325,0.1408 -0.4905,0.2258 0.1166,-0.0456 0.2402,-0.0753 0.3553,-0.1265zm-2.8757 2.2148c0.0507,0.0276 0.0968,0.0626 0.1469,0.091 0.1353,0.0804 0.3594,0.1625 0.5088,0.1894 0.0011,0.0175 0.0011,0.0351 0.0008,0.0527 -0.1089,-0.0228 -0.2151,-0.0572 -0.3186,-0.0975 -0.1008,-0.0416 -0.2009,-0.0884 -0.2888,-0.1535 -0.0282,-0.0188 -0.0412,-0.0506 -0.0491,-0.0822zm0.8271 -2.9681c0.132,-0.1035 0.3026,-0.17 0.472,-0.1479 0.1828,0.0316 0.3585,0.1152 0.4957,0.2405 0.1148,0.1038 0.1401,0.2667 0.1447,0.4137 -0.0917,-0.0235 -0.187,-0.015 -0.28,-0.005 -0.0728,0.0084 -0.1447,0.0269 -0.2114,0.0574 -0.0948,0.0419 -0.1743,0.1104 -0.2669,0.1564 -0.0685,0.0361 -0.2295,0.0529 -0.2841,0.1311 0.1169,-0.0179 0.233,-0.0507 0.3362,-0.1097 0.0839,-0.0461 0.1587,-0.1081 0.2475,-0.1453 0.1001,-0.0426 0.2102,-0.0531 0.3179,-0.057 0.0512,-0.0013 0.1068,0.0005 0.1502,0.0316 0.0392,0.0272 0.0592,0.0723 0.0796,0.1139 -0.0999,-0.0386 -0.2059,-0.0743 -0.3146,-0.0616 -0.145,0.0158 -0.2782,0.0798 -0.4114,0.1347 -0.0786,0.0334 -0.3594,0.123 -0.409,0.1999 0.0748,-0.0246 0.1497,-0.049 0.223,-0.0778 0.0571,-0.0212 0.1118,-0.0493 0.1716,-0.0633 -0.1361,0.0974 -0.1711,0.1205 -0.2639,0.2575 -0.0077,0.0294 0.0189,0.0557 0.0388,0.0744 0.0782,0.0642 0.1771,0.0962 0.2738,0.121 0.1472,0.0343 0.2995,0.0448 0.4503,0.0386 0.1159,-0.0057 0.2296,-0.0359 0.3368,-0.0794 0.0562,-0.0226 0.1102,-0.0506 0.1667,-0.0725 -0.0072,0.0638 -0.0602,0.1062 -0.1086,0.1414 -0.1191,0.0803 -0.261,0.1285 -0.4051,0.1282 -0.1636,-0.0006 -0.633,-0.138 -0.6509,-0.0848 0.2109,0.0792 0.4352,0.1283 0.6613,0.1274 0.1355,-0.0001 0.2677,-0.0442 0.3844,-0.1112 0.0062,0.0141 0.0201,0.0083 0.0265,0.0224 0.0845,-0.0374 0.1622,-0.0613 0.2226,-0.1335 -0.0101,-0.009 -0.0128,-0.0048 -0.0232,-0.0009 -0.0591,0.0587 -0.137,0.0781 -0.2143,0.109 0.0588,-0.0467 0.1226,-0.0929 0.15,-0.1659 0.0445,0.0103 0.0892,0.0203 0.1346,0.0262 0.1411,0.0213 0.2837,0.0259 0.426,0.0305 0.169,0.0068 0.3342,-0.0354 0.5,-0.0615 0.0601,-0.0088 0.1177,-0.0283 0.1758,-0.0451 -0.0306,0.0681 -0.1157,0.069 -0.1669,0.1145 -0.0988,0.0807 -0.2136,0.1449 -0.34,0.1688 -0.1399,0.027 -0.2832,0.0459 -0.4257,0.0392 -0.0795,-0.0219 -0.1565,-0.0529 -0.2356,-0.0764 -0.0056,0.012 0.0285,0.0256 0.023,0.0376 0.1056,0.0483 0.201,0.0628 0.2874,0.1472 0.0112,-0.0108 -0.0039,-0.0588 -0.0073,-0.0627 0.1338,-0.0056 0.2673,-0.0206 0.3985,-0.0479 0.0325,0.0289 0.0603,0.0629 0.0804,0.1016 -0.0471,0.0219 -0.0943,0.044 -0.1418,0.0651 -0.1535,0.0688 -0.3208,0.1031 -0.4883,0.1129 -0.1803,0.0083 -0.362,0.0138 -0.5414,-0.01 -0.2593,-0.0446 -0.5146,-0.1124 -0.7764,-0.1432 -0.2291,-0.0269 -0.3946,-0.0289 -0.5924,0.1072 -0.1671,0.1151 -0.2787,0.2946 -0.346,0.4832 -0.0635,0.1804 -0.1047,0.3771 -0.0651,0.5675 0.0273,0.1361 0.1113,0.2638 0.2371,0.3272 0.0673,0.0365 0.1462,0.0409 0.2211,0.0375 -0.0093,0.0359 -0.0173,0.0721 -0.0269,0.1079 -0.0535,-0.0148 -0.1068,-0.0296 -0.16,-0.0452 -0.0648,-0.0214 -0.1292,-0.0445 -0.1913,-0.0732 -0.1511,-0.0651 -0.2999,-0.1526 -0.3988,-0.2876 -0.0915,-0.131 -0.1431,-0.2854 -0.1749,-0.441 -0.0673,-0.3304 -0.0136,-0.6729 0.0912,-0.9896 0.0652,-0.1829 0.1421,-0.3633 0.2505,-0.5251 0.0692,-0.0959 0.1727,-0.1745 0.2937,-0.185 -0.0263,0.0994 -0.0485,0.1999 -0.0629,0.3017 0.0174,-0.0007 0.0454,0.0061 0.0455,-0.0204 0.0217,-0.1185 0.0464,-0.2371 0.0852,-0.3515 0.0764,-0.2246 0.1955,-0.4451 0.3856,-0.5934zm-0.6125 1.3357c-0.01,-0.0823 0.0407,-0.0926 -0.03,-0.1201 -0.0175,0.0542 -0.027,0.1176 0.012,0.1652 0.0234,0.014 0.0482,0.0255 0.0731,0.0365 0.016,-0.0636 -0.0011,-0.0391 -0.0552,-0.0815zm0.0199 0.0922c-0.1094,-0.0159 -0.1917,0.0806 -0.2361,0.1686 0.075,0.023 0.0617,-0.0546 0.15,-0.1098 0.1117,-0.051 0.0568,0.0335 0.1343,-0.023 -0.0156,-0.0124 -0.0306,-0.0259 -0.0482,-0.0358zm-0.1913 0.8117c-0.0333,0.015 -0.0782,0.0566 -0.0768,0.0975 0.0006,0.0162 0.0357,0.0068 0.0754,-0.0117 0.0695,-0.0259 0.0388,0.0537 0.1213,0.0198 -0.0202,-0.033 -0.0502,-0.0575 -0.0868,-0.0704 0.039,-0.0273 0.0675,-0.066 0.0842,-0.1105 -0.0854,-0.0205 -0.0342,0.0443 -0.1174,0.0753zm0.0256 -0.8918c-0.0512,0.1334 -0.207,0.1703 -0.1701,0.2422 0.0859,-0.0522 0.1657,-0.1236 0.2066,-0.2173 0.0215,-0.0468 0.0195,-0.1 0.0029,-0.1479 -0.0762,0.0292 -0.0073,0.0453 -0.0393,0.123zm1.1839 -1.1764c-0.0844,0.0253 -0.4281,0.1178 -0.4525,0.2812 0.1455,-0.0904 0.2918,-0.1847 0.4562,-0.2371 0.143,-0.0457 0.3037,-0.0268 0.436,0.0425 0.0863,0.0455 0.153,0.1201 0.2027,0.2029 0.0119,-0.007 0.0238,-0.0141 0.0358,-0.0212 -0.0618,-0.1139 -0.1637,-0.206 -0.2857,-0.2511 -0.1248,-0.0458 -0.2645,-0.0557 -0.3926,-0.0173zm0.2379 1.3779c-0.0134,-0.002 0.2607,0.1031 0.5761,-0.0705 0.0159,-0.0088 0.0915,-0.0443 0.0753,-0.0658 -0.1887,0.1283 -0.428,0.1439 -0.6514,0.1362zm0.392 0.1252c0.0126,0.007 0.0337,-0.0133 0.0464,-0.0062 0.0744,-0.1028 0.1748,-0.1518 0.2944,-0.1928 -0.0214,-0.0706 -0.299,0.1397 -0.3407,0.199zm-1.6754 0.4783c-0.0487,0.0469 -0.0533,0.1267 -0.0141,0.181 0.0095,-0.0089 0.0191,-0.0175 0.0278,-0.0273 -0.0034,-0.02 -0.01,-0.0394 -0.0123,-0.0596 0.0013,-0.0248 0.0173,-0.0454 0.0283,-0.0668 -0.0086,-0.0104 -0.0119,-0.0316 -0.0296,-0.0273zm2.0877 1.1592c0.0975,-0.0131 0.192,-0.0405 0.2866,-0.0664 -0.0052,0.0353 -0.041,0.0475 -0.0704,0.0571 -0.0719,0.0223 -0.1453,0.0388 -0.2192,0.053 0.001,-0.0146 0.0019,-0.0291 0.003,-0.0436zm0.8669 -0.2433c0.0487,-0.0397 0.088,-0.089 0.1279,-0.1371 -0.0056,0.0355 -0.0118,0.0723 0.001,0.1072 -0.0708,0.0591 -0.143,0.1166 -0.2128,0.1769 0.0469,0.0409 0.0915,0.0844 0.1386,0.1252 0.0191,-0.0146 0.0385,-0.0291 0.0578,-0.0435 -0.0674,0.0663 -0.1064,0.1547 -0.1708,0.2234 -0.0464,0.0465 -0.1043,0.0798 -0.1646,0.1048 -0.0108,-0.076 -0.0172,-0.155 -0.0496,-0.2254 -0.0258,-0.055 -0.0775,-0.0896 -0.1274,-0.1207 0.1411,-0.0534 0.2829,-0.1133 0.3999,-0.2108zm-2.8946 0.681c0.144,-0.044 0.2842,-0.0996 0.4213,-0.1618 0.0313,0.1044 0.0839,0.2017 0.1529,0.2861 -0.1901,-0.0225 -0.3787,-0.0585 -0.5639,-0.1068 -0.0096,0.001 -0.0324,-0.014 -0.0103,-0.0174zm3.016 -0.4595c0.0601,-0.0494 0.1213,-0.0976 0.1836,-0.1442 0.0369,0.0178 0.0732,0.0377 0.1019,0.0675 -0.0942,0.0304 -0.2006,0.0185 -0.2855,0.0767z"/>
  <path class="fil2" d="M3.3954 1.0438c0.0937,-0.0399 0.1924,-0.0936 0.2976,-0.0727 0.1087,0.0207 0.2141,0.0853 0.2665,0.1848 0.0222,0.0398 -0.007,0.0861 -0.0414,0.1076 -0.07,0.0456 -0.1545,0.0595 -0.2354,0.0729 -0.1513,0.0239 -0.3022,0.0625 -0.4566,0.0542 -0.1532,-0.0035 -0.3069,-0.0107 -0.4584,-0.0357 -0.0479,-0.0095 -0.1014,-0.0146 -0.1369,-0.0523 0.045,-0.029 0.0978,-0.0406 0.1483,-0.0561 0.2087,-0.0567 0.4199,-0.1103 0.6164,-0.2026zm0.5219 2.0937c0.4202,-0.3498 0.8389,-0.7015 1.2596,-1.051 -0.006,0.1144 -0.0176,0.2284 -0.0251,0.3426 -0.3893,0.2615 -0.7772,0.5253 -1.1664,0.7871 -0.0228,-0.0263 -0.0451,-0.0528 -0.068,-0.0788zm-2.3878 0.0955c0.0943,-0.0933 0.2114,-0.1272 0.3234,-0.1169 0.1749,0.0161 0.3343,0.1445 0.3522,0.3563 0.0314,0.3741 -0.3615,0.543 -0.6111,0.3996 -0.0762,-0.0438 -0.1404,-0.1132 -0.1734,-0.2192 -0.0469,-0.1466 -0.0007,-0.313 0.109,-0.4199zm3.2713 -1.2167c0.1164,0.0112 0.2327,0.0222 0.3491,0.0332 -0.4208,0.3507 -0.8409,0.7023 -1.2616,1.0532 -0.0232,-0.0273 -0.0466,-0.0543 -0.069,-0.0822 0.3295,-0.3325 0.6546,-0.6693 0.9815,-1.0042zm-3.0825 0.7262c0.6682,-0.0839 1.055,0.5971 0.7704,1.1308 -0.2977,0.5584 -1.0853,0.5809 -1.3724,0.0398 -0.2498,-0.4709 0.0427,-1.0791 0.6019,-1.1706zm-0.5698 0.4281c0.015,0.0168 0.026,0.0327 0.041,0.0496 -0.0227,-0.0025 -0.0366,-0.006 -0.0592,-0.0084 -0.1172,0.2462 -0.0951,0.5039 0.0209,0.702 0.1686,0.2879 0.5322,0.4567 0.9072,0.3144 0.4753,-0.1804 0.6546,-0.7931 0.3409,-1.1925 -0.3355,-0.4271 -1.0061,-0.3367 -1.2507,0.1348zm0.625 0.2751c-0.0903,0.0419 -0.0497,0.1727 0.0421,0.1557 0.0469,-0.0087 0.0867,-0.063 0.0684,-0.1127 -0.015,-0.0407 -0.0693,-0.0645 -0.1104,-0.043zm0.4318 -2.0976c0.0103,-0.0146 0.0391,0.0005 0.0265,0.0165 -0.0103,0.0145 -0.0393,-0.0003 -0.0265,-0.0165zm1.4154 -0.2551c-0.0619,0.013 -0.1018,0.0822 -0.0832,0.1426 0.0252,0.077 0.1393,0.1009 0.1945,0.0426 0.0493,-0.0474 0.0401,-0.14 -0.0183,-0.1761 -0.0274,-0.0178 -0.0624,-0.0156 -0.093,-0.0091zm-2.2241 0.1802c0.2236,-0.2033 0.5474,-0.2975 0.8435,-0.2273 0.0821,0.0201 0.1487,0.0747 0.2155,0.1236 0.0455,0.036 0.0946,0.0673 0.1391,0.1046 -0.0003,0.0071 -0.0012,0.0213 -0.0015,0.0283 -0.0418,0.0306 -0.0908,0.0485 -0.1378,0.0692 -0.1225,0.0519 -0.2542,0.0853 -0.3877,0.0841 -0.173,0.0028 -0.3488,-0.0161 -0.5115,-0.0776 -0.0591,-0.024 -0.1203,-0.0525 -0.1596,-0.1049zm0.77 -0.0922c-0.056,0.0219 -0.0877,0.0874 -0.0684,0.1448 0.0245,0.0791 0.1335,0.1089 0.1975,0.0587 0.0578,-0.0426 0.0599,-0.1397 0.0049,-0.1854 -0.0357,-0.0323 -0.0908,-0.036 -0.1341,-0.0181zm1.4688 0.0098c0.0014,-0.0212 0.0091,-0.054 0.0364,-0.052 0.038,-0.0014 0.0508,0.0422 0.0492,0.0732 -0.0511,0.0256 -0.0577,0.0144 -0.0856,-0.0213z"/>
  <path class="fil3" d="M3.4791 1.8141c0.0322,-0.0175 0.0677,-0.0275 0.1042,-0.031 0.0218,0.0438 0.0416,0.0998 0.0116,0.1449 -0.0534,0.0858 -0.1548,0.1221 -0.2485,0.1444 -0.3372,0.0783 -0.8805,0.1093 -1.2204,0.0357 -0.3435,-0.0744 -0.8228,-0.2423 -1.0953,-0.0008 -0.2395,0.2121 -0.3421,0.7141 -0.1635,0.9063 0.0631,0.0678 0.1604,0.084 0.249,0.0807 -0.0319,0.0498 -0.0559,0.1039 -0.0788,0.1582 -0.3251,0.0434 -0.481,-0.2694 -0.4378,-0.5873 0.0476,-0.35 0.2567,-0.777 0.6282,-0.8502 0.277,-0.0546 0.8083,0.0964 1.0935,0.1419 0.2042,0.0291 0.4115,0.0223 0.6169,0.0099 0.1883,-0.0144 0.3724,-0.0681 0.5409,-0.1527zm0.3338 1.3621c0.0055,0.0267 -0.0033,0.0683 0.0107,0.0891 -0.0907,0.0706 -0.1817,0.141 -0.2712,0.2129 -0.0251,-0.0223 -0.0497,-0.0451 -0.0739,-0.0684 0.0887,-0.0742 0.2277,-0.1803 0.3136,-0.2578 -0.0333,-0.0387 -0.0668,-0.0773 -0.1,-0.1161 0.0154,-0.0137 0.0308,-0.0275 0.0465,-0.0411 0.0888,0.1063 0.1828,0.2085 0.268,0.3176 -0.0158,0.0129 -0.0316,0.0257 -0.0473,0.0387 -0.0478,-0.0592 -0.0969,-0.1172 -0.1464,-0.1749zm-2.6587 -0.0025c0.2447,-0.4715 0.9076,-0.5634 1.2431,-0.1363 0.3696,0.4705 0.0489,1.2031 -0.567,1.2354 -0.5867,0.0308 -0.9337,-0.5634 -0.6993,-1.056 0.0226,0.0023 0.0453,0.0047 0.068,0.0072 -0.015,-0.0169 -0.0299,-0.0336 -0.0449,-0.0504zm1.4023 -0.0329c0.209,-0.0067 0.4174,-0.0276 0.6266,-0.0293 0.0485,-0.001 0.1096,0.0084 0.1253,0.063 -0.1279,0.073 -0.5471,0.1178 -0.7087,0.1109 -0.0106,-0.0493 -0.0338,-0.0949 -0.0433,-0.1446zm-1.0282 0.0903c-0.0868,0.0847 -0.1305,0.1968 -0.1295,0.3058 0.0013,0.1391 0.0733,0.2732 0.1991,0.341 0.1555,0.0839 0.3522,0.0575 0.4823,-0.063 0.1927,-0.1785 0.1641,-0.4779 -0.0132,-0.621 -0.1129,-0.0911 -0.2857,-0.1087 -0.4167,-0.0478 -0.0454,0.0211 -0.0871,0.0504 -0.1221,0.085z"/>
  <path class="fil4" d="M3.4786 2.3326c0.1384,-0.0809 0.4112,-0.0205 0.464,0.0896 0.0397,0.1031 -0.1,0.1043 -0.1751,0.0733 -0.0375,-0.0155 -0.074,-0.0348 -0.1115,-0.0488 -0.1314,-0.0513 -0.3502,0.1399 -0.5881,0.2312 -0.2611,0.1002 -0.5019,-0.007 -0.7787,-0.0892 -0.0723,-0.0217 -0.1326,-0.0429 -0.2097,-0.0453 -0.116,-0.0036 -0.2069,0.0321 -0.2775,0.146 -0.0763,0.0032 -0.1512,0.0204 -0.2253,0.0384 0.0826,-0.2528 0.3488,-0.3594 0.5969,-0.3198 0.2716,0.0434 0.5775,0.2414 0.9007,0.138 0.1482,-0.0433 0.2705,-0.141 0.4043,-0.2135z"/>
  <path class="fil5" d="M0.676 3.4455c0.1306,0.0506 0.1908,0.0605 0.3112,0.0973 0.0005,0.0668 0.0123,0.1327 0.0142,0.1993 -0.1054,0.0478 -0.4415,0.2084 -0.5355,0.175 -0.0827,-0.0294 -0.4025,-0.1599 -0.4141,-0.263 -0.0126,-0.1121 0.0554,-0.3065 0.1416,-0.3621 0.1059,-0.0684 0.1535,-0.02 0.2005,0.0129 0.087,0.06 0.1838,0.1029 0.282,0.1406zm2.22 0.0793c0.0247,-0.0081 0.0395,-0.0302 0.0544,-0.0498 0.1174,0.0236 0.2391,0.0777 0.2565,0.211 0.0146,0.1112 0.0479,0.1542 -0.0433,0.2137 -0.2887,0.1886 -0.5854,0.1612 -0.7786,0.2085 0.0178,-0.042 0.2295,-0.2692 0.2324,-0.5083 0.0828,-0.0296 0.148,-0.0257 0.2785,-0.0752z"/>
 </g>
</svg>
