<?xml version="1.0" encoding="UTF-8"?>
<!DOCTYPE svg PUBLIC "-//W3C//DTD SVG 1.1//EN" "http://www.w3.org/Graphics/SVG/1.1/DTD/svg11.dtd">
<!-- Creator: CorelDRAW 2020 (64-Bit) -->
<svg xmlns="http://www.w3.org/2000/svg" xml:space="preserve" width="77.5689mm" height="81.4228mm" version="1.1" style="shape-rendering:geometricPrecision; text-rendering:geometricPrecision; image-rendering:optimizeQuality; fill-rule:evenodd; clip-rule:evenodd"
viewBox="0 0 3.2781 3.441"
 xmlns:xlink="http://www.w3.org/1999/xlink"
 xmlns:xodm="http://www.corel.com/coreldraw/odm/2003">
 <defs>
  <style type="text/css">
   <![CDATA[
    .fil0 {fill:#2B2A29}
    .fil1 {fill:#FEFEFE;fill-rule:nonzero}
    .fil4 {fill:#FFED00;fill-rule:nonzero}
    .fil2 {fill:#588C41;fill-rule:nonzero}
    .fil3 {fill:#9E5A34;fill-rule:nonzero}
   ]]>
  </style>
 </defs>
 <g id="Слой_x0020_1">
  <metadata id="CorelCorpID_0Corel-Layer"/>
  <path class="fil0" d="M0.9967 0.1261c0.2222,-0.158 0.4913,-0.163 0.7331,-0.0404 0.0558,0.0279 0.1041,0.0677 0.1503,0.1091 0.2204,-0.1398 0.534,-0.2337 0.7559,-0.0495 0.0974,0.0794 0.1524,0.2009 0.168,0.3239 0.0945,0.027 0.2745,0.0728 0.2917,0.1904 0.0795,0.0304 0.1093,0.056 0.1096,0.1266 0.0544,0.0385 0.0785,0.0619 0.0476,0.1136 0.0475,0.0715 0.0251,0.125 -0.0436,0.1706 0.0097,0.1154 -0.0858,0.1013 -0.1129,0.1197 -0.012,0.0082 -0.0395,0.1233 -0.2383,0.1973 0.1394,0.119 0.2153,0.2211 0.2267,0.4071 0.006,-0.0092 0.0526,-0.0014 0.0642,0.0567 0.02,0.1002 -0.0669,0.1657 -0.151,0.1985 0.0623,0.1056 -0.0117,0.182 -0.1136,0.2095 -0.0424,0.012 -0.0867,0.013 -0.1303,0.0159 -0.1068,0.121 -0.2572,0.1915 -0.4089,0.2383 0.1577,0.0415 0.2203,0.1242 0.2471,0.278 0.0339,0.1952 -0.4958,0.268 -0.6045,0.2802 -0.2646,0.0282 -0.5318,0.0261 -0.7971,0.0074 -0.042,0.1113 -0.0117,0.1719 -0.0336,0.2621 -0.0419,0.1733 -0.6885,0.1111 -0.733,-0.1089 -0.0092,-0.045 -0.0009,-0.224 0.0111,-0.2782 -0.1073,-0.0309 -0.2137,-0.07 -0.3081,-0.1306 -0.1151,-0.084 -0.1554,-0.1075 -0.1076,-0.257 0.038,-0.116 0.1296,-0.2507 0.2587,-0.2619 -0.0839,-0.0632 -0.1536,-0.1278 -0.1975,-0.2266 -0.1616,-0.3633 -0.0061,-0.7878 0.1847,-1.1076 0.0644,-0.1079 0.1983,-0.2548 0.3351,-0.2628 0.0277,-0.0016 0.0724,-0.3515 0.3961,-0.5813z"/>
  <path class="fil1" d="M2.658 0.7655c-0.0768,0.0153 -0.149,0.0474 -0.2199,0.0799 -0.0546,0.0286 -0.1135,0.0569 -0.1519,0.1067 -0.0053,0.0279 -0.0099,0.0566 -0.0256,0.081 -0.0161,0.0214 -0.0116,0.0589 0.0154,0.0691 0.0394,0.0146 0.0813,0.0215 0.1226,0.0284 0.1614,0.0232 0.326,0.025 0.4879,0.0047 0.0888,-0.012 0.1783,-0.0284 0.2613,-0.0635 0.0381,-0.0171 0.0784,-0.0387 0.0985,-0.0772 0.0154,-0.0363 -0.0082,-0.0745 -0.0373,-0.0956 -0.0528,-0.0384 -0.1157,-0.0586 -0.176,-0.0819 -0.1189,-0.0437 -0.2482,-0.0759 -0.3751,-0.0517zm-1.9368 2.104l0.1418 0.036 -0.0603 0.2745 -0.1286 -0.0422 0.047 -0.2683zm0.5066 -1.8793c0.0268,0.0223 0.0527,0.0462 0.0836,0.0627 0.1289,0.0743 0.2758,0.1204 0.4251,0.1228 0.0968,-0.0022 0.1941,-0.0108 0.2881,-0.0349 0.0586,-0.0158 0.1177,-0.0359 0.1664,-0.0732 0.0329,-0.025 0.0595,-0.0612 0.0636,-0.1033 0.0045,-0.0366 0.0071,-0.0826 -0.0251,-0.108 -0.042,-0.0299 -0.0954,-0.0339 -0.1436,-0.0482 -0.1027,-0.0287 -0.206,-0.0662 -0.3143,-0.0617 -0.2049,0.004 -0.3979,0.104 -0.5439,0.2437zm1.4231 -0.2105c0.064,-0.012 0.1355,-0.0119 0.1926,0.0233 0.1002,0.0591 0.1073,0.2249 0.0123,0.2922 -0.0516,0.0373 -0.1177,0.0457 -0.1798,0.044 -0.1155,0 -0.1681,-0.0635 -0.1655,-0.1753 -0.0012,-0.0958 0.0449,-0.1654 0.1404,-0.1841zm-0.05 0.0538c-0.0357,0.0329 -0.0111,0.0889 0.0252,0.0846 0.0505,0.0004 0.0719,-0.0776 -0,-0.0848 -0.0074,-0.0007 -0.0158,-0.0007 -0.0252,0.0002zm0.1271 0.0944c-0.0061,0.0325 0.0007,0.0778 0.0382,0.0879 0.0308,0.006 0.0674,-0.007 0.0811,-0.0367 0.0125,-0.08 -0.0888,-0.1146 -0.1193,-0.0512zm-0.1038 0.0821c-0.005,0.0046 -0.01,0.0092 -0.0151,0.0137 0.0011,0.0099 -0.0029,0.0219 0.0038,0.0305 0.0122,0.0228 0.0556,0.0135 0.0547,-0.0134 0.002,-0.023 -0.0244,-0.0331 -0.0434,-0.0308zm-0.9823 -0.2235c0.0611,-0.0116 0.1288,-0.0127 0.185,0.0175 0.0926,0.0517 0.1062,0.207 0.0322,0.2822 -0.042,0.0448 -0.1042,0.0662 -0.1647,0.0654 -0.1552,0.0024 -0.2214,-0.0855 -0.1887,-0.2369 0.014,-0.0659 0.0714,-0.1153 0.1362,-0.1283zm-0.0495 0.0537c-0.0263,0.0145 -0.0297,0.0531 -0.0089,0.0738 0.0242,0.027 0.0822,0.0038 0.0744,-0.0342 0.0006,-0.0312 -0.0394,-0.0438 -0.0655,-0.0396zm0.1154 0.082c-0.051,0.0327 0.0188,0.1417 0.0939,0.0861 0.0691,-0.0511 -0.0345,-0.1455 -0.0939,-0.0861zm-0.1121 0.1166c-0.0137,0.0093 -0.01,0.0267 -0.0098,0.0407 0.0131,0.02 0.0473,0.0191 0.0568,-0.0034 0.0107,-0.0276 -0.024,-0.0477 -0.047,-0.0373z"/>
  <path class="fil2" d="M1.7868 0.1544c0.1489,0.1052 0.2281,0.3675 0.1697,0.3133 -0.256,-0.2375 -0.7979,-0.159 -0.9035,0.018 0.035,0.0166 0.0441,-0.0078 0.0767,-0.0298 0.3103,-0.2095 0.6866,-0.1023 0.9377,0.1423 -0.6074,-0.1142 -0.6599,0.1639 -0.9562,0.2054 0.0002,0.0093 -0.0158,0.017 -0.0153,0.0263 0.2553,-0.0317 0.2937,-0.1889 0.6193,-0.2198 0.0644,-0.0061 0.5387,-0.0273 0.4827,0.1297 -0.087,-0.0146 -0.3297,-0.1635 -0.6347,-0.0471 -0.1401,0.0535 -0.2551,0.1577 -0.4089,0.172 -0.0509,0.0048 -0.1976,-0.0108 -0.1633,0.0857 0.021,0.059 0.142,0.0435 0.1886,0.0504 0.0608,0.0091 0.3779,0.3346 0.9153,0.1468 0.0463,-0.0158 0.0899,-0.0396 0.1274,-0.071 0.0054,0.0138 0.0119,0.0272 0.0199,0.0398 -0.0709,0.1967 -0.7393,0.1776 -1.0082,0.0016 -0.0058,0.0079 -0.0111,0.0161 -0.0162,0.0245 0.2591,0.1685 0.9354,0.218 1.0509,-0.0121 0.2719,0.076 0.6538,0.069 0.9126,-0.0432 0.0006,0.0582 -0.0526,0.0576 -0.0953,0.0766 -0.0394,0.0175 -0.0685,0.1556 -0.3068,0.2193 -0.1542,0.0401 -0.3269,0.0356 -0.4682,-0.0439 -0.0074,0.0373 -0.0172,0.0396 0.1276,0.0822 0.0791,0.0232 0.0706,0.0815 0.1199,0.052 -0.0101,-0.0155 -0.0238,-0.0281 -0.038,-0.0397 0.1027,0.0061 0.2074,-0.0011 0.3052,-0.0348 0.182,0.1445 0.2754,0.3813 0.2132,0.4101 -0.2321,0.1074 -0.4961,0.1416 -0.7497,0.1229 -0.9427,-0.0697 -0.9621,-0.3182 -1.1017,-0.33 -0.078,-0.1961 -0.3443,-0.0368 -0.4817,-0.0079 -0.0931,-0.1335 -0.0022,-0.4423 0.1228,-0.5304 0.1037,-0.0731 0.0575,-0.2412 -0.042,-0.234 -0.0473,0.0034 -0.099,0.0562 -0.13,0.0867 -0.0234,0.023 -0.046,0.0469 -0.0705,0.0685 0.0277,-0.3516 0.254,-0.8549 0.6387,-0.9395 0.1931,-0.0425 0.3985,-0.0066 0.562,0.1089zm-1.3391 3.0075c0.0921,0.0341 0.0763,0.0831 0.1303,0.1093 0.0022,0.0271 0.0214,0.0514 0.049,0.0558 0.0123,-0.0113 0.0269,-0.0197 0.0423,-0.026 0.0423,0.0198 0.0888,0.028 0.1319,0.0456 0.0043,0.0041 0.0592,0.0897 0.1107,0.02 0.0791,-0.0031 0.118,-0.0694 0.2235,-0.0721 -0.0233,0.2059 -0.5152,0.1188 -0.6551,-0.0186 -0.0307,-0.0293 -0.0352,-0.074 -0.0326,-0.1141zm0.3075 -2.2909c0.0233,-0.0154 0.0535,-0.0078 0.0752,0.0068 -0.0229,0.0674 -0.1051,0.1067 -0.1715,0.0789 0.0287,-0.0319 0.0602,-0.0622 0.0963,-0.0857zm-0.3022 -0.0708c0.0433,-0.0297 0.09,-0.059 0.1437,-0.063 -0.008,0.0503 -0.073,0.2328 -0.015,0.2526 -0.0844,0.1033 -0.2077,0.2065 -0.231,0.3447 -0.008,0.0507 -0.013,0.102 -0.0261,0.1518 -0.0166,0.0649 -0.0047,0.1328 -0.0178,0.1982 -0.0095,0.0568 -0.0315,0.1108 -0.0418,0.1674 -0.0106,0.091 0.0557,0.1248 0.0209,0.4176 -0.1793,-0.0876 -0.2433,-0.3363 -0.2434,-0.5151 -0.0002,-0.286 0.1678,-0.7744 0.4104,-0.9541zm0.7086 0.0924c0.1946,-0.0139 0.3336,-0.1766 0.5252,-0.2037 0.2906,-0.0412 0.4926,0.0931 0.5243,0.0749 0.0109,-0.0098 0.0123,-0.0282 0.0267,-0.0342 0.2542,-0.1079 0.6085,-0.1498 0.8704,-0.0338 0.0306,0.0138 0.0653,0.0346 0.07,0.0712 -0.3087,-0.1402 -0.6206,-0.1003 -0.9363,0.0008 -0.0121,0.008 -0.0122,0.0175 -0.0084,0.0266 0.5772,-0.1925 1.0309,-0.0205 1.0008,0.0855 -0.16,-0.1121 -0.4473,-0.1898 -0.6339,-0.1309 -0.1121,0.036 -0.2231,0.0828 -0.3157,0.1569 -0.0185,-0.109 -0.1389,-0.1076 -0.2247,-0.1353 -0.2538,-0.0818 -0.4487,-0.0553 -0.6863,0.0663 -0.0602,0.0426 -0.1215,0.0846 -0.1727,0.1383 -0.0558,-0.0108 -0.1148,-0.0029 -0.1686,-0.0234 -0.023,-0.0077 -0.0176,-0.0445 0.0046,-0.0497 0.0408,-0.0099 0.0834,-0.0027 0.1246,-0.0095zm0.8326 -0.3975c0.2637,-0.0636 0.7843,-0.0838 1.022,0.0916 0.0194,0.0154 0.0425,0.0333 0.0448,0.06 -0.2789,-0.073 -0.5656,-0.0572 -0.832,0.0544 -0.0186,-0.0443 -0.1864,-0.1687 -0.2348,-0.206zm-0.3638 0.9793c0.0022,0.0084 -0.0293,0.0261 -0.0156,0.0244 0.1517,-0.0354 0.2957,-0.1 0.4282,-0.1814 -0.0046,-0.0084 -0.0104,-0.0083 -0.0269,-0.0085 -0.1323,0.0811 -0.2344,0.1296 -0.3857,0.1655zm0.2673 -1.2571c0.3421,-0.2133 0.8168,-0.221 0.8751,0.2433 -0.2527,-0.048 -0.5081,-0.0591 -0.7606,0.0016 -0.0302,-0.0407 -0.0306,-0.1469 -0.1145,-0.2449zm-1.0609 0.7083c0.0062,-0.0074 0.0109,-0.0177 0.0216,-0.0188 0.0263,0.0815 -0.0529,0.1356 -0.11,0.2054 -0.0758,0.0926 -0.09,0.2125 -0.1046,0.3263 -0.0083,0.0648 0.0018,0.1125 0.0347,0.1683 -0.1153,0.0457 -0.2253,0.0693 -0.2542,0.2111 -0.0093,0.0417 -0.0103,0.169 0.0518,0.1529 -0.0445,-0.1498 -0.0469,-0.2516 0.1521,-0.3163 0.1621,-0.0527 0.5335,-0.2446 0.5329,0.0066 -0.1135,0.0061 -0.2301,0.0324 -0.3427,0.0494 -0.1795,0.0271 -0.2507,0.2911 -0.1615,0.2678 -0.0335,-0.2097 0.1369,-0.2366 0.301,-0.2586 0.0847,-0.0113 0.3409,-0.0955 0.3593,0.051 -0.1569,0.0072 -0.3374,-0.0183 -0.4288,0.0465 -0.0369,0.0263 -0.1383,0.1918 -0.052,0.187 -0.0092,-0.097 0.0702,-0.2132 0.1779,-0.201 0.1127,0.0128 0.4151,-0.0644 0.4279,0.0771 0.0128,0.1423 0.0294,0.3114 -0.1103,0.4008 -0.0382,-0.2172 0.0673,-0.1962 0.0198,-0.2555 -0.0642,0.0831 -0.0654,0.1765 -0.0446,0.2755 0.0314,0.1496 0.012,0.4671 -0.0544,0.6176 -0.024,-0.0001 -0.0558,-0.0218 -0.0708,0.0067 -0.0266,-0.0665 -0.0764,-0.0256 -0.1172,-0.0644 -0.0335,-0.0319 -0.0193,-0.0816 -0.0701,-0.1009 -0.0306,-0.0116 -0.0377,-0.0333 -0.0422,-0.0616 -0.012,-0.0046 -0.0249,-0.0063 -0.0375,-0.0089 -0.0024,0.007 -0.0048,0.0141 -0.0074,0.0211 -0.0233,0.0358 -0.0544,0.0233 -0.0893,0.0183 -0.0121,-0.0017 -0.0289,-0.0014 -0.0408,-0.0095 -0.0179,-0.0123 -0.0311,-0.0399 -0.0317,-0.0601 -0.0498,-0.0097 -0.0327,0.0095 -0.0721,0.0363 -0.0134,0.0091 -0.0224,0.0031 -0.0369,0.0142 -0.027,0.0206 -0.0357,0.0572 -0.0576,0.0615 -0.0308,0.001 -0.0616,-0.0032 -0.0924,-0.002 -0.0426,-0.3409 -0.2007,-0.3723 -0.1638,-0.5648 0.0266,-0.1388 -0.0495,-0.2847 -0.0261,-0.3685 0.1138,-0.4066 -0.022,-0.523 0.3393,-0.857 0.0735,0.0258 0.1526,0.0148 0.2006,-0.0533zm0.6174 1.2479c0.0052,-0.0084 0.0083,-0.0262 0.0222,-0.0204 0.3056,0.0986 0.9198,0.1194 1.2415,0.1191 -0.3059,0.3193 -0.9695,0.3178 -1.3758,0.2958l0.0037 -0.2581c0.0448,-0.0375 0.0856,-0.0819 0.1084,-0.1364zm0.394 0.4198c0.1129,-0.006 0.223,-0.0227 0.3348,-0.0393 -0.0042,0.0083 -0.0095,0.0153 -0.0177,0.0186 -0.0057,0.0023 -0.0122,0.0051 -0.0199,0.0063 -0.0112,0.0018 -0.0276,0.0065 -0.0423,0.016 -0.0086,0.0056 -0.014,0.015 -0.0246,0.0207 -0.023,0.0123 -0.0464,-0.0022 -0.0617,0.0276 -0.04,0.0061 -0.069,0.007 -0.0962,0.0386 -0.0414,-0.0163 -0.0504,0.0118 -0.0839,0.0193 -0.031,0.007 -0.0624,-0.006 -0.0824,0.029 -0.0288,-0.0111 -0.0683,-0.0059 -0.0876,0.0208 -0.0368,-0.0139 -0.0675,-0.0148 -0.0925,0.0144 -0.0212,-0.0177 -0.0663,-0.0161 -0.0873,0.0006 -0.0235,-0.0097 -0.0474,-0.0241 -0.0741,-0.019 -0.0304,0.0067 -0.0539,-0.0159 -0.0817,-0.0235 0.002,-0.043 0.0061,-0.0834 0.0081,-0.1264 0.1696,0.0069 0.3395,0.0073 0.509,-0.0037zm0.3851 0.008c-0.021,0.132 -0.2269,0.4427 -0.3638,0.4532 -0.221,0.0169 -0.449,0.018 -0.6694,-0.0043 0.048,-0.0847 0.1065,-0.1531 0.1222,-0.2524 0.002,-0.009 -0.0003,-0.0202 0.0058,-0.0277 -0.0032,0.0384 0.048,0.0179 0.0565,0.0157 0.0385,0.0285 0.0599,0.0283 0.1049,0.017 0.0142,0.0109 0.0349,0.0128 0.053,0.011 0.0119,-0.0012 0.0237,-0.0034 0.0301,-0.0153 0.0336,0.006 0.0709,0.0226 0.0939,-0.0118 0.0428,0.0065 0.0671,0.0134 0.0978,-0.0228 0.045,0.0124 0.0503,0.0082 0.0677,-0.0031 0.0062,-0.004 0.012,-0.0128 0.0243,-0.0167 0.0246,-0.0078 0.0338,0.0049 0.0447,0.0029 0.0087,-0.0016 0.02,-0.0098 0.0381,-0.0284 0.0304,0.0053 0.067,-0.0019 0.082,-0.033 0.0414,0.0024 0.0527,-0.0087 0.0823,-0.0358 0.0383,0.0134 0.054,-0.0184 0.08,-0.0408 0.0195,0.0087 0.0324,-0.0005 0.0497,-0.0077z"/>
  <path class="fil3" d="M1.3266 1.7123c0.0287,0.0248 0.0591,0.0481 0.0936,0.0644 0.1019,0.0499 0.2122,0.0795 0.3224,0.1048 0.1316,0.0296 0.2652,0.0492 0.3992,0.0633 0.1461,0.0188 0.2943,0.0271 0.4413,0.0134 0.1676,-0.0181 0.3329,-0.0613 0.4863,-0.1316 0.0106,-0.0044 0.022,-0.0064 0.0332,-0.0089 0.024,0.0332 0.0287,0.0796 0.0088,0.1159 -0.0212,0.0298 -0.0535,0.049 -0.0832,0.0692 -0.0476,0.0331 -0.1082,0.0286 -0.1624,0.0419 -0.1658,0.0191 -0.3325,0.0322 -0.4995,0.0294 -0.292,-0.0001 -0.5866,-0.0311 -0.8659,-0.1193 -0.0084,-0.0047 -0.0223,-0.0062 -0.0223,-0.0184 -0.0072,-0.0421 -0.0051,-0.0889 -0.031,-0.1252 -0.0228,-0.0314 -0.0639,-0.0369 -0.0996,-0.0401 -0.0061,-0.0199 -0.0128,-0.0396 -0.0208,-0.0588zm0.1561 0.2673c0.3069,0.0991 0.6322,0.1264 0.9533,0.1234 0.1557,-0.0034 0.3119,-0.0109 0.4657,-0.037 0.0216,-0.0023 0.0429,-0.0073 0.0647,-0.0078 0.0175,0.0168 0.025,0.0436 0.0256,0.0676 0.0008,0.0411 -0.0333,0.0728 -0.0682,0.0885 -0.0666,0.0325 -0.1426,0.0331 -0.2149,0.0296 -0.0804,-0.001 -0.1608,-0.002 -0.2411,-0.0023 -0.0566,-0.001 -0.1131,-0.0029 -0.1697,-0.0069 -0.1995,-0.0076 -0.3976,-0.0334 -0.5948,-0.064 -0.076,-0.0157 -0.1524,-0.0294 -0.228,-0.0467 0.0078,-0.0478 0.0111,-0.0961 0.0074,-0.1445z"/>
  <path class="fil4" d="M2.1856 2.5535c0.021,-0.005 0.0508,-0.0186 0.0707,-0.0103 0.0174,-0.0144 0.0405,-0.0167 0.0616,-0.0215 -0.0121,0.0338 -0.0351,0.0502 -0.0692,0.053 0.0044,0.0154 -0.0365,0.0451 -0.0653,0.0323 -0.0259,0.0223 -0.0428,0.0515 -0.0809,0.0382 -0.0328,0.03 -0.0369,0.0404 -0.0827,0.0377 -0.015,0.0311 -0.0516,0.0353 -0.082,0.0301 -0.0542,0.0558 -0.0382,0.0171 -0.0832,0.028 -0.0416,0.0101 -0.0089,0.0406 -0.0916,0.0192 -0.0306,0.0361 -0.0559,0.0297 -0.0978,0.0234 -0.023,0.0345 -0.0608,0.0181 -0.0945,0.0121 0.0009,0.0198 -0.0571,0.0217 -0.0812,0.0035 -0.0451,0.0114 -0.0668,0.0127 -0.105,-0.0155 -0.0686,0.0174 -0.0562,-0.0023 -0.0538,-0.0577 0.0278,0.0076 0.0523,0.0298 0.0827,0.0232 0.0268,-0.005 0.05,0.0107 0.0735,0.0205 0.019,-0.0212 0.09,-0.0112 0.0861,0.0004 0.0224,-0.0263 0.0442,-0.0351 0.0949,-0.0159 0.0192,-0.0267 0.0585,-0.0306 0.0874,-0.0195 0.0235,-0.0411 0.0731,-0.0122 0.1042,-0.0383 0.0188,-0.0158 0.0405,-0.0181 0.0628,-0.0094 0.0272,-0.0315 0.0558,-0.0341 0.0958,-0.0401 0.0168,-0.0326 0.0478,-0.0161 0.0703,-0.0345 0.0377,-0.0423 0.0747,-0.0135 0.0973,-0.0586zm-1.6833 0.2226c0.0274,-0.002 0.0543,0.0077 0.0816,0.0055 0.0261,-0.0177 0.0326,-0.053 0.0581,-0.0721 0.0306,-0.0015 0.0477,-0.0218 0.0669,-0.0414 0.0106,-0.0108 0.0328,-0.0049 0.0331,0.0004 0.0009,0.0159 0.0051,0.0295 0.0213,0.0575 0.0503,0.0064 0.0876,0.0132 0.1247,0.0208 0.0098,0.002 0.021,-0.0364 0.0303,-0.0517 0.0029,-0.0047 0.0334,0.0036 0.0318,0.0091 -0.0012,0.004 0.0006,0.0557 0.0116,0.0579 0.0258,0.0053 0.0348,0.003 0.0465,0.0124 0.0187,0.015 0.0306,0.0469 0.0459,0.0911 0.0093,0.0063 0.0235,0.0139 0.0405,0.018 0.0382,0.0093 0.0686,-0.0009 0.0688,0.038 0.0004,0.0691 -0.0125,0.2016 -0.0125,0.2718 -0.0001,0.1461 -0.0885,0.0391 -0.1771,0.1426 -0.0399,0.0466 -0.0964,0.0028 -0.1809,-0.0195 -0.0625,-0.0165 -0.1546,-0.0612 -0.2135,-0.0661 -0.0591,-0.0847 -0.0485,-0.0795 -0.1307,-0.1243 -0.0015,-0.0363 0.0222,-0.3467 0.0537,-0.3503zm0.7493 0.1569l0.0054 -0.0009c0.0005,0.0029 0.0015,0.0088 0.0019,0.0118l-0.0053 0.0007c-0.0312,0.0708 -0.0776,0.1004 -0.0897,0.1844 -0.0091,-0.0412 0.0113,-0.1423 0.0119,-0.1963 0.0263,-0.0009 0.0485,-0.0204 0.0758,0.0004zm-0.1907 -0.0134c-0.0579,-0.1113 -0.0237,-0.1222 -0.1337,-0.146 -0.0853,-0.0157 -0.1709,-0.0299 -0.2569,-0.0405 -0.0552,0.0148 -0.0698,0.0684 -0.0772,0.1166 -0.0138,0.0902 -0.0115,0.193 -0.0464,0.2829 -0.0151,0.0382 0.0147,0.0698 0.0342,0.0994 0.0188,0.0149 0.291,0.105 0.3296,0.105 0.0143,0 0.095,-0.0442 0.0984,-0.0619 0.0176,-0.0919 0.0398,-0.2622 0.052,-0.3556zm-0.1502 -0.0538c-0.0155,0.1103 -0.0601,0.3141 -0.0668,0.3828 0.0038,-0.0009 0.0116,-0.0028 0.0155,-0.0037 0.0224,-0.077 0.072,-0.2992 0.0709,-0.3822 -0.0165,-0.0082 -0.0126,-0.0116 -0.0197,0.0031zm0.0371 0.3498c-0.0109,0.1009 -0.1377,0.038 -0.1994,0.0158 -0.0489,-0.0173 -0.1012,-0.0303 -0.1421,-0.0638 0.0044,-0.0431 0.0111,-0.0727 0.0193,-0.113 0.0054,0.0263 -0.0055,0.0525 -0.0044,0.0791 0.0053,-0.0002 0.0158,-0.0005 0.0211,-0.0006 0.0004,-0.0294 -0.0056,-0.0746 0.0214,-0.0928 -0.0018,0.0705 -0.0233,0.095 -0.0004,0.115 0.0202,0.0177 0.1363,0.0558 0.1595,0.0502 -0.0059,-0.0046 -0.0118,-0.0091 -0.0179,-0.0135 0.0064,-0.0022 0.0129,-0.0043 0.0193,-0.0064 0.0008,0.0024 0.0026,0.0073 0.0034,0.0097 0.0122,-0.0159 0.0277,-0.0573 0.0116,-0.0731 0.0032,0.0005 0.0095,0.0015 0.0126,0.002 0.0108,-0.0723 0.0542,-0.1695 0.0416,-0.241 -0.046,-0.0276 -0.1021,-0.0293 -0.1533,-0.0415 -0.0389,-0.015 -0.0447,0.0642 -0.0505,0.0815 -0.0031,0.0004 -0.0093,0.0011 -0.0125,0.0015 0.0009,-0.0237 0.0029,-0.0473 0.0062,-0.0707 -0.0064,-0.0012 -0.0129,-0.0023 -0.0193,-0.0034 0.013,-0.1012 0.0419,-0.0451 0.2876,-0.0033 0.0383,0.0059 0.0396,0.0243 0.0396,0.0576 -0,0.0873 -0.0369,0.2551 -0.0434,0.3107zm0.053 -0.3332c-0.0062,-0.0543 -0.0869,-0.0501 -0.1877,-0.0735 -0.0425,-0.0109 -0.086,-0.0156 -0.1288,-0.0244 -0.0092,0.0068 -0.018,0.0143 -0.0263,0.0223 -0.0055,0.0116 -0.0414,0.2816 -0.06,0.3405 -0.0199,0.0628 0.2286,0.1192 0.2687,0.1292 0.0762,0.0177 0.0803,-0.0203 0.0948,-0.0841 0.0106,-0.0393 0.0493,-0.2719 0.0393,-0.3101zm-0.0461 0.001c-0.0022,0.0137 -0.0033,0.0275 -0.0029,0.0413 -0.0217,0.0121 -0.0275,0.0346 0.002,0.0439 -0.0114,0.0074 -0.0226,0.0152 -0.0323,0.0248 0.0167,0.0059 0.0295,-0.0081 0.0432,-0.0149 -0.0018,-0.0029 -0.0054,-0.0089 -0.0071,-0.0118 0.0114,-0.014 0.0203,-0.0249 -0.0021,-0.0386 0.0085,-0.0123 0.0231,-0.0426 -0.0008,-0.0448zm-0.0318 0.1171c0.0001,0.0032 0.0001,0.0094 0.0002,0.0125 0.0092,0.0016 0.0184,0.0034 0.0276,0.0053 0.0019,-0.002 0.0057,-0.0061 0.0076,-0.0082 -0.0118,-0.0032 -0.0236,-0.0065 -0.0354,-0.0097zm-0.2446 -0.2431c0.0649,0.0167 0.26,0.0426 0.3042,0.0625 0.047,0.1555 0.067,-0.0009 0.0183,0.2999 -0.0132,0.0814 0.0071,0.135 -0.0455,0.1669 -0.0222,0.0116 -0.0456,0.0322 -0.0721,0.0195 -0.0932,-0.0354 -0.1889,-0.0626 -0.2837,-0.0934 -0.0107,-0.0158 -0.0176,-0.034 -0.0271,-0.0505 0.0309,-0.1144 0.0396,-0.2331 0.0602,-0.3495 0.0014,-0.0265 0.0286,-0.0391 0.0457,-0.0554z"/>
 </g>
</svg>
