<?xml version="1.0" encoding="UTF-8"?>
<!DOCTYPE svg PUBLIC "-//W3C//DTD SVG 1.1//EN" "http://www.w3.org/Graphics/SVG/1.1/DTD/svg11.dtd">
<!-- Creator: CorelDRAW 2020 (64-Bit) -->
<svg xmlns="http://www.w3.org/2000/svg" xml:space="preserve" width="88.9613mm" height="81.4261mm" version="1.1" style="shape-rendering:geometricPrecision; text-rendering:geometricPrecision; image-rendering:optimizeQuality; fill-rule:evenodd; clip-rule:evenodd"
viewBox="0 0 4.3487 3.9803"
 xmlns:xlink="http://www.w3.org/1999/xlink"
 xmlns:xodm="http://www.corel.com/coreldraw/odm/2003">
 <defs>
  <style type="text/css">
   <![CDATA[
    .fil0 {fill:#2B2A29}
    .fil4 {fill:#0348FE;fill-rule:nonzero}
    .fil1 {fill:#588C41;fill-rule:nonzero}
    .fil3 {fill:#9E5A34;fill-rule:nonzero}
    .fil2 {fill:#FBFBFA;fill-rule:nonzero}
   ]]>
  </style>
 </defs>
 <g id="Слой_x0020_1">
  <metadata id="CorelCorpID_0Corel-Layer"/>
  <path class="fil0" d="M1.6662 0.0163c0.1577,-0.0354 0.322,-0.0093 0.4735,0.0407 0.1268,0.0414 0.2444,0.1086 0.3493,0.1905 0.176,-0.101 0.3686,-0.1844 0.5733,-0.1979 0.1508,-0.0092 0.3109,0.033 0.4207,0.1409 0.1149,0.1084 0.1561,0.2673 0.1996,0.4137 0.0224,-0.0043 0.0908,0.0264 0.1142,0.0363 0.0732,0.0302 0.1503,0.0626 0.2023,0.1248 0.0199,0.0224 0.0328,0.0498 0.0509,0.0735 0.0345,0.0244 0.0758,0.0381 0.1081,0.0659 0.028,0.0251 0.0375,0.0639 0.0384,0.1002 0.0528,0.011 0.1009,0.046 0.1257,0.0946 0.0351,0.0649 0.0344,0.1466 0.0031,0.2128 -0.0238,0.0434 -0.0491,0.0596 -0.097,0.0708 -0.0082,0.0234 0.0238,0.0612 -0.0148,0.0989 -0.0392,0.0404 -0.0843,0.0571 -0.1329,0.0699 -0.0801,0.1138 -0.193,0.2075 -0.3252,0.2537l0.0004 0.0052c0.0873,0.0542 0.161,0.1311 0.2124,0.2201 0.0562,0.1012 0.0753,0.2178 0.0907,0.3311 0.0742,0.0008 0.0988,0.0954 0.0776,0.1541 -0.0361,0.0821 -0.1165,0.1333 -0.1965,0.1667 0.0272,0.0312 0.055,0.0749 0.0378,0.1172 -0.0585,0.139 -0.2036,0.1564 -0.3357,0.1674 -0.1529,0.193 -0.4562,0.3073 -0.691,0.3594l-0.0072 0.0122 0.0076 -0.0039c0.122,0.0378 0.2371,0.1062 0.3156,0.2086 0.0582,0.0787 0.0727,0.1774 -0.0205,0.2261 -0.1645,0.084 -0.3469,0.1226 -0.528,0.1516 -0.6354,0.1008 -1.3293,0.0651 -1.963,-0.0527 -0.188,-0.035 -0.5354,-0.1034 -0.6857,-0.2304 -0.0991,-0.0837 -0.0804,-0.1774 -0.0208,-0.2734 0.0725,-0.1168 0.194,-0.2562 0.3447,-0.2529 -0.0263,-0.0305 -0.0331,-0.0718 -0.0402,-0.1101 -0.1311,-0.0942 -0.2123,-0.244 -0.2473,-0.3992 -0.0663,-0.2545 -0.0209,-0.5232 0.0626,-0.768 0.0938,-0.268 0.2367,-0.5176 0.409,-0.7426 0.064,-0.0867 0.1533,-0.1492 0.2377,-0.214 0.0918,-0.2024 0.2054,-0.3979 0.3572,-0.5618 0.1325,-0.142 0.2998,-0.2618 0.4935,-0.3z"/>
  <path class="fil1" d="M1.9479 0.0466c0.3198,0.0462 0.6444,0.2384 0.6647,0.5869 -0.3784,-0.249 -0.7126,-0.2937 -1.0811,-0.0948 -0.0475,0.0257 -0.1305,0.0522 -0.1073,0.1001 0.401,-0.2169 0.7154,-0.2641 1.1175,-0.0114 0.0609,0.0382 0.1219,0.0784 0.171,0.1315 -0.2779,-0.0197 -0.7119,-0.007 -0.9479,0.1675 -0.0389,0.0288 -0.2768,0.125 -0.28,0.1352 0.1134,0.0564 0.5532,-0.3485 1.1514,-0.2756 0.1074,0.0131 0.207,0.0469 0.2746,0.1404 -0.0069,0.0138 -0.0136,0.0277 -0.0205,0.0416 -0.6912,-0.3237 -1.068,0.113 -1.3267,0.1714 -0.0694,0.0159 -0.1418,0.0085 -0.211,0.0249 -0.0976,0.0219 -0.0127,0.1713 0.041,0.1155 -0.155,-0.1397 0.1693,-0.0924 0.2656,-0.1349 0.3135,-0.1386 0.5031,-0.3582 1.0277,-0.2139 0.0751,0.0188 0.147,0.0475 0.2193,0.0746 0.1419,-0.2317 1.2323,-0.261 1.2565,-0.0073 -0.4439,-0.168 -0.7284,-0.126 -1.1688,-0.0059 -0.0206,0.0049 -0.0371,0.018 -0.0476,0.0363 0.135,0.02 0.4684,-0.2292 1.0746,-0.0415 0.0877,0.0271 0.2271,0.0424 0.2726,0.1338 0.0694,0.1394 0.0003,0.2387 -0.1438,0.2154 -0.3591,-0.0581 -0.6985,-0.0456 -1.06,-0.0218 -0.1126,0.0074 -0.0773,-0.0554 -0.1305,-0.1249 -0.0021,0.0551 -0.0023,0.1121 -0.0294,0.162 -0.2011,0.0055 -0.8292,0.029 -0.9763,0.0707 -0.0841,0.0269 -0.1632,-0.022 -0.237,-0.0556 0.1156,0.1941 0.8469,0.3006 1.218,0.0478 0.0483,0.0936 -0.0758,0.175 -0.1603,0.1738 -0.1169,-0.0017 -0.1144,0.0841 -0.6226,0.0337 -0.2958,-0.0293 -0.449,-0.1625 -0.5428,-0.1751 0.0595,0.1911 0.8325,0.2612 1.0391,0.2102 0.1235,-0.0305 0.2991,-0.0329 0.3444,-0.1844 0.9226,0.0948 1.1404,-0.0699 1.2081,-0.0653 -0.0221,0.0908 -0.0766,0.0634 -0.1406,0.1103 -0.1021,0.0749 -0.1004,0.2591 -0.6095,0.3103 -0.1617,0.0163 -0.395,-0.0895 -0.4128,-0.0456 0.0742,0.0573 0.1751,0.0556 0.2531,0.1057 0.0295,0.018 0.0544,0.0468 0.0909,0.0498 -0.0081,-0.032 -0.0376,-0.0485 -0.0621,-0.0667 0.133,0.0038 0.2648,-0.0184 0.3934,-0.0506 0.2,0.1367 0.2816,0.313 0.311,0.5464 -0.2511,0.0788 -0.3335,0.1295 -0.6167,0.1482 -1.1092,0.0732 -1.9109,-0.4554 -2.1028,0.0241 -0.1453,0.363 0.3893,0.2285 0.6664,0.2764 0.5521,0.0955 0.9121,0.154 1.4975,0.1527 0.0414,-0.0004 0.0828,-0.0014 0.1239,0.0046 -0.5291,0.5623 -2.1839,0.4059 -2.8232,0.2011 -0.6787,-0.2174 -0.7866,-0.7467 -0.5491,-1.3773 0.1204,-0.3196 0.3037,-0.6607 0.586,-0.8666 -0.0155,0.1132 -0.0622,0.256 -0.0075,0.3633 0.0441,-0.0559 -0.0754,-0.357 0.32,-0.8593 0.2005,-0.2547 0.4931,-0.4462 0.8294,-0.3874zm1.0699 1.4611c0.1309,0.1003 0.8058,0.1351 0.8995,0.0129 -0.1662,0.0149 -0.1029,0.0406 -0.404,0.0415 -0.1209,0.0003 -0.4476,-0.0646 -0.4955,-0.0543zm-2.6238 1.5433c0.0011,-0.003 0.0032,-0.009 0.0042,-0.012 0.4217,0.2885 0.9924,0.3119 1.4837,0.3468 0.3386,0.0233 0.6813,0.018 1.0154,-0.0466l0.0072 0.0034c-0.3066,0.3285 -2.2937,0.1715 -2.5106,-0.2917zm2.4782 -1.9853c-0.0181,0.0634 0.0164,0.1279 -0.0058,0.1952 -0.3282,0.0051 -0.2717,0.0364 -0.4253,0.0407 0.0181,0.0439 0.3579,-0.013 0.4242,-0.0101 0.0831,0.0037 0.0423,-0.1926 0.0069,-0.2259zm0.144 0.1492c-0.0197,0.1066 0.3482,0.0437 0.4434,0.0372 -0.0092,-0.0961 -0.3417,0.0626 -0.3995,-0.0245 -0.0225,-0.0339 0.0115,-0.0384 -0.025,-0.0618 -0.022,0.0052 -0.0156,0.0322 -0.0188,0.049zm-0.029 0.3391c0.0255,0.1119 0.6963,0.1206 0.6841,0.0745l-0.4954 -0.0302c-0.0643,-0.0087 -0.1255,-0.0311 -0.1887,-0.0443zm-0.4378 0.1485c-0.027,-0.0242 -0.5296,0.0006 -0.7797,-0.097 -0.0771,0.1045 0.6999,0.1534 0.7797,0.097zm0.1903 -0.0455c-0.0198,0.022 0.0028,0.0589 -0.0192,0.0808 -0.0661,0.0587 -0.1473,0.0962 -0.2207,0.1437 -0.035,0.0493 0.2815,-0.0973 0.2724,-0.1624 -0.0031,-0.0227 -0.0004,-0.063 -0.0324,-0.0621zm-0.0791 0.0385c-0.2019,0.1069 -0.3446,0.143 -0.5345,0.2232 -0.0336,0.0827 0.5247,-0.1529 0.569,-0.2079 0.0091,-0.0254 -0.0196,-0.0245 -0.0345,-0.0152zm-0.7617 0.0498c0.1733,0.0582 0.3818,0.0389 0.5598,0.0102 0.0006,-0.0159 -0.3883,-0.002 -0.4418,-0.0079 -0.0371,-0.0035 -0.1165,-0.0372 -0.118,-0.0023zm1.0282 -0.0068c0.0998,0.1431 0.2495,0.1114 0.291,0.2052 0.106,-0.0131 -0.1859,-0.1452 -0.1983,-0.1542 -0.0305,-0.0223 -0.052,-0.063 -0.0927,-0.051zm-1.4981 1.2592c0.0383,-0.0433 -0.1916,0.0037 -0.2863,-0.2501 -0.0691,0.0604 0.0764,0.237 0.2863,0.2501zm1.0879 -2.7257c0.2792,-0.1544 0.7292,-0.3235 0.9762,-0.0193 0.0689,0.0848 0.1458,0.2382 0.1477,0.3495 -0.3113,-0.0741 -0.6804,-0.0629 -0.9874,0.0042 -0.0347,-0.1235 -0.0586,-0.2302 -0.1366,-0.3345zm0.239 0.3476c0.2946,-0.0555 0.9073,-0.0826 1.1777,0.1377 0.0155,0.0126 0.0753,0.0616 0.066,0.0811 -0.3512,-0.0719 -0.7272,-0.0754 -1.0617,0.0727 -0.0475,-0.0678 -0.2249,-0.1939 -0.3008,-0.2611 0.0388,-0.0131 0.0784,-0.0233 0.1187,-0.0305z"/>
  <path class="fil2" d="M3.6367 1.3109c0.1156,-0.0022 0.2309,0.0096 0.3456,0.0236 0.0741,0.0083 0.1466,0.0278 0.2212,0.033 -0.1073,0.0546 -0.2277,0.0737 -0.3453,0.0925 -0.132,0.0174 -0.2649,0.0324 -0.3983,0.0288 -0.151,-0.003 -0.302,-0.0166 -0.4511,-0.0407 -0.0304,-0.0025 -0.0453,-0.0296 -0.0581,-0.0534 0.0123,-0.0212 0.0219,-0.0435 0.0306,-0.0663 0.0351,0.0222 0.0768,0.0143 0.1157,0.0111 0.0648,0.0748 0.1663,0.1074 0.2632,0.1052 0.1199,0.0022 0.2058,-0.0384 0.2766,-0.1337zm-0.702 0.0687c-0.1694,0.1507 -0.5856,0.1791 -0.8041,0.1512 -0.0788,-0.0098 -0.1525,-0.0412 -0.2239,-0.0741 0.0335,-0.0055 0.0663,-0.0148 0.0999,-0.0203 0.123,0.0805 0.3028,0.0737 0.4127,-0.0269 0.1884,-0.0138 0.3154,-0.0329 0.5154,-0.0299z"/>
  <path class="fil3" d="M1.5785 2.3645c0.4382,-0.0356 1.0026,0.2798 2.0147,0.1626 0.2557,-0.0296 0.4285,-0.157 0.4868,-0.1306 0.0765,0.0346 0.0372,0.25 -0.2703,0.2819 -1.2488,0.1296 -1.7266,-0.1355 -2.1711,-0.1165 -0.0375,0.0026 -0.0839,-0.0056 -0.0775,0.0375 0.0347,0.0054 0.0699,-0.0018 0.1047,-0.002 0.4541,-0.0105 0.9056,0.2541 2.177,0.1072 0.1954,-0.0226 0.0929,0.1731 -0.0403,0.2089 -0.3092,0.0832 -1.4001,-0.028 -1.692,-0.0987 -0.3937,-0.0954 -0.7139,-0.0063 -0.7689,-0.0955 -0.081,-0.1314 0.0388,-0.3233 0.2369,-0.3548z"/>
  <path class="fil4" d="M0.7469 3.3393c0.5167,0.2166 1.8301,0.296 2.1453,0.0543 0.0901,-0.0692 0.2278,0.0472 0.297,0.1103 0.2891,0.2639 -0.1885,0.3357 -0.3788,0.3706 -0.6757,0.124 -1.5918,0.087 -2.2511,-0.076 -0.4196,-0.1037 -0.7206,-0.2028 -0.3724,-0.5576 0.0501,-0.051 0.1795,-0.1366 0.2501,-0.0819 0.0867,0.0851 0.2011,0.1311 0.31,0.1804z"/>
 </g>
</svg>
