<svg xmlns="http://www.w3.org/2000/svg" width="932" height="932" viewBox="0 0 932 932"><g fill="none" fill-rule="evenodd"><path stroke="#FFF" stroke-width="5" d="M90.7680679 446.499068C90.9681218 437.780374 93.3954459 432.737599 101.824397 432.737599 108.581784 432.737599 111.355869 436.687765 111.355869 442.778912 111.355869 450.449234 109.67986 451.913403 100.526267 454.328632 92.0973167 456.566913 80.8676065 458.420362 73.3589051 462.543042 65.8813234 466.639191 61 476.490298 61 488.283315 61 510.03359 70.931581 519 87.9673085 519 98.0989433 519 107.630415 513.78471 111.760424 504.831573L112.164977 504.831573C112.280558 508.755207 112.685119 512.864629 113.809868 516.381292L143 516.381292C139.4746 511.931275 139.4746 502.204026 139.4746 494.5912L139.4746 442.778912C139.4746 421.559452 128.418271 413 103.500407 413 90.9681218 413 82.3391172 414.663228 75.2616431 419.480413 68.1308216 424.332969 64.0319329 432.737599 63.8274332 446.499068L90.7680679 446.499068ZM90.2212525 485.284194C90.2212525 479.666366 91.7194369 476.490298 94.8980762 474.12374 97.6988342 471.881026 101.824397 471.681966 111.355869 466.639191 111.355869 470.730921 111.213608 475.990447 111.213608 484.350841 111.213608 494.378882 105.376471 498.138841 99.0280844 498.138841 93.3954459 498.138841 90.2212525 493.299545 90.2212525 485.284194M204.033159 516.393853 233 516.393853 233 384 202.918203 384 202.918203 427.032186 202.543613 427.032186C197.568173 416.255426 188.436986 413.508408 180.107862 413.508408 155.406944 413.508408 151 435.924761 151 467.088434 151 504.529737 161.730908 519 181.967593 519 195.303004 519 201.459505 511.03189 203.662977 504.142339L204.033159 504.142339 204.033159 516.393853ZM203.491106 466.890329C203.491106 486.343966 201.600527 497.107518 192.729349 497.107518 181.39469 497.107518 180.993658 481.743592 180.993658 465.60487 180.993658 447.40589 181.566562 435.365676 192.52663 435.365676 202.746332 435.365676 203.491106 449.07435 203.491106 466.890329M326 516.391397 296.927612 516.391397 296.927612 504.516104 296.551259 504.516104C292.26965 513.430292 283.498341 519 272.340493 519 255.143236 519 246 510.469173 246 491.138226L246 416 276.219174 416 276.219174 484.484541C276.219174 491.711059 279.411558 495.945628 284.990477 495.945628 290.746516 495.945628 295.807401 491.525989 295.807401 481.708492L295.807401 416 326 416 326 516.391397Z"/><polygon stroke="#FFF" stroke-width="5" points="340 383 370 383 370 516 340 516"/><path stroke="#FFF" stroke-width="5" d="M391.352629 436.660976 379 436.660976 379 415.727974 391.352629 415.727974 391.352629 386 421.200043 386 421.200043 415.727974 435 415.727974 435 436.660976 421.200043 436.660976 421.200043 487.725948C421.200043 494.793891 423.758022 497.040356 430.767314 497.040356 432.044113 497.040356 433.723188 496.867211 435 496.694066L435 516.876754C429.293746 517.627068 423.556884 518 417.872487 518 397.260021 518 391.352629 514.270677 391.352629 490.696086L391.352629 436.660976ZM498.475251 484.350841C498.702472 488.831822 499.043295 492.737765 500.515841 495.723613 502.193751 498.528107 504.920368 500.381542 509.744382 500.381542 516.72259 500.381542 520.410517 495.856323 520.410517 490.123491 520.410517 485.456709 518.199501 481.002258 509.001547 477.83061 484.510091 469.465797 472.738456 464.613242 472.738456 443.367237 472.738456 423.240373 486.725458 413 510.675106 413 538.627268 413 546.750309 426.76147 546.750309 441.301471L546.750309 444.689857 520.218249 444.689857 520.218249 442.778912C520.218249 434.060218 516.72259 431.658262 510.452251 431.658262 502.534589 431.658262 500.323573 435.524387 500.323573 440.925464 500.323573 458.809627 548 446.928137 548 486.045034 548 506.32672 534.546089 519 509.941015 519 483.234178 519 472 508.945414 472 488.831822L472 484.350841 498.475251 484.350841Z"/><polygon stroke="#FFF" stroke-width="5" points="551 416 581.228 416 590.989 490.485 591.335 490.485 602.71 416 635.212 416 645.864 490.485 646.21 490.485 656.898 416 686 416 664.177 517 630.003 517 619.005 442.488 618.633 442.488 606.828 517 572.136 517"/><path stroke="#FFF" stroke-width="5" d="M695 382 725 382 725 405.022918 695 405.022918 695 382ZM695 415.61126 725 415.61126 725 516 695 516 695 415.61126ZM738 415.591422 766.897473 415.591422 766.897473 427.455524 767.297972 427.455524C771.531807 418.522184 780.276759 413 791.367472 413 800.081602 413 811.603623 414.657094 816.031111 428.385435 823.125656 416.719659 829.753677 413 840.901609 413 857.938178 413 867 421.527883 867 440.822468L867 516 836.958234 516 836.958234 447.503753C836.958234 440.275984 833.842282 436.001034 828.266103 436.001034 822.522709 436.001034 817.492274 440.478712 817.492274 450.311113L817.492274 516 787.476918 516 787.476918 447.503753C787.476918 440.275984 784.338953 436.001034 778.758377 436.001034 773.04138 436.001034 768.015342 440.478712 768.015342 450.311113L768.015342 516 738 516 738 415.591422Z"/><polygon stroke="#FFF" stroke-width="5" points="11 383 59 383 59 403.837 39.434 403.837 39.434 529.189 59 529.189 59 550 11 550"/><polygon stroke="#FFF" stroke-width="5" points="875 529.189 893.746 529.189 893.746 403.837 875 403.837 875 383 921 383 921 550 875 550"/></g></svg>