<svg xmlns="http://www.w3.org/2000/svg" width="932" height="932" viewBox="0 0 932 932"><g fill="none" fill-rule="evenodd"><polygon stroke="#FFF" stroke-width="5" points="194 194 738 194 738 738 194 738"/><path stroke="#FFF" stroke-width="5" d="M271.610418 304C292.879197 304.840461 314.313923 304.331761 335.606105 304.332474L446.237657 304.324626 581.605839 304.323913 626.039015 304.32534C634.356185 304.326053 642.701722 304.470173 651.016055 304.264695 654.295267 304.27183 657.563132 304.29038 660.839507 304.448056 661.163599 311.877359 660.896241 319.442935 660.898368 326.885081L660.775681 367.870752C656.090891 368.104768 651.326673 367.949233 646.633372 367.95066L620.487616 367.940671 542.504928 367.937104 271.163639 367.997035C271 362.379217 270.890608 305.074477 271.177823 304.46946 271.269306 304.277538 271.466456 304.156962 271.610418 304ZM271 435.157247 271.201313 434.418325C271.383488 434.321452 271.544397 434.166597 271.747128 434.126292 273.414343 433.794661 276.395057 434.21963 278.241611 434.23165L295.657344 434.206902 369.30614 434.205487 660.498134 434.103665C660.782383 439.918875 660.639904 445.760955 660.659043 451.582529L660.692359 483.515273 660.690941 575.961134 660.699448 607.323247C660.703701 613.451704 660.418034 619.735015 661 625.835895L405.334853 625.889635 314.700596 625.891049 285.987922 625.891756C281.007543 625.900241 275.979671 626.131464 271.007088 625.891049 271.542979 582.692042 271.084353 539.427982 271.081518 496.223318L271.079391 454.436394 271.084353 441.607435C271.084353 439.489664 271.247389 437.256634 271 435.157247Z"/><path stroke="#FFF" stroke-width="5" d="M340.015756,501 C344.932581,501.241269 349.882791,501.101291 354.804588,501.088629 L377.647013,501.082299 L451.037838,501.082299 L555.067545,501.086519 L581.117768,501.139275 C584.993266,501.183589 588.8368,501.538107 592.71656,501.457919 C593.167612,507.915204 592.960199,514.58914 592.899112,521.065417 C592.818609,529.077235 592.781909,537.088818 592.789012,545.100166 C592.778358,548.636902 592.085797,554.405551 592.869989,557.620829 C589.758793,558.407943 579.949294,557.72634 576.071665,557.720713 L531.717953,557.75307 L339,557.851547 C340.436264,549.537264 338.666861,503.040587 339.352318,501.787114 C339.516402,501.486055 339.794136,501.262371 340.015756,501 Z"/></g></svg>