<svg xmlns="http://www.w3.org/2000/svg" width="932" height="932" viewBox="0 0 932 932"><g fill="none" stroke="#FFF" stroke-width="5" transform="translate(334 207)"><polygon points="264 202.95 225.048 252.084 183.839 269.486 120.85 273 53.161 263.612 25.213 241.875 6 211.906 6 138.607 8.106 9.841 72.321 71.596 132.002 55.651 183.839 55.651 257.42 0 258.485 120.64"/><polyline points="257 127 220.584 67.239 179 58"/><polyline points="73 71 39.768 93.279 6 148"/><polygon points="97.315 210.388 61.265 232.572 31.883 205.157 26 155.938 57.541 127.501 94.071 146.001 89.622 121.472 123.574 90 162.747 111.063 160.945 145.497 201.843 118.729 239 169.501 225.295 205.157 201.843 226.715 171.039 210.388 172.391 226.715 142.919 247 106.148 242.852"/><polyline points="164 149 155.159 173.271 100.67 179 89 149"/><line x1="174" x2="158" y1="208" y2="175"/><line x1="101" x2="96" y1="176" y2="209"/><polyline points="93.183 275 86.585 308.202 84.928 311.583 0 484.936 63.928 517 107.645 509.539 126 488.19 112.165 474.575 103.307 462.83 100.414 445.232 77.658 409.337 76.648 407.744 87.037 319.28"/><polyline points="94 289 97.274 372.501 110.917 413.352 109.456 426.669 115.374 447.159 118 464.083 108.553 465"/><polyline points="104 444.33 110.549 427 144 444.33 130.372 455"/><polyline points="115 438 136 465.556 121.359 478"/><polyline points="151.595 275 151.595 286.368 163.123 289.075 204.384 282.037 186.452 330.668 162.669 301.706 159.387 304.747 175.196 342.848 165.937 349.886 177.556 362.697 203.056 342.848 209.488 368.492 228 360.339 242.059 411.789 254.713 416.471 258 442.816 242.059 482.145 211.324 512.163 170.839 517 135.035 503.056 124 486.804"/><polyline points="149 287.788 143.34 285.614 130.958 276 117.853 276 112 317.493 145.356 300.47 146.639 306.993 146.639 341.779 112 411"/><polyline points="148 289 148 294.877 132 291.938 148 298.438 144.026 302"/><polyline points="164.179 289 163.178 294.023 179 299 163 297.448 163 299"/><polyline points="158.802 306 153.847 307.826 167 350 147 342.697 147.901 307.826 151.324 307.826"/><polyline points="156 470.148 163.143 464 205.643 487.099 211 499"/><polygon points="198.667 417.326 197.768 406.222 168.881 401 156 437.178 175.295 447.765 178.949 454.016 184.248 465 202.114 454.016 208 447.089 206.173 442.236 206.173 427.783"/><polyline points="197.392 418 178.641 418 175 447.41 194.728 451.391 202.937 445.652 217.052 439.298 242.047 426.939 248 441.586 247.667 455.526 233.664 470.449 233.664 478 217.052 477.64 209.386 467.311 216.142 453.188 216.142 442.581"/><polyline points="241 410 214.672 391.765 197 374"/><line x1="225" x2="217" y1="362" y2="392"/><line x1="247" x2="215" y1="441" y2="443"/><line x1="230" x2="214" y1="472" y2="451"/><polyline points="144 307 120.837 327 111 317"/><polyline points="209 366.017 190.94 374 177 362"/></g></svg>