<svg xmlns="http://www.w3.org/2000/svg" width="932" height="932" viewBox="0 0 932 932"><g fill="none" fill-rule="evenodd"><circle cx="477" cy="454" r="228" stroke="#FFF" stroke-width="5"/><line x1="705" x2="249" y1="454" y2="454" stroke="#FFF" stroke-width="5"/><line x1="477" x2="477" y1="226" y2="682" stroke="#FFF" stroke-width="5"/><path stroke="#FFF" stroke-width="5" d="M477,226 C555.194107,290.095726 594.291161,366.095726 594.291161,454 C594.291161,541.904274 555.194107,617.904274 477,682"/><path stroke="#FFF" stroke-width="5" d="M360,226 C438.194107,290.095726 477.291161,366.095726 477.291161,454 C477.291161,541.904274 438.194107,617.904274 360,682" transform="matrix(-1 0 0 1 837.291 0)"/><path stroke="#FFF" stroke-width="5" d="M299.251648,599.713874 C343.249553,557.892546 402.499004,536.981882 477,536.981882 C551.500996,536.981882 610.904628,557.892546 655.210895,599.713874"/><path stroke="#FFF" stroke-width="5" d="M299.251648,370.713874 C343.249553,328.892546 402.499004,307.981882 477,307.981882 C551.500996,307.981882 610.904628,328.892546 655.210895,370.713874" transform="matrix(1 0 0 -1 0 678.696)"/></g></svg>