<svg xmlns="http://www.w3.org/2000/svg" width="932" height="932" viewBox="0 0 932 932"><path fill="none" stroke="#FFF" stroke-width="5" d="M474.659712,670 C424.749209,670 379.114245,651.757867 343.831223,621.580978 L257,633.446222 L290.545612,550.634311 C278.858129,524.839644 272.301295,496.204089 272.301295,466 C272.301295,353.340622 362.900432,262 474.659712,262 C586.409928,262 677,353.340622 677,466 C677,578.680533 586.41295,670 474.659712,670 Z M585.149928,465.416711 L585.149928,464.848533 C585.149928,405.981689 543.645468,364.006044 472.082302,364.006044 L394.790216,364.006044 L394.790216,568.006044 L470.937122,568.006044 C543.056259,568.009067 585.149928,524.280533 585.149928,465.416711 L585.149928,465.416711 Z M472.934388,517.885511 L450.326906,517.885511 L450.326906,414.141689 L472.934388,414.141689 C506.138561,414.141689 528.177986,433.075911 528.177986,465.731022 L528.177986,466.2992 C528.177986,499.229333 506.138561,517.885511 472.934388,517.885511 Z"/></svg>