<svg xmlns="http://www.w3.org/2000/svg" width="932" height="932" viewBox="0 0 932 932"><g fill="none" fill-rule="evenodd"><polyline stroke="#FFF" stroke-width="5" points="490.155 542.523 511.535 509.758 511.535 429.066 440.849 315.15 406.119 204.908 363.856 362.478 381.704 399.63"/><polyline stroke="#FFF" stroke-width="5" points="490.155 542.523 431.087 444.911 375.295 395.41 283.429 315.101 203.189 181.022 210.835 383.837 260.141 454.474 283.429 542.523 375.295 555.654 446.265 565.587 375.295 654.295 363.856 708.813 346.672 753.936 330.53 728.182 356.959 666.579 295.055 728.182 324.019 753.936 324.019 737.041"/><polyline stroke="#FFF" stroke-width="5" points="346.672 661.277 272.044 716.935 229.684 676.667 324.166 638.82 420.544 564.545"/><line x1="286.652" x2="297.968" y1="704.142" y2="716.935" stroke="#FFF" stroke-width="5"/><polyline stroke="#FFF" stroke-width="5" points="490.155 530.999 589.528 477.143 647.616 496.391 682.309 530.999 615.502 521.241 647.616 590.14 559.705 542.523 567.25 533.642"/><polyline stroke="#FFF" stroke-width="5" points="554.529 590.14 546.57 607.056 455.189 640.74"/><polyline stroke="#FFF" stroke-width="5" points="526.35 590.14 426.786 661.782 381.679 661.782"/><polyline stroke="#FFF" stroke-width="5" points="448.137 646.457 448.137 679.218 394.774 725.2 466 725.2 490.155 716.935"/><polyline stroke="#FFF" stroke-width="5" points="415.042 661.782 454.015 716.935 473.96 764.032"/><polyline stroke="#FFF" stroke-width="5" points="381.679 661.782 442.465 734.278 454.015 782.209"/><polyline stroke="#FFF" stroke-width="5" points="466 753.936 415.042 738.726 429.842 721.995"/><polyline stroke="#FFF" stroke-width="5" points="490.155 725.2 466 721.995 496.243 737.966"/><polyline stroke="#FFF" stroke-width="5" points="586.232 555.397 542.212 590.14 496.243 527.247"/><polyline stroke="#FFF" stroke-width="5" points="586.232 712.907 586.232 661.782 620.702 661.782"/><line x1="586.232" x2="603.467" y1="687.344" y2="687.344" stroke="#FFF" stroke-width="5"/><polygon stroke="#FFF" stroke-width="5" points="631.311 710.539 631.311 661.782 649.581 661.782 663.978 670.958 649.581 680.044 663.978 693.159 649.581 704.142"/><line x1="682.309" x2="682.309" y1="661.782" y2="710.539" stroke="#FFF" stroke-width="5"/><polygon stroke="#FFF" stroke-width="5" points="594.85 542.523 567.115 521.831 575.612 494.437 603.467 488.155 620.702 504.997 610.061 521.831"/><polygon stroke="#FFF" stroke-width="5" points="596.594 499.166 582.107 503.117 582.107 512.272 589.351 521.797 603.467 515.339 603.467 503.117"/></g></svg>