<svg xmlns="http://www.w3.org/2000/svg" width="932" height="932" viewBox="0 0 932 932"><g fill="none" fill-rule="evenodd"><polyline stroke="#FFF" stroke-width="5" points="517.162 531.671 540.348 496.136 540.348 408.625 463.689 285.08 426.023 165.52 380.188 336.409 399.544 376.7"/><polyline stroke="#FFF" stroke-width="5" points="517.162 531.671 453.101 425.809 392.594 372.124 292.963 285.027 205.942 139.615 214.234 359.573 267.707 436.18 292.963 531.671 392.594 545.912 469.562 556.684 392.594 652.89 380.188 712.016 361.552 760.953 344.045 733.023 372.708 666.213 305.572 733.023 336.984 760.953 336.984 742.63"/><polyline stroke="#FFF" stroke-width="5" points="361.552 660.462 280.616 720.825 234.675 677.153 337.143 636.107 441.667 555.554"/><line x1="296.459" x2="308.731" y1="706.95" y2="720.825" stroke="#FFF" stroke-width="5"/><polyline stroke="#FFF" stroke-width="5" points="517.162 519.173 624.934 460.765 687.931 481.639 725.557 519.173 653.103 508.59 687.931 583.313 592.591 531.671 600.773 522.039"/><polyline stroke="#FFF" stroke-width="5" points="586.977 583.313 578.345 601.658 479.24 638.19"/><polyline stroke="#FFF" stroke-width="5" points="556.417 583.313 448.437 661.01 399.518 661.01"/><polyline stroke="#FFF" stroke-width="5" points="471.592 644.39 471.592 679.92 413.719 729.788 490.965 729.788 517.162 720.825"/><polyline stroke="#FFF" stroke-width="5" points="435.701 661.01 477.967 720.825 499.598 771.902"/><polyline stroke="#FFF" stroke-width="5" points="399.518 661.01 465.441 739.633 477.967 791.615"/><polyline stroke="#FFF" stroke-width="5" points="490.965 760.953 435.701 744.457 451.751 726.313"/><polyline stroke="#FFF" stroke-width="5" points="517.162 729.788 490.965 726.313 523.764 743.633"/><polyline stroke="#FFF" stroke-width="5" points="621.36 545.634 573.619 583.313 523.764 515.104"/><polygon stroke="#FFF" stroke-width="5" points="630.706 531.671 600.627 509.23 609.842 479.521 640.051 472.707 658.743 490.973 647.203 509.23"/><polygon stroke="#FFF" stroke-width="5" points="632.597 484.65 616.886 488.935 616.886 498.863 624.741 509.194 640.051 502.189 640.051 488.935"/></g></svg>