<svg xmlns="http://www.w3.org/2000/svg" width="932" height="932" viewBox="0 0 932 932"><path fill="none" stroke="#FFF" stroke-width="5" d="M433.014056,227 L433.572484,227.07881 C439.206166,232.207024 434.219242,250.232258 435.881051,257.240232 C437.637179,264.642707 445.634821,267.431633 449.307269,273.596367 C451.097831,276.603145 451.175682,279.596138 450.84332,282.999515 C449.323738,298.517203 439.891849,300.609872 437.399136,311.191428 C432.204112,333.24303 446.148335,378.79988 458.080423,397.756305 C462.862241,405.355656 469.234005,409.383072 477.956257,411.288903 C498.487831,415.774798 534.60897,412.824655 552.369366,401.232349 C556.03882,398.836576 559.594492,395.875945 560.503247,391.363082 C561.161982,388.090806 560.742787,383.651359 558.848923,380.857039 C547.479755,364.092619 526.963152,382.469204 514.465151,379.58199 C512.679081,379.168461 511.737389,378.630573 510.809171,377.072347 C509.103946,374.207607 504.307157,359.702616 503.811608,356.326958 C503.681358,355.436971 504.099056,354.765735 504.182895,353.923693 C504.429921,351.447012 495.715155,342.782373 493.626666,340.488484 C496.999689,337.361543 501.45663,333.507929 503.341511,329.256667 C504.798214,325.974653 504.287694,322.692339 503.754717,319.270983 C500.589795,298.946615 488.030412,298.20421 482.330856,283.300672 C479.393497,275.619664 480.752886,266.246931 484.055545,258.901392 C489.558977,246.662871 502.747152,238.820796 514.833444,234.164845 C555.092636,218.655847 608.283996,229.402965 632.041876,267.579665 C640.725201,281.532834 647.150863,306.595409 659.127864,316.442352 C670.473078,325.770435 685.760224,321.490107 698.394463,327.106764 C692.356557,335.939661 677.145765,338.988691 669.666128,350.133007 C666.225734,355.258674 665.138822,361.232375 666.385927,367.291479 C671.053963,389.968169 714.151705,396.184594 733.024465,399.575235 C743.401039,401.439114 753.891395,403.115705 764.193114,405.321195 C770.256471,406.620217 777.420215,407.558149 782.667638,411.067156 L783,411.2919 C781.779843,412.388652 778.397837,413.052396 776.767468,413.491396 C758.947187,418.287438 741.216734,417.171208 723.013189,418.097154 C711.962908,418.659015 700.059266,419.087527 689.242537,421.42187 C681.803322,423.028042 673.9509,425.916755 669.697568,432.656084 C667.679443,435.853445 666.405389,440.405265 667.272225,444.165984 C670.992581,460.314605 697.951314,465.820838 711.527245,469.37779 C714.761035,470.224326 719.759936,470.970477 722.499675,472.885298 C722.632919,472.978192 722.760175,473.078578 722.890425,473.175967 C722.628428,473.7618 722.120902,474.0255 721.593914,474.356623 C708.543474,482.538811 688.769445,479.961744 674.215891,478.307626 C669.685591,477.792213 664.962161,477.51353 660.524682,476.512669 C663.057818,482.997289 665.411298,489.583793 668.127083,495.993497 C677.889837,519.025284 688.652669,541.549149 694.522897,565.99982 C699.906559,588.421801 700.216464,610.466211 704.990796,632.72338 C709.452229,653.527202 718.036745,672.566033 738.149124,682.438297 C742.170403,684.413049 751.71757,686.744396 754.256694,688.510886 C754.37347,688.591793 754.487251,688.678695 754.60253,688.762599 C753.984217,690.520099 751.349277,692.68064 749.705433,693.494214 C741.019113,697.791323 725.766402,687.121966 717.190869,684.204786 C714.497541,683.28783 711.516765,682.610601 708.657256,682.920748 C702.908295,683.544038 690.453711,692.045363 684.45473,695 C684.430776,685.001879 688.246948,675.289933 688.588293,665.186931 C690.193211,617.749422 680.87211,568.507966 659.240148,526.076259 C650.860739,509.639966 638.58581,492.829099 620.289443,486.886862 C619.208519,486.498804 618.097652,486.220121 616.983791,485.941438 C606.789865,483.389842 593.275317,483.984665 584.117402,489.625745 C576.833888,494.111639 573.275222,500.74459 571.534065,508.953747 C561.373076,556.881199 619.469018,602.574693 607.733054,648.870502 C604.388477,662.062987 593.932555,673.168347 582.392714,679.927155 C571.796062,686.133092 560.452344,688.119831 548.327128,688.504892 C511.722418,689.670566 483.064448,673.397587 453.95734,652.990812 C441.689897,644.389102 429.747329,635.526689 417.840693,626.436535 C402.472703,614.704887 386.823254,603.307359 371.557068,591.45435 C360.223831,582.651868 342.478406,566.32495 328.95188,562.821937 C317.886628,566.946743 297.371522,592.010217 287.62374,601.226228 C273.971606,614.134037 250.547286,629.845155 241.543276,645.632687 C236.494371,654.486111 242.482422,667.879367 236.322202,674.975291 C235.410901,676.025596 234.046721,677.173289 232.795573,677.750133 C224.231419,681.705631 211.623229,673.560901 202.156009,673.963942 C190.805405,674.447891 182.055606,682.687014 171.860783,683.169465 C164.517084,683.518567 158.433516,681.266631 153,676.415152 C160.203567,675.023236 167.274789,672.548053 174.140006,669.987468 C181.915026,667.088267 189.442122,663.832473 196.542239,659.5039 C229.544866,639.384798 250.252951,603.503636 270.299307,571.558494 C278.00516,559.279969 285.110067,546.044033 295.009059,535.367185 C301.886852,527.950626 310.15248,521.32217 320.172739,518.926397 C351.513557,511.431926 396.291073,544.571209 421.312526,560.766277 C429.954931,566.429831 438.832883,571.695338 447.946383,576.562798 C460.123999,582.990483 473.256781,588.265978 486.915054,590.422024 C491.2133,591.100752 495.653773,591.782476 500.011905,591.592193 C507.837378,591.247585 514.797513,588.567136 520.101827,582.681834 C526.461615,575.623367 528.065036,566.653077 528.165343,557.45954 C528.232714,551.2566 527.961734,545.122582 526.569408,539.055986 C524.266829,529.029398 519.775454,519.566168 514.095361,511.034878 C511.364605,506.954522 508.426247,503.029989 505.280288,499.261278 C498.604607,491.136026 485.416431,477.998978 485.048139,467.266693 C484.694817,456.94494 496.387365,450.326972 504.795219,447.523663 C506.931617,446.810475 512.822805,446.068819 514.119315,444.669412 C513.9711,444.329299 513.852827,444.071592 513.589333,443.801899 C512.562305,442.751594 510.728326,442.144785 509.385405,441.590416 C497.981803,436.891764 486.105109,438.354099 474.098165,437.895621 C461.664541,437.42216 451.313417,434.475014 442.649554,425.005791 C422.267692,402.732142 425.956608,350.741315 420.489107,321.862134 C419.736552,317.898245 418.764918,313.989044 417.574205,310.134531 C414.909322,301.687895 409.612493,291.010147 410.287696,282.121514 C410.769771,275.77234 419.215054,272.277268 423.460901,268.492576 C425.22152,266.922213 426.79949,265.108527 427.600452,262.855092 C430.223415,255.482733 427.064481,240.903126 427.576498,232.319695 C429.07512,230.308684 431.154627,228.671048 433.014056,227 Z"/></svg>