<svg xmlns="http://www.w3.org/2000/svg" width="2666" height="1908" viewBox="0 0 2666 1908"><g fill="none" fill-rule="evenodd"><path fill="#FFF" fill-rule="nonzero" d="M1776.60696,802.7 C1773.74756,798.4812 1767.70076,794.1219 1758.51296,789.106 C1760.48176,779.4498 1762.12236,761.075 1748.24696,751.559 L1746.74696,750.809 C1743.55946,749.5902 1669.96596,720.95 1629.41696,711.434 C1613.90096,707.8246 1597.72896,711.15275 1585.07296,720.3402 C1576.16676,726.809 1572.41696,732.3872 1571.80696,733.4652 C1562.47886,733.93395 1555.07296,737.0746 1546.16596,742.2308 C1535.00996,748.5589 1522.63496,751.4183 1510.11896,750.387 C1461.27496,746.1682 1343.75896,747.6682 1338.03896,747.8089 C1332.46086,747.8089 1214.79896,746.1683 1165.95896,750.387 C1153.58396,751.6058 1141.06796,748.7464 1129.91196,742.2308 C1121.14636,737.262 1113.92796,734.2152 1104.41196,733.6527 C1103.94321,732.9027 1100.19316,726.9965 1091.00596,720.3867 C1078.34996,711.0586 1062.17796,707.8707 1046.66196,711.4805 C1006.11496,720.9961 932.521955,749.6365 929.331955,750.8555 L927.831955,751.6055 C914.097955,760.9336 915.597955,779.3555 917.565955,789.1525 C908.378455,793.9806 902.331955,798.4806 899.471955,802.5585 C879.549955,831.5275 704.471955,1231.7485 743.711955,1420.2785 C751.258855,1458.9035 768.461955,1489.5125 794.523955,1511.2165 C807.929955,1522.3725 824.382955,1528.2785 841.726955,1528.2785 C844.726955,1528.2785 847.773855,1528.13788 850.914455,1527.66912 C871.445455,1525.27852 890.289455,1514.26312 902.664455,1497.66912 C945.789455,1439.77812 1026.32446,1337.82912 1081.68446,1305.66912 C1090.12196,1300.70032 1100.24646,1298.12222 1110.93446,1298.12222 L1565.33446,1298.12222 C1576.02246,1298.12222 1586.14646,1300.70032 1594.58446,1305.66912 C1649.94346,1337.77812 1730.47446,1439.72912 1773.60446,1497.66912 C1785.97946,1514.26312 1804.82346,1525.27812 1825.35446,1527.66912 C1828.35446,1527.95037 1831.54196,1528.2785 1834.54196,1528.2785 C1851.74496,1528.2785 1868.33896,1522.4191 1881.74496,1511.2165 C1907.99496,1489.5135 1925.01096,1458.9045 1932.55696,1420.2785 C1971.74496,1231.7485 1796.66696,831.5385 1776.79696,802.4185 L1776.60696,802.7 Z M1625.94696,726.247 C1663.02496,735.0126 1731.50696,761.216 1740.27696,764.544 C1744.82386,768.294 1745.10506,776.028 1744.21446,782.497 C1714.35546,769.841 1664.57346,754.747 1592.47446,736.513 C1591.39636,736.23175 1590.64636,736.04425 1589.89636,735.90362 C1591.11516,734.82552 1592.28696,733.79422 1593.83386,732.71612 C1603.02136,726.05992 1614.64586,723.66922 1625.80286,726.24732 L1625.94696,726.247 Z M935.846955,764.591 C944.612555,761.2629 1013.04996,734.872 1050.17696,726.294 C1061.33296,723.7159 1073.09896,726.01275 1082.14596,732.7628 C1083.64596,733.9816 1085.00536,735.0128 1086.08346,735.9503 C1085.19284,736.09092 1084.58346,736.41905 1083.50536,736.55968 C1011.41136,754.79368 961.635355,769.88768 931.765355,782.54368 C930.874735,776.07488 931.155975,768.38768 935.702855,764.59068 L935.846955,764.591 Z M1917.63696,1417.461 C1910.69946,1452.617 1895.32496,1480.367 1871.93396,1499.633 C1859.27796,1510.039 1843.43396,1514.727 1826.98096,1512.758 C1810.38696,1510.7892 1795.62196,1502.211 1785.63696,1488.758 C1741.90296,1429.93 1659.87696,1326.198 1602.11696,1292.728 C1591.42896,1286.5405 1578.58596,1283.2124 1565.31996,1283.2124 L1110.91996,1283.2124 C1097.65396,1283.2124 1084.81096,1286.5405 1074.12296,1292.728 C1016.51396,1326.197 934.482955,1429.988 890.602955,1488.758 C880.477955,1502.352 865.852955,1510.789 849.118955,1512.758 C832.665955,1514.7268 816.821955,1510.0392 804.165955,1499.633 C780.634955,1480.18 765.399955,1452.571 758.462955,1417.274 C721.056955,1236.904 893.322955,838.644 912.022955,811.174 C915.960455,805.4552 940.850955,788.112 1087.24296,751.174 C1091.60236,750.0959 1094.78986,749.2052 1095.25856,749.0646 C1105.52456,747.7052 1111.38356,749.0646 1122.39956,755.3927 C1136.27456,763.4083 1151.79056,766.8767 1167.35256,765.5177 C1215.63356,761.2989 1336.71256,762.9396 1337.93256,762.9396 L1337.93256,755.3927 L1338.07318,762.9396 C1339.29198,762.9396 1460.36318,761.299 1508.65318,765.5177 C1524.35618,766.8771 1539.73118,763.4083 1553.60618,755.3927 C1564.76218,749.0646 1570.66818,747.7052 1579.85618,748.7365 C1581.35618,749.20525 1584.54368,749.9553 1588.90308,750.9865 C1735.34308,787.9245 1760.22308,805.2675 1764.12308,810.9865 C1782.96708,838.4555 1955.04308,1236.7065 1917.49308,1417.4065 L1917.63696,1417.461 Z" opacity=".45"/><path fill="#FFF" fill-rule="nonzero" d="M1092.00596,720.3867 C1079.34996,711.0586 1063.17796,707.8707 1047.66196,711.4805 C1007.11496,720.9961 933.521955,749.6365 930.331955,750.8555 L928.831955,751.6055 C915.097955,760.9336 916.597955,779.3555 918.565955,789.1525 C940.439777,778.869113 1018.16981,748.742653 1104.15724,732.7628 M936.846955,764.591 C945.612555,761.2629 1014.04996,734.872 1051.17696,726.294 C1062.33296,723.7159 1074.09896,726.01275 1083.14596,732.7628 C1084.64596,733.9816 1086.00536,735.0128 1087.08346,735.9503 C1086.19284,736.09092 1003.14039,753.903591 932.765355,782.54368 C931.874735,776.07488 932.155975,768.38768 936.702855,764.59068"/><path fill="#FFF" fill-rule="nonzero" d="M1748.00596,720.3867 C1735.34996,711.0586 1719.17796,707.8707 1703.66196,711.4805 C1663.11496,720.9961 1589.52196,749.6365 1586.33196,750.8555 L1584.83196,751.6055 C1571.09796,760.9336 1572.59796,779.3555 1574.56596,789.1525 C1596.43978,778.869113 1674.16981,748.742653 1760.15724,732.7628 M1592.84696,764.591 C1601.61256,761.2629 1670.04996,734.872 1707.17696,726.294 C1718.33296,723.7159 1730.09896,726.01275 1739.14596,732.7628 C1740.64596,733.9816 1742.00536,735.0128 1743.08346,735.9503 C1742.19284,736.09092 1659.14039,753.903591 1588.76536,782.54368 C1587.87474,776.07488 1588.15598,768.38768 1592.70286,764.59068" transform="matrix(-1 0 0 1 3333.458 0)"/><path fill="#FFF" fill-rule="nonzero" d="M1654.88696,898.66 C1678.69896,898.66 1698.01196,879.348 1698.01196,855.535 C1698.01196,831.722 1678.69996,812.41 1654.88696,812.41 C1631.07396,812.41 1611.76196,831.722 1611.76196,855.535 C1611.76196,879.348 1631.07396,898.66 1654.88696,898.66 Z M1654.88696,819.957 C1674.48096,819.957 1690.46496,835.941 1690.46496,855.535 C1690.46496,875.129 1674.48096,891.113 1654.88696,891.113 C1635.29296,891.113 1619.30896,875.129 1619.30896,855.535 C1619.30896,835.941 1635.29296,819.957 1654.88696,819.957 Z" opacity=".45"/><path fill="#FFF" fill-rule="nonzero" d="M1654.88696,973.43 C1631.07496,973.43 1611.76196,992.742 1611.76196,1016.555 C1611.76196,1040.368 1631.07396,1059.68 1654.88696,1059.68 C1678.69996,1059.68 1698.01196,1040.368 1698.01196,1016.555 C1698.01196,992.742 1678.69996,973.43 1654.88696,973.43 Z M1654.88696,1052.133 C1635.29296,1052.133 1619.30896,1036.149 1619.30896,1016.555 C1619.30896,996.961 1635.29296,980.977 1654.88696,980.977 C1674.48096,980.977 1690.46496,996.961 1690.46496,1016.555 C1690.46496,1036.149 1674.48096,1052.133 1654.88696,1052.133 Z"/><path fill="#FFF" fill-rule="nonzero" d="M1692.29696 936.06C1692.29696 959.872 1711.60896 979.185 1735.42196 979.185 1759.23496 979.185 1778.54696 959.873 1778.54696 936.06 1778.54696 912.247 1759.23496 892.935 1735.42196 892.935 1711.60896 892.935 1692.29696 912.247 1692.29696 936.06ZM1770.99996 936.06C1770.99996 955.654 1755.01596 971.638 1735.42196 971.638 1715.82796 971.638 1699.84396 955.654 1699.84396 936.06 1699.84396 916.466 1715.82796 900.482 1735.42196 900.482 1755.01596 900.482 1770.99996 916.466 1770.99996 936.06ZM1573.74696 892.9C1549.93496 892.9 1530.62196 912.212 1530.62196 936.025 1530.62196 959.838 1549.93396 979.15 1573.74696 979.15 1597.55996 979.15 1616.87196 959.838 1616.87196 936.025 1616.87196 912.212 1597.55996 892.9 1573.74696 892.9ZM1573.74696 971.603C1554.15296 971.603 1538.16896 955.619 1538.16896 936.025 1538.16896 916.431 1554.15296 900.447 1573.74696 900.447 1593.34096 900.447 1609.32496 916.431 1609.32496 936.025 1609.32496 955.619 1593.34096 971.603 1573.74696 971.603Z" opacity=".45"/><path fill="#FFF" fill-rule="nonzero" d="M1502.73696,1054.14 C1469.26796,1054.14 1441.93996,1081.421 1441.93996,1114.937 C1441.93996,1148.406 1469.22096,1175.734 1502.73696,1175.734 C1536.20596,1175.734 1563.53396,1148.453 1563.53396,1114.937 C1563.53396,1081.468 1536.25296,1054.14 1502.73696,1054.14 Z M1502.73696,1171.75 C1471.37796,1171.75 1445.73696,1146.25 1445.73696,1114.75 C1445.73696,1083.25 1471.23696,1057.75 1502.73696,1057.75 C1534.23696,1057.75 1559.73696,1083.25 1559.73696,1114.75 C1559.73696,1146.25 1534.23696,1171.75 1502.73696,1171.75 Z"/><path fill="#FFF" fill-rule="nonzero" d="M1503.47696 1037.08C1460.21096 1037.08 1425.05496 1072.236 1425.05496 1115.502 1425.05496 1158.768 1460.21096 1193.924 1503.47696 1193.924 1546.74296 1193.924 1581.89896 1158.768 1581.89896 1115.502 1581.89896 1072.236 1546.74296 1037.08 1503.47696 1037.08ZM1503.47696 1186.37C1464.42996 1186.37 1432.60196 1154.542 1432.60196 1115.495 1432.60196 1076.448 1464.42996 1044.62 1503.47696 1044.62 1542.52396 1044.62 1574.35196 1076.448 1574.35196 1115.495 1574.35196 1154.542 1542.52396 1186.37 1503.47696 1186.37ZM1048.32696 874.66C1014.85796 874.66 987.529955 901.941 987.529955 935.457 987.529955 968.926 1014.81096 996.254 1048.32696 996.254 1081.79596 996.254 1109.12396 968.973 1109.12396 935.457 1109.12396 901.988 1081.84296 874.66 1048.32696 874.66ZM1048.32696 992.27C1016.96796 992.27 991.326955 966.77 991.326955 935.27 991.326955 903.77 1016.82696 878.27 1048.32696 878.27 1079.82696 878.27 1105.32696 903.77 1105.32696 935.27 1105.32696 966.77 1079.82696 992.27 1048.32696 992.27Z"/><path fill="#FFF" fill-rule="nonzero" d="M1127.49696,936.06 C1127.49696,892.794 1092.34096,857.638 1049.07496,857.638 C1005.80896,857.638 970.652955,892.794 970.652955,936.06 C970.652955,979.326 1005.80896,1014.482 1049.07496,1014.482 C1092.34096,1014.482 1127.49696,979.326 1127.49696,936.06 Z M1049.07496,1006.935 C1010.02796,1006.935 978.199955,975.107 978.199955,936.06 C978.199955,897.013 1010.02796,865.185 1049.07496,865.185 C1088.12196,865.185 1119.94996,897.013 1119.94996,936.06 C1119.94996,975.107 1088.12196,1006.935 1049.07496,1006.935 Z"/><path fill="#FFF" fill-rule="nonzero" d="M1269.42696 1087.75 1236.56796 1087.75 1236.56796 1055.172C1236.56796 1042.797 1226.44296 1032.719 1214.11496 1032.719L1177.31796 1032.719C1164.94296 1032.719 1154.86496 1042.844 1154.86496 1055.172L1154.86496 1087.75 1122.00596 1087.75C1109.63096 1087.75 1099.55296 1097.875 1099.55296 1110.203L1099.55296 1147C1099.55296 1159.375 1109.67796 1169.453 1122.00596 1169.453L1154.86496 1169.453 1154.86496 1202.641C1154.86496 1215.016 1164.98996 1225.094 1177.31796 1225.094L1214.11496 1225.094C1226.48996 1225.094 1236.56796 1214.969 1236.56796 1202.641L1236.56796 1169.453 1269.42696 1169.453C1281.80196 1169.453 1291.87996 1159.328 1291.87996 1147L1291.87996 1110.203C1291.87996 1097.828 1281.75496 1087.75 1269.42696 1087.75L1269.42696 1087.75ZM1284.37996 1147C1284.37996 1155.2969 1277.72376 1161.953 1269.42696 1161.953L1229.02096 1161.953 1229.02096 1202.687C1229.02096 1210.9839 1222.36476 1217.64 1214.06796 1217.64L1177.27096 1217.64C1168.97406 1217.64 1162.31796 1210.9838 1162.31796 1202.687L1162.31796 1161.953 1121.91196 1161.953C1113.61506 1161.953 1106.95896 1155.2968 1106.95896 1147L1106.95896 1110.203C1106.95896 1101.9061 1113.61516 1095.25 1121.91196 1095.25L1162.31796 1095.25 1162.31796 1055.125C1162.31796 1046.8281 1168.97416 1040.172 1177.27096 1040.172L1214.06796 1040.172C1222.36486 1040.172 1229.02096 1046.8282 1229.02096 1055.125L1229.02096 1095.25 1269.42696 1095.25C1277.72386 1095.25 1284.37996 1101.9062 1284.37996 1110.203L1284.37996 1147ZM1284.5 898C1271.54425 898 1261 908.544252 1261 921.5 1261 934.455748 1271.54425 945 1284.5 945 1297.45575 945 1308 934.455748 1308 921.5 1308 908.544252 1297.45575 898 1284.5 898ZM1284.5 939C1274.89632 939 1267 931.103677 1267 921.5 1267 911.896323 1274.89632 904 1284.5 904 1294.10368 904 1302 911.896323 1302 921.5 1302 931.103677 1294.10368 939 1284.5 939ZM1351.5 935C1338.54425 935 1328 945.544252 1328 958.5 1328 971.455748 1338.54425 982 1351.5 982 1364.45575 982 1375 971.455748 1375 958.5 1375 945.544252 1364.45575 935 1351.5 935ZM1351.5 976C1341.89632 976 1334 968.103677 1334 958.5 1334 948.896323 1341.89632 941 1351.5 941 1361.10368 941 1369 948.896323 1369 958.5 1369 968.103677 1361.10368 976 1351.5 976ZM1443 921.5C1443 908.544252 1432.45575 898 1419.5 898 1406.54425 898 1396 908.544252 1396 921.5 1396 934.455748 1406.54425 945 1419.5 945 1432.45575 945 1443 934.455748 1443 921.5ZM1402 921.5C1402 911.896323 1409.89632 904 1419.5 904 1429.10368 904 1437 911.896323 1437 921.5 1437 931.103677 1429.10368 939 1419.5 939 1409.89632 939 1402 931.103677 1402 921.5Z" opacity=".45"/><line x1="910.949" x2="730.68" y1="1070.421" y2="905.265" stroke="#FFF" stroke-linecap="round" stroke-linejoin="round" stroke-width="6" transform="scale(1 -1) rotate(-30 -2867.074 0)"/><line x1="1496.47" x2="1319.289" y1="1400.007" y2="1246.88" stroke="#FFF" stroke-linecap="round" stroke-linejoin="round" stroke-width="6" transform="rotate(-105 1408.29 1323.88)"/><line x1="1919.668" x2="1851.361" y1="1176.213" y2="878.787" stroke="#FFF" stroke-linecap="round" stroke-linejoin="round" stroke-width="6" transform="rotate(105 1885.515 1027.5)"/><line x1="1863.116" x2="1629.675" y1="604.736" y2="570.898" stroke="#FFF" stroke-linecap="round" stroke-linejoin="round" stroke-width="6" transform="rotate(105 1746.396 587.817)"/><text fill="#FFF" font-family="Helvetica-Bold, Helvetica" font-size="70" font-weight="bold" letter-spacing="6.045">
            <tspan x="336.985" y="1038">Avancer</tspan>
        </text><text fill="#FFF" font-family="Helvetica-Bold, Helvetica" font-size="70" font-weight="bold" letter-spacing="6.045">
            <tspan x="1137.078" y="1523">Orientation</tspan>
        </text><text fill="#FFF" font-family="Helvetica-Bold, Helvetica" font-size="70" font-weight="bold" letter-spacing="6.045">
            <tspan x="2082.088" y="1059">Retour</tspan>
        </text><text fill="#FFF" font-family="Helvetica-Bold, Helvetica" font-size="70" font-weight="bold" letter-spacing="6.045">
            <tspan x="1821.208" y="436">Monter</tspan>
        </text><line x1="1043.663" x2="832.047" y1="617.733" y2="577.048" stroke="#FFF" stroke-linecap="round" stroke-linejoin="round" stroke-width="6" transform="scale(1 -1) rotate(-75 159.32 0)"/><text fill="#FFF" font-family="Helvetica-Bold, Helvetica" font-size="70" font-weight="bold" letter-spacing="6.045">
            <tspan x="462.814" y="440">Descendre</tspan>
        </text></g></svg>