<svg xmlns="http://www.w3.org/2000/svg" width="343" height="346" viewBox="0 0 343 346"><g fill="none" fill-rule="evenodd" transform="translate(1)"><g stroke="#FFF" transform="translate(0 24)"><rect width="40" height="40" x="149.909" y="75.5" opacity=".253"/><polyline points="67.409 22 90.072 0 155.409 0"/><polyline points="185.409 22 208.072 0 273.409 0" transform="matrix(-1 0 0 1 458.817 0)"/><polyline points="67.409 191 90.072 169 155.409 169" transform="matrix(1 0 0 -1 0 360)"/><polyline points="185.409 191 208.072 169 273.409 169" transform="rotate(180 229.409 180)"/><line x1="105.409" x2="83.409" y1="96" y2="96"/><line x1="63.788" y1="96" y2="96"/><line x1="257.409" x2="235.409" y1="96" y2="96" transform="matrix(-1 0 0 1 492.817 0)"/><line x1="340.794" x2="276.054" y1="96" y2="96" transform="matrix(-1 0 0 1 616.847 0)"/><line x1="177.409" x2="164.409" y1="100" y2="87"/><line x1="177.409" x2="164.409" y1="100" y2="87" transform="matrix(-1 0 0 1 341.817 0)"/></g><text fill="#DEDEDE" fill-rule="nonzero" font-family="RobotoMono-Regular, Roboto Mono" font-size="11">
                <tspan x="100.439" y="342.421">STARTING MAINFRAME</tspan>
            </text><g fill-rule="nonzero" opacity=".559" transform="translate(19.409 290.37)"><polygon fill="#000" fill-opacity=".559" points="314.026 0 314.026 35.899 3.512 35.899 3.512 0"/><g fill="#FFF" transform="translate(0 1.63)"><rect width="5" height="2"/><rect width="5" height="2" y="30.5"/><rect width="2" height="30.5"/><rect width="5" height="2" x="312"/><rect width="5" height="2" x="312" y="30.5"/><rect width="2.027" height="29.5" x="314.987" y="1"/></g><text fill="#FFF" font-family="Rajdhani-Bold, Rajdhani" font-size="22" font-weight="bold" transform="translate(74.29 4.16)">
                        <tspan x="0" y="20">SCANNING GLYPH…</tspan>
                    </text></g><g fill="#FFF" fill-rule="nonzero" opacity=".488" transform="matrix(-1 0 0 1 249.409 0)"><polygon points="0 14 1 14 1 10 0 10"/><polygon points="1 14 2 14 2 11 1 11"/><polygon points="3 14 4 14 4 10 3 10"/><polygon points="4 14 5 14 5 8 4 8"/><polygon points="6 14 7 14 7 6 6 6"/><polygon points="8 14 9 14 9 7 8 7"/><polygon points="9 14 10 14 10 5 9 5"/><polygon points="11 14 12 14 12 2 11 2"/><polygon points="12 14 13 14 13 2 12 2"/><polygon points="14 14 15 14 15 5 14 5"/><polygon points="16 14 17 14 17 0 16 0"/><polygon points="17 14 18 14 18 2 17 2"/></g><text fill="#FFF" fill-rule="nonzero" font-family="RobotoMono-Regular, Roboto Mono" font-size="10">
                <tspan x="89.409" y="13.421">x 320 y 235</tspan>
            </text><path fill="#FFF" fill-rule="nonzero" d="M16.0199179,4.5463508 C15.9840878,4.47396507 15.9630713,4.38627386 15.9625159,4.30553071 C15.9580718,3.62011948 15.9599235,2.93461503 15.9599235,2.2492038 L15.9599235,2.0698346 L15.7841066,2.0698346 C15.2746171,2.0698346 14.7652202,2.06512258 14.2559159,2.07281234 C14.1118553,2.07501 14.0039025,2.03276912 13.8931721,1.94175879 C12.4844147,0.783325293 10.8681768,0.129867211 9.05056877,0.0179866432 C6.94140457,-0.111870054 5.02881479,0.460807865 3.35238791,1.75558959 C3.05152724,1.98797823 2.76683156,2.09944202 2.39268136,2.07625347 C1.95039846,2.04885331 1.50522719,2.0698346 1.04040947,2.0698346 L1.04040947,2.25580775 C1.04040947,2.94126559 1.04241848,3.62672343 1.03775223,4.31214426 C1.03721525,4.39268313 1.01379148,4.47979854 0.977841271,4.55241596 C-0.32161148,7.18085595 -0.327240568,9.80909166 0.968777256,12.4406383 C1.01086589,12.5259728 1.03713191,12.6288379 1.03744679,12.7238185 C1.04176121,14.0896328 1.04040947,15.4554471 1.04040947,16.8213547 L1.04040947,17 L15.9599235,17 L15.9599235,16.8150468 C15.9599235,15.4441312 15.9589976,14.0732155 15.9624232,12.7023917 C15.962701,12.6216951 15.9848286,12.5342274 16.0207512,12.4617854 C17.3265551,9.82263408 17.3265551,7.18526224 16.0199179,4.5463508 Z M1.4602406,16.6018038 L1.4602406,13.2684739 C2.56882219,14.8611669 4.0166037,15.9605898 5.81196381,16.6018038 L1.4602406,16.6018038 Z M8.28321444,16.6003204 C6.87139259,16.5572816 5.56811628,16.1791207 4.34700808,15.4532207 C5.65749678,13.6941264 6.9600418,11.9457916 8.28321444,10.169722 L8.28321444,16.6003204 Z M15.5394072,16.5989289 L11.1834251,16.5989289 C12.9834422,15.9595698 14.4296034,14.862095 15.5394072,13.2681969 L15.5394072,16.5989289 Z M8.71652583,16.5925292 L8.71652583,10.1716701 C10.0349212,11.9478316 11.334985,13.6994129 12.6350488,15.4509956 C11.7879058,16.0703193 9.81373827,16.645491 8.71652583,16.5925292 Z M10.4717323,6.58269859 C10.4730285,6.611249 10.4735841,6.63996529 10.4735841,6.66883101 C10.4735841,7.69416136 9.70023035,8.53992784 8.70634161,8.65206752 C8.70680456,8.9789364 8.70736014,9.25784883 8.70810074,9.39197335 C8.70847104,9.4545827 8.74402331,9.52591141 8.78290856,9.57850311 C10.1541694,11.4299814 11.5278374,13.279698 12.9013203,15.1294145 C12.9273363,15.1645689 12.9560373,15.1976819 12.9870529,15.2362678 C13.0187166,15.2162325 13.0442698,15.201485 13.0683417,15.1846961 C14.0748217,14.4891274 14.8853016,13.6112035 15.4983925,12.5517579 C15.5356112,12.4873869 15.5493137,12.4007527 15.5494989,12.3245091 C15.5521838,10.4633833 15.5517457,8.60216566 15.5517457,6.74100287 L15.5517457,6.57605762 L10.4717323,6.58269859 Z M6.49103007,6.58286585 L1.45600021,6.58146472 C1.45325977,6.63201642 1.44928787,6.67120553 1.44928787,6.71043166 C1.44905489,8.59177784 1.44836211,10.4732159 1.45148216,12.3546539 C1.45163953,12.4251477 1.4721284,12.5062158 1.51043042,12.5641871 C1.73348365,12.9015371 1.9490838,13.2455636 2.19628292,13.5647331 C2.70155987,14.2171712 3.30817915,14.7646096 4.00170697,15.2323715 C4.02890805,15.1991653 4.04537876,15.1804296 4.06019228,15.1605794 C5.45176597,13.2926838 6.84369149,11.4250651 8.23256182,9.55503625 C8.27044715,9.50402117 8.29255625,9.42833278 8.29286169,9.36396036 C8.29341728,9.23605181 8.29400981,8.96993874 8.29455609,8.65605566 C7.28251168,8.56153977 6.48920607,7.70726782 6.48920607,6.66883101 C6.48920607,6.64007634 6.48981722,6.6114615 6.49103007,6.58286585 Z M1.03184548,11.5551082 C0.622226207,10.5385151 0.417726865,9.5219219 0.417884008,8.5053301 C0.418050912,7.48879313 0.622855827,6.47219036 1.03184548,5.45554235 L1.03184548,11.5551082 Z M15.9675153,11.5543652 L15.9675153,5.45944687 C16.7870685,7.48915507 16.7876239,9.5219219 15.9675153,11.5543652 Z M6.99576061,5.87512841 C6.86943914,6.11181914 6.79782541,6.38201496 6.79782541,6.66883101 C6.79782541,7.5366262 7.45338456,8.25224807 8.29507446,8.34529977 C8.29598187,7.76070403 8.296704,7.11766256 8.29683359,6.8945965 L8.50006466,7.05378231 L8.70458262,6.89348328 L8.70458262,6.89250852 L8.50006466,7.05378231 L6.99576061,5.87512841 Z M9.97788963,5.89574777 L8.70458262,6.89348328 C8.70476777,7.12016595 8.70523071,7.75635258 8.70587867,8.34064396 C9.52913523,8.2305621 10.1650017,7.52350192 10.1650017,6.66883101 C10.1650017,6.39029697 10.0974154,6.12743995 9.97788963,5.89574777 Z M10.2246258,5.7024276 C10.3025815,5.84319309 10.3640572,5.99440124 10.4063681,6.15338277 L15.5516283,6.15885568 C15.5516283,5.65557752 15.5549613,5.16629557 15.5484805,4.67717128 C15.5473694,4.59245918 15.5213533,4.49892491 15.4790424,4.42541636 C15.1259272,3.81126803 14.6931899,3.25763423 14.1915701,2.7580001 C14.1609248,2.72746591 14.1265762,2.70056752 14.0930607,2.67111776 L10.2246258,5.7024276 Z M6.74958001,5.68222639 L2.90157825,2.66713784 C2.44417653,3.10927221 2.06126774,3.59236698 1.71006905,4.10510619 C1.52230891,4.37927095 1.41996652,4.6559583 1.44300151,4.99558952 C1.46899905,5.3776659 1.44901938,5.76290373 1.44901938,6.15336495 L6.5576442,6.14871737 C6.60201964,5.98378995 6.66699506,5.82729398 6.74958001,5.68222639 Z M10.0132566,5.39331275 L13.6603234,2.48058066 L8.71485934,2.48058066 L8.70245318,4.68510233 C9.22786704,4.74328758 9.69208292,5.00663678 10.0132566,5.39331275 Z M8.27374318,4.68367378 L8.28834364,2.47996784 L3.33853736,2.47996784 L6.96444873,5.37557792 C7.28775186,4.99538524 7.75081975,4.73804637 8.27374318,4.68367378 Z M15.5429254,2.48557098 L15.5429254,3.70792174 C15.2039755,3.2977131 14.8696549,2.89315422 14.5329271,2.48557098 L15.5429254,2.48557098 Z M1.46483282,2.48031195 L2.47110911,2.48031195 C2.13220561,2.89051922 1.79960706,3.29315875 1.46483282,3.6984511 L1.46483282,2.48031195 Z M7.54428348,0.45643859 C9.68958319,0.233177859 11.6226434,0.76017376 13.3572036,2.0275567 C13.3527596,2.04004073 13.3483156,2.05251654 13.3437789,2.06503896 L3.652397,2.06503896 C4.01690927,1.5091691 6.2952057,0.586415933 7.54428348,0.45643859 Z M9.77189034,5.58605711 C9.46293766,5.21694049 8.99936987,4.9821225 8.48145521,4.9821225 C7.97174355,4.9821225 7.51466588,5.20950162 7.20587987,5.56838808 L8.50006466,6.60187158 L9.77189034,5.58605711 Z" transform="translate(235.409 219)"/></g></svg>