<?xml version="1.0" encoding="UTF-8" standalone="no"?>
<svg
   width="343"
   height="346"
   viewBox="0 0 343 346"
   version="1.1"
   id="svg27"
   sodipodi:docname="hud-example.svg"
   inkscape:version="1.4 (86a8ad7, 2024-10-11)"
   xmlns:inkscape="http://www.inkscape.org/namespaces/inkscape"
   xmlns:sodipodi="http://sodipodi.sourceforge.net/DTD/sodipodi-0.dtd"
   xmlns="http://www.w3.org/2000/svg"
   xmlns:svg="http://www.w3.org/2000/svg">
  <defs
     id="defs27" />
  <sodipodi:namedview
     id="namedview27"
     pagecolor="#505050"
     bordercolor="#ffffff"
     borderopacity="1"
     inkscape:showpageshadow="0"
     inkscape:pageopacity="0"
     inkscape:pagecheckerboard="1"
     inkscape:deskcolor="#505050"
     inkscape:zoom="1.5797501"
     inkscape:cx="186.42189"
     inkscape:cy="150.97325"
     inkscape:window-width="1353"
     inkscape:window-height="981"
     inkscape:window-x="0"
     inkscape:window-y="0"
     inkscape:window-maximized="0"
     inkscape:current-layer="g27" />
  <g
     fill="none"
     fill-rule="evenodd"
     transform="translate(1)"
     id="g27">
    <g
       stroke="#ffffff"
       transform="translate(0,80)"
       id="g9">
      <rect
         width="40"
         height="40"
         x="149.909"
         y="75.5"
         opacity="0.253"
         id="rect1" />
      <polyline
         points="67.409 22 90.072 0 155.409 0"
         id="polyline1" />
      <polyline
         points="185.409 22 208.072 0 273.409 0"
         transform="matrix(-1,0,0,1,458.817,0)"
         id="polyline2" />
      <polyline
         points="67.409 191 90.072 169 155.409 169"
         transform="matrix(1,0,0,-1,0,360)"
         id="polyline3" />
      <polyline
         points="185.409 191 208.072 169 273.409 169"
         transform="rotate(180,229.409,180)"
         id="polyline4" />
      <line
         x1="105.409"
         x2="83.408997"
         y1="96"
         y2="96"
         id="line4" />
      <line
         x1="63.787998"
         y1="96"
         y2="96"
         id="line5"
         x2="0" />
      <line
         x1="257.409"
         x2="235.409"
         y1="96"
         y2="96"
         transform="matrix(-1,0,0,1,492.817,0)"
         id="line6" />
      <line
         x1="340.79401"
         x2="276.05399"
         y1="96"
         y2="96"
         transform="matrix(-1,0,0,1,616.847,0)"
         id="line7" />
      <line
         x1="177.409"
         x2="164.409"
         y1="100"
         y2="87"
         id="line8" />
      <line
         x1="177.409"
         x2="164.409"
         y1="100"
         y2="87"
         transform="matrix(-1,0,0,1,341.817,0)"
         id="line9" />
    </g>
    <g
       fill="#ffffff"
       fill-rule="nonzero"
       opacity="0.488"
       transform="matrix(-1,0,0,1,247.409,60)"
       id="g26">
      <polygon
         points="0,10 0,14 1,14 1,10 "
         id="polygon15" />
      <polygon
         points="1,11 1,14 2,14 2,11 "
         id="polygon16" />
      <polygon
         points="3,10 3,14 4,14 4,10 "
         id="polygon17" />
      <polygon
         points="4,8 4,14 5,14 5,8 "
         id="polygon18" />
      <polygon
         points="6,6 6,14 7,14 7,6 "
         id="polygon19" />
      <polygon
         points="8,7 8,14 9,14 9,7 "
         id="polygon20" />
      <polygon
         points="9,5 9,14 10,14 10,5 "
         id="polygon21" />
      <polygon
         points="11,2 11,14 12,14 12,2 "
         id="polygon22" />
      <polygon
         points="12,2 12,14 13,14 13,2 "
         id="polygon23" />
      <polygon
         points="14,5 14,14 15,14 15,5 "
         id="polygon24" />
      <polygon
         points="16,0 16,14 17,14 17,0 "
         id="polygon25" />
      <polygon
         points="17,2 17,14 18,14 18,2 "
         id="polygon26" />
    </g>
    <text
       fill="#ffffff"
       fill-rule="nonzero"
       font-family="RobotoMono-Regular, 'Roboto Mono'"
       font-size="10px"
       id="text-position"
       y="60"
       x="0"><tspan
         x="89.408997"
         y="73.420998"
         id="tspan26">x 320 y 235</tspan></text>
    <text
       fill="#ffffff"
       fill-rule="nonzero"
       font-family="RobotoMono-Regular, 'Roboto Mono'"
       font-size="10px"
       id="text-speed"
       y="60.038952"
       x="100.70459"><tspan
         x="190.11359"
         y="73.459938"
         id="tspan26-9">100u/s</tspan></text>
    <path
       fill="#ffffff"
       fill-rule="nonzero"
       d="m 251.42892,277.54635 c -0.0358,-0.0724 -0.0568,-0.16008 -0.0574,-0.24082 -0.004,-0.68541 -0.003,-1.37091 -0.003,-2.05633 v -0.17937 h -0.17581 c -0.50949,0 -1.01889,-0.005 -1.52819,0.003 -0.14406,0.002 -0.25202,-0.04 -0.36275,-0.13105 -1.40876,-1.15843 -3.02499,-1.81189 -4.8426,-1.92377 -2.10917,-0.12986 -4.02176,0.44282 -5.69818,1.7376 -0.30086,0.23239 -0.58556,0.34385 -0.95971,0.32066 -0.44228,-0.0274 -0.88745,-0.006 -1.35227,-0.006 v 0.18598 c 0,0.68546 0.002,1.37091 -0.003,2.05633 -5.3e-4,0.0805 -0.024,0.16766 -0.0599,0.24028 -1.29945,2.62844 -1.30508,5.25667 -0.009,7.88822 0.0421,0.0853 0.0684,0.1882 0.0687,0.28318 0.004,1.36581 0.003,2.73163 0.003,4.09753 V 290 h 14.91951 v -0.18495 c 0,-1.37092 -9.2e-4,-2.74183 0.002,-4.11266 2.8e-4,-0.0807 0.0224,-0.16816 0.0583,-0.2406 1.30581,-2.63916 1.30581,-5.27653 -8.3e-4,-7.91544 z m -14.55968,12.05545 v -3.33333 c 1.10858,1.5927 2.55636,2.69212 4.35172,3.33333 z m 6.82297,-0.001 c -1.41182,-0.043 -2.71509,-0.4212 -3.9362,-1.1471 1.31049,-1.75909 2.61303,-3.50743 3.9362,-5.2835 z m 7.2562,-10e-4 h -4.35598 c 1.80001,-0.63936 3.24617,-1.73684 4.35598,-3.33073 z m -6.82288,-0.006 v -6.42086 c 1.31839,1.77616 2.61845,3.52774 3.91852,5.27933 -0.84714,0.61932 -2.82131,1.19449 -3.91852,1.14153 z m 1.7552,-10.00983 c 0.001,0.0286 0.002,0.0573 0.002,0.0861 0,1.02533 -0.77335,1.8711 -1.76724,1.98324 4.6e-4,0.32687 0.001,0.60578 0.002,0.7399 3.7e-4,0.0626 0.0359,0.13394 0.0748,0.18653 1.37126,1.85148 2.74493,3.7012 4.11841,5.55091 0.026,0.0352 0.0547,0.0683 0.0857,0.10686 0.0317,-0.02 0.0572,-0.0348 0.0813,-0.0516 1.00648,-0.69557 1.81696,-1.5735 2.43005,-2.63294 0.0372,-0.0644 0.0509,-0.15101 0.0511,-0.22725 0.003,-1.86113 0.002,-3.72234 0.002,-5.58351 v -0.16494 z m -3.9807,1.7e-4 -5.03503,-10e-4 c -0.003,0.0506 -0.007,0.0898 -0.007,0.12897 -2.4e-4,1.88135 -9.3e-4,3.76279 0.002,5.64422 1.6e-4,0.0705 0.0207,0.15157 0.059,0.20954 0.22305,0.33735 0.43865,0.68137 0.68585,1.00054 0.50528,0.65244 1.1119,1.19988 1.80543,1.66764 0.0272,-0.0332 0.0437,-0.0519 0.0585,-0.0718 1.39158,-1.8679 2.7835,-3.73551 4.17237,-5.60554 0.0379,-0.051 0.06,-0.12671 0.0603,-0.19108 5.6e-4,-0.12791 0.001,-0.39402 0.002,-0.7079 -1.01205,-0.0945 -1.80535,-0.94879 -1.80535,-1.98723 0,-0.0288 6.1e-4,-0.0574 0.002,-0.086 z m -5.45918,4.97224 c -0.40962,-1.01659 -0.61412,-2.03319 -0.61397,-3.04978 1.7e-4,-1.01654 0.20498,-2.03314 0.61397,-3.04979 z m 14.93567,-7.4e-4 v -6.09492 c 0.81955,2.02971 0.8201,4.06247 0,6.09492 z m -8.97176,-5.67924 c -0.12632,0.23669 -0.19793,0.50688 -0.19793,0.7937 0,0.8678 0.65555,1.58342 1.49724,1.67647 9.1e-4,-0.5846 0.002,-1.22764 0.002,-1.4507 l 0.20323,0.15918 0.20452,-0.1603 v -9.7e-4 l -0.20452,0.16127 z m 2.98213,0.0206 -1.27331,0.99773 c 1.9e-4,0.22669 6.5e-4,0.86287 10e-4,1.44716 0.82326,-0.11008 1.45912,-0.81714 1.45912,-1.67181 0,-0.27853 -0.0676,-0.54139 -0.18711,-0.77308 z m 0.24674,-0.19332 c 0.0779,0.14076 0.13943,0.29197 0.18174,0.45095 l 5.14526,0.005 c 0,-0.50328 0.003,-0.99256 -0.003,-1.48169 -0.001,-0.0847 -0.0271,-0.17825 -0.0694,-0.25175 -0.35311,-0.61415 -0.78585,-1.16779 -1.28747,-1.66742 -0.0307,-0.0305 -0.065,-0.0574 -0.0985,-0.0869 z m -3.47505,-0.0202 -3.848,-3.01509 c -0.4574,0.44213 -0.84031,0.92523 -1.19151,1.43797 -0.18776,0.27416 -0.2901,0.55085 -0.26707,0.89048 0.026,0.38208 0.006,0.76731 0.006,1.15777 l 5.10862,-0.005 c 0.0444,-0.16493 0.10936,-0.32143 0.19194,-0.46649 z m 3.26368,-0.28892 3.64706,-2.91273 h -4.94546 l -0.0124,2.20452 c 0.52542,0.0582 0.98963,0.32154 1.31081,0.70821 z m -1.73952,-0.70964 0.0146,-2.2037 h -4.9498 l 3.62591,2.89561 c 0.3233,-0.38019 0.78637,-0.63753 1.30929,-0.69191 z m 7.26919,-2.1981 v 1.22235 c -0.33895,-0.41021 -0.67328,-0.81477 -1.01,-1.22235 z m -14.0781,-0.005 h 1.00628 c -0.3389,0.41021 -0.6715,0.81285 -1.00628,1.21814 z m 6.07945,-2.02387 c 2.1453,-0.22326 4.07836,0.30373 5.81292,1.57112 -0.004,0.0125 -0.009,0.025 -0.0134,0.0375 h -9.69138 c 0.36451,-0.55587 2.64281,-1.47862 3.89188,-1.6086 z m 2.22761,5.12962 c -0.30895,-0.36912 -0.77252,-0.60394 -1.29043,-0.60394 -0.50972,0 -0.96679,0.22738 -1.27558,0.58627 l 1.29418,1.03348 z"
       id="path26" />
  </g>
</svg>
