<svg xmlns="http://www.w3.org/2000/svg" width="341" height="196" viewBox="0 0 341 196"><g fill="none" fill-rule="evenodd"><polyline stroke="#FFF" points="67.409 25 90.072 3 155.409 3"/><polyline stroke="#FFF" points="185.408 25 208.071 3 273.408 3" transform="matrix(-1 0 0 1 458.816 0)"/><polyline stroke="#FFF" points="67.409 194 90.072 172 155.409 172" transform="matrix(1 0 0 -1 0 366)"/><polyline stroke="#FFF" points="185.409 194 208.072 172 273.409 172" transform="rotate(180 229.409 183)"/><line x1="105.409" x2="83.409" y1="99" y2="99" stroke="#FFF"/><line x1="63.788" y1="99" y2="99" stroke="#FFF"/><line x1="257.408" x2="235.408" y1="99" y2="99" stroke="#FFF" transform="matrix(-1 0 0 1 492.816 0)"/><line x1="340.793" x2="276.053" y1="99" y2="99" stroke="#FFF" transform="matrix(-1 0 0 1 616.846 0)"/></g></svg>