<svg xmlns="http://www.w3.org/2000/svg" width="932" height="932" viewBox="0 0 932 932"><path fill="none" stroke="#FFF" stroke-width="5" d="M795.328243,286 C810.303617,288.459373 822.062887,301.091605 824,316.940896 L824,316.940896 L824,614.624366 C821.839374,632.324397 807.422783,646 789.96393,646 L789.96393,646 L144.32167,646 C125.360313,646 110,629.889866 110,610.016147 L110,610.016147 L110,321.536694 C110,303.588241 122.553983,288.695373 138.957357,286 L138.957357,286 Z M252,358 L195,358 L195,576 L252,576 L252,358 Z M668.85963,355 L614,355 L614,573.14358 L665.265551,573.14358 L665.383117,572.684426 C667.442662,564.639984 668.576994,560.160666 668.809713,559.246474 C673.452065,564.835122 678.556157,569.032818 684.159427,571.814723 C689.737738,574.609047 698.086485,576 704.550837,576 C713.548515,576 721.310728,573.652768 727.862436,568.945884 C734.401664,564.251419 738.569798,558.687609 740.341879,552.291711 C742.11396,545.883394 743,536.146727 743,523.05687 L743,523.05687 L743,461.854959 L742.999733,461.178119 C742.989587,448.395594 742.690381,440.026897 742.11396,436.060242 C741.527426,432.023996 739.780304,427.913234 736.872594,423.703119 C733.964883,419.493004 729.734352,416.226749 724.19348,413.891936 C718.652607,411.557123 712.113379,410.389716 704.575796,410.389716 C698.024088,410.389716 689.637903,411.693734 684.047112,414.264513 C678.468801,416.835291 673.402148,420.734926 668.85963,425.963417 L668.85963,425.963417 L668.85963,355 Z M344.248903,357 L271,357 L271,575 L320.488821,575 L320.662162,431.056704 L341.487831,575 L376.737937,575 L396.486416,427.854654 L396.672138,575 L446,575 L446,357 L372.19393,357 L359.106693,458.845033 L358.961733,457.852729 C354.199382,425.252792 351.548659,407.116171 351.021579,403.466951 C348.656714,385.681924 346.403283,370.205352 344.248903,357 L344.248903,357 Z M509.198974,357.000387 L466,357 L466,575 L534.806638,575 L535.52352,574.977272 C550.971259,574.481309 560.913889,573.756263 565.351409,572.778423 C572.110093,571.301509 577.785893,568.695189 582.391258,564.984287 C586.984176,561.260974 590.207931,556.11039 592.050077,549.520125 C593.90467,542.942272 595,529.873442 595,510.326046 L595,510.326046 L595,433.774722 L594.999581,432.964025 C594.978632,412.784904 594.174408,399.229233 592.933809,392.297011 C591.664222,385.259949 588.515149,378.868261 583.474141,373.134358 C578.420687,367.400455 571.052103,363.279989 561.368391,360.772958 C551.770172,358.29125 536.18335,357.025701 509.198974,357.000387 L509.198974,357.000387 Z M676.958789,442.021467 C680.428074,442.021467 685.082906,443.424838 686.280933,446.244001 C687.46648,449.063164 688.065493,455.086485 688.065493,464.313965 L688.065493,464.313965 L688.065493,520.212869 L688.047262,520.783242 C687.686069,531.921612 687.167805,538.400608 686.480604,540.22023 C685.43233,542.989716 680.839896,544.393088 677.37061,544.393088 C673.976202,544.393088 671.717423,543.051812 670.569314,540.356842 C669.421205,537.674291 668.85963,531.551616 668.85963,521.963979 L668.85963,521.963979 L668.85963,464.313965 L668.860164,463.755577 C668.878649,454.14606 669.377881,448.134769 670.369643,445.709975 C671.367998,443.263389 673.56438,442.021467 676.958789,442.021467 Z M522.745562,394.282778 C528.931687,394.282778 533.151196,394.940564 535.391644,396.231312 C537.632092,397.534472 539.075936,399.569883 539.698283,402.349957 C540.320629,405.130031 540.644249,411.434842 540.644249,421.289212 L540.644249,421.289212 L540.644249,505.808426 L540.643598,506.464032 C540.615369,520.584931 539.669805,529.252889 537.818796,532.479761 C535.926862,535.756277 530.898302,537.382124 522.745562,537.382124 L522.745562,537.382124 Z"/></svg>