<svg xmlns="http://www.w3.org/2000/svg" width="1991" height="1991" viewBox="0 0 1991 1991"><g fill="none" fill-rule="evenodd"><polyline stroke="#FFF" stroke-width="5" points="567.427 403 454.966 772.253 264.187 916.529 142.237 1034.848 111 849.135 434.436 286.221 558.279 152.778 858.449 66 1125.566 66 1622.941 165.546 1735 286.221 1790.867 405.667 1873.551 976 1755.713 1012.444 1735 1100 1521 1209.721"/><polyline stroke="#FFF" stroke-width="5" points="697.218 1229.999 625.546 1326.029 593.122 1263.704 500.012 1377.662 441.559 1238.05 557.086 1054.804 485.438 947.224 636.985 682.296 769.054 960"/><polygon stroke="#FFF" stroke-width="5" points="1688.606 451.159 1537.237 579.781 1580.196 841.552 1720 724.692 1725.877 579.781 1698.979 528.632 1631.557 627.331"/><line x1="1564" x2="1597" y1="322.85" y2="525.002" stroke="#FFF" stroke-width="5"/><polyline stroke="#FFF" stroke-width="5" points="1706.178 744.971 1767.66 902.466 1612.596 1238.768 1615.524 1096.835 1597 1048.248 1576.436 1089.297 1584.62 1102 1604.275 1089.297"/><polyline stroke="#FFF" stroke-width="5" points="531.698 862.64 407.649 942.247 367.13 842.491"/><polyline stroke="#FFF" stroke-width="5" points="1845.007 1882.035 1721.144 1782.596 1565.11 1736.679 1525.004 1723.064 1325.532 1518.247 1341.773 1499.887 1303.905 1479.675 1255.948 1425.571 1240.513 1459.206 1317 1553.912 1156.386 1667.166 1064.172 1658.737 951.841 1667.166 910.283 1601.43 968.375 1518.247 940.561 1469.734 953.415 1436.153 1166.587 1425.571 1263.282 1405.389 1263.282 1412.461"/><polyline stroke="#FFF" stroke-width="5" points="560.82 1916.831 598.969 1882.035 586.596 1817.198 625.53 1753.885 740.844 1733.291 895.099 1626.059 876.321 1613.61 931 1538.884 923.075 1513 938.767 1474.47"/><polyline stroke="#FFF" stroke-width="5" points="1010 1432.399 1024.956 1360.23 698.076 1225.273 557.086 1054.804"/><polyline stroke="#FFF" stroke-width="5" points="1213.678 1412.461 1194.446 1373.922 1204.062 1297.791"/><polyline stroke="#FFF" stroke-width="5" points="1000.597 1341.037 1213.678 1291.747 1369.22 1193.351 1448.599 918.686 1469.956 622.974 1381.583 521.291 1376.888 645 1263.884 637.321 1089.854 627.331"/><polyline stroke="#FFF" stroke-width="5" points="1127.57 321.855 1150.557 440.793 1071.381 672.904 971.658 809.744 953.404 810.931 826.622 671.108 730.602 528.155 679.613 368.037 685.796 287.482"/><polyline stroke="#FFF" stroke-width="5" points="819.541 675.732 762.646 767.513 593.122 905.788 616.391 1018.495 645 1085 759.778 1145.159 919.662 1067.966 833.347 812.136 804.319 772.253 769.054 767.513"/><polyline stroke="#FFF" stroke-width="5" points="1151.465 447.845 1291.959 675.732 1273.32 686.149 1144.963 725.389 1144.963 744.971 1223.48 931.164 1259.898 986 1410.5 951.943 1416.092 914.667 1419.5 707.442 1312.337 653.87 1300.663 672.904"/><polyline stroke="#FFF" stroke-width="5" points="426.164 298.359 217.078 559.339 250.132 613.594"/><polyline stroke="#FFF" stroke-width="5" points="712.653 1101.168 636.721 952.034 665.937 881.646 784 820.273 855.455 888.99"/><polyline stroke="#FFF" stroke-width="5" points="751.043 813.388 774.819 890.234 784 947.224"/><polyline stroke="#FFF" stroke-width="5" points="823.897 867.919 792.669 949.509 804.848 958 826.622 916.529 855.455 966.756 817.406 976 810.894 1005.881 801.065 1022.695 778.174 1008.1 759.778 981.736 762.646 962.878 786.5 947.224"/><line x1="756.392" x2="671.294" y1="970" y2="890.193" stroke="#FFF" stroke-width="5"/><line x1="753.653" x2="683.273" y1="978.655" y2="978.655" stroke="#FFF" stroke-width="5"/><line x1="756.392" x2="671.294" y1="987.967" y2="1054.804" stroke="#FFF" stroke-width="5"/><line x1="773.287" x2="697.218" y1="1018.495" y2="1101.168" stroke="#FFF" stroke-width="5"/><polyline stroke="#FFF" stroke-width="5" points="778.174 1018.495 759.778 1066.515 741.588 1108.372"/><line x1="801.065" x2="804.848" y1="1026.895" y2="1131.476" stroke="#FFF" stroke-width="5"/><line x1="814.434" x2="855.455" y1="1005.881" y2="1079.185" stroke="#FFF" stroke-width="5"/><polyline stroke="#FFF" stroke-width="5" points="824.547 990.193 872.726 1029.979 902.479 1057.406"/><line x1="858.743" x2="866.744" y1="968" y2="1021.385" stroke="#FFF" stroke-width="5"/><polyline stroke="#FFF" stroke-width="5" points="1275.199 704.696 1288.016 795.114 1282.232 803.337 1223.48 716.923 1277.022 800.657 1269.98 812.136 1183.889 738.617 1266.4 814.907 1261 831.865 1144.963 835.772 1262.172 836.499 1275.199 849.66 1204.086 920.484 1278.303 851.476 1280.918 855.615 1223.105 974 1284 858.894 1307.317 857.357 1309.543 964.836 1311 855.615 1318 851.476 1363 951.943 1319.537 848.704 1385.478 892.685 1321.503 845.498 1325.137 833.873 1392.138 887.285 1327.457 831.865 1385.478 829.691 1403.914 863.579 1407.181 860.359 1427 914.667 1395.853 824 1327.457 828.752 1319.537 822.422 1341.708 800.657 1385.478 782.433 1338.506 795.114 1314.5 818.554 1318 795.114 1357.694 724.088 1312.337 795.114 1307.317 795.114 1308.999 704.696 1299.494 788.541 1291.959 795.114"/><polyline stroke="#FFF" stroke-width="5" points="1346 671.108 1390.381 776.122 1385.478 788.541 1407.181 851.476 1410.5 945.966 1351.346 1004.865 1198.943 1013.896 1165.204 978.621 1095.221 767.513 1117.343 699.953 1275.199 650.364 1300.663 653.87"/><polyline stroke="#FFF" stroke-width="5" points="1630.73 808.146 1650.335 905.788 1377.645 1333.694 1338.506 1209.721"/></g></svg>