<svg xmlns="http://www.w3.org/2000/svg" width="932" height="932" viewBox="0 0 932 932"><path fill="none" stroke="#FFF" stroke-width="5" d="M667.648295 455.100835 667.648295 461.899165 675.351705 461.899165 675.351705 455.100835 667.648295 455.100835ZM682.978373 457 682.978373 465.317019 680 465.317019 680 471.64415 682.978373 471.64415 682.978373 485.251278C682.978351 488.81107 683.660417 491.325022 685.028652 492.793822 686.410205 494.262623 688.508842 495 691.325546 495 692.586366 495 693.654625 494.91756 694.526501 494.762642 695.398377 494.624441 696.221567 494.426586 696.999454 494.167359L696.999454 487.76546 696.395571 487.76546C696.154214 487.93824 695.725207 488.128423 695.108224 488.335782 694.504668 488.543141 694.015296 488.648022 693.639669 488.648022 692.727622 488.648022 692.030951 488.47341 691.548128 488.127622 691.078731 487.764658 690.750482 487.283875 690.562723 486.679088 690.361538 486.074301 690.255105 485.391426 690.241787 484.631149 690.227596 483.870803 690.219955 482.978348 690.219955 481.958729L690.219955 471.643921 697 471.643921 697 465.31679 690.219736 465.31679 690.219736 457 682.978373 457ZM667.85009 466 667.85009 495 675.14991 495 675.14991 466 667.85009 466ZM657.500055 488.9106C657.067535 488.9106 656.609275 489.2087 656.122745 489.80644 655.636215 490.40418 655.392455 490.97079 655.392455 491.50198 655.392455 492.01656 655.636215 492.57932 656.122745 493.19356 656.609275 493.7913 657.067535 494.0894 657.500055 494.0894 657.919045 494.0894 658.371585 493.7913 658.858115 493.19356 659.358175 492.57932 659.607545 492.01667 659.607545 491.50198 659.607545 490.97068 659.358065 490.40407 658.858115 489.80644 658.371585 489.2087 657.919045 488.9106 657.500055 488.9106L657.500055 488.9106ZM422 431.000687 422 496 436.371826 496 436.371826 474.824625 445.317731 474.824625C449.385139 474.824622 452.780967 474.16891 455.500925 472.859249 458.245827 471.549599 460.725822 469.615084 462.946666 467.054013 464.568618 465.162409 465.818097 462.833242 466.69149 460.068538 467.564883 457.274776 468 454.423236 468 451.513015 468 447.758866 467.402011 444.545336 466.204227 441.868032 465.031388 439.190616 463.325573 436.994802 461.079785 435.277773 459.208276 433.851777 457.048495 432.787884 454.603039 432.089471 452.182527 431.361922 449.200596 431 445.657133 431L422 431.000687ZM574.605599 433 574.605599 447.014122 569 447.014122 569 457.669112 574.605599 457.669112 574.605599 480.587078C574.605599 486.582446 575.896712 490.819121 578.471974 493.2935 581.072358 495.767316 585.023924 497 590.325644 497 592.698891 497 594.705678 496.872046 596.346692 496.610168 597.987706 496.37735 599.535307 496.04271 600.999543 495.606134L600.999543 484.822852 599.86408 484.822852C599.409575 485.113903 598.604828 485.435027 597.443442 485.784197 596.307294 486.13348 595.386293 486.307615 594.679413 486.307615 592.962572 486.307615 591.649989 486.013749 590.741094 485.43176 589.857435 484.8206 589.238943 484.009623 588.885389 482.990947 588.506711 481.972304 588.30127 480.82136 588.276147 479.540693 588.249881 478.260139 588.23732 476.760846 588.23732 475.043717L588.23732 457.669675 601 457.669675 601 447.014685 588.23732 447.014685 588.23732 433 574.605599 433ZM436 443 438.50311 443C440.906328 443 442.83332 443.045059 444.275274 443.130277 445.717228 443.187096 447.197514 443.553517 448.71533 444.235003 449.853721 444.746153 450.852287 445.654156 451.712402 446.96044 452.572517 448.23837 453 449.772919 453 451.56189 453 453.379324 452.786259 454.927171 452.356258 456.205101 451.951545 457.454567 451.283088 458.532587 450.347111 459.441249 449.25941 460.46355 447.903387 461.143288 446.284421 461.484091 444.690743 461.824862 442.652875 462 440.173795 462L436 462 436 443ZM629.630837 445.001129C622.29743 445.001129 616.517796 447.382747 612.294952 452.138867 608.097349 456.865852 606 463.282442 606 471.393944 606 479.593302 608.224336 485.908371 612.668765 490.344119 617.113305 494.779303 623.505871 497 631.851935 497 635.086582 497 638.037212 496.678047 640.703936 496.036173 643.37066 495.3943 646.207594 494.360233 649.219986 492.930472L649.219986 480.277071 647.741041 480.277071C646.210162 481.648449 644.125992 482.936036 641.48395 484.132378 638.841909 485.32872 636.113087 485.926213 633.298267 485.926213 628.853839 485.926213 625.480366 484.905924 623.184104 482.863311 620.912525 480.820812 619.681634 477.87445 619.484062 474.022757L650 474.022757 650 468.507433C650 460.920925 648.298912 455.109847 644.891487 451.082892 641.484062 447.027028 636.396322 445 629.630726 445L629.630837 445.001129ZM494.270708 445C491.048603 445 487.825821 445.303676 484.603717 445.918025 481.406581 446.503118 479.09499 447.014608 477.671317 447.453388L477.671317 459.350442 478.909814 459.350442C480.00878 458.853117 481.817945 458.14749 484.340697 457.240606 486.863449 456.304455 489.236388 455.839408 491.459402 455.839408 495.15614 455.839408 497.951289 456.364585 499.849595 457.417794 501.747902 458.441713 502.699315 460.312578 502.699315 463.033231L502.699315 463.296284C498.727807 463.559575 494.89312 463.969835 491.196721 464.525729 487.499984 465.081566 484.405661 466.01705 481.907877 467.333447 479.385125 468.649958 477.434283 470.452292 476.060547 472.734221 474.686698 475.016037 474 477.956335 474 481.554662 474 486.059873 475.346733 489.76055 478.04438 492.656805 480.742027 495.553061 484.093043 497 488.089519 497 489.788075 497 491.345856 496.824963 492.769643 496.473871 494.193429 496.15199 495.566939 495.640579 496.890737 494.938508 497.83989 494.411926 498.852651 493.692646 499.926761 492.785762 501.000759 491.878877 501.898618 491.104799 502.623052 490.461149L502.623052 495.684735 516 495.684735 516 462.158319C516 456.248853 514.292519 451.916414 510.870551 449.166437 507.473552 446.38725 501.939292 445 494.271386 445L494.270708 445ZM547.448534 445.001404C540.868721 445.001404 535.676769 446.582268 531.866973 449.741733 528.082241 452.871987 526.190098 456.802467 526.190098 461.541324 526.190098 465.227365 527.100309 468.315389 528.930801 470.801999 530.761294 473.259397 533.56913 475.075416 537.353751 476.245638 538.739039 476.68446 540.273923 477.061952 541.955939 477.383707 543.662683 477.676251 545.009706 477.957892 545.999134 478.221192 548.077011 478.718514 549.490271 479.243699 550.232314 479.799566 550.974358 480.326143 551.34482 481.187733 551.34482 482.387166 551.34482 483.732876 550.712315 484.755802 549.450775 485.45798 548.189235 486.130835 546.249428 486.46732 543.627438 486.46732 541.623855 486.46732 539.744915 486.232166 537.988605 485.764009 536.232406 485.266755 534.657691 484.686739 533.272402 484.013883 531.664568 483.253284 530.418132 482.547709 529.527613 481.904064 528.661822 481.231209 527.89438 480.618472 527.226519 480.062685L526 480.062685 526 493.048801C527.830492 494.043422 530.254663 494.951545 533.272402 495.770678 536.290253 496.589811 539.656523 497 543.366962 497 550.070524 497 555.350196 495.451856 559.209222 492.350925 563.068025 489.220671 565 485.109835 565 480.019209 565 476.537979 564.158488 473.638689 562.47636 471.327682 560.794232 468.98735 558.195515 467.27787 554.682894 466.195392 553.099787 465.727325 551.517239 465.344444 549.934132 465.051889 548.375752 464.730089 546.914939 464.412727 545.554378 464.090927 543.080752 463.476583 541.511519 462.858548 540.843546 462.244114 540.175685 461.62977 539.839572 460.740804 539.839572 459.570581 539.839572 458.283405 540.572776 457.287765 542.032135 456.585699 543.516333 455.883588 545.334405 455.533473 547.486464 455.533473 550.083727 455.533473 552.642835 456.044958 555.165916 457.068824 557.713724 458.063479 559.97644 459.362736 561.955296 460.971678L563.105843 460.971678 563.105843 448.510893C561.497897 447.662516 559.26181 446.869344 556.392323 446.138068 553.547676 445.377458 550.565182 445 547.44831 445L547.448534 445.001404ZM627.958077 455.65967C630.676781 455.65967 632.679054 456.470172 633.965556 458.09023 635.252057 459.71031 635.927204 462.12855 636 465.34033L619 465.34033C619.194123 461.95805 620.100394 459.49988 621.726829 457.96505 623.353155 456.43022 625.433495 455.65967 627.957967 455.65967L627.958077 455.65967ZM503 473 503 483.433198C501.944637 484.503089 500.713569 485.364454 499.306456 486.018327 497.924574 486.672201 496.556329 487 495.199564 487 493.490934 487 492.238387 486.863935 491.43442 486.596404 490.630452 486.299199 489.933999 485.854658 489.356084 485.260248 488.753052 484.665839 488.376753 484.037959 488.226052 483.384086 488.075351 482.730212 488 481.888285 488 480.848069 488 479.272907 488.354932 478.008751 489.058432 477.057673 489.787048 476.076932 490.827296 475.332298 492.184062 474.827027 493.289545 474.410952 494.910549 474.055272 497.046279 473.758079 499.182008 473.431165 501.165787 473.178323 503 473L503 473ZM241.540543 429 241.540543 441.138144 254.455942 441.138144 254.455942 467.413907C254.455942 470.102152 254.415275 472.322657 254.339585 474.065664 254.263772 475.779067 253.939732 477.356218 253.358905 478.803735 252.752822 480.280744 251.72885 481.435236 250.2894 482.262388 248.875183 483.08954 246.840825 483.503789 244.18914 483.503789 242.14363 483.503789 240.465923 483.280068 239.152754 482.836999 237.839585 482.364336 236.575194 481.861664 235.36296 481.329936L234 481.329936 234 494.715088C235.742481 495.128664 237.763321 495.435258 240.061395 495.642158 242.359468 495.878551 244.807142 496 247.408246 496 251.246705 496 254.469979 495.497272 257.071083 494.492937 259.672187 493.458997 261.892982 492.011705 263.736397 490.150612 265.478878 488.407604 266.791934 486.28085 267.675791 483.7699 268.55966 481.229345 269 478.511607 269 475.616575L269 429.000673 241.540543 429ZM383.605673 431 383.605673 445.233347 378 445.233347 378 456.054731 383.605673 456.054731 383.605673 479.33077C383.605673 485.419748 384.891372 489.722628 387.466486 492.235597 390.06694 494.748004 394.018526 496 399.320006 496 401.693188 496 403.700121 495.870065 405.341144 495.604025 406.98228 495.367494 408.535344 495.027622 409.999662 494.584295L409.999662 483.632641 408.864089 483.632641C408.409657 483.928192 407.599226 484.254263 406.437862 484.609058 405.301726 484.963742 404.380699 485.140579 403.673768 485.140579 401.95695 485.140579 400.644222 484.842223 399.735358 484.251009 398.851722 483.630284 398.233199 482.806691 397.879677 481.772151 397.500927 480.73761 397.301135 479.568647 397.275908 478.268066 397.250004 476.967484 397.237616 475.444735 397.237616 473.700827L397.237616 456.055292 410 456.055292 410 445.233908 397.237616 445.233908 397.237616 431 383.605673 431ZM355.995982 444C349.246498 444 343.920937 445.611349 340.012507 448.831556 336.130224 452.021994 334.189253 456.028067 334.189253 460.858944 334.189253 464.61589 335.128498 467.763203 337.006197 470.297716 338.883896 472.802346 341.764113 474.653427 345.646396 475.846093 347.067376 476.293345 348.64184 476.678117 350.3673 477.006046 352.118113 477.304218 353.499816 477.591286 354.514785 477.859633 356.646255 478.366524 358.090325 478.901803 358.851524 479.468378 359.612722 480.005083 359.992812 480.883232 359.992812 482.105779 359.992812 483.477394 359.349557 484.519972 358.055463 485.235661 356.761368 485.921469 354.766066 486.264317 352.076346 486.264317 350.021053 486.264317 348.093664 486.024584 346.292142 485.547495 344.490619 485.040638 342.88084 484.449569 341.45986 483.763761 339.810578 482.988523 338.526444 482.269336 337.613005 481.61341 336.724921 480.927613 335.937689 480.303142 335.252554 479.736635L334 479.736635 334 492.972874C335.877699 493.986588 338.364243 494.912129 341.459973 495.747006 344.55559 496.581882 348.003113 497 351.809219 497 358.685588 497 364.107247 495.422042 368.06548 492.261485 372.023826 489.071047 374 484.881043 374 479.693057 374 476.14483 373.136704 473.189824 371.411245 470.834262 369.685786 468.448932 367.025609 466.706511 363.422451 465.603265 361.798523 465.126188 360.169614 464.735948 358.545686 464.437765 356.947112 464.109779 355.454144 463.78631 354.058632 463.458324 351.521265 462.832167 349.90594 462.20216 349.220804 461.576003 348.535669 460.949845 348.19644 460.043773 348.19644 458.851108 348.19644 457.539142 348.942924 456.524409 350.439967 455.808833 351.962365 455.093223 353.827386 454.736374 356.034919 454.736374 358.699171 454.736374 361.324259 455.257696 363.912335 456.301315 366.525878 457.315097 368.852373 458.639333 370.882311 460.279318L372.062537 460.279318 372.062537 447.579591C370.413254 446.7149 368.113812 445.906555 365.170435 445.161097 362.252412 444.385859 359.193016 444.001143 355.995869 444.001143L355.995982 444ZM281 445 281 477.303877C281 483.461433 282.272411 488.116535 284.813833 491.269295 287.380649 494.421719 291.026588 496 295.753465 496 298.676021 496 301.193749 495.424361 303.303023 494.275321 305.412296 493.096866 307.736964 491.388963 310.278272 489.149933L310.278272 494.632201 324 494.632201 324 445 310.278272 445 310.278272 480.180281C308.956774 481.152526 307.586528 481.885277 306.163341 482.386206 304.740154 482.887024 303.440535 483.137657 302.271512 483.137657 300.517979 483.137657 299.147733 482.887024 298.156581 482.386206 297.190823 481.885355 296.464945 481.091998 295.982009 480.001897 295.473679 478.911807 295.141973 477.542767 294.989497 475.892908 294.862414 474.213636 294.79995 472.120109 294.79995 469.615908L294.79995 445 281 445Z"/></svg>