<svg xmlns="http://www.w3.org/2000/svg" width="932" height="932" viewBox="0 0 932 932"><path fill="none" stroke="#FFF" stroke-width="5" d="M686.111961,311.996662 L728.007586,271.921305 L727.972648,263.0805 L583.144753,263.0805 L479.918005,520.631785 L362.484977,263.112942 L210.568665,263.112942 L210.568665,271.921305 L259.517269,330.848196 C261.883569,332.978414 263.714319,335.636695 264.860783,338.607422 C266.007248,341.577649 266.436985,344.77647 266.115057,347.944346 L266.115057,579.587125 C266.81731,583.704815 266.542298,587.93231 265.311483,591.925222 C264.080668,595.913142 261.928988,599.561665 259.029635,602.566331 L203.937936,669.362751 L203.937936,678.137175 L360.014862,678.137175 L360.014862,669.362751 L304.955605,602.566331 C302.032794,599.561665 299.831701,595.933107 298.519531,591.950177 C297.207859,587.972239 296.818551,583.744744 297.382549,579.587125 L297.382549,379.277722 L434.378848,678.167121 L450.305574,678.167121 L567.966697,379.277722 L567.966697,617.519785 C567.966697,623.823594 567.966697,625.061397 563.804087,629.219016 L521.454268,670.306077 L521.454268,679.0805 L726.969429,679.0805 L726.969429,670.306077 L686.111961,630.197279 C684.345098,628.844681 682.977526,627.042879 682.158979,624.971556 C681.340432,622.905225 681.100857,620.654221 681.46521,618.46311 L681.46521,323.730332 C681.100857,321.536726 681.340432,319.286221 682.158979,317.218891 C682.977526,315.15206 684.345098,313.346765 686.111961,311.996662 Z"/></svg>