<svg xmlns="http://www.w3.org/2000/svg" width="932" height="932" viewBox="0 0 932 932"><path fill="none" stroke="#FFF" stroke-width="5" d="M418.571465,785.576314 C417.783829,784.79332 417.139501,764.825624 417.139501,741.2037 L417.139501,698.254756 L402.64203,694.500979 C327.300504,674.99307 261.157998,609.572096 238.736442,532.383323 L233.941391,515.875508 L189.97061,515.299279 L146,514.723034 L146.241414,464.538655 L146.482828,414.354275 L190.151893,413.778217 L233.820958,413.202177 L237.576811,400.96518 C251.545587,355.452135 270.865936,323.774768 303.78857,292.405986 C332.845898,264.720009 364.31147,246.332376 400.451642,235.918796 L417.054275,231.134846 L417.633842,187.139945 L418.213393,143.14506 L469.22303,142.572539 L520.232667,142 L520.232667,186.884293 C520.232667,221.887762 520.8368,231.768552 522.977016,231.768552 C524.486467,231.768552 533.426534,234.252371 542.843928,237.28813 C616.531654,261.041885 673.192001,317.072944 697.142603,389.873346 L704.494177,412.218772 L748.747097,412.795973 L793,413.373175 L793,464.581989 L793,515.790786 L748.903285,515.790786 C715.455564,515.790786 704.626312,516.435406 704.060667,518.460174 C690.283816,567.7643 670.425667,602.964747 638.530361,634.618269 C607.107222,665.803413 572.768087,684.797798 522.917397,698.568619 C520.88113,699.131114 520.232667,709.898409 520.232667,743.155139 L520.232667,787 L470.118048,787 C442.554883,787 419.35893,786.359342 418.571465,785.576314 Z M502.268064,713.079272 L502.268064,673.158559 L513.842284,670.787633 C592.217487,654.732815 659.015108,588.253331 675.278922,510.119622 L677.676529,498.601572 L717.792011,498.601572 L757.907317,498.601572 L757.907317,464.548243 L757.907317,430.494915 L717.864633,430.494915 C675.29791,430.494915 675.378105,430.51334 675.378105,420.760606 C675.378105,414.754517 665.14497,385.848773 657.960987,371.562203 C630.093334,316.142229 577.664014,274.384772 518.371329,260.385482 L503.274522,256.821058 L502.729586,216.410529 L502.184491,176 L468.510155,176.549019 L434.835659,177.098054 L434.290724,217.661579 C433.779281,255.736207 433.515195,258.225121 429.986972,258.225121 C422.043712,258.225121 390.038811,268.813928 374.551342,276.565931 C323.413331,302.162486 286.923666,343.971742 268.1215,398.511566 C265.260113,406.811273 262.31128,417.384555 261.568443,422.007731 L260.217704,430.413537 L219.707045,430.95501 L179.196402,431.496482 L178.644551,465.049035 L178.092683,498.601572 L218.921046,498.601572 L259.749425,498.601572 L263.312102,514.125893 C270.024107,543.37203 283.456794,570.860045 303.342395,596.041527 C333.620066,634.382749 376.111573,660.118393 428.293713,671.720129 L433.829201,672.95083 L433.829201,712.975415 L433.829201,753 L468.048632,753 L502.268064,753 L502.268064,713.079272 Z M421.60111,614.868347 C397.359682,607.279935 379.990773,596.386932 359.055441,575.642368 C341.327649,558.076037 337.140607,552.490433 328.636367,535.062172 C323.212574,523.946653 318.150384,511.735416 317.387466,507.926065 L316,501 L374.000085,501 L432,501 L432,559.60516 C432,591.837999 431.759504,618.115512 431.465452,618 C431.171571,617.883707 426.732553,616.474671 421.60111,614.868347 Z M417,556.519317 L417,516 L376.5,516 L336,516 L339.303267,523.888455 C347.07679,542.451985 364.90359,564.691169 383.027204,578.434591 C391.142013,584.588257 412.668086,596.934207 415.39702,597 C416.278791,597.021303 417,578.804932 417,556.519317 Z M505,560.000017 L505,501 L564.011587,501 C596.468049,501 623.012711,501.240791 623,501.53506 C622.843826,505.125303 615.698357,524.313167 611.164379,533.315966 C590.210338,574.923129 555.935366,603.404091 509.828225,617.521616 L505,619 L505,560.000017 Z M537.713045,590.072367 C555.655151,580.78812 583.915284,553.186143 594.119707,534.979356 C598.453794,527.246317 602,519.812447 602,518.459628 C602,516.687492 590.540358,516 561,516 L520,516 L520,556.5 C520,582.138142 520.793595,597 522.162727,597 C523.352159,597 530.349779,593.882581 537.713045,590.072367 Z M316,426.203762 C316,425.215823 317.961342,418.756301 320.358337,411.849244 C334.564116,370.915519 374.419148,331.403948 415.708785,317.32068 C422.676014,314.944297 429.191598,313 430.188175,313 C431.184736,313 432,338.875002 432,370.5 L432,428 L374,428 C342.099992,428 316,427.191702 316,426.203762 L316,426.203762 Z M417,372.5 L417,332 L411.131544,334.530819 C382.977417,346.672592 350.312565,379.320824 338.49386,407.131533 L336,413 L376.5,413 L417,413 L417,372.5 Z M505.040781,370.296172 C505.040781,304.337527 503.092862,309.147378 526.122119,318.242472 C566.725312,334.278149 600.863138,368.605622 616.607558,409.23074 C620.123522,418.302551 623,426.236832 623,426.862453 C623,427.488108 596.459265,428 564.020391,428 L505.040781,428 L505.040781,370.296172 Z M602,411.208972 C602,407.609441 589.750573,387.428002 580.165727,375.235755 C569.630019,361.834384 549.115516,345.422035 532.511476,337.110707 C526.895945,334.299822 521.783624,332 521.150763,332 C520.517902,332 520,350.224996 520,372.5 L520,413 L561,413 C583.549998,413 602,412.194048 602,411.208972 L602,411.208972 Z"/></svg>