<svg xmlns="http://www.w3.org/2000/svg" width="932" height="932" viewBox="0 0 932 932"><g fill="none" fill-rule="evenodd"><circle cx="633.811" cy="297.199" r="54.189" stroke="#FFF" stroke-width="5"/><circle cx="465.495" cy="297.199" r="54.199" stroke="#FFF" stroke-width="5"/><circle cx="465.505" cy="633.811" r="54.189" stroke="#FFF" stroke-width="5"/><path stroke="#FFF" stroke-width="5" d="M492.696893,418.685676 L492.850635,418.685676 C480.602552,409.0717 480.377064,395.901168 480.377064,381.35721 C480.377064,366.813253 480.602552,353.632471 492.850635,344.018495 L492.696893,344.018495 C508.829514,334.630007 519.704171,317.205956 519.704171,297.199046 C519.704171,267.260428 495.433494,243.010249 465.515374,243.010249 C445.498215,243.010249 428.063915,253.884907 418.685676,270.007278 L418.685676,269.853537 C409.0717,282.09137 395.901168,282.316857 381.35721,282.316857 C366.813253,282.316857 353.642721,282.101619 344.038994,269.853537 L344.038994,270.007278 C334.630007,253.884907 317.205956,243.010249 297.199046,243.010249 C267.260428,243.010249 243,267.260428 243,297.199046 C243,327.127416 267.260428,351.387843 297.199046,351.387843 C317.205956,351.387843 334.640256,340.502937 344.028745,324.380565 L344.028745,324.544556 C353.642721,312.296474 366.803003,312.060737 381.346961,312.060737 C395.890918,312.060737 409.061451,312.286224 418.675427,324.544556 L418.675427,324.390815 C423.400419,332.518622 430.185549,339.293503 438.323606,344.028745 L438.159615,344.028745 C450.407697,353.642721 450.622936,366.823502 450.622936,381.36746 C450.622936,395.911417 450.407697,409.081949 438.159615,418.695926 L438.303107,418.695926 C422.180736,428.084414 411.306078,445.508464 411.306078,465.515374 C411.306078,495.433494 435.566506,519.693922 465.505125,519.693922 C495.423244,519.693922 519.693922,495.433494 519.693922,465.515374 C519.693922,445.498215 508.829514,428.074164 492.696893,418.685676 L492.696893,418.685676 Z"/><ellipse cx="297.153" cy="465.251" stroke="#FFF" stroke-width="5" rx="54.153" ry="54.251"/><path stroke="#FFF" stroke-width="5" d="M660.494431,585.973291 C649.319592,576.430413 649.002067,563.624486 649.002067,549.515392 C649.002067,535.365253 649.309349,522.559326 660.535402,512.995925 C677.476908,503.83271 688.989757,485.875681 688.989757,465.25075 C688.989757,435.288164 664.745171,411 634.836346,411 C604.92752,411 580.672691,435.288164 580.672691,465.25075 C580.672691,485.280533 591.55049,502.734766 607.682819,512.133988 L606.822428,512.133988 C619.05227,521.758955 619.277611,534.944545 619.277611,549.515392 C619.277611,564.065716 619.062513,577.251306 606.822428,586.876273 L607.662334,586.876273 C591.55049,596.275495 580.682934,613.729728 580.682934,633.74925 C580.682934,663.711836 604.937763,688 634.846588,688 C664.755414,688 689,663.711836 689,633.74925 C688.989757,613.083275 677.456422,595.126246 660.494431,585.973291 Z"/><ellipse cx="297.153" cy="633.749" stroke="#FFF" stroke-width="5" rx="54.153" ry="54.251"/></g></svg>