<svg xmlns="http://www.w3.org/2000/svg" width="932" height="932" viewBox="0 0 932 932"><path fill="none" stroke="#FFF" stroke-width="5" d="M547.890244 303.044901C570.529005 303.044901 583.518457 318.239408 583.518457 344.181249L583.518457 349.740215 563.292024 349.740215 563.292024 345.478341C563.292024 330.283834 557.910679 322.315983 547.70468 322.315983 542.694463 322.130684 538.055372 324.724868 535.643045 329.172041 533.453395 333.545094 532.699182 337.201452 532.67465 347.717178L532.674028 388.838275C532.3029 396.064931 533.045155 403.476886 534.900791 410.518243 535.828609 413.483024 537.684245 416.077209 540.096572 417.744898 542.508899 419.597887 545.477917 420.524381 548.632498 420.339083 559.209624 420.339083 563.848715 412.55653 563.848715 394.026644L563.848715 382.167516 547.147989 382.167516 547.147989 365.30532 584.075148 365.30532 584.075148 437.942475 573.683586 437.942475 569.972314 426.639244C564.962096 435.348291 555.498352 440.35136 545.477917 439.980762 534.158537 440.35136 523.766974 434.421796 518.38563 424.415658 514.173095 416.002608 512.672186 407.589558 512.633912 389.733351L512.633158 352.334399C512.633158 331.210328 514.117666 323.613075 520.241266 315.459925 526.921556 307.121476 537.313118 302.489004 547.890244 303.044901ZM379.21292 303.044901C391.831246 303.044901 401.666117 307.492074 407.604153 315.830523 412.985498 323.427776 415.026697 332.322122 415.026697 347.33133L415.026697 395.694333C415.026697 410.703542 412.799934 419.597887 407.604153 427.195141 401.666117 435.533589 391.831246 439.980762 379.21292 439.980762 366.594595 439.980762 356.759723 435.533589 350.821688 427.195141 345.440343 419.597887 343.399143 410.703542 343.399143 395.694333L343.399143 347.33133C343.399143 332.322122 345.625906 323.427776 350.821688 315.830523 356.759723 307.492074 366.594595 303.044901 379.21292 303.044901ZM448.799275 305.083188 448.799275 398.473816C448.799275 414.22422 452.881674 420.524381 463.273237 420.524381 473.664799 420.524381 477.561635 414.22422 477.561635 398.473816L477.561635 305.083188 497.788069 305.083188 497.788069 395.138437C497.788069 411.815335 495.746869 420.339083 490.365524 427.936336 483.685234 436.089486 473.664799 440.536659 463.273237 439.795463 452.696111 440.35136 442.675676 435.904187 435.995386 427.936336 430.242914 420.153784 428.572841 411.815335 428.572841 395.138437L428.572841 305.083188 448.799275 305.083188ZM622.115689 305.268487 622.115689 362.155239 651.063612 362.155239 651.063612 305.268487 671.290046 305.268487 671.290046 438.127774 651.063612 438.127774 651.063612 381.055723 622.301252 380.870424 622.301252 437.942475 601.889255 437.942475 601.889255 305.268487 622.115689 305.268487ZM279.379697 305.083188 279.379697 361.96994 308.32762 361.96994 308.32762 305.083188 328.554054 305.083188 328.554054 437.942475 308.32762 437.942475 308.32762 380.870424 279.379697 380.870424 279.379697 437.942475 259.153263 437.942475 259.153263 305.083188 279.379697 305.083188ZM249.132828 304.897889 249.132828 323.798374 226.679631 323.798374 226.679631 437.757176 206.267633 437.757176 206.267633 323.798374 184 323.798374 184 304.897889 249.132828 304.897889ZM747 305.083188 747 323.983673 724.546803 323.983673 724.546803 437.757176 704.134806 437.757176 704.134806 323.983673 681.867172 323.983673 681.867172 305.083188 747 305.083188ZM372.119048 323.941509C369.904762 325.235849 367.875 327.084906 366.583333 329.118868 364.553571 333.001887 364 336.7 364 347.239623L364 394.760377C364 405.3 364.553571 408.628302 366.583333 412.881132 367.875 415.1 369.904762 416.949057 372.119048 418.058491 376.732143 420.64717 382.267857 420.64717 386.880952 418.058491 389.095238 416.764151 391.125 414.915094 392.416667 412.881132 394.594048 408.699182 394.987186 405.589994 394.999686 395.290326L395 347.239623C395 336.515094 394.630952 333.371698 392.416667 329.118868 391.125 326.9 389.095238 325.050943 386.880952 323.941509 382.267857 321.35283 376.732143 321.35283 372.119048 323.941509ZM704.78597 481.248347C729.194703 481.248347 743.199714 497.640679 743.199714 525.627589L743.199714 531.624783 721.391911 531.624783 721.391911 527.026934C721.391911 510.634602 715.589835 502.038622 704.585898 502.038622 699.183966 501.838716 694.182176 504.637407 691.581246 509.435163 689.21911 514.155535 688.406332 518.101868 688.380728 529.460879L688.3801 573.805053C687.979957 581.601407 688.780243 589.597666 690.780959 597.194113 691.781317 600.392617 693.782033 603.191308 696.382963 604.990466 698.983894 606.989531 702.185039 607.989064 705.586256 607.789157 716.990336 607.789157 721.992126 599.393085 721.992126 579.402435L721.992126 566.60842 703.985684 566.60842 703.985684 548.416929 744 548.416929 744 626.780274 732.795991 626.780274 728.79456 614.585978C723.192555 623.981583 713.188976 629.379059 702.185039 628.979246 689.980673 629.379059 678.776664 622.982051 672.974588 612.1871 668.428384 603.102193 666.811373 594.017286 666.773069 574.715693L666.772369 534.423474C666.772369 511.634134 668.573014 503.437968 674.975304 494.642082 682.177881 485.64629 693.38189 480.648627 704.78597 481.248347ZM615.353973 481.248347C628.95884 481.248347 639.562634 486.046103 645.964925 495.041895 651.767001 503.238061 653.967788 512.833573 653.967788 529.025999L653.967788 581.201594C653.967788 597.39402 651.566929 606.989531 645.964925 615.185698 639.562634 624.18149 628.95884 628.979246 615.353973 628.979246 601.749105 628.979246 591.145311 624.18149 584.743021 615.185698 578.940945 606.989531 576.740157 597.39402 576.740157 581.201594L576.740157 529.025999C576.740157 512.833573 579.141016 503.238061 584.743021 495.041895 591.145311 486.046103 601.749105 481.248347 615.353973 481.248347ZM223.013601 481.04844C247.222262 481.04844 261.427344 497.440773 261.427344 525.427682L261.427344 535.023194 239.819613 535.023194 239.819613 527.026934C239.819613 510.434695 234.017538 502.038622 223.213672 502.038622 217.811739 501.638809 212.80995 504.4375 210.209019 509.03535 207.408017 513.833105 206.807802 518.031142 206.807802 529.625718L206.807802 577.40337C206.407659 584.600004 207.207946 591.796638 209.208661 598.593459 210.409091 601.39215 212.209735 603.791027 214.810666 605.390279 217.211525 606.989531 220.212598 607.789157 223.213672 607.789157 234.617752 607.789157 240.219757 598.593459 240.219757 579.802248L240.219757 571.006363 262.227631 571.006363 262.227631 581.4015C262.227631 612.586913 248.822835 628.779339 223.413744 628.779339 209.208661 628.779339 198.004653 623.181957 191.802434 612.78682 186.458586 604.085513 185.030581 595.775468 185.000489 575.083903L185 534.223568C185 511.434227 186.600573 503.437968 193.202935 494.442176 200.405512 485.446383 211.60952 480.448721 223.013601 481.04844ZM420.684324 483.247412 420.684324 503.637874 396.275591 503.637874 396.475662 626.580368 374.66786 626.580368 374.66786 503.637874 350.459198 503.637874 350.459198 483.247412 420.684324 483.247412ZM538.526485 483.247412 538.526485 606.189905 568.937366 606.189905 568.937366 626.580368 516.718683 626.580368 516.718683 483.247412 538.526485 483.247412ZM325.250179 483.247412 353.860415 626.580368 331.452398 626.580368 327.250895 603.591121 293.838941 603.591121 289.837509 626.580368 268.229778 626.580368 295.439513 483.247412 325.250179 483.247412ZM474.903722 483.247412 503.513958 626.580368 481.105941 626.580368 476.704366 603.591121 443.292412 603.591121 439.290981 626.580368 417.883321 626.580368 445.093057 483.247412 474.903722 483.247412ZM607.904762 504.1C605.47619 505.5 603.25 507.5 601.833333 509.7 599.607143 513.9 599 517.9 599 529.3L599 580.7C599 592.1 599.607143 595.7 601.833333 600.3 603.25 602.7 605.47619 604.7 607.904762 605.9 612.964286 608.7 619.035714 608.7 624.095238 605.9 626.52381 604.5 628.75 602.5 630.166667 600.3 632.557292 595.771875 632.986857 592.406543 632.999697 581.23778L633 529.3C633 517.7 632.595238 514.3 630.166667 509.7 628.75 507.3 626.52381 505.3 624.095238 504.1 619.035714 501.3 612.964286 501.3 607.904762 504.1ZM309.899225 512 297 583 323 583 309.899225 512ZM460.899225 512 448 583 474 583 460.899225 512Z"/></svg>