<svg xmlns="http://www.w3.org/2000/svg" width="932" height="932" viewBox="0 0 932 932"><path fill="none" stroke="#FFF" stroke-width="5" d="M324.154555,270 L324.154555,280.457103 C306.139814,282.15322 297.551287,285.167877 292.185415,289.501082 C286.819236,293.835015 284.136222,299.393288 284.136349,306.17592 C284.136222,315.597067 288.544024,330.293522 297.359785,350.265321 L415.876848,574.95168 L467.986,475.181 L403.578197,331.61211 C396.1059,314.654987 385.947416,304.292103 382.881963,300.523433 C378.092027,294.682885 372.200452,290.113797 365.207287,286.816152 C358.213995,283.519235 351.878888,281.399554 340,280.457103 L340,270 L493.013946,270 L493.013946,280.457103 C475.00378,282.15322 466.417433,285.167877 461.052924,289.501082 C455.688107,293.835015 453.005774,299.393288 453.005896,306.17592 C453.005774,315.597067 457.412457,330.293522 466.22598,350.265321 L498.066,417.59 L531.754303,353.091564 C540.761257,331.235597 548.233962,316.068106 548.23427,307.589039 C548.233962,302.125322 545.455101,296.896776 539.897792,291.90339 C534.339739,286.910722 528.05094,283.377922 514.827811,281.304973 C513.869277,281.116932 512.240364,280.834305 509.940881,280.457103 L509.940881,270 L627,270 L627,280.457103 C613.201218,282.906882 602.756632,287.240454 595.666221,293.457822 C585.508674,302.690566 573.532385,316.821773 565.675343,335.851478 L511.592,446.191 L572.488923,574.95168 L668.778502,353.091564 C677.78316,331.235597 685.253996,316.068106 685.254289,307.589039 C685.253996,302.125322 682.475817,296.896776 676.919948,291.90339 C671.363297,286.910722 661.975147,283.377922 648.755352,281.304973 C647.797086,281.116932 646.168552,280.834305 643.869653,280.457103 L643.869653,270 L764,270 L764,280.457103 C750.204746,282.906882 739.762836,287.240454 732.674221,293.457822 C722.519234,302.690566 710.545995,316.821773 702.690934,335.851478 L562.430143,662 L551.796639,662 L482.034,506.496 L405.815518,662 L395.179308,662 L234.696091,331.61211 C227.2219,314.654987 217.060832,304.292103 213.9946,300.523433 C209.203452,294.682885 203.310376,290.113797 196.315434,286.816152 C189.32037,283.519235 179.881902,281.399554 168,280.457103 L168,270 L324.154555,270 Z"/></svg>