<svg xmlns="http://www.w3.org/2000/svg" width="932" height="932" viewBox="0 0 932 932"><g fill="none" fill-rule="evenodd"><path stroke="#FFF" stroke-width="5" d="M470.736379 561.142735C472.574516 562.51347 525.215013 712.426416 531.542314 729.064484 524.53873 730.009399 517.52703 732.064149 510.519388 733.229409 502.53835 734.559589 494.514481 735.538299 486.44778 736.165539 478.38108 736.793679 470.302206 737.067195 462.211159 736.986087 452.014619 736.833783 441.857302 736.120478 431.739211 734.846173 421.621119 733.570966 411.604019 731.742419 401.68791 729.360531 405.017927 722.989454 407.447134 715.730238 410.171201 709.064466L426.45609 669.284774 455.528133 598.333712C460.601606 585.952491 465.933419 573.629398 470.736379 561.142735ZM698.478653 332.780241C699.678379 333.856281 700.542668 335.742055 701.362323 337.149289 736.025872 396.672155 744.751272 470.722916 727.182798 537.046735 726.609311 539.188001 726.009222 541.322508 725.382534 543.450255 724.755845 545.577102 724.103007 547.695838 723.424019 549.806463 722.744129 551.917087 722.038992 554.019151 721.308606 556.112653 720.577319 558.206155 719.820334 560.290194 719.037649 562.364771 718.254964 564.439347 717.447032 566.504011 716.613852 568.558761 715.77977 570.61261 714.92044 572.656545 714.035862 574.690568 713.152186 576.723689 712.243262 578.745996 711.30909 580.757488 710.374918 582.768079 709.415949 584.766954 708.432183 586.754114 707.448417 588.741274 706.440305 590.716267 705.407846 592.679094 704.375388 594.64102 703.318584 596.590329 702.237433 598.527021 701.157184 600.462812 700.052589 602.385535 698.923647 604.295191 697.795608 606.203946 696.644124 608.098732 695.469195 609.979549 694.293365 611.859465 693.094992 613.724962 691.874076 615.57604 690.652259 617.427117 689.407898 619.262874 688.140995 621.083311 686.874994 622.902846 685.585999 624.707061 684.27401 626.495955 682.962924 628.283948 681.629745 630.055719 680.274474 631.811269 678.919204 633.566819 677.542743 635.305246 676.145092 637.026549 674.746539 638.747853 673.327247 640.451583 671.887216 642.13774 670.446283 643.823897 668.985061 645.49203 667.503551 647.142138 666.022041 648.792247 664.520242 650.423881 662.998155 652.03704 661.476068 653.650199 659.934594 655.244432 658.373734 656.819741 656.811971 658.394148 655.231273 659.94963 653.631639 661.486187 652.032005 663.021842 650.413435 664.537671 648.775929 666.033673 647.138423 667.529675 645.482883 669.0054 643.809308 670.460848 642.134832 671.915395 640.443224 673.349214 638.734483 674.762306 637.02484 676.176298 635.298065 677.568211 633.554157 678.938044 631.810249 680.308779 630.04966 681.657885 628.272388 682.985361 626.495117 684.311937 624.702066 685.616883 622.893235 686.900201 621.083503 688.182617 619.258441 689.442954 617.41805 690.681212 615.57766 691.918568 613.72194 693.132943 611.850891 694.324338 609.980743 695.516633 608.095718 696.685498 606.195814 697.830931 604.295911 698.976364 602.382481 700.097915 600.455526 701.195584 592.6918 705.567335 584.673792 710.043176 576.370392 713.307795 578.926741 707.985722 581.098961 702.409509 583.419964 696.975236L596.341022 666.677134C611.060542 632.048286 625.405851 597.265332 639.376951 562.328272 652.842192 529.069258 665.654143 495.560609 677.812805 461.802326 685.366883 440.628938 693.379481 418.939158 697.772614 396.864112 702.117055 375.025633 702.037253 354.6782 698.478653 332.780241ZM216.063985 358.202367C224.793308 358.196959 233.507887 357.218249 241.496409 361.419673 246.820784 364.21927 254.369857 369.721133 257.152761 375.183795 258.884045 378.582243 259.776738 382.571432 260.880431 386.211855L266.255527 403.854318 286.172054 469.160224 360.582092 712.913067C355.827374 710.835787 351.106469 708.684608 346.419379 706.45953 287.626062 677.091473 241.381712 629.587543 215.806051 568.811549 214.947532 566.730664 214.114623 564.638965 213.307321 562.536451 212.50002 560.434838 211.718643 558.323762 210.96319 556.203224 210.207737 554.082686 209.478434 551.952685 208.77528 549.813222 208.072036 547.674659 207.395122 545.527986 206.744538 543.373202 206.094044 541.217517 205.470061 539.054172 204.872588 536.883166 204.275024 534.713061 203.704242 532.535747 203.16024 530.351223 202.616148 528.1667 202.098972 525.975867 201.608712 523.778727 201.118362 521.580685 200.655063 519.377686 200.218816 517.169731 199.782568 514.960875 199.373462 512.747062 198.991498 510.528292 198.609533 508.309522 198.2548 506.086697 197.927299 503.859817 197.599888 501.632035 197.299844 499.401099 197.027167 497.167009 196.754489 494.932018 196.509224 492.694323 196.291371 490.453924 196.073608 488.212624 195.883347 485.969522 195.720588 483.724618 195.55774 481.478812 195.422528 479.231654 195.314954 476.983145 195.20729 474.734635 195.127218 472.484774 195.074738 470.233561 195.022259 467.983249 194.997417 465.732487 195 463.481274 195.002917 461.23006 195.03326 458.979298 195.09124 456.728986 195.14922 454.478674 195.234792 452.229264 195.347957 449.980754 195.461121 447.732245 195.601833 445.485538 195.770092 443.240633 195.938351 440.995728 196.134158 438.753077 196.357512 436.512678 196.580775 434.27228 196.831496 432.035035 197.109673 429.800945 197.387851 427.566855 197.69335 425.33682 198.026172 423.110841 198.359083 420.883961 198.719226 418.661586 199.106601 416.443718 199.494066 414.225849 199.908627 412.013388 200.350285 409.806334 200.791943 407.598379 201.260607 405.396732 201.756277 403.201394 202.252037 401.005154 202.774623 398.815223 203.324035 396.631601 203.873448 394.448879 204.44955 392.272917 205.052344 390.103714 205.655137 387.93451 206.284441 385.772967 206.940255 383.619085 207.596068 381.465202 208.278212 379.319881 208.986686 377.183121 209.69507 375.046361 210.429603 372.918162 211.190286 370.798525 211.950969 368.67979 212.737486 366.570517 213.549836 364.470706 214.362277 362.370896 215.200327 360.281449 216.063985 358.202367Z"/><path stroke="#FFF" stroke-width="5" d="M458.559232,195.13929 C509.811997,193.307453 561.268999,209.671375 604.4483,236.693772 C617.792711,245.045926 630.161922,254.438432 642.295788,264.439523 C631.661918,262.897108 621.702978,263.751452 611.573615,267.444595 C594.868078,273.534496 581.73602,284.593647 574.19682,300.832932 C563.299199,324.304397 567.797832,351.858326 586.864948,369.649488 C594.222905,376.515327 603.164715,381.011445 610.038453,388.520745 C617.81841,397.022274 623.324704,407.563682 627.251202,418.337602 C632.382835,432.418048 636.798961,453.802319 635.085261,468.715479 C633.67183,481.026406 626.737227,496.979108 621.973491,508.393785 C610.86442,534.309772 598.982132,559.867078 586.326627,585.065704 C580.824391,596.157299 574.855519,607.104251 569.623796,618.317509 C568.057525,611.658496 565.856901,605.087351 563.928142,598.520262 L553.824478,563.890963 L522.196086,455.360955 L513.213699,424.595128 C509.243919,410.987815 504.551869,397.150696 504.513998,382.807999 C504.491004,374.591702 507.443654,367.783991 513.263744,362.013117 C514.698816,360.589662 516.411164,359.112134 518.406198,358.593039 C522.862901,357.433187 543.489525,358.211829 549.68157,358.20507 C549.814121,350.214525 549.715384,342.207759 549.715384,334.215863 L439.001135,334.218566 L387.423755,334.217214 L387.444043,358.232106 C390.57929,358.157757 393.304709,358.064482 396.203257,359.516325 C401.617577,362.226703 408.223507,370.156416 411.251901,375.332494 C416.092733,383.606918 419.163057,393.344001 422.522829,402.299737 C425.17521,409.368348 428.05347,416.445069 430.401524,423.616418 C438.764436,449.156151 445.374424,475.702981 454.07683,501.061572 L422.284778,574.42291 C415.823573,589.340125 409.182476,604.205972 402.951207,619.219166 C402.928213,619.065059 402.902514,618.910953 402.882226,618.755495 C401.958424,611.835583 399.833543,604.871062 398.207759,598.068758 L389.090115,559.855813 L359.414828,434.927006 L351.346775,401.056073 C350.079421,395.77185 348.089797,389.900942 347.539303,384.511279 C346.919828,378.436248 349.443715,368.399064 353.475713,363.73397 C356.159203,360.628864 359.176777,358.374046 363.383255,358.068537 L363.377845,334.205048 C349.125863,334.428097 334.836008,334.213159 320.579968,334.213159 L225.636497,334.233436 C235.391064,314.748457 249.336285,296.147561 264.238852,280.313819 C315.291436,226.072066 384.517091,197.457508 458.559232,195.13929 Z"/></g></svg>