<svg xmlns="http://www.w3.org/2000/svg" width="932" height="932" viewBox="0 0 932 932"><path fill="none" stroke="#FFF" stroke-width="5" d="M468.461932,270.000315 C478.351287,270.010511 643.806747,270.350355 685.999114,281.678505 C710.022132,288.11548 728.90266,307.012647 735.332235,331.059342 C746.604499,373.29447 746.986771,460.088665 746.999562,465.258305 L746.999685,465.741696 C746.989499,470.911359 746.649967,557.705933 735.332235,599.94144 C728.90266,623.98794 710.022132,642.88497 685.999114,649.32083 C643.806747,660.649625 478.351287,660.989489 468.461932,660.999685 L467.536121,660.999685 C457.646897,660.989489 292.19359,660.649625 249.999518,649.32083 C225.976501,642.88497 207.097789,623.98794 200.667101,599.94144 C189.350013,557.705933 189.0105,470.911359 189.000315,465.741696 L189.000315,465.258305 C189.0105,460.088665 189.350013,373.29447 200.667101,331.059342 C207.097789,307.012647 225.976501,288.11548 249.999518,281.678505 C292.19359,270.350355 457.646897,270.010511 467.536121,270.000315 Z M412,382 L412,549 L557,465.500682 L412,382 Z"/></svg>