<svg xmlns="http://www.w3.org/2000/svg" width="932" height="932" viewBox="0 0 932 932"><g fill="none" fill-rule="evenodd"><path stroke="#FFF" stroke-width="5" d="M495 489.904214 480.135581 489.904214 480.135581 516 453.438788 516 453.438788 489.904214 405 489.904214 405 469.235762 452.551351 405 480.135581 405 480.135581 469.979245 495 469.979245 495 489.904214ZM453.438788 469.979245 453.438788 432.285339 425.558753 469.979245 453.438788 469.979245ZM546.030094 518C539.145219 518 532.829962 517.132889 527.084324 515.398666 521.388216 513.664423 516.435069 510.98874 512.224882 507.371619 508.064242 503.754499 504.819927 499.220712 502.491938 493.77026 500.163979 488.270261 499 481.804051 499 474.37163 499 466.394139 500.263048 459.60585 502.789145 454.006762 505.315257 448.407655 508.732929 443.799541 513.042162 440.182421 517.202787 436.713954 522.081638 434.162153 527.678715 432.527018 533.325292 430.842339 539.194765 430 545.287134 430 549.89355 430 554.499975 430.545041 559.106407 431.635124 563.712839 432.675681 568.344037 434.360369 573 436.68919L573 458.986482 569.656631 458.986482C568.616471 457.995488 567.32865 456.905395 565.793167 455.716204 564.307231 454.52703 562.672695 453.436947 560.889559 452.445954 559.007361 451.405416 556.877503 450.538294 554.499983 449.84459 552.122478 449.101359 549.472547 448.729744 546.55019 448.729744 539.912968 448.729744 534.761698 451.058564 531.09638 455.716204 527.480577 460.324318 525.672676 466.542794 525.672676 474.37163 525.672676 482.7455 527.604404 488.988738 531.46786 493.101346 535.380847 497.213973 540.556882 499.270286 546.995966 499.270286 550.265038 499.270286 553.137865 498.898661 555.614447 498.15541 558.091028 497.412162 560.220886 496.520268 562.004023 495.47973 563.737613 494.439191 565.223549 493.373881 566.461832 492.283798 567.700115 491.14415 568.765048 490.128384 569.656631 489.236499L573 489.236499 573 511.533791C571.514048 512.177933 569.780451 512.921173 567.799207 513.763512 565.867463 514.605852 563.886197 515.299547 561.855407 515.844598 559.329311 516.538284 556.951806 517.058553 554.722894 517.405405 552.543497 517.801802 549.645897 518 546.030094 518L546.030094 518ZM656 515 629.901165 515 629.901165 473.833549C629.901165 470.483071 629.752871 467.157236 629.456282 463.856043 629.209137 460.505564 628.714841 458.041976 627.973392 456.465281 627.083671 454.592963 625.798496 453.26263 624.117867 452.474282 622.437269 451.636668 620.188222 451.217861 617.370728 451.217861 615.245254 451.217861 613.095066 451.612035 610.920163 452.400383 608.745245 453.188731 606.422047 454.445153 603.950571 456.169651L603.950571 515 578 515 578 400 603.950571 400 603.950571 441.166453C608.201519 437.569619 612.328902 434.761134 616.332721 432.740998 620.385953 430.720861 624.859332 429.710793 629.752855 429.710793 638.254767 429.710793 644.754769 432.396101 649.252861 437.766717 653.750954 443.088046 656 450.823686 656 460.973637L656 515ZM714.173158 494.013498 714.173158 476.636283C709.76974 477.081849 706.207413 477.477912 703.486176 477.824472 700.76497 478.121509 698.093232 478.740355 695.470963 479.681009 693.19504 480.473134 691.413884 481.686074 690.127495 483.319829 688.890566 484.90408 688.272102 487.032913 688.272102 489.706329 688.272102 493.617434 689.311119 496.315609 691.389154 497.800853 693.516649 499.236577 696.63367 499.954439 700.740217 499.954439 703.01617 499.954439 705.341577 499.434609 707.716436 498.394948 710.091326 497.35527 712.243567 495.894786 714.173158 494.013498L714.173158 494.013498ZM714.173158 506.935031C712.391994 508.420258 710.784004 509.756965 709.349187 510.945154 707.963831 512.133342 706.083715 513.32153 703.708841 514.509719 701.383442 515.648385 699.107519 516.514766 696.881073 517.108861 694.704086 517.702954 691.636526 518 687.678391 518 680.306372 518 674.171267 515.524617 669.273075 510.573852 664.424358 505.623066 662 499.385087 662 491.859912 662 485.671454 663.236913 480.671175 665.71074 476.859076 668.184581 473.046976 671.746901 470.027002 676.397698 467.799154 681.098002 465.521802 686.713611 463.937551 693.244524 463.046399 699.775452 462.155267 706.801139 461.462167 714.321586 460.967099L714.321586 460.521513C714.321586 455.917287 712.614636 452.748795 709.200736 451.016035 705.836344 449.233751 700.764986 448.34261 693.986662 448.34261 690.91911 448.34261 687.332052 448.911952 683.22549 450.050637 679.118943 451.139802 675.111332 452.550774 671.202658 454.283553L668.976219 454.283553 668.976219 434.158632C671.549013 433.416029 675.705051 432.549649 681.444334 431.559491 687.183617 430.51983 692.972391 430 698.810656 430 713.158886 430 723.598458 432.401119 730.129371 437.203358 736.70979 441.956112 740 449.233752 740 459.036278L740 515.772161 714.173158 515.772161 714.173158 506.935031ZM830 516 803.90115 516 803.90115 474.490471C803.90115 471.112071 803.752863 467.758518 803.45629 464.429814 803.209145 461.051412 802.714849 458.567293 801.9734 456.977457 801.083664 455.089536 799.79849 453.748116 798.117877 452.953198 796.437263 452.108604 794.188218 451.686306 791.37074 451.686306 789.245266 451.686306 787.095079 452.083765 784.920176 452.878683 782.745259 453.673601 780.422062 454.940494 777.950586 456.679364L777.950586 516 752 516 752 432.310238 777.950586 432.310238 777.950586 441.551131C782.201533 437.924321 786.328908 435.09243 790.33271 433.055458 794.385941 431.018486 798.859325 430 803.752863 430 812.254772 430 818.754772 432.707687 823.252863 438.123061 827.750954 443.488738 830 451.288847 830 461.523386L830 516ZM300.19014 508.546598C311.683985 507.607924 324.8225 507.879137 335.187094 509.353312 345.551712 510.827488 353.141601 513.504626 359.020106 516.222849 364.898588 518.941073 375.327267 530.015704 375.764 532.351552 376.200734 534.6874 372.595493 543.929878 369.637693 546.959524 366.679894 549.989169 362.417454 553.336561 358.904372 555.542065 355.391313 557.747569 349.865248 559.874803 349.865248 559.874803 349.865248 559.874803 357.24759 572.341784 356.917941 575.778134 356.588269 579.21446 355.298047 582.915306 352.885817 586.127853 350.473588 589.3404 346.939998 592.064602 342.129012 593.988022 337.318049 595.911418 331.230105 597.034286 325.43287 596.999201 319.635658 596.964117 314.129294 595.771311 307.874334 592.13828 301.619397 588.505249 294.61584 582.432201 288.884097 573.657363 283.152353 564.882503 278.692516 553.406015 275.590446 542.976478 272.488376 532.546941 269 513.781955 269 513.781955 282.130879 510.917515 292.527593 509.172396 300.19014 508.546598Z"/><path stroke="#FFF" stroke-width="5" d="M146.19014,518.546598 C157.683985,517.607924 170.8225,517.879137 181.187094,519.353312 C191.551712,520.827488 199.141601,523.504626 205.020106,526.222849 C210.898588,528.941073 221.327267,540.015704 221.764,542.351552 C222.200734,544.6874 218.595493,553.929878 215.637693,556.959524 C212.679894,559.989169 208.417454,563.336561 204.904372,565.542065 C201.391313,567.747569 195.865248,569.874803 195.865248,569.874803 C195.865248,569.874803 203.24759,582.341784 202.917941,585.778134 C202.588269,589.21446 201.298047,592.915306 198.885817,596.127853 C196.473588,599.3404 192.939998,602.064602 188.129012,603.988022 C183.318049,605.911418 177.230105,607.034286 171.43287,606.999201 C165.635658,606.964117 160.129294,605.771311 153.874334,602.13828 C147.619397,598.505249 140.61584,592.432201 134.884097,583.657363 C129.152353,574.882503 124.692516,563.406015 121.590446,552.976478 C118.488376,542.546941 115,523.781955 115,523.781955 C128.130879,520.917515 138.527593,519.172396 146.19014,518.546598 Z" transform="rotate(75 168.4 562.5)"/><path stroke="#FFF" stroke-width="5" d="M139.785198,338.546598 C151.279043,337.607924 164.417558,337.879137 174.782152,339.353312 C185.146769,340.827488 192.736659,343.504626 198.615164,346.222849 C204.493646,348.941073 214.922325,360.015704 215.359058,362.351552 C215.795791,364.6874 212.190551,373.929878 209.232751,376.959524 C206.274951,379.989169 202.012511,383.336561 198.499429,385.542065 C194.98637,387.747569 189.460306,389.874803 189.460306,389.874803 C189.460306,389.874803 196.842648,402.341784 196.512999,405.778134 C196.183327,409.21446 194.893104,412.915306 192.480875,416.127853 C190.068646,419.3404 186.535056,422.064602 181.72407,423.988022 C176.913107,425.911418 170.825162,427.034286 165.027928,426.999201 C159.230716,426.964117 153.724352,425.771311 147.469392,422.13828 C141.214454,418.505249 134.210897,412.432201 128.479154,403.657363 C122.747411,394.882503 118.287574,383.406015 115.185504,372.976478 C112.083433,362.546941 108.595058,343.781955 108.595058,343.781955 C121.725937,340.917515 132.12265,339.172396 139.785198,338.546598 Z" transform="rotate(-180 161.995 382.5)"/><path stroke="#FFF" stroke-width="5" d="M293.785198,328.546598 C305.279043,327.607924 318.417558,327.879137 328.782152,329.353312 C339.146769,330.827488 346.736659,333.504626 352.615164,336.222849 C358.493646,338.941073 368.922325,350.015704 369.359058,352.351552 C369.795791,354.6874 366.190551,363.929878 363.232751,366.959524 C360.274951,369.989169 356.012511,373.336561 352.499429,375.542065 C348.98637,377.747569 343.460306,379.874803 343.460306,379.874803 C343.460306,379.874803 350.842648,392.341784 350.512999,395.778134 C350.183327,399.21446 348.893104,402.915306 346.480875,406.127853 C344.068646,409.3404 340.535056,412.064602 335.72407,413.988022 C330.913107,415.911418 324.825162,417.034286 319.027928,416.999201 C313.230716,416.964117 307.724352,415.771311 301.469392,412.13828 C295.214454,408.505249 288.210897,402.432201 282.479154,393.657363 C276.747411,384.882503 272.287574,373.406015 269.185504,362.976478 C266.083433,352.546941 262.595058,333.781955 262.595058,333.781955 C275.725937,330.917515 286.12265,329.172396 293.785198,328.546598 Z" transform="rotate(-105 315.995 372.5)"/></g></svg>