<svg xmlns="http://www.w3.org/2000/svg" width="932" height="932" viewBox="0 0 932 932"><path fill="none" stroke="#FFF" stroke-width="5" d="M408.445098 379.593937C416.155609 378.536257 424.571763 379.199228 432.355552 379.269326 432.78708 379.875949 433.134474 380.575856 433.297315 381.304881 434.695031 387.507795 433.576858 418.504031 433.57143 426.731175L433.568716 484.486729C433.574144 494.291091 434.030098 504.344573 433.500866 514.125209 433.376021 516.42633 433.343453 517.291508 432.038013 519.227306 425.562378 520.760308 414.852883 519.545716 408 519.506353 408.113989 519.342969 408.146557 519.30765 408.238833 519.150468 408.898338 518.040753 408.903766 516.694591 408.939048 515.440097 409.766822 484.934011 408.958047 454.186895 408.963475 423.655736 408.963475 415.101015 410.125072 385.844032 408.445098 379.593937ZM716.990514 415.19373C725.504244 414.55579 734.699827 415.464544 742.76348 418.349076 750.975362 421.286364 758.405673 426.380692 762.211114 434.5327 763.712268 437.748377 766.005774 443.76147 764.792992 447.158952 762.405159 449.126883 743.431858 448.274401 739.020026 448.343119 739.146694 447.946774 739.243717 447.552322 739.265278 447.134332 739.383861 444.889094 737.906962 442.017008 736.397722 440.438658 732.659658 436.532285 726.380142 435.153867 721.18674 435.030229 716.478451 434.918224 710.481917 435.673581 706.954069 439.157095 705.339722 440.749783 704.356021 442.941724 704.396447 445.23079 704.560846 454.416814 738.893358 459.24087 746.54736 461.908426 751.961758 463.796277 757.1336 466.465456 761.251668 470.535508 766.361523 475.585468 769.002693 481.992743 769 489.186757 768.997303 497.303865 766.04081 505.154217 760.219456 510.876747 749.037606 521.865672 732.616537 523.190251 717.861022 522.98058 706.344983 521.80994 695.43803 520.146369 686.773376 511.680802 682.167499 507.181127 676.914806 496.530653 677.001048 490.024088 677.025304 488.250407 677.45382 487.533738 678.666602 486.330091 684.746683 484.348904 694.540571 485.768173 701.049168 485.895599 703.857432 488.623216 703.321113 494.815138 708.153376 498.9347 712.228323 502.408204 721.016951 504.020371 726.323546 503.518243 731.069566 503.0686 739.106268 501.090117 742.221771 497.239746 743.601647 495.534783 743.992432 493.324445 743.749876 491.179037 742.437376 479.437192 714.635022 476.893544 705.062129 474.043913 699.248861 472.312977 693.492189 469.945183 688.729998 466.099411 683.52851 461.898687 680.011443 456.521911 679.321504 449.771858 678.610006 442.788326 680.29712 434.407439 684.741292 428.918929 692.354869 419.52134 705.587668 416.362748 716.990514 415.19373ZM517.864775 417.9983C530.045492 422.498507 539.651599 431.923754 544.995537 443.644497 548.86827 452.130911 551.913449 467.004897 548.557261 475.885162 537.314978 478.305388 481.501115 473.960889 476.725105 476.746142 476.02466 477.841493 475.637928 478.804034 475.694721 480.120557 475.93271 485.653077 481.006206 492.992685 484.946549 496.558907 485.568566 497.133253 486.218528 497.674732 486.896437 498.183346 487.574345 498.69196 488.275692 499.165103 489.000477 499.602777 489.727065 500.04045 490.473486 500.440409 491.239739 500.802653 492.005992 501.165076 492.788471 501.487898 493.587177 501.77112 494.387686 502.054342 495.199914 502.296526 496.023862 502.497672 496.847809 502.698819 497.679869 502.85794 498.520043 502.975036 499.360217 503.092312 500.203997 503.166844 501.051382 503.198632 501.898768 503.230421 502.746153 503.219466 503.593539 503.165767 510.00302 502.810707 515.479474 500.055357 519.744348 495.296532 521.788891 493.014775 524.055197 489.715252 523.852365 486.519175 523.849661 486.467991 523.844252 486.416806 523.841547 486.365621L538.442722 486.531567 547.361907 486.777523C547.451153 487.092982 547.524172 487.406555 547.583669 487.729018 548.44638 492.472757 544.803523 499.04702 542.085579 502.851116 534.680871 513.207115 523.868592 520.073669 511.255167 522.141798 497.535634 524.391497 482.215082 522.383982 470.761855 514.145141 459.87926 506.318471 454.067457 494.371976 451.968825 481.406907 449.377989 465.405781 451.793038 447.903059 461.526253 434.553836 469.877509 423.098714 481.187402 417.423146 494.996181 415.267734 502.660513 414.51505 510.630445 415.325923 517.864775 417.9983ZM505.518172 435.443216C502.982417 434.759851 500.314339 434.995674 497.735376 435.296135 490.708717 436.904714 485.053903 439.63653 481.073389 446.03825 478.507929 450.161721 477.476344 454.988004 475 459L475 459 501.453943 458.995344 523.784247 458.953712C524.651102 455.893497 522.722957 450.456979 521.245792 447.787336 518.072723 442.05693 511.788696 437.133963 505.518172 435.443216ZM256.731257 382.07369C257.080561 410.830181 257.193587 439.745108 256.623883 468.497543 262.405696 468.356412 268.215227 468.481862 274 468.490514L273.990581 487.713599 256.814412 487.69224C256.898733 498.425084 256.813336 509.156576 256.55822 519.886716 248.916862 520.057047 241.252899 519.974045 233.608581 520L233.578979 503.386226 233.611272 487.647629C214.221679 488.02425 194.62864 487.991806 175.243352 487.529479 174.835114 479.833215 175.059551 472.065034 175.078658 464.358497 180.577098 455.631865 186.911931 447.284558 192.882928 438.876148 206.298025 419.984533 220.046818 401.259464 233.029727 382.070716 240.921894 381.920933 248.836668 382.052331 256.731257 382.07369ZM232.760343 414C231.028751 416.890255 223.376582 428.144031 215.593123 439.595331L214.577621 441.089428C205.778395 454.036342 197.13305 466.781964 197.004583 467.529992 196.965914 467.755041 197.183159 468.398424 197.235524 468.653605L197.235524 468.653605 197.663569 468.958737 233.719283 469C233.72981 465.419366 233.981216 452.826185 233.999008 440.577337L233.99954 438.333568C233.987205 426.410357 233.722817 415.367294 232.760343 414ZM351.669208 415.35267C353.061163 415.469328 354.44415 415.654488 355.818168 415.908149 357.190392 416.161629 358.547369 416.48244 359.889099 416.870583 361.23083 417.258725 362.551035 417.712127 363.849715 418.23079 365.146601 418.749633 366.414788 419.331306 367.654274 419.975809 368.895554 420.620312 370.100958 421.324495 371.270488 422.088357 372.441811 422.852219 373.572775 423.67216 374.66338 424.548181 375.753984 425.424021 376.79795 426.351619 377.795279 427.330976 378.794402 428.310332 379.7433 429.336676 380.641972 430.410008 391.291508 443.215456 394.1382 461.3043 392.620682 477.479077 391.337248 491.168376 386.26271 505.249238 375.440973 514.220613 365.749304 522.254398 353.956248 523.977274 341.740762 522.762079 331.149882 521.708641 322.343432 517.459781 315.556303 509.160544 316.00537 514.858185 315.636753 520.774291 315.585362 526.494886 315.706261 536.859144 315.636933 547.222142 315.377376 557.583879 309.547953 558.033609 303.672082 558.025014 297.810458 557.979185L294.614987 557.953025C293.550544 557.944761 292.486937 557.937798 291.424531 557.934665 290.936674 545.416753 290.961182 532.818867 291.052736 520.233884L291.106647 513.371186C291.152653 507.654268 291.195782 501.943505 291.194212 496.247619 291.192813 491.034435 291.175141 485.81827 291.152565 480.600385L291.104245 470.162696C291.024044 452.763974 290.97358 435.355489 291.373947 417.983971 299.140735 417.454956 306.968871 417.66748 314.749382 417.703126 314.792701 421.216658 314.701488 424.743962 314.671891 428.258574 321.806112 419.691454 330.529152 416.251373 341.304879 415.197935 344.727368 414.815554 348.24941 415.053732 351.669208 415.35267ZM352.224382 437.833372C347.330809 435.121037 342.445347 434.660126 336.948864 435.196821 329.830743 436.94742 324.709795 439.922169 320.778445 446.354425 314.891557 455.986357 313.670057 469.092246 316.353952 479.915426 318.341662 487.93026 322.65152 495.416488 329.923748 499.737562 335.079033 502.800502 340.377069 503.465034 346.246653 502.721751 353.74923 500.620277 359.389006 496.327792 363.238977 489.472113 368.589463 479.944284 369.195077 467.201406 366.229193 456.831315 364.025734 449.122587 359.389006 441.802761 352.224382 437.833372ZM587.69341 380.258751C588.139285 380.968417 588.474368 381.678084 588.622993 382.508225 589.043737 384.859241 589.28828 393.736179 589.238669 403.068445L589.230301 404.314912C589.140801 415.339794 588.635991 426.622026 587.523166 428.243675 590.165993 426.326849 592.743966 424.268842 595.457052 422.451784 605.541951 415.692067 617.396841 413.946002 629.224709 416.263512 630.608275 416.525793 631.974726 416.85629 633.324063 417.255001 634.6734 417.653713 635.999318 418.118667 637.301815 418.649863 638.604313 419.181239 639.877086 419.776079 641.120133 420.434383 642.361379 421.092687 643.567495 421.811318 644.738482 422.590275 645.907668 423.369053 647.035418 424.204213 648.121733 425.095756 649.208049 425.987478 650.246624 426.930922 651.237459 427.926086 652.228294 428.92143 653.165984 429.963566 654.05053 431.052492 654.936877 432.141598 655.765575 433.272027 656.536625 434.443779 666.378319 449.169027 667.732159 469.368578 664.289458 486.317215 662.895083 493.169976 659.387527 504.508508 653.202015 508.591982 653.058794 509.165578 652.866932 509.734333 652.504827 510.211389 647.31105 517.061191 638.55297 520.863919 630.221849 522.190207 620.417987 523.75099 605.550058 523.416191 596.951411 517.941888 592.979064 515.412474 589.836315 511.865216 586.0207 509.10561 586.380103 509.82926 586.674651 510.565818 586.882726 511.345941 587.720432 514.496011 587.733944 517.24755 586.05583 520.104503L563 520.125747C563.1189 519.958213 563.140518 519.932666 563.235098 519.772661 563.680974 519.018194 564.173545 471.05617 564.193326 431.614942L564.193708 427.701286C564.185908 403.120825 563.981521 382.703258 563.448578 380.605651 571.258159 379.528646 579.810867 380.205237 587.69341 380.258751ZM629.32049 439.850475C623.426602 435.338667 616.967138 434.379143 609.77432 435.336518L609.77432 435.336518 609.622779 435.357471C602.032164 437.896504 597.023171 441.349665 593.342873 448.729301 588.320349 458.79437 587.670885 472.447986 591.307885 483.042244 593.808322 490.322489 599.117693 497.658877 606.210385 501.04703 609.165448 502.458917 615.175699 503.659129 618.36078 502.589469 618.506909 502.540579 618.674688 502.437965 618.801874 502.367048 625.25322 501.624572 630.440816 498.446482 634.464789 493.381847 641.165096 484.948668 642.905119 473.668613 641.595366 463.232843 640.483158 454.370134 636.591785 445.414482 629.32049 439.850475Z"/></svg>