<svg xmlns="http://www.w3.org/2000/svg" width="932" height="932" viewBox="0 0 932 932"><g fill="none" fill-rule="evenodd"><rect width="50" height="184" x="118" y="264" stroke="#FFF" stroke-width="5"/><rect width="50" height="184" x="484" y="264" stroke="#FFF" stroke-width="5"/><rect width="50" height="184" x="550" y="264" stroke="#FFF" stroke-width="5"/><rect width="68" height="50" x="608" y="398" stroke="#FFF" stroke-width="5"/><rect width="50" height="184" x="118" y="480" stroke="#FFF" stroke-width="5"/><path stroke="#FFF" stroke-width="5" d="M177.208934 311.398938 177.714311 264.030159C248.77733 260.326425 286.223871 290.175268 290.053934 353.576688 293.883997 416.978107 256.437456 448.452544 177.714311 448L177.714311 400.585695C217.999409 399.258728 238.141958 384.351553 238.141958 355.86417 238.141958 327.376787 217.83095 312.555042 177.208934 311.398938ZM375.208934 527.398938 375.611049 480.030159C433.876399 484.457665 463.243963 515.119305 463.713741 572.01508 464.183519 628.910854 434.815955 659.572494 375.611049 664L375.611049 616.585695C399.862184 610.144451 411.987751 595.305783 411.987751 572.069692 411.987751 548.833601 399.728146 533.94335 375.208934 527.398938Z"/><path stroke="#FFF" stroke-width="5" d="M270.208934,527.398938 L270.611049,480.030159 C328.876399,484.457665 358.243963,515.119305 358.713741,572.01508 C359.183519,628.910854 329.815955,659.572494 270.611049,664 L270.611049,616.585695 C294.862184,610.144451 306.987751,595.305783 306.987751,572.069692 C306.987751,548.833601 294.728146,533.94335 270.208934,527.398938 Z" transform="matrix(-1 0 0 1 628.928 0)"/><polygon stroke="#FFF" stroke-width="5" points="352.508 264.03 275.592 447.913 327.876 448.21 398.909 264.03"/><polygon stroke="#FFF" stroke-width="5" points="421.523 449.13 407.927 419.138 352.508 419.138 369.067 374.07 392.034 374.07 379.104 343.935 404.633 279.895 477.442 447.913"/><polygon stroke="#FFF" stroke-width="5" points="697.814 447.03 696.81 379.364 628.529 266.097 687.863 266.097 750.214 379.364 750.214 447.03"/><polygon stroke="#FFF" stroke-width="5" points="756.114 361.03 728.213 315.179 759.762 263.03 816.128 263.13"/><polygon stroke="#FFF" stroke-width="5" points="177.209 535.603 219.709 480.109 281.987 480 216.214 563.33 286.189 664 219.709 664.57 177.209 599.73"/><path stroke="#FFF" stroke-width="5" d="M492.457405,603.179666 C510.442441,617.297462 527.361409,624.890583 543.214311,625.95903 C543.214311,625.95903 543.214311,640.212875 543.214311,668.720564 C507.193027,666.12041 481.948676,655.623816 467.481258,637.230782 C467.481258,637.230782 475.806641,625.88041 492.457405,603.179666 Z"/><path stroke="#FFF" stroke-width="5" d="M577.457405,480.179666 C595.442441,494.297462 612.361409,501.890583 628.214311,502.95903 C628.214311,502.95903 628.214311,517.212875 628.214311,545.720564 C592.193027,543.12041 566.948676,532.623816 552.481258,514.230782 C552.481258,514.230782 560.806641,502.88041 577.457405,480.179666 Z" transform="rotate(180 590.348 512.95)"/><path stroke="#FFF" stroke-width="5" d="M541.411243,522.043837 L541.411243,480.312581 C495.079955,483.294467 471.914311,502.5288 471.914311,538.01558 C471.914311,573.50236 497.147644,593.50722 547.614311,598.030159 C562.144665,599.357618 569.409842,604.052151 569.409842,612.113758 C569.409842,620.175365 563.766981,624.25419 552.481258,624.350232 L552.481258,668.720564 C600.290458,667.495192 624.195057,649.277335 624.195057,614.066993 C624.195057,578.85665 602.75089,557.698282 559.862555,550.591887 C537.430392,546.919501 526.214311,541.932258 526.214311,535.630159 C526.214311,529.32806 531.279955,524.799286 541.411243,522.043837 Z"/></g></svg>