<svg xmlns="http://www.w3.org/2000/svg" width="932" height="932" viewBox="0 0 932 932"><path fill="none" stroke="#FFF" stroke-width="5" d="M504.17896,553.175691 C508.975936,556.624774 513.152105,561.383297 517.349682,565.489772 L543.484188,591.555645 C573.072375,620.880212 602.244312,650.573501 631,680.635512 C626.122748,685.75373 617.679429,690.504592 611.67652,694.413849 C580.386469,714.795506 542.786674,728.710132 505.404517,734.59798 C495.13981,736.214559 484.917918,736.883354 474.574719,737.728878 C439.401062,738.669277 420.907258,737.728878 382.372535,725.617359 C356.075773,717.35225 331.978427,705.95545 309.253001,690.765233 C305.983066,688.579982 299.82674,685.317784 298,681.945843 C298.302226,680.373527 311.129451,667.28626 325.475262,653.027558 L326.433779,652.075356 C326.593866,651.916404 326.754111,651.757336 326.914498,651.598166 L327.878405,650.642035 L327.878405,650.642035 L328.844999,649.684135 C329.328848,649.204857 329.813433,648.725171 330.298346,648.24546 L332.164157,646.401105 L333.022099,645.553953 C347.02911,631.727666 360.673266,618.479623 364.117627,615.054303 C366.964771,616.451039 369.669202,618.389366 372.366498,620.044427 C376.009273,622.286806 379.738272,624.392006 383.553494,626.360026 C390.157585,629.807327 397.919445,632.233799 404.104314,636.221267 C398.069295,644.119061 387.670793,653.613481 380.445896,660.889869 C377.036814,664.321315 373.02655,667.958886 370.464833,672.006213 C372.15421,673.051627 373.975598,673.875417 375.818393,674.646828 C376.682831,675.001004 402.165404,688.663166 441.877695,692.281826 C460.18855,693.950346 482.800649,692.515867 505.136928,688.388288 C520.983538,685.438395 536.475146,680.557302 551.504717,675.018994 C554.109248,673.706347 556.60496,672.664496 559.079264,671.0978 C559.052505,671.057181 559.023962,671.017096 558.997204,670.976121 C555.468599,665.561452 544.702609,655.596347 539.729025,650.61228 L496.704313,607.334842 C488.938886,599.435445 480.035314,591.557426 473.670268,582.580191 C483.563919,572.523335 493.537845,562.525271 504.17896,553.175691 Z M362.438642,541.019936 C363.186183,541.096136 363.867712,541.402709 364.386887,541.921932 C365.319976,542.857598 365.939061,544.220339 366.779375,545.257015 C368.590245,547.488082 370.73831,549.573838 372.754351,551.641872 C398.49367,578.026592 426.762853,590.321386 464.764342,591.802858 C471.121117,597.370779 476.801715,603.975377 482.70711,610.000499 C489.145954,616.573199 496.293089,623.064382 502.203837,630.058841 C502.937105,630.927167 503.085186,631.387912 502.960298,632.481294 C499.354617,635.325506 477.340515,636.456103 472.423515,636.395852 C464.933832,636.725461 457.087327,637.413034 449.613701,636.661666 C401.180536,631.804354 360.160337,607.989172 330,572.304498 C337.421887,561.714459 351.05782,550.229513 360.67416,541.083731 C361.239722,541.041201 361.876648,540.963229 362.438642,541.019936 Z M680.135512,298.5 C685.25373,303.377252 690.004592,311.820571 693.913849,317.82348 C714.295506,349.113531 728.210132,386.713326 734.09798,424.095483 C735.714559,434.36019 736.383354,444.582082 737.228878,454.925281 C738.169277,490.098938 737.228878,508.592742 725.117359,547.127465 C716.85225,573.424227 705.45545,597.521573 690.265233,620.246999 C688.079982,623.516934 684.817784,629.67326 681.445843,631.5 C679.873527,631.197774 666.78626,618.370549 652.527558,604.024738 L651.575356,603.066221 C651.416404,602.906134 651.257336,602.745889 651.098166,602.585502 L650.142035,601.621595 L650.142035,601.621595 L649.184135,600.655001 C648.704857,600.171152 648.225171,599.686567 647.74546,599.201654 L645.901105,597.335843 L645.053953,596.477901 C631.227666,582.47089 617.979623,568.826734 614.554303,565.382373 C615.951039,562.535229 617.889366,559.830798 619.544427,557.133502 C621.786806,553.490727 623.892006,549.761728 625.860026,545.946506 C629.307327,539.342415 631.733799,531.580555 635.721267,525.395686 C643.619061,531.430705 653.113481,541.829207 660.389869,549.054104 C663.821315,552.463186 667.458886,556.47345 671.506213,559.035167 C672.551627,557.34579 673.375417,555.524402 674.146828,553.681607 C674.501004,552.817169 688.163166,527.334596 691.781826,487.622305 C693.450346,469.31145 692.015867,446.699351 687.888288,424.363072 C684.938395,408.516462 680.057302,393.024854 674.518994,377.995283 C673.206347,375.390752 672.164496,372.89504 670.5978,370.420736 C670.557181,370.447495 670.517096,370.476038 670.476121,370.502796 C665.061452,374.031401 655.096347,384.797391 650.11228,389.770975 L606.834842,432.795687 C598.935445,440.561114 591.057426,449.464686 582.080191,455.829732 C572.023335,445.936081 562.025271,435.962155 552.675691,425.32104 C556.124774,420.524064 560.883297,416.347895 564.989772,412.150318 L591.055645,386.015812 C620.380212,356.427625 650.073501,327.255688 680.135512,298.5 Z M247.554157,298.5 C249.126473,298.802226 262.21374,311.629451 276.472442,325.975262 L277.424644,326.933779 C277.583596,327.093866 277.742664,327.254111 277.901834,327.414498 L278.857965,328.378405 L278.857965,328.378405 L279.815865,329.344999 C280.295143,329.828848 280.774829,330.313433 281.25454,330.798346 L283.098895,332.664157 L283.946047,333.522099 C297.772334,347.52911 311.020377,361.173266 314.445697,364.617627 C313.048961,367.464771 311.110634,370.169202 309.455573,372.866498 C307.213194,376.509273 305.107994,380.238272 303.139974,384.053494 C299.692673,390.657585 297.266201,398.419445 293.278733,404.604314 C285.380939,398.569295 275.886519,388.170793 268.610131,380.945896 C265.178685,377.536814 261.541114,373.52655 257.493787,370.964833 C256.448373,372.65421 255.624583,374.475598 254.853172,376.318393 C254.498996,377.182831 240.836834,402.665404 237.218174,442.377695 C235.549654,460.68855 236.984133,483.300649 241.111712,505.636928 C244.061605,521.483538 248.942698,536.975146 254.481006,552.004717 C255.793653,554.609248 256.835504,557.10496 258.4022,559.579264 C258.442819,559.552505 258.482904,559.523962 258.523879,559.497204 C263.938548,555.968599 273.903653,545.202609 278.88772,540.229025 L322.165158,497.204313 C330.064555,489.438886 337.942574,480.535314 346.919809,474.170268 C356.976665,484.063919 366.974729,494.037845 376.324309,504.67896 C372.875226,509.475936 368.116703,513.652105 364.010228,517.849682 L337.944355,543.984188 C308.619788,573.572375 278.926499,602.744312 248.864488,631.5 C243.74627,626.622748 238.995408,618.179429 235.086151,612.17652 C214.704494,580.886469 200.789868,543.286674 194.90202,505.904517 C193.285441,495.63981 192.616646,485.417918 191.771122,475.074719 C190.830723,439.901062 191.771122,421.407258 203.882641,382.872535 C212.14775,356.575773 223.54455,332.478427 238.734767,309.753001 C240.920018,306.483066 244.182216,300.32674 247.554157,298.5 Z M630.206108,427.819355 C634.480178,438.879206 635.025086,452.129268 635.307303,463.943565 C635.621195,467.426719 635.496655,470.917535 635.320793,474.406288 L635.222105,476.308982 C634.020467,499.525573 627.33957,522.390804 617.13363,542.916004 C608.237601,560.806888 596.325938,575.943955 582.724527,590.010888 C578.943892,593.922233 575.06741,598.802052 569.886343,600.5 C566.96282,599.219592 560.389175,593.240536 553.843327,586.671799 L553.129521,585.953067 L553.129521,585.953067 L552.317407,585.12952 C545.831346,578.527671 539.656101,571.658633 537.413706,568.568938 L539.834732,566.9566 C546.043493,562.517321 551.739295,556.171417 557.021534,550.56569 C578.466432,527.807473 589.625517,498.895977 589.520795,466.809745 C593.205037,463.551045 596.726614,460.043111 600.219133,456.512888 L602.835161,453.864587 C604.142538,452.541893 605.450526,451.224043 606.766171,449.923005 C614.439854,442.39044 622.253166,435.022556 630.206108,427.819355 Z M504.531591,477 C506.169578,477.345438 512.844892,483.357399 519.675048,489.854663 L520.511835,490.652319 C525.393736,495.315354 530.252962,500.118095 533.310179,503.172342 L534.055483,503.917993 C534.915127,504.779335 535.581711,505.451982 536,505.877317 C522.687262,521.632465 505.273653,537.951951 490.482116,552.703042 C482.718867,560.445317 469.031547,575.57382 460.35581,581 C456.143098,580.455246 452.004947,580.243397 447.802887,579.481453 C437.298623,578.110666 422.684613,573.622674 414,567.822643 C420.564943,560.454219 428.022846,553.614526 434.903786,546.495335 C457.801199,523.045978 481.010467,499.880866 504.531591,477 Z M363.62939,415 C363.75358,415.090994 363.883093,415.17842 364.003734,415.276551 C367.692175,418.295417 371.09143,422.261692 374.476492,425.617772 L396.17247,447.183392 C408.606837,459.51578 420.922928,471.955814 433.120743,484.503495 C434.054533,485.465179 434.993399,486.423591 435.934121,487.381128 L438.758637,490.253508 C442.523497,494.086233 446.266541,497.943276 449.781707,501.977946 C450.816032,503.166223 452.914841,505.396473 453,506.932668 C450.347658,511.89988 437.341426,524.849601 432.535276,529.740092 C430.303406,532.291497 427.455909,534.876802 424.780503,537 C415.407713,529.427857 406.946832,520.13753 398.489499,511.625113 L351.52797,463.944163 C351.399049,463.297094 351.294966,462.646455 351.215721,461.992249 C349.702379,450.407441 356.396215,423.93884 363.62939,415 Z M504.942116,394 C507.034,395.163114 512.102567,400.028459 517.011064,404.947763 L517.805139,405.745385 C521.895486,409.862921 525.754446,413.879904 527.537175,415.650644 L579.995733,467.930991 C580.16726,479.631141 575.142959,502.73983 569.359296,513.250286 C568.685696,514.47576 568.054979,515.54738 566.60951,516 C564.038397,514.849664 560.854434,510.895944 558.76574,508.883304 C531.160675,480.799367 502.472847,453.643928 475,425.432971 C484.271371,414.591548 494.491499,403.821685 504.942116,394 Z M358.431542,331.5 C369.060218,338.908186 380.587067,352.518948 389.766217,362.117536 C389.808902,362.682054 389.887159,363.317804 389.830245,363.878761 C389.753767,364.624922 389.446076,365.305193 388.924958,365.82341 C387.985878,366.754776 386.618165,367.372718 385.577707,368.211481 C383.3385,370.019008 381.245135,372.163108 379.169555,374.175428 C352.688571,399.867232 340.34892,428.08423 338.862043,466.015569 C333.273807,472.36061 326.645113,478.030721 320.598008,483.925216 C314.001328,490.352174 307.486461,497.486115 300.466484,503.385952 C299.59499,504.117866 299.132564,504.265674 298.035192,504.141017 C295.294786,500.685953 294.139411,480.297005 294.104866,474.329201 L294.104572,473.865938 C294.104952,473.794516 294.105546,473.726043 294.106353,473.660604 C293.77554,466.184746 293.085459,458.352726 293.839568,450.892896 C298.714602,402.549138 322.616674,361.604661 358.431542,331.5 Z M467.923338,351 C485.310394,351.656468 500.636591,355.428947 516,363.189778 C509.1033,370.207439 502.428102,377.463975 495.547351,384.509947 C475.319748,405.221422 454.728881,425.858581 433.78361,445.915358 C431.029892,448.649167 428.270858,451.409517 425.366518,454 C419.573786,449.369335 414.177986,444.174214 408.72371,439.180811 C403.758512,434.63508 398.547002,430.170744 394,425.242811 C402.247643,416.310047 410.892288,407.691748 419.562531,399.108471 L424.292061,394.428478 C426.655862,392.088538 429.016546,389.747424 431.366576,387.399467 C443.511997,375.262773 455.455409,362.828809 467.923338,351 Z M475.579303,295.27765 C498.838832,296.478232 521.746349,303.153251 542.309509,313.350211 C560.233479,322.238414 575.398542,334.139597 589.491489,347.729042 C593.410068,351.506351 598.298911,355.379422 600,360.555932 C598.617401,363.704186 591.766325,371.089027 584.601094,378.109411 L583.773236,378.917576 C577.42013,385.097095 570.976319,390.852928 568.009885,393 L566.394565,390.581104 C561.947076,384.377805 555.589436,378.687014 549.973342,373.409422 C527.173036,351.983391 498.208071,340.834123 466.062499,340.938753 C460.757318,334.957127 454.792786,329.404661 449.144529,323.70855 C441.598033,316.041618 434.216523,308.235179 427,300.289235 C438.080305,296.018925 451.354872,295.474496 463.191018,295.192528 C467.315086,294.821891 471.449875,295.063071 475.579303,295.27765 Z M546.627465,204.382641 C572.924227,212.64775 597.021573,224.04455 619.746999,239.234767 C623.016934,241.420018 629.17326,244.682216 631,248.054157 C630.697774,249.626473 617.870549,262.71374 603.524738,276.972442 L602.566221,277.924644 C602.406134,278.083596 602.245889,278.242664 602.085502,278.401834 L601.121595,279.357965 L601.121595,279.357965 L600.155001,280.315865 C599.671152,280.795143 599.186567,281.274829 598.701654,281.75454 L596.835843,283.598895 L595.977901,284.446047 C581.97089,298.272334 568.326734,311.520377 564.882373,314.945697 C562.035229,313.548961 559.330798,311.610634 556.633502,309.955573 C552.990727,307.713194 549.261728,305.607994 545.446506,303.639974 C538.842415,300.192673 531.080555,297.766201 524.895686,293.778733 C530.930705,285.880939 541.329207,276.386519 548.554104,269.110131 C551.963186,265.678685 555.97345,262.041114 558.535167,257.993787 C556.84579,256.948373 555.024402,256.124583 553.181607,255.353172 C552.317169,254.998996 526.834596,241.336834 487.122305,237.718174 C468.81145,236.049654 446.199351,237.484133 423.863072,241.611712 C408.016462,244.561605 392.524854,249.442698 377.495283,254.981006 C374.890752,256.293653 372.39504,257.335504 369.920736,258.9022 C369.947495,258.942819 369.976038,258.982904 370.002796,259.023879 C373.531401,264.438548 384.297391,274.403653 389.270975,279.38772 L432.295687,322.665158 C440.061114,330.564555 448.964686,338.442574 455.329732,347.419809 C445.436081,357.476665 435.462155,367.474729 424.82104,376.824309 C420.024064,373.375226 415.847895,368.616703 411.650318,364.510228 L385.515812,338.444355 C355.927625,309.119788 326.755688,279.426499 298,249.364488 C302.877252,244.24627 311.320571,239.495408 317.32348,235.586151 C348.613531,215.204494 386.213326,201.289868 423.595483,195.40202 C433.86019,193.785441 444.082082,193.116646 454.425281,192.271122 C489.598938,191.330723 508.092742,192.271122 546.627465,204.382641 Z"/></svg>