<svg xmlns="http://www.w3.org/2000/svg" width="932" height="932" viewBox="0 0 932 932"><path fill="none" stroke="#FFF" stroke-width="5" d="M525.395279,400.231839 C525.395279,400.231839 495.674899,394.556414 475.638688,394.890263 C442.245004,395.224111 423.878477,400.231839 423.878477,400.231839 L505.025131,565.153014 L860,457.319938 C790.875073,370.853168 656.298523,304.417311 503.689384,297.406491 C444.582561,294.735703 387.813297,300.411128 336.053086,313.097372 L305.330896,250 L187.451189,262.352396 L232.198726,351.156105 C138.028535,398.896445 76.2502185,474.346213 72.2429763,561.814529 C70.2393552,605.548686 80.5913975,643.607419 104.634851,682 L461.947278,572.163833 L367.777086,378.531685 C412.858561,365.84544 464.284835,361.50541 517.714731,367.848532 C580.828795,375.527048 637.598059,396.893354 682.345597,426.939722 L568.807069,466.333849 L525.395279,400.231839 Z M199.138978,565.153014 C198.805042,557.140649 199.138978,549.128284 200.140789,541.11592 C205.483779,495.378671 231.196916,455.984544 270.267527,425.604328 L321.693802,527.094281 L199.138978,565.153014 Z"/></svg>