<svg xmlns="http://www.w3.org/2000/svg" width="4735" height="1908" viewBox="0 0 4735 1908"><g fill="none" fill-rule="evenodd"><path fill="#FFF" fill-rule="nonzero" d="M1595.60696,802.7 C1592.74756,798.4812 1586.70076,794.1219 1577.51296,789.106 C1579.48176,779.4498 1581.12236,761.075 1567.24696,751.559 L1565.74696,750.809 C1562.55946,749.5902 1488.96596,720.95 1448.41696,711.434 C1432.90096,707.8246 1416.72896,711.15275 1404.07296,720.3402 C1395.16676,726.809 1391.41696,732.3872 1390.80696,733.4652 C1381.47886,733.93395 1374.07296,737.0746 1365.16596,742.2308 C1354.00996,748.5589 1341.63496,751.4183 1329.11896,750.387 C1280.27496,746.1682 1162.75896,747.6682 1157.03896,747.8089 C1151.46086,747.8089 1033.79896,746.1683 984.958955,750.387 C972.583955,751.6058 960.067955,748.7464 948.911955,742.2308 C940.146355,737.262 932.927955,734.2152 923.411955,733.6527 C922.943205,732.9027 919.193155,726.9965 910.005955,720.3867 C897.349955,711.0586 881.177955,707.8707 865.661955,711.4805 C825.114955,720.9961 751.521955,749.6365 748.331955,750.8555 L746.831955,751.6055 C733.097955,760.9336 734.597955,779.3555 736.565955,789.1525 C727.378455,793.9806 721.331955,798.4806 718.471955,802.5585 C698.549955,831.5275 523.471955,1231.7485 562.711955,1420.2785 C570.258855,1458.9035 587.461955,1489.5125 613.523955,1511.2165 C626.929955,1522.3725 643.382955,1528.2785 660.726955,1528.2785 C663.726955,1528.2785 666.773855,1528.13788 669.914455,1527.66912 C690.445455,1525.27852 709.289455,1514.26312 721.664455,1497.66912 C764.789455,1439.77812 845.324455,1337.82912 900.684455,1305.66912 C909.121955,1300.70032 919.246455,1298.12222 929.934455,1298.12222 L1384.33446,1298.12222 C1395.02246,1298.12222 1405.14646,1300.70032 1413.58446,1305.66912 C1468.94346,1337.77812 1549.47446,1439.72912 1592.60446,1497.66912 C1604.97946,1514.26312 1623.82346,1525.27812 1644.35446,1527.66912 C1647.35446,1527.95037 1650.54196,1528.2785 1653.54196,1528.2785 C1670.74496,1528.2785 1687.33896,1522.4191 1700.74496,1511.2165 C1726.99496,1489.5135 1744.01096,1458.9045 1751.55696,1420.2785 C1790.74496,1231.7485 1615.66696,831.5385 1595.79696,802.4185 L1595.60696,802.7 Z M1444.94696,726.247 C1482.02496,735.0126 1550.50696,761.216 1559.27696,764.544 C1563.82386,768.294 1564.10506,776.028 1563.21446,782.497 C1533.35546,769.841 1483.57346,754.747 1411.47446,736.513 C1410.39636,736.23175 1409.64636,736.04425 1408.89636,735.90362 C1410.11516,734.82552 1411.28696,733.79422 1412.83386,732.71612 C1422.02136,726.05992 1433.64586,723.66922 1444.80286,726.24732 L1444.94696,726.247 Z M754.846955,764.591 C763.612555,761.2629 832.049955,734.872 869.176955,726.294 C880.332955,723.7159 892.098955,726.01275 901.145955,732.7628 C902.645955,733.9816 904.005355,735.0128 905.083455,735.9503 C904.192835,736.09092 903.583455,736.41905 902.505355,736.55968 C830.411355,754.79368 780.635355,769.88768 750.765355,782.54368 C749.874735,776.07488 750.155975,768.38768 754.702855,764.59068 L754.846955,764.591 Z M1736.63696,1417.461 C1729.69946,1452.617 1714.32496,1480.367 1690.93396,1499.633 C1678.27796,1510.039 1662.43396,1514.727 1645.98096,1512.758 C1629.38696,1510.7892 1614.62196,1502.211 1604.63696,1488.758 C1560.90296,1429.93 1478.87696,1326.198 1421.11696,1292.728 C1410.42896,1286.5405 1397.58596,1283.2124 1384.31996,1283.2124 L929.919955,1283.2124 C916.653955,1283.2124 903.810955,1286.5405 893.122955,1292.728 C835.513955,1326.197 753.482955,1429.988 709.602955,1488.758 C699.477955,1502.352 684.852955,1510.789 668.118955,1512.758 C651.665955,1514.7268 635.821955,1510.0392 623.165955,1499.633 C599.634955,1480.18 584.399955,1452.571 577.462955,1417.274 C540.056955,1236.904 712.322955,838.644 731.022955,811.174 C734.960455,805.4552 759.850955,788.112 906.242955,751.174 C910.602355,750.0959 913.789855,749.2052 914.258555,749.0646 C924.524555,747.7052 930.383555,749.0646 941.399555,755.3927 C955.274555,763.4083 970.790555,766.8767 986.352555,765.5177 C1034.63356,761.2989 1155.71256,762.9396 1156.93256,762.9396 L1156.93256,755.3927 L1157.07318,762.9396 C1158.29198,762.9396 1279.36318,761.299 1327.65318,765.5177 C1343.35618,766.8771 1358.73118,763.4083 1372.60618,755.3927 C1383.76218,749.0646 1389.66818,747.7052 1398.85618,748.7365 C1400.35618,749.20525 1403.54368,749.9553 1407.90308,750.9865 C1554.34308,787.9245 1579.22308,805.2675 1583.12308,810.9865 C1601.96708,838.4555 1774.04308,1236.7065 1736.49308,1417.4065 L1736.63696,1417.461 Z" opacity=".45"/><path fill="#FFF" fill-rule="nonzero" d="M911.005955,720.3867 C898.349955,711.0586 882.177955,707.8707 866.661955,711.4805 C826.114955,720.9961 752.521955,749.6365 749.331955,750.8555 L747.831955,751.6055 C734.097955,760.9336 735.597955,779.3555 737.565955,789.1525 C759.439777,778.869113 837.169806,748.742653 923.157244,732.7628 M755.846955,764.591 C764.612555,761.2629 833.049955,734.872 870.176955,726.294 C881.332955,723.7159 893.098955,726.01275 902.145955,732.7628 C903.645955,733.9816 905.005355,735.0128 906.083455,735.9503 C905.192835,736.09092 822.140387,753.903591 751.765355,782.54368 C750.874735,776.07488 751.155975,768.38768 755.702855,764.59068"/><path fill="#FFF" fill-rule="nonzero" d="M1567.00596,720.3867 C1554.34996,711.0586 1538.17796,707.8707 1522.66196,711.4805 C1482.11496,720.9961 1408.52196,749.6365 1405.33196,750.8555 L1403.83196,751.6055 C1390.09796,760.9336 1391.59796,779.3555 1393.56596,789.1525 C1415.43978,778.869113 1493.16981,748.742653 1579.15724,732.7628 M1411.84696,764.591 C1420.61256,761.2629 1489.04996,734.872 1526.17696,726.294 C1537.33296,723.7159 1549.09896,726.01275 1558.14596,732.7628 C1559.64596,733.9816 1561.00536,735.0128 1562.08346,735.9503 C1561.19284,736.09092 1478.14039,753.903591 1407.76536,782.54368 C1406.87474,776.07488 1407.15598,768.38768 1411.70286,764.59068" transform="matrix(-1 0 0 1 2971.458 0)"/><path fill="#FFF" fill-rule="nonzero" d="M1473.88696,898.66 C1497.69896,898.66 1517.01196,879.348 1517.01196,855.535 C1517.01196,831.722 1497.69996,812.41 1473.88696,812.41 C1450.07396,812.41 1430.76196,831.722 1430.76196,855.535 C1430.76196,879.348 1450.07396,898.66 1473.88696,898.66 Z M1473.88696,819.957 C1493.48096,819.957 1509.46496,835.941 1509.46496,855.535 C1509.46496,875.129 1493.48096,891.113 1473.88696,891.113 C1454.29296,891.113 1438.30896,875.129 1438.30896,855.535 C1438.30896,835.941 1454.29296,819.957 1473.88696,819.957 Z" opacity=".45"/><path fill="#FFF" fill-rule="nonzero" d="M1473.88696,973.43 C1450.07496,973.43 1430.76196,992.742 1430.76196,1016.555 C1430.76196,1040.368 1450.07396,1059.68 1473.88696,1059.68 C1497.69996,1059.68 1517.01196,1040.368 1517.01196,1016.555 C1517.01196,992.742 1497.69996,973.43 1473.88696,973.43 Z M1473.88696,1052.133 C1454.29296,1052.133 1438.30896,1036.149 1438.30896,1016.555 C1438.30896,996.961 1454.29296,980.977 1473.88696,980.977 C1493.48096,980.977 1509.46496,996.961 1509.46496,1016.555 C1509.46496,1036.149 1493.48096,1052.133 1473.88696,1052.133 Z"/><path fill="#FFF" fill-rule="nonzero" d="M1511.29696 936.06C1511.29696 959.872 1530.60896 979.185 1554.42196 979.185 1578.23496 979.185 1597.54696 959.873 1597.54696 936.06 1597.54696 912.247 1578.23496 892.935 1554.42196 892.935 1530.60896 892.935 1511.29696 912.247 1511.29696 936.06ZM1589.99996 936.06C1589.99996 955.654 1574.01596 971.638 1554.42196 971.638 1534.82796 971.638 1518.84396 955.654 1518.84396 936.06 1518.84396 916.466 1534.82796 900.482 1554.42196 900.482 1574.01596 900.482 1589.99996 916.466 1589.99996 936.06ZM1392.74696 892.9C1368.93496 892.9 1349.62196 912.212 1349.62196 936.025 1349.62196 959.838 1368.93396 979.15 1392.74696 979.15 1416.55996 979.15 1435.87196 959.838 1435.87196 936.025 1435.87196 912.212 1416.55996 892.9 1392.74696 892.9ZM1392.74696 971.603C1373.15296 971.603 1357.16896 955.619 1357.16896 936.025 1357.16896 916.431 1373.15296 900.447 1392.74696 900.447 1412.34096 900.447 1428.32496 916.431 1428.32496 936.025 1428.32496 955.619 1412.34096 971.603 1392.74696 971.603Z" opacity=".45"/><path fill="#FFF" fill-rule="nonzero" d="M1321.73696,1054.14 C1288.26796,1054.14 1260.93996,1081.421 1260.93996,1114.937 C1260.93996,1148.406 1288.22096,1175.734 1321.73696,1175.734 C1355.20596,1175.734 1382.53396,1148.453 1382.53396,1114.937 C1382.53396,1081.468 1355.25296,1054.14 1321.73696,1054.14 Z M1321.73696,1171.75 C1290.37796,1171.75 1264.73696,1146.25 1264.73696,1114.75 C1264.73696,1083.25 1290.23696,1057.75 1321.73696,1057.75 C1353.23696,1057.75 1378.73696,1083.25 1378.73696,1114.75 C1378.73696,1146.25 1353.23696,1171.75 1321.73696,1171.75 Z"/><path fill="#FFF" fill-rule="nonzero" d="M1322.47696 1037.08C1279.21096 1037.08 1244.05496 1072.236 1244.05496 1115.502 1244.05496 1158.768 1279.21096 1193.924 1322.47696 1193.924 1365.74296 1193.924 1400.89896 1158.768 1400.89896 1115.502 1400.89896 1072.236 1365.74296 1037.08 1322.47696 1037.08ZM1322.47696 1186.37C1283.42996 1186.37 1251.60196 1154.542 1251.60196 1115.495 1251.60196 1076.448 1283.42996 1044.62 1322.47696 1044.62 1361.52396 1044.62 1393.35196 1076.448 1393.35196 1115.495 1393.35196 1154.542 1361.52396 1186.37 1322.47696 1186.37ZM867.326955 874.66C833.857955 874.66 806.529955 901.941 806.529955 935.457 806.529955 968.926 833.810955 996.254 867.326955 996.254 900.795955 996.254 928.123955 968.973 928.123955 935.457 928.123955 901.988 900.842955 874.66 867.326955 874.66ZM867.326955 992.27C835.967955 992.27 810.326955 966.77 810.326955 935.27 810.326955 903.77 835.826955 878.27 867.326955 878.27 898.826955 878.27 924.326955 903.77 924.326955 935.27 924.326955 966.77 898.826955 992.27 867.326955 992.27Z"/><path fill="#FFF" fill-rule="nonzero" d="M946.496955,936.06 C946.496955,892.794 911.340955,857.638 868.074955,857.638 C824.808955,857.638 789.652955,892.794 789.652955,936.06 C789.652955,979.326 824.808955,1014.482 868.074955,1014.482 C911.340955,1014.482 946.496955,979.326 946.496955,936.06 Z M868.074955,1006.935 C829.027955,1006.935 797.199955,975.107 797.199955,936.06 C797.199955,897.013 829.027955,865.185 868.074955,865.185 C907.121955,865.185 938.949955,897.013 938.949955,936.06 C938.949955,975.107 907.121955,1006.935 868.074955,1006.935 Z"/><path fill="#FFF" fill-rule="nonzero" d="M1088.42696 1087.75 1055.56796 1087.75 1055.56796 1055.172C1055.56796 1042.797 1045.44296 1032.719 1033.11496 1032.719L996.317955 1032.719C983.942955 1032.719 973.864955 1042.844 973.864955 1055.172L973.864955 1087.75 941.005955 1087.75C928.630955 1087.75 918.552955 1097.875 918.552955 1110.203L918.552955 1147C918.552955 1159.375 928.677955 1169.453 941.005955 1169.453L973.864955 1169.453 973.864955 1202.641C973.864955 1215.016 983.989955 1225.094 996.317955 1225.094L1033.11496 1225.094C1045.48996 1225.094 1055.56796 1214.969 1055.56796 1202.641L1055.56796 1169.453 1088.42696 1169.453C1100.80196 1169.453 1110.87996 1159.328 1110.87996 1147L1110.87996 1110.203C1110.87996 1097.828 1100.75496 1087.75 1088.42696 1087.75L1088.42696 1087.75ZM1103.37996 1147C1103.37996 1155.2969 1096.72376 1161.953 1088.42696 1161.953L1048.02096 1161.953 1048.02096 1202.687C1048.02096 1210.9839 1041.36476 1217.64 1033.06796 1217.64L996.270955 1217.64C987.974055 1217.64 981.317955 1210.9838 981.317955 1202.687L981.317955 1161.953 940.911955 1161.953C932.615055 1161.953 925.958955 1155.2968 925.958955 1147L925.958955 1110.203C925.958955 1101.9061 932.615155 1095.25 940.911955 1095.25L981.317955 1095.25 981.317955 1055.125C981.317955 1046.8281 987.974155 1040.172 996.270955 1040.172L1033.06796 1040.172C1041.36486 1040.172 1048.02096 1046.8282 1048.02096 1055.125L1048.02096 1095.25 1088.42696 1095.25C1096.72386 1095.25 1103.37996 1101.9062 1103.37996 1110.203L1103.37996 1147ZM1103.5 898C1090.54425 898 1080 908.544252 1080 921.5 1080 934.455748 1090.54425 945 1103.5 945 1116.45575 945 1127 934.455748 1127 921.5 1127 908.544252 1116.45575 898 1103.5 898ZM1103.5 939C1093.89632 939 1086 931.103677 1086 921.5 1086 911.896323 1093.89632 904 1103.5 904 1113.10368 904 1121 911.896323 1121 921.5 1121 931.103677 1113.10368 939 1103.5 939ZM1170.5 935C1157.54425 935 1147 945.544252 1147 958.5 1147 971.455748 1157.54425 982 1170.5 982 1183.45575 982 1194 971.455748 1194 958.5 1194 945.544252 1183.45575 935 1170.5 935ZM1170.5 976C1160.89632 976 1153 968.103677 1153 958.5 1153 948.896323 1160.89632 941 1170.5 941 1180.10368 941 1188 948.896323 1188 958.5 1188 968.103677 1180.10368 976 1170.5 976ZM1262 921.5C1262 908.544252 1251.45575 898 1238.5 898 1225.54425 898 1215 908.544252 1215 921.5 1215 934.455748 1225.54425 945 1238.5 945 1251.45575 945 1262 934.455748 1262 921.5ZM1221 921.5C1221 911.896323 1228.89632 904 1238.5 904 1248.10368 904 1256 911.896323 1256 921.5 1256 931.103677 1248.10368 939 1238.5 939 1228.89632 939 1221 931.103677 1221 921.5Z" opacity=".45"/><line x1="729.949" x2="549.68" y1="1070.421" y2="905.265" stroke="#FFF" stroke-linecap="round" stroke-linejoin="round" stroke-width="6" transform="scale(1 -1) rotate(-30 -3048.074 0)"/><line x1="1315.47" x2="1138.289" y1="1400.007" y2="1246.88" stroke="#FFF" stroke-linecap="round" stroke-linejoin="round" stroke-width="6" transform="rotate(-105 1227.29 1323.88)"/><line x1="1738.668" x2="1670.361" y1="1176.213" y2="878.787" stroke="#FFF" stroke-linecap="round" stroke-linejoin="round" stroke-width="6" transform="rotate(105 1704.515 1027.5)"/><line x1="1682.116" x2="1448.675" y1="604.736" y2="570.898" stroke="#FFF" stroke-linecap="round" stroke-linejoin="round" stroke-width="6" transform="rotate(105 1565.396 587.817)"/><text fill="#FFF" font-family="Helvetica-Bold, Helvetica" font-size="70" font-weight="bold" letter-spacing="6.045">
            <tspan x="281.444" y="1038">Move</tspan>
        </text><text fill="#FFF" font-family="Helvetica-Bold, Helvetica" font-size="70" font-weight="bold" letter-spacing="6.045">
            <tspan x="1054.795" y="1523">Orient</tspan>
        </text><text fill="#FFF" font-family="Helvetica-Bold, Helvetica" font-size="70" font-weight="bold" letter-spacing="6.045">
            <tspan x="1886.668" y="1059">Home</tspan>
        </text><text fill="#FFF" font-family="Helvetica-Bold, Helvetica" font-size="70" font-weight="bold" letter-spacing="6.045">
            <tspan x="1646.151" y="436">Go down</tspan>
        </text><line x1="862.663" x2="651.047" y1="617.733" y2="577.048" stroke="#FFF" stroke-linecap="round" stroke-linejoin="round" stroke-width="6" transform="scale(1 -1) rotate(-75 -21.68 0)"/><text fill="#FFF" font-family="Helvetica-Bold, Helvetica" font-size="70" font-weight="bold" letter-spacing="6.045">
            <tspan x="440.8" y="440">Go up</tspan>
        </text><line x1="3119.22" x2="2840.006" y1="627.772" y2="741.386" stroke="#FFF" stroke-linecap="round" stroke-linejoin="round" stroke-width="6" transform="scale(1 -1) rotate(-30 423.888 0)"/><line x1="4102.727" x2="3907.665" y1="819.704" y2="590.351" stroke="#FFF" stroke-linecap="round" stroke-linejoin="round" stroke-width="6" transform="rotate(-105 4005.665 705.351)"/><line x1="3409.017" x2="3597.38" y1="1326.991" y2="1276.549" stroke="#FFF" stroke-linecap="round" stroke-linejoin="round" stroke-width="6" transform="rotate(105 3503.21 1301.564)"/><text fill="#FFF" font-family="Helvetica-Bold, Helvetica" font-size="70" font-weight="bold" letter-spacing="6.045">
            <tspan x="2637.444" y="550">Move</tspan>
        </text><text fill="#FFF" font-family="Helvetica-Bold, Helvetica" font-size="70" font-weight="bold" letter-spacing="6.045">
            <tspan x="4135.795" y="566">Orient</tspan>
        </text><text fill="#FFF" font-family="Helvetica-Bold, Helvetica" font-size="70" font-weight="bold" letter-spacing="6.045">
            <tspan x="3396.668" y="1492">Home</tspan>
        </text><rect width="126.818" height="126.818" x="3156.591" y="727" stroke="#FFF" stroke-width="10" opacity=".336" rx="24"/><text fill="#FFF" fill-rule="nonzero" font-family="ArialMT, Arial" font-size="56">
            <tspan x="3193.572" y="809.364">W</tspan>
        </text><rect width="126.818" height="126.818" x="3007.091" y="876.182" stroke="#FFF" stroke-width="10" opacity=".336" rx="24"/><text fill="#FFF" fill-rule="nonzero" font-family="ArialMT, Arial" font-size="56">
            <tspan x="3051.824" y="958.545">A</tspan>
        </text><rect width="126.818" height="126.818" x="3156.591" y="876.182" stroke="#FFF" stroke-width="10" opacity=".336" rx="24"/><text fill="#FFF" fill-rule="nonzero" font-family="ArialMT, Arial" font-size="56">
            <tspan x="3201.324" y="958.545">S</tspan>
        </text><rect width="126.818" height="126.818" x="3306.091" y="876.182" stroke="#FFF" stroke-width="10" opacity=".336" rx="24"/><text fill="#FFF" fill-rule="nonzero" font-family="ArialMT, Arial" font-size="56">
            <tspan x="3349.279" y="958.545">D</tspan>
        </text><rect width="126.818" height="126.818" x="3725.591" y="727" stroke="#FFF" stroke-width="10" opacity=".336" rx="24"/><text fill="#FFF" fill-rule="nonzero" font-family="ArialMT, Arial" font-size="56">
            <tspan x="3775" y="800.364">↑</tspan>
        </text><rect width="126.818" height="126.818" x="3576.091" y="876.182" stroke="#FFF" stroke-width="10" opacity=".336" rx="24"/><text fill="#FFF" fill-rule="nonzero" font-family="ArialMT, Arial" font-size="56">
            <tspan x="3613.941" y="955.545">←</tspan>
        </text><rect width="126.818" height="126.818" x="3725.591" y="876.182" stroke="#FFF" stroke-width="10" opacity=".336" rx="24"/><text fill="#FFF" fill-rule="nonzero" font-family="ArialMT, Arial" font-size="56">
            <tspan x="3775" y="951.545">↓</tspan>
        </text><rect width="126.818" height="126.818" x="3875.091" y="876.182" stroke="#FFF" stroke-width="10" opacity=".336" rx="24"/><text fill="#FFF" fill-rule="nonzero" font-family="ArialMT, Arial" font-size="56">
            <tspan x="3912.673" y="955.545">→</tspan>
        </text><rect width="998" height="126.818" x="3007" y="1140.182" stroke="#FFF" stroke-width="10" opacity=".336" rx="24"/><rect width="2157" height="1666" x="123" y="121" stroke="#FFF" stroke-width="2" rx="132"/><rect width="2157" height="1666" x="2433" y="121" stroke="#FFF" stroke-width="2" rx="132"/></g></svg>