<?xml version="1.0" encoding="UTF-8" standalone="no"?>
<svg
   width="343"
   height="346"
   viewBox="0 0 343 346"
   version="1.1"
   id="svg27"
   sodipodi:docname="hud-example.svg"
   inkscape:version="1.4 (86a8ad7, 2024-10-11)"
   xmlns:inkscape="http://www.inkscape.org/namespaces/inkscape"
   xmlns:sodipodi="http://sodipodi.sourceforge.net/DTD/sodipodi-0.dtd"
   xmlns="http://www.w3.org/2000/svg"
   xmlns:svg="http://www.w3.org/2000/svg">
  <defs
     id="defs27" />
  <sodipodi:namedview
     id="namedview27"
     pagecolor="#505050"
     bordercolor="#ffffff"
     borderopacity="1"
     inkscape:showpageshadow="0"
     inkscape:pageopacity="0"
     inkscape:pagecheckerboard="1"
     inkscape:deskcolor="#505050"
     inkscape:zoom="1.5797501"
     inkscape:cx="186.42189"
     inkscape:cy="150.97325"
     inkscape:window-width="1353"
     inkscape:window-height="981"
     inkscape:window-x="0"
     inkscape:window-y="0"
     inkscape:window-maximized="0"
     inkscape:current-layer="g27" />
  <g
     fill="none"
     fill-rule="evenodd"
     transform="translate(1)"
     id="g27">
    <g
       stroke="#ffffff"
       transform="translate(0,80)"
       id="g9">
      <polyline
         points="67.409 22 90.072 0 155.409 0"
         id="polyline1" />
      <polyline
         points="185.409 22 208.072 0 273.409 0"
         transform="matrix(-1,0,0,1,458.817,0)"
         id="polyline2" />
      <polyline
         points="67.409 191 90.072 169 155.409 169"
         transform="matrix(1,0,0,-1,0,360)"
         id="polyline3" />
      <polyline
         points="185.409 191 208.072 169 273.409 169"
         transform="rotate(180,229.409,180)"
         id="polyline4" />
      <line
         x1="105.409"
         x2="83.408997"
         y1="96"
         y2="96"
         id="line4" />
      <line
         x1="63.787998"
         y1="96"
         y2="96"
         id="line5"
         x2="0" />
      <line
         x1="257.409"
         x2="235.409"
         y1="96"
         y2="96"
         transform="matrix(-1,0,0,1,492.817,0)"
         id="line6" />
      <line
         x1="340.79401"
         x2="276.05399"
         y1="96"
         y2="96"
         transform="matrix(-1,0,0,1,616.847,0)"
         id="line7" />

    </g>

    <text
       fill="#ffffff"
       fill-rule="nonzero"
       font-family="RobotoMono-Regular, 'Roboto Mono'"
       font-size="10px"
       id="text-position"
       y="60"
       x="0"><tspan
         x="89.408997"
         y="73.420998"
         id="tspan26">x 320 y 235</tspan></text>
    <text
       fill="#ffffff"
       fill-rule="nonzero"
       font-family="RobotoMono-Regular, 'Roboto Mono'"
       font-size="10px"
       id="text-speed"
       y="60.038952"
       x="100.70459"><tspan
         x="190.11359"
         y="73.459938"
         id="tspan26-9">100u/s</tspan></text>
  </g>
</svg>
