<svg xmlns="http://www.w3.org/2000/svg" width="932" height="932" viewBox="0 0 932 932"><path fill="none" stroke="#FFF" stroke-width="5" d="M781.028932 450 781.028932 460.898719 793.261717 460.898719 793.261717 450 781.028932 450ZM804.563125 454.47443 804.563125 467.283858 799.797246 467.283858 799.797246 477.028568 804.563125 477.028568 804.563125 497.98554C804.563091 503.46814 805.654506 507.339995 807.843904 509.602163 810.054612 511.864331 813.412772 513 817.919955 513 819.937471 513 821.646857 512.873031 823.042 512.634435 824.437143 512.421585 825.75438 512.116859 826.999127 511.717611L826.999127 501.857747 826.032815 501.857747C825.646605 502.123854 824.960125 502.416765 823.972853 502.736127 823.007065 503.05549 822.223989 503.217023 821.622927 503.217023 820.163503 503.217023 819.048716 502.948095 818.276121 502.41553 817.525011 501.856513 816.999758 501.116036 816.699314 500.184576 816.377385 499.253115 816.207075 498.201387 816.185765 497.030449 816.163057 495.859405 816.150829 494.484893 816.150829 492.914531L816.150829 477.028215 827 477.028215 827 467.283506 816.15048 467.283506 816.15048 454.47443 804.563125 454.47443ZM781.34859 467.283858 781.34859 512.12162 792.940486 512.12162 792.940486 467.283858 781.34859 467.283858ZM765.346806 503.935634C764.659977 503.935634 763.932274 504.413532 763.159679 505.371796 762.387084 506.330061 762 507.23842 762 508.089995 762 508.914942 762.387084 509.817129 763.159679 510.801846 763.932274 511.760111 764.659977 512.238008 765.346806 512.238008 766.012149 512.238008 766.730769 511.760111 767.503365 510.801846 768.297445 509.817129 768.693437 508.915119 768.693437 508.089995 768.693437 507.238244 768.29727 506.329885 767.503365 505.371796 766.730769 504.413532 766.012149 503.935634 765.346806 503.935634L765.346806 503.935634ZM398 413.001067 398 513.902541 420.337724 513.902541 420.337724 481.031015 434.242094 481.031015C440.563952 481.031012 445.841992 480.013119 450.069546 477.980071 454.335871 475.94704 458.190457 472.944001 461.642252 468.968332 464.163206 466.031906 466.105236 462.416231 467.462727 458.124452 468.820218 453.787565 469.496507 449.360985 469.496507 444.843314 469.496507 439.015572 468.56707 434.027059 466.705388 429.870955 464.882477 425.714677 462.231177 422.306011 458.740611 419.640587 455.831777 417.426947 452.474891 415.775416 448.673987 414.691237 444.911853 413.561828 440.277121 413 434.769617 413L398 413.001067ZM635.657388 416.043619 635.657388 437.797117 627.04597 437.797117 627.04597 454.336385 635.657388 454.336385 635.657388 489.910926C635.657388 499.217269 637.64082 505.793672 641.596981 509.63454 645.591737 513.474535 651.662202 515.387975 659.806796 515.387975 663.452619 515.387975 666.535481 515.189358 669.056435 514.782857 671.577389 514.421464 673.95484 513.902017 676.204226 513.22434L676.204226 496.48593 674.459908 496.48593C673.76169 496.937715 672.525423 497.436181 670.741282 497.978183 668.995911 498.520359 667.581054 498.790661 666.495132 498.790661 663.857691 498.790661 661.841278 498.334505 660.445017 497.431111 659.087526 496.482433 658.137388 495.223591 657.594251 493.642345 657.012519 492.061151 656.696918 490.274591 656.658323 488.286669 656.617973 486.298922 656.598676 483.971636 656.598676 481.306212L656.598676 454.337259 676.204928 454.337259 676.204928 437.797992 656.598676 437.797992 656.598676 416.043619 635.657388 416.043619ZM420.350005 431.836848 424.18775 431.836848C427.872343 431.836848 430.826789 431.908532 433.037579 432.044102 435.24837 432.134494 437.517931 432.717425 439.845033 433.801586 441.590403 434.614763 443.121396 436.059285 444.440117 438.137424 445.758837 440.170455 446.41425 442.611736 446.41425 445.457769 446.41425 448.349085 446.086544 450.811521 445.427271 452.844552 444.806769 454.832299 443.781897 456.547297 442.346865 457.992868 440.679211 459.619223 438.600169 460.700603 436.117986 461.24278 433.674572 461.784904 430.550133 462.063528 426.749228 462.063528L420.350005 462.063528 420.350005 431.836848ZM721.004933 435.426647C709.485909 435.426647 700.407492 439.114007 693.774418 446.477711 687.180991 453.796307 683.886558 463.730847 683.886558 476.28955 683.886558 488.984278 687.380457 498.761638 694.361588 505.629323 701.342894 512.496134 711.384081 515.934348 724.493744 515.934348 729.574599 515.934348 734.20933 515.435881 738.398114 514.442095 742.586898 513.448309 747.04304 511.847306 751.774785 509.633666L751.774785 490.042929 749.451717 490.042929C747.047075 492.166177 743.773343 494.159694 739.623329 496.011941 735.473316 497.864188 731.186992 498.789262 726.765586 498.789262 719.784455 498.789262 714.485539 497.20959 710.878662 494.047097 707.310556 490.88478 705.377122 486.323049 705.066784 480.359633L753 480.359633 753 471.820484C753 460.074609 750.327999 451.077556 744.975752 444.842789 739.623505 438.563263 731.631887 435.424899 721.004758 435.424899L721.004933 435.426647ZM510.697355 435.633901C505.694217 435.633901 500.690026 436.102855 495.686888 437.051568 490.72252 437.955102 487.133187 438.744973 484.922571 439.422563L484.922571 457.79467 486.845654 457.79467C488.552079 457.026671 491.361267 455.937003 495.278483 454.536541 499.195698 453.090883 502.880291 452.372731 506.332086 452.372731 512.072213 452.372731 516.412395 453.18374 519.359999 454.810164 522.307603 456.391358 523.784914 459.280454 523.784914 463.481841L523.784914 463.888063C517.618137 464.294651 511.663808 464.928199 505.924208 465.786642 500.184081 466.644998 495.379356 468.089624 491.500911 470.12248 487.583696 472.155511 484.554516 474.938777 482.421441 478.462662 480.288191 481.986372 479.221917 486.526947 479.221917 492.083688 479.221917 499.040891 481.313063 504.755686 485.501847 509.228249 489.690631 513.700812 494.893936 515.935257 501.099484 515.935257 503.736925 515.935257 506.155777 515.664956 508.366568 515.122779 510.577359 514.625711 512.710083 513.835962 514.765617 512.751784 516.239419 511.938607 517.811989 510.827853 519.479819 509.427391 521.147473 508.026928 522.541629 506.831553 523.666497 505.837591L523.666497 513.90415 544.437616 513.90415 544.437616 462.130753C544.437616 453.005019 541.786316 446.314621 536.472839 442.067951 531.198133 437.776172 522.604784 435.633901 510.698407 435.633901L510.697355 435.633901ZM592.957301 435.700165C582.640686 435.700165 574.500127 438.141446 568.526676 443.02051 562.592521 447.854465 559.625795 453.924184 559.625795 461.242255 559.625795 466.934497 561.052932 471.703237 563.922996 475.543231 566.793059 479.338117 571.195519 482.142538 577.129498 483.949677 579.301518 484.627336 581.708091 485.210285 584.345356 485.707161 587.021392 486.158928 589.133415 486.593858 590.684758 487.000464 593.942701 487.768463 596.158579 488.57949 597.322043 489.437898 598.485506 490.251075 599.066361 491.581602 599.066361 493.433849 599.066361 495.511988 598.074645 497.091661 596.096652 498.176014 594.118659 499.215083 591.077199 499.734705 586.966131 499.734705 583.824675 499.734705 580.87865 499.371564 578.124898 498.648604 575.371321 497.88071 572.902294 496.985009 570.730274 495.945939 568.20932 494.771369 566.25501 493.681771 564.858749 492.68781 563.501258 491.64874 562.297972 490.70251 561.250819 489.844224L559.327737 489.844224 559.327737 509.898285C562.1978 511.434248 565.998704 512.836634 570.730274 514.101596 575.462019 515.366557 580.740059 516 586.557726 516 597.068368 516 605.346466 513.609248 611.397107 508.820576 617.447397 503.986621 620.476577 497.638383 620.476577 489.777086 620.476577 484.401129 619.157155 479.923846 616.519714 476.355027 613.882273 472.740925 609.807696 470.101028 604.300191 468.42939 601.818008 467.706569 599.336701 467.115298 596.854517 466.663513 594.411104 466.166568 592.120667 465.676476 589.987417 465.17953 586.108972 464.230818 583.648542 463.276405 582.601214 462.327552 581.554062 461.37884 581.027065 460.006037 581.027065 458.198899 581.027065 456.211151 582.176669 454.673615 584.464825 453.589437 586.791928 452.505189 589.642518 451.964516 593.016772 451.964516 597.089069 451.964516 601.101544 452.754387 605.05753 454.335511 609.052287 455.871526 612.600043 457.877929 615.702729 460.362569L617.506693 460.362569 617.506693 441.119762C614.985564 439.809639 611.47956 438.584768 606.980438 437.455482 602.520261 436.280894 597.843952 435.697997 592.95695 435.697997L592.957301 435.700165ZM719.320789 450.672524C723.664654 450.672524 726.863827 451.960774 728.919361 454.535772 730.974895 457.110804 732.053625 460.95447 732.169936 466.059426L705.007839 466.059426C705.318002 460.683469 706.766016 456.776337 709.364686 454.336805 711.963181 451.897273 715.287086 450.672524 719.320613 450.672524L719.320789 450.672524ZM523.661761 478.188584 523.661761 494.048216C522.032701 495.674571 520.132425 496.983942 517.960404 497.977903 515.82733 498.971864 513.715307 499.470156 511.621003 499.470156 508.983562 499.470156 507.050129 499.263321 505.809124 498.856645 504.56812 498.404861 503.493074 497.729107 502.601004 496.825538 501.670163 495.921969 501.089309 494.967521 500.856686 493.97356 500.624064 492.979599 500.507752 491.699776 500.507752 490.11853 500.507752 487.724106 501.055626 485.802448 502.141548 484.356702 503.266241 482.865866 504.871968 481.733939 506.966272 480.96587 508.672697 480.333389 511.17488 479.792716 514.471593 479.340949 517.768307 478.844004 520.830468 478.459655 523.661761 478.188584L523.661761 478.188584ZM115.752413 410 115.752413 428.922815 135.881878 428.922815 135.881878 469.885536C135.881878 474.076387 135.818496 477.538053 135.700529 480.255323 135.582368 482.92644 135.077332 485.385147 134.172076 487.641759 133.227458 489.94435 131.631532 491.74415 129.388058 493.033643 127.183912 494.323135 124.013236 494.968931 119.880419 494.968931 116.692361 494.968931 114.07755 494.620159 112.030893 493.929435 109.984236 493.192574 108.013603 492.408931 106.12426 491.579991L104 491.579991 104 512.446836C106.715766 513.091582 109.865373 513.569548 113.447066 513.892096 117.028759 514.260622 120.843614 514.449955 124.897598 514.449955 130.880079 514.449955 135.903755 513.666225 139.95774 512.100512 144.011724 510.488646 147.472974 508.232384 150.346054 505.331025 153.06182 502.613755 155.108301 499.298241 156.485848 495.383785 157.863413 491.423175 158.549711 487.186346 158.549711 482.673122L158.549711 410.001049 115.752413 410ZM337.852493 413.101705 337.852493 435.277972 329.113513 435.277972 329.113513 452.138229 337.852493 452.138229 337.852493 488.403462C337.852493 497.890394 339.856836 504.594497 343.871317 508.509827 347.925302 512.424284 354.085638 514.374956 362.350395 514.374956 366.050073 514.374956 369.178787 514.172511 371.737064 513.758007 374.295516 513.38948 376.716671 512.859942 378.999473 512.169217L378.999473 495.105992 377.229169 495.105992C376.520731 495.566475 375.257306 496.07451 373.446796 496.627299 371.675613 497.179914 370.239776 497.455435 369.137703 497.455435 366.461265 497.455435 364.414784 496.990581 362.997909 496.06944 361.620361 495.10232 360.656114 493.819121 360.104989 492.207256 359.514537 490.59539 359.20307 488.774086 359.163741 486.747716 359.12336 484.721345 359.104047 482.348825 359.104047 479.63173L359.104047 452.139103 379 452.139103 379 435.278846 359.104047 435.278846 359.104047 413.101705 337.852493 413.101705ZM294.512252 433.13989C284.042823 433.13989 275.782104 435.628667 269.719562 440.602374 263.697577 445.530103 260.686848 451.717605 260.686848 459.179041 260.686848 464.981758 262.143755 469.842879 265.056338 473.757511 267.968922 477.625989 272.436557 480.48504 278.458542 482.327147 280.662688 483.017942 283.104911 483.612234 285.781348 484.118731 288.497114 484.579267 290.640336 485.022652 292.214701 485.437122 295.52092 486.220031 297.760882 487.046785 298.941612 487.921878 300.122342 488.750835 300.711916 490.107162 300.711916 491.995423 300.711916 494.113925 299.714134 495.724217 297.706806 496.829622 295.699478 497.888873 292.604473 498.418411 288.432328 498.418411 285.24427 498.418411 282.25461 498.048136 279.460187 497.311258 276.665764 496.528402 274.168762 495.615478 271.964616 494.556227 269.40634 493.358848 267.414462 492.248042 265.997586 491.234944 264.620039 490.17571 263.398927 489.211196 262.336183 488.336208L260.39329 488.336208 260.39329 508.779981C263.305874 510.345694 267.162865 511.775219 271.964792 513.064712 276.766543 514.354205 282.114151 515 288.017975 515 298.684222 515 307.094002 512.562796 313.233796 507.68122 319.373766 502.753491 322.439098 496.281902 322.439098 488.268901 322.439098 482.788557 321.100002 478.224459 318.423564 474.586223 315.747126 470.902008 311.620805 468.210786 306.031784 466.506789 303.512835 465.769929 300.986162 465.167192 298.467213 464.706639 295.987593 464.200055 293.671783 463.700447 291.507141 463.193863 287.571317 462.226743 285.065712 461.25368 284.002968 460.28656 282.940223 459.319441 282.41403 457.919985 282.41403 456.077877 282.41403 454.051507 283.571935 452.484221 285.894066 451.378991 288.255526 450.273709 291.148445 449.722545 294.572649 449.722545 298.705291 449.722545 302.777184 450.527744 306.791665 452.139645 310.84565 453.705462 314.454381 455.750784 317.60311 458.283791L319.433812 458.283791 319.433812 438.668677C316.875535 437.333136 313.308766 436.084622 308.743161 434.933239 304.216884 433.735861 299.471316 433.141656 294.512076 433.141656L294.512252 433.13989ZM178.089672 435.277972 178.089672 485.773953C178.089672 495.399169 180.060306 502.675817 183.996305 507.604071 187.971633 512.5318 193.618243 514.998899 200.938942 514.998899 205.465219 514.998899 209.364524 514.099086 212.631238 512.302957 215.897953 510.460849 219.498257 507.791131 223.434081 504.291179L223.434081 512.860816 244.685459 512.860816 244.685459 435.277972 223.434081 435.277972 223.434081 490.270219C221.387424 491.789989 219.265271 492.935392 217.061126 493.718423 214.85698 494.50128 212.844209 494.893058 211.033698 494.893058 208.317932 494.893058 206.195779 494.50128 204.660743 493.718423 203.165035 492.935515 202.040839 491.695375 201.292898 489.991377 200.505628 488.287397 199.9919 486.147374 199.755754 483.568389 199.558937 480.943425 199.462196 477.670918 199.462196 473.756462L199.462196 435.277972 178.089672 435.277972Z"/></svg>