<svg xmlns="http://www.w3.org/2000/svg" width="932" height="932" viewBox="0 0 932 932"><path fill="none" stroke="#FFF" stroke-linejoin="round" stroke-width="5" d="M751.99322,469.80185 C752.0791,475.681287 751.34911,481.550001 749.803248,487.225593 C748.257378,492.901185 745.917111,498.34074 742.846853,503.361874 C739.787333,508.383001 736.030024,512.953514 731.693019,516.933946 C727.356007,520.914371 722.482246,524.261791 717.211279,526.879638 C717.329363,528.446061 717.42598,530.023213 717.479657,531.600359 C717.608879,534.746181 717.608879,537.895978 717.479657,541.0418 C717.42601,542.618952 717.329363,544.196098 717.211279,545.76252 C717.211279,641.893542 605.136131,720 466.867179,720 C328.598227,720 216.523084,641.893542 216.523084,545.76252 C216.404997,544.196098 216.30838,542.618952 216.254704,541.0418 C216.125483,537.895978 216.125483,534.746181 216.254704,531.600359 C216.308381,530.023213 216.404997,528.446061 216.523084,526.879638 C199.809816,519.201686 187.310318,504.579721 182.331576,486.882272 C177.361037,469.176707 180.422562,450.182781 190.705007,434.932894 C200.978574,419.685286 217.43794,409.720483 235.717562,407.681466 C253.999266,405.633561 272.258403,411.713777 285.657559,424.311275 C297.947532,415.985989 310.823972,408.560089 324.186078,402.091704 C337.551359,395.632901 351.367522,390.1397 365.527207,385.67647 C379.686892,381.213248 394.157896,377.790721 408.811397,375.419634 C423.464898,373.048547 438.279431,371.750346 453.126166,371.52504 L484.902264,222.607789 C485.256522,220.880436 485.95431,219.249641 486.952679,217.790509 C487.940318,216.342107 489.217802,215.097553 490.68852,214.142681 C492.169969,213.187808 493.823185,212.533344 495.562282,212.211477 C497.290649,211.900338 499.072686,211.932525 500.790308,212.308037 L605.99495,233.336698 C616.612028,215.108283 638.898237,207.297637 658.575793,214.893704 C678.253357,222.489771 689.503809,243.25021 685.10239,263.871176 C680.711708,284.49213 661.968106,298.868875 640.905712,297.78525 C619.83258,296.701633 602.667044,280.479521 600.412657,259.515238 L508.519634,240.2032 L480.608199,374.09998 C495.272437,374.411117 509.904464,375.784417 524.375475,378.198426 C553.354517,383.026123 581.484478,392.009453 607.895071,404.870489 C621.086056,411.286317 633.797216,418.643952 645.929767,426.886215 C654.653306,418.515582 665.61499,412.847893 677.491156,410.567542 C689.367397,408.279116 701.652549,409.475242 712.863537,414.011523 C724.075784,418.545582 733.73584,426.225152 740.678355,436.123803 C747.622945,446.023273 751.552634,457.719767 751.99322,469.80185 L751.99322,469.80185 Z M325.850024,529.143441 C328.01853,534.346959 331.174668,539.07841 335.168152,543.058835 C339.150898,547.04999 343.885109,550.204288 349.091662,552.37153 C354.303113,554.525521 359.887676,555.63312 365.527207,555.63312 C382.896708,555.63312 398.548578,545.172431 405.204383,529.143441 C411.849451,513.103721 408.167287,494.649999 395.886256,482.376127 C383.605225,470.102256 365.140738,466.422238 349.091662,473.063432 C333.053323,479.715357 322.586539,495.35811 322.586539,512.717485 C322.586539,518.350162 323.692255,523.929193 325.850024,529.143441 L325.850024,529.143441 Z M571.792706,632.162425 C573.993415,630.016645 575.249425,627.087653 575.293496,624.019185 C575.33535,620.939987 574.143709,617.978803 571.99667,615.779376 C569.849637,613.57995 566.918937,612.324672 563.848679,612.281757 C560.767685,612.238805 557.804781,613.429751 555.324957,615.285848 C548.868005,619.914532 542.030303,623.988201 534.885199,627.463159 C527.739666,630.939938 520.313186,633.807588 512.684878,636.035558 C505.062907,638.256446 497.258438,639.833591 489.368089,640.745548 C481.46701,641.657505 473.512247,641.893542 465.578958,641.46439 C457.656406,641.818442 449.712387,641.496604 441.843504,640.509511 C433.972757,639.532249 426.200553,637.881081 418.612604,635.574215 C411.012106,633.278227 403.637047,630.338512 396.541103,626.79797 C389.445159,623.257428 382.660533,619.116073 376.262369,614.427538 C374.040193,612.603624 371.21684,611.670207 368.339816,611.809683 C365.462793,611.949159 362.746794,613.161529 360.707116,615.189287 C358.678167,617.227784 357.465097,619.9422 357.32554,622.817546 C357.185982,625.692892 358.119937,628.514592 359.944914,630.735479 C367.491742,636.421802 375.510912,641.442929 383.916543,645.755951 C392.322182,650.068974 401.092816,653.6417 410.110355,656.45267 C419.127893,659.263647 428.37087,661.291413 437.742674,662.525237 C447.114471,663.74833 456.572156,664.166758 466.008368,663.780515 C475.444579,664.166758 484.902264,663.7483 494.274061,662.525237 C513.044678,660.057744 531.251567,654.385471 548.100192,645.755951 C556.505823,641.442929 564.524993,636.421802 572.071821,630.735479 L571.792706,632.162425 Z M563.913093,559.06637 C569.731554,559.130725 575.507074,558.004207 580.885388,555.772596 C586.263709,553.530254 591.12674,550.225749 595.18463,546.052203 C599.242527,541.878657 602.398666,536.921899 604.481291,531.482344 C606.565388,526.049111 607.518776,520.248139 607.283163,514.434106 C607.283163,497.074732 596.81638,481.431986 580.778041,474.780061 C564.728965,468.138867 546.264478,471.818885 533.983447,484.092756 C521.702416,496.366628 518.020251,514.82035 524.66532,530.860063 C531.321125,546.88906 546.972995,557.349741 564.342495,557.349741 L563.913093,559.06637 Z"/></svg>