<svg xmlns="http://www.w3.org/2000/svg" width="932" height="932" viewBox="0 0 932 932"><path fill="none" stroke="#FFF" stroke-width="5" d="M519.274646 316.266432C518.897355 359.554193 519.806059 402.87654 519.164911 446.156202 512.228185 445.752343 505.290225 446.154013 498.36213 445.886963 496.458414 445.606779 494.420303 445.633046 492.490695 445.557528L492.416716 445.300328 491.316901 445.467782 491.373618 445.061734C492.396989 443.89503 492.739756 443.207704 492.896344 441.736739 493.384603 437.156388 493.083757 432.341821 493.154036 427.734109 493.304459 416.685814 493.351313 405.637519 493.294596 394.589224 493.300761 368.56933 493.834639 342.450934 493.10595 316.441547 501.750349 316.28055 510.680799 316.892905 519.274646 316.266432ZM345.280683 486.59353C354.989963 486.805127 364.700065 486.829206 374.410989 486.665765 374.390028 530.162132 374.893083 573.689145 374.33701 617.181134 364.618688 616.977563 354.869542 617.140639 345.148754 617.165811L345.076009 541.66828C345.078475 523.326082 344.751736 504.929161 345.280683 486.59353ZM406.124381 316.188177C420.143325 316.025174 434.16268 315.972932 448.182447 316.031449 457.636911 316.029151 467.32071 315.654733 476.736952 316.361541 475.941683 324.330913 476.370758 332.599623 476.217869 340.612227 469.566371 340.700514 462.914873 340.699055 456.263375 340.607849L456.104321 427.924546C456.174601 433.893777 456.096924 439.869575 456.07473 445.839901 446.067892 445.977074 436.061875 445.939862 426.056681 445.728265L426.040652 340.617699 406.533729 340.80157C406.494274 332.602906 406.594145 324.376881 406.124381 316.188177ZM129.072928 316.185441C141.880843 316.0247 154.689292 315.975449 167.498275 316.037688 177.96637 316.037578 188.489949 315.82744 198.944235 316.340527 198.56941 324.42066 198.583589 332.531766 198.458812 340.618794 191.85392 340.680084 185.249029 340.67826 178.644137 340.613321L178.618368 429.313427C178.632342 434.822981 178.584215 440.332171 178.473987 445.840995 168.457367 445.964306 158.441034 445.947159 148.42499 445.789555 147.865712 410.76328 148.267045 375.650541 148.380603 340.617699 141.784424 340.752319 135.18578 340.575015 128.590588 340.790625 128.700076 336.215747 127.479306 319.183081 128.265575 316.371172L129.072928 316.185441ZM726.417187 486.814613C736.613903 486.534429 746.887065 486.805857 757.091179 486.855108 757.266262 487.130914 757.440112 487.393587 757.536284 487.701132 758.325389 490.204182 757.695338 510.575524 757.691639 515.16463 757.673144 539.886485 758.211955 564.69918 757.670678 589.411185 757.647252 590.449835 757.628757 591.319938 757.09981 592.276503 768.713628 592.115252 780.327857 592.02587 791.942497 592.008358 792.153336 592.360777 792.380204 592.724141 792.499802 593.110488 793.320965 595.77333 793.334527 614.62555 792.11758 616.723646L791.604661 617.298242C785.463205 617.398933 779.249002 617.175662 773.097682 617.171284 757.392848 617.230385 741.689246 617.13845 725.986878 616.895478 726.49733 616.181884 726.573775 615.622611 726.598434 614.796287 726.85366 606.534144 726.552814 598.189917 726.558979 589.917924L726.561445 534.108786 726.581173 503.593909C726.595968 498.094205 727.037374 492.272727 726.417187 486.814613ZM241.759965 486.672332C263.687221 486.60338 285.609546 487.052112 307.541734 486.692032 307.508444 494.936664 307.223626 503.245868 307.541734 511.482838L270.976579 511.730188C271.041927 520.29331 271.154128 528.847676 270.819991 537.407514 280.612291 537.186431 290.413223 537.565117 300.198125 537.190809 300.280324 545.378163 300.263062 553.565152 300.14634 561.751777 290.388563 561.686109 280.630786 561.712376 270.873009 561.830578 271.307017 580.224216 270.86931 598.626609 271.141798 617.021342 261.365526 616.821054 251.498014 617.119844 241.711879 617.170189L241.620638 548.583132C241.535152 527.946563 241.581594 507.30963 241.759965 486.672332ZM307.745175 316.45873C321.808507 316.337025 335.871838 316.307438 349.93517 316.369968 356.83614 316.387808 364.055218 316.789478 370.9155 316.284819 370.750281 324.402565 370.640135 332.520821 370.585062 340.639588 359.022207 340.642872 347.179467 341.218562 335.647436 340.599093 335.811833 349.119166 335.724292 357.637414 335.384812 366.153838 344.698718 366.175728 354.010157 366.061903 363.319131 365.812364 363.436675 374.22299 363.446538 382.63398 363.348722 391.045335 354.099754 390.773178 344.848319 390.682337 335.594418 390.772813 335.743197 400.829519 335.645792 410.884401 335.302203 420.937459 347.432227 421.292067 359.573348 420.910097 371.703372 421.146503 371.450612 425.362395 372.430828 429.457896 372.702083 433.648616 372.946212 437.420155 372.328491 441.706093 373.239661 445.348485 373.063345 445.490766 372.936349 445.705281 372.711947 445.774233 370.847686 446.342262 321.883718 446.133219 316.027079 445.884774 312.965598 445.393358 309.429421 445.565189 306.305058 445.404303 305.90804 444.938059 307.27911 444.094224 307.423368 443.439732 308.309878 439.386915 307.815455 434.598615 307.91286 430.43854 308.435642 408.184712 308.090409 385.871783 308.091642 363.611388 308.091642 347.970339 308.758682 332.062239 307.745175 316.45873ZM764.164766 314.075415C771.173005 313.723981 777.945746 314.567269 784.302974 317.313291 792.899287 321.025947 797.520483 326.918237 800.554839 334.799505 801.828503 338.108083 804.45721 346.269534 802.755702 349.378919 796.524238 350.731683 783.004649 350.475577 775.937227 350.569701 776.117242 350.268722 776.2615 350.021372 776.316984 349.679898 776.775651 346.838658 775.29238 341.483424 773.139603 339.270408 772.971918 339.095293 772.79437 338.928205 772.606957 338.769142 772.419545 338.610809 772.223502 338.461231 772.018827 338.32041 771.813331 338.180318 771.600026 338.050076 771.378913 337.929684 771.158621 337.810023 770.931342 337.700576 770.697076 337.601344 770.463633 337.502842 770.224846 337.415284 769.980717 337.338671 769.735766 337.262059 769.487526 337.197485 769.235999 337.144951 768.98365 337.091686 768.729246 337.050461 768.472787 337.021276 768.215506 336.992819 767.957402 336.976038 767.698477 336.97093 765.91436 336.949041 764.061196 337.559754 762.822055 338.718796 761.130411 340.302492 760.906009 342.712512 761.01821 344.788719 761.870197 360.570954 784.470658 371.805674 794.240765 384.231174 800.660875 392.394815 804.687776 401.748143 804.979992 411.771285 805.259877 421.347885 802.637336 430.714346 794.968222 437.761629 786.845371 445.22481 777.944513 446.471409 766.787308 446.580856 761.902254 446.616974 756.648541 446.588924 751.974326 445.218243 740.568059 441.872453 733.184995 431.40605 731.145652 421.32709 730.576017 418.511022 731.026053 414.25354 729.534152 411.729696 729.493463 411.662933 729.449076 411.597265 729.405922 411.531597 739.026839 411.381655 748.403626 410.399916 757.972758 409.720251 758.859268 411.041275 758.67802 412.66875 758.796386 414.167077 759.057777 417.452671 760.10704 421.77035 763.161123 423.957098 764.312723 424.781233 765.761471 425.069078 767.210219 424.839239 769.201476 424.524032 773.006442 423.27196 774.134615 421.753933 775.24676 420.207449 775.238129 417.736139 775.307176 415.946683 776.175192 393.665493 735.658347 381.15134 732.017367 350.889286 730.99153 342.361187 732.637554 332.414658 738.90724 325.597213 745.218847 318.733035 754.353971 314.917828 764.164766 314.075415ZM418.224813 485.360064C426.468495 485.015307 435.137554 485.424638 442.450338 489.189609 455.574142 495.946858 456.477913 507.631404 459.894492 519.322516 450.583052 520.824127 441.547799 522.031326 432.05018 522.035704 432.055112 521.947052 432.061277 521.859494 432.064976 521.770842 432.205535 517.608579 431.950309 513.093896 428.442491 509.952771 426.985112 508.64707 425.12825 507.676277 422.996433 507.723339 420.933663 507.768212 419.044743 508.789351 417.742719 510.168382 412.538325 515.683408 417.798203 524.479652 421.933607 529.18915 429.135424 537.392191 439.238434 543.436941 446.690545 551.508646 453.087228 558.438821 458.736727 567.1092 459.830377 576.119959 461.083081 586.437514 460.896902 598.878337 453.109421 607.235699 447.030846 613.758731 436.85509 617.004925 427.611464 617.792942 427.244859 617.819209 426.877843 617.842193 426.510416 617.861893 415.736666 618.4343 405.276093 616.979752 396.994189 610.3221 387.977431 603.074529 386.516353 593.152078 386.019464 582.964765 395.270487 582.176748 404.474658 581.288039 413.755273 580.811946 413.768425 581.926115 413.827608 583.038095 413.932822 584.147886 414.290385 587.564816 414.911805 592.068554 418.207552 594.338482 420.94476 596.224251 423.625251 595.765669 426.801399 595.402305 427.740927 594.824426 428.755667 594.150233 429.484356 593.358933 431.586581 591.072588 431.713578 588.110956 431.455886 585.308022 429.865346 568.034026 409.643296 558.80109 398.815295 546.411706 392.962355 539.714653 388.574191 531.677971 387.455881 523.205691 386.211808 513.77575 388.269646 502.959118 395.158286 495.425891 400.847241 489.207121 409.450952 486.214844 418.224813 485.360064ZM648.250167 486.812424C670.133036 486.897063 692.015906 486.867877 713.898775 486.724866 714.082488 487.067435 714.274833 487.422043 714.369772 487.794162 715.066404 490.545656 715.020784 509.766712 713.670674 511.621836 701.66888 511.545223 689.672017 511.669992 677.670222 511.489405 677.83914 511.756455 677.973535 511.932665 678.080804 512.216132 678.904432 514.388652 678.594955 535.82929 677.635699 537.493977 687.250451 537.215982 696.85164 537.275083 706.470091 536.87013 706.646406 537.174392 706.859711 537.478654 706.974378 537.806995 707.781978 540.123985 707.56744 560.041122 706.466392 561.808689 696.817117 561.72478 687.167841 561.717848 677.518566 561.787894 678.978411 564.085184 678.380417 587.846095 677.898323 592.242575 689.930942 591.948163 702.57635 591.387795 714.562116 592.326849 716.044154 594.091132 715.843179 598.976839 715.453558 601.263184 715.372182 601.737089 715.1934 602.071996 714.968999 602.502122 716.236499 605.117902 715.721114 613.013398 716.009631 616.394211 714.461834 616.54087 712.915682 616.697379 711.371173 616.863738 690.414269 617.767769 668.982669 617.427389 648.009737 616.792598 649.028175 573.494329 647.777937 530.123826 648.250167 486.812424ZM653.741845 316.202952C663.901572 315.899237 674.10692 316.041737 684.272812 316.037359 695.521258 316.032434 706.790665 315.908322 718.036644 316.120758 720.002009 317.648526 720.396562 323.888748 720.572877 326.327224 720.847831 330.11299 721.193065 337.061771 720.253536 340.575015 719.685134 340.983252 687.471154 340.62536 684.238289 340.568448 684.413372 340.902261 684.610648 341.252491 684.700655 341.61476 685.188914 343.597937 685.002735 363.171412 684.679695 365.151305 684.608182 365.585809 684.415838 365.878032 684.186504 366.258907 694.025658 366.152379 703.864811 366.148366 713.703965 366.246868 713.824796 366.441683 713.98385 366.671522 714.065227 366.890416 714.828439 368.930505 714.621299 389.340153 713.606559 390.889921 703.859879 390.633815 694.070045 390.768435 684.3172 390.744357 684.401042 390.889921 684.572426 391.163538 684.632842 391.338653 685.296183 393.296657 685.134663 416.02439 684.839982 419.355952 684.782032 420.010444 684.567494 420.508427 684.180339 421.056756 697.009461 421.191376 709.890368 420.753588 722.704694 421.318334 722.873612 421.643391 723.04253 421.979393 723.125139 422.331812 723.814373 425.303294 723.591204 443.738521 722.306443 445.651652 713.073914 446.147447 703.753843 445.962481 694.506518 445.960293 681.048167 445.990208 667.590228 445.936579 654.132699 445.799406L654.103107 362.272853C654.11667 346.974372 654.723294 331.466848 653.741845 316.202952ZM615.018981 487.234889C616.529377 493.312472 617.055858 499.616611 618.149508 505.766429L626.204545 551.050064 633.787351 591.766481C635.344601 600.278162 637.301335 608.565478 637.589851 617.226007 628.109494 616.917367 618.313494 616.770708 608.83437 617.049798 606.832016 607.73806 605.465878 598.827992 604.578135 589.38054 598.975489 589.475758 593.427094 589.365217 587.831846 589.166024 585.317807 598.344237 585.213004 607.351712 584.857906 616.749913L574.553921 617.016964 555.125908 616.945823 555.743629 605.903731C556.600548 596.434389 558.63126 587.270404 560.320438 577.911604L567.73556 536.655614 573.874551 502.695351C574.863398 497.407973 575.213563 491.978315 577.261537 486.90217 578.429932 486.672919 582.853268 486.572431 588.29921 486.563454L590.32065 486.564157C600.270371 486.586409 612.543138 486.877401 615.018981 487.234889ZM593.235983 527.920661C593.122549 536.352446 593.006649 553.402076 590.744137 561.222054 590.33109 562.647052 589.553081 563.935241 588.683833 565.179652 592.947466 565.680919 597.209866 565.663407 601.499392 565.486103 601.04689 558.943371 599.128378 552.516651 598.758485 546.026453 598.440201 544.657 597.787031 541.19206 597.040098 537.70341L596.866174 536.89886C596.047786 533.151126 595.142165 529.560722 594.450465 528.715245 594.239626 528.459139 593.546693 528.124232 593.235983 527.920661ZM212.198117 316.175262C221.872052 315.900441 231.594072 316.036155 241.272939 316.070741 241.086759 332.845878 240.523289 349.958988 241.448022 366.708734L258.47173 366.497501C258.008131 349.729149 258.532146 332.952042 258.19431 316.181063 267.841119 315.967642 277.558208 315.889168 287.201318 316.22725 286.583597 330.468693 286.767311 344.783246 286.761146 359.033226L286.780873 412.930328C286.853619 423.965853 287.537921 434.905066 287.101447 445.948253L280.348434 445.915419C273.06894 445.945335 265.789446 445.938403 258.509952 445.894624 257.944016 427.823855 257.768933 409.028547 258.539544 390.966534 252.848123 390.89211 247.156292 390.852344 241.46405 390.847237 240.747691 397.192965 241.206358 403.900962 241.207591 410.279525L241.163204 445.828956C231.080743 446.001153 220.999926 445.936944 210.920753 445.63633 210.388107 405.867722 211.095836 366.062997 210.723477 326.28454 210.707448 324.658159 210.0663 317.178671 210.958975 316.257566L212.198117 316.175262ZM498.859345 486.600137 500.429175 486.616247C510.619004 486.739624 520.466133 487.237529 525.964778 488.727744 530.499666 489.955737 534.683155 492.321978 538.001095 495.31535 546.671387 503.137516 548.058486 514.095335 547.885869 524.531092 547.723116 534.36708 545.290453 543.19178 537.068965 550.244535 535.881198 551.258013 534.6811 552.259816 533.468673 553.249945 536.81004 560.886052 538.65334 569.386789 540.920784 577.342481 543.780057 587.377662 547.179373 597.404088 548.731691 607.683336 549.573814 610.455625 551.473831 613.659134 551.690835 616.467541 551.000368 617.049798 547.440987 617.122952 544.120647 617.127581L543.413937 617.127685C542.829949 617.127164 542.260662 617.125463 541.723775 617.125088L541.096193 617.125436C539.978292 617.12783 539.051463 617.141505 538.50415 617.193173 532.383654 616.754291 525.96601 616.970996 519.809758 616.873588 519.261084 612.848133 517.904809 608.890535 516.901166 604.937315L511.670879 583.726515C511.404992 582.663078 511.129197 581.599062 510.851723 580.53393L510.29697 578.402023C509.192733 574.134601 508.149353 569.843633 507.693297 565.494859L501.971052 566.056321C501.71336 572.620943 502.483971 579.24795 502.564114 585.821328 502.689878 596.152016 502.292859 606.536333 502.158465 616.871399 492.052988 616.845132 481.983268 617.084821 471.869161 616.908611L471.798881 609.941225C471.044299 604.108802 471.425289 597.909733 471.406794 592.036815L471.441318 557.590607 471.42159 518.481964C471.420357 510.958588 470.99498 503.173633 471.782852 495.688563 471.797648 492.713798 471.877792 489.724805 471.809978 486.751134 477.129532 486.766456 485.053528 486.596682 493.369156 486.583076L494.932386 486.582438C496.238001 486.58357 497.549801 486.589036 498.859345 486.600137ZM510.753545 510.462794C508.594603 509.026851 505.086784 509.432899 502.524659 509.51389 502.212616 521.044115 502.084486 532.690355 502.376702 544.219486 506.407302 544.103472 509.507005 544.011537 512.731239 541.608084 516.965281 536.986143 516.251388 525.881666 515.602842 520.056905 515.237881 516.773499 513.876675 512.539 510.753545 510.462794ZM210.016981 490.600379C219.911619 496.885912 223.799194 507.677371 225.768258 517.851551 229.987504 539.652269 231.893686 587.436764 217.247156 605.57539 211.72712 612.412535 203.866894 616.182979 194.634735 617.556537 194.327148 617.597397 194.018863 617.633514 193.709879 617.664889 183.314653 618.782341 172.428825 617.211779 164.058764 611.337767 152.344499 603.118308 149.653281 587.390796 148.141775 574.966389 147.259704 567.71663 147.463638 560.335534 147.458336 553.054036 147.457707 552.191157 147.45619 551.304251 147.455472 550.396145L147.455407 548.739266C147.471021 531.580697 148.10013 507.81812 159.857889 495.050488 165.46448 488.96196 173.926645 486.188577 182.513465 485.365536 191.830329 484.625676 202.241831 485.662137 210.016981 490.600379ZM187.501965 509.201966C185.159063 509.623336 183.778005 510.30519 182.419019 512.14937 176.819702 519.748265 177.870938 577.404865 180.709003 587.812166 181.463955 590.581172 183.281979 593.78687 186.13743 595.283008 186.743438 595.600404 187.370529 595.85651 188.065189 595.968146 193.1633 592.737274 194.51304 590.002198 195.539246 584.565973 197.575877 573.776702 196.970239 562.344979 196.964197 551.436411 196.958896 542.04806 197.366148 532.418926 196.175216 523.078732 195.705082 519.392562 195.056043 513.955243 192.479245 510.989233 191.257118 509.582841 189.370664 509.359569 187.501965 509.201966ZM537.115818 316.203171C549.44805 315.990042 561.780283 315.968225 574.112515 316.137722 577.933099 333.201945 581.449137 350.315785 584.66063 367.47924 585.670438 372.880442 585.997177 378.37139 587.163573 383.740853 589.555547 376.457165 590.167104 368.51789 591.82669 361.071127 594.230995 350.279667 596.614339 339.499152 598.780679 328.667198 599.609239 324.526823 600.932223 320.372987 601.273757 316.177232 613.205272 315.866622 625.179941 316.054871 637.116388 316.077745L637.028847 445.906664C628.661867 445.801595 620.276393 445.93512 611.906948 445.970143L611.696109 414.588447C611.670216 405.481375 611.789815 396.506733 611.084552 387.40185 610.718358 385.974663 610.549441 384.71493 609.503876 383.548226 608.735732 383.913779 608.563115 384.409573 608.352276 385.172417 608.119244 386.011875 608.148835 386.881977 607.833193 387.706112 606.96641 400.172108 603.175007 414.725256 600.431634 427.143096 599.034672 433.46584 598.257896 439.658343 596.096488 445.843184 590.406301 445.97671 584.711182 445.840995 579.022228 445.752343 578.947016 438.998378 576.79054 431.882144 575.313434 425.255137L568.075861 393.038363C566.916863 387.743324 566.936591 382.281926 565.514969 377.035044 564.386795 372.868402 562.680356 368.575897 560.77664 364.636905 560.840755 370.131137 563.196973 373.909242 563.342464 378.147024 563.470694 381.925129 563.129159 385.699951 563.187109 389.478056 563.668792 408.219005 563.65975 426.959954 563.159984 445.700903 554.597372 445.967954 546.03476 445.967224 537.472148 445.698715 536.818671 402.549294 538.27235 359.342961 537.115818 316.203171Z"/></svg>